<?xml version="1.0" encoding="UTF-8" standalone="no"?><svg xmlns="http://www.w3.org/2000/svg" xmlns:xlink="http://www.w3.org/1999/xlink" fill="#000000" height="502.1" preserveAspectRatio="xMidYMid meet" version="1" viewBox="-0.4 -0.9 456.4 502.1" width="456.4" zoomAndPan="magnify"><g><g><g id="change1_3"><path d="M426.6,270.5c0.7-60.9,6.4-121.7,3.1-182.7c-0.3-19.1-1.5-38.5-8-56.6c-1.2-3.8-3-7.3-5.2-10.4 c-0.6-1.4-1.3-2.7-1.9-4c-5.2-7.5-13.7-12.3-22.5-13.9c-16.6-3.7-33.6-2.8-50.5-2.4c-22.5,0.7-45.1,0.5-67.6-0.1 c-24.1-0.3-48.3,1.8-72.4,1.4c-12.6-0.3-25.6-2.3-38.1-0.9c-24.3-0.5-48.6-0.3-72.9-0.2C71.4,0.5,47-0.9,35.5,18 c-0.6,1-1.2,1.9-1.7,2.8c-8.6,10.3-7.5,25.3-8.7,38.1c-1.5,27.8-0.2,55.8-0.1,83.7c-1.3,44.4-3.9,88.9,0,133.2 c0.2,1.8,0,3.7,0.3,5.5c-1.2,0.3-2.1,1.1-2.2,2.4c-0.3,1.7,1.2,3.4,2.9,3.3c3.2,0.2,5,0.2,9.3,0.2c6.4,0,12.9,0.1,19.3,0.1 c31,2.3,62,5.5,93.1,5.3c24.7,0.4,49.3-0.7,74-1.9c36.6-0.3,73.2-1,109.8-2.2c14.2,0.5,28.3,1.1,42.5,0.7 c14.5-0.2,28.8-3.2,43.3-3.1c0.5,0.1,1,0,1.4-0.1c1.4,0.1,2.8,0.2,3.9,0.3c1.7-0.1,2.6-1.7,2.7-3.2 C428,280.6,425.9,274.1,426.6,270.5z" fill="#202f5a"/></g><g fill="#ffbe4f" id="change2_5"><path d="M388.7,70.1c0.2-0.8,0.1-1.6-0.5-2.2c-1.3-1.2-3.4-0.7-5-1c-61-2-122.1,1.9-183.1-0.6 c-40.7-1.5-81.5-2.4-122.3-2.1c-3,0.5-8-0.4-10.6,0.4c-0.9-0.2-1.8,0.2-2.1,1.4c-0.1,0.6-0.1,1.1-0.1,1.4 c-0.2,0.4-0.2,0.9-0.1,1.4c0.1,1.4,1.2,2.6,2.4,3c5.5,0.8,11.2-0.4,16.8-0.4c34.5,0.1,146.2,2.7,174.3,3.1c2.7,0,127.5,1,128,1.8 c1,0.3,2.5,0.2,2.4-1.1C388.8,74,389.2,71.4,388.7,70.1z"/><path d="M388.7,182.2c0.2-0.8,0.1-1.6-0.5-2.2c-1.3-1.2-3.4-0.7-5-1c-61-2-122.1,1.9-183.1-0.6 c-40.7-1.5-81.5-2.4-122.3-2.1c-3,0.5-8-0.4-10.6,0.4c-0.9-0.2-1.8,0.2-2.1,1.4c-0.1,0.6-0.1,1.1-0.1,1.4 c-0.2,0.4-0.2,0.9-0.1,1.4c0.1,1.4,1.2,2.6,2.4,3c5.5,0.8,11.2-0.4,16.8-0.4c34.5,0.1,146.2,2.7,174.3,3.1c2.7,0,127.5,1,128,1.8 c1,0.3,2.5,0.2,2.4-1.1C388.8,186.2,389.2,183.6,388.7,182.2z"/><path d="M388.7,238.3c0.2-0.8,0.1-1.6-0.5-2.2c-1.3-1.2-3.4-0.7-5-1c-61-2-122.1,1.9-183.1-0.6 c-40.7-1.5-81.5-2.4-122.3-2.1c-3,0.5-8-0.4-10.6,0.4c-0.9-0.2-1.8,0.2-2.1,1.4c-0.1,0.6-0.1,1.1-0.1,1.4 c-0.2,0.4-0.2,0.9-0.1,1.4c0.1,1.4,1.2,2.6,2.4,3c5.5,0.8,11.2-0.4,16.8-0.4c34.5,0.1,146.2,2.7,174.3,3.1c2.7,0,127.5,1,128,1.8 c1,0.3,2.5,0.2,2.4-1.1C388.8,242.3,389.2,239.7,388.7,238.3z"/><path d="M388.7,126.2c0.2-0.8,0.1-1.6-0.5-2.2c-1.3-1.2-3.4-0.7-5-1c-61-2-122.1,1.9-183.1-0.6 c-40.7-1.5-81.5-2.4-122.3-2.1c-3,0.5-8-0.4-10.6,0.4c-0.9-0.2-1.8,0.2-2.1,1.4c-0.1,0.6-0.1,1.1-0.1,1.4 c-0.2,0.4-0.2,0.9-0.1,1.4c0.1,1.4,1.2,2.6,2.4,3c5.5,0.8,11.2-0.4,16.8-0.4c34.5,0.1,146.2,2.7,174.3,3.1c2.7,0,127.5,1,128,1.8 c1,0.3,2.5,0.2,2.4-1.1C388.8,130.1,389.2,127.5,388.7,126.2z"/></g><g><g><g fill="#f75454" id="change3_12"><path d="M97.5,63.1c0.1,1,0.7,2,1.6,2.3c3.5,0.4,7.1,0.1,10.7,0.2c8.9-0.5,18.4,1.4,26.4-0.8 c2.1-1.4,0.7-4.3,0.2-6.3c-0.8-1.9-1.7-2-2.7-2c-1.7-10-2.9-20.2-6.1-29.7c-0.3-0.8-0.8-1.6-1.6-1.9c-4.2-1.5-10.8-1.9-15.1-1 c-2.1,1.7-2.4,4.9-3.2,7.5c-1,4.8-1.9,8.6-3.3,13.4c-1,3.7-2.3,9-2.9,10.1c-0.4,0.4-0.7,1-0.9,1.4c-0.3,0-0.6,0-1,0 C97.2,57,97.4,60.1,97.5,63.1z"/><path d="M125.8,24.6c0.1,0,0.1,0.1,0.2,0.1c0,0,0.1,0,0.1,0C125.8,24.6,125.7,24.5,125.8,24.6z"/></g><g id="change2_9"><path d="M105.3,58.2c8.8-0.3,17.7-0.5,26.4-1c0.8-0.3,0.6-1.7-0.2-1.7c-9.2,0.7-18.3,0.2-27.5,0.8 c-0.4,0-0.8,0.4-0.9,0.9C103.2,58.6,104.5,58.3,105.3,58.2z" fill="#ffbe4f"/></g></g><g><g fill="#f75454" id="change3_8"><path d="M169.2,63.4c0.1,1,0.7,2,1.6,2.3c3.5,0.4,7.1,0.1,10.7,0.2c8.9-0.5,18.4,1.4,26.4-0.8 c2.1-1.4,0.7-4.3,0.2-6.3c-0.8-1.9-1.7-2-2.7-2c-1.7-10-2.9-20.2-6.1-29.7c-0.3-0.8-0.8-1.6-1.6-1.9c-4.2-1.5-10.8-1.9-15.1-1 c-2.1,1.7-2.4,4.9-3.2,7.5c-1,4.8-1.9,8.6-3.3,13.4c-1,3.7-2.3,9-2.9,10.1c-0.4,0.4-0.7,1-0.9,1.4c-0.3,0-0.6,0-1,0 C168.9,57.4,169.1,60.5,169.2,63.4z"/><path d="M197.5,24.9c0.1,0,0.1,0.1,0.2,0.1c0,0,0.1,0,0.1,0C197.5,24.9,197.4,24.9,197.5,24.9z"/></g><g id="change2_15"><path d="M177,58.6c8.8-0.3,17.7-0.5,26.4-1c0.8-0.3,0.6-1.7-0.2-1.7c-9.2,0.7-18.3,0.2-27.5,0.8 c-0.4,0-0.8,0.4-0.9,0.9C174.9,59,176.2,58.6,177,58.6z" fill="#ffbe4f"/></g></g><g><g fill="#f75454" id="change3_1"><path d="M244.1,65.4c0.1,1,0.7,2,1.6,2.3c3.5,0.4,7.1,0.1,10.7,0.2c8.9-0.5,18.4,1.4,26.4-0.8 c2.1-1.4,0.7-4.3,0.2-6.3c-0.8-1.9-1.7-2-2.7-2c-1.7-10-2.9-20.2-6.1-29.7c-0.3-0.8-0.8-1.6-1.6-1.9c-4.2-1.5-10.8-1.9-15.1-1 c-2.1,1.7-2.4,4.9-3.2,7.5c-1,4.8-1.9,8.6-3.3,13.4c-1,3.7-2.3,9-2.9,10.1c-0.4,0.4-0.7,1-0.9,1.4c-0.3,0-0.6,0-1,0 C243.9,59.4,244.1,62.5,244.1,65.4z"/><path d="M272.5,26.9c0.1,0,0.1,0.1,0.2,0.1c0,0,0.1,0,0.1,0C272.4,26.9,272.3,26.9,272.5,26.9z"/></g><g id="change2_1"><path d="M251.9,60.6c8.8-0.3,17.7-0.5,26.4-1c0.8-0.3,0.6-1.7-0.2-1.7c-9.2,0.7-18.3,0.2-27.5,0.8 c-0.4,0-0.8,0.4-0.9,0.9C249.9,61,251.1,60.6,251.9,60.6z" fill="#ffbe4f"/></g></g><g><g fill="#f75454" id="change3_5"><path d="M317.8,65.4c0.1,1,0.7,2,1.6,2.3c3.5,0.4,7.1,0.1,10.7,0.2c8.9-0.5,18.4,1.4,26.4-0.8 c2.1-1.4,0.7-4.3,0.2-6.3c-0.8-1.9-1.7-2-2.7-2c-1.7-10-2.9-20.2-6.1-29.7c-0.3-0.8-0.8-1.6-1.6-1.9c-4.2-1.5-10.8-1.9-15.1-1 c-2.1,1.7-2.4,4.9-3.2,7.5c-1,4.8-1.9,8.6-3.3,13.4c-1,3.7-2.3,9-2.9,10.1c-0.4,0.4-0.7,1-0.9,1.4c-0.3,0-0.6,0-1,0 C317.5,59.4,317.7,62.5,317.8,65.4z"/><path d="M346.1,26.9c0.1,0,0.1,0.1,0.2,0.1c0,0,0.1,0,0.1,0C346,26.9,346,26.9,346.1,26.9z"/></g><g id="change2_10"><path d="M325.6,60.6c8.8-0.3,17.7-0.5,26.4-1c0.8-0.3,0.6-1.7-0.2-1.7c-9.2,0.7-18.3,0.2-27.5,0.8 c-0.4,0-0.8,0.4-0.9,0.9C323.5,61,324.7,60.6,325.6,60.6z" fill="#ffbe4f"/></g></g><g><g fill="#f75454" id="change3_11"><path d="M96.2,176.5c0.1,1,0.7,2,1.6,2.3c3.5,0.4,7.1,0.1,10.7,0.2c8.9-0.5,18.4,1.4,26.4-0.8 c2.1-1.4,0.7-4.3,0.2-6.3c-0.8-1.9-1.7-2-2.7-2c-1.7-10-2.9-20.2-6.1-29.7c-0.3-0.8-0.8-1.6-1.6-1.9c-4.2-1.5-10.8-1.9-15.1-1 c-2.1,1.7-2.4,4.9-3.2,7.5c-1,4.8-1.9,8.6-3.3,13.4c-1,3.7-2.3,9-2.9,10.1c-0.4,0.4-0.7,1-0.9,1.4c-0.3,0-0.6,0-1,0 C96,170.4,96.1,173.5,96.2,176.5z"/><path d="M124.5,138c0.1,0,0.1,0.1,0.2,0.1c0,0,0.1,0,0.1,0C124.5,138,124.4,137.9,124.5,138z"/></g><g id="change2_3"><path d="M104,171.7c8.8-0.3,17.7-0.5,26.4-1c0.8-0.3,0.6-1.7-0.2-1.7c-9.2,0.7-18.3,0.2-27.5,0.8 c-0.4,0-0.8,0.4-0.9,0.9C102,172.1,103.2,171.7,104,171.7z" fill="#ffbe4f"/></g></g><g><g fill="#f75454" id="change3_3"><path d="M167.9,176.9c0.1,1,0.7,2,1.6,2.3c3.5,0.4,7.1,0.1,10.7,0.2c8.9-0.5,18.4,1.4,26.4-0.8 c2.1-1.4,0.7-4.3,0.2-6.3c-0.8-1.9-1.7-2-2.7-2c-1.7-10-2.9-20.2-6.1-29.7c-0.3-0.8-0.8-1.6-1.6-1.9c-4.2-1.5-10.8-1.9-15.1-1 c-2.1,1.7-2.4,4.9-3.2,7.5c-1,4.8-1.9,8.6-3.3,13.4c-1,3.7-2.3,9-2.9,10.1c-0.4,0.4-0.7,1-0.9,1.4c-0.3,0-0.6,0-1,0 C167.7,170.8,167.8,173.9,167.9,176.9z"/><path d="M196.2,138.4c0.1,0,0.1,0.1,0.2,0.1c0,0,0.1,0,0.1,0C196.2,138.3,196.1,138.3,196.2,138.4z"/></g><g id="change2_17"><path d="M175.7,172c8.8-0.3,17.7-0.5,26.4-1c0.8-0.3,0.6-1.7-0.2-1.7c-9.2,0.7-18.3,0.2-27.5,0.8 c-0.4,0-0.8,0.4-0.9,0.9C173.6,172.4,174.9,172,175.7,172z" fill="#ffbe4f"/></g></g><g><g fill="#f75454" id="change3_13"><path d="M242.9,178.8c0.1,1,0.7,2,1.6,2.3c3.5,0.4,7.1,0.1,10.7,0.2c8.9-0.5,18.4,1.4,26.4-0.8 c2.1-1.4,0.7-4.3,0.2-6.3c-0.8-1.9-1.7-2-2.7-2c-1.7-10-2.9-20.2-6.1-29.7c-0.3-0.8-0.8-1.6-1.6-1.9c-4.2-1.5-10.8-1.9-15.1-1 c-2.1,1.7-2.4,4.9-3.2,7.5c-1,4.8-1.9,8.6-3.3,13.4c-1,3.7-2.3,9-2.9,10.1c-0.4,0.4-0.7,1-0.9,1.4c-0.3,0-0.6,0-1,0 C242.6,172.8,242.8,175.9,242.9,178.8z"/><path d="M271.2,140.4c0.1,0,0.1,0.1,0.2,0.1c0,0,0.1,0,0.1,0C271.2,140.3,271.1,140.3,271.2,140.4z"/></g><g id="change2_7"><path d="M250.7,174c8.8-0.3,17.7-0.5,26.4-1c0.8-0.3,0.6-1.7-0.2-1.7c-9.2,0.7-18.3,0.2-27.5,0.8 c-0.4,0-0.8,0.4-0.9,0.9C248.6,174.4,249.9,174,250.7,174z" fill="#ffbe4f"/></g></g><g><g fill="#f75454" id="change3_4"><path d="M316.5,178.8c0.1,1,0.7,2,1.6,2.3c3.5,0.4,7.1,0.1,10.7,0.2c8.9-0.5,18.4,1.4,26.4-0.8 c2.1-1.4,0.7-4.3,0.2-6.3c-0.8-1.9-1.7-2-2.7-2c-1.7-10-2.9-20.2-6.1-29.7c-0.3-0.8-0.8-1.6-1.6-1.9c-4.2-1.5-10.8-1.9-15.1-1 c-2.1,1.7-2.4,4.9-3.2,7.5c-1,4.8-1.9,8.6-3.3,13.4c-1,3.7-2.3,9-2.9,10.1c-0.4,0.4-0.7,1-0.9,1.4c-0.3,0-0.6,0-1,0 C316.3,172.8,316.4,175.9,316.5,178.8z"/><path d="M344.8,140.4c0.1,0,0.1,0.1,0.2,0.1c0,0,0.1,0,0.1,0C344.8,140.3,344.7,140.3,344.8,140.4z"/></g><g id="change2_18"><path d="M324.3,174c8.8-0.3,17.7-0.5,26.4-1c0.8-0.3,0.6-1.7-0.2-1.7c-9.2,0.7-18.3,0.2-27.5,0.8 c-0.4,0-0.8,0.4-0.9,0.9C322.2,174.4,323.5,174,324.3,174z" fill="#ffbe4f"/></g></g><g><g fill="#f75454" id="change3_6"><path d="M131.4,118c0.1,1,0.7,2,1.6,2.3c3.5,0.4,7.1,0.1,10.7,0.2c8.9-0.5,18.4,1.4,26.4-0.8 c2.1-1.4,0.7-4.3,0.2-6.3c-0.8-1.9-1.7-2-2.7-2c-1.7-10-2.9-20.2-6.1-29.7c-0.3-0.8-0.8-1.6-1.6-1.9c-4.2-1.5-10.8-1.9-15.1-1 c-2.1,1.7-2.4,4.9-3.2,7.5c-1,4.8-1.9,8.6-3.3,13.4c-1,3.7-2.3,9-2.9,10.1c-0.4,0.4-0.7,1-0.9,1.4c-0.3,0-0.6,0-1,0 C131.2,112,131.3,115.1,131.4,118z"/><path d="M159.7,79.5c0.1,0,0.1,0.1,0.2,0.1c0,0,0.1,0,0.1,0C159.7,79.5,159.6,79.5,159.7,79.5z"/></g><g id="change2_16"><path d="M139.2,113.2c8.8-0.3,17.7-0.5,26.4-1c0.8-0.3,0.6-1.7-0.2-1.7c-9.2,0.7-18.3,0.2-27.5,0.8 c-0.4,0-0.8,0.4-0.9,0.9C137.1,113.6,138.4,113.2,139.2,113.2z" fill="#ffbe4f"/></g></g><g><g fill="#f75454" id="change3_2"><path d="M206.4,120c0.1,1,0.7,2,1.6,2.3c3.5,0.4,7.1,0.1,10.7,0.2c8.9-0.5,18.4,1.4,26.4-0.8 c2.1-1.4,0.7-4.3,0.2-6.3c-0.8-1.9-1.7-2-2.7-2c-1.7-10-2.9-20.2-6.1-29.7c-0.3-0.8-0.8-1.6-1.6-1.9c-4.2-1.5-10.8-1.9-15.1-1 c-2.1,1.7-2.4,4.9-3.2,7.5c-1,4.8-1.9,8.6-3.3,13.4c-1,3.7-2.3,9-2.9,10.1c-0.4,0.4-0.7,1-0.9,1.4c-0.3,0-0.6,0-1,0 C206.1,114,206.3,117.1,206.4,120z"/><path d="M234.7,81.5c0.1,0,0.1,0.1,0.2,0.1c0,0,0.1,0,0.1,0C234.6,81.5,234.6,81.5,234.7,81.5z"/></g><g id="change2_6"><path d="M214.2,115.2c8.8-0.3,17.7-0.5,26.4-1c0.8-0.3,0.6-1.7-0.2-1.7c-9.2,0.7-18.3,0.2-27.5,0.8 c-0.4,0-0.8,0.4-0.9,0.9C212.1,115.6,213.3,115.2,214.2,115.2z" fill="#ffbe4f"/></g></g><g><g fill="#f75454" id="change3_10"><path d="M280,120c0.1,1,0.7,2,1.6,2.3c3.5,0.4,7.1,0.1,10.7,0.2c8.9-0.5,18.4,1.4,26.4-0.8 c2.1-1.4,0.7-4.3,0.2-6.3c-0.8-1.9-1.7-2-2.7-2c-1.7-10-2.9-20.2-6.1-29.7c-0.3-0.8-0.8-1.6-1.6-1.9c-4.2-1.5-10.8-1.9-15.1-1 c-2.1,1.7-2.4,4.9-3.2,7.5c-1,4.8-1.9,8.6-3.3,13.4c-1,3.7-2.3,9-2.9,10.1c-0.4,0.4-0.7,1-0.9,1.4c-0.3,0-0.6,0-1,0 C279.7,114,279.9,117.1,280,120z"/><path d="M308.3,81.5c0.1,0,0.1,0.1,0.2,0.1c0,0,0.1,0,0.1,0C308.3,81.5,308.2,81.5,308.3,81.5z"/></g><g id="change2_13"><path d="M287.8,115.2c8.8-0.3,17.7-0.5,26.4-1c0.8-0.3,0.6-1.7-0.2-1.7c-9.2,0.7-18.3,0.2-27.5,0.8 c-0.4,0-0.8,0.4-0.9,0.9C285.7,115.6,287,115.2,287.8,115.2z" fill="#ffbe4f"/></g></g><g><g fill="#f75454" id="change3_7"><path d="M129.4,230.1c0.1,1,0.7,2,1.6,2.3c3.5,0.4,7.1,0.1,10.7,0.2c8.9-0.5,18.4,1.4,26.4-0.8 c2.1-1.4,0.7-4.3,0.2-6.3c-0.8-1.9-1.7-2-2.7-2c-1.7-10-2.9-20.2-6.1-29.7c-0.3-0.8-0.8-1.6-1.6-1.9c-4.2-1.5-10.8-1.9-15.1-1 c-2.1,1.7-2.4,4.9-3.2,7.5c-1,4.8-1.9,8.6-3.3,13.4c-1,3.7-2.3,9-2.9,10.1c-0.4,0.4-0.7,1-0.9,1.4c-0.3,0-0.6,0-1,0 C129.2,224.1,129.3,227.2,129.4,230.1z"/><path d="M157.7,191.6c0.1,0,0.1,0.1,0.2,0.1c0,0,0.1,0,0.1,0C157.7,191.6,157.6,191.6,157.7,191.6z"/></g><g id="change2_2"><path d="M137.2,225.3c8.8-0.3,17.7-0.5,26.4-1c0.8-0.3,0.6-1.7-0.2-1.7c-9.2,0.7-18.3,0.2-27.5,0.8 c-0.4,0-0.8,0.4-0.9,0.9C135.1,225.7,136.4,225.3,137.2,225.3z" fill="#ffbe4f"/></g></g><g><g fill="#f75454" id="change3_14"><path d="M204.4,232.1c0.1,1,0.7,2,1.6,2.3c3.5,0.4,7.1,0.1,10.7,0.2c8.9-0.5,18.4,1.4,26.4-0.8 c2.1-1.4,0.7-4.3,0.2-6.3c-0.8-1.9-1.7-2-2.7-2c-1.7-10-2.9-20.2-6.1-29.7c-0.3-0.8-0.8-1.6-1.6-1.9c-4.2-1.5-10.8-1.9-15.1-1 c-2.1,1.7-2.4,4.9-3.2,7.5c-1,4.8-1.9,8.6-3.3,13.4c-1,3.7-2.3,9-2.9,10.1c-0.4,0.4-0.7,1-0.9,1.4c-0.3,0-0.6,0-1,0 C204.1,226,204.3,229.2,204.4,232.1z"/><path d="M232.7,193.6c0.1,0,0.1,0.1,0.2,0.1c0,0,0.1,0,0.1,0C232.7,193.6,232.6,193.6,232.7,193.6z"/></g><g id="change2_8"><path d="M212.2,227.3c8.8-0.3,17.7-0.5,26.4-1c0.8-0.3,0.6-1.7-0.2-1.7c-9.2,0.7-18.3,0.2-27.5,0.8 c-0.4,0-0.8,0.4-0.9,0.9C210.1,227.7,211.4,227.3,212.2,227.3z" fill="#ffbe4f"/></g></g><g><g fill="#f75454" id="change3_15"><path d="M278,232.1c0.1,1,0.7,2,1.6,2.3c3.5,0.4,7.1,0.1,10.7,0.2c8.9-0.5,18.4,1.4,26.4-0.8 c2.1-1.4,0.7-4.3,0.2-6.3c-0.8-1.9-1.7-2-2.7-2c-1.7-10-2.9-20.2-6.1-29.7c-0.3-0.8-0.8-1.6-1.6-1.9c-4.2-1.5-10.8-1.9-15.1-1 c-2.1,1.7-2.4,4.9-3.2,7.5c-1,4.8-1.9,8.6-3.3,13.4c-1,3.7-2.3,9-2.9,10.1c-0.4,0.4-0.7,1-0.9,1.4c-0.3,0-0.6,0-1,0 C277.8,226,277.9,229.2,278,232.1z"/><path d="M306.3,193.6c0.1,0,0.1,0.1,0.2,0.1c0,0,0.1,0,0.1,0C306.3,193.6,306.2,193.6,306.3,193.6z"/></g><g id="change2_12"><path d="M285.8,227.3c8.8-0.3,17.7-0.5,26.4-1c0.8-0.3,0.6-1.7-0.2-1.7c-9.2,0.7-18.3,0.2-27.5,0.8 c-0.4,0-0.8,0.4-0.9,0.9C283.7,227.7,285,227.3,285.8,227.3z" fill="#ffbe4f"/></g></g></g><g><g><g id="change4_1"><path d="M157.1,269.6c-0.7-0.5-1.9-1.2-3-1.7c0.1-0.1,0.1-0.1,0.2-0.1c0,0,0.1,0,0.1,0c0.5-0.2,1.2,0.3,2.1,0.1 c0.8-0.2,0.9-1.2,0.2-1.6c-1.5-1-3-2-4.7-2.6c-2.6-0.1-5.1-0.3-7.7-0.2c-0.9-0.4-1.8-0.7-2.1-0.9c-2.7-1.2-5.3-2.4-8-3.5 c-4.9-2.2-21.3-8.4-40.4-16.7c-3.2-1.4-5.8-2.3-8.3-3.6c-1.6-0.7-3.3-1.3-5-1.7c-1.4-2.1-3.2-4.8-4.5-4.7 c-1.7-0.6-3.5-1.3-5.3-1.6c-0.4,0-0.8,0-1.1,0.1c-1.1,0.6-2.1,1.4-3.1,2.2c-1.5-0.4-3.7-1-3.7-1.1c0-0.1-0.1-0.2-0.1-0.2 c-0.1-0.4-0.3-0.8-0.5-1.1c-1.4-1-2.4-1.3-3.8-1.8c-1.4-0.5-4.3-1-5.1-1.1c-0.8-0.1-2.5-0.6-3.7-0.4c-0.5,0.1-1,0.4-1.4,0.7 c-1.8,1.3-4.1,3-5.8,4.8c-0.7,1,0.4,1.9,1.3,2.4c2.2,1.2,4.4,2.3,6.5,3.4c1.9,4.6-1.5,9.1-5.6,12.4c-2.3,1.9-5.6,3.2-7.7,5.9 c-2.3,2.8-4.3,5.9-5.7,9.2c-0.3,0.7-0.1,1.5,0.4,2c3.2,2.9,7.7,4.1,11.8,5.3c2.1,0.5,4.2,1.9,6.4,1.6c1.3-0.3,1.9-1.7,1.5-2.9 c-0.1-0.7-0.8-1.5-1-2.3c-0.1-0.6,0.2-1.1,0.5-1.6c2.6-3.4,6.3-7.1,9.9-10.2c3.4,1.1,6.7,2.5,10.1,3.4c1.8,0.5,3.7,0.8,5.3,1.3 c1.1,0.3,2.2,0.8,3.3,1c0.4,0,0.8-0.1,1-0.3c1.8-1.4,3.2-3.2,4.9-4.6c3.3-2.9,8.4-3.3,13.1-2.6c1.7,0.7,3.4,1.5,5.3,2.2 c8,2.9,39.7,15,48.5,16.6c0.3,0,0.5,0.2,0.8,0.1c0.1,0,0.1-0.1,0.1-0.1c0,0,0,0,0.1,0c0.8-0.4,1.7-0.7,2.5-1.1 c0.6-0.5,0.8-1.5,1.1-2.3C157,270.7,157.3,270.2,157.1,269.6z M78.3,259.1c-0.1,0-0.3,0-0.4,0.1c-1.4,0.2-3,0-4.6-0.5 c-2.5-0.8-3.9-0.9-6.2-2.7c-1.1-0.7-1.7-2.2-1.3-3.5c0.5-2,1.7-3.2,3.4-4.7c0.7-0.6,1.3-1.1,2-1.3c3.2,1,7.5,3.1,11.1,4.4 c0.4,0.1,0.8,0.3,1.3,0.5c0,0.1-0.1,0.2-0.1,0.4c-0.5,1.6-1,3.4-1.6,4.5C80.9,257.9,79.7,258.7,78.3,259.1z" fill="#f66125"/></g><g fill="#f75454" id="change3_9"><path d="M76,253.6c-0.1-0.5,0.3-0.8,0.6-1.2c1-1.1,2.1-1.6,3.2-2.5c0.4-0.3,0.6-0.8,0.4-1.2c0-0.1,0-0.2,0-0.2 c0-0.1,0-0.1,0-0.2c0-0.1-0.1-0.2-0.1-0.3c-0.1-0.2-0.2-0.3-0.4-0.3c-2.1-0.6-5.4-2.1-6.2-1.8c-0.3,0.3-0.3,0.5-0.2,0.7 c0,0,0,0,0,0.1c0.9,1.4-0.2,3-0.9,4.4c-0.6,1.2-0.8,2.6-0.8,4.1c-0.1,1.4,0.6,2.8,1.9,3.8c1.3,1,3.5,1.4,4.2-0.3 C78.1,257.5,76,254.6,76,253.6z"/><path d="M80,248.3C80,248.3,80,248.3,80,248.3C80,248.3,80,248.3,80,248.3C80.1,248.3,80,248.3,80,248.3z"/><path d="M80,248.3C80,248.2,80,248.2,80,248.3C80,248.2,80,248.2,80,248.3z"/></g></g><g id="change1_4"><path d="M69,244.4c-4.6-1.7-9.2-3.3-13.9-4.7c-1-0.2-2.1-0.8-3.1-0.8c-0.3,0.1-0.3,0.6,0.1,0.7 c0.2,0,0.3,0.1,0.5,0.2c0,0,0,0,0,0c-0.3,3.5-2.2,7.1-4.5,9.8c-2.5,2.9-5.8,4.4-8.7,6.8c-2.7,2.4-4.9,5.6-6.1,9 c-0.3,0.8,0.1,1.7,0.7,2.2c1.4,1.3,3.2,2,5.1,2.6c2.8,1,5.7,1.9,8.5,2c1.3,0.1,1.9-0.4,1.8-1.6c-0.1-0.4-0.4-1.2-0.2-1.8 c0.1-0.7,0.9-1.8,1.6-2.7c2.6-3.4,5.4-6.7,8.9-9.1c0.9-0.7,2.5-1.2,2.9-1.7c0-0.1,0-0.1,0-0.1c0.1-0.1,0.1-0.2,0.1-0.3 c1.3-3.4,2.7-5.8,4.5-9.3c0.1-0.3,0.3-0.6,0.4-0.9c0.4,0.1,0.8,0.3,1.2,0.4C69,245.3,69.3,244.7,69,244.4z M61.4,255.1 C61.4,255.1,61.4,255.1,61.4,255.1c-0.1,0.1-0.1,0.1-0.2,0.2c0,0-0.1,0-0.1,0.1c-3.2,1.5-5.7,4.1-8.1,6.6 c-1.6,2.1-3.7,3.9-4.8,6.4c-0.4,0.9,0,1.8,0.2,2.7c0,0.1,0,0.2,0,0.3c0,0,0,0,0,0c0,0,0,0,0,0.1c-0.1,0.3-0.5,0.3-0.8,0.3 c-2.5-0.4-5.6-1.5-8.3-2.3c-2.3-0.7-3.6-1.2-5-2.3c-0.5-0.5-0.6-1-0.4-1.7c0.8-2.3,2.9-5.2,4.5-7.1c1.9-2.2,4.3-3.5,6.6-5.1 c2.8-2,5.1-4.6,6.7-7.7c0.9-1.7,1.5-3.6,1.6-5.5c4.4,1.3,8.7,2.8,13.1,4.3C64.9,247.7,62.5,251.2,61.4,255.1z" fill="#202f5a"/></g><g id="change1_5"><path d="M94.9,254.4c0-0.6-0.8-0.5-1.2-0.7c-2.7-0.7-5.3-1.6-7.9-2.2c-0.5-0.1-1.1-0.4-1.4,0.1 c-0.2,0.4,0,0.9,0.5,0.9c2.6,0.4,6.5,1.6,9.5,2.3C94.6,254.9,94.9,254.6,94.9,254.4z" fill="#202f5a"/></g><g fill="#202f5a" id="change1_2"><path d="M57.9,238.6C57.9,238.6,57.9,238.6,57.9,238.6C57.9,238.6,57.9,238.6,57.9,238.6z"/><path d="M61.3,231.1c0.3-0.9-1.1-1.3-1.4-0.4c-0.9,2.5-1.9,5-2.9,7.5c-0.1,0.3,0.1,0.7,0.4,0.7 c0.2,0.1,0.4-0.2,0.5-0.3c0,0,0,0,0,0C59.1,236.2,60.2,233.6,61.3,231.1z"/></g><g id="change1_6"><path d="M72.3,232.6c-0.1-0.1-0.3-0.2-0.4-0.3c0,0,0-0.1-0.1-0.1c-0.8-0.6-2.1-0.2-2.6,0.7c-0.6,1.1,0,2.2,1,2.6 C71.9,236.2,73.8,234.1,72.3,232.6z M71.2,234.8c-0.1,0.1-0.5,0.1-0.8-0.1c0,0,0,0-0.1,0c0,0-0.1-0.1-0.1-0.1c0,0,0,0,0,0 c0,0,0,0,0,0c0-0.1,0-0.1,0-0.2c0,0,0-0.1,0-0.1c0,0,0,0,0,0c0-0.1,0-0.2,0.1-0.3c0,0.2,0,0.1,0-0.1c0.1-0.3,0.1-0.3,0.4-0.5 c0,0,0,0,0.1,0c0.2-0.1,0.1-0.1,0.4-0.1c0,0,0.1,0,0.1,0c0,0,0,0,0,0.1c0.3,0.1,0.4,0.1,0.5,0.2 C72.1,233.8,72.1,234.4,71.2,234.8z" fill="#202f5a"/></g><g id="change1_7"><path d="M78,242.2c0.1-0.6-0.3-1.1-0.6-1.2c0-0.1-0.1-0.3-0.3-0.4c-2.3-1.6-4.6,1.5-2.4,3.2 C76.1,244.7,78,243.8,78,242.2z M75.6,243c-0.1-0.1-0.2-0.2-0.3-0.5c0,0,0,0,0,0c0,0,0-0.2,0-0.3c0.1-0.6,0.2-0.7,0.6-0.8 c0.2,0,0.3,0,0.6,0.2c0,0.1,0,0.2,0.1,0.2c0.2,0.3,0.2,0.3,0.1,0.9C76.6,242.9,76,243.2,75.6,243z" fill="#202f5a"/></g><g id="change1_8"><path d="M90.8,242.5c-1.2-1-3.3-1.6-4.3-1.9c-0.6-0.1-1-0.6-1.6-0.2c-0.3-0.2-0.7-0.1-0.8,0.2 c-0.6,2.3-1.3,6-2.2,7.3c-0.1,0.1,0.1-0.1,0,0c-0.1,0.1-0.1,0.3-0.1,0.5c0.1,0.3,0.3,0.5,0.5,0.7c1.3,0.8,2.7,1.3,4.1,1.9 c0.6,0.2,1.1-0.3,1.4-0.7c0.5-0.9,1-1.8,1.4-2.8c0.4-1.2,1.1-3.1,1.5-3.6C90.9,243.4,91.3,243.1,90.8,242.5z M87.1,249.3 c-0.3,0.6-0.3,0.6-0.5,0.6c-0.5-0.2-2.2-0.8-3.1-1.3c0,0-0.1,0-0.1,0c-0.2-0.1-0.6-0.3-0.7-0.4c0-0.1,0-0.1,0-0.1c0,0,0,0,0,0 c0-0.1,0-0.1,0-0.1c0-0.1,0-0.2,0-0.3c0.5-1.8,1.6-4,2.2-6.1c0.1,0,0.1,0.1,0.2,0.1c0.4,0.1,0.4,0,1,0.1c0,0,0.1,0,0.2,0 c0.2,0,0.8,0.2,1.2,0.3c0.9,0.4,1.7,0.7,2.3,1.1C89.6,244.2,88,247.5,87.1,249.3z" fill="#202f5a"/></g><g id="change1_9"><path d="M152.7,266.9c-2.2-1.1-4.7-1.8-7-2.8c-0.3-0.1-0.5-0.3-0.8-0.2c-0.3,0.1-0.2,0.6,0.1,0.7 c2.4,0.9,4.8,1.8,7.1,2.8C152.5,267.7,152.9,267.3,152.7,266.9z" fill="#202f5a"/></g></g></g><g id="change2_11"><path d="M451.9,337.3c0.6-20.2,1-40.5,0-60.7c0.9-2.2-2.2-2-3.7-2.1c-49.7-2.6-99.7-0.4-149.5-0.5 c-55.1,0.7-110.1-1.1-165.2,0.7c-40.9,1.6-81.8-2-122.7-0.3c-2.6,0.4-5.4,0-7.8,0.7c-0.5-0.4-1.3-0.3-1.6,0.2 c-0.3,0.6-0.1,1.7-0.2,2.7c-1.6,56.4-1.3,119.8-0.7,178.6c0.2,13,0.8,26,0.7,39c0,0.8,0.5,1.1,1.2,1.3c0.4,0.6,1.2,0.9,2.5,0.7 c22.9,0.4,45.8,2.7,68.7,1c23.2-0.7,46.4,0.5,69.7,0.7c35.4,1.9,70.8-0.7,106.2-1.4c0,0,0,0.1,0.1,0.1 c51.7,1.8,103.6,1.3,155.3,1.3c14.8-0.3,29.6-0.4,44.4-0.4c0.9,0.3,1.7-0.1,2.2-0.6c0.5-0.2,0.9-0.7,0.8-1.5 C456,443.6,451.1,390.5,451.9,337.3z" fill="#ffbe4f"/></g><g id="change1_1"><path d="M444.5,317.8c-0.5-11.5,1.2-23.5-1.5-34.6c-1.1-1.6-3.4-0.7-3.7,0.9c-0.3,0.2-0.6,0.2-0.8,0.6 c-6.9,9.8-15.5,9.5-23.8,5.3c-5.5-2.1-12.1-10.9-17.2-3.7c-4.5,4.6-9.1,8.9-14.7,9.8c-13.7,1.3-25.8-3.7-37.9-11.2 c0.5,0.6-0.3-0.4-0.9-0.5c-1-0.5-2-0.6-3.1-0.4c-1.2,0.3-2.4,1-3.5,1.6c0,0-1.1,0.8-0.4,0.3c-5.6,3.5-12.8,8.4-19.4,9.6 c-9.4,0.7-18.2-1.9-27.4-5.7c-3.3-1-8.9-5.1-13.6-3.9c-9.1,4.4-20,11.5-31.3,10.9c-10.1,0.1-17.8-4.5-27.4-9c-4.4-2-9.5-5.8-13.3-1 c-2.9,2.7-8.9,5.7-12.4,7.1c-6.9,2.9-14,4.8-20,3.6c-11.2-1.5-19.7-8.3-29.7-13.3c-2-1.1-4.5-0.7-6.3,0.8 c-6,4.8-14.5,10.2-22.9,12.2c-15.6,4.7-31-4.6-43-14.5c-3.9-2.1-7,2.6-10.1,4.4c-6.7,4.5-14.9,7.5-22,8.1 c-7.2,0.9-13.6-2.2-18.7-6.1c-2.2-1.5-3.7-4.5-4.5-5.5c-0.3-0.9-0.6-1.9-1.5-2.4c-1.2-0.8-2.8-0.1-3.5,1.1 c-0.8,0.4-1.5,1.2-1.4,2.2c1.2,41.8,3.2,83.6,3.2,125.4c0.6,25.3,4.2,51.8,3.2,76.1c-0.1,0.4-0.1,0.7-0.1,1 c-0.3,1.3,0.8,2.8,2.3,2.3c21-2.6,44.3,0,66.1,0.9c29,1.3,58,1,87,1.5c56.7-2.1,113.5-2.8,170.3-4.9c21.1-1.2,42.3-2.6,63.4-2.2 c0.4,0.1,0.8,0.1,1.1,0c0.1,0,0.2,0,0.2,0c11.1-0.3,22.2,1.8,33.2,0.2c1.3-0.3,2.3-1.4,2.6-2.7c0.4-0.4,0.6-0.9,0.6-1.6 C446.5,426.6,444.6,372.2,444.5,317.8z M38,483.3c-6,0.5-14,0.4-19.9,2.3c-3.5-61.3-2.8-122.7-4.5-184.1c-0.2-2.8,0.1-6.9,0.3-10.7 c4.9,5.7,12.6,9.1,19.9,9.5c12.4,0.6,23.2-5.9,33.1-12.7c1.9,63.5-2.6,127.2,0,190.7c0.1,1.8,0.1,4.7,1.2,5.8 C58,483.6,48,483.3,38,483.3z M133.2,485.8c-21.1,0.5-42.1-0.7-63.1-1.6c0.2-0.1,0.4-0.1,0.6-0.3c1.5-3.3,0.4-7.5,0.6-11.1 c-0.9-56.6-0.6-113.2-1-169.8c-0.3-4.9,0.3-10.1-0.1-15c0.1,0.1,0.2,0.1,0.2,0.2c10.8,9.3,24.9,16.8,39.5,14.8 c10.3-1.5,19.2-7.1,27.8-12.8c3.9,63.3,3.1,130.5,4.2,195c0,0.2,0.2,0.3,0.2,0.5C139.1,485.7,136.1,485.8,133.2,485.8z M145.7,485.6c0-0.2,0.2-0.2,0.2-0.4c0.6-63.3-0.4-117.3-3.5-180.7c-0.7-4.5-0.1-10.4-0.8-15.3c8.8,4.5,17.3,11.2,27.5,12.7 c12.6,3,28.8-4.1,37.8-10.4c1.3,55.8-1.9,111.6,0.2,167.4c0.5,7.3,1,14.6,1.6,21.9c0,1.1,1.1,2,2.2,1.7c2.3-0.9,1-4.2,1.3-6.2 c-1.1-13.8-2.3-27.6-1.5-41.5c-0.3-38.3-1.5-76.6-0.4-114.9c0.1-9.9,0.2-19.9-0.5-29.8c5.3,2.2,12.5,6.4,18.8,8.9 c7.9,3.4,16.8,4.2,25.2,2.4c7.3-1.2,16.3-5.9,21.9-8.8c4.3,26.6,2.2,55.6,2.4,83.2c-0.3,35.6,0.8,71.2,3.4,106.6 C235.9,483.6,190.2,484.9,145.7,485.6z M285.1,482.2c-5.2-57.6-1.8-115.4-3.4-173.2c-0.3-5.7-0.7-11.4-1.3-17c0-0.1,0-0.1,0-0.2 c0.4,0.2,1,0.4,1.6,0.6c9.8,4.2,24.4,11,36.9,9.1c7.1-1.5,15-6.6,20.5-10c9.5,58.8,2.3,124.8,6.4,186.1c0.4,2.8,3.7,1.7,3.2-1.1 c0.5-48.6-1.5-97.1-1.7-145.7c-0.2-13.6-1.5-27.1-4-40.5c1.4,0.8,2.8,1.7,4.2,2.4c9.9,5.3,20.8,9,32.1,8.3c7.5,0.6,15.5-5.3,20-9.2 c5.2,62.3-4.9,125.4,2.8,187.3C364.3,479.9,324.9,481,285.1,482.2z M432.5,478.8c-8.6,0.1-17.4,0.2-26.2,0.4c0-0.7-0.1-1.3-0.1-1.8 c-0.3-8-1.1-16.1-1.5-24.1c-1.9-46.6,0.7-93.2-0.5-139.8c-0.5-7.9-0.8-15.8-1.4-23.7c1.8,1.2,2.8,2.2,5,3.5c7.4,4.7,17,7,25.1,2.8 c2.6-1.4,4.7-3.6,6.4-5.8c1.5,60.3,2.3,128.1-2,188.2C436.1,478.3,434.6,478.3,432.5,478.8z" fill="#202f5a"/></g><g><g id="change4_2"><path d="M375.3,322.6c-1-1.1-2.8-0.9-3.6,0.2c-0.6,0-1.2,0.1-1.8,0.4c-3.3,0.7-5.5,1.2-8.1,0.9 c-0.9-0.2-2.8-1.1-3.6-2.9c-0.7-1.3-0.4-1.3-0.7-2.9c-0.3-1-1.4-1.3-2.2-1c-0.4-0.1-0.8-0.4-1.3-0.2 c-70.5,11.9-141.4,22.4-210.3,41.9c-15.1,3-30.3,6.6-44.5,12.7c-2.4,1.3-1.4,4.1-1.1,6.3c0.1,1.8-0.3,2.5-0.3,2.9 c0,0.1,0,0,0.1-0.3c-0.3,0.6-0.3,0.6-0.3,0.8c-1.8,1.8-3.6,3.4-5.3,4.3c-2.5,1.3-4,1.6-6.6,2.4c-0.7,0.4-0.7,1.2-0.4,1.8 c-0.4,4.9,3.9,23.7,5.8,27.8c0.6,0.7,1.4,0.7,2.1,0.6c0.5,0.3,1,0.5,1.8,0.4c2.7-0.5,5.8-1.5,7.4-1c3.1,0.6,6,3.2,7.7,5.2 c0.5,1.4,1.3,2,2,2.1c0.4,0.7,1,1.2,1.8,1.2c8-1.5,16.3-2.3,24-4.8c69.6-12.9,138.9-27.3,208.2-41.8c6.9-1.7,13.9-3.3,19.8-5.7 c1.7-0.9,4.2-0.9,5-2.9c0.3-0.9,0-1.7-0.6-2.3c0-0.9,0-1.9,0.1-2.5c-0.2-0.5,1.4-4.6,1-3.5c1.8-3.7,4.1-5,7-7 c0.6-0.6,0.6-1.3,0.4-2c-0.1-4.9-2.6-12.4-2.5-16.7C375.8,332.2,376.9,327,375.3,322.6z" fill="#f66125"/></g><g fill="#ffbe4f"><g id="change2_14"><path d="M114.3,391.8c-1.6-1.2-1.6-1.4-2.7-3.5c-0.5-1.5,0.8-1.9,1.8-2.4c-0.1,0-0.1,0,0,0c0.1-0.1,0.4-0.1,0.6-0.1 c2.2,2.1,7.1-2.3,2.5-4.8c-4.3-1.7-9.7,3-8.5,7.5c1.4,4.5,6.8,7.5,8.1,10.3c0.9,1.4,0.8,2.4,0.7,3.6c-0.1,0.5-0.6,1.4-0.2,0.8 c0.1-0.2,0.1,0,0,0c-1.3,1.5-4.1,1.1-4.9,3.3c-0.7,5.9,7.5,2.7,9.3-0.3C124.6,399.9,119.6,394.8,114.3,391.8z"/><path d="M142.5,380c-0.7-5.6-6.1-6.1-6-1.3c0.8,2.6,1.3,5.3,1.7,8.1c-1.8-0.1-4,0.5-5.9,1.4c-0.6-2.7-1.2-5.4-1.7-8 c-1.2-1.9-4.3-0.5-3.8,1.6c1.8,7.6,4,15.2,5.6,22.9c0.3,1.8,3,2,3.1,0c-0.6-3.8-1.4-7.5-2.2-11.3c0,0,0.1,0,0.1,0 c0.2-0.1,0.3-0.1,0.5-0.2c1.3-0.4,3.4-0.9,4.9-1.8c0.6,3.7,1.4,7.3,2.8,10.7C150.4,407.6,143.1,383.4,142.5,380z"/><path d="M159.6,371.9c-1.9-0.8-5.5,0.6-6,2.5c-5.5,7.1-3.6,19.6,3.3,25c7,3.4,11.2-5.7,10.4-11.7 C166.6,382.1,165.5,374.3,159.6,371.9z M161,393.4c-2.4,6.7-6.7-5-6.3-10.5c0-2,0.9-4.9,1.4-5.8c0.2-0.4,0.5-0.8,0.8-1.1 c0.4-0.3,0.8-0.6,1.1-0.6c0,0,0,0,0.1,0c0.1,0,0.2,0,0.3,0c0.2,0,0.5,0.1,0.5,0.2C162.8,377.6,162.4,390.5,161,393.4z"/><path d="M179.4,367.6c-0.8-0.3-1.5-0.1-2.2,0.3c-0.5-0.1-1-0.2-1.6,0.1c-2.9,1.8-3.3,5.7-3.7,8.8 c-0.2,5.3,0.7,11,3.8,15.4c4.3,6,10.1-0.2,11.2-5.3C189.1,381.3,186.2,371.3,179.4,367.6z M182.1,389.9 c-0.2,0.3-0.4,0.5-0.6,0.7c-0.1,0-0.2-0.1-0.3-0.1c-0.1,0-0.1-0.1-0.1-0.1c-3-1.1-4.3-6.6-4.4-10.3c-0.2-3.5,0.8-6.5,1.6-7.8 c0,0.1-0.1,0.1-0.1,0.1c0.1-0.1,0.1-0.2,0.2-0.2c0.1,0.1,0.3,0.2,0.4,0.3c1.5,1.5,2.6,4.4,3.3,7.4 C182.6,382.6,183.1,387.6,182.1,389.9z"/><path d="M202.2,362.7c-2.4-2.3-6.9,0.4-9.7,1.1c0.1,0,0.3-0.1,0.6-0.2c-1.2,0.6-2.7,0.5-3.8,1.2 c-2,1.2-1,4.5,1.3,4.5c0.5-0.1,1.4-0.2,2.4-0.4c1.6,7.7,2.6,15.6,4.5,23.2c0.7,1.2,2.7,0.9,3.1-0.5c-1.2-8.5-2.6-15.7-2.7-24 C201,366.6,203.4,365,202.2,362.7z"/><path d="M211.7,361.2c-2.1-1.4-5.1,0.6-4.5,3.1c2.5,6.4,2.7,18.4,6.1,22c0.8,0.3,1.7-0.2,2-1 c0.5-4.3-1.1-8.6-1.4-13C213,368.8,214.3,364,211.7,361.2z"/><path d="M232.1,357.8c0,0.1,0,0.2,0,0.3c0-0.2,0-0.2-0.1,0.1c-0.4,2.4,0.2,1.9,0.6,3.9c0.7,4.7,1.2,9.5,1.6,14 c-1.7-2.7-3.5-5.8-4.8-8.1c-1.5-2.6-3-5.5-5.4-7.4c-4.5-1.4-3,4.5-2.5,7c0,4.4,1,11.9,1.6,16c0.4,1.5,2.8,1.1,2.8-0.4 c0.2-4.2-0.4-8.3-0.8-12.3c2.5,4.5,5.3,9.2,8.2,13.2c2,2.9,6.2,1.5,5.8-2.1c0.2-7.8-2.8-17.1-1.8-22.5 C237.7,357.5,234.6,353.7,232.1,357.8z"/><path d="M258.8,363.5c-0.4,0-0.7,0-1.1,0.1c0.9-0.1,0.4,0-0.2,0c-1.9,0.4-2.2-0.4-4.3,0.9c-1.2,1-1.2,3.1,0.1,4 c0.8,0.8,1.8,0.7,2.8,0.4c-0.2,1.8-0.4,3.7-0.7,5.5c-0.2,0.8-0.7,2.1-0.8,2.2c-0.2,0.5-0.5,0.6-0.7,0.8 c-4.9-2-6.7-13.6-3.2-18.9c0.9-0.9,1.7-0.8,2-0.4c0.5,0.4,0.4,0.9,1.2,1.8c1.5,1.4,3.9-0.6,2.9-2.3c-3.7-6.1-8.9-2.4-10.5,3 c-1.8,5.6-1.2,12,1.6,17.1c1.2,2.5,3.7,4.8,6.6,4.7c6.3-1.2,7-9.5,7-14.8C261.8,365.7,260.8,363.6,258.8,363.5z"/></g><g id="change2_4"><path d="M283.7,358.6c-4.1,0-3.1,6,0.8,5c0,0,0,0,0,0c-0.1,0.5-0.1,1.5-0.3,2.3c-0.3,1.4-0.8,2.8-1.3,4.2 c-0.3,0.6-0.3,0.7-0.6,0.9c0,0,0,0-0.1,0c0.2,0-0.1-0.1-0.2-0.2c-0.1-0.2-1.6-1.9-2.3-3.6c-1.8-3.6-2.9-11.6-2-14.5 c0.2-1.3,0.8-2.4,1.3-2.6c0.1,0,0.2-0.1,0.3-0.1c1.2,0.4,2.3,1.1,2.6,1.9c0.1,2.3,5.5,2.8,4.2-1.5c-1.1-2.7-4.4-4.7-7.4-4.5 c-2.8,0.8-4,2.7-4.7,5.5c-1.6,7.8,0.9,17.6,5.5,22.5c3.1,3,7.2-0.1,8-3.6c0.9-3.4,0.4-6.7,0.7-8.2 C288.2,359.7,285.7,358.8,283.7,358.6z"/><path d="M305.8,352.2c-1.8-5.8-8.7-13-11.9-5.2c-1.1,7.3-1.4,18.1,1,24.9c1.3,0.9,3.2-0.4,2.8-1.9 c-0.3-1.9-0.5-4.1-0.7-6.5c0.5,0,1.1-0.2,1.5-0.6c0.6-1.3,3-2.3,4.6-3.5c0.8,2.9,1.6,5.8,3.2,8.2 C314.9,370,306.4,355.7,305.8,352.2z M296.6,358c-0.2-5,0.1-9.5,1.2-10.7c2.2,2.1,3.2,5.1,4.1,8.2 C300.2,355.9,298.2,356.9,296.6,358z"/><path d="M338.8,348.7c-1.8-3.7-5.7-17.1-10.6-9.7c-0.3,5.2-1.2,10.5-2.3,15.1c-2-2.6-4-5.3-6.2-7.7 c-1.5-1.6-7.9-7.4-9.5-1.7c1.4,7.3,2.5,15,4.8,22.1c1.3,2,4.7,0.6,4.1-1.8c-1.7-5.4-3.9-11.8-4.9-17.2c1,1.1,1.8,2.1,3.4,3.9 c3.7,4.9,11.5,17.2,13,3.7c0.3-2.3,0.5-5.3,0.8-8c1.2,3.1,2.7,6.5,3.7,9.2c0.5,2.8,3.5,4.7,5.9,2.6 C343.7,356.2,339.7,352.1,338.8,348.7z"/><path d="M353.9,353.4c-0.4,0.1-0.7,0.1-1.1,0.1c0-0.1-0.1-0.2-0.1-0.3c-0.6-1.4-1.1-3.2-1.5-5.1 c1.8-1.1,4.2-1.8,4.9-3.8c0-2.2-2.6-1.4-4-1.2c-0.6,0.2-1.2,0.3-1.8,0.5c-0.5-2.8-1.1-5.6-2.1-8.1c2.6-0.9,5.5-2.1,3.5-4.5 c-1.1-0.6-3.9,0.1-6.2,1.2c-1.1,0-2.2,0.8-2.6,1.8c0,0.1-0.2,0.1-0.2,0.2c-0.2,0.5-0.1,0.9,0.1,1.3c0,0,0,0,0,0 c2.5,7.6,4.2,11.4,6.4,18.1c0.5,4.7,6.2,4,9.1,2C360.1,352.5,356,352.7,353.9,353.4z"/></g></g></g></g></svg>