<?xml version="1.0" encoding="UTF-8" standalone="no"?><svg xmlns="http://www.w3.org/2000/svg" xmlns:xlink="http://www.w3.org/1999/xlink" fill="#000000" height="502.1" preserveAspectRatio="xMidYMid meet" version="1" viewBox="-0.5 -0.9 497.0 502.1" width="497" zoomAndPan="magnify"><g><g id="change1_1"><path d="M465,270.5c0.8-60.9,7-121.7,3.4-182.7c-0.4-19.1-1.6-38.5-8.7-56.6c-1.3-3.8-3.3-7.3-5.7-10.4 c-0.6-1.4-1.4-2.7-2.1-4c-5.7-7.5-15-12.3-24.6-13.9c-18.1-3.7-36.7-2.8-55.1-2.4c-24.6,0.7-49.2,0.5-73.8-0.1 c-26.3-0.3-52.7,1.8-79,1.4c-13.7-0.3-27.9-2.3-41.5-0.9c-26.5-0.5-53.1-0.3-79.6-0.2C77.3,0.5,50.7-0.9,38.1,18 c-0.7,1-1.3,1.9-1.9,2.8c-9.3,10.3-8.2,25.3-9.5,38.1c-1.6,27.8-0.2,55.8-0.1,83.7c-1.4,44.4-4.2,88.9,0,133.2 c0.3,1.8,0,3.7,0.3,5.5c-1.3,0.3-2.3,1.1-2.5,2.4c-0.4,1.7,1.3,3.4,3.1,3.3c3.5,0.2,5.5,0.2,10.1,0.2c7,0,14.1,0.1,21.1,0.1 c33.8,2.3,67.6,5.5,101.6,5.3c26.9,0.4,53.9-0.7,80.8-1.9c40-0.3,79.9-1,119.9-2.2c15.5,0.5,30.9,1.1,46.4,0.7 c15.8-0.2,31.4-3.2,47.2-3.1c0.5,0.1,1.1,0,1.6-0.1c1.5,0.1,3,0.2,4.3,0.3c1.9-0.1,2.9-1.7,2.9-3.2 C466.6,280.6,464.3,274.1,465,270.5z" fill="#f75454"/></g><g><g id="change2_3"><path d="M492,337.3c0.6-20.2,1.1-40.5,0-60.7c1-2.2-2.4-2-4.1-2.1c-54.2-2.6-108.5-0.4-162.8-0.5 c-60,0.7-119.9-1.1-179.9,0.7c-44.5,1.6-89.1-2-133.6-0.3c-2.8,0.4-5.9,0-8.5,0.7c-0.5-0.4-1.4-0.3-1.7,0.2 c-0.3,0.6-0.1,1.7-0.2,2.7c-1.7,56.4-1.4,119.8-0.7,178.6c0.2,13,0.9,26,0.7,39c0,0.8,0.6,1.1,1.3,1.3c0.5,0.6,1.3,0.9,2.8,0.7 c24.9,0.4,49.9,2.7,74.8,1c25.3-0.7,50.6,0.5,75.8,0.7c38.6,1.9,77.1-0.7,115.7-1.4c0,0,0,0.1,0.1,0.1 c56.2,1.8,112.8,1.3,169.1,1.3c16.1-0.3,32.2-0.4,48.3-0.4c1,0.3,1.9-0.1,2.4-0.6c0.5-0.2,1-0.7,0.8-1.5 C496.5,443.6,491.1,390.5,492,337.3z" fill="#32ad62"/></g><g id="change3_6"><path d="M37.3,274c-8.5,0-17,0.1-25.5,0.4c-2.8,0.4-5.9,0-8.5,0.7c-0.5-0.4-1.4-0.3-1.7,0.2c-0.3,0.6-0.1,1.7-0.2,2.7 c-1.7,56.4-1.4,119.8-0.7,178.6c0.2,13,0.9,26,0.7,39c0,0.8,0.6,1.1,1.3,1.3c0.5,0.6,1.3,0.9,2.8,0.7c7.1,0.1,14.1,0.4,21.2,0.7 C27.9,423.6,30.8,348.6,37.3,274z" fill="#ffbe4f"/></g><g id="change3_7"><path d="M86.7,325.9c0.8-17,1.6-34.1,2.4-51.1c-8.5-0.2-16.9-0.4-25.4-0.5c-4.5,74.9-9.3,149.8-11.6,224.9 c9.3,0.2,18.7,0.2,28-0.4c1,0,1.9,0,2.9,0C83.3,441,84.1,383.4,86.7,325.9z" fill="#ffbe4f"/></g><g id="change3_8"><path d="M145,340.2c0.4-21.8,0.8-43.7,1.3-65.6c-0.3,0-0.7,0-1,0c-10.1,0.4-20.2,0.4-30.2,0.4 c-0.9,16.9-1.8,33.9-2.5,50.8c-2.3,57.5-4.5,115.1-5.2,172.6c12.4,0.1,24.8,0.4,37.2,0.6C144,446.2,144.1,393.2,145,340.2z" fill="#ffbe4f"/></g><g id="change3_9"><path d="M203.3,274c-10.3,0-20.5,0.1-30.8,0.2c-0.9,22-1.8,44-2.4,66c-1.3,53.2-1.7,106.4-1.3,159.5 c13.5,0.3,27.1,0.1,40.6-0.2C202.6,425,199.8,349.3,203.3,274z" fill="#ffbe4f"/></g><g id="change3_10"><path d="M266.1,317.2c0.2-14.3,0.6-28.7,1-43c-12.3,0-24.6-0.1-36.8-0.1c-0.8,16-1.4,32-1.6,48c-1,59,1,118,5.9,176.9 c12.3-0.4,24.6-0.8,36.9-1C267,437.8,265.1,377.5,266.1,317.2z" fill="#ffbe4f"/></g><g id="change3_11"><path d="M325.6,497.6c3.5-63.3,3.3-126.7,5.8-190c0.4-11.2,0.9-22.4,1.5-33.6c-2.6,0-5.1,0-7.7,0 c-10.8,0.1-21.7,0.1-32.5,0.1c-0.5,14.3-1,28.7-1.1,43.1c-0.7,60.5,1.3,121,6.1,181.4c9.4,0.2,18.7,0.3,28.1,0.4 C325.7,498.5,325.6,498.1,325.6,497.6z" fill="#ffbe4f"/></g><g id="change3_12"><path d="M389,300.8c0.3-9.1,0.7-18.3,1.1-27.4c-10.2,0.1-20.4,0.3-30.6,0.4c-0.6,11.8-1.1,23.7-1.4,35.5 c-1.6,62.8-2.4,125.6-5.9,188.3c0,0.6-0.2,1.1-0.3,1.7c11.6,0.1,23.2,0,34.8,0C386.7,433.1,386.5,366.9,389,300.8z" fill="#ffbe4f"/></g><g id="change3_13"><path d="M437.6,325.6c0.7-17.4,1.4-34.9,2.2-52.3c-7.8-0.1-15.6-0.1-23.4-0.1c-0.5,9.8-1.1,19.5-1.5,29.3 c-2.3,65.6-2.1,131.2-2.1,196.7c7.3,0,14.6,0,21.9,0C434.7,441.4,435.3,383.5,437.6,325.6z" fill="#ffbe4f"/></g><g id="change3_14"><path d="M492,337.3c0.6-20.2,1.1-40.5,0-60.7c1-2.2-2.4-2-4.1-2.1c-7.5-0.4-15-0.5-22.5-0.7 c-0.8,17.3-1.5,34.6-2,51.9c-1.6,57.8-2.9,115.6-3.2,173.5c9.6-0.1,19.3-0.2,28.9-0.3c1,0.3,1.9-0.1,2.4-0.6 c0.5-0.2,1-0.7,0.8-1.5C496.5,443.6,491.1,390.5,492,337.3z" fill="#ffbe4f"/></g></g><g><g><g id="change3_3"><path d="M85.3,37.1c0.3-1,0.6-2.1,1-3c0.2-1.3-0.3-1.7-1-2.2c-1.7-0.3-8.6-1.2-9.1,2.3c0.3,1,0.7,2.7,1.2,4.5 c0,0.1,0.1,0.3,0.1,0.4C71.2,49.4,63,61,67.8,73.4c6.4,16.3,29.2,13.3,28.9-4.9C97.1,55.7,91.6,46,85.3,37.1z" fill="#ffbe4f"/></g><g id="change4_4"><path d="M85.4,36c-0.7,0.4-3.1,1-5.5,1.4c-0.3,0.1-2.2,0.2-2.9,0c-0.9,0.1-1.2,1.5-0.4,1.9c2.3,0.9,9-0.3,10.2-1.4 C87.5,36.9,86.5,35.6,85.4,36z" fill="#202f5a"/></g></g><g><g id="change5_4"><path d="M152.7,71.3c0.3-1,0.6-2.1,1-3c0.2-1.3-0.3-1.7-1-2.2c-1.7-0.3-8.6-1.2-9.1,2.3c0.3,1,0.7,2.7,1.2,4.5 c0,0.1,0.1,0.3,0.1,0.4c-6.3,10.3-14.4,21.9-9.6,34.3c6.4,16.3,29.2,13.3,28.9-4.9C164.6,89.9,159.1,80.2,152.7,71.3z" fill="#32ad62"/></g><g id="change4_13"><path d="M152.9,70.2c-0.7,0.4-3.1,1-5.5,1.4c-0.3,0.1-2.2,0.2-2.9,0c-0.9,0.1-1.2,1.5-0.4,1.9 c2.3,0.9,9-0.3,10.2-1.4C155,71.1,154,69.8,152.9,70.2z" fill="#202f5a"/></g></g><g><g id="change5_3"><path d="M85.3,146.9c0.3-1,0.6-2.1,1-3c0.2-1.3-0.3-1.7-1-2.2c-1.7-0.3-8.6-1.2-9.1,2.3c0.3,1,0.7,2.7,1.2,4.5 c0,0.1,0.1,0.3,0.1,0.4c-6.3,10.3-14.4,21.9-9.6,34.3c6.4,16.3,29.2,13.3,28.9-4.9C97.1,165.5,91.6,155.8,85.3,146.9z" fill="#32ad62"/></g><g id="change4_12"><path d="M85.4,145.8c-0.7,0.4-3.1,1-5.5,1.4c-0.3,0.1-2.2,0.2-2.9,0c-0.9,0.1-1.2,1.5-0.4,1.9 c2.3,0.9,9-0.3,10.2-1.4C87.5,146.8,86.5,145.5,85.4,145.8z" fill="#202f5a"/></g></g><g><g id="change4_10"><path d="M223.4,33.5c0.3-1,0.6-2.1,1-3c0.2-1.3-0.3-1.7-1-2.2c-1.7-0.3-8.6-1.2-9.1,2.3c0.3,1,0.7,2.7,1.2,4.5 c0,0.1,0.1,0.3,0.1,0.4c-6.3,10.3-14.4,21.9-9.6,34.3c6.4,16.3,29.2,13.3,28.9-4.9C235.2,52.1,229.7,42.4,223.4,33.5z" fill="#202f5a"/></g><g id="change3_4"><path d="M223.6,32.4c-0.7,0.4-3.1,1-5.5,1.4c-0.3,0.1-2.2,0.2-2.9,0c-0.9,0.1-1.2,1.5-0.4,1.9 c2.3,0.9,9-0.3,10.2-1.4C225.6,33.3,224.6,32,223.6,32.4z" fill="#ffbe4f"/></g></g><g><g id="change4_9"><path d="M354.9,146.9c0.3-1,0.6-2.1,1-3c0.2-1.3-0.3-1.7-1-2.2c-1.7-0.3-8.6-1.2-9.1,2.3c0.3,1,0.7,2.7,1.2,4.5 c0,0.1,0.1,0.3,0.1,0.4c-6.3,10.3-14.4,21.9-9.6,34.3c6.4,16.3,29.2,13.3,28.9-4.9C366.8,165.5,361.3,155.8,354.9,146.9z" fill="#202f5a"/></g><g id="change3_17"><path d="M355.1,145.8c-0.7,0.4-3.1,1-5.5,1.4c-0.3,0.1-2.2,0.2-2.9,0c-0.9,0.1-1.2,1.5-0.4,1.9 c2.3,0.9,9-0.3,10.2-1.4C357.2,146.8,356.2,145.5,355.1,145.8z" fill="#ffbe4f"/></g></g><g><g id="change3_18"><path d="M152.7,187c0.3-1,0.6-2.1,1-3c0.2-1.3-0.3-1.7-1-2.2c-1.7-0.3-8.6-1.2-9.1,2.3c0.3,1,0.7,2.7,1.2,4.5 c0,0.1,0.1,0.3,0.1,0.4c-6.3,10.3-14.4,21.9-9.6,34.3c6.4,16.3,29.2,13.3,28.9-4.9C164.6,205.7,159.1,195.9,152.7,187z" fill="#ffbe4f"/></g><g id="change4_15"><path d="M152.9,186c-0.7,0.4-3.1,1-5.5,1.4c-0.3,0.1-2.2,0.2-2.9,0c-0.9,0.1-1.2,1.5-0.4,1.9c2.3,0.9,9-0.3,10.2-1.4 C155,186.9,154,185.6,152.9,186z" fill="#202f5a"/></g></g><g><g id="change2_2"><path d="M293.8,71.3c0.3-1,0.6-2.1,1-3c0.2-1.3-0.3-1.7-1-2.2c-1.7-0.3-8.6-1.2-9.1,2.3c0.3,1,0.7,2.7,1.2,4.5 c0,0.1,0.1,0.3,0.1,0.4c-6.3,10.3-14.4,21.9-9.6,34.3c6.4,16.3,29.2,13.3,28.9-4.9C305.7,89.9,300.2,80.2,293.8,71.3z" fill="#32ad62"/></g><g id="change4_8"><path d="M294,70.2c-0.7,0.4-3.1,1-5.5,1.4c-0.3,0.1-2.2,0.2-2.9,0c-0.9,0.1-1.2,1.5-0.4,1.9c2.3,0.9,9-0.3,10.2-1.4 C296.1,71.1,295.1,69.8,294,70.2z" fill="#202f5a"/></g></g><g><g id="change2_1"><path d="M223.4,155.6c0.3-1,0.6-2.1,1-3c0.2-1.3-0.3-1.7-1-2.2c-1.7-0.3-8.6-1.2-9.1,2.3c0.3,1,0.7,2.7,1.2,4.5 c0,0.1,0.1,0.3,0.1,0.4c-6.3,10.3-14.4,21.9-9.6,34.3c6.4,16.3,29.2,13.3,28.9-4.9C235.2,174.2,229.7,164.5,223.4,155.6z" fill="#32ad62"/></g><g id="change4_1"><path d="M223.6,154.6c-0.7,0.4-3.1,1-5.5,1.4c-0.3,0.1-2.2,0.2-2.9,0c-0.9,0.1-1.2,1.5-0.4,1.9 c2.3,0.9,9-0.3,10.2-1.4C225.6,155.5,224.6,154.2,223.6,154.6z" fill="#202f5a"/></g></g><g><g id="change3_1"><path d="M416,71.3c0.3-1,0.6-2.1,1-3c0.2-1.3-0.3-1.7-1-2.2c-1.7-0.3-8.6-1.2-9.1,2.3c0.3,1,0.7,2.7,1.2,4.5 c0,0.1,0.1,0.3,0.1,0.4c-6.3,10.3-14.4,21.9-9.6,34.3c6.4,16.3,29.2,13.3,28.9-4.9C427.9,89.9,422.4,80.2,416,71.3z" fill="#ffbe4f"/></g><g id="change4_2"><path d="M416.2,70.2c-0.7,0.4-3.1,1-5.5,1.4c-0.3,0.1-2.2,0.2-2.9,0c-0.9,0.1-1.2,1.5-0.4,1.9 c2.3,0.9,9-0.3,10.2-1.4C418.3,71.1,417.3,69.8,416.2,70.2z" fill="#202f5a"/></g></g><g><g id="change5_2"><path d="M354.9,29.5c0.3-1,0.6-2.1,1-3c0.2-1.3-0.3-1.7-1-2.2c-1.7-0.3-8.6-1.2-9.1,2.3c0.3,1,0.7,2.7,1.2,4.5 c0,0.1,0.1,0.3,0.1,0.4c-6.3,10.3-14.4,21.9-9.6,34.3c6.4,16.3,29.2,13.3,28.9-4.9C366.8,48.1,361.3,38.4,354.9,29.5z" fill="#32ad62"/></g><g id="change4_6"><path d="M355.1,28.4c-0.7,0.4-3.1,1-5.5,1.4c-0.3,0.1-2.2,0.2-2.9,0c-0.9,0.1-1.2,1.5-0.4,1.9 c2.3,0.9,9-0.3,10.2-1.4C357.2,29.4,356.2,28.1,355.1,28.4z" fill="#202f5a"/></g></g><g><g id="change5_1"><path d="M293.8,181.9c0.3-1,0.6-2.1,1-3c0.2-1.3-0.3-1.7-1-2.2c-1.7-0.3-8.6-1.2-9.1,2.3c0.3,1,0.7,2.7,1.2,4.5 c0,0.1,0.1,0.3,0.1,0.4c-6.3,10.3-14.4,21.9-9.6,34.3c6.4,16.3,29.2,13.3,28.9-4.9C305.7,200.5,300.2,190.8,293.8,181.9z" fill="#32ad62"/></g><g id="change4_11"><path d="M294,180.8c-0.7,0.4-3.1,1-5.5,1.4c-0.3,0.1-2.2,0.2-2.9,0c-0.9,0.1-1.2,1.5-0.4,1.9c2.3,0.9,9-0.3,10.2-1.4 C296.1,181.8,295.1,180.5,294,180.8z" fill="#202f5a"/></g></g><g><g id="change3_16"><path d="M416,173.1c0.3-1,0.6-2.1,1-3c0.2-1.3-0.3-1.7-1-2.2c-1.7-0.3-8.6-1.2-9.1,2.3c0.3,1,0.7,2.7,1.2,4.5 c0,0.1,0.1,0.3,0.1,0.4c-6.3,10.3-14.4,21.9-9.6,34.3c6.4,16.3,29.2,13.3,28.9-4.9C427.9,191.7,422.4,182,416,173.1z" fill="#ffbe4f"/></g><g id="change4_14"><path d="M416.2,172c-0.7,0.4-3.1,1-5.5,1.4c-0.3,0.1-2.2,0.2-2.9,0c-0.9,0.1-1.2,1.5-0.4,1.9c2.3,0.9,9-0.3,10.2-1.4 C418.3,173,417.3,171.7,416.2,172z" fill="#202f5a"/></g></g></g><g><g id="change3_2"><path d="M74.8,260.9c-1.9-2-3.6-4-5.8-5.7c-4.5-1.8-9.5-1.6-14.3-1.8c-6.1,0.4-0.2,6.9,2.9,10.7 c-1.7,1.4-4.2,4.6-5.1,6.5c-0.1,1.1,0.8,1.9,1.8,2.2c4.8,1.2,9.9,1.2,14.8,1.6c2.5-0.2,4.4-2.8,6.3-4.2c1.1-1.1,2.7-1.7,3.5-3 C79.4,264.5,76.2,262.8,74.8,260.9z" fill="#ffbe4f"/></g><g fill="#202f5a" id="change4_5"><path d="M137.3,272.6c-5-1-9.4-2.2-13.9-3.4c-12.8-1.1-37.5-4.8-53.3-6.8c-1.4-1.9-2.8-3.7-4.3-5.5 c-0.4-0.3-1,0-1.1,0.5c0.9,1.7,2.2,3.2,3.6,4.7c-0.1,0-0.3,0-0.5-0.1c-0.6-0.1-2.7,0.5-4.5,1c-1.6-2.3-3.1-4.7-5.1-6.5 c-0.5-0.1-0.9,0.6-0.6,1c1.3,2,2.8,4.1,4.4,6c-0.4,0.2-0.8,0.3-0.9,0.4c-0.2,0.4,0.5,1.1,1.5,1.8c-1.8,1.8-3.6,3.8-5.2,5.8 c-0.3,0.8,0.8,1.5,1.5,1c1.1-1.3,4-3.8,5.5-5.6c1,0.6,2,1,2.6,1.1c0.9,0.1,2,0.3,3,0.4c-0.9,0.7-1.9,1.3-2.8,2 c-0.7,0.7-1.9,1.1-2.1,2.1c-0.1,0.9,1,1.6,1.7,1c1.7-1.6,3.5-3.1,5.2-4.8c15.5,2.2,39.6,5.4,51.6,6.4c3.8,0,6.1-0.7,8.9-0.8 c1.6-0.3,5,0.1,5.3-1C137.9,273,137.5,272.7,137.3,272.6z"/><path d="M125.6,269.6C125.6,269.6,125.6,269.6,125.6,269.6C125.4,269.6,125.4,269.6,125.6,269.6z"/></g></g><g><g id="change3_19"><path d="M142.4,260.9c-1.9-2-3.6-4-5.8-5.7c-4.5-1.8-9.5-1.6-14.3-1.8c-6.1,0.4-0.2,6.9,2.9,10.7 c-1.7,1.4-4.2,4.6-5.1,6.5c-0.1,1.1,0.8,1.9,1.8,2.2c4.8,1.2,9.9,1.2,14.8,1.6c2.5-0.2,4.4-2.8,6.3-4.2c1.1-1.1,2.7-1.7,3.5-3 C147,264.5,143.9,262.8,142.4,260.9z" fill="#ffbe4f"/></g><g fill="#202f5a" id="change4_3"><path d="M204.9,272.6c-5-1-9.4-2.2-13.9-3.4c-12.8-1.1-37.5-4.8-53.3-6.8c-1.4-1.9-2.8-3.7-4.3-5.5 c-0.4-0.3-1,0-1.1,0.5c0.9,1.7,2.2,3.2,3.6,4.7c-0.1,0-0.3,0-0.5-0.1c-0.6-0.1-2.7,0.5-4.5,1c-1.6-2.3-3.1-4.7-5.1-6.5 c-0.5-0.1-0.9,0.6-0.6,1c1.3,2,2.8,4.1,4.4,6c-0.4,0.2-0.8,0.3-0.9,0.4c-0.2,0.4,0.5,1.1,1.5,1.8c-1.8,1.8-3.6,3.8-5.2,5.8 c-0.3,0.8,0.8,1.5,1.5,1c1.1-1.3,4-3.8,5.5-5.6c1,0.6,2,1,2.6,1.1c0.9,0.1,2,0.3,3,0.4c-0.9,0.7-1.9,1.3-2.8,2 c-0.7,0.7-1.9,1.1-2.1,2.1c-0.1,0.9,1,1.6,1.7,1c1.7-1.6,3.5-3.1,5.2-4.8c15.5,2.2,39.6,5.4,51.6,6.4c3.8,0,6.1-0.7,8.9-0.8 c1.6-0.3,5,0.1,5.3-1C205.5,273,205.1,272.7,204.9,272.6z"/><path d="M193.2,269.6C193.2,269.6,193.2,269.6,193.2,269.6C193,269.6,193.1,269.6,193.2,269.6z"/></g></g><g><g id="change4_7"><path d="M367.3,341c-0.5-6.3,0.6-13.7-3.7-19.2c-4.4-2.7-7.2-1.9-11.7-2.6c-12.6-0.5-28.5-0.6-43.8-0.2 c-2.4-0.1-4.9-0.1-7.3,0c-52.2,0.2-104.4-3.7-156.5-1.1c-3.4,0.4-11.7,0.9-15.1,5.2c-1.6,2.1-2.1,4.8-2.3,7.3 c-0.6,9-0.3,15.9-0.1,24.3c0.3,3.2,0.3,6.7,2.5,9.2c2.4,2.7,5.4,5.3,8.9,6.2c19.1,2.3,38.2,2.6,57.4,2c32.1,1.8,64.3,0.6,96.5,0.1 c15.1-0.1,30.2-0.8,45.2-2.4c8.1-1.2,16.2-1.7,24.8-7.4C369,358.5,367.3,343.6,367.3,341z" fill="#202f5a"/></g><g fill="#ffbe4f" id="change3_15"><path d="M143,340.8c0.2-0.1,0.4-0.2,0.5-0.3c3.9-2.4,6.2-7.1,0.6-9.1c-2-0.4-4.3-0.4-6.4-0.1 c-1.2-0.5-2.9,0.2-2.8,1.8c0.5,8,0.4,16,0.3,24c0,1.2,1.1,1.8,2.1,1.7c0.3,0.3,0.7,0.4,1.2,0.3c0.1,0,0.1,0,0.1,0 C150.8,355.1,155.5,346.2,143,340.8z M144.4,335.1c-0.4,0.6-1.8,2.1-3.5,3.2c-0.6,0.3-1.4,0.7-2,1.2c0-1.9-0.1-3.7-0.2-5.5 C141.6,333.8,144,334,144.4,335.1z M138.6,356.1c0.3-4.5,0.5-9.1,0.4-13.7c3.1,1.1,5,1.5,7.7,3.3c4.3,3.1-0.9,6.5-6,9.3 C140,355.6,139.2,355.9,138.6,356.1z"/><path d="M175.6,353.8c-0.1-0.7-0.6-5.9-1.1-8.2c-0.6-5.6-4.2-16.1-11.5-12.3c-1.1,0.7-1.7,1.9-2.1,3.2 c-1.6,6-2.5,12.4-2.5,18.5c0.6,1.8,3.5,1.2,3.5-0.7c0.3-3,0.5-5.6,0.8-8.1c2.6,0,6.2,0.2,7.2,0.3c0.1,0,0.3,0.1,0.4,0.1 c0.3,3,0.5,6.2,1.1,9.4c0.4,1.1,1.6,1.6,2.7,1.3C175.8,357,176.1,355.3,175.6,353.8z M163.3,342.9c0.3-2.1,0.7-4.1,1.4-6.4 c0,0,0-0.1,0.1-0.1c0.2-0.2,0.6-0.6,1-0.5c0.4,0,1,0.4,1.1,0.5c0.8,0.7,0.7,0.8,0.9,1c1.1,1.9,1.6,3.9,2,6 C167.6,343.1,165.4,342.9,163.3,342.9z"/><path d="M192.5,352.7c-1.6,0.1-3.2,0-3.5,0c-0.2,0-0.3,0-0.5,0c0.2-2.1,0.4-6.6,0.4-9.5c-0.4-3.2,0.9-7-0.7-9.9 c-1.5-1.6-4.3-0.4-4.2,1.7c0.4,6.2,1,12.4,0.8,18.7c0,0.8,0.3,1.5,0.9,2c2,1.3,8.2,3.2,9.5,0.3 C196.1,354.2,194.3,352.4,192.5,352.7z"/><path d="M210.5,352.6c-0.8,0.1-1.6,0.1-2.4,0.1c1.1-6.4,1.2-14.2,1.4-18.7c-0.2-2.5-4-2.7-4.6-0.3 c-1.5,7.1-1.9,14.9-0.7,22c1,1.5,3,1.6,4.6,2c1.5,0.6,3.3,0.9,4.5-0.3C215.5,355.2,213.2,351.8,210.5,352.6z"/><path d="M233.7,334.7c-0.8-0.9-2.4-1.3-3.4-0.8c-0.4-0.2-0.9-0.3-1.5-0.1c-6.1,2.9-7.5,11.4-5.7,17.4 c1.6,5.7,7.8,7.1,11.3,2.2c1.8-2.6,2.1-6,2.1-9.1C236.6,341,236.1,337.2,233.7,334.7z M230.5,351c-2.4,2.8-4-2.9-3.3-6.8 c0.8-3.2,2-5.3,2.6-5.9c0.3-0.2,0.8-0.5,0-0.1c0.3-0.1,0.6-0.2,0.9-0.5c0.1-0.1,0.1-0.3,0.3-0.4c0.4,0.3,0.8,0.9,1.3,2 c0.8,1.8,1.2,4.3,1.2,4.7C232.9,348,231.5,350,230.5,351z"/><path d="M256.5,336.8c-0.9-0.8-1.8-0.8-2.4-0.4c0-0.9-0.6-1.8-2.3-2.1c-7.5,0.6-8.7,12.9-5.4,18.1 c1.7,3.3,5.4,4.7,8.4,2c2.7-3.6,3.7-8.6,3.5-13C257.9,338.8,258,338.2,256.5,336.8z M252.9,350.7c-0.7,0.8-0.5,0.7-1.1,0.9 c-0.2,0.1-0.4,0.1-0.6,0.1c-2.1-2.5-2.3-4.6-1.2-9.2c0.8-2,0.5-2.1,1.8-3.4c0.3,0.1,0.6-0.1,0.9-0.2c0,0.5,0.2,0.9,0.7,1.2 c0.3,0.6,1.2,1.1,1.3,1.7C255,343.2,254.4,349.3,252.9,350.7z"/><path d="M283.5,335.3c-1.1-4.4-6.1-1.7-5.2,0.8c-0.2,3.1,0.1,9.4,0,13.9c-1.5-3.7-3.5-8.6-6.4-12.1 c-1.3-1.7-4.6-2.6-5.4-0.1c-0.3,1.3,0.1,2.7,0.2,4c0.2,4.3-1.1,10.8,0.3,14.6c1.2,1.3,3.6,0.3,3.5-1.5c0.3-3.4-0.2-8.2-0.3-11.8 c2.2,3.6,4.4,8.9,7.1,12.7c2.5,3.4,4.5-1.1,4.5-3.6c0.6-4.5,0.8-12.9,1.2-14.7c-0.2,0.8,0.6-1.6,0.4-1.1 C283.5,336.1,283.6,335.7,283.5,335.3z"/></g><g fill="#ffbe4f" id="change3_5"><path d="M312.5,333.1c-1.3,0.1-2.8,0.2-3.9,0.9c-0.2,0.1-0.2,0.3-0.3,0.4c-0.7,0.4-1.2,0.9-1.2,1.9 c0.2,6.1,0,12.2,0.2,18.2c0,1,0.6,2,1.5,2.3c1.5,0.8,3.5-0.6,3.5-2.3c0-2,0-4.1,0-6.1c0.3,0.2,0.5,0.4,0.8,0.4 c3.3-1,5.4-4.8,6.3-8C320.6,336.7,316.7,332.6,312.5,333.1z M313.8,344.2c-0.6,0.8-1.1,1.1-1.5,1.4c-0.1-2.9-0.2-5.7-0.2-8.6 c2.2-0.4,3.4,0.3,3.9,1.9C316,340.4,314.5,343.5,313.8,344.2z"/><path d="M334.1,333.6c-0.9-0.3-1.6,0.1-2.2,0.5c-0.2-0.1-0.4-0.3-0.7-0.3c-2.1,0.1-3.3,2.3-4.2,4 c-1.8,4.3-2,9.1-1,13.6c1.2,5.1,7.4,6.8,10.7,2.5C341.2,348.5,342.3,336.3,334.1,333.6z M335.2,346.3c0,0,0,0,0,0.1 c-0.4,2.2-0.8,3.7-1.7,5c-2.9,3.8-4.7-4.7-3-10.5c0.3-1.2,0.9-2.3,1.3-2.8c0.4,0.3,1.2,0.6,1.5,0.6c0.2,0.2,0.5,0.4,0.7,0.6 C335.5,341.4,335.4,344.4,335.2,346.3z"/><path d="M353.4,333.4c-1.5-0.1-3.5-0.1-4.7,0.9c-1.2,0.3-2.2,1.2-2.2,2.8c-0.1,5.8-0.7,11.5-0.5,17.3 c0,1.1,0.9,2.2,2,2.3c1.1,0.2,2.3-0.6,2.6-1.7c0.3-2.1,0.5-4.2,0.7-6.3c0.6,1.3,3.2,1,5.5-1.1 C362.8,343.2,361.4,333.9,353.4,333.4z M355.6,342.9c-1.1,2.3-1.7,2.2-4,3.9c0.3-2.7,0.6-5.5,0.9-8.2c0.4,0,1,0,1.3,0 c0.2,0,0.5,0.1,0.7,0.1c0.5,0.2,0.5,0.2,0.7,0.3C356.5,340.2,356.2,341.5,355.6,342.9z"/></g></g></g></svg>