<?xml version="1.0" encoding="UTF-8" standalone="no"?><svg xmlns="http://www.w3.org/2000/svg" xmlns:xlink="http://www.w3.org/1999/xlink" fill="#000000" height="500.6" preserveAspectRatio="xMidYMid meet" version="1" viewBox="-1.7 -0.8 380.6 500.6" width="380.6" zoomAndPan="magnify"><g><g id="change1_1"><path d="M51.6,318.4c-0.9-5.9-0.9-12-1.5-18.3C48.8,272,46.2,244,45.4,216c-0.4-20.2,0.7-40.4,0.2-60.7 c0.7-6-3.6-2.9-6-3.2c-3.4-0.4-6.4-1.3-10.6-1.7c-0.9,0-1.7,0.4-2.2,1.1C25,163,25.6,175,25.1,186.7c-0.9,34.3,0.9,68.5,2.4,102.8 c0.1,1,0.1,2.1,0.1,3.1c0.1,4,0.2,8.1,0.4,12.1c0,1.4,0.1,2.8,0.2,4.2c0.2,3.8,0.4,7.6,0.6,11.4c-0.1,3.6,4.3,3.5,6.9,3.5 c5-0.2,10.2-0.1,15.1-1.3C52.4,321.7,51.7,319.8,51.6,318.4z" fill="#253f6b"/></g><g id="change1_2"><path d="M343.7,318.4c-0.9-5.9-0.9-12-1.4-18.3c-1.3-28.1-3.8-56.1-4.7-84.1c-0.4-20.2,0.7-40.4,0.2-60.7 c0.7-6-3.6-2.9-6-3.2c-3.4-0.4-6.4-1.3-10.6-1.7c-0.9,0-1.7,0.4-2.2,1.1c-1.9,11.5-1.3,23.5-1.8,35.2c-0.9,34.3,0.9,68.5,2.4,102.8 c0.1,1,0.1,2.1,0.1,3.1c0.1,4,0.2,8.1,0.3,12.1c0,1.4,0.1,2.8,0.2,4.2c0.2,3.8,0.4,7.6,0.6,11.4c-0.1,3.6,4.3,3.5,6.9,3.5 c5-0.2,10.2-0.1,15.1-1.3C344.5,321.7,343.9,319.8,343.7,318.4z" fill="#253f6b"/></g><g><g id="change2_2"><path d="M363.4,130.9c-28.1-17.5-56-35.5-82.3-55.7c-28.3-21.5-54.1-46.3-84.5-64.9C191,6.6,184,3.3,179,1 c-2.7-1.8-5.2-0.9-7.7,0.9c-11.8,8.1-22.2,17.9-32.8,27.5c-7.6,5.7-15.3,11.4-22.9,17.3c-6.2,4.9-12.4,9.9-18.5,14.9 c-8.7,6.2-17.5,12.3-26,18.8C48.9,97,27.5,114.5,6.6,132.6c-0.1,0.1-0.1,0.2-0.2,0.2c-0.5,0.4-0.9,0.7-1.4,1.1 c-1.8,1.6-3.8,3.3-4.3,5.7c-2.4,13.6,104.8,2.2,118.2,2.2c61.2-4.2,122.6-1.3,183.9-0.1c16.1,0.4,32.2,0.6,48.3,0 C359.3,141.4,378.9,142.1,363.4,130.9z" fill="#f75454"/></g><g id="change3_1"><path d="M368.3,135.1c-41-0.9-81.9,0.4-122.9,0.2c-28.3-0.3-56.6-1.8-85-2.5c-16.6-0.7-33.2,0.4-48.6,1.5 c-13.9,0.3-27.7-0.6-41.6,0c-22.1-0.4-42.1,4.2-63.6,3.4c-1.9,0.3-4.2-0.7-5.9,0.3c-0.3,0.3-0.5,0.6-0.5,1c0,0.1-0.1,0.2-0.1,0.4 c0,1,0.1,2,0.1,3.1c0,0.1-0.1,0.3,0,0.4c-0.1-1.4-0.1,1.4-0.2,1.9c0,0.5,0,1,0,1.5c0.2,2.3,0.9,4.7,2.2,6.7c1,1.5,2.5,2.6,3.9,3.8 c2.8,2.4,5.7,4.9,9.3,6.1c8.3,3.1,18.5,1.6,25.2-4.2c1.4-1.2,2.5-2.7,3.9-4c5.8,4.1,13.4,6.9,20.2,8.6c10,0.5,18.5-5.4,25.1-12.2 c0.4-0.4,0.8-0.9,1.1-1.2c3.1,2.9,6.3,5.7,10,7.9c7.6,4.3,17,3.8,25.2,1.5c4.7-1.3,10.2-7.3,12.5-9.5c0.2-0.1,0.2-0.1,0.3-0.2 c3.1,2,8.7,6.6,13.6,7.7c4.9,1.2,9.9,2.7,15,3.2c4.7,0.1,9.5-0.7,14.1-1.8c6.4-1.7,12-5.3,17.3-9.1c1.2,1.3,2.6,2.5,4.2,3.5 c5.6,3.3,11.8,5.9,18.2,7.2c6.5,1,13.2,0.1,19.5-1.7c3.8-1.2,7.6-2.6,11.1-4.6c1.7-0.9,4.3-3,5.4-3.9c1.7,1.4,6,4.4,8.3,6.1 c6.2,4.3,13.5,7.1,21.1,6.2c11.2-0.4,21-6.2,30.3-11.8c0.3-0.2,0.6-0.3,1-0.4c0.1,0.1,0.3,0.2,0.4,0.3c3.2,2.2,6.3,4.4,10,5.8 c6,2,12.5,3.4,18.9,2.5c6.9-1.4,13.2-5.4,17.6-10.8c2.1-2.6,5.2-9.9,5.2-10.7C369.9,135.9,369.2,135.1,368.3,135.1z" fill="#ffbe4f"/></g><g fill="#f75454" id="change2_5"><path d="M315.6,139.9c0,0,0.1-0.1,0.1-0.1C315.5,140,315.5,140,315.6,139.9z"/><path d="M362.8,138.7c-1.3,0-2,1.5-3,2.2c-3.3,2.8-5.1,4.4-9,6c-0.5,0.2-2.7,1-4.3,1.2c-0.1,0-3.3,0.3-3.7,0.3 c-5.1,0.3-8.8,0.1-13.1-1.4c-3.6-1.4-8.2-4.4-12.3-7.3c-0.7-0.4-1.3-0.2-1.7,0.3c0,0-0.1,0.1-0.1,0.1c-0.4,0.2-0.7,0.5-0.3,0.2 c-0.2,0.2-0.4,0.3-0.7,0.5c-7.1,5.6-18,11.7-26.3,11.7c-10.2-0.1-21.6-3.8-28.2-10.4c-0.6-0.5-1.1-1.3-1.8-1.7 c-0.2-0.3-0.6-0.5-1.1-0.5c-2,0.5-2,1.3-3.6,2.1c-3.9,2.5-7.6,5.2-12,6.8c-3.5,1.2-10.7,2.5-15,2.4c-6.3-0.5-15-3.3-20.6-5.8 c-2.1-1-5.8-4.3-8.8-5.9c-0.1,0-0.1,0-0.2,0c-0.2-0.2-0.6-0.4-1-0.5c-1.7,0.3-1.4,0.9-3,1.8c-4.4,3.2-9.9,7.4-14.9,8.7 c-11.6,2.6-23.9,1.2-33.5-6c-1.2-0.9-3.6-3.3-5.1-5.4c-0.3-0.3-0.6-0.4-0.9-0.5c-1.5-0.9-2.8,1.7-3.7,2.8 c-0.4,0.6-2.4,2.6-3.8,3.8c-6.3,5.8-11.9,8.4-20.3,7.5c-3.9-0.6-9.5-3.3-14-6.8c-1.8-1.7-3.5-3.5-5.1-5.5 c-0.1-0.2-0.5-0.8-0.8-0.8c-0.7-0.3-1.3,0.2-1.6,0.8c-0.4-0.2-0.8-0.4-1.2-0.2c-1.6,0.7-2.2,2.8-3.5,4 c-4.1,4.7-13.2,10.1-19.6,9.9c-6.3,0-12.5-3.5-15.8-7c-1.8-1.8-2.6-2.9-3.6-4.6c-0.1-0.3-0.2-0.6-0.5-0.8c0,0,0,0,0-0.1 c-0.2-0.1-0.3-0.2-0.5-0.3c0,0,0,0-0.1,0c-0.1,0-0.1,0-0.2,0c-0.1,0-0.2,0-0.2,0c-2.3-0.1-2.3,3.4-3.3,5 c-0.7,1.7-2.1,3.5-4.6,5.3c-3.7,2.8-10.1,4.8-14.2,4.3c-2.8-0.3-7-2.4-9.2-4.8c-1.9-1.9-2.4-3.1-3.5-5.8c-0.3-1.7-3-1.1-2.6,0.5 c2,7.1,8.6,12.7,16.1,13.2c7.4-0.3,14.4-3.2,18.8-8.1c1.3-1.4,2-3.2,2.9-4.9c2,3.2,5,6.1,8.7,8c3.5,1.7,7.1,3.5,11.1,3.4 c5.2,0.1,10.3-1.7,14.6-4.6c3.6-2.2,7.1-4.7,9.6-8.1c0.5-0.8,1.3-1.4,1.6-2.3c3.2,4.3,6.2,7.3,10.9,9.7c3.1,1.7,6.3,3.4,9.9,3.8 c4,0.3,8.2,0.1,12-1.4c4.5-1.8,8.2-5.1,11.7-8.3c1.7-1.7,2.6-2.8,3.8-4.2c8.9,11.9,25.7,14.7,39.6,11.8 c6.9-1.7,12.6-6.4,18.3-10.5c0.1-0.1,0.2-0.1,0.3-0.2c3,2.1,5.7,4.6,8.9,6.3c6.5,2.7,13.3,5,20.3,5.8c6.1,0.1,12.4-0.8,18.2-2.9 c4.8-1.9,8.9-5.1,13.1-7.9c3.1,3.6,7,6.4,11.4,8.1c6.3,2.8,13.1,4.5,20,4.4c10.6-0.5,20.3-6.5,28.5-12.8c0,0,0.1-0.1,0.1-0.1 c5.3,3.9,10.9,7.9,17.6,8.6c5.8,0.6,9.9,0.5,15.2-0.8c5.4-1.6,9.9-5.2,13.9-9.1C364.8,140.5,364.2,138.7,362.8,138.7z"/></g><g id="change3_2"><path d="M313.2,124.8c-12.4-11.6-22.7-25.3-35-37c-20.1-18.1-40.5-35.3-60.6-52.5c-6.7-5.7-14.4-12.7-22.3-18.5 C190,12.5,184,9.1,180.2,4.3c-0.3-1.3-1.8-1.2-2.4-0.5c-0.2-0.5-0.5-0.9-1.1-1.1c-0.4-0.2-0.9,0-1.2,0.2c-0.2-0.3-0.5-0.6-0.8-0.8 c-0.2-0.8-1.2-1.5-2.1-1c-0.4,0.6-0.7,1.2-1.1,1.8c-0.1-0.1-0.1-0.2-0.2-0.2c-2-1-3.2,1.9-4.5,3c-14.9,17.2-33.2,33.4-49.9,50.1 c-14.4,14.7-28.4,29.9-42.7,44.8c-6.4,6.8-12.4,13.9-18.8,20.6c-1.9,2.3-4.6,4.2-6,6.8c-0.1,1,1.2,1.7,2,1 c21.9-23.3,43.6-47,66-69.9c16.7-16.6,34.2-32.5,50.3-49.8c-5.9,9.3-12.1,18.6-18.3,27.7c-16.9,24.4-32.6,49.6-49,74.2 c-3.3,5.3-7.5,10.1-10.5,15.5c-0.3,1.4,1.7,2.3,2.5,1c26.7-38.4,51.7-78.1,78.1-116.8c0-0.1,0.1-0.1,0.1-0.2 c-2.4,8.3-5.2,16.4-7.8,24.6c-5.7,21-10.9,42.1-16.9,63c-2.8,9.1-5.6,18.2-8.4,27.3c-0.6,1.8,2.3,2.9,2.9,1 c9.4-28.3,16.9-57,24.3-85.9c3-11.3,7.2-22.2,10.3-33.4c2.5,15.2,3.9,30.5,5.8,45.8c2.9,17.4,6.3,34.7,8.1,52.3 c0.9,7.4,1.2,15.7,3.8,21.9c0.8,1.3,2.9,0.4,2.5-1.1c-1.7-4.9-2.1-10.2-2.7-15.3c-1-10.6-2.4-21.1-4-31.6c-4.8-22.4-6-45.5-9.8-68 c10.9,20.1,22,40.1,33.9,59.6c12.1,19.1,25.1,35.8,36.9,54.1c1.8,1.5,3.9-1.1,2.2-2.8c-19-28.2-36.5-50.9-53-81.4 c-6-11-12.4-21.8-18.4-32.8c5.1,5.6,12.3,9.3,18,14.3c21.6,17.9,42,36,64.2,55.1c17.6,13.7,32.7,33.9,49.5,50 C313.7,129,315.4,126.1,313.2,124.8z" fill="#ffbe4f"/></g></g><g id="change2_3"><path d="M346.9,411.2c-0.1-14,0.6-27.9,0.4-41.9c0.2-22.2,0-44.3-1.3-66.5c-0.1-0.6-0.2-1.1-0.3-1.7 c-0.1-0.7-0.3-1.3-0.5-2c0-0.2-0.1-0.3-0.1-0.5c0,0-0.1-0.2-0.1-0.3c0-0.1-0.1-0.2-0.1-0.2c-0.1-0.1-0.2-0.3-0.2-0.4 c0-0.1-0.1-0.1-0.1-0.1c-0.1-0.1-0.1-0.1-0.2-0.2c0,0,0,0,0,0c-0.2-0.1-0.3-0.2-0.5-0.3c-0.6-0.3-1.3-0.6-1.9-0.9 c-0.7,0-1.5,0-2.1-0.2c-20-0.8-40-1.1-60-1.7c-14.3,0.4-28.6,1.3-42.9,0.7c-21.2-0.5-42.4-1.4-63.5,0.2c-18,0.1-36-0.5-54-0.2 c-30.2,0.9-60.5,0.6-90.7,1.8c-0.7,0.1-1.4,0.1-2.1,0c-0.4,0.3-0.9,0.6-1.3,1c-1.4,1.4-2.1,3.3-2.6,5.3c-2,42.9,0.8,86,0.3,128.9 c-0.3,15.6,0.4,31.3,0.2,46.9c-0.2,5.2,0.1,13,0.8,18.3c0.5,1.3,1.5,2,3,2.2c0.2,0,0.4,0,0.5,0c0.3,0,0.5-0.1,0.8-0.1 c35.5-0.1,71-0.8,106.5,0.5c41.4-0.3,82.7-0.3,124.1-1.2c24.2,0.7,48.4-0.7,72.6-0.1c4.5-0.1,9-0.4,13.4-1c0,0,0.1,0,0.1,0 c0.2-0.2,0.4-0.3,0.6-0.5c0.2-0.1,0.2-0.2,0.1-0.1c-0.1,0.1-0.1,0.1,0.1-0.1c0,0,0,0,0.1-0.1c0,0,0-0.1,0.1-0.1 c0-0.1,0.2-0.5,0.1-0.2c0.1-0.3,0.2-0.6,0.3-1c0.3-0.7,0.5-1.4,0.7-2.2c0-0.1,0.1-0.2,0.2-0.4c1.4-13.9-0.2-28,0.1-41.9 C347.8,437.9,347.3,424.5,346.9,411.2z" fill="#f75454"/></g><g><g fill="#ffbe4f" id="change3_3"><path d="M271,446.6C270.9,446.6,270.9,446.6,271,446.6L271,446.6z"/><path d="M271.6,446.5c-0.1,0-0.1,0-0.2,0c-0.1,0-0.3,0.1-0.3,0.1C271.1,446.6,271.3,446.6,271.6,446.5z"/><path d="M303.3,393.4c-1.3-8.2-2.1-16.8-4.9-24.7c-0.8-1.3-2.3-1.8-3.7-2.3c-5.6-2.1-12.6-3.3-14.2-5.3 c-3-3-3.5-13.2-4.3-17.7c0.1-4.6-28.4-3.5-40.7-3.1c-47,1.6-89.8,0.8-136.1,7.8c-1.2,0.5-1.6,1.3-2.5,3.5c-0.6,3.1-1,5.6-1.2,7.9 c-3.5,10.2-11.7,14.6-23.7,20.3c-1.9,1.5-2.5,4-2.8,6.3c-1.3,12.5-1.3,23.3-3.1,34c0.3,4.4,5.8,4.8,9,6.4 c4.6,1.8,12.6,5.2,15.6,11.9c0,0,0.1,0.1,0.1,0.1c0,1,0,2,0.1,3c0.2,3.3-0.1,7.2,2.4,9.7c2.7,2.2,6.5,2.2,9.7,2.7 c41.2,0.7,82.7,1,123.9-2.6c14.7-1.9,29.5-3.6,44.3-4.8c1.1-0.3,3.8-1.2,4.4-2.7c0.3-0.4,0.5-0.9,0.8-1.4 c0.2-0.2,0.3-0.5,0.5-0.9c0-0.1,0.1-0.2,0.1-0.3c0-0.1,0.1-0.2,0.1-0.3c0.6-2.3,7.4-11.9,10-12.9c6.3-5.1,11.2-6.6,16.3-12.8 C303,408.7,304.1,400.2,303.3,393.4z"/></g><g id="change2_1"><path d="M294.4,396.7c-0.6-6.4-0.1-12.8-0.9-19.2c-0.2-0.5-0.4-1-0.8-1.3c-3.8-2-7.6-2.7-10.8-4.4 c-7-3.3-11.2-7.7-14.6-14.8c-0.7-1-1.2-2.2-1.8-3.2c0.3-0.9,0-1.9-1.1-2.2c-26.8-1.7-53.8,0.9-80.7,0.6 c-22.7,0.6-47.6-2.2-69.7,3.2c-2.7,1.5-3.8,7.3-4.5,8.4c-1.8,4.6-5.9,8.9-8.9,11.1c-4.2,3.8-11.8,6-14.9,9.1 c-3.8,7.9-4.5,17.3-5.3,25.9c0,1.7,0.9,3.2,2.1,4.4c3,3,6.7,5.3,9.5,8.5c1.4,1.4,1.4,1.7,2.4,2.9c3.1,3.8,4.9,8.2,7.1,12.5 c1.1,1.7,3.3,2.3,5.2,2.6c23.1,1.8,46.3,4.3,69.6,3.9c27.8-0.4,55.5-4,83.2-5.8c2.4-0.5,4-2.4,5.4-4.2c0.2-0.2-0.2,0.2-0.2,0.2 c4.8-5.8,9.5-10.7,15.7-13.9c3.5-2,8.7-2.6,13.2-4.6c1-0.6,1.4-1.7,1.5-2.8C295.5,408,295,402.3,294.4,396.7z M291.2,413.5 c-2.5,0.5-12.8,3.2-17.3,6.8c-5.3,3.8-9.6,8.6-13.7,13.6c-1.2,1-0.9,1-2.5,1.4c-26.7,1.8-57.1,5.3-85.2,5.5 c-21.4,0-45.6-2.2-65.3-4.1c-1.1-0.3-1.8-0.3-2.1-0.6c0,0-0.1,0-0.1-0.1c-1.8-3.9-4.1-8.9-7.1-12.6c-3.5-5.1-8.9-8.4-13.2-12.7 c0-0.1-0.2-0.4-0.3-0.6c0.2,0.3,0.1,0.2,0.1,0.1c0-0.1-0.1-0.7-0.1-0.9c0.6-6.7,1.9-17.1,4.5-23c3.5-1.9,9.2-4.5,13-7.4 c4.6-3.3,8.8-7.5,10.8-12.8c1.5-3.5,2.4-7.5,3.6-7.7c21.8-3.9,46.2-2.1,69-2.4c25.4,0,50.9-2.1,76.3-1.2c1.1,3.8,4.6,8.7,6.6,11.7 c4.7,6.3,16.4,11,21.3,12.3c-0.1,1.3,0.6,4.1,0.3,5.9C290,393.6,291.7,406.9,291.2,413.5z" fill="#f75454"/></g><g fill="#f75454" id="change2_4"><path d="M134,380.2c-6.2,0.2-12.5,0.8-18.6,2.3c-3.3,0.1-3.1,4.8,0.2,4.2c3-0.7,5.7-1.1,8.5-1.4 c0.5,10.9,0.6,21.9,0.8,32.8c0,0.9,0,1.9,0.7,2.5c1.1,1.1,3.1,0.9,3.9-0.5c0.8-3-0.1-6.4,0.1-9.5c-0.3-8.5-0.4-17.2-1.3-25.7 c2.1-0.2,4.2-0.3,6.6-0.4c0.9,0,1.7-0.5,2-1.3C137.9,381.3,135.8,379.8,134,380.2z"/><path d="M259.6,372.9c-6.2,0.2-12.5,0.8-18.6,2.3c-3.3,0.1-3.1,4.8,0.2,4.2c3-0.7,5.7-1.1,8.5-1.4 c0.5,10.9,0.6,21.9,0.8,32.8c0,0.9,0,1.9,0.7,2.5c1.1,1.1,3.1,0.9,3.9-0.5c0.8-3-0.1-6.4,0.1-9.5c-0.3-8.5-0.4-17.2-1.3-25.7 c2.1-0.2,4.2-0.3,6.6-0.4c0.9,0,1.7-0.5,2-1.3C263.4,374.1,261.4,372.5,259.6,372.9z"/><path d="M151.4,406.2c-0.7-8.4-1-16.8-1.7-25.1c-0.8-2.3-4.6-1.6-4.5,0.9c0.4,11.4,1.8,22.7,2.5,34 c0,0.9,0.5,1.8,1.4,2.1C154.6,419.5,151,409.2,151.4,406.2z"/><path d="M175.7,380.2c-11.3,5.1-17,29-3,33.8c2.2,0.7,3.8-2.2,2.2-3.7c-1.5-1.1-1.3-0.4-3.2-1.8 c-3.9-2.2-3.3-14.8,1-20.2c0.9-1.2,3.5-4,5.1-4.5C180.2,382.5,178,378.8,175.7,380.2z"/><path d="M204.7,401.5c-2.1-1.9-4.1-5.5-6.4-7.8c2.4-3.5,4.9-6.9,7.4-10.3c0.4-0.7,0.4-1.7-0.2-2.4 c-1.5-1.9-3.6-0.1-3.8,0.4c-2.5,3.1-4.9,6.2-7.1,9.5c-0.3-3.4-0.7-6.7-1.1-10c-0.8-2.3-4.6-1.5-4.5,0.9c0.8,10,1.6,20,2,30.1 c0,1.2,0.4,2.6,1.6,3c6.1,1.6,2.4-9.5,2.9-12.8c-0.1-1.4-0.2-2.8-0.3-4.2c0.1-0.1,0.3-0.2,0.4-0.3c3.5,4,7.8,9.2,9.7,11.6 c0.9,1.7,3.3,2.5,4.5,0.6C210.8,406.5,206.8,404.8,204.7,401.5z"/><path d="M227,406.4c-0.9,0-2.2-0.1-2.9-0.1c-0.1-1.9-0.6-6-1.4-10.5c2-0.4,3.3-0.4,6.2-0.9c1.2-0.2,2.4-1.2,2.1-2.5 c-0.3-2.2-2.8-2-4.5-1.6c-1.4,0.4-3.1,0.5-4.6,0.8c-0.5-2.9-1.2-5.8-1.8-8.2c3.1-0.7,6.2-1.2,9.3-1.8c1.5-0.1,3.2-1.3,2.5-2.9 c-0.3-0.9-1.2-1.2-2.1-1.2c-4.1,0.3-8.1,1.1-12.1,1.9c-1.6-0.2-3.4,1.2-2.8,3c2,8.5,3.7,18.6,4.6,25.4c0.1,0.7,0.4,1.5,0.9,2 c2.4,1.8,5.8,0.9,8.6,0.9c1.5-0.2,3.8,0.3,4.5-1.5C234.7,405.2,229.3,406.6,227,406.4z"/></g></g></g></svg>