<?xml version="1.0" encoding="UTF-8" standalone="no"?><svg xmlns="http://www.w3.org/2000/svg" xmlns:xlink="http://www.w3.org/1999/xlink" fill="#000000" height="510.3" preserveAspectRatio="xMidYMid meet" version="1" viewBox="-0.1 -9.2 199.4 510.3" width="199.4" zoomAndPan="magnify"><g><g><g id="change1_1"><path d="M181.7,466.6c0-1.3-0.1-2.6-0.2-3.9c0.1-0.5,0.1-1-0.1-1.7c0,0,0-0.1,0-0.1c-0.4-5.9-1.3-12.1-2-16.2 c0-0.1,0-0.2,0-0.3c-3.1-25.5-5.8-51-7.2-77c-7-57.9-13.9-117.8-22.5-174.1c-4.1-36.1-10.1-72.9-15.5-107.7 c-1.7-11.2-2.8-21.6-4.9-32.8c0.8-0.7,1.1-2,0.2-2.8c-7.8-3.2-17.1-1.2-25.4-1.7c-2.8,0.2-5.7,0-8.4,0.5c0,0,0,0,0,0 c-2.4,0-4.7-0.1-7-0.1C83.2,49.1,76.9,48,71.8,50c-1,0.8-1,2.1-0.5,3c-0.2,0.9-0.2,2-0.5,2.9C60.7,101.8,55.4,147,49.4,193 c-8.9,48.6-12.3,103.4-18.5,154.8c-2,21.9-4.8,43.8-6.1,65.7c-0.4,16.4-1.1,32.3-4.3,47.9c-0.1,1.3-0.6,2.5-0.8,3.8 c-2.9,0.9-2,4.3,1.9,4c22.3,1.5,46.5,1.1,70.4,0.3c12.6,0.4,25.1,0.7,37.2,0.7c10.7,0.4,21-1.2,31.5-2.1c6.5,0,12.9,0.2,19.4,0.1 c1.1,0,1.6-0.7,1.7-1.5C181.7,466.7,181.7,466.6,181.7,466.6z" fill="#ffbe4f"/></g><g id="change2_2"><path d="M104,66.2c-0.3-4.4-6.8-3.2-5.6,1.3c2.4,85.5,0.8,171.1-2.3,256.6c-1.6,32.6,0.2,65.3-0.2,97.9 c-0.1,0.9-0.2,1.8,0.5,2.4c1.1,1.1,3.3,0.3,3.2-1.3c-0.7-58,0.9-115.9,3.4-173.9C105,188.2,104.2,127.2,104,66.2z" fill="#202f5a"/></g><g id="change3_2"><path d="M137.8,30.5c-0.2-1.1-0.4-2.7-0.2-0.8c-1.8-8.6-5.8-17.6-13.3-22.6C101.1-9.2,72.5,4.8,64.8,26.5 c-4.8,11.3-4.1,26.1,3.2,36.2c4.2,5.7,31.7,29,58.1,6c5.2-4.5,9.1-10.6,11.1-17.1c1.1-4.2,1.8-8.6,1.5-13 C138.5,35.9,138.3,33.2,137.8,30.5z" fill="#f75454"/></g><g id="change2_3"><path d="M180.6,459.5c-27.2-0.5-54.3,0.7-81.5,1.1c-19.7-0.4-39.3-0.2-59-0.8c-10.9-0.3-22.1-1.8-32.9,0.3 c-0.2,0-0.4,0.1-0.5,0.1c-0.2,0-0.5,0.1-1,0.1c-2.2,0.3-4.7,1-5.4,3.4c-0.4,0.6-0.3,2-0.1,3c0,0,0,0,0-0.1 c0.1,7.2,1.4,20.9,1.7,24.9c-0.1,1.9,1,3.8,2.7,4.6c2.1,0.9,4.1,1.8,4.1,1.2c1.6,0.8,3.8,0.9,5.4,1.3c24.2,2.5,48.8,0.5,73.1,0.8 c26.9,0.3,100.9-1.9,102.4-3c3.4-2.7,4.2-11,4.8-15c0.5-3.5,0.8-7.1,1.2-8.1c0.1-1.2,1.1-3.9,0.9-3.8c0.1-0.1,0.1-0.2,0.2-0.4 C199.3,457.2,188.5,459.6,180.6,459.5z" fill="#202f5a"/></g><g fill="#ffbe4f" id="change1_2"><path d="M32.5,473.4c-3.9-3.3-10.2-1.7-12.5,2.7c-0.6,1-0.7,1.8-0.6,2.5c-0.3,1.6-0.3,3.2,0.2,4.8 c2.5,7.1,10.5,6.8,13.9,0.6C35.2,480.7,35.3,476.1,32.5,473.4z M30.9,482.8c-1.4,1.8-3.3,3.6-6.3,2.4c-0.1,0-0.2-0.1-0.3-0.2 c-0.1-0.1-0.3-0.2-0.3-0.2c-0.1-0.1-0.2-0.2-0.3-0.3c-1.1-1.1-1.4-1.8-1.8-2.5c-0.2-1-0.3-1.9-0.2-2.8c0,0,0,0,0.1,0 c0.3-2.4,2.1-3.6,3.4-4.2C29.9,473.4,33.3,477,30.9,482.8z"/><path d="M65.6,472.1c-0.6-0.1-1.1,0-1.6,0.2c-0.2,0-0.3-0.1-0.4,0c-10.5,4.3-5,20.9,6.2,14.5 C76.6,482,74.2,472.6,65.6,472.1z M67,483.6c-0.3,0.1-0.6,0.2-0.9,0.3c-1.4,0.2-2.8-0.3-3.8-0.9c-0.8-1.1-0.6-3.5-0.2-4.3 c1-2,1.3-2,2.3-2.5c1.7-0.1,1.9-0.2,3.5,0.5C70.7,478.2,70.3,481.7,67,483.6z"/><path d="M102,472.9c-0.9,0.2-1.8,1-2.1,1.9c-2.8,2-4,6.5-2.1,9.5c3.4,5.4,11.5,4.4,12.7-2.1 C111.8,477.1,107.9,471.1,102,472.9z M104.6,484.6c-2.9,0.7-6.9-3.2-3.5-7.3c0.2-0.2,0.4-0.4,0.7-0.6c1-0.2,1-0.4,2.2-0.3 c0.1,0,0.1,0,0.2,0c0.1,0,0.4,0.1,0.7,0.2c0.4,0.2,1.2,0.7,1.4,0.8C108.2,478.9,107.6,484.3,104.6,484.6z"/><path d="M134.9,476.4c-1.7,2.2-0.9,6.3-0.2,7.4c0.1,0.3,0.3,0.3,0.4,0.5c2.2,4.9,8.8,3.4,10.7,0.2 C151.6,476.6,140.2,467.7,134.9,476.4z M143.1,482.2c-0.3,0.4-0.1,0.2-0.8,0.9c-0.2,0.1-0.2,0.1-0.2,0.1 c-2.1,0.4-2.7,0.1-3.7-0.8c-0.4-0.5-0.9-1.1-0.9-2.2c0-0.2,0.1-0.4,0.2-0.7c0.2-0.6,0.6-1.4,1.3-1.9c0.1-0.1,0.3-0.2,0.4-0.3 c0.3-0.1,0.7-0.2,1-0.4c0.2-0.1,0.3-0.3,0.4-0.5c1.4,0.1,2.6,1.2,2.9,2.1C144,480,143.9,480.7,143.1,482.2z"/><path d="M177.2,474.2c-0.2,0-0.4,0-0.6,0.1c-0.3-0.1-0.5-0.3-0.9-0.2c-1.1,0.2-2.1,0.8-2.9,1.6c0,0,0,0-0.1,0.1 c-2.2,2.2-2.9,5.8-0.7,8.3c2.5,3.6,8.1,2.8,9.6-1.3C183,479.2,181.7,474.1,177.2,474.2z M179.6,481.4c-0.2,1.1-0.5,1.6-1,2.1 c-1.2,1.1-3.6,0.7-4.6-0.9c-0.6-0.9-1.1-2.6-0.2-3.8c0.1-0.2,0.3-0.3,0.4-0.5c0.3-0.2,0.6-0.5,0.9-0.7c0.2-0.1,0.4-0.3,0.6-0.3 c0.1,0,0.2-0.1,0.3-0.1c1.7-0.1,2.7,0.5,3.4,1.7C179.7,479.7,179.7,480.2,179.6,481.4z"/></g><g id="change2_4"><path d="M96.7,27.8c-4.5,2.8-5.7,7.6-4.2,11.6c0.2,1,0.6,2.1,1.3,3.1c6.6,8.6,19.6,4.7,19.5-6.5 C112.4,28.2,103.9,23,96.7,27.8z" fill="#202f5a"/></g><g id="change2_5"><path d="M135.3,447.3c-18.3,0.5-36.5,1.3-54.8,1.3c-6.3,0.1-12.6,0.4-18.7,1.8c-1.6,0.3-3.1,0.9-4.2,2 c-0.1,0-0.2,0-0.3,0.1c-0.8,0.5-1.3,1.3-1.5,2.2c-0.2,0-0.5,4-0.6,3.6c0-0.3,0.1-0.4,0-0.3c-0.1,0.4-0.4,1.5-0.4,1.7 c0,0.1-0.1,0.1-0.1,0.2c0,0-0.1,0.1-0.1,0.1c0,0,0,0,0,0c0,0,0,0,0,0c-0.1,0.1-0.4,0.3-0.5,0.7c-0.1,0.1-0.1,0.2-0.1,0.2 c-0.1,0.2-0.3,0.4-0.4,0.6c-0.3,0.8,0,1.9,0.6,2.5c1.5,1.4,3.5,0.2,5.3,0c14.3-2.2,33.7-2.4,50-2.3c10.3-0.4,23.7,3.4,33.1-0.8 C145.4,458.4,140.4,447.7,135.3,447.3z" fill="#202f5a"/></g><g id="change2_6"><path d="M112.5,432.7c-0.2-1.4-0.5-2.9-1.5-3.9c-1-0.9-2.5-1-3.9-1.1c-5.7,0-12.4,1.3-17.1,3.3 c-0.7,0.7-1,1.7-1.1,2.7c-0.1,0.5-0.2,0.9-0.2,1.3c0,0.1,0,0.3-0.1,0.6c0,0,0,0.1,0,0.1c-0.1,0.9-0.2,2.3,0.4,2.9 c1.2,1,2.9,0.8,4.3,1c4.4-0.1,12.4,0.5,17.8-1.1C113.5,437.1,112.6,434,112.5,432.7z M91,436.6C91,436.6,91,436.6,91,436.6 c-0.1-0.2-0.1-0.3-0.1-0.5c0.2-0.6,0.2-1.3,0.1-2c0.1-0.4,0-1.5,1-1.5c4.6-0.6,11.4-0.5,16.7-1.4c0.4,1,0.7,2.8,0.5,3.9 C105.1,435.4,95.8,436.5,91,436.6z" fill="#202f5a"/></g><g fill="#202f5a" id="change2_1"><path d="M116.8,392c-10.9-0.7-22.2,0.5-33.2,1c-2.5,0-2.5,3.9,0,3.8c10.7-0.7,21.3-0.8,32-0.6 C117.9,396.3,118.8,393.1,116.8,392z"/><path d="M116.8,358.6c-10.9-0.7-22.2,0.5-33.2,1c-2.5,0-2.5,3.9,0,3.8c10.7-0.7,21.3-0.8,32-0.6 C117.9,363,118.8,359.7,116.8,358.6z"/><path d="M116.8,325.3c-10.9-0.7-22.2,0.5-33.2,1c-2.5,0-2.5,3.9,0,3.8c10.7-0.7,21.3-0.8,32-0.6 C117.9,329.6,118.8,326.4,116.8,325.3z"/><path d="M116.8,291.9c-10.9-0.7-22.2,0.5-33.2,1c-2.5,0-2.5,3.9,0,3.8c10.7-0.7,21.3-0.8,32-0.6 C117.9,296.2,118.8,293,116.8,291.9z"/><path d="M116.8,258.6c-10.9-0.7-22.2,0.5-33.2,1c-2.5,0-2.5,3.9,0,3.8c10.7-0.7,21.3-0.8,32-0.6 C117.9,262.9,118.8,259.7,116.8,258.6z"/><path d="M116.8,225.2c-10.9-0.7-22.2,0.5-33.2,1c-2.5,0-2.5,3.9,0,3.8c10.7-0.7,21.3-0.8,32-0.6 C117.9,229.5,118.8,226.3,116.8,225.2z"/><path d="M116.8,191.8c-10.9-0.7-22.2,0.5-33.2,1c-2.5,0-2.5,3.9,0,3.8c10.7-0.7,21.3-0.8,32-0.6 C117.9,196.2,118.8,192.9,116.8,191.8z"/><path d="M116.8,158.5c-10.9-0.7-22.2,0.5-33.2,1c-2.5,0-2.5,3.9,0,3.8c10.7-0.7,21.3-0.8,32-0.6 C117.9,162.8,118.8,159.6,116.8,158.5z"/><path d="M116.8,125.1c-10.9-0.7-22.2,0.5-33.2,1c-2.5,0-2.5,3.9,0,3.8c10.7-0.7,21.3-0.8,32-0.6 C117.9,129.4,118.8,126.2,116.8,125.1z"/><path d="M116.8,91.8c-10.9-0.7-22.2,0.5-33.2,1c-2.5,0-2.5,3.9,0,3.8c10.7-0.7,21.3-0.8,32-0.6 C117.9,96.1,118.8,92.9,116.8,91.8z"/></g><g id="change4_6"><path d="M135.5,460.1c-6.9,0.1-13.7,0.5-20.5,0.6c-17.5,0.2-35-1-52.6-0.8c-1.6,0.2-3.4-0.6-4.8,0.3 c-1,0.9-0.3,2.8,1.1,2.7c21-0.1,42,1,63,0.6c4.8-0.3,9.6-0.2,14.4-0.6c0.7-0.2,1.1-1.1,0.9-1.8 C136.8,460.6,136.2,460.1,135.5,460.1z" fill="#f66125"/></g><g fill="#f66125" id="change4_12"><path d="M78.5,92.5c-1.3-2.4-4.6-2.5-6.3-0.8c-2.2,1.7-2.1,6.2,1.3,6.7c2,0.4,3.5-0.7,4.4-1.4 C78.7,96.5,79.9,94.3,78.5,92.5z"/><path d="M78.5,125.9c-1.3-2.4-4.6-2.5-6.3-0.8c-2.2,1.7-2.1,6.2,1.3,6.7c2,0.4,3.5-0.7,4.4-1.4 C78.7,129.9,79.9,127.7,78.5,125.9z"/><path d="M78.5,159.4c-1.3-2.4-4.6-2.5-6.3-0.8c-2.2,1.7-2.1,6.2,1.3,6.7c2,0.4,3.5-0.7,4.4-1.4 C78.7,163.4,79.9,161.2,78.5,159.4z"/><path d="M78.5,192.8c-1.3-2.4-4.6-2.5-6.3-0.8c-2.2,1.7-2.1,6.2,1.3,6.7c2,0.4,3.5-0.7,4.4-1.4 C78.7,196.8,79.9,194.6,78.5,192.8z"/><path d="M78.5,226.2c-1.3-2.4-4.6-2.5-6.3-0.8c-2.2,1.7-2.1,6.2,1.3,6.7c2,0.4,3.5-0.7,4.4-1.4 C78.7,230.3,79.9,228,78.5,226.2z"/><path d="M78.5,259.7c-1.3-2.4-4.6-2.5-6.3-0.8c-2.2,1.7-2.1,6.2,1.3,6.7c2,0.4,3.5-0.7,4.4-1.4 C78.7,263.7,79.9,261.5,78.5,259.7z"/><path d="M78.5,293.1c-1.3-2.4-4.6-2.5-6.3-0.8c-2.2,1.7-2.1,6.2,1.3,6.7c2,0.4,3.5-0.7,4.4-1.4 C78.7,297.1,79.9,294.9,78.5,293.1z"/><path d="M78.5,326.6c-1.3-2.4-4.6-2.5-6.3-0.8c-2.2,1.7-2.1,6.2,1.3,6.7c2,0.4,3.5-0.7,4.4-1.4 C78.7,330.6,79.9,328.4,78.5,326.6z"/><path d="M78.5,360c-1.3-2.4-4.6-2.5-6.3-0.8c-2.2,1.7-2.1,6.2,1.3,6.7c2,0.4,3.5-0.7,4.4-1.4 C78.7,364,79.9,361.8,78.5,360z"/><path d="M78.5,393.5c-1.3-2.4-4.6-2.5-6.3-0.8c-2.2,1.7-2.1,6.2,1.3,6.7c2,0.4,3.5-0.7,4.4-1.4 C78.7,397.5,79.9,395.3,78.5,393.5z"/></g><g fill="#f66125" id="change4_11"><path d="M130.1,92.5c-1.3-2.4-4.6-2.5-6.3-0.8c-2.2,1.7-2.1,6.2,1.3,6.7c2,0.4,3.5-0.7,4.4-1.4 C130.3,96.5,131.5,94.3,130.1,92.5z"/><path d="M130.1,125.9c-1.3-2.4-4.6-2.5-6.3-0.8c-2.2,1.7-2.1,6.2,1.3,6.7c2,0.4,3.5-0.7,4.4-1.4 C130.3,129.9,131.5,127.7,130.1,125.9z"/><path d="M130.1,159.4c-1.3-2.4-4.6-2.5-6.3-0.8c-2.2,1.7-2.1,6.2,1.3,6.7c2,0.4,3.5-0.7,4.4-1.4 C130.3,163.4,131.5,161.2,130.1,159.4z"/><path d="M130.1,192.8c-1.3-2.4-4.6-2.5-6.3-0.8c-2.2,1.7-2.1,6.2,1.3,6.7c2,0.4,3.5-0.7,4.4-1.4 C130.3,196.8,131.5,194.6,130.1,192.8z"/><path d="M130.1,226.2c-1.3-2.4-4.6-2.5-6.3-0.8c-2.2,1.7-2.1,6.2,1.3,6.7c2,0.4,3.5-0.7,4.4-1.4 C130.3,230.3,131.5,228,130.1,226.2z"/><path d="M130.1,259.7c-1.3-2.4-4.6-2.5-6.3-0.8c-2.2,1.7-2.1,6.2,1.3,6.7c2,0.4,3.5-0.7,4.4-1.4 C130.3,263.7,131.5,261.5,130.1,259.7z"/><path d="M130.1,293.1c-1.3-2.4-4.6-2.5-6.3-0.8c-2.2,1.7-2.1,6.2,1.3,6.7c2,0.4,3.5-0.7,4.4-1.4 C130.3,297.1,131.5,294.9,130.1,293.1z"/><path d="M130.1,326.6c-1.3-2.4-4.6-2.5-6.3-0.8c-2.2,1.7-2.1,6.2,1.3,6.7c2,0.4,3.5-0.7,4.4-1.4 C130.3,330.6,131.5,328.4,130.1,326.6z"/><path d="M130.1,360c-1.3-2.4-4.6-2.5-6.3-0.8c-2.2,1.7-2.1,6.2,1.3,6.7c2,0.4,3.5-0.7,4.4-1.4 C130.3,364,131.5,361.8,130.1,360z"/><path d="M130.1,393.5c-1.3-2.4-4.6-2.5-6.3-0.8c-2.2,1.7-2.1,6.2,1.3,6.7c2,0.4,3.5-0.7,4.4-1.4 C130.3,397.5,131.5,395.3,130.1,393.5z"/></g><g id="change4_7"><path d="M134.1,33.5c-0.3-2.6-1-5-1.8-7.5c-3.3-9.9-11.7-18-22-20.4c-2.3-0.4-4.9-1-7.2-0.6c-1.4,0.5-1,2.8,0.5,2.7 c13.2,0,24,10.2,27.2,23c0.4,1.6,0.7,3.3,0.7,3.6c0.1,1,0,2.1,1.7,2C134.6,36.1,134.1,34.5,134.1,33.5z" fill="#f66125"/></g><g id="change4_8"><path d="M100.9,72.2c-0.1,0-0.3,0.1-0.3,0.1c0,0-0.1,0-0.1,0c-0.9,0.1-1.8,0.1-2.7,0c-0.4-0.1-2-0.5-2.2-0.1 c-2.9,3.2,4.4,3.5,6.2,3.1C103.7,74.7,102.9,71.7,100.9,72.2z" fill="#f66125"/></g><g id="change4_9"><path d="M81.9,64.7c-1.5-1-3.4-2.4-3.8-2.7c-3.8-3.1-6.1-7.3-7.6-11.1c-0.8-2.3-1.1-3.4-1.1-5.2c0-1.7-2.7-1.7-2.6,0 c0.1,6.4,3.4,12.7,7.6,17.4c2.7,2.5,5.8,4.4,8.8,6.6c1,0.6,1.9,1.8,3.2,1.5C90.4,68.8,83.5,66.2,81.9,64.7z" fill="#f66125"/></g><g id="change4_10"><path d="M109.6,34.7c-1-3.3-4.9-5.2-8.2-4.4c-0.8,0.2-1.5,0.5-2.1,0.9c-0.9,0.4-1.6,1.1-2.2,2 c-2.8,5.4,3.4,11.9,8.9,9.1C108.9,41.1,110.4,37.6,109.6,34.7z" fill="#f66125"/></g></g><g><g id="change3_1"><path d="M128.5,436.7c-3.6,4.6-6.6,6.6-11.4,10.1c-2.4,1.5-4.8,3.1-7.4,4.3c0,0,0,0-0.1,0.1c-2.1,1.4-4.2,2.9-6.7,3.2 c-3.5,0.5-8.2-1.5-9.9-5.9c-0.2-0.5-0.1-0.2-0.2-0.5c-0.8,0.1-3-0.8-3.9-2.4c-0.2-0.2-0.7-1.6-0.8-2c-0.1-0.1-0.1-0.1-0.1-0.2 c0-0.1-0.1-0.4-0.2-0.7c-1-0.3-2.1-0.8-2.9-1.5c-1.2-1.2-2-2.9-2.1-4.6c-1.9-2.2-3.8-4.6-5.6-7c-0.9,0.5-2.8-0.1-3.7-1.1 c-1.6-1.2-2.6-3.2-2.7-5.2c-1.5,0.4-3-0.5-4-1.5c-0.8-1.2-1-2.7-1-4.2c-0.3,0.2-0.8,0.2-1.2,0.1c-1.1-0.3-1.4-1.6-1.6-2.7 c-0.1-1.7,0.1-3.5,0.4-5.2c-0.1-0.4,0-0.8,0.1-1.1c0.2-1.4,0.8-2.6,1.5-3.7c0.2-0.3,0.9-1.3,1.3-1.7c0-0.1,0.1-0.1,0.1-0.1 c0.1-0.1,0.1-0.1,0.1-0.1c6.4-7.9,12.8-15.4,19.9-17.5c0.2-0.1,0.4-0.1,0.5-0.1c0.2-0.1,0.5-0.2,0.7-0.3c3.5-1,7.8-0.7,10.9,1.4 c1.1,1.1,0.7,2.7-0.3,3.7c0.5,0.1,0.9,0.2,1.3,0.3c1.5,0.4,2.2,0.9,3.7,1.3c0.9,0.2,1.7,0.8,2,1.8c0.2,0.8-0.2,1.8-0.9,2.6 c0,0,0.1,0,0.1,0.1c2.8,0.8,5.4,2.6,7.4,4.6c2.4,3,5.1,6.4,6.2,10.2c0.2-0.2,0.3-0.4,0.5-0.6c3-1,4.3,3.7,5,5.9 c0,0.1,0.1,0.1,0.1,0.2c1-0.1,2.2,0.1,3,0.9c1.6,1.5,2,3.7,2.4,5.7c0.3,1.6,0.6,3.3,0.8,4.9C130.8,430.8,130.5,433.7,128.5,436.7z" fill="#f75454"/></g><g id="change4_1"><path d="M84.7,428.5c-0.7-0.7-1.4-1.5-2.2-2.1c0.2,0.1,0.4,0.2,0.1,0c-1.1-1.3-3.7-1.1-4.3-0.4 c-13.3,12.2-26.5,19.7-39.3,31.3c-0.3,1.4,0.8,2.6,1.4,3.8c0,0,0,0,0-0.1c0.6,1.4,2.5,3.8,4.2,3.5c13.6-2.5,28.7-19.3,43.2-28.6 C90.1,433.1,86.4,430.8,84.7,428.5z" fill="#f66125"/></g><g id="change4_2"><path d="M98.1,396.3c-6.5,3.3-12.8,7.9-18,13.2c-2.6,2.9-5.2,5.8-7.3,9.1c-0.3,0.5-0.8,1.2-0.3,1.7 c0.4,0.5,1.3,0.5,1.6-0.1c5.6-9.3,14.8-15.9,24.6-21.1C100.1,398.5,99.7,396.3,98.1,396.3z" fill="#f66125"/></g><g id="change4_3"><path d="M92.1,391.4c-8.2,3.2-14.6,9.8-20.2,16.5c-1.1,1.8-4.9,6.1-4.3,8.1c0.4,0.5,1.3,0.5,1.6-0.1 c5.7-9,13.4-17.5,23.6-21.7C94.1,393.5,93.6,391.4,92.1,391.4z" fill="#f66125"/></g><g id="change4_4"><path d="M115.2,417.8c-4.5,6.1-10.7,13.5-17.3,17.9c-2.6,1.9-5.5,3.3-8.3,4.8c-0.5,0.6,0.3,1.5,1,1.1 c8.6-3.4,15.8-9.3,21.8-16.3c1.5-1.9,5.7-5.7,5.7-7.9C117.2,415.6,115.6,416.8,115.2,417.8z" fill="#f66125"/></g><g id="change4_5"><path d="M117.9,425.9c-4.7,6.8-11.5,13.1-19.3,17.4c-1.4,0.8-1.9,0.9-3.6,1.5c-0.8,0.6-0.1,1.9,0.8,1.6 c6.6-1.7,12.2-6.4,17.2-10.9c3.5-3.4,6.2-7,8.9-10.6c0.4-0.5,0.8-1.1,0.6-1.8C120.9,420.1,119,424.4,117.9,425.9z" fill="#f66125"/></g></g></g></svg>