<?xml version="1.0" encoding="UTF-8" standalone="no"?><svg xmlns="http://www.w3.org/2000/svg" xmlns:xlink="http://www.w3.org/1999/xlink" fill="#000000" height="502.8" preserveAspectRatio="xMidYMid meet" version="1" viewBox="-1.3 -0.2 256.3 502.8" width="256.3" zoomAndPan="magnify"><g><g id="change1_2"><path d="M121.4,278.2c-8.3,17.7-5.2,41.6-15.7,79.2C92.2,406,65.9,467.9,65.9,467.9s12,5,16.4,9.8 c1,1.1,1.9,3.1,0.6,3.9c-0.4,0.3-1,0.3-1.5,0.3c-25.9,0.2-51.7-0.6-77.6-2.3c2-4.9,30.8-84.5,43.2-141.7c9-41.5,2.5-64.4,4.7-71.4 L121.4,278.2z" fill="#ff8533"/></g><g id="change2_1"><path d="M65.9,467.9c0,0,13.7-29,26.8-66.9c-7.5-0.5-15-1.3-22.5-2.3c-8.9-1.2-17.8-2.8-26.6-4.2 c-3.5-0.6-8.1-1-11.5-1.8c-12.5,43.7-26.7,83.1-28.2,86.8c25.8,1.7,51.7,2.5,77.6,2.3c0.5,0,1.1,0,1.5-0.3 c1.3-0.8,0.4-2.8-0.6-3.9C77.9,472.9,65.9,467.9,65.9,467.9z" fill="#ffbe4f"/></g><g id="change1_5"><path d="M197.7,262.3c12.5,17.7,25.1,53.5,29.9,69.4c1.2,3.8,1.4,7.9,0.6,11.8l-21.7,124c0,0,12,5,16.4,9.8 c1,1.1,1.9,3.1,0.6,3.9c-0.4,0.3-1,0.3-1.5,0.3c-25.9,0.2-51.7-0.6-77.6-2.3c1.6-3.8,19.1-104.2,23.9-129.6 c0.8-4.2,0.2-8.4-1.6-12.2l-33.2-61.8L197.7,262.3z" fill="#ff8533"/></g><g id="change2_9"><path d="M206.5,467.5l13.9-73c-0.7,0.1-1.3,0.1-2,0.1c-10,0.8-20,1.9-30,3c-9.5,1-19,2-28.6,2.8 c-6.1,32.9-14.1,75.9-15.3,78.6c25.8,1.7,51.7,2.5,77.6,2.3c0.5,0,1.1,0,1.5-0.3c1.3-0.8,0.4-2.8-0.6-3.9 C218.5,472.5,206.5,467.5,206.5,467.5z" fill="#ffbe4f"/></g><g fill="#253f6b" id="change3_1"><path d="M6.2,470.8C0,468.5,1.3,489,0,495.8c-1.3,6.8,76.1,3.4,84.2,3s5.4-17.8,0-17.4s-30.2,0-42.1,0 S12.4,473.1,6.2,470.8z"/><path d="M69.8,484.1l7.9-10.1c0,0-3.5-7.7-11.8-6.1c-8.3,1.5-23.8,13.5-23.8,13.5L69.8,484.1z"/><path d="M42.1,481.4c0,0-31.6-20.5-33.3-22c-1.7-1.5-0.8-12,2.2-10.1c3,1.9,43.3,27.4,43.3,27.4L42.1,481.4z"/></g><g fill="#253f6b" id="change3_12"><path d="M145,469.1c-6.2-2.3-4.9,18.2-6.2,25c-1.3,6.8,76.1,3.4,84.2,3c8-0.4,5.4-17.8,0-17.4c-5.4,0.4-30.2,0-42.1,0 S151.2,471.4,145,469.1z"/><path d="M208.6,482.4l7.9-10.1c0,0-3.5-7.7-11.8-6.1c-8.3,1.5-23.8,13.5-23.8,13.5L208.6,482.4z"/><path d="M181,479.8c0,0-31.6-20.5-33.3-22c-1.7-1.5-0.8-12,2.2-10.1c3,1.9,43.3,27.4,43.3,27.4L181,479.8z"/></g><g id="change3_2"><path d="M186.7,233.3c-5.9-9.5-13.4-19.4-16.9-28.9c-3.8-12.6-0.9-10.1-14.1-8.7c-8.7,0.8-17.2,3.2-25.7,4.8 c-11,2-21,3.3-32.6,3.7c-3.5,0.1-6.9,0.1-10.4-0.1c-3.2-0.2-6.4-0.5-9.2-1.1c-2-0.3-4-1.9-6-0.9c-6.8,7.1-10.5,15.6-14.5,25.8 c-3.6,9.9-8.1,19.6-11.2,29.7c-1.9,6.7-3.9,13.3-5.9,19.9c3.4,1,13,3.6,16.5,4.1c10.8,1.8,21.5,4.8,32.3,6.4 c2.8,0.4,5.6,0.6,8.4,1.1c2.5,0.4,5,0.9,7.5,1.4c5.5,1.1,10.8,1.7,16.4,1.8c0-0.1,0-0.2,0.1-0.3c0.6-3.9,1.5-10.3,2.4-14.2 c1.5,4.3,2.9,8.5,4.3,12.8c2.1,2.1,6.2,1.6,8.9,1.2c3.3-0.4,6.5-1.2,9.6-2.2c11.7-3.5,23-8.2,34.2-12.8c8.6-3.5,17.2-7,25.8-10.3 C200,255.4,193.9,244,186.7,233.3z" fill="#253f6b"/></g><g id="change1_3"><path d="M237,215.8c3,1.8,6.3,3.1,9.4,4.8c3.1,1.6,6.2,3.6,8.3,6.4c0.2,0.2,0.3,0.5,0.3,0.8c0,0.4-0.4,0.7-0.8,1 c-2.8,1.6-6.6,1-8.8-1.3c2,1.5,3.2,4.1,4.7,6.1c1,1.4,1.9,3.3,0.8,4.6c-0.6,0.8-1.8,1-2.7,0.7c-1-0.2-1.8-0.8-2.7-1.3 c0.9,1.2,1.5,2.7,1.2,4.1c-0.3,1.4-1.7,2.7-3.2,2.4c-1.1-0.2-3.1-1.1-3.1-1.1s0.6,2,0.7,3c0.1,1-0.2,2.2-1.1,2.7 c-0.5,0.3-1.1,0.3-1.6,0.3c-1.9-0.1-3.7-1.1-4.9-2.6c0.7,1.4,0.9,3.2,0.4,4.7c-0.2,0.5-0.4,0.9-0.8,1.2c-0.6,0.3-1.4,0-2-0.4 c-6.2-3.6-10.4-9.9-13.9-16.2L237,215.8z" fill="#ff8533"/></g><g id="change3_3"><path d="M153.8,33c-0.4-6.5-2.5-13.7-6.2-20.2c-2.1-3.5-4.5-7-7.9-9.2c-2.9-1.8-6.1-3.3-9.6-3.6 c-2.5-0.2-4.9,0.3-7.3,1c-1.8,0.3-3.5,0.6-5.2,1c-13.2,2.8-26.3,9.4-34.3,20.6C74.2,35,74,50.5,69.2,64.6 c-2.8,7.6-7.4,15.2-13.4,21.4c-3.1,3.3-6.4,6.3-9.8,9.3c-1,1-2.4,1.8-2.9,3.2c-0.2,2.5,3.2,3.2,5,3.9c3.2,1,6.5,1.9,9.7,2.9 c13.8,4.2,27.6,8.5,42.1,9.7c8.6,0.4,17.2,0,25.8-0.8c2.4-0.4,5.6,0,7-2.4c5.3-11.8,9.5-27.2,13.2-40.7c2.4-7.3,4.8-14.5,6.2-22.1 C153.3,43.7,154.4,38.4,153.8,33z" fill="#253f6b"/></g><g><g id="change4_1"><path d="M40.4,222.4C40.4,222.3,40.4,222.3,40.4,222.4L40.4,222.4z" fill="#ffbe4f"/></g><g id="change4_2"><path d="M34.9,247.1C34.9,247.1,35,247.1,34.9,247.1C35,247.2,35,247.2,34.9,247.1C34.9,247.1,34.9,247.1,34.9,247.1z" fill="#ffbe4f"/></g><g id="change4_3"><path d="M35,247.1C35,247.2,35,247.1,35,247.1C35.1,247.2,35.1,247.3,35,247.1z" fill="#ffbe4f"/></g><g id="change1_1"><path d="M39.1,226.2c-1.4-1.9-4-2.5-6.2-3c-5-0.8-10.2-0.9-15.3-0.9c-0.9,0-1.9,0.1-2.8,0.4 c-1.2,0.5-2.1,1.4-2.7,2.5c-0.6-0.1-1.2,0.2-1.4,0.9C8,236.5,3.8,246.7,2,257.3c-0.4,2.5,0.3,5.9,3.1,6.7c1.2,0.2,2.3-0.4,3.3-1.1 c0.5,2.3,1.9,4.8,4.5,3.3c0.4-0.2,0.7-0.4,1-0.6c0.1,0.3,0.2,0.6,0.3,0.7c0.3,0.7,0.8,1.3,1.5,1.6c1.3,0.7,2.9,0.1,3.9-0.9 c0,0,0.1,0,0.1-0.1c0.5,1.8,1.8,3.6,3.8,2.3c0.8-0.5,1.3-1.3,1.7-2.1c2.1-4,4.3-10,5.5-13.2c0.6,0.8,1.3,1.6,2.2,2 c-0.1-0.1-0.7-0.4-0.3-0.1c0.8,0.7,2,1.3,3,0.7c1-0.7,1.2-2,1.6-3.1c1.2-7.4,1.1-15.4,2.2-23.7c0-0.1,0-0.2,0-0.2c0,0,0,0.1,0,0.1 C39.7,228.5,39.7,227.2,39.1,226.2z" fill="#ff8533"/></g></g><g id="change1_4"><path d="M148.4,39.5c-0.7-6.1-2.2-12.2-5.3-17.6c-2.5-4.6-6-8.8-11.2-10.3c-12.9-4.3-25.4,1.9-31.3,13.8 c-2.4,5.3-3.2,11.2-3.9,16.9c-1,9-1.8,14.8-0.1,19.4c4.3,11.5,21.1,15.6,32,15.1c11.2-0.8,15.9-9.2,18.5-15.4 C150,54.2,149.2,45.9,148.4,39.5z" fill="#ff8533"/></g><g id="change3_4"><path d="M140.9,9.6c-0.2-1-1.7-1.2-2.2-0.3c0,0,0,0,0,0.1c-1.9-1.2-6.9-2.2-10.2-1.9c-6.3,0-12.7,1.1-18.6,5 c-4.2,2.7-8,6.3-11.4,10.8c-3.3,4.7-5.7,10-7.7,15.3c0.1-0.5-0.5,1.4-0.8,1.8c-0.4,0.8-0.8,1.9,0,2.6c0.7,0.7,1.8,0.2,2.6,0 c1-0.3,3.9-1.1,5.8-1.6c7.9-1.8,15.1-5.6,21.8-10c6.2-4,12.2-8.6,16.6-14.7c1.5-1.9,2.5-4.1,3.9-6.1C141,10.2,141,9.9,140.9,9.6z" fill="#253f6b"/></g><g id="change5_1"><path d="M239.2,209.9c-7.4-14.2-13.2-27.2-18.9-41.7c-13-28.6-21.6-62.6-46.8-85.9c-2-1.7-23.3-13-25.5-14.4 c0.5-0.8,0.1-2-0.9-2.2c-1.6-0.1-1.9,0-2.5,0.6c-23.7,21.9-38.7,0.7-46.3,0.6c-0.9,0-1.3,0.8-1.2,1.5 c-16.3,5.2-38.6,25.5-45.4,34.3c-5.9,7.1-11.8,14.2-16,22.5c-11.1,22.1-15.5,46.7-23.1,70.1C9.1,207.1,6.1,219,3.4,231 c-0.1,0.3,0,0.7,0.2,0.9c0,0.2,0.1,0.4,0.2,0.5c3.2,4.5,8.9,6.1,13.8,8.1c8.6,2.7,17.2,5.7,25.9,8c2.5,0.1,3.2-2.9,4.1-4.7 c2.6-6.2,4.8-12.6,6.6-19.1c4.5-17.7,8.3-35.5,12.1-53.3c0.5-2.4,0.9-4.8,1.4-7.2c0.1,7.9,0.5,15.7,1,23.6 c0.6,4.3-0.4,9.6,3.1,12.9c4.1,3.7,10,4,15.2,4.7c15.4,1.5,30.9-0.5,46.2-1.8c10-1.2,20-2.2,30-3.5c1.3-0.3,2.6-0.7,3.5-1.7 c4.5-7.7,4.5-15.4,5.5-23.5c0.5-6.3,0.9-13.5,0.9-20.3c6.8,15.3,13,30.8,20.5,45.8c3.9,8,8.3,15.8,12.6,23.5 c2.6,5.1,5.1,10.4,7.6,15c-0.4,0.6-0.4,1.5,0.2,2c0.4,0.4,0.9,0.5,1.3,0.4c0.9,0.5,2.2-0.2,2.1-1.3c0,0,0,0,0,0 c1.1-0.8,2.2-1.5,3.2-2.3c4.9-3.6,9.7-7.3,13.8-11.8c2.6-3.1,5-6.7,6.1-10.7C240.9,213.3,240,211.5,239.2,209.9z" fill="#ed1c24"/></g><g id="change2_2"><path d="M80.7,148.2c15.4,3.1,31.1,3.6,46.8,2.5c15.2-1,30.4-3.7,44.9-8.3c11-3.5,21.5-8,31.5-13.5 c-3.1-7.2-6.5-14.3-10.5-21.1c-0.5,0.3-1.1,0.6-1.6,0.9c-13,7.3-27,13-41.4,16.8c-13.4,3.5-27.4,5.6-41.2,4.8 c-12.9-0.7-25.9-3-38.2-7c-9.1-2.9-18.3-6.7-26-12.3c-3.4,4.4-6.6,9.1-9.2,14.1c-0.8,1.6-1.6,3.2-2.3,4.9 C47.7,139.1,64.2,144.9,80.7,148.2z" fill="#ffbe4f"/></g><g id="change2_3"><path d="M62.2,189.8c1.3-6.1,2.7-12.3,4-18.4c0.1-0.5,0.2-0.9,0.3-1.4c-2.7-0.4-5.3-0.9-8-1.5c-12-2.7-23.9-7-34.1-14 c-2.4,8-4.6,16-6.8,24.1C32.1,183.9,47,187.6,62.2,189.8z" fill="#ffbe4f"/></g><g id="change2_4"><path d="M50.2,211.4c-4.6-1.5-9.1-3.3-13.6-5.1c-8.1-3.4-16-7-24.4-9.6C10,204.4,7.9,212.2,6,220 c0.4,0.1,0.8,0.3,1.2,0.4c5.6,2,11,4.5,16.5,6.8c5.8,2.5,11.5,4.8,17.5,6.7c3,1,6.1,1.9,9.1,2.7c1.4-3.9,2.8-7.9,3.9-12 c1-3.8,1.9-7.6,2.8-11.4C54.6,212.8,52.4,212.2,50.2,211.4z" fill="#ffbe4f"/></g><g id="change2_5"><path d="M202.8,218c2.7-1,5.3-2.2,7.8-3.6c8.2-4.3,15.9-9.5,23.3-15c-2.8-5.8-5.5-11.6-8-17.4 c-10.8,6.2-21.7,12.2-32.6,18.1c0,0.1,0.1,0.1,0.1,0.2C196.4,206.3,199.6,212.2,202.8,218z" fill="#ffbe4f"/></g><g id="change2_6"><path d="M186.4,179.4c11.3-3.4,22.5-7.5,33.4-12.2c-3.1-7-6.1-14.3-9-21.7c-7.3,3-14.7,5.8-22.1,8.6 c-4.5,1.7-9.1,3.5-13.6,5.1c3,6.9,6,13.9,9,20.8C184.9,179.8,185.7,179.6,186.4,179.4z" fill="#ffbe4f"/></g><g id="change2_7"><path d="M68.8,190.7c1.1,0.1,2.2,0.3,3.3,0.4c19.2,2,38.5,1.8,57.7-0.2c13.9-1.5,27.7-4,41.2-7.3 c0.4-2.9,0.6-5.8,1-8.8c0.4-4.6,0.7-9.7,0.9-14.8c-3.6,1.3-7.3,2.6-11,3.7c-9.2,2.9-18.5,5.2-28,6.8c-9.3,1.5-18.6,2.1-28,2.2 c-12.7,0.1-25.5-0.4-38.1-2.4c0.2,5.9,0.4,11.7,0.8,17.6C68.7,188.7,68.8,189.7,68.8,190.7z" fill="#ffbe4f"/></g><g id="change2_8"><path d="M89.9,100.9c20.4,6.6,42.5,5.4,62.3-2.5c8.7-3.5,16.6-8.1,24.3-13.2c-1-1-1.9-2-3-2.9 c-1.4-1.2-12.7-7.3-19.8-11.2c-9.6,8.3-21.6,14.1-34.2,15c-12.6,0.9-24.7-3.7-33.3-12.6c-6.6,3.8-13.3,8.9-19.2,14 C73.2,93.8,81.4,98.2,89.9,100.9z" fill="#ffbe4f"/></g><g id="change3_5"><path d="M249.1,232.6c-0.4-1.9-1.6-3.7-2.8-5.2c-0.8-1.1-2.1-2.5-3.6-1.8c-1.5,0.7-1.1,2.7-1,4 c0.2,2.2,0.6,4.4,1.2,6.5c0.5-0.2,1.1-0.5,1.6-0.7c-0.9-1.6-1.9-3.1-3.1-4.5c-1-1.1-2.3-2.6-4-1.7c-1.6,0.9-1.7,2.7-1.3,4.3 c0.6,2.2,1.3,4.3,2,6.4c0.6-0.3,1.3-0.5,1.9-0.8c-1.1-2-2.8-4.6-4.9-5.6c-1.9-0.9-3.7,0.6-3.8,2.5c-0.1,1.4,0.2,2.9,0.4,4.3 c0.2,1.6,0.4,3.3,0.9,4.8c0.6-0.3,1.3-0.5,1.9-0.8c-1-1.9-3.5-6.6-6.3-5.1c-1.9,1-1.9,3.6-1.6,5.4c0.2,1,0.4,2,0.8,3 c0.1,0.4,0.3,0.8,0.5,1.1c0.1,0.1,0.4,0.7,0.2,0.4c0.5,1.1,2.1,0.1,1.6-0.9c0.1,0.2,0,0.1,0-0.1c-0.1-0.2-0.1-0.5-0.2-0.7 c-0.3-0.7-0.5-1.4-0.7-2.2c-0.2-0.8-0.3-1.6-0.3-2.5c0-0.4,0.1-1.5,0.6-1.7c0.7-0.3,1.9,1.5,2.2,2c0.5,0.7,1,1.5,1.4,2.3 c0.5,1,2.2,0.3,1.9-0.8c-0.7-2.2-1-4.8-1.2-7.1c-0.1-0.7-0.3-2.9,1.1-1.9c1.6,1.1,2.8,2.9,3.7,4.6c0.6,1,2.3,0.3,1.9-0.8 c-0.4-1.4-0.9-2.8-1.3-4.2c-0.3-0.8-1.4-3.3-0.6-4c1.1-0.9,4.2,4.3,4.7,5.1c0.5,0.9,1.9,0.3,1.6-0.7c-0.4-1.4-0.7-2.8-1-4.2 c-0.1-0.8-0.3-1.5-0.4-2.3c-0.1-0.4-0.3-1.3-0.1-1.8c0.5-1.2,2.6,1.7,2.9,2.1c0.8,1.1,1.5,2.3,2.3,3.4 C248.7,233.1,249.2,233,249.1,232.6L249.1,232.6z" fill="#253f6b"/></g><g id="change3_6"><path d="M137.4,43.3C137.4,43.3,137.4,43.3,137.4,43.3c0,0,0-0.1-0.1-0.2C137.3,43.1,137.3,43.2,137.4,43.3 c0-0.1-0.1-0.2-0.1-0.3C137.3,43.1,137.3,43.1,137.4,43.3c-0.1-0.1,0-0.3,0-0.4c0,0.1,0,0.2-0.1,0.3c0-0.1,0.1-0.2,0.1-0.3 c0,0.1-0.1,0.2-0.2,0.3c0.1-0.1,0.1-0.2,0.2-0.3c-0.1,0.1-0.1,0.2-0.2,0.2c0.1-0.1,0.2-0.1,0.3-0.2c-0.1,0.1-0.2,0.1-0.2,0.1 c0.1,0,0.2-0.1,0.3-0.1c-0.1,0-0.2,0.1-0.2,0.1c0.1,0,0.2,0,0.3,0c-0.1,0-0.1,0-0.2,0c0.1,0,0.2,0,0.3,0c0,0-0.1,0-0.1,0 c0.1,0,0.2,0.1,0.3,0.1c0,0-0.1,0-0.1,0c0.1,0.1,0.2,0.1,0.3,0.2c0,0,0,0-0.1-0.1c0.1,0.1,0.1,0.2,0.2,0.3c0,0,0-0.1-0.1-0.1 c0,0.1,0.1,0.2,0.1,0.3c0-0.1,0-0.1,0-0.2c0,0.1,0,0.2,0,0.3c0-0.2,0-0.4,0-0.6c0,0.1,0,0.2,0,0.3c0-0.2,0.1-0.3,0.1-0.5 c0,0.1-0.1,0.2-0.1,0.3c0-0.1,0.1-0.2,0.2-0.3c-0.1,0.1-0.1,0.2-0.2,0.3c0.1-0.1,0.1-0.1,0.2-0.2c-0.1,0.1-0.2,0.1-0.3,0.2 c0,0,0.1-0.1,0.2-0.1c-0.1,0-0.2,0.1-0.3,0.1c0.1,0,0.1,0,0.2-0.1c-0.1,0-0.2,0-0.3,0c0.1,0,0.2,0,0.2,0c-0.1,0-0.2,0-0.3,0 c0.1,0,0.2,0,0.2,0.1c-0.1,0-0.2-0.1-0.3-0.1c0.1,0,0.1,0.1,0.2,0.1c-0.1-0.1-0.2-0.1-0.3-0.2c0,0,0.1,0.1,0.1,0.1 c-0.1-0.1-0.1-0.2-0.2-0.3c0,0,0.1,0.1,0.1,0.1c0-0.1-0.1-0.2-0.1-0.3c0,0,0,0.1,0,0.1c0-0.1,0-0.2,0-0.3c0,0,0,0.1,0,0.1 c0,0.3,0.1,0.7,0.4,0.9c0.2,0.2,0.6,0.4,0.9,0.4c0.3,0,0.7-0.1,0.9-0.4c0.2-0.3,0.4-0.6,0.4-0.9c0,0,0,0,0-0.1c0-0.1,0-0.3-0.1-0.4 c0-0.1-0.1-0.3-0.2-0.4c-0.1-0.2-0.2-0.3-0.4-0.4c-0.3-0.2-0.5-0.3-0.8-0.4c0,0-0.1,0-0.1,0c-0.2,0-0.3-0.1-0.5-0.1 c0,0-0.1,0-0.1,0c-0.2,0-0.3,0-0.5,0.1c-0.3,0.1-0.5,0.2-0.8,0.4c-0.2,0.1-0.3,0.3-0.4,0.5c-0.1,0.2-0.2,0.4-0.3,0.6 c0,0.1-0.1,0.2-0.1,0.4c0,0.2-0.1,0.5-0.1,0.7c0,0.1,0,0.1,0,0.2c0,0.2,0,0.3,0.1,0.5c0,0.1,0.1,0.3,0.2,0.4c0,0,0,0,0,0.1 c0.1,0.2,0.3,0.4,0.6,0.6c0.1,0.1,0.2,0.1,0.4,0.2c0,0,0.1,0,0.1,0c0.2,0,0.3,0.1,0.5,0c0.2,0,0.3,0,0.5-0.1c0.2,0,0.3-0.1,0.4-0.2 c0.2-0.1,0.3-0.2,0.5-0.3c0.1-0.1,0.2-0.1,0.2-0.2c0.1-0.1,0.2-0.3,0.3-0.4c0.1-0.1,0.1-0.2,0.1-0.3c0.1-0.2,0.1-0.3,0.2-0.5 c0-0.2,0.1-0.3,0.1-0.5c0-0.2,0-0.3-0.1-0.5c0-0.1,0-0.1,0-0.2c-0.1-0.2-0.1-0.3-0.2-0.5c-0.1-0.3-0.5-0.5-0.8-0.6 c-0.2-0.1-0.3-0.1-0.5,0c-0.2,0-0.3,0.1-0.5,0.2c-0.3,0.2-0.5,0.4-0.6,0.8C137.2,42.6,137.2,43,137.4,43.3L137.4,43.3z" fill="#253f6b"/></g><g id="change3_7"><path d="M132,59.2c-3.6,0.7-7.4-0.3-10.2-2.6c-0.5-0.5-1.3-0.5-1.8,0c-0.5,0.5-0.5,1.4,0,1.8c3.5,3,8.2,4.2,12.7,3.3 c0.7-0.1,1.1-0.9,0.9-1.6C133.4,59.4,132.7,59.1,132,59.2L132,59.2z" fill="#253f6b"/></g><g id="change3_8"><path d="M141.7,36.3c-1.6-0.8-3.6-1-5.3-0.3c-0.3,0.1-0.6,0.3-0.8,0.6c-0.2,0.3-0.2,0.7-0.1,1c0.1,0.3,0.3,0.6,0.6,0.8 c0.3,0.2,0.7,0.3,1,0.1c0.4-0.2,0.8-0.3,1.2-0.3c-0.1,0-0.2,0-0.3,0c0.5-0.1,0.9-0.1,1.4,0c-0.1,0-0.2,0-0.3,0 c0.5,0.1,0.9,0.2,1.3,0.3c-0.1,0-0.2-0.1-0.3-0.1c0.1,0.1,0.3,0.1,0.4,0.2c0.6,0.3,1.4,0.2,1.8-0.5 C142.5,37.5,142.3,36.7,141.7,36.3L141.7,36.3z" fill="#253f6b"/></g><g id="change3_9"><path d="M118.6,42c-0.1,0.1-0.1,0.3-0.2,0.4c0,0.1,0,0.1,0,0.2c0,0.2-0.1,0.4-0.1,0.6c0,0.2,0,0.4,0.1,0.6 c0.1,0.2,0.1,0.4,0.3,0.6c0.2,0.4,0.5,0.7,0.9,0.9c0,0,0.1,0.1,0.1,0.1c0.1,0.1,0.3,0.1,0.4,0.2c0.2,0,0.3,0.1,0.5,0.1 c0.1,0,0.2,0,0.4,0c0.1,0,0.2,0,0.3,0c0.1,0,0.3-0.1,0.4-0.2c0.2-0.1,0.4-0.3,0.6-0.6c0,0,0,0,0-0.1c0.1-0.1,0.1-0.2,0.2-0.4 c0-0.2,0.1-0.3,0.1-0.5c0-0.1,0-0.2,0-0.4c0-0.2,0-0.5-0.1-0.7c-0.1-0.2-0.1-0.4-0.2-0.6c-0.1-0.2-0.2-0.4-0.4-0.5 c0,0-0.1-0.1-0.1-0.1c-0.1-0.1-0.2-0.2-0.4-0.3c-0.3-0.2-0.5-0.2-0.9-0.2c-0.1,0-0.1,0-0.2,0c-0.2,0-0.3,0-0.5,0.1 c-0.1,0-0.1,0-0.2,0c-0.1,0.1-0.3,0.1-0.4,0.2c-0.3,0.2-0.5,0.4-0.6,0.6c0,0,0,0,0,0.1c-0.1,0.1-0.1,0.2-0.1,0.4c0,0.1,0,0.2,0,0.2 c0,0.1,0,0.2,0,0.3c0,0.3,0.1,0.7,0.4,0.9c0.2,0.2,0.6,0.4,0.9,0.4c0.3,0,0.7-0.1,0.9-0.4c0.2-0.3,0.4-0.6,0.4-0.9c0,0,0-0.1,0-0.1 c0,0.1,0,0.2,0,0.3c0,0,0-0.1,0-0.1c0,0.1-0.1,0.2-0.1,0.3c0,0,0-0.1,0.1-0.1c-0.1,0.1-0.1,0.2-0.2,0.3c0,0,0.1-0.1,0.1-0.1 c-0.1,0.1-0.2,0.1-0.3,0.2c0.1,0,0.1-0.1,0.2-0.1c-0.1,0-0.2,0.1-0.3,0.1c0.1,0,0.1,0,0.2-0.1c-0.1,0-0.2,0-0.3,0 c0.1,0,0.2,0,0.2,0c-0.1,0-0.2,0-0.3,0c0.1,0,0.1,0,0.2,0.1c-0.1,0-0.2-0.1-0.3-0.1c0.1,0,0.1,0.1,0.2,0.1 c-0.1-0.1-0.2-0.1-0.3-0.2c0.1,0.1,0.1,0.1,0.2,0.2c-0.1-0.1-0.1-0.2-0.2-0.3c0.1,0.1,0.1,0.2,0.2,0.3c0-0.1-0.1-0.2-0.1-0.3 c0.1,0.2,0.1,0.3,0.1,0.5c0-0.1,0-0.2,0-0.3c0,0.2,0,0.4,0,0.6c0-0.1,0-0.2,0-0.3c0,0.1,0,0.1,0,0.2c0-0.1,0.1-0.2,0.1-0.3 c0,0,0,0.1-0.1,0.1c0.1-0.1,0.1-0.2,0.2-0.3c0,0,0,0-0.1,0.1c0.1-0.1,0.2-0.1,0.3-0.2c0,0,0,0-0.1,0c0.1,0,0.2-0.1,0.3-0.1 c0,0-0.1,0-0.1,0c0.1,0,0.2,0,0.3,0c-0.1,0-0.1,0-0.2,0c0.1,0,0.2,0,0.3,0c-0.1,0-0.2,0-0.2-0.1c0.1,0,0.2,0.1,0.3,0.1 c-0.1,0-0.2-0.1-0.2-0.1c0.1,0.1,0.2,0.1,0.3,0.2c-0.1-0.1-0.2-0.1-0.2-0.2c0.1,0.1,0.1,0.2,0.2,0.3c-0.1-0.1-0.1-0.2-0.2-0.3 c0,0.1,0.1,0.2,0.1,0.3c0-0.1-0.1-0.2-0.1-0.3c0,0.1,0,0.2,0,0.3c0-0.1,0-0.2,0-0.3c0,0.1,0,0.2,0,0.3c0-0.1,0-0.2,0.1-0.2 c0,0.1-0.1,0.2-0.1,0.3c0,0,0-0.1,0-0.1c0.2-0.3,0.2-0.7,0.1-1c-0.1-0.3-0.3-0.6-0.6-0.8c-0.3-0.2-0.7-0.2-1-0.1 C119.1,41.5,118.8,41.7,118.6,42L118.6,42z" fill="#253f6b"/></g><g id="change3_10"><path d="M117.8,38.6c0.1-0.1,0.3-0.1,0.4-0.2C118.1,38.4,118,38.5,117.8,38.6c0.5-0.2,0.9-0.3,1.4-0.4 c-0.1,0-0.2,0-0.3,0c0.5-0.1,0.9-0.1,1.4,0c-0.1,0-0.2,0-0.3,0c0.4,0.1,0.8,0.2,1.2,0.3c0.3,0.1,0.7,0,1-0.1 c0.3-0.2,0.5-0.5,0.6-0.8c0.1-0.3,0.1-0.7-0.1-1c-0.2-0.3-0.4-0.5-0.8-0.6c-1.7-0.7-3.7-0.5-5.3,0.3c-0.6,0.3-0.8,1.2-0.5,1.8 C116.5,38.7,117.2,38.9,117.8,38.6L117.8,38.6z" fill="#253f6b"/></g><g id="change3_11"><path d="M130.5,44.7c0,2.1,0.5,4.1,2.3,5.4c0.4,0.3,0.5,0.3,0.7,0.7c0.1,0.1,0.1,0.2,0.2,0.5c0,0.1,0.1,0.3,0.1,0.4 c0.1,0.3,0-0.3,0.1-0.4c-0.1,0-0.2,0.2-0.3,0.3c0,0-0.2,0.1-0.1,0.1c-0.2,0.2-0.4,0.3-0.7,0.4c-0.4,0.2-0.7,0.3-1.2,0.4 c-0.7,0.1-1.1,1-0.9,1.6c0.2,0.7,0.9,1,1.6,0.9c1.2-0.2,2.3-0.8,3.2-1.6c0.6-0.6,0.9-1.3,0.8-2.1c-0.1-0.6-0.4-1.2-0.7-1.7 c-0.3-0.6-0.8-1-1.3-1.4c-0.3-0.2-0.3-0.2-0.5-0.4c0,0-0.2-0.3-0.1-0.1c-0.1-0.1-0.1-0.2-0.2-0.3c0,0-0.2-0.3-0.1-0.2 c0,0.1-0.1-0.2-0.1-0.3c-0.1-0.2-0.1-0.5-0.2-0.7c0,0-0.1-0.4,0-0.2c0-0.1,0-0.3,0-0.4c0-0.3,0-0.5,0-0.8c0-0.7-0.6-1.3-1.3-1.3 C131.1,43.4,130.5,44,130.5,44.7L130.5,44.7z" fill="#253f6b"/></g></g></svg>