<?xml version="1.0" encoding="UTF-8" standalone="no"?><svg xmlns="http://www.w3.org/2000/svg" xmlns:xlink="http://www.w3.org/1999/xlink" fill="#000000" height="475.2" preserveAspectRatio="xMidYMid meet" version="1" viewBox="-118.9 -38.0 697.7 475.2" width="697.7" zoomAndPan="magnify"><g><g id="change1_1"><path d="M64.8,300.9 M487.9,139.2C398.6-38-118.9,17.2,25.2,275.4C133,437.2,578.8,383.7,487.9,139.2z" fill="#ffbe4f"/></g><g id="change2_1"><path d="M11.6,238.5c33.5,68.3,105.2,102.8,177.7,112.7c37.2,5.1,75,4.4,112.1-0.7c38.8-5.4,77.3-15.7,111.8-34.6 c38.9-21.4,78.4-57.4,85.3-103.5c0.6-3.8-4.5-5.2-5.8-1.5c-6.9,19.5-15,37.8-28.2,54c-12.6,15.5-27.6,28.3-44.7,38.6 c-33.1,20.1-70.9,31.3-108.9,37.6c-69.6,11.5-147.2,8.1-211.4-23.7C63.7,299.6,34,272,15.9,236.1C14.4,233.2,10.2,235.7,11.6,238.5 L11.6,238.5z" fill="#f66125"/></g><g id="change2_2"><path d="M95.2,271.6 M452.9,135C377.4-14.8-60.1,31.8,61.7,250.1C152.9,386.9,529.7,341.6,452.9,135z" fill="#f66125"/></g><g id="change3_1"><path d="M28.4,202.1c-1.6-13.4-1.8-26.8-1.9-40.3C26.4,151.6,26,141,28.2,131c2-9.2,7.4-14.9,16.4-17.9 c9.3-3,19.4-4,29.1-5c26.1-2.6,52.5-1.6,78.7-1.6c13.6,0,27.2,0.1,40.8,0.8c4.5,0.2,9.3-0.1,13.7,0.6c5.3,0.8,7.3,4.4,9.3,9 c4.7,11,4.5,23.4,4.9,35.1c0.2,6.8,0.7,13.6,1.1,20.4c0.4,7.6,1.5,15.7,0.5,23.2c-1.3,9.6,12.9,9.6,11.5,0 c-1-7.3-0.5-14.9-0.7-22.2c-0.2-6.9-0.5-13.7-0.5-20.6c0-11.8,0.1-24.2-3.6-35.6c-3.8-11.7-10.1-20.2-22.9-21.4 c-13.3-1.2-27-1.1-40.4-1.2c-29.4-0.3-59.1-1.3-88.4,0.4c-19.7,1.1-47.9,1.9-57.6,22.8c-5.2,11.2-5.2,24.1-5.4,36.2 c-0.2,16.6,0,33,2.1,49.5C17.5,210.2,29.2,208.8,28.4,202.1L28.4,202.1z" fill="#f75454"/></g><g id="change4_1"><path d="M248.2,151.3c-0.1-10.8-0.1-21.7-0.2-32.5c-0.1-7.6,0.3-15.3-0.8-22.8c-2.2-15.5-13.4-26.3-25.6-35 c-20.6-14.6-43.2-26.4-64.6-39.8C148,15.8,139,10.4,129.5,6c-6.9-3.2-17.6-8.6-25.2-4.6c-5.6,2.9-5.5,8.7-5.5,14.2 c0,9.4,0,18.9,0,28.3c0,9.3,0.8,20.8-0.7,29.1c-1.7,9.6,13.2,9.6,11.5,0c-1.1-6.1,0.3-15,0.6-22c0.3-6.3,0.6-12.6,0.7-18.9 c0.1-4,0.1-8,0.2-12c0-2.4,0-4.9,0-7.3c0-0.8,0.1-1.7,0-2.5c0.2,0.9-0.3,0.2,0,0.2c0.2,0-0.9,1.1-1.3,1.6c0.1-0.2-0.8-0.1,0.4-0.1 c-1.3,0,0.2,0,0.7,0.1c1,0.1,0.5,0,1.7,0.2c4,0.8,7.7,2.4,11.4,4.1c8.9,4.2,17.5,9.2,25.8,14.4c20,12.4,40.5,23.9,59.6,37.6 c6.7,4.8,13.6,9.9,19.2,16c0.5,0.6,1,1.2,1.5,1.8c0.9,1.1,0.2,0.2,0.6,0.8c0.8,1.1,1.5,2.3,2.2,3.5c0.3,0.6,0.6,1.1,0.9,1.7 c0.5,1-0.3-1,0.2,0.5c0.4,1.3,0.8,2.5,1.1,3.9c0.1,0.6,0.2,1.3,0.3,1.9c0.2,1.1,0,0.1,0-0.1c0,0.4,0.1,0.8,0.1,1.2 c0.1,1.6,0.2,3.1,0.3,4.7c0.1,4,0.1,8,0,12.1c-0.1,11.6,0.1,23.2,0.3,34.8C236.4,158.9,248.2,159,248.2,151.3L248.2,151.3z" fill="#202f5a"/></g><g id="change4_2"><path d="M268.2,152.9c0.1-9.9,0.2-19.9,0.2-29.8c-0.1-7.5-0.4-15.1,0.3-22.6c0-0.4,0.2-1.8,0.1-0.7 c0.1-0.6,0.2-1.3,0.3-1.9c0.3-1.3,0.6-2.6,1.1-3.9c0.5-1.3-0.2,0.4,0.2-0.6c0.3-0.6,0.6-1.2,0.9-1.8c0.6-1.2,1.4-2.4,2.2-3.5 c0,0,1.3-1.6,2.3-2.7c1.2-1.3,2.4-2.5,3.7-3.7c3.2-3,6.6-5.7,10-8.3c19.1-14.8,40.4-26.1,60.7-39c8-5.1,16.1-10,24.5-14.5 c4-2.1,8.2-4.2,12.5-5.8c3.1-1.2,6.8-1.8,8.3-2c0.3,0,0.2,0,0.2,0.1c-0.3-0.5-0.8-0.6-1.2-1.2c0.4,0.7-0.2-0.2-0.1-0.2 c0.2,0-0.1,0.2,0-0.4c-0.2,1.3,0,3.1,0,4.3c0,2.4,0,4.8,0.1,7.2c0.1,8.3,0.3,16.6,0.6,24.9c0.3,8.3,2.1,18.9,0.8,26.3 c-1.7,9.6,13.2,9.6,11.5,0c-1.2-6.8-0.6-16.3-0.7-24.1c0-7.4,0-14.8,0-22.1c0-5,0.2-10,0-15c-0.1-2.4-0.2-4.6-1.4-6.7 c-4.5-7.9-15.1-5-21.8-2.4c-10.1,3.8-19.6,9.2-28.9,14.8c-21.3,12.8-43,25.2-63.8,38.9C277,65.4,262.1,76.2,258,92.9 c-1.8,7.4-1.6,15.1-1.7,22.6c-0.1,12.4-0.1,24.9-0.1,37.3C256.3,160.5,268.1,160.6,268.2,152.9L268.2,152.9z" fill="#202f5a"/></g><g id="change3_2"><path d="M284.1,202.1c-1.6-13.4-1.8-26.8-1.9-40.3c-0.1-10.2-0.5-20.8,1.7-30.8c2-9.2,7.4-14.9,16.4-17.9 c9.3-3,19.4-4,29.1-5c26.1-2.6,52.5-1.6,78.7-1.6c13.6,0,27.2,0.1,40.8,0.8c4.5,0.2,9.3-0.1,13.7,0.6c5.3,0.8,7.3,4.4,9.3,9 c4.7,11,4.5,23.4,4.9,35.1c0.2,6.8,0.7,13.6,1.1,20.4c0.4,7.6,1.5,15.7,0.5,23.2c-1.3,9.6,12.9,9.6,11.5,0 c-1-7.3-0.5-14.9-0.7-22.2c-0.2-6.9-0.5-13.7-0.5-20.6c0-11.8,0.1-24.2-3.6-35.6c-3.8-11.7-10.1-20.2-22.9-21.4 c-13.3-1.2-27-1.1-40.4-1.2c-29.4-0.3-59.1-1.3-88.4,0.4c-19.7,1.1-47.9,1.9-57.6,22.8c-5.2,11.2-5.2,24.1-5.4,36.2 c-0.2,16.6,0,33,2.1,49.5C273.2,210.2,284.9,208.8,284.1,202.1L284.1,202.1z" fill="#f75454"/></g><g fill="#32ad62" id="change5_1"><path d="M83.9,288c-2.1-15.7-2.1-32-1.7-47.8c0-1.5,0.1-2.9,0.2-4.3c0-0.6,0.1-1.3,0.2-1.9c0-0.3,0.1-0.6,0.1-1 c0.2-1.6-0.2,1.2,0-0.4c0.2-1.2,0.4-2.4,0.7-3.6c0.1-0.6,0.3-1.2,0.5-1.8c0.1-0.4,0.9-2.5,0.3-1.2c2.5-6.1,5.6-9.2,10.8-13.7 c7.3-6.4,15.9-12,24.5-17.5c21.7-14,44.6-25.9,67-38.8c9.4-5.4,19-10.6,28.8-15.1c4.3-1.9,8.6-3.8,13.1-5.1 c1.6-0.5,4.2-1.1,5.3-1.2c-0.1,0,1.4-0.1,1.8-0.1c0.9,0,1.3,0.1,1.3,0.2c-0.3,0.8-1-2.3-0.9-0.7c-0.1-1.4-0.1-0.5-0.1-0.2 c0.1,1.9,0,3.9,0,5.8c0,2.9,0,5.9,0.1,8.8c0.1,8.7,0.4,17.3,0.7,26c0.4,9.1,2.1,20.4,0.9,28.6c-1.5,9.6,13,9.6,11.5,0 c-1.2-7.7-0.7-17.8-0.8-26.4c-0.1-8.3-0.1-16.6-0.1-24.9c0-5,0-10,0-14.9c0-3,0.1-5.9-1.3-8.6c-4.5-8.3-15.6-5.8-22.8-3.5 c-11.2,3.6-21.8,9-32.1,14.6c-7.9,4.3-15.5,8.9-23.3,13.3c-15.2,8.7-30.8,16.7-46,25.3c-16.9,9.6-38.1,20.6-47.3,38.7 c-3.3,6.4-4.7,13.4-5,20.6c-0.9,17.8-0.6,36.1,2,53.8C73.4,298.7,84.9,295.5,83.9,288L83.9,288z"/><path d="M432.1,291.1c2.4-16.9,2.5-34.1,2.1-51.1c-0.2-6.2-0.8-12.5-3-18.3c-6.7-17.7-24.3-28.7-39.8-38 c-23.5-14-47.8-26.8-71.6-40.2c-10.4-5.9-21-11.5-32.1-16c-7.3-3-18.3-7.7-26-3.3c-6.1,3.5-5.4,10.3-5.3,16.4 c0,10.2,0,20.3-0.1,30.5c-0.1,10.4,0.6,22.5-0.8,32c-1.5,9.6,13,9.6,11.5,0c-1.1-6.9,0.3-16.5,0.7-24.4c0.3-6.9,0.6-13.8,0.8-20.8 c0.1-4.3,0.1-8.6,0.2-12.8c0-2.7,0.1-5.5,0.1-8.2c0-1.1,0-2.1,0-3.2c0-0.1-0.5,0.2,0,0c0.8-0.4-1,1.5-0.4,0.7 c-1.5,2-0.5-0.1-0.2,0.2c0.2,0.2-0.9,0-0.4,0.2c0.8,0.2,1.2-0.2,0.7-0.2c0.9-0.1,1.9,0,2.8,0.1c2.9,0.3,8.2,2.1,11.8,3.5 c9.9,3.9,19.3,9,28.6,14.2c21.8,12.1,43.8,24.1,65.1,37.2c9.8,6,20.1,12.5,28.8,19.4c3,2.4,5.9,4.8,8.5,7.5c0.5,0.6,1,1.1,1.5,1.7 c0.2,0.3,1.5,1.9,0.7,0.8c0.9,1.2,1.8,2.4,2.5,3.7c0.4,0.7,0.7,1.4,1.1,2.1c0.1,0.3,0.3,0.6,0.4,0.8c0.6,1.4-0.4-1.2,0.1,0.2 c0.5,1.4,0.9,2.7,1.2,4.2c0.2,0.8,0.3,1.5,0.4,2.3c0.3,1.7,0.1,0.3,0.2,1c0.2,1.6,0.3,3.3,0.3,4.9c0.7,16.9,0.4,34.4-1.8,51.2 C419.4,296.2,431.1,297.8,432.1,291.1L432.1,291.1z"/></g></g></svg>