<?xml version="1.0" encoding="UTF-8" standalone="no"?><svg xmlns="http://www.w3.org/2000/svg" xmlns:xlink="http://www.w3.org/1999/xlink" fill="#000000" height="499.1" preserveAspectRatio="xMidYMid meet" version="1" viewBox="-0.3 -2.8 502.2 499.1" width="502.2" zoomAndPan="magnify"><g><g id="change1_1"><path d="M114.8,257.9c-4.8-2.1-10.4-1.5-15.6-1.6c-12,0.6-23.7,0.5-33.5,0.3c-8.8,0.4-19.5-1.7-23.2-3.8 C30.1,247,17,237.6,10.3,230.2c-0.6-1.5,8.4-7.7,11.4-8.8c0.9-0.1,0.4-0.2,1-0.1c0.4,0.2,0.8,0.5,1.2,0.7c0.6,0.5,0-0.2-0.4-0.5 c2.2,2.1,5,3.5,7.4,5.4c3.1,2.5,6,5.1,9.4,7.3c7.8,5,16.5,9.7,27.7,14.1c10.5,4.1,29.4,2.6,44.8,0.6c1.8-0.2,4-1.5,3.6-3.6 c-0.2-2.4-3-2.6-4.9-2.6c-12.1,0.4-28.9-0.8-38.6-1.8c-3.1-0.6-5.6-1.5-8.1-2.7c-12.5-8.4-24.9-17.4-39.5-23.4 c-4.6-1.7-9.2,1.4-13.2,3.3c-4.9,3-9.6,3.9-11.8,9.5c-0.6,2.4,0.4,5,1.6,7.1c1,1.6,0.5,0.6,0.3-0.5c1.4,5.4,12.2,11.9,14.3,13.8 c14.6,9.5,28.8,16.4,40,18.5c9.5,1.9,30.2,0.6,44.6,0.1c4.5-0.2,7.4-0.3,11-0.9c1.7-0.3,3.3-1.3,4.1-2.9 C116.9,261.1,116.4,258.9,114.8,257.9z" fill="#ffbe4f"/></g><g><g id="change2_2"><path d="M335.2,41.8c-0.2-5-0.5-11.1-0.1-15.2c-0.1-1.3-1.7-1.7-2.6-1.1c-2.3-0.4-4.6-0.8-6.8-0.5 c-0.2,0.1-0.3,0.2-0.4,0.3c-0.6,0.1-1.1,0.4-1.1,1.2c1,43.5-0.8,86.9-1.6,130.4c-0.8,31.2,1.6,66.2,1.2,95.6 c-0.4,1.4-0.3,1.6-0.1,1.5c-1.1,2.1,1,4.6,3.3,4.4c1.7,0.1,5,0.3,6.6-0.6c0.5,0,1-0.1,1.4-0.3c1.8-1.4,0.9-3.1,1.2-5.8 C339.3,181.7,336.5,111.7,335.2,41.8z" fill="#f66125"/></g><g><g id="change1_10"><path d="M497.4,72.2c-1.3-1.8-3-3.2-4.8-4.4c-1.2-1.5-2.7-2.7-4.4-3.7c-13-7.7-26.5-14.6-39.9-21.5 c-12.4-6.4-25.1-12.4-38.2-17.5c-16.9-5.2-34.4-8.7-51.7-12.2c-7.9-1.2-15.9-2.7-24-3.5c-2.6-1.4-5.9-2.2-9.5-2.4 c-0.5-2-1.5-4-2.3-5c-3.6-4.8-6.1,0.3-6.7,5c-0.7,0-1.4,0.1-2.1,0.1c-1.6,0.2-3.2,0.7-4.6,1.4c-19.3,0.6-38.6,2-57.5,6.2 c-20.3,4.9-39.2,14-57.1,24.6c-12.6,7.9-27.9,13.4-37,25.7c-4.5,7.2-5.9,15.8-6.9,24.1c0.2,5.7-7.6,22.4,5.2,25.2 c4.3,1.2,8.8,1.2,13.2,1.1c23.4-0.9,46.8-1,70.2-2.3c26.1-1.7,52.3-2.7,78.4-3.8c4.4-0.6,9-1.5,12.5-4.4 c9.6-10.7,5.8-30.4,9.2-38.9c2.5,2.3,3,3.4,4.9,7.3c3.4,5.8,4.3,21.5,9.8,29.3c3.3,3.2,8.1,4.1,12.4,5.6 c14.8,3.7,30.1,4.3,45.3,5.5c21.3,1.4,42.7,2.3,63.9,4.9c0.3,0,0.6,0.1,0.8,0.1c3,0.5,5.9,1,8.9,1.3c2.5,0.3,5.1,0.5,7.3-0.9 c9.2-6.9,5.9-19.9,7.4-29.8C500,83.5,500.2,77.2,497.4,72.2z" fill="#ffbe4f"/></g><g id="change3_3"><path d="M330.2,26.5c-1.8-5.3-3.6-10.7-5.8-15.9c2.3,0.1,4.5,0.3,6.7,0.5c0.4,0.1,0.8-0.1,0.9-0.5 c0.1-0.4-0.1-0.8-0.5-0.9c-2.7-0.4-5.4-0.6-8.1-0.7c-0.5-0.2-1-0.3-1.5-0.1c-2.2-0.1-4.5-0.2-6.7-0.3c-1.7,0.2-4.9-0.6-6,0.6 c-0.3,0.6,0.2,1.3,0.8,1.3c3.6-0.2,7.4-0.2,11.1-0.1c0,0.1-0.1,0.3,0,0.4c5.3,12.6,10.8,28.6,15.2,43.2c1,3,1.6,6.3,2.8,9.2 c0.3,0.5,1,0.7,1.6,0.5c0.8-0.2,1.3-1.1,1-1.8C338.2,50,334.2,38.3,330.2,26.5z" fill="#202f5a"/></g><g id="change3_4"><path d="M326.1,64.9c-11.6,1.1-21.4,2.9-33.3,3.5c-38.4,2.6-76.7,7.4-115.1,10.4c-7,0.8-14.1,1.4-21.1,2.4 c-1.8,0.6-1.2,3.5,0.7,3.4c56.1-5.9,115.1-10.3,169.9-16C330.1,68.4,329.1,64.1,326.1,64.9z" fill="#202f5a"/></g><g id="change3_5"><path d="M479.5,83.3c-3.2-0.3-6.4-0.7-9.6-1.1c-9-1.1-20.2-3.1-30.5-4.6c-28.1-3.9-62.8-9.9-90.6-12.3 c-1.3,0-2.7-0.8-4-0.2c-1.2,0.6-1,2.6,0.4,2.9c36.8,4.8,75.5,11.5,114,16.6c6.9,0.8,14,2.1,21,2.1c0.7-0.2,1.1-1,1.1-1.6 C481.3,84.2,480.5,83.3,479.5,83.3z" fill="#202f5a"/></g></g></g><g><g id="change2_3"><path d="M335.2,41.8c-0.2-5-0.5-11.1-0.1-15.2c-0.1-1.3-1.7-1.7-2.6-1.1c-2.3-0.4-4.6-0.8-6.8-0.5 c-0.2,0.1-0.3,0.2-0.4,0.3c-0.6,0.1-1.1,0.4-1.1,1.2c1,43.5-0.8,86.9-1.6,130.4c-0.8,31.2,1.6,66.2,1.2,95.6 c-0.4,1.4-0.3,1.6-0.1,1.5c-1.1,2.1,1,4.6,3.3,4.4c1.7,0.1,5,0.3,6.6-0.6c0.5,0,1-0.1,1.4-0.3c1.8-1.4,0.9-3.1,1.2-5.8 C339.3,181.7,336.5,111.7,335.2,41.8z" fill="#f66125"/></g><g><g id="change1_13"><path d="M497.4,72.2c-1.3-1.8-3-3.2-4.8-4.4c-1.2-1.5-2.7-2.7-4.4-3.7c-13-7.7-26.5-14.6-39.9-21.5 c-12.4-6.4-25.1-12.4-38.2-17.5c-16.9-5.2-34.4-8.7-51.7-12.2c-7.9-1.2-15.9-2.7-24-3.5c-2.6-1.4-5.9-2.2-9.5-2.4 c-0.5-2-1.5-4-2.3-5c-3.6-4.8-6.1,0.3-6.7,5c-0.7,0-1.4,0.1-2.1,0.1c-1.6,0.2-3.2,0.7-4.6,1.4c-19.3,0.6-38.6,2-57.5,6.2 c-20.3,4.9-39.2,14-57.1,24.6c-12.6,7.9-27.9,13.4-37,25.7c-4.5,7.2-5.9,15.8-6.9,24.1c0.2,5.7-7.6,22.4,5.2,25.2 c4.3,1.2,8.8,1.2,13.2,1.1c23.4-0.9,46.8-1,70.2-2.3c26.1-1.7,52.3-2.7,78.4-3.8c4.4-0.6,9-1.5,12.5-4.4 c9.6-10.7,5.8-30.4,9.2-38.9c2.5,2.3,3,3.4,4.9,7.3c3.4,5.8,4.3,21.5,9.8,29.3c3.3,3.2,8.1,4.1,12.4,5.6 c14.8,3.7,30.1,4.3,45.3,5.5c21.3,1.4,42.7,2.3,63.9,4.9c0.3,0,0.6,0.1,0.8,0.1c3,0.5,5.9,1,8.9,1.3c2.5,0.3,5.1,0.5,7.3-0.9 c9.2-6.9,5.9-19.9,7.4-29.8C500,83.5,500.2,77.2,497.4,72.2z" fill="#ffbe4f"/></g><g id="change3_6"><path d="M330.2,26.5c-1.8-5.3-3.6-10.7-5.8-15.9c2.3,0.1,4.5,0.3,6.7,0.5c0.4,0.1,0.8-0.1,0.9-0.5 c0.1-0.4-0.1-0.8-0.5-0.9c-2.7-0.4-5.4-0.6-8.1-0.7c-0.5-0.2-1-0.3-1.5-0.1c-2.2-0.1-4.5-0.2-6.7-0.3c-1.7,0.2-4.9-0.6-6,0.6 c-0.3,0.6,0.2,1.3,0.8,1.3c3.6-0.2,7.4-0.2,11.1-0.1c0,0.1-0.1,0.3,0,0.4c5.3,12.6,10.8,28.6,15.2,43.2c1,3,1.6,6.3,2.8,9.2 c0.3,0.5,1,0.7,1.6,0.5c0.8-0.2,1.3-1.1,1-1.8C338.2,50,334.2,38.3,330.2,26.5z" fill="#202f5a"/></g><g id="change3_7"><path d="M326.1,64.9c-11.6,1.1-21.4,2.9-33.3,3.5c-38.4,2.6-76.7,7.4-115.1,10.4c-7,0.8-14.1,1.4-21.1,2.4 c-1.8,0.6-1.2,3.5,0.7,3.4c56.1-5.9,115.1-10.3,169.9-16C330.1,68.4,329.1,64.1,326.1,64.9z" fill="#202f5a"/></g><g id="change3_8"><path d="M479.5,83.3c-3.2-0.3-6.4-0.7-9.6-1.1c-9-1.1-20.2-3.1-30.5-4.6c-28.1-3.9-62.8-9.9-90.6-12.3 c-1.3,0-2.7-0.8-4-0.2c-1.2,0.6-1,2.6,0.4,2.9c36.8,4.8,75.5,11.5,114,16.6c6.9,0.8,14,2.1,21,2.1c0.7-0.2,1.1-1,1.1-1.6 C481.3,84.2,480.5,83.3,479.5,83.3z" fill="#202f5a"/></g></g></g><g id="change3_1"><path d="M412,244c0.7-0.9,0.1-2.6-0.9-2.6c-49.1,1.9-98.1-2.3-147.2-2.5c-54.4,0.6-108.9,3.6-163.4,1.7 c0.3,0-1.3-0.3-1.9,0.6c-0.5,0.6-0.6,1.6-0.3,2.5c0,0.2-0.2,0.3-0.1,0.5c-0.1,7.6-0.3,15.3,0.1,22.9c0.4,1.7,1.7,2.5,2.9,3 c5.1,1.8,1.8,1.2,5.8,2.2c1.7,30.5,0.1,61.1,0.7,91.7c0.6,22,2.5,44,2.3,66c-0.2,5.2,1.1,10.7,5.8,11.8c29.9,3,68.7,2.8,98.7,1.1 c28.3,0.3,56.6-0.5,84.9-0.6c10.7,0.3,21.4,0.2,32-0.1c17.3,0.8,47.9,2,65.2,1.1c0.8-0.2,3.5,0,3.7-0.1c0.2,0.2,0.3,0.2,0.2,0 c0.4,0.4,0.8,0.7,1.3,0.6c0.8-0.1,1.3-0.5,1.5-1c0.4-0.2,0.7-0.5,0.8-1c1.4-19.2-0.4-38.7,0.1-58c1.3-36.1-0.9-80.2-0.5-112.8 c7.3-0.5,1.4,1.4,7.9-0.8C413.3,262.9,412.1,251.8,412,244z" fill="#202f5a"/></g><g id="change1_2"><path d="M365.3,371.5c-11.1-9.9-37.6-17.9-56.2-12.7c-10.2,3-19.6,9.7-27.3,18.5c-13.6,13.4-21.2,32.4-20.9,51.5 c0,1.3,0,2.6,0.1,3.9c0,0.4,0,0.7,0.1,1.1c0.3,4.4,1.1,8.7,2.4,12.7c1.6,5.6,3.9,11.1,7.1,16.2c15.9,29.4,56.8,32.8,83.8,17.7 c15.3-8.1,26.4-23.2,30.6-39.8C391.7,415.8,385.6,388.3,365.3,371.5z M375.6,410.2c-12,2-31.6,6.2-45.6,8.6 c8.4-13.6,16.7-27.3,24.7-41.1c1.2,0.7,2.4,1.4,3.5,2.2C369.3,388.6,374.2,398.1,375.6,410.2z M348.9,374.6 c-6.6,10.6-13,21.3-19.4,32c-0.5-12.4-1-24.9-2-37.3C335.1,369.6,342.5,371.7,348.9,374.6z M305.9,373.5c4.7-2.2,9.5-3.4,14.4-3.9 c0.3,14.1,1.3,28.1,2,42.2c-9.5-10.3-18.9-20.6-28.5-30.8C297.9,377.7,302,375.1,305.9,373.5z M273.6,406.9 c1.3-2.9,2.7-5.6,4.1-8.3c3-4.6,6.8-9,10.8-12.9c10.4,11.7,21.2,23.1,32,34.6c-17.1,2.5-34.6,4.1-51.2,8.8 C269.2,421.1,270.7,413.5,273.6,406.9z M279.7,461c-5.8-8-9-17.1-10.1-26c15.6-3.5,31.7-6,47.7-8.3c-3.6,5.8-7.3,11.6-11,17.3 c-5.5,8.7-11.2,17.4-16.2,26.3C285.6,467.5,281.8,464.3,279.7,461z M303.4,476.1c-2.5-0.7-5.1-1.6-7.5-2.7 c9.1-14.4,18.2-28.9,27.2-43.4c0.6,16.3-0.6,32.8,1.8,49C318.3,479.2,311,478.2,303.4,476.1z M333.1,478c-0.4,0.1-0.9,0.1-1.3,0.2 c-0.7-15.8-1.1-31.7-1.5-47.5c7.1,7.6,14.3,15.3,21.2,23.1c2.5,2.9,5.2,5.7,8.1,8.3C352.3,469,342.3,475.6,333.1,478z M376,424.3 c-1.1,11.4-1.3,17.5-9.4,30.1c-0.6,0.9-1.4,1.8-2.2,2.7c-10.3-10.8-20.5-21.9-30.6-32.9c14.5-2.2,28.7-4.5,42.2-7.6 C376.2,419,376.2,421.6,376,424.3z" fill="#ffbe4f"/></g><g id="change3_2"><path d="M147.8,452.4c9.1-3.4,20.4,1.5,23.2,10.8c0.9,1.5,1.5,3.2,1.8,4.9c1.3,6-1,12.7-5.4,17 c-14,11.2-33.6-2.2-32.8-14.4C135.4,462.4,138.5,456.1,147.8,452.4z" fill="#202f5a"/></g><g id="change1_3"><path d="M148.4,459.1c0.5-6.1,0.9-8.7,2.7-15c0.1-0.2,0.3-0.3,0.4-0.4c-0.3,0.2-0.4,0.3,0.1-0.3c0.7-0.8,1.3-1,2-1.2 c5.5-0.8,10.7-0.8,16.4-0.9c2.8,0,7.8-1.1,9,2c1.8,2.1-0.8,6-1.8,8.3c-5.5,10.3-16,19.5-20.3,25.7c-2.3,2-4.5,0.9-5.7-0.4 C147.1,472,148.5,465,148.4,459.1z" fill="#ffbe4f"/></g><g id="change1_4"><path d="M395,266.5c-18.3,0-39,2.2-58.8,1.7c-56.8,0-113.6,2.1-170.4,3.2c-16-0.5-32,0.7-48,0.6 c-0.9,0-1.9-0.4-2.6,0.4c-1,1-0.3,3,1.2,2.9c48.8,1.5,97.8,0.1,146.6-1.3c39.3-0.1,78.6-0.1,117.9-1.9c4.6-0.3,9.3,0.1,13.8-0.7 C396.7,270.7,396.9,267.5,395,266.5z" fill="#ffbe4f"/></g><g id="change1_5"><path d="M249.9,422.2c-42.3,0.8-84.8,3.1-127.1,0.7c-0.9-0.1-1.9-0.4-2.8-0.4c-1.7,0.1-1.9,2.8-0.2,3.2 c31.9,2.6,64.1,1.5,96.1,1.1c11-0.4,22.1,0,33.1-0.3c1.4-0.3,1.3,0.2,2.6-0.7C253,424.5,251.9,422,249.9,422.2z" fill="#ffbe4f"/></g><g><g><g fill="#ffbe4f" id="change1_11"><path d="M134.7,227.5C134.7,227.5,134.7,227.5,134.7,227.5C134.7,227.5,134.7,227.5,134.7,227.5 C134.7,227.5,134.7,227.5,134.7,227.5C134.7,227.5,134.7,227.5,134.7,227.5z"/><path d="M156.2,221.8c-3.9-11.9-11.1-32.7-13.6-31c-3.3,2.3-6,14-6.7,16.3c-1.6,5.2-3.7,9.7-5.5,14.7 c-0.4,2.7,2.1,3.9,3.7,5.1c-0.9,1.6-1.8,3.7-2.4,4.6c-1.4,1.8-1.9,3.3,0.2,4.8c4.7,3.5,12.8,3,17.5,1.2c2.9-0.8,6.2-1.9,4.3-5.7 c-0.8-1.7-2-3.1-3.3-4.4c0.8-0.3,4-1.7,4.9-2.1C156.2,225.1,156.6,223.3,156.2,221.8z"/><path d="M134.7,227.5C134.7,227.5,134.7,227.5,134.7,227.5C134.6,227.5,134.6,227.5,134.7,227.5 C134.7,227.5,134.7,227.5,134.7,227.5C134.7,227.5,134.7,227.5,134.7,227.5z"/><path d="M134.7,227.5C134.7,227.5,134.7,227.5,134.7,227.5C134.7,227.5,134.7,227.5,134.7,227.5 C134.7,227.5,134.7,227.5,134.7,227.5z"/></g><g id="change2_5"><path d="M148.6,226.7c-3.5,0.7-8.1,1-11.3,0.4c-0.9,0-1.9-0.6-2.7-0.3c-0.6,0.3-0.5,1.3,0.2,1.5 c4.3,1.2,8.9,1.5,13.3,0.3C149.2,228.6,149.8,227.1,148.6,226.7z" fill="#f66125"/></g></g><g><g fill="#ffbe4f" id="change1_9"><path d="M161.5,227.5C161.5,227.5,161.5,227.5,161.5,227.5C161.5,227.5,161.5,227.5,161.5,227.5 C161.5,227.5,161.5,227.5,161.5,227.5C161.5,227.5,161.5,227.5,161.5,227.5z"/><path d="M183,221.8c-3.9-11.9-11.1-32.7-13.6-31c-3.3,2.3-6,14-6.7,16.3c-1.6,5.2-3.7,9.7-5.5,14.7 c-0.4,2.7,2.1,3.9,3.7,5.1c-0.9,1.6-1.8,3.7-2.4,4.6c-1.4,1.8-1.9,3.3,0.2,4.8c4.7,3.5,12.8,3,17.5,1.2c2.9-0.8,6.2-1.9,4.3-5.7 c-0.8-1.7-2-3.1-3.3-4.4c0.8-0.3,4-1.7,4.9-2.1C183,225.1,183.4,223.3,183,221.8z"/><path d="M161.5,227.5C161.5,227.5,161.5,227.5,161.5,227.5C161.5,227.5,161.5,227.5,161.5,227.5 C161.5,227.5,161.5,227.5,161.5,227.5C161.5,227.5,161.5,227.5,161.5,227.5z"/><path d="M161.5,227.5C161.5,227.5,161.5,227.5,161.5,227.5C161.5,227.5,161.5,227.5,161.5,227.5 C161.5,227.5,161.5,227.5,161.5,227.5z"/></g><g id="change2_6"><path d="M175.4,226.7c-3.5,0.7-8.1,1-11.3,0.4c-0.9,0-1.9-0.6-2.7-0.3c-0.6,0.3-0.5,1.3,0.2,1.5 c4.3,1.2,8.9,1.5,13.3,0.3C176,228.6,176.7,227.1,175.4,226.7z" fill="#f66125"/></g></g></g><g id="change1_6"><path d="M402.1,417.2c-1.4-0.1-3.5,0.6-4.1,0.5c-2.3,0.4-6.4-1-7.7,1.3c-0.3,1.1,0.8,2.1,1.8,1.8 c2.4-0.6,7.7-0.5,9.9-0.2C403.8,420.1,403.8,417.6,402.1,417.2z" fill="#ffbe4f"/></g><g fill="#ffbe4f"><g id="change1_7"><path d="M174.7,299.1c-4.5-0.1-4.4,6.9,0,6.9C179.2,306,179.2,299,174.7,299.1z"/></g><g><g id="change1_12"><path d="M219.8,323.5c-0.8,0.3-1.4,1-2.1,1.5c-1.8,1.4-4,2.3-5.4,2.4c-3,0.2-6.2-2-6.4-5c4-0.1,7.5-2.8,10.1-5.8 c1.3-1.6,3-3.5,2.8-5.7c-0.6-2.4-3.2-3.2-5.4-2.7c-3.9,0.6-6.8,3.8-8.9,7c-1.4,2-2,4.1-2.2,6.1c-1.2,0.9-2.3,3-3.4,3.5 c-0.1,0.1-0.3,0.2-0.4,0.3c-3.9,3.1-7.9,4.3-10,2c-2.8-4.2-0.3-10.5,5.6-13.4c0.5-0.3,1.8-0.4,3.2-0.3c1.8-0.1,2-2.9,0.2-3.3 c-5.4-1.1-10.2,3.7-12.7,8c-0.1,0.2-0.1,0.4-0.1,0.6c-0.2,0.1-0.4,0.1-0.6,0.3c-2.4,2.9-3.7,5-6,7.4c-2.1,2.3-3.8,2.3-4.3,1.1 c-1-2.1-0.7-5.4-0.1-8.1c1.1-2.1,2-4.2,2.6-6.3c0-1.1-1.1-2-2.2-1.6c-2.7,1.3-3.7,5.7-4.2,10.2c-1.6,2.5-3.7,5-5.8,6.9 c-1.7,1.7-3.5,2.5-5.7,3.9c-0.7,0.8,0.4,2,1.2,1.4c3.9-2.1,7.4-5.1,10.3-8.8c0.3,2,0.9,4.1,2.5,5.4c2.6,1.6,5.8-0.1,7.6-2.1 c1.6-1.7,2.8-3.4,3.9-4.8c0.1,3,1.2,5.8,3.8,7.3c4.9,2.6,10.2-1.4,13.5-4.9c0.3-0.4,0.8-1,1.3-1.5c1,3.8,4.4,6.8,9.6,6.7 c3.6-0.5,7.3-2.6,9.6-5.3C222.7,324.7,221.3,323.1,219.8,323.5z M211.4,312.2c0.9-0.7,3.8-1.3,4.5-0.9c0.9,0.9-0.4,2.8-1.9,4.3 c-2,2.2-4.3,4.1-7.3,4.5c-0.1,0-0.3,0-0.5,0C206.9,317.2,208.9,313.7,211.4,312.2z"/></g><g id="change1_8"><path d="M256.9 312L256.9 312 256.9 312z"/><path d="M256.7,312C256.7,312,256.7,312,256.7,312C256.6,312,256.5,312,256.7,312z"/><path d="M344.8,308.1c-3.4,2.3-5.2,5.4-7.2,8.6c0.2-8.7-5-10.2-11.5,0.8c0.2-2,0.2-4-0.5-5.9 c-1.1-2.4-4-1.2-5.3,0.3c-4.1,4.2-5.4,8.6-9.4,9.7c-0.1,0-0.1,0,0,0c-0.1,0,0,0,0,0c0,0-0.1,0-0.1,0c-0.1-0.1-0.1,0-0.1,0 c-0.4-0.4-0.4-0.4-0.8-1.1c-0.4-0.9-0.9-3.7-1-3.7c-0.2-1.1-0.3-1.9-0.4-3c0.1-0.8-0.9-1.5-1.5-0.8c-2.3,4-4.8,7.7-8.8,9.8 c-0.1,0-0.3,0.2-0.2,0.1c-0.1,0-0.1,0-0.1,0c-0.5,0.1-1.7,0.1-1.6,0.1c0,0,0,0,0,0c0,0-0.1-0.1-0.1-0.1c0,0,0,0,0,0 c-1.3-1.3,2.9-7.6,6.3-8.2c0.1,0,0.1,0,0.2,0c0,0,0,0,0,0c0.1,0,0.3,0,0.5,0.1c1.8,1.5,4.4-1.1,2.7-2.8 c-3.2-4.3-10,1.6-11.2,3.6c-1.1,1.4-2.1,2.9-2.6,4.6c0,0,0,0,0,0c-2.5,2-4.1,3.8-6.6,5.2c-2,1-4.2,2.1-6.3,1.5 c-0.2-0.1-0.3-0.1-0.4-0.1c0,0-0.1-0.1-0.4-0.2c-0.7-0.4-0.8-0.5-1-0.7c-0.6-1.1-0.5-0.8-0.7-1.8c-0.3-2.5,0.3-4.9,1.4-6.8 c0,0.6,0.3,1.1,1,1.3c2.3,0.4,4.6,0.2,6.3-1.3c1.5-1.4,1.9-4.2,0.4-5.8c-4.8-4.3-11.4,3-12.8,7.6c-0.7,2.2-0.8,4-0.7,5.5 c-2.2,3.5-4.4,4.6-5.8,3.2c-1.2-2.1,0.1-5.4,0.3-10.5c0.3-1.7-0.5-4.1-2.6-3.6c-0.9,0.4-1.9,1.3-2.5,1.7c-0.9,0.2-1,0.2-1.9,0.1 c-0.4-0.1-0.6-0.2-0.9-0.3c0.8-2.4,1-5-1.7-5.8c-4.3-0.7-5.6,5.7-2.1,7.5c0.2,0.1,0.3,0.1,0.5,0.2c-0.6,1.1-1.2,2.2-1.9,3.4 c-2.7,4.3-7.1,8.9-12,7.3c-1.9-1.1-2-2-2.5-4.2c-0.9-3.5,1.1-8.2,4.3-11.1c0.4-0.3,1.9-1.4,3-1.3c0.5,0.1,0.6,0.2,1.1,0.4 c1.4,0.9,2.7-1.4,1.3-2.2c-3.3-2.2-7.2,0.7-9.2,3.4c-2.2,3-4,6.7-3.4,10.4c0.3,2.8,1.5,5.8,4.2,7.1c7.5,3,13.9-4.8,16.8-11 c0.2-0.4,0.4-0.9,0.6-1.4c1.8,0.4,3.3,0.1,4.9-0.3c-0.1,0.9-0.2,2-0.4,3.2c-0.2,3,0.1,14.3,8.3,9.1c1-0.8,1.8-1.8,2.5-2.9 c2.8,4.6,11.6,2.5,16.8-2.6c0.3-0.4,1.2-1.1,2-1.8c0.4,2,2,3.9,4.1,3.9c4.3-0.7,7.4-4.6,10.3-9.1c-0.2,3.1,1.3,7.8,5.2,7.6 c4.7-0.2,8.2-7.1,9.8-9.1c0.6-0.9,1.4-1.6,1.9-2c0.1,0.6,0.1,1.2,0.1,2c-0.2,2.6-0.4,3.7-1.1,7.6c-0.3,1.3-0.8,3.2,0.8,3.7 c0.9,0.2,1.6-0.3,2.1-1.1c2.7-4.4,4.3-8.7,8-11.7c0.5,2.5,0.3,5.8,0.4,9.6c2.8,4.8,5.3-3.4,6.5-5.5c1.3-3,3.5-6.3,5.9-7.7 c1.1-0.7,1.8-1.2,2.9-0.9c1,1.4,0.7,6,0.4,10.3c-0.1,1.4-0.2,1.6-0.4,3.1c-0.1,1.7,2.4,2.3,3.2,0.9c0.5-2.9,0.6-7.4,0.6-11.3 C352,308,349.1,305.3,344.8,308.1z"/></g></g></g><g fill="#f66125"><g id="change2_4"><path d="M163.4,165.5c0,0.1,0,0.1,0,0.2c0,0.1,0,0.1,0,0.2C163.5,166,163.4,165.5,163.4,165.5z"/><path d="M162.7,166.8l-0.3-2.1l0.8-0.1c0.5,0,0.8,0.2,0.9,0.8l0,0l0,0.2c0,0,0,0.1,0,0.1h0l0.1,0.7l-0.8,0.3 L162.7,166.8z"/></g><g id="change2_1"><path d="M188,185.4c0.1-1.3-0.2-2.6-0.9-3.7c-0.1-0.3-0.9-1.3-1.9-2.1c1.2-1.5,2.6-4.4-0.6-5.4 c-3.5-0.6-6.2-0.3-9.4-1.4c-4.2-0.8-7.5-4.3-11.7-5.6c0.1-0.2,0.2-0.5,0.1-0.7c0-0.1,0-0.2,0-0.3c0,0.1,0,0.2,0,0.1 c-0.1-0.4-0.1-0.8,0-0.2c0-0.2,0-0.3-0.1-0.5c0-0.1,0-0.3-0.1-0.4c0-0.1,0.1,0.5,0,0.3c0-0.3-0.1-0.7-0.1-1 c-0.2-4-3.5-6.7-7.4-6.5c-3.4-0.2-7.6,0.8-8.5,4.6c-0.6,2-0.6,3.7-0.8,4.8c-0.1,0.2,0.1,0.3,0.1,0.5c-0.1,0-0.1,0.1-0.2,0.1 c-3.3,2.6-8.1,4.9-12.4,6.1c-2.2,0.8-7,0.2-6.9,3.6c-0.1,0.8,1.1,1.8,2.4,2.5c-1.5,0.8-2.6,2.3-3.1,4c-1.8,5.4-1.6,11.1-1.6,16.7 c-0.1,12.1,0.1,25.7,2.1,36.8c0.9,2.9,7.5,3.6,11.9,3.4c14.7,0.2,29.7-0.6,44.3-2.3c4.2-3.3,4.1-9.9,4.7-15.1 C189.3,211,188.4,198.2,188,185.4z M129,177.2c0.1-0.1,0.6-0.7,1.7-0.8c5.6-1.1,13-3.4,17-7.6c0.5,0,1-0.3,1-1 c0.3-3.8-0.2-7,3.5-7.3c2.6-0.3,6,0,7.2,1.5c0.6,0.9,0.9,2.5,1,4.8c0.3,1.4,1.1,1.6,1.8,1.5c5.1,2.4,9.9,6,15.6,7.4 c2.1,0.7,4.4,0.5,5.7,1.1c-0.4,0.6-1.1,0.9-2.2,1.9c-0.1,0.1,0,0.2-0.1,0.3c0,0-0.1,0.1-0.1,0.2c-15.7,0.7-31.6,2.1-47.4,0.5 c-0.3-0.1-1.3-0.2-1.9-0.1C130.5,178.6,129.3,177.8,129,177.2z M182.5,236.5c0,0.3-0.7,0.7-1,0.7c-15.9,0.5-33,3-48.3,1.9 c-1.8-0.3-3.3-0.8-3.6-1.4c-0.1-0.1-0.1-0.3-0.2-0.4c0,0,0,0,0,0c-0.3-14.9-2.3-34-1.8-48.7c0.6-2.9,1.1-5.5,3.3-6.5 c0,0,0.1,0,0.1,0c0.2,0.2,0.4,0.3,0.7,0.4c15.6,1.8,31.5,0.9,47.2,0c0.8-0.2,1.8-0.1,2.6-0.3c0.7,0.4,1.5,0.5,1.3,0.5 c2.1,1,2.3,1.7,2.7,2.8C186.7,200.6,187.9,225.2,182.5,236.5z"/><path d="M137.4,242c-3.2,0-10.1-0.4-11.2-4c-2-11.1-2.2-24.4-2.2-37.1l0-1.2c0-5.3-0.1-10.7,1.6-15.8 c0.4-1.5,1.3-2.7,2.3-3.7c-0.9-0.7-1.8-1.6-1.7-2.6c-0.2-3.1,3.1-3.5,5.3-3.9c0.8-0.1,1.6-0.2,2.1-0.4c4.2-1.2,8.7-3.4,11.9-5.8 c0-0.1,0-0.2,0-0.3c0.1-0.3,0.1-0.7,0.2-1.2c0.1-1,0.2-2.3,0.7-3.7c1-4.2,5.5-5.5,9.4-5.2c4.3-0.3,7.9,2.9,8.2,7.2l0.1,0.4 c0,0.2,0.1,0.4,0.1,0.7l0,0.3c0,0,0,0,0,0l0,0c0,0,0,0,0,0c0,0.1,0,0.2,0,0.3h0c0,0.1,0,0.1,0,0.2l0,0.1c0,0.1,0.1,0.2,0.1,0.3 c1.7,0.6,3.3,1.6,4.8,2.5c2,1.2,3.9,2.4,6.1,2.8c2,0.7,3.8,0.8,5.7,1c1.2,0.1,2.4,0.2,3.8,0.4c1.8,0.6,2.4,1.5,2.6,2.3 c0.4,1.5-0.3,3-0.9,3.9c0.7,0.6,1.3,1.4,1.5,1.9c0.7,1.2,1.1,2.6,1,4.1c0.1,2.4,0.2,4.9,0.2,7.3c0.4,10.2,0.8,20.7-0.3,31.1 c-0.1,0.8-0.2,1.6-0.3,2.4c-0.5,4.8-1,10.3-4.8,13.3l-0.2,0.1l-0.2,0c-15.3,1.7-30.2,2.5-44.4,2.3C138.7,242,138.2,242,137.4,242 z M128.1,177.1c0,0.2-0.1,0.4-0.1,0.6c0,0.3,0.5,1,1.9,1.7l1.4,0.7L130,181c-1.2,0.7-2.3,2-2.7,3.5c-1.6,4.9-1.6,10.2-1.5,15.3 l0,1.2c-0.1,12.7,0.2,25.9,2.1,36.7c0.7,2,6.2,2.9,11,2.6c14.1,0.2,28.9-0.6,44-2.3c3.1-2.6,3.5-7.3,4-11.9 c0.1-0.8,0.2-1.7,0.3-2.5c1.1-10.2,0.7-20.7,0.3-30.9c-0.1-2.4-0.2-4.9-0.2-7.3l0-0.1c0.1-1.2-0.2-2.2-0.7-3.1l-0.1-0.2 c-0.1-0.1-0.7-0.9-1.6-1.7l-0.7-0.6l0.5-0.7c0.7-0.9,1.4-2.2,1.1-3c-0.1-0.2-0.2-0.7-1.3-1.1c-1.2-0.2-2.4-0.3-3.5-0.4 c-2-0.2-3.8-0.3-6-1c-0.3-0.1-0.6-0.1-0.9-0.2c1.3,0.5,2.6,1,4,1.3c1,0.3,2,0.4,3,0.6c1.1,0.1,2,0.2,2.8,0.6l0.9,0.4l-0.5,0.8 c-0.3,0.5-0.8,0.9-1.4,1.3c-0.2,0.2-0.5,0.4-0.8,0.7c0,0.1,0,0.1-0.1,0.2l-0.2,0.4l-0.2,0.2l-0.3,0c-2.7,0.1-5.3,0.3-8,0.4 c-13,0.7-26.4,1.4-39.5,0.1c-0.4-0.1-1.3-0.2-1.7-0.1l-0.3,0.1l-0.3-0.2c-2.6-1.5-3-2.3-3.1-2.6L128.1,177.1z M132.2,178.5 c0.8,0,1.6,0.2,1.6,0.2c12.9,1.3,26.2,0.6,39.1-0.1c2.5-0.1,5-0.3,7.5-0.4l0.1-0.1c0.5-0.5,0.9-0.7,1.2-1c-0.3,0-0.6-0.1-0.9-0.1 c-1-0.1-2.2-0.2-3.3-0.6c-3.9-0.9-7.5-2.9-10.9-4.8c-1.6-0.9-3.1-1.7-4.6-2.5c-0.5,0.1-1,0-1.4-0.3c-0.6-0.4-0.9-1-1.1-1.9 c-0.1-2.4-0.4-3.7-0.9-4.5c-0.7-0.9-3.6-1.5-6.4-1.1c-2.3,0.2-2.5,1.4-2.7,4.8c0,0.6-0.1,1.1-0.1,1.7c0,0.9-0.6,1.6-1.4,1.7 c-4.8,4.9-13.6,7-17.2,7.7c-0.2,0-0.4,0.1-0.6,0.1c0.3,0.3,0.9,0.7,1.7,1.1C132.1,178.5,132.2,178.5,132.2,178.5z M128.5,176.6 l0.6,0.6L128.5,176.6c0.1-0.1,0.1-0.1,0.1-0.1c-0.1,0.1-0.2,0.2-0.2,0.2L128.5,176.6z M147.4,167.5c0,0.1,0.1,0.2,0.1,0.2l0,0.1 l0.2,0l0.2-0.2c0-0.6,0.1-1.1,0.1-1.7c0.1-1.9,0.2-3.8,1.2-5.1c-0.4,0.5-0.8,1.1-1,1.9c-0.4,1.3-0.5,2.5-0.6,3.4 C147.5,166.7,147.4,167.2,147.4,167.5z M147.4,167.6C147.4,167.6,147.4,167.6,147.4,167.6C147.4,167.6,147.4,167.6,147.4,167.6z M154.1,159.5c2.4,0,5,0.6,6,1.9c0.7,1.1,1,2.7,1.2,5.3c0.1,0.3,0.2,0.6,0.3,0.6c0.1,0.1,0.2,0.1,0.4,0l0.3-0.1l0.2,0.1l0.3-0.6 l0-0.3c0-0.1,0-0.3-0.1-0.4l0-0.3c0,0,0,0,0,0l-0.1-0.4c0-0.2-0.1-0.4-0.1-0.6c0,0,0-0.1,0-0.1v0c-0.3-3.4-3-5.8-6.5-5.6 c-2.1-0.1-4.4,0.2-6,1.3c0.6-0.4,1.3-0.6,2.2-0.7C152.8,159.5,153.4,159.5,154.1,159.5z M164.4,166.1 M141.7,240.2 c-2.9,0-5.7-0.1-8.5-0.3c-2.4-0.4-3.8-1-4.3-1.8c0,0-0.1-0.2-0.2-0.3l-0.1-0.4c-0.1-5.8-0.5-12.2-0.9-18.9 c-0.6-10.3-1.2-20.9-0.9-29.9l0.2-0.8c0.6-2.8,1.2-5.4,3.7-6.4l0.4-0.1l0.4,0l0.3,0.3c0.1,0.1,0.2,0.2,0.2,0.2 c15.4,1.8,31.3,0.9,46.7,0l-0.4-0.2l1.4,0.1c0.1,0,0.3,0,0.4,0c0.4,0,0.9-0.1,1.3-0.2l0.3-0.1l0.3,0.2c0.2,0.1,0.5,0.3,1,0.4 l0.8,0.2l0,0.2c1.7,0.9,2.1,1.7,2.5,2.9l0.1,0.3c2.1,25.9,1.1,42.7-3,51.4c-0.2,0.8-1.2,1.2-1.8,1.3c-5.6,0.2-11.5,0.6-17.1,1 C156.9,239.7,149.1,240.2,141.7,240.2z M130.3,237.1l0.1,0.2c0.1,0.2,1,0.6,2.9,0.9c9.8,0.7,20.5-0.1,30.9-0.9 c5.7-0.4,11.6-0.9,17.2-1.1c0,0,0.1-0.1,0.2-0.1l0-0.1c3.9-8.2,4.9-25.2,2.9-50.5c-0.4-1-0.6-1.4-2.1-2.2 c-0.5-0.1-0.8-0.2-1.1-0.4c-0.4,0.1-0.8,0.1-1.2,0.1c-0.4,0-0.7,0.1-1,0.1c-15.7,0.9-31.7,1.9-47.4,0c-0.3-0.1-0.5-0.2-0.7-0.3 c-1.3,0.8-1.8,2.4-2.3,5l-0.1,0.7c-0.3,8.8,0.3,19.4,0.9,29.6C129.8,225,130.2,231.3,130.3,237.1z"/></g></g></g></svg>