<?xml version="1.0" encoding="UTF-8" standalone="no"?><svg xmlns="http://www.w3.org/2000/svg" xmlns:xlink="http://www.w3.org/1999/xlink" fill="#000000" height="506.2" preserveAspectRatio="xMidYMid meet" version="1" viewBox="-0.4 -1.2 348.9 506.2" width="348.9" zoomAndPan="magnify"><g><g><g id="change1_8"><path d="M220.4,227.4c-3-16.3-10.5-31.2-15.8-46.7c-5.1-15.7-10.8-32.3-8-48.2c2.9-12,10.4-22.3,12.3-34.8 c0.4-2.6,1-5.3,0.9-7.9c-0.1-0.4-0.5-0.6-0.9-0.6c-0.5,0-1,0.4-1,1c-0.2,16.3-11,29.6-14,45.5c-1.9,23.1,7.8,45.4,15.5,66.7 c6.6,17.5,10.8,35,11,53c-0.5,14.2-4,27.9-7,42.4c-0.7,3.9-1.2,7.9-1.6,11.8c0,0.5,0.5,0.9,1.1,0.9c0.7,0,1.1-0.6,1.1-1.2 c1.3-6.8,2.6-13.6,4.2-20.3C223.2,268.7,225.1,247.8,220.4,227.4z" fill="#32ad62"/></g><g id="change2_2"><path d="M233.6,11.5c-7.8-7.6-19.2-12.7-30.2-11.2c-7.9,1.1-14.5,5.1-19.4,11.5c-1.2,1.5-9,13.5-9.9,22.9 c-0.4,4.6-0.4,9.3,0.1,13.9c1.1,11.8,5.9,22.9,17.2,32.1c1.7,1.4,7.9,4,12.6,5.1c-0.8,1.7-1.6,3.4-2.2,4.8c-0.3,1-1.1,2.1-0.6,3.1 c0.4,0.7,1.3,1,2.1,1.2c4.1,0.7,8.4,0.4,12.5-0.3c2.6-0.4,2-3.1,1.1-4.9c-0.7-1.5-1.1-3.1-1.6-4.6c6.8-1.2,12.5-5,17.4-10.1 c4.4-4.6,8.2-9.8,10.2-15.9C247.9,43.1,244.8,24.1,233.6,11.5z" fill="#ffbe4f"/></g><g id="change1_9"><path d="M215.6,84.7c-2.9,0.1-5.7,0.4-8.6,0.7c-1.3,0.2-6.1-0.3-4.1,1c4,0.5,8.3,0.2,12-0.2c0.7-0.1,1.9,0.1,1.9-0.8 C216.9,84.7,216.2,84.6,215.6,84.7z" fill="#32ad62"/></g></g><g><g id="change3_2"><path d="M245.3,205.9c-0.2-0.6-0.2-1.3-0.6-1.6c-0.5-0.3-1.2,0.2-1,0.8c3.1,16.3-8.1,30.1-15.3,44.8 c-6.6,10.9-10.5,22.9-12.8,35.3c-2,10.4-4.7,21-3.8,31.6c0.3,1.7-0.2,1.9,0.7,3.4c1.6,1.3,3-0.4,2.6-2.1c-0.1-2.4,0-4.7,0.1-7.1 c0.4-8.5,2.7-17.3,4.7-26.6c2.1-11,4.8-21,9.5-30.3C236,238.5,248.1,223.7,245.3,205.9z" fill="#202f5a"/></g><g id="change1_7"><path d="M269.3,124.9c-7.8-7.6-19.2-12.7-30.2-11.2c-7.9,1.1-14.5,5.1-19.4,11.5c-1.2,1.5-9,13.5-9.9,22.9 c-0.4,4.6-0.4,9.3,0.1,13.9c1.1,11.8,5.9,22.9,17.2,32.1c1.7,1.4,7.9,4,12.6,5.1c-0.8,1.7-1.6,3.4-2.2,4.8c-0.3,1-1.1,2.1-0.6,3.1 c0.4,0.7,1.3,1,2.1,1.2c4.1,0.7,8.4,0.4,12.5-0.3c2.6-0.4,2-3.1,1.1-4.9c-0.7-1.5-1.1-3.1-1.6-4.6c6.8-1.2,12.5-5,17.4-10.1 c4.4-4.6,8.2-9.8,10.2-15.9C283.6,156.5,280.5,137.5,269.3,124.9z" fill="#32ad62"/></g><g id="change3_3"><path d="M252.1,198.3c-0.3-0.3-0.7-0.3-1-0.2c-3.7,0.6-8,0.7-12.2,0.7c-0.4-0.3-1.7,0.8-0.4,1.4 c4.4,0.4,8.8,0,13.1-0.6C252.2,199.7,252.6,198.8,252.1,198.3z" fill="#202f5a"/></g></g><g><g id="change1_3"><path d="M281.8,236.4c-4.7,11.4-16.8,21.6-27.4,30.6c-13.1,10.1-27.8,21.5-30.5,39c0,1-0.5,2.1,0,3 c0.4,0.4,1.1,0.3,1.4-0.2c0.3-0.8,0.5-2.4,0.7-3.6c3.1-15.9,16.4-26.4,28.6-35.5c10.3-8.4,21.3-17,28.1-28.7 c0.6-1.4,1.7-2.8,1.8-4.3C284.4,235.2,282.2,235,281.8,236.4z" fill="#32ad62"/></g><g id="change4_1"><path d="M307.7,156.3c-7.8-7.6-19.2-12.7-30.2-11.2c-7.9,1.1-14.5,5.1-19.4,11.5c-1.2,1.5-9,13.5-9.9,22.9 c-0.4,4.6-0.4,9.3,0.1,13.9c1.1,11.8,5.9,22.9,17.2,32.1c1.7,1.4,7.9,4,12.6,5.1c-0.8,1.7-1.6,3.4-2.2,4.8c-0.3,1-1.1,2.1-0.6,3.1 c0.4,0.7,1.3,1,2.1,1.2c4.1,0.7,8.4,0.4,12.5-0.3c2.6-0.4,2-3.1,1.1-4.9c-0.7-1.5-1.1-3.1-1.6-4.6c6.8-1.2,12.5-5,17.4-10.1 c4.4-4.6,8.2-9.8,10.2-15.9C322,187.9,319,168.9,307.7,156.3z" fill="#f66125"/></g><g id="change1_4"><path d="M290.8,229c-4.3,1.1-8.3,1.5-12.9,1.1c-0.7,0-0.8-0.2-1.7-0.2c-1,0.1-1.1,1.6-0.1,1.8c5,0.7,10-0.2,14.8-1.4 C291.4,230.1,291.4,229.1,290.8,229z" fill="#32ad62"/></g></g><g><g id="change1_1"><path d="M202.9,264.8c-0.7-7.1-3.3-13.8-5-20.8c-1.2-4.9-1.4-9.5-1-15.1c-0.2-1.9,1.6-6.2,0.1-7.3 c-0.6-0.3-1.5,0.2-1.4,0.9c-0.7,4.8-1.6,11.8-0.8,17.4c0.8,6.9,3.5,13.4,4.7,20.2c2.3,15.1,1.1,33.8,1.4,50.2 c0.5,1.3,2.5,0.9,2.4-0.5c0.2-4.7,0.4-9.4,0.5-14.1C203.6,285.8,203.8,273.9,202.9,264.8z" fill="#32ad62"/></g><g id="change3_1"><path d="M220.8,142.5c-7.8-7.6-19.2-12.7-30.2-11.2c-7.9,1.1-14.5,5.1-19.4,11.5c-1.2,1.5-9,13.5-9.9,22.9 c-0.4,4.6-0.4,9.3,0.1,13.9c1.1,11.8,5.9,22.9,17.2,32.1c1.7,1.4,7.9,4,12.6,5.1c-0.8,1.7-1.6,3.4-2.2,4.8c-0.3,1-1.1,2.1-0.6,3.1 c0.4,0.7,1.3,1,2.1,1.2c4.1,0.7,8.4,0.4,12.5-0.3c2.6-0.4,2-3.1,1.1-4.9c-0.7-1.5-1.1-3.1-1.6-4.6c6.8-1.2,12.5-5,17.4-10.1 c4.4-4.6,8.2-9.8,10.2-15.9C235.1,174.1,232.1,155.1,220.8,142.5z" fill="#202f5a"/></g><g id="change1_2"><path d="M204.4,215.5c-4,0.3-7.9,1.4-12.2,1.2c-0.9,0.1-2-0.4-2.8,0.1c-0.4,0.4-0.1,1.2,0.5,1.1 c4.3,0.3,8.6-0.6,12.9-0.9C203.7,217.1,205.4,216.7,204.4,215.5z" fill="#32ad62"/></g></g><g><g id="change1_5"><path d="M201.3,307.2c-1.3-12.7-0.7-25.8-3.8-38.3c-7.3-20.4-23-38.3-29-58.1c-2.5-8.3-3.9-15.4-3.9-24 c0-2.8,0.2-4.6,0.6-7c-0.1-1.2-1.9-1.3-2.2-0.1c-2.5,14.7,1.4,30.2,7.3,43.7c5.7,14.1,16.8,29.1,22.1,41.5 c5.4,13.1,4,27.2,5.8,41.8c0.3,1.7,0,3.2,0.8,4.2c0.6,0.7,1.8,0.5,2.3-0.3C201.8,309.5,201.3,308.3,201.3,307.2z" fill="#32ad62"/></g><g id="change5_1"><path d="M187.7,100.3c-7.8-7.6-19.2-12.7-30.2-11.2c-7.9,1.1-14.5,5.1-19.4,11.5c-1.2,1.5-9,13.5-9.9,22.9 c-0.4,4.6-0.4,9.3,0.1,13.9c1.1,11.8,5.9,22.9,17.2,32.1c1.7,1.4,7.9,4,12.6,5.1c-0.8,1.7-1.6,3.4-2.2,4.8c-0.3,1-1.1,2.1-0.6,3.1 c0.4,0.7,1.3,1,2.1,1.2c4.1,0.7,8.4,0.4,12.5-0.3c2.6-0.4,2-3.1,1.1-4.9c-0.7-1.5-1.1-3.1-1.6-4.6c6.8-1.2,12.5-5,17.4-10.1 c4.4-4.6,8.2-9.8,10.2-15.9C202,131.9,199,112.9,187.7,100.3z" fill="#f75454"/></g><g id="change1_6"><path d="M174.4,172.3c-0.3-0.6-1-0.6-1.5-0.5c-3.4,0.6-7.9,1.6-10.5,1.8c-2.1,0.5-4.5-0.1-6.4,0.5 c-0.6,0.5-0.1,1.6,0.6,1.6c4.6,0.3,10.8-1,14.4-1.5C172.2,174,175.2,174.4,174.4,172.3z" fill="#32ad62"/></g></g><g><g fill="#ffbe4f" id="change2_1"><path d="M248.1,320.4c-0.3-2.4-0.5-4.1-2-6.6c-1.3-1-5-2.2-6.2-4.6c-0.1-0.1-0.2-0.7-0.4-1.4c0.4-0.7,0-1.8-1-1.8 c-0.5,0-0.9,0-1.4,0.1c-0.7-0.1-1.3,0-2,0.1c-11.2,0.5-21.8,0.4-33.3,0.5c-6.6-0.4-13.1-1-19.2-0.2c-0.2,0,0.3,0,0.1,0 c-0.7,0.1-1.5,0.1-2,0.6c-0.7,1-0.6,1.6-1.1,2.4c-1.3,2.4-1.7,2.7-4.3,3.4c0.4-0.1-1.6,0.2-1.8,0.9c-0.6,1.4-0.7,2.9-0.9,4.4 c-0.1,1.4-0.6,3-0.1,4.4c0.6,1,1.8,1,2.8,1.1c4,0.7,63.9-0.1,70.4,0c0,0-0.1,0-0.1-0.1c0.5,0.1,1-0.1,1.5-0.3 C248.3,322.7,248.1,320.5,248.1,320.4z"/><path d="M244.2,315.3L244.2,315.3L244.2,315.3L244.2,315.3z"/></g><g><g id="change3_4"><path d="M80.5,336.3c-0.4-2.3-1-4.9-2.9-6.4c-0.9-2.3-43.2-10.4-51.4-8.8c-0.9,0-1.7,0.2-2.5,0.7 c-1.2,1.6-1.3,3-1.2,4.9c0.4,3,4.3,2.7,5.1,2.4c7.5-0.3,21.8,2.8,28.4,4.3c7.4,1.9,14.5,5.1,22,6.6 C81.5,340.2,80.9,337.4,80.5,336.3z" fill="#202f5a"/></g><g id="change4_2"><path d="M33,324.9c-0.5-2.1-1.4-4.5-3.7-5.1c-5.3-0.9-8.1,0.1-13.2,0.7c-1.3,0.3-2.7,0.5-4.1,0.9 c-2.5,0.4-5,1-7.3,2.1c-1.7,0.7-3.3,1.8-4.2,3.5s-0.2,3.9,1,5.2c1.3,1.1,3.1,1.5,4.7,2c9.9,2.1,25.8-2.7,26.3-4.7 C33.6,328.2,33.2,326.4,33,324.9z" fill="#f66125"/></g></g><g><g id="change4_3"><path d="M347.3,325.9c0.6-0.7,0.1-1.9-0.8-1.8c-43,1.3-85.9-1.6-128.9-1.8c-47.7,0.4-95.4,2.5-143,1.2 c0.3,0-1.1-0.2-1.6,0.4c-0.5,0.5-0.5,1.2-0.2,1.8c0,0.1-0.1,0.2-0.1,0.4c-0.1,5.4-0.3,10.9,0.1,16.3c0.3,1.2,1.5,1.8,2.5,2.2 c4.5,1.3,9.4,1.4,12.8,2.1c1.5,21.7,0.1,43.4,0.7,65.1c0.5,15.6,2.2,31.2,2,46.9c-0.1,3.7,0.9,7.6,5,8.4 c26.2,2.1,52.4,1.5,78.7,0.3c24.8,0.2,49.6-0.3,74.4-0.5c9.4,0.2,18.7,0.1,28.1-0.1c15.2,0.5,30.3,1.1,45.4,0.5 c0.7-0.1,3.1,0,3.3-0.1c0.2,0.1,0.2,0.1,0.2,0c0.3,0.3,0.7,0.5,1.1,0.4c0.7,0,1.1-0.3,1.4-0.7c0.3-0.1,0.6-0.3,0.7-0.7 c1.3-13.7-0.3-27.4,0-41.2c1.1-25.6-0.8-57-0.4-80.1c6.4-0.4,12.9,1.3,18.6-0.3C348.5,339.3,347.4,331.4,347.3,325.9z" fill="#f66125"/></g><g id="change2_4"><path d="M291.5,416.4c-7.9-7-26.7-12.7-39.9-9.1c-7.2,2.1-13.9,6.9-19.4,13.1c-9.7,9.5-15,23-14.8,36.6 c0,0.9,0,1.8,0.1,2.8c0,0.3,0,0.5,0,0.8c0.2,3.1,0.8,6.2,1.7,9c1.1,4,2.8,7.9,5.1,11.5c11.3,20.9,40.3,23.3,59.5,12.5 c10.9-5.7,18.7-16.4,21.8-28.3C310.3,447.8,305.9,428.3,291.5,416.4z M298.9,443.9c-8.5,1.4-22.4,4.4-32.4,6.1 c6-9.7,11.8-19.4,17.6-29.2c0.8,0.5,1.7,1,2.5,1.6C294.4,428.5,297.8,435.3,298.9,443.9z M279.9,418.6 c-4.7,7.5-9.2,15.1-13.8,22.8c-0.3-8.8-0.7-17.7-1.5-26.5C270.1,415.1,275.3,416.5,279.9,418.6z M249.4,417.8 c3.3-1.5,6.8-2.4,10.2-2.8c0.2,10,0.9,20,1.4,30c-6.7-7.3-13.4-14.7-20.3-21.9C243.6,420.8,246.6,418.9,249.4,417.8z M226.4,441.5c1-2,1.9-4,2.9-5.9c2.1-3.3,4.8-6.4,7.7-9.2c7.4,8.3,15,16.4,22.7,24.5c-12.1,1.8-24.6,2.9-36.3,6.3 C223.3,451.6,224.3,446.2,226.4,441.5z M230.7,480c-4.2-5.7-6.4-12.1-7.1-18.5c11.1-2.5,22.5-4.3,33.8-5.9 c-2.6,4.1-5.2,8.2-7.8,12.3c-3.9,6.2-7.9,12.3-11.5,18.7C234.9,484.6,232.2,482.3,230.7,480z M247.6,490.7 c-1.8-0.5-3.6-1.1-5.3-1.9c6.5-10.3,12.9-20.5,19.3-30.9c0.4,11.6-0.4,23.3,1.3,34.8C258.1,492.8,253,492.2,247.6,490.7z M268.7,492.1c-0.3,0.1-0.6,0.1-0.9,0.1c-0.5-11.2-0.8-22.5-1.1-33.7c5.1,5.4,10.1,10.9,15.1,16.4c1.8,2.1,3.7,4.1,5.8,5.9 C282.3,485.6,275.2,490.3,268.7,492.1z M299.1,453.9c-0.8,8.1-0.9,12.5-6.7,21.4c-0.5,0.6-1,1.3-1.6,1.9 c-7.3-7.7-14.5-15.5-21.7-23.4c10.3-1.5,20.4-3.2,30-5.4C299.2,450.1,299.2,451.9,299.1,453.9z" fill="#ffbe4f"/></g><g><g><g id="change2_3"><path d="M124.8,473.8c6.5-2.4,14.5,1,16.5,7.7c0.6,1.1,1.1,2.3,1.3,3.5c0.9,4.3-0.7,9-3.8,12 c-9.9,8-23.9-1.6-23.3-10.2C116.1,480.9,118.2,476.5,124.8,473.8z" fill="#ffbe4f"/></g><g id="change3_5"><path d="M125.3,478.6c0.3-4.3,0.6-6.2,1.9-10.6c0.1-0.1,0.2-0.2,0.3-0.3c-0.2,0.2-0.3,0.2,0.1-0.2 c0.5-0.6,0.9-0.7,1.4-0.9c3.9-0.6,7.6-0.6,11.6-0.6c2,0,5.5-0.8,6.4,1.4c1.3,1.5-0.6,4.3-1.3,5.9c-3.9,7.3-11.4,13.9-14.4,18.2 c-1.6,1.4-3.2,0.7-4.1-0.3C124.3,487.7,125.3,482.8,125.3,478.6z" fill="#202f5a"/></g></g></g><g id="change3_6"><path d="M321.2,342.9c-0.8-2.4-3.7-1.4-5.5-1.5c-19.3-0.1-38.5,1.3-57.8,2.2c-47.9-0.2-95.7,0.9-143.6,0.8 c-6.2,0.2-12.5-0.9-18.6-0.5c-1.9,0.7-1.3,3.8,0.7,3.7c36.8,3,73.8,0.3,110.6,0.4c17.9-0.1,35.8,0.3,53.8-0.4 c18.5-1,37-2.7,55.6-1.9C318.4,345.8,321.8,345.8,321.2,342.9z" fill="#202f5a"/></g></g></g></g></svg>