<?xml version="1.0" encoding="UTF-8" standalone="no"?><svg xmlns="http://www.w3.org/2000/svg" xmlns:xlink="http://www.w3.org/1999/xlink" fill="#ff8533" height="25.7" preserveAspectRatio="xMidYMid meet" version="1" viewBox="-9.0 -2.0 509.7 25.7" width="509.7" zoomAndPan="magnify"><g id="change1_1"><path d="M498.1,18.9c0,0.1,2.6-0.8,1.6-0.2C499.8,18.7,498.1,18.9,498.1,18.9z M488.1,17.8c1.2,0.7,6,1.1,7.6,0.2 C493.2,17.9,489.9,18.2,488.1,17.8z M483.5,15.3c-0.5-0.2-0.7-0.1-1.4-0.2C482.4,15.5,480.7,15.3,483.5,15.3z M483.2,15.2 C484.5,15.3,482.4,14.8,483.2,15.2L483.2,15.2z M478,14.2c-3,0.2,0.4,1,1.2,0.6C478.9,14.5,477.4,14.3,478,14.2z M475.9,15.6 l0.9-0.1C476.6,15.4,476.4,15.3,475.9,15.6z M477.6,15.5c-0.2,0.3,0.2,0,1-0.1C478,15.1,475.7,16.2,477.6,15.5z M479.6,15.6 c0.9,0.3,2.1,0.5,0.4,0.7C483.1,16.4,482.7,15.7,479.6,15.6z M487.4,18.8c0.6,0.3,1.7,0.4,2.3,0.1C489.2,19,487.4,18.4,487.4,18.8z M467.5,13.7c0,0.8,1.1,1,1.8,0.7C468.7,14.2,467.5,14,467.5,13.7z M468.1,14.6l-1.8,0.2C467.8,15,468.1,14.8,468.1,14.6z M475.6,16.7l3-0.5C478.7,16.2,473.5,16.7,475.6,16.7z M459.8,13.3c0.5-0.1,1.4-0.4,1.9-0.6C461.7,12.7,459.8,13.3,459.8,13.3z M456.1,12.8c0.8-0.4-1-0.8-0.2-1C452.2,12.3,452.5,12,456.1,12.8z M451,12.7c0.5-0.1,1-0.2,1.6-0.3C452.1,12.4,451.5,12.5,451,12.7 z M461.8,13.7c0.3,0.4,0.8,0.8,1.4,0.7C463.1,14.3,462.8,13.9,461.8,13.7z M462.5,14.4c-0.7-0.1-1.3-0.1-1.5-0.2 C461.2,14.3,461.6,14.3,462.5,14.4z M463.4,14.5c-0.1,0-0.1,0-0.2,0C463.3,14.5,463.3,14.5,463.4,14.5z M469.7,16.9 c0.8-0.4-0.4-0.7,1.2-1.1C469.8,16,467.6,16.2,469.7,16.9z M466.3,15l-2.1,0.3C465.1,15.4,465.9,15.8,466.3,15z M463.2,15.4l0.9-0.1 C463.9,15.3,463.4,15.1,463.2,15.4z M454.2,13.5c-0.8,0.2-1.7,0.2-2.8,0.1C452.1,13.9,456.5,14.3,454.2,13.5z M458.2,14 c-0.1,0-0.1,0-0.2,0C458.2,14.1,458.3,14.1,458.2,14z M441.6,13c0.1-0.2-0.1-0.1-0.2-0.1C441.4,12.9,441.6,13,441.6,13z M454.9,14.2 c2.3,0.2,1.6-0.2-0.2-0.1C454.6,14.2,454.6,14.2,454.9,14.2z M448.2,12.8c0.4,0.2,0.9,0.3,1.4,0.4C449.2,13,448.3,12.6,448.2,12.8z M457.8,13.8c0,0,0.1,0,0.1,0C457.7,13.7,457.7,13.7,457.8,13.8z M456.7,14.1c0.5,0,1,0,1.4-0.1C457.6,13.6,457.1,14,456.7,14.1z M439.6,13.7c6.6,2.6-2.2-0.2-3.5,2.5c2.9,0.2,1.9-0.7,6.2,0.2C444.4,15.7,442.6,12.1,439.6,13.7z M441.6,12.9 c0.9,0,4.1,0.5,4.3,0.4C445.1,13.1,442.1,11.8,441.6,12.9z M449.6,13.3C449.9,13.7,448.1,13.4,449.6,13.3c-2.3-0.2-6,0.2-0.2,0.3 c-3.8,1.6,0.3,1.7,1.6,0.9C447.6,13.9,452.9,13.5,449.6,13.3z M467.6,18.1c-0.1-0.1-0.1-0.1-0.1-0.2C467.3,18,467.2,18,467.6,18.1z M464.6,16.1c0,0-0.1-0.1-0.1-0.1C464.4,16,464.5,16,464.6,16.1z M467.8,17.2c-3.6-1.3-4-0.1-0.2,0.2c0.7,0.2,0,0.3,0,0.5 C468,17.8,469.4,17.6,467.8,17.2z M456.1,16.4c0.4-0.5,1.9-0.2,1.6-0.7C456.8,16,452.5,15.3,456.1,16.4z M441.6,11.9l-1.8,0.8 C440.3,12.7,441.4,12.6,441.6,11.9z M437.3,11.8l-1.1,0.3C436.7,12.2,437.3,12.6,437.3,11.8z M212.2,7l-0.9,0.1 C211.8,7.1,212,7,212.2,7z M218.8,7.2l0.2-0.3C218.6,7.1,218.5,7.2,218.8,7.2z M339.4,5.6c-1.3-0.6-2.7-1.5-2.6-0.9 C337.2,5.9,338.8,5.2,339.4,5.6z M272.3,5.8c0.4,0.4,0.9-0.2,1.3-0.3C273.2,5.6,272.7,5.7,272.3,5.8z M269.5,7.8 c0.4,0.2,0.9,0.3,1.7,0.5L269.5,7.8z M176.7,7.2l-1,0.6C177.3,7.8,176.6,7.5,176.7,7.2z M396.4,9.6c-1.1-0.3-2-0.5-2.8-0.6 C394.9,9.4,396,10.1,396.4,9.6z M215,0.5c-0.6,0.1-0.8,0.2-0.8,0.4C214.8,0.7,215.1,0.6,215,0.5z M393.6,9c-1-0.3-2.1-0.6-3.3-0.2 C391.4,9.1,392.4,8.8,393.6,9z M48.6,16.2c-0.1,0-0.2,0-0.3,0C48.3,16.3,48.5,16.2,48.6,16.2z M12.1,17.7c-0.3,0-0.7,0.2-1.5,0.5 C10.9,18,11.5,17.9,12.1,17.7z M421.2,10.9C422,10.9,421.3,10.8,421.2,10.9L421.2,10.9z M425.1,13.6c-0.2,0.1-0.3,0.1-0.4,0.3 C424.8,13.7,424.9,13.6,425.1,13.6z M381.7,12C381.6,12,381.6,12,381.7,12C381.8,12.2,381.8,12.1,381.7,12z M422.4,11.2 c-0.3-0.1-0.7-0.2-1.1-0.3C421.5,11,421.8,11.1,422.4,11.2z M422.3,10.9c0.3,0,0.5,0.1,0.7,0.1C423.1,10.9,423,10.9,422.3,10.9z M421.2,10.9c-0.2,0-0.6,0-1.2-0.1C420.4,10.8,421.5,11.1,421.2,10.9z M116.9,6.6c-0.1,0-0.1,0-0.2,0C115.9,6.9,116.2,6.8,116.9,6.6 z M317.1,10.8C317.2,10.7,317.2,10.7,317.1,10.8C317.1,10.7,317.1,10.8,317.1,10.8z M314,11.1c1.3-0.7,2.1-0.6,3-0.3 C316.2,7.7,315.4,9.9,314,11.1z M420.4,13.4c1.8,0.4-2.2,0.4-0.9,1.1c3.5,1.5-13.8-1-14.3-1.1c2.1,0.4,4.7,0.2,1.3-0.5 c1,0.2,8.2,2.3,5.1-1.3c-4.5-0.5-26.7,0.6-13.1,2.5c-1.6,0.2-4.5,0.3-4.6,0.8c-1.6-1.1,3.1-0.1,0.9-1.1c-4.2,0.8-14.9-5.1-17.8-0.5 c-4.5-0.5-3.9,0-8.1,0.1c4.3-4.9-9.6-6.7-3.9,0.7c-6.4-1.7-6.4-1.2-10.9-1.1c3.8-4.3-8.2-0.8-6.5,0.1c3.7,0,8.8-1.7,1.8,0.9 c0,0-5.3-0.6-5.3-0.6c0.7,0,2.7-0.1,1.9-0.6c-8.7,0,13.4-6,3.9-4.6c-3.2-1.6-7.6,3.3-8.6,3.6c-2.6-6-11.3,4.1-12-2.1 c-1.4,0-4.7,3.1-3.2-0.4c-3.2,1.4-2.5,1.8-6-0.1c0.3,2.4-1.2,1.8-3.3,1.5c3.1-0.4,1-3,1.7-4c-10.5,7.3-23.3-1.3-28.8,2.8 c-2.2-0.9-4.7-0.8-6.9-0.3c-1-0.9,4.6-1.4,5.8-0.6c0.5-4.7-8.2,0.2-10.7,0.3c-3-0.3-5.7-1.6-7.2-1.4c-0.6-1.7,6.5-1.5,2.4-2.2 c2.7-1.5-2.7-0.3-2.9-0.5c2.3,0.9-2.4,3-3.7,2.2c-6.1,2.6-12.3-2.1-17.5,1.2c0.3-2-6.1,0.5-8-0.5c-3.8,0,1.6,1.5-1.6,1.2 c-1.1-1.8-18.1-2.9-9,0.5c-6.3-2-4.1-1.4-9.9-2.6c4.1,0,2.8-1.3,0.3-0.4c-0.3-0.2,1.3-0.1,0.3-0.4c-9.7,2.1-15.6-0.5-25.2,2.8 c-3.3-0.8,5.2-1.1,0.3-1.9c6-0.5-5.9,0.2-6.6-0.6c-2.8,2.1-7.8,0.1-13.3,0.8c-4.4-0.2-15.7,1.5-12-1c-5.2-0.4-4.3,1.5-10.2,0.9 c7.3-0.6-1.5-2.9-1.1-0.3c-1.4-0.7-6,1-5-0.5c-2.3,0.2-2.4,0.6-0.4-0.7c-7,0.6-7.3,2.4-13.7,1.6c1.5,2.7-3.4-1.7-7.5-0.4 c1.9,0.4-1.5,1.4,2.9,1.2c-6.8,0.4-6.6-2.2-13.6,0.3c1-1.3-2,0.2-3.1-0.2c2.2-1,6.4-0.4,6.7-1.5c-0.2-1.1-12.3,0.7-4.8,0.2 c-34.6,3.1-67.8,7.9-107.8,17C-9,17.7,47.2,12.6,52.7,8.9c43.1-3.3,55.9-9.9,96.2-6.4c-2.6-0.3,0,1.1,2,0.7 c-1.8-0.4,3.2-1.4-1.2-1.5c11.5-3.7,25.9-0.1,37.8-0.9c12.2,0.5,40.7-0.3,47.3,0c11.9,5.3,21.6,1.1,36.8,2.6c-4,0.9,2.2,0,3.3,0.8 c0.2-2.7,6.1-2.5,4.1-1c53,4,109.1,3.9,156.3,9.6C424,14.8,430.9,12.6,420.4,13.4z M108.1,2.8l-0.6-0.1 C107.2,2.8,106.9,3.1,108.1,2.8z M228.5,7.2c-1-0.3-1.6-0.7-2.3,0.1C226.6,7.7,227.8,7.3,228.5,7.2z M276.9,7.3 c-0.7-0.2-1.4-0.3-2-0.2C275.7,7.4,276.4,7.5,276.9,7.3z M325.6,6.6c-0.5,0-0.2,0.1-0.2,0.2C325.4,6.8,325.5,6.7,325.6,6.6z M411.9,10.7C410.9,10.5,410.4,10.4,411.9,10.7C411.8,10.8,411.8,10.7,411.9,10.7z M271.4,8c-0.2-0.1-0.2-0.3-0.2-0.4 C270.9,7.7,270.9,7.9,271.4,8z M176.9,7c-0.1,0-0.2,0-0.2,0.1C176.7,7.2,176.9,7,176.9,7z M370.1,14c-0.6-0.1-0.9-0.3-1.1-0.4 C369,13.7,369.2,13.9,370.1,14z M429.7,11.2l-1.7,0C429.3,11.2,429.5,11.9,429.7,11.2z M445.4,16.6c0.3-0.1,1,0.2,0.8-0.4 C445.1,16.2,444.3,16.4,445.4,16.6z M431.4,13.6c0.1,0.6,1.3,0.5,2.5,0.5C433.7,13.5,433.3,13.3,431.4,13.6z M434.3,14.1 c0.4,0,0.8,0,1.2,0.1C435.6,13.8,435,14,434.3,14.1z M418.3,11.1c0.6,0.2,0.4-0.7,0.8-0.4C419.8,10,415,11.3,418.3,11.1z M431.2,15.4l1.2,0.2C432,14.8,431.7,14.9,431.2,15.4z M422.3,14.3l2,0.4C425.6,14.2,421.8,14.2,422.3,14.3z M424.8,14.5 c0.7,0.1,1.3,0.1,1.7,0C426.1,14.4,425.4,14.4,424.8,14.5z M427.5,15.2l2,0.4C429.1,15.4,427.9,15.3,427.5,15.2z M400.3,12.6l-2.2,0 C397.4,13.2,400.8,13,400.3,12.6z M405.8,15.3l1.1-0.3C405.9,14.6,405.9,14.1,405.8,15.3z M400.4,14.7c-0.2,0.2-3.3,0.5-0.5,0.6 C400.2,15.1,402.4,15.1,400.4,14.7z M367.4,11.3l0-1.5C367.4,10.3,366.2,11.6,367.4,11.3z M338.7,11.9c-4.1,0.7-0.7,1.2,1.3,0.7 C340.6,12.3,338.1,12.2,338.7,11.9z M338.7,11.9c0.3,0,0.5-0.1,0.8-0.2C339.1,11.8,338.9,11.8,338.7,11.9z M4.3,19.1l-1.7,0.2 C3,19.3,4,19.5,4.3,19.1z M0,21.3c0.4-0.1,1.1-0.4,1.4-0.3C0.8,19.8,0.5,20.5,0,21.3z M233.1,9.2c0.4-0.5-0.5-0.5-1.3-0.6 C231.8,8.6,233.1,9.2,233.1,9.2z M210.1,7.8c1,0.3-0.3-0.6-0.3-0.8C209.8,7,210.1,7.8,210.1,7.8z M190.7,8.6c0.8,0,1.7-0.1,2.5-0.1 C191.5,8.6,190.5,7.5,190.7,8.6z" fill="inherit"/></g></svg>