<?xml version="1.0" encoding="UTF-8" standalone="no"?><svg xmlns="http://www.w3.org/2000/svg" xmlns:xlink="http://www.w3.org/1999/xlink" fill="#000000" height="93.6" preserveAspectRatio="xMidYMid meet" version="1" viewBox="0.0 -2.3 595.7 93.6" width="595.7" zoomAndPan="magnify"><g id="change1_1"><path d="M595.7,81.1c-0.9-48.3-28.8-77.8-64.8-80.6s-51.7,5.9-68.4,29c-8.7,12-14.1,26.3-17.4,37.2 c-3.2-11-8.7-25.2-17.4-37.2c-16.7-23.1-32.5-29.8-68.4-27c-28.9,2.3-53.2,22.4-62.1,55.2c-10.3-28.6-33.2-46-59.9-48.1 c-36-2.8-51.7,3.9-68.4,27c-7.4,10.3-12.5,22.3-15.9,32.4c-8-35.3-33.1-57-63.2-59.4c-36-2.8-51.8,3.9-68.4,27S0,91.3,0,91.3h6.6 c0,0,11.8-31.5,21.4-49.4S54.8,23,68,20.9s27.2,3.1,50.8,12.6s28.1,57.8,28.1,57.8h8.8c0-1.3-0.1-2.6-0.1-3.9 c3.5-9,12.4-31.4,20-45.5c9.6-17.9,26.8-18.9,39.9-21s22.1,3.1,45.8,12.6s28.1,57.8,28.1,57.8h13.8c-0.1-3.1-0.2-6.1-0.5-9 c1.2-8.4,7.1-42.6,27.8-50.9c23.7-9.5,37.7-14.7,50.9-12.6s30.3-1.9,39.9,16s18.5,49.4,18.5,49.4h10c0,0,9.8-31.5,19.5-49.4 s26.8-18.9,39.9-21c13.1-2.1,27.2,3.1,50.9,12.6S582,84.1,582,84.1L595.7,81.1z" fill="#f6b1b1"/></g></svg>