<?xml version="1.0" encoding="UTF-8" standalone="no"?><svg xmlns="http://www.w3.org/2000/svg" xmlns:xlink="http://www.w3.org/1999/xlink" fill="#000000" height="500.3" preserveAspectRatio="xMidYMid meet" version="1" viewBox="-1.2 0.1 400.6 500.3" width="400.6" zoomAndPan="magnify"><g><g id="change1_1"><path d="M381,472.4c-1.8-20.9-4.3-41.7-5.7-62.6c-1.3-40.9,0-81.9-5.2-122.6c-2.6-28.1-3.5-87.1-3.6-87.4 c-0.3-0.9-1.1-1.4-1.9-1.5c-1-0.1-19.3,0.6-30.2,0.2c-25.4-0.9-50.7-0.4-76.1,0.6c-12.7,0-25.3,1.5-38,2.5 c-20.7,0.8-41.3,1.8-62,2.6c-23.5,1.6-47,1.8-70.4,2.7c-15.8,1-31.6,2.7-47.4,3c-2.7,0.2-5.7-0.1-8.4,0.4c-1.2-0.8-3.3,0.1-3.2,1.7 c1.8,26-0.6,52-0.3,78c0.5,41.8,2.6,83.6,1.6,125.5c-0.6,23.9,0.3,47.9,0.4,71.8c0.1,2.9-0.1,5.8,0.2,8.6c0.1,1.3,0.6,2.7,1.8,3.4 c1.8,1.1,4.1,0.6,6.1,0.7c5.4-0.1,10.8-0.2,16.3-0.3c29.7-0.2,59.3-2.8,89-4.6c34.1-3,68.2-3.5,102.4-4c20.8-0.2,41.6,0.5,62.3-1.4 c18.5-1.4,37-2.4,55.2-5.5c5.2-1.2,11.6-1,16.1-3.7C382,478.3,381.1,475.1,381,472.4z" fill="#f66125"/></g><g fill="#32ad62" id="change2_5"><path d="M142,214.6c-8-1.1-13.9,1.7-21.4,1.1c-10.2-0.5-20.4,0.3-30.5-0.8c-10.1-1.2-20.4-3.9-31.7-3.7 c-8,0-18.6,4.2-24.7,5.7c-2.1,0.5-2.7-0.5-4.2,0.6c-0.1,0.2-0.2,0.4-0.3,0.6c-0.6,0-1.2,0.4-1.4,1c-0.4,7.4-0.2,15,0.9,22.4 c0.4,2.8,3.1,5.3,6,3.7c3.2-2.5,3.9-7.8,5.5-11.4c0.5-1,1.6-3.3,2.6-4.3c0.6-0.5,0.9-0.8,1-0.9c0.1,0,0.1-0.1,0.3-0.2 c1.6-0.2,1.5,2.8,2.9,6.2c0.7,2.3,3.1,4.6,5.5,3.2c3.2-2,4.1-7.9,6.4-7.6c0.1,0,0.1,0,0.2,0.1c0.2,0.2,0.5,0.4,0.9,0.7 c0.9,0.9,1.8,1.9,2.8,2.6c2.1,1.9,5.2,1.5,7-0.5c1.8-1.7,2.5-3.5,3.6-3.7c0.5-0.1,1.5-0.2,3.1,0.6c1.1,0.7,1.8,1.6,3.4,2.5 c3.6,2.1,7.1-0.7,10.1-2.6c0.8-0.5,2.6-0.6,4-0.3c1.5,0.3,2.7,1.4,4.7,2.7c3.4,2.5,8.9-1.2,10.4-2c0,0,0,0,0.1,0 c0.1,0,0.1,0,0.2,0c0.1,0,0.3,0.1,0.4,0.1c0,0,0,0,0,0c0,0,0.1,0,0.1,0.1c0.1,0.1,0.3,0.1,0.4,0.2c0.3,0.2,0.8,0.8,0.9,0.9 c2.8,3.6,2.3,9.4,5.3,14.1c4.1,5.3,8.1-0.5,9.2-4.8c1.5-5,0.7-9.9,2.5-12.3c0.1,0.1,0.2,0.1,0.3,0.2c2.3,1.7,5.4,2.9,8.2,1.4 c2.5-1.1,3.1-4,4.6-5.9c0.2-0.2,0.3-0.4,0.5-0.6c0.1-0.1,0.2-0.2,0.3-0.3c0.1-0.1,0.3-0.2,0.5-0.3c-0.3,0.1,1.6-0.5,2.1-1.5 C146,219.1,145,215.1,142,214.6z"/><path d="M141.6,218.2C141.6,218.1,141.5,218.1,141.6,218.2c-0.1-0.1-0.1-0.1-0.1-0.1 C141.5,218.1,141.6,218.1,141.6,218.2C141.6,218.2,141.6,218.2,141.6,218.2z"/></g><g fill="#32ad62" id="change2_2"><path d="M374.9,213.7c-8-1.1-13.9,1.7-21.4,1.1c-10.2-0.5-20.4,0.3-30.5-0.8c-10.1-1.2-20.4-3.9-31.7-3.7 c-8,0-18.6,4.2-24.7,5.7c-2.1,0.5-2.7-0.5-4.2,0.6c-0.1,0.2-0.2,0.4-0.3,0.6c-0.6,0-1.2,0.4-1.4,1c-0.4,7.4-0.2,15,0.9,22.4 c0.4,2.8,3.1,5.3,6,3.7c3.2-2.5,3.9-7.8,5.5-11.4c0.5-1,1.6-3.3,2.6-4.3c0.6-0.5,0.9-0.8,1-0.9c0.1,0,0.1-0.1,0.3-0.2 c1.6-0.2,1.5,2.8,2.9,6.2c0.7,2.3,3.1,4.6,5.5,3.2c3.2-2,4.1-7.9,6.4-7.6c0.1,0,0.1,0,0.2,0.1c0.2,0.2,0.5,0.4,0.9,0.7 c0.9,0.9,1.8,1.9,2.8,2.6c2.1,1.9,5.2,1.5,7-0.5c1.8-1.7,2.5-3.5,3.6-3.7c0.5-0.1,1.5-0.2,3.1,0.6c1.1,0.7,1.8,1.6,3.4,2.5 c3.6,2.1,7.1-0.7,10.1-2.6c0.8-0.5,2.6-0.6,4-0.3c1.5,0.3,2.7,1.4,4.7,2.7c3.4,2.5,8.9-1.2,10.4-2c0,0,0,0,0.1,0 c0.1,0,0.1,0,0.2,0c0.1,0,0.3,0.1,0.4,0.1c0,0,0,0,0,0c0,0,0.1,0,0.1,0.1c0.1,0.1,0.3,0.1,0.4,0.2c0.3,0.2,0.8,0.8,0.9,0.9 c2.8,3.6,2.3,9.4,5.3,14.1c4.1,5.3,8.1-0.5,9.2-4.8c1.5-5,0.7-9.9,2.5-12.3c0.1,0.1,0.2,0.1,0.3,0.2c2.3,1.7,5.4,2.9,8.2,1.4 c2.5-1.1,3.1-4,4.6-5.9c0.2-0.2,0.3-0.4,0.5-0.6c0.1-0.1,0.2-0.2,0.3-0.3c0.1-0.1,0.3-0.2,0.5-0.3c-0.3,0.1,1.6-0.5,2.1-1.5 C379,218.2,378,214.2,374.9,213.7z"/><path d="M374.5,217.3C374.5,217.2,374.4,217.2,374.5,217.3c-0.1-0.1-0.1-0.1-0.1-0.1 C374.4,217.2,374.5,217.2,374.5,217.3C374.5,217.3,374.5,217.3,374.5,217.3z"/></g><g id="change3_1"><path d="M397,210.6c-8.7-13.9-16.5-28.2-25.3-42c-3.8-6.2-7.5-12.5-11.3-18.7c-1.2-2.3-1.5-2.5-2-4.9 c-0.2-3-0.5-11.3,0.2-16.1c0-0.8-0.5-1.4-1.1-1.6c0,0-0.1-0.1-0.1-0.1c-1.2-1.1-2.8-0.5-4.3-0.6c-42.5,2.4-85,2.7-127.6,3.4 c-34.3,0.7-68.5,2.6-102.7,2c-16.8-0.2-33.7,0.2-50.5,1c-8.1,0.1-18.5,1.2-24.8,0c-1.6-0.3-4.4-0.5-4.5,2c-0.3,4.9,0.1,12.9,0,16 c-2.7,7.2-8.3,17.3-13.7,24.9c-6.3,9.1-11.3,19-17.3,28.3c-3.9,6.4-8.7,11.4-11.9,16.9c-1.3,6.5,16.2,1.9,19.9,1.8 c7.3-1.2,17.7-1.7,26.8-2.2c21.6-1.9,43.2-2,64.8-2.8c6.1-0.3,12.3-0.7,18.4-1c24.6-0.1,49.2-2.1,73.7-1.1 c46.4,2.9,92.9,1.7,139.3,1c12.7,0.1,25.5-0.4,38.2-0.1c5,0.2,10,0,15-0.4c0.2,0.1,0.3,0.3,0.5,0.4c1.3,0.4,2.7-0.7,2.6-2 C399.1,213.1,397.7,212,397,210.6z" fill="#202f5a"/></g><g id="change1_2"><path d="M260,117.4c0.1-5.3,0.2-10.6-0.3-15.9c-0.2-1.2,0-2.7-0.9-3.6c-0.5-0.5-1.2-0.5-1.7-0.3 c-26.7-0.2-53.3,0.2-80,1.2c-11.6,0.7-26.1,0.5-35.6,2.6c-1.7,1-1.6,3.2-1.8,5c0,0.1,0,0.2,0,0.3c0,0.1,0,0.2,0,0.4 c-0.3,12-0.6,24,0.1,36c1.3,21.4-0.1,42.8,2.5,64.1c0.5,4.5,0,10.1,2.9,13.8c1.5,1.5,3.8,1.8,5.8,2.2c6.2,0.8,12.4,0.3,18.6,0.3 c19.7-0.2,39.4-0.5,59.1,0.3c5.6,0.3,11.3,0.7,16.9,0.9c0.2,0,0.5,0,0.7-0.1c3.6,0.1,7.2,0,10.8,0c0.5,0,0.8-0.2,1.1-0.5 c0.4-0.3,0.7-0.7,0.7-1.3c-0.3-2.4-0.4-4.9-0.4-7.3C260.7,185,259.1,149.5,260,117.4z" fill="#f66125"/></g><g fill="#32ad62" id="change2_3"><path d="M261.1,105.3c-1.2-1.7-3.4-2-5.3-2.3c-13.6-0.2-27.3,1.7-40.9,2c-16.4,2.2-32.9,0.3-49.4,0.5 c-7.1,0.2-14.4-0.2-21.2,1.9c-5.3-0.2-6.2,4.4-6.2,8.8c0,3.9-0.4,8.8,3,11.5c1.5,1,3.6,1.1,4.9-0.3c1.8-1.9,3.7-6.3,4.5-7.1 c1-0.3,1.4-0.4,2.7,1.3c2.1,3.2,6.6,3.6,9.8,2c1.6-0.9,2-1.7,3.2-2.3c2.1-1,3.2-1.2,5.5-0.5c3.7,1.6,8.4,5.9,13.5,0.6 c1.8-1.5,2.8-1.9,4.9-0.6c2.1,1.5,4.4,3.2,7.1,3.3c3-0.1,4.2-2.1,6-2.9c0.1,0,0.1-0.1,0.2-0.1c0.3-0.1,0.5-0.2,0.8-0.2 c0.1,0,0.2,0,0.4,0c0.3,0,0.8,0.1,0.8,0.1c0.5,0.1,1.3,0.4,1.6,0.5c3.3,1.6,6.8,4.1,10.6,2.5c2.8-0.8,5.7-3.9,6.9-4.7 c1.4-1,2.6-0.3,4.1,1.9c1.7,2.4,1.6,7.7,4.2,11.1c3.8,5,8.7,2.2,10.9-2.6c1.8-3.2,1.8-6.9,3-10.3c0,0,0-0.1,0.1-0.2 c0.1-0.2,0.2-0.3,0.2-0.3c0,0,0.1-0.1,0.1-0.1c0,0,0,0,0,0c0,0,0.1,0,0.1,0c0.1,0,0.1,0,0.2,0c0,0,0,0,0,0c0,0,0,0,0.1,0 c0.6,0.7,2.3,2.5,4.7,3.3c2.3,0.7,5.3,0.4,7-1.5c2.4-3.2,2.4-6.2,2.6-10.4C261.7,108.5,262,106.7,261.1,105.3z"/><path d="M229.3,116.7C229.3,116.7,229.3,116.8,229.3,116.7C229.1,116.6,229.2,116.7,229.3,116.7z"/></g><g fill="#ffbe4f" id="change4_12"><path d="M74.4,197.5C74.4,197.5,74.4,197.5,74.4,197.5C74.4,197.5,74.4,197.5,74.4,197.5 C74.4,197.5,74.4,197.5,74.4,197.5z"/><path d="M106.3,173.4c-3.8-6.8-10.1-12.9-15.9-17.7c-1-0.9-2.3-2.8-3.7-1.4c-0.2,0.3-0.3,0.5-0.4,0.7 c-6.4,5.5-12.9,11.6-17.6,17.5c-1.1,3,2.8,2.9,4.8,3.1c-0.1,6.7-0.2,13.4-0.8,20.1c0,0.7,0.4,1.3,0.9,1.6c0.1,0.1,0.5,0.2,0.7,0.2 c3.1,0.1,6.3-0.4,9.4-0.4c5.8-0.3,11.8,0.5,16.4,0c2.3-1.1,1.4-2.5,1.6-4.7c0.1-5.4,0-10.9-0.1-16.3c0.8,0,1.7,0,2.5-0.1 c0,0,0.1,0,0.1,0c-0.2,0-0.2,0,0,0C105.6,175.9,106.8,174.7,106.3,173.4z M99.3,173c-0.7,0.4-1,1-1,1.8c0,3.9,0.1,7.9,0.1,11.9 c0,2.4,0,4.7-0.2,7.1c-0.3,0-0.7,0.1-0.8,0.1c-1.3,0.2-7.8-0.2-10.9-0.2c-2.8,0-6.6,0.4-10.5,0.6c0.4-5.8,0.9-15.1,0.7-19.9 c-0.2-2.1-2.5-1.8-4.4-1.8c1.1-1.2,2.6-2.9,3.8-4c3.7-3.8,8-7.2,11.9-10.9c0,0,0,0,0,0c2.7,2.6,5.6,4.8,8,7.7 c1.1,1.3,3.3,4.1,5.5,7.3C100.8,172.6,100,172.7,99.3,173z"/><path d="M74.4,197.5C74.7,197.5,74.7,197.5,74.4,197.5L74.4,197.5z"/></g><g id="change4_13"><path d="M338.7,170.7c-3.8-6.8-10.1-12.9-15.9-17.7c-1-0.9-2.3-2.8-3.7-1.4c-0.2,0.3-0.3,0.5-0.4,0.7 c-6.4,5.5-12.9,11.6-17.6,17.5c-1.1,3,2.8,2.9,4.8,3.1c-0.1,6.7-0.2,13.4-0.8,20.1c0,0.7,0.4,1.3,0.9,1.6c0.1,0.1,0.5,0.2,0.7,0.2 c3.1,0.1,6.3-0.4,9.4-0.4c5.8-0.3,11.8,0.5,16.4,0c2.3-1.1,1.4-2.5,1.6-4.7c0.1-5.4,0-10.9-0.1-16.3c0.8,0,1.7,0,2.5-0.1 c0,0,0.1,0,0.1,0c-0.2,0-0.2,0,0,0C337.9,173.2,339.2,172.1,338.7,170.7z M331.7,170.4c-0.7,0.4-1,1-1,1.8c0,3.9,0.1,7.9,0.1,11.9 c0,2.4,0,4.7-0.2,7.1c-0.3,0-0.7,0.1-0.8,0.1c-1.3,0.2-7.8-0.2-10.9-0.2c-2.8,0-6.6,0.4-10.5,0.6c0.4-5.8,0.9-15.1,0.7-19.9 c-0.2-2.1-2.5-1.8-4.4-1.8c1.1-1.2,2.6-2.9,3.8-4c3.7-3.8,8-7.2,11.9-10.9c0,0,0,0,0,0c2.7,2.6,5.6,4.8,8,7.7 c1.1,1.3,3.3,4.1,5.5,7.3C333.1,170,332.4,170.1,331.7,170.4z" fill="#ffbe4f"/></g><g fill="#ffbe4f"><g id="change4_16"><path d="M218,146.3C218,146.2,218,146.2,218,146.3C218.1,146.1,218.1,146.1,218,146.3z"/><path d="M216.3,153.3c1.3-0.6,2.6-2.5,3-3c1.3-1.9,4.5-4.5,2.2-6.6c-7.5-8.4-26.6-16.7-38.7-5.3 c-2.2,1.9-4.5,4.1-5.6,6.8c-0.4,1.6,1.1,2.8,2.2,3.8c1.3,0.9,2.4,2.5,3.8,3.3c-0.8,16.2-0.8,32.5-0.2,48.7 c0.1,1.6-0.6,3.5,0.5,4.8c1,0.9,2.5,0.9,3.8,1.2c3.9,0.2,10.9-0.1,16.3-0.1c3.8-0.2,7.5-0.3,11.3-0.5c0.9-0.1,2-0.2,2.5-1 c0.7-3.4,0.2-8.9,0.5-12.7C217.2,179.5,216.4,166.4,216.3,153.3z M214.4,203.1c-4,0.2-18.3,0.6-25.5,0.6c-2.3-0.1-2.1,0.1-3-0.1 c-0.2-11.8-0.8-23.6-0.2-35.5c0.1-5.6-0.1-11.3,0.2-17c0-0.5-0.2-0.8-0.6-1c0,0,0,0,0-0.1c-1.6-1.5-3.3-2.9-4.9-4.4 c2.3-3.7,7.3-7.4,11.1-8.7c4.9-1.5,11.5-0.5,15.5,1.4c4.5,1.9,9.8,4.7,11.7,7.1c-0.1,0.2-0.2,0.3-0.3,0.4 c-0.1,0.1-0.1,0.2-0.2,0.2c0,0-0.1,0.1-0.2,0.2c-0.1,0.1-0.2,0.2-0.3,0.4c-0.2,0.6-3,3-2,2.2c-0.7,0.6-1.6,1.3-1.9,2.2 c0,0,0,0,0,0c-0.4,0.7-0.1,1.5-0.2,2.3c0,8.2-0.1,16.4,0.4,24.6C214.8,186.4,214.8,195.8,214.4,203.1z"/></g><g id="change4_7"><path d="M209.9,152.9c-0.3-1.4-0.4-2.9-1.3-4.2c-1.4-1.9-3.6-3-5.4-4.4c-0.1-0.1-0.3-0.3-0.4-0.3 c0.5,0.3-0.5-0.4-0.7-0.6c-0.7-0.5-1.2-1.2-2.1-1.3c0,0-0.1,0-0.1,0c-0.4-0.3-0.9-0.4-1.4-0.1c-3.8,2.4-8.7,4.9-9.3,9.8 c-1.9,14.3,1,31.6,0.9,46.9c0,1,0.5,1.9,1.5,2.2c0.2,0.1,0.7,0.2,0.9,0.2c0,0,0,0,0,0c0,0,0,0,0,0c0,0,0,0,0,0 c5.2,0.2,10.3-0.4,15.5-0.4c0.7,0,1.4-0.4,1.7-1c1.1-3.4,0.6-7.1,0.6-10.6c-0.2-5.4-0.1-10.8,0.1-16.2 C210.7,166.2,210.8,159.5,209.9,152.9z M191.2,156.7c0.3-3,0.1-5.2,1.5-7.1c1.4-1.8,3.5-3.2,6.4-5c0.6,0.5,1,0.7,1.8,1.5 c2.3,1.9,5.3,3.9,5.2,4.1c1.6,3,1.5,7.9,1.6,12.6c0.1,3.6-0.1,7.2-0.3,10.8c-2.8-0.1-5.6,0-8.3,0.1c-2.1,0.3-5.1-0.4-7.4-0.3 C191.4,167.5,191.1,161.6,191.2,156.7z M207,197.6c-1.6,0-5.6,0.4-7.5,0.3c-1.7,0.2-6,0.3-6.7,0.3c0.1-5.1-0.5-13.2-0.9-21.7 c5.1,0.3,11.4,0.2,15.4,0.2c-0.1,1.7-0.2,3.4-0.2,5.2C206.9,186.8,207.4,193.7,207,197.6z"/></g></g><g fill="#ffbe4f"><g id="change4_1"><path d="M105.7,250.5C105.8,250.5,105.8,250.5,105.7,250.5C105.9,250.3,105.8,250.3,105.7,250.5z"/><path d="M104,257.5c1.3-0.6,2.6-2.5,3-3c1.3-1.9,4.5-4.5,2.2-6.6c-7.5-8.4-26.6-16.7-38.7-5.3 c-2.2,1.9-4.5,4.1-5.6,6.8c-0.4,1.6,1.1,2.8,2.2,3.8c1.3,0.9,2.4,2.5,3.8,3.3c-0.8,16.2-0.8,32.5-0.2,48.7 c0.1,1.6-0.6,3.5,0.5,4.8c1,0.9,2.5,0.9,3.8,1.2c3.9,0.2,10.9-0.1,16.3-0.1c3.8-0.2,7.5-0.3,11.3-0.5c0.9-0.1,2-0.2,2.5-1 c0.7-3.4,0.2-8.9,0.5-12.7C105,283.8,104.1,270.6,104,257.5z M102.2,307.4c-4,0.2-18.3,0.6-25.5,0.6c-2.3-0.1-2.1,0.1-3-0.1 c-0.2-11.8-0.8-23.6-0.2-35.5c0.1-5.6-0.1-11.3,0.2-17c0-0.5-0.2-0.8-0.6-1c0,0,0,0,0-0.1c-1.6-1.5-3.3-2.9-4.9-4.4 c2.3-3.7,7.3-7.4,11.1-8.7c4.9-1.5,11.5-0.5,15.5,1.4c4.5,1.9,9.8,4.7,11.7,7.1c-0.1,0.2-0.2,0.3-0.3,0.4 c-0.1,0.1-0.1,0.2-0.2,0.2c0,0-0.1,0.1-0.2,0.2c-0.1,0.1-0.2,0.2-0.3,0.4c-0.2,0.6-3,3-2,2.2c-0.7,0.6-1.6,1.3-1.9,2.2 c0,0,0,0,0,0c-0.4,0.7-0.1,1.5-0.2,2.3c0,8.2-0.1,16.4,0.4,24.6C102.6,290.6,102.5,300.1,102.2,307.4z"/></g><g id="change4_17"><path d="M97.6,257.1c-0.3-1.4-0.4-2.9-1.3-4.2c-1.4-1.9-3.6-3-5.4-4.4c-0.1-0.1-0.3-0.3-0.4-0.3 c0.5,0.3-0.5-0.4-0.7-0.6c-0.7-0.5-1.2-1.2-2.1-1.3c0,0-0.1,0-0.1,0c-0.4-0.3-0.9-0.4-1.4-0.1c-3.8,2.4-8.7,4.9-9.3,9.8 c-1.9,14.3,1,31.6,0.9,46.9c0,1,0.5,1.9,1.5,2.2c0.2,0.1,0.7,0.2,0.9,0.2c0,0,0,0,0,0c0,0,0,0,0,0c0,0,0,0,0,0 c5.2,0.2,10.3-0.4,15.5-0.4c0.7,0,1.4-0.4,1.7-1c1.1-3.4,0.6-7.1,0.6-10.6c-0.2-5.4-0.1-10.8,0.1-16.2 C98.5,270.4,98.6,263.7,97.6,257.1z M79,261c0.3-3,0.1-5.2,1.5-7.1c1.4-1.8,3.5-3.2,6.4-5c0.6,0.5,1,0.7,1.8,1.5 c2.3,1.9,5.3,3.9,5.2,4.1c1.6,3,1.5,7.9,1.6,12.6c0.1,3.6-0.1,7.2-0.3,10.8c-2.8-0.1-5.6,0-8.3,0.1c-2.1,0.3-5.1-0.4-7.4-0.3 C79.1,271.7,78.9,265.9,79,261z M94.8,301.8c-1.6,0-5.6,0.4-7.5,0.3c-1.7,0.2-6,0.3-6.7,0.3c0.1-5.1-0.5-13.2-0.9-21.7 c5.1,0.3,11.4,0.2,15.4,0.2c-0.1,1.7-0.2,3.4-0.2,5.2C94.7,291,95.2,297.9,94.8,301.8z"/></g></g><g fill="#ffbe4f"><g id="change4_10"><path d="M94.7,406C94.7,406,94.7,406,94.7,406C94.8,405.8,94.7,405.8,94.7,406z"/><path d="M93,413c1.3-0.6,2.6-2.5,3-3c1.3-1.9,4.5-4.5,2.2-6.6c-7.5-8.4-26.6-16.7-38.7-5.3c-2.2,1.9-4.5,4.1-5.6,6.8 c-0.4,1.6,1.1,2.8,2.2,3.8c1.3,0.9,2.4,2.5,3.8,3.3c-0.8,16.2-0.8,32.5-0.2,48.7c0.1,1.6-0.6,3.5,0.5,4.8c1,0.9,2.5,0.9,3.8,1.2 c3.9,0.2,10.9-0.1,16.3-0.1c3.8-0.2,7.5-0.3,11.3-0.5c0.9-0.1,2-0.2,2.5-1c0.7-3.4,0.2-8.9,0.5-12.7C93.9,439.2,93,426.1,93,413z M91.1,462.9c-4,0.2-18.3,0.6-25.5,0.6c-2.3-0.1-2.1,0.1-3-0.1c-0.2-11.8-0.8-23.6-0.2-35.5c0.1-5.6-0.1-11.3,0.2-17 c0-0.5-0.2-0.8-0.6-1c0,0,0,0,0-0.1c-1.6-1.5-3.3-2.9-4.9-4.4c2.3-3.7,7.3-7.4,11.1-8.7c4.9-1.5,11.5-0.5,15.5,1.4 c4.5,1.9,9.8,4.7,11.7,7.1c-0.1,0.2-0.2,0.3-0.3,0.4c-0.1,0.1-0.1,0.2-0.2,0.2c0,0-0.1,0.1-0.2,0.2c-0.1,0.1-0.2,0.2-0.3,0.4 c-0.2,0.6-3,3-2,2.2c-0.7,0.6-1.6,1.3-1.9,2.2c0,0,0,0,0,0c-0.4,0.7-0.1,1.5-0.2,2.3c0,8.2-0.1,16.4,0.4,24.6 C91.5,446.1,91.4,455.6,91.1,462.9z"/></g><g id="change4_5"><path d="M86.5,412.6c-0.3-1.4-0.4-2.9-1.3-4.2c-1.4-1.9-3.6-3-5.4-4.4c-0.1-0.1-0.3-0.3-0.4-0.3 c0.5,0.3-0.5-0.4-0.7-0.6c-0.7-0.5-1.2-1.2-2.1-1.3c0,0-0.1,0-0.1,0c-0.4-0.3-0.9-0.4-1.4-0.1c-3.8,2.4-8.7,4.9-9.3,9.8 c-1.9,14.3,1,31.6,0.9,46.9c0,1,0.5,1.9,1.5,2.2c0.2,0.1,0.7,0.2,0.9,0.2c0,0,0,0,0,0c0,0,0,0,0,0c0,0,0,0,0,0 c5.2,0.2,10.3-0.4,15.5-0.4c0.7,0,1.4-0.4,1.7-1c1.1-3.4,0.6-7.1,0.6-10.6c-0.2-5.4-0.1-10.8,0.1-16.2 C87.4,425.9,87.5,419.2,86.5,412.6z M67.9,416.4c0.3-3,0.1-5.2,1.5-7.1c1.4-1.8,3.5-3.2,6.4-5c0.6,0.5,1,0.7,1.8,1.5 c2.3,1.9,5.3,3.9,5.2,4.1c1.6,3,1.5,7.9,1.6,12.6c0.1,3.6-0.1,7.2-0.3,10.8c-2.8-0.1-5.6,0-8.3,0.1c-2.1,0.3-5.1-0.4-7.4-0.3 C68,427.2,67.8,421.3,67.9,416.4z M83.7,457.3c-1.6,0-5.6,0.4-7.5,0.3c-1.7,0.2-6,0.3-6.7,0.3c0.1-5.1-0.5-13.2-0.9-21.7 c5.1,0.3,11.4,0.2,15.4,0.2c-0.1,1.7-0.2,3.4-0.2,5.2C83.6,446.5,84.1,453.4,83.7,457.3z"/></g></g><g fill="#202f5a" id="change3_4"><path d="M142.9,247.4c-1.1-1.2-3.2-0.3-3.2,1.3c0,27.8-0.6,55.6-1,83.3c0.6,1.7,3.3,1.1,3.2-0.6 c0.7-23.5,1.3-47.1,1.3-70.6c0-4,0-8,0.2-12C143.4,248.2,143.2,247.8,142.9,247.4z"/><path d="M263.5,250.2c-0.1-1.1,0.3-2.4-0.6-3.2c-1.1-1.2-3.3-0.3-3.3,1.4c1.1,25.9-0.4,51.9-1.3,77.7 c0.7,1.8,3.6,1.2,3.5-0.7C263.4,300.3,264.4,275.3,263.5,250.2z"/></g><g fill="#32ad62" id="change2_4"><path d="M266.4,236.9c-0.2-0.5-0.7-1-1.6-1c-21-1.9-45.8-3-68.4-2.4c-19,0.2-37.9,2.4-56.9,2.6 c-2.5,0.1-3.4-0.7-5.3-0.2c-0.2,0.1-0.4,0.4-0.5,0.6c-0.7,0.3-1.2,0.9-1.1,1.7c1,7.6-0.2,15.3,1.4,22.8c0.5,3.5,4.2,3.5,5.4,0.5 c2-5.3,5.3-12.9,7.8-15.2c0,0,0,0,0,0c0.6,0.7,1.3,4.2,2.3,6.6c2.8,5,7-0.8,9.3-3.3c0.1-0.1,0.2-0.2,0.3-0.2c0,0,0,0,0.2-0.2 c0.2-0.1,0.4-0.2,0.5-0.3c0.1,0,0.2,0,0.3,0c0,0,0,0,0,0c0.1,0,0.1,0,0.2,0c0.8,0.4,1.7,1.4,3.1,2.4c2.9,2.2,7-2.4,8-2.6 c1.4-0.7,1.2,0.8,4.8,2.9c2.7,0.8,4.6-1.9,6.8-3c0.1-0.1,0.2-0.1,0.3-0.1c0.1,0,0.3-0.1,0.4-0.1c0.1,0,0.1,0,0.2,0 c0.3,0.1,0.9,0.5,1.1,0.6c1,0.8,2,1.8,3.4,1.7c2.2-0.2,3.4-2.5,5-3.8c0.1,0,0.1-0.1,0.2-0.1c2.9,1.4,5.9,9.8,13,3.4 c5.7-5.2,9.8-4,12,3.9c1,3.5,0.8,5.8,1.6,10.1c0.3,1.4,0.6,2.9,1.6,4c5.1,4,7.9-4.5,9.2-8.1c1.8-5.2,2.9-8.7,4.1-10.7 c0.1-0.1,0.1-0.1,0.1-0.2c0,0,0.1-0.1,0.2-0.2c0,0,0,0,0.1,0c0,0,0,0,0.1,0c0,0,0.1,0,0.1,0c0.1,0,0.2,0.1,0.3,0.2 c-0.5-0.4,0.7,0.8,1.3,1.9c0.9,1.9,2.2,6.8,3.8,10.1c4.8,7.4,9.8-7.5,10.9-10.5c0.7,1.7,1.1,5.2,2.2,7.9c0.7,1.9,2.9,2.8,4.7,2 c2.9-1.2,4.2-3,5.7-6.6c1.7-4.9,1.9-7.5,2.9-12.2C267.5,240,268.7,237.7,266.4,236.9z"/><path d="M235.4 248.9L235.4 248.9 235.4 248.9z"/><path d="M263.5,240.7c0-0.1,0-0.2,0.1-0.3C263.4,240.8,263.4,240.8,263.5,240.7z"/><path d="M153.1,250.7c0.2-0.2,0.6-0.6,1.1-1.2C154.2,249.5,153.9,249.7,153.1,250.7z"/></g><g fill="#ffbe4f"><g id="change4_2"><path d="M155.7,406C155.7,406,155.7,406,155.7,406C155.8,405.8,155.8,405.8,155.7,406z"/><path d="M154,413c1.3-0.6,2.6-2.5,3-3c1.3-1.9,4.5-4.5,2.2-6.6c-7.5-8.4-26.6-16.7-38.7-5.3 c-2.2,1.9-4.5,4.1-5.6,6.8c-0.4,1.6,1.1,2.8,2.2,3.8c1.3,0.9,2.4,2.5,3.8,3.3c-0.8,16.2-0.8,32.5-0.2,48.7 c0.1,1.6-0.6,3.5,0.5,4.8c1,0.9,2.5,0.9,3.8,1.2c3.9,0.2,10.9-0.1,16.3-0.1c3.8-0.2,7.5-0.3,11.3-0.5c0.9-0.1,2-0.2,2.5-1 c0.7-3.4,0.2-8.9,0.5-12.7C154.9,439.2,154.1,426.1,154,413z M152.1,462.9c-4,0.2-18.3,0.6-25.5,0.6c-2.3-0.1-2.1,0.1-3-0.1 c-0.2-11.8-0.8-23.6-0.2-35.5c0.1-5.6-0.1-11.3,0.2-17c0-0.5-0.2-0.8-0.6-1c0,0,0,0,0-0.1c-1.6-1.5-3.3-2.9-4.9-4.4 c2.3-3.7,7.3-7.4,11.1-8.7c4.9-1.5,11.5-0.5,15.5,1.4c4.5,1.9,9.8,4.7,11.7,7.1c-0.1,0.2-0.2,0.3-0.3,0.4 c-0.1,0.1-0.1,0.2-0.2,0.2c0,0-0.1,0.1-0.2,0.2c-0.1,0.1-0.2,0.2-0.3,0.4c-0.2,0.6-3,3-2,2.2c-0.7,0.6-1.6,1.3-1.9,2.2 c0,0,0,0,0,0c-0.4,0.7-0.1,1.5-0.2,2.3c0,8.2-0.1,16.4,0.4,24.6C152.6,446.1,152.5,455.6,152.1,462.9z"/></g><g id="change4_3"><path d="M147.6,412.6c-0.3-1.4-0.4-2.9-1.3-4.2c-1.4-1.9-3.6-3-5.4-4.4c-0.1-0.1-0.3-0.3-0.4-0.3 c0.5,0.3-0.5-0.4-0.7-0.6c-0.7-0.5-1.2-1.2-2.1-1.3c0,0-0.1,0-0.1,0c-0.4-0.3-0.9-0.4-1.4-0.1c-3.8,2.4-8.7,4.9-9.3,9.8 c-1.9,14.3,1,31.6,0.9,46.9c0,1,0.5,1.9,1.5,2.2c0.2,0.1,0.7,0.2,0.9,0.2c0,0,0,0,0,0c0,0,0,0,0,0c0,0,0,0,0,0 c5.2,0.2,10.3-0.4,15.5-0.4c0.7,0,1.4-0.4,1.7-1c1.1-3.4,0.6-7.1,0.6-10.6c-0.2-5.4-0.1-10.8,0.1-16.2 C148.5,425.9,148.5,419.2,147.6,412.6z M128.9,416.4c0.3-3,0.1-5.2,1.5-7.1c1.4-1.8,3.5-3.2,6.4-5c0.6,0.5,1,0.7,1.8,1.5 c2.3,1.9,5.3,3.9,5.2,4.1c1.6,3,1.5,7.9,1.6,12.6c0.1,3.6-0.1,7.2-0.3,10.8c-2.8-0.1-5.6,0-8.3,0.1c-2.1,0.3-5.1-0.4-7.4-0.3 C129.1,427.2,128.9,421.3,128.9,416.4z M144.7,457.3c-1.6,0-5.6,0.4-7.5,0.3c-1.7,0.2-6,0.3-6.7,0.3c0.1-5.1-0.5-13.2-0.9-21.7 c5.1,0.3,11.4,0.2,15.4,0.2c-0.1,1.7-0.2,3.4-0.2,5.2C144.7,446.5,145.1,453.4,144.7,457.3z"/></g></g><g fill="#ffbe4f"><g id="change4_28"><path d="M349.6,406C349.6,406,349.6,406,349.6,406C349.7,405.8,349.7,405.8,349.6,406z"/><path d="M347.9,413c1.3-0.6,2.6-2.5,3-3c1.3-1.9,4.5-4.5,2.2-6.6c-7.5-8.4-26.6-16.7-38.7-5.3 c-2.2,1.9-4.5,4.1-5.6,6.8c-0.4,1.6,1.1,2.8,2.2,3.8c1.3,0.9,2.4,2.5,3.8,3.3c-0.8,16.2-0.8,32.5-0.2,48.7 c0.1,1.6-0.6,3.5,0.5,4.8c1,0.9,2.5,0.9,3.8,1.2c3.9,0.2,10.9-0.1,16.3-0.1c3.8-0.2,7.5-0.3,11.3-0.5c0.9-0.1,2-0.2,2.5-1 c0.7-3.4,0.2-8.9,0.5-12.7C348.8,439.2,348,426.1,347.9,413z M346,462.9c-4,0.2-18.3,0.6-25.5,0.6c-2.3-0.1-2.1,0.1-3-0.1 c-0.2-11.8-0.8-23.6-0.2-35.5c0.1-5.6-0.1-11.3,0.2-17c0-0.5-0.2-0.8-0.6-1c0,0,0,0,0-0.1c-1.6-1.5-3.3-2.9-4.9-4.4 c2.3-3.7,7.3-7.4,11.1-8.7c4.9-1.5,11.5-0.5,15.5,1.4c4.5,1.9,9.8,4.7,11.7,7.1c-0.1,0.2-0.2,0.3-0.3,0.4 c-0.1,0.1-0.1,0.2-0.2,0.2c0,0-0.1,0.1-0.2,0.2c-0.1,0.1-0.2,0.2-0.3,0.4c-0.2,0.6-3,3-2,2.2c-0.7,0.6-1.6,1.3-1.9,2.2 c0,0,0,0,0,0c-0.4,0.7-0.1,1.5-0.2,2.3c0,8.2-0.1,16.4,0.4,24.6C346.4,446.1,346.4,455.6,346,462.9z"/></g><g id="change4_29"><path d="M341.5,412.6c-0.3-1.4-0.4-2.9-1.3-4.2c-1.4-1.9-3.6-3-5.4-4.4c-0.1-0.1-0.3-0.3-0.4-0.3 c0.5,0.3-0.5-0.4-0.7-0.6c-0.7-0.5-1.2-1.2-2.1-1.3c0,0-0.1,0-0.1,0c-0.4-0.3-0.9-0.4-1.4-0.1c-3.8,2.4-8.7,4.9-9.3,9.8 c-1.9,14.3,1,31.6,0.9,46.9c0,1,0.5,1.9,1.5,2.2c0.2,0.1,0.7,0.2,0.9,0.2c0,0,0,0,0,0c0,0,0,0,0,0c0,0,0,0,0,0 c5.2,0.2,10.3-0.4,15.5-0.4c0.7,0,1.4-0.4,1.7-1c1.1-3.4,0.6-7.1,0.6-10.6c-0.2-5.4-0.1-10.8,0.1-16.2 C342.3,425.9,342.4,419.2,341.5,412.6z M322.8,416.4c0.3-3,0.1-5.2,1.5-7.1c1.4-1.8,3.5-3.2,6.4-5c0.6,0.5,1,0.7,1.8,1.5 c2.3,1.9,5.3,3.9,5.2,4.1c1.6,3,1.5,7.9,1.6,12.6c0.1,3.6-0.1,7.2-0.3,10.8c-2.8-0.1-5.6,0-8.3,0.1c-2.1,0.3-5.1-0.4-7.4-0.3 C323,427.2,322.7,421.3,322.8,416.4z M338.6,457.3c-1.6,0-5.6,0.4-7.5,0.3c-1.7,0.2-6,0.3-6.7,0.3c0.1-5.1-0.5-13.2-0.9-21.7 c5.1,0.3,11.4,0.2,15.4,0.2c-0.1,1.7-0.2,3.4-0.2,5.2C338.6,446.5,339,453.4,338.6,457.3z"/></g></g><g fill="#ffbe4f"><g id="change4_11"><path d="M338.1,250.5C338.1,250.5,338.1,250.5,338.1,250.5C338.2,250.3,338.2,250.3,338.1,250.5z"/><path d="M336.4,257.5c1.3-0.6,2.6-2.5,3-3c1.3-1.9,4.5-4.5,2.2-6.6c-7.5-8.4-26.6-16.7-38.7-5.3 c-2.2,1.9-4.5,4.1-5.6,6.8c-0.4,1.6,1.1,2.8,2.2,3.8c1.3,0.9,2.4,2.5,3.8,3.3c-0.8,16.2-0.8,32.5-0.2,48.7 c0.1,1.6-0.6,3.5,0.5,4.8c1,0.9,2.5,0.9,3.8,1.2c3.9,0.2,10.9-0.1,16.3-0.1c3.8-0.2,7.5-0.3,11.3-0.5c0.9-0.1,2-0.2,2.5-1 c0.7-3.4,0.2-8.9,0.5-12.7C337.3,283.8,336.5,270.6,336.4,257.5z M334.5,307.4c-4,0.2-18.3,0.6-25.5,0.6c-2.3-0.1-2.1,0.1-3-0.1 c-0.2-11.8-0.8-23.6-0.2-35.5c0.1-5.6-0.1-11.3,0.2-17c0-0.5-0.2-0.8-0.6-1c0,0,0,0,0-0.1c-1.6-1.5-3.3-2.9-4.9-4.4 c2.3-3.7,7.3-7.4,11.1-8.7c4.9-1.5,11.5-0.5,15.5,1.4c4.5,1.9,9.8,4.7,11.7,7.1c-0.1,0.2-0.2,0.3-0.3,0.4 c-0.1,0.1-0.1,0.2-0.2,0.2c0,0-0.1,0.1-0.2,0.2c-0.1,0.1-0.2,0.2-0.3,0.4c-0.2,0.6-3,3-2,2.2c-0.7,0.6-1.6,1.3-1.9,2.2 c0,0,0,0,0,0c-0.4,0.7-0.1,1.5-0.2,2.3c0,8.2-0.1,16.4,0.4,24.6C335,290.6,334.9,300.1,334.5,307.4z"/></g><g id="change4_4"><path d="M330,257.1c-0.3-1.4-0.4-2.9-1.3-4.2c-1.4-1.9-3.6-3-5.4-4.4c-0.1-0.1-0.3-0.3-0.4-0.3 c0.5,0.3-0.5-0.4-0.7-0.6c-0.7-0.5-1.2-1.2-2.1-1.3c0,0-0.1,0-0.1,0c-0.4-0.3-0.9-0.4-1.4-0.1c-3.8,2.4-8.7,4.9-9.3,9.8 c-1.9,14.3,1,31.6,0.9,46.9c0,1,0.5,1.9,1.5,2.2c0.2,0.1,0.7,0.2,0.9,0.2c0,0,0,0,0,0c0,0,0,0,0,0c0,0,0,0,0,0 c5.2,0.2,10.3-0.4,15.5-0.4c0.7,0,1.4-0.4,1.7-1c1.1-3.4,0.6-7.1,0.6-10.6c-0.2-5.4-0.1-10.8,0.1-16.2 C330.9,270.4,330.9,263.7,330,257.1z M311.3,261c0.3-3,0.1-5.2,1.5-7.1c1.4-1.8,3.5-3.2,6.4-5c0.6,0.5,1,0.7,1.8,1.5 c2.3,1.9,5.3,3.9,5.2,4.1c1.6,3,1.5,7.9,1.6,12.6c0.1,3.6-0.1,7.2-0.3,10.8c-2.8-0.1-5.6,0-8.3,0.1c-2.1,0.3-5.1-0.4-7.4-0.3 C311.5,271.7,311.3,265.9,311.3,261z M327.1,301.8c-1.6,0-5.6,0.4-7.5,0.3c-1.7,0.2-6,0.3-6.7,0.3c0.1-5.1-0.5-13.2-0.9-21.7 c5.1,0.3,11.4,0.2,15.4,0.2c-0.1,1.7-0.2,3.4-0.2,5.2C327.1,291,327.5,297.9,327.1,301.8z"/></g></g><g id="change2_1"><path d="M351.6,363.1c-1.3-3.5-5.6-3.5-8.7-3.3c-6.2,0.3-12.4,1.1-18.6,1.7c-12.5,1-24.9,2-37.4,2.7 c-12.4,0.2-24.7-0.4-37.1-0.7c-11.5-0.6-22.9,2.4-34.4,1.7c-4.8-0.5-11.3-0.6-14.5-1.1c-2.6-0.5-5.3-1.1-8-1 c-4,0.5-13.1-0.3-16.1,3.7c-0.3,0.2-0.4,0.5-0.5,0.8c-0.3,0.6-0.5,1.4-0.5,2.2c0,0.5,0.1,1,0.3,1.3c0,5.5,0.7,13.5,6.8,11.7 c2.3-1.4,4.7-5.2,6.2-6.2c3.1-2.1,3.6,1.1,8.7,3.2c1.1,0.4,2.6,0.7,3.6,0c2.2-1.6,3.3-4,4.9-4.3c0,0,0,0,0,0 c0.4,0.1,0.6,0.1,0.8,0.2c0,0,0.1,0,0.2,0.1c1.3,0.6,2.3,1.3,3.5,1.6c1.7,0.5,3.6,0.4,5.3-0.2c1.7-0.7,4-2.3,4.5-2.4 c2-0.6,1.6-0.6,3.1-0.3c1.6,0.9,6.4,2.9,9.4,0.6c2.6-1.6,5.1-2.2,7.2-1.5c2,1.2,8.3,5.5,12.5,4c2.9-1.1,5.6-2.6,7.1-2 c0.1,0.1,0.2,0.1,0.3,0.2c0.3,0.3,1.1,0.9,1.3,1c1.3,1.2,3.4,2.2,3.9,2.3c2.2,0.7,4.8,0.2,6.5-1.3c3-2.1,7.1-3.3,9.1-2.8 c2,2.3,3.2,6,4.6,10.4c0.7,3,1.3,6.1,3.6,8.4c1.8,1.9,4.7,2.8,7.1,1.6c3.3-1.4,4.6-5.3,5.9-8.3c3.1-8.1,2.8-12.2,8.4-10.3 c0,0,0,0,0,0c0.3,0.2,0.7,0.4,1,0.6c1,0.9,2,1.7,3.3,2.1c1.9,0.5,4.1,0.3,5.8-0.8c2-1.3,3.1-3.5,4.8-5.1c0.1-0.1,0.2-0.1,0.4-0.2 c0.1,0,0.1,0,0.2-0.1c1.1-0.1,1,0,1.7,0.1c0.1,0,0.1,0,0.2,0.1c0.1,0.1,0.3,0.2,0.4,0.3c0.1,0.1,0.2,0.1,0.2,0.2 c1.2,1.1,2.5,2.1,4.1,2.7c2.9,1.5,6.5,1.5,8.2-1.7c0.6-1,1.1-2.1,1.8-3.1c0,0,0,0,0,0c0.1-0.1,0.2-0.1,0.2-0.1c0,0,0,0,0,0 c0.2,0,0.3,0.1,0.5,0.2C348.6,375,353.5,368.8,351.6,363.1z" fill="#32ad62"/></g><g><g id="change3_3"><path d="M272.9,236.1c-1.7-2.8-3-4.5-5.3-7.9c-3-4-4.2-9.1-7.5-13c-1.1-1.3-2.9-0.5-4.3-0.3c-0.4,0-0.8,0.1-1.1,0.1 c-17.1-0.3-34.3,0.8-51.4,1.2c-19.1-0.4-41.3,0.2-58.6-0.7c-1,0-1.8,0.8-2.5,1.5c-3.8,4.4-7.4,9.8-10.9,15.8 c-1.7,2.9-5.9,8.1-0.3,9.3c26.6,1.5,53.2-1.3,79.8-0.8c16.9,0.2,33.7,1.1,50.6,1.1c3.9-0.1,8.5,1.2,12-0.7 C275.2,240.1,274,237.7,272.9,236.1z" fill="#202f5a"/></g><g fill="#ffbe4f" id="change4_8"><path d="M156.5,222.3c-2.4,4.7-4.6,9.6-7.1,14.3c-0.5,0.9-0.2,2.1,0.7,2.6c1,0.6,2.5,0,2.8-1.2 c0.2-0.7,2.9-6.2,4.1-8.5c0.8-2.3,2.9-4.3,2.9-6.8C159.5,221.2,157.3,220.9,156.5,222.3z"/><path d="M178.4,223.9c-0.4,4-0.8,6.9-1.7,11.6c-0.3,1,0.3,2.1,1.3,2.3c2.2,0.5,2.5-1.9,2.7-3.5 c0.5-3.1,1.5-8.5,1.6-9.9C182.9,221.6,178.5,221,178.4,223.9z"/><path d="M204.2,224.5c0-2.3-3.6-2.3-3.6,0c0.7,3.1-0.1,7.8,1.2,10.4C206.5,238.1,204.2,227.2,204.2,224.5z"/><path d="M229.3,231.8c-0.1-0.1-0.5-5.5-0.9-7.5c0-3.5-4.7-3.6-4.2-0.1c0.9,3.6,0.9,6.3,1.7,10.8 c0.2,0.7,0.9,1.3,1.6,1.4C230.3,236.6,229.7,233.6,229.3,231.8z"/><path d="M252.7,231.9c-1.7-3.2-3.5-6.3-5.2-9.5c-1.4-2.5-5.3-0.2-3.8,2.2c2,3.4,3.8,6.9,5.8,10.3 c0.2,0.3,0.6,1.2,2.1,1.1C254.3,235.2,253.4,233.2,252.7,231.9z"/></g></g><g fill="#32ad62" id="change2_6"><path d="M180.2,368.4c-0.4-1.4-1.6-2.2-3-2.6c-2.7-0.6-1.3-0.3-4.6-0.6c-7.2-0.2-14.5,0.2-21.7,0.8 c-13.9,1.3-27.9,1.3-41.9,1.9c-14.5,0.7-28.9,2.3-43.4,3.1c-9,0.3-17.9,0.3-26.9-0.4c-2.9-0.1-5.6-0.2-7.4,0.8 c0-0.1,0-0.2-0.1-0.2c-1.1-1.2-3.3-0.3-3.3,1.3c0.6,5.3,0.9,10.6,0.8,16c0.1,5.6-0.1,20.3,8.9,16.9c6.2-3,9.2-17.8,12.1-19.8 c0.2-0.1,0.4-0.2,0.6-0.3c0.1,0,0.1,0,0.2,0c0.5-0.2,1.4,1.8,3.9,3.8c2.3,2.1,5.9,2.2,8.5,0.6c3.9-2.5,5.4-5.8,7.9-6.2 c0.1,0,0.3,0,0.5,0c1.4,0.4,1.2,0.4,1.7,0.6c2.6,1.3,4.8,3.2,7.6,4c2.9,1,6.1,1,9-0.2c2.2-0.7,3.9-2.3,5.8-3.4 c1.8-0.8,2.3-0.9,3.5-0.7c0.2,0,0.4,0.1,0.6,0.2c0.1,0,0.2,0.1,0.3,0.1c1.9,1.8,4.8,8.2,10,8.5c2.2,0.1,4.7-0.6,6.1-2.4 c2.3-3,2.6-5,4.8-6.9c0.1-0.1,0.1-0.1,0.2-0.2c0.2-0.2,0.4-0.3,0.7-0.5c0.2-0.2,0.5-0.3,0.8-0.4c0,0,0.1,0,0.1,0h0 c0.5,0.2,2,2.5,3.5,3.5c2.9,1.5,6.5,0.6,9.2-1.1c5.4-3.9,7.5-4.6,10.6-0.4c3.4,4.8,9.2,7.7,14,2.9c3.9-2.6,3.9-1.1,6,6.3 c1.4,5.4,7.2,7,10.2,1.9C181.2,387.6,181.1,375,180.2,368.4z"/><path d="M171.3 393.9L171.3 393.9 171.3 393.9z"/><path d="M170.6 392.8L170.6 392.8 170.6 392.8z"/></g><g><g id="change3_2"><path d="M346.5,352.4c-2.8-5.5-5.7-11.1-9-16.3c-0.6-0.8-0.5-0.8-1.1-1.2c0,0-0.1-0.1-0.1-0.1 c-2.4-1.5-5.7,0.2-8.4-0.1c-35.9,1.2-71.8,3.7-107.6,5.2c-32.3,1.3-64.6,1.4-97,2.1c-29.4,0.5-58.7,1.4-88.1,1.5 c-2,0.3-4.5-0.9-6.2,0.2c-0.3,0.3-0.4,0.7-0.5,1.1c0,0-0.1,0-0.1,0.1c-3.6,6.8-7.5,13.4-10.9,20.2c-0.7,1.8-1,4-0.1,5.8 c3.3,4.3,9.7,3.5,14.6,3.9c13.1,0.6,26.1-1.1,39.1-1.9c55.5-2.8,111.2-4.1,166.8-5.8c27.3,0.1,54.6-1.4,81.9-2.7 c7-0.6,14-0.8,21-1c1.5,0,3.1-0.2,4.6-0.1c1.1,0,2.2-0.2,3.1-0.8C350.4,361.3,349.9,359.2,346.5,352.4z" fill="#202f5a"/></g><g id="change4_18"><path d="M41.8,349.7c-1.6,5-5.2,12.6-6.9,16.8c-0.7,1.1,0.1,2.6,1.4,2.6c1.5,0,1.7-1.7,2.2-2.7 c1.6-4.6,5.3-10.5,6.7-16.4C45,348.1,42.2,348,41.8,349.7z" fill="#ffbe4f"/></g><g id="change4_19"><path d="M68.3,350c-0.3,5.8-1.1,9.4-1.7,14.7c0,0.6,0.6,1.2,1.2,1.3c1.8,0.4,2.2-1.5,2.3-2.9 c0.7-4.4,1.4-8.7,1.7-13.2C71.8,347.8,68.3,347.8,68.3,350z" fill="#ffbe4f"/></g><g id="change4_20"><path d="M101.6,355.5c-0.3-2.5,0.1-5.4-1.1-7.6c-1.2-1.2-3.4,0-2.9,1.7c0.5,2.7,0.8,7.9,0.9,12c0,1.3,1.7,2.1,2.7,1.1 C102.3,360.6,101.4,357.8,101.6,355.5z" fill="#ffbe4f"/></g><g id="change4_21"><path d="M129.4,357.8c-0.4-3.1-0.4-6.3-1.2-9.4c-1-1.7-3.8-0.6-3.2,1.4c0.4,2.7,1.1,8.2,1.3,10.1c0,0.6,0.4,1.3,1,1.5 C129.7,362.2,129.7,359.4,129.4,357.8z" fill="#ffbe4f"/></g><g id="change4_22"><path d="M161.4,348.1c0-2.4-3.7-2.4-3.6,0c0.5,3.8-0.2,10.4,1.1,13.5c1,1.1,2.9,0.3,2.9-1.2 C161.7,356.3,161.6,352.2,161.4,348.1z" fill="#ffbe4f"/></g><g id="change4_23"><path d="M193.7,347.4c0-2.5-3.8-2.5-3.8,0c0.5,4.5,0.5,9.9,1.6,11.5c1.1,1.1,3.1,0.3,3.1-1.3 C194.3,354.3,193.9,350.8,193.7,347.4z" fill="#ffbe4f"/></g><g id="change4_24"><path d="M223.2,346.2c-0.7-1.9-3.7-1.3-3.6,0.7c0.3,2.7,0.6,5.4,1,8.1c0.1,1.7,0.6,4.5,3.2,2.8 c0.4-0.5,0.6-1.1,0.5-1.7C223.9,352.8,223.8,349.5,223.2,346.2z" fill="#ffbe4f"/></g><g id="change4_25"><path d="M252.3,344.1c-0.6-2.5-4.5-1.4-3.8,1.1c1.5,4.2,1.9,8.9,3.4,13c0.8,1.2,2.9,0.8,3.3-0.6 C254.8,353.1,253.4,348.5,252.3,344.1z" fill="#ffbe4f"/></g><g id="change4_26"><path d="M284.5,356.1c-0.9-4.5-2.1-8.8-3.3-13.2c-0.6-2.4-4.4-1.4-3.7,1c1.3,4.5,2.4,9,3.7,13.5 c0.2,0.9,1.2,1.5,2.1,1.2C285,357.9,284.6,356.7,284.5,356.1z" fill="#ffbe4f"/></g><g id="change4_27"><path d="M309.8,342.4c-0.4-0.9-0.4-2-1.3-2.5c-1.4-0.9-3.2,0.6-2.7,2.1c1.6,4.1,2.3,8.5,3.9,12.5 c0.8,1.2,2.8,0.8,3.2-0.6C312.5,350,310.9,346.2,309.8,342.4z" fill="#ffbe4f"/></g></g><g fill="#ffbe4f" id="change4_9"><path d="M177.1,275.7c-0.7-2.7-2.5-5.3-5.4-6c-3.4-0.7-7.4,0.8-9.2,3.8c-0.8,1.4-1.4,3-1.6,4.5 c-1,9.1-0.9,18.3-1,27.4c0.2,3.5,0.1,7.1,0.3,10.6c0.2,0.4,0.5,0.6,0.9,0.7c0.1,0.3,0.3,0.5,0.6,0.7c2,0.7,5.5,0.1,8.7,0.1 c1.9-0.1,4.2,0.6,6-0.4c0.7-0.5,0.7-1.3,0.7-2.1c0.3-6.9,1.1-13.7,1.3-20.6C178.5,288.2,178.7,281.8,177.1,275.7z M175.1,303 c-0.2,3.9-0.6,7.9-0.8,11.8c-3.3-0.1-8.9-0.1-10.4-0.1c-0.5,0-1-0.2-1.4-0.2c0-11.9-0.3-23.9,0.8-35.7c0.1-0.7,0.3-1.4,0.5-2.1 c0.1-0.3,0.5-1.2,0.2-0.6c0-0.1,0.1-0.1,0.1-0.2c0-0.4,1.1-1.8,0.7-1.2c0,0,0-0.1,0.1-0.1c1.2-1.7,3.5-2.2,4.8-2.4 C178.1,271.6,175.2,293.6,175.1,303z"/><path d="M238,278.3c-0.7-2.7-2.5-5.3-5.4-6c-3.4-0.7-7.4,0.8-9.2,3.8c-0.8,1.4-1.4,3-1.6,4.5c-1,9.1-0.9,18.3-1,27.4 c0.2,3.5,0.1,7.1,0.3,10.6c0.2,0.4,0.5,0.6,0.9,0.7c0.1,0.3,0.3,0.5,0.6,0.7c2,0.7,5.5,0.1,8.7,0.1c1.9-0.1,4.2,0.6,6-0.4 c0.7-0.5,0.7-1.3,0.7-2.1c0.3-6.9,1.1-13.7,1.3-20.6C239.5,290.8,239.7,284.4,238,278.3z M236.1,305.7c-0.2,3.9-0.6,7.9-0.8,11.8 c-3.3-0.1-8.9-0.1-10.4-0.1c-0.5,0-1-0.2-1.4-0.2c0-11.9-0.3-23.9,0.8-35.7c0.1-0.7,0.3-1.4,0.5-2.1c0.1-0.3,0.5-1.2,0.2-0.6 c0-0.1,0.1-0.1,0.1-0.2c0-0.4,1.1-1.8,0.7-1.2c0,0,0-0.1,0.1-0.1c1.2-1.7,3.5-2.2,4.8-2.4C239.1,274.3,236.2,296.2,236.1,305.7z"/><path d="M209.3,319.5c0-0.2,0-0.4,0-0.6c-0.8-14.9,0.9-29.5,0.9-44.5c-0.2-3.3-0.3-5.6-0.9-8.3 c-0.4-1.8-0.9-3.6-2.2-5c-3.4-3.2-9.9-4.3-13.5-0.9c-3.7,3.9-3.4,9.8-3.9,14.9c-0.5,10.2-1,20.5,0,30.6c0.4,4.7,0.6,9.4,1.1,14 c-0.3,0.9,0.3,2,1.4,2c4.9-0.1,12-0.3,15.6,0C209.1,322.2,210.1,320.5,209.3,319.5z M199.8,318.9c-1.8,0.2-4.6-0.3-6.7-0.2 c-1.2-16-2-32.1-0.4-48.1c0.3-3.5,1.1-7.8,3.4-9c2.2-1.8,7-0.5,8.7,0.7c0.9,0.7,1.3,1.7,1.5,2.1c1.8,6.1,1.5,13.2,1.2,20.3 c-1.2,11.1-0.9,24.3-1.1,34.3C204.4,319,202,319.1,199.8,318.9z"/></g><g fill="#ffbe4f" id="change4_6"><path d="M290.8,405.7c-3.2-8.8-10.1-15.5-18.5-19.3c-10.8-5.8-23.1-7-35.1-6.8c-15.2,0.1-31.5,1.4-44.1,10.7 c-7.4,5.3-12.7,11.1-16.4,18.2c-1.1,2-0.8,4.3-0.5,6.5c0.3,1.3,0.2,2.8,1.2,3.8c0.8,0.8,1.9,0.8,3,0.6c0,0,0.2,0,0.5-0.1 c0.2,0,0.4-0.1,0.6-0.1c0,0,0,0,0,0c0.6,19.2,3.4,38.4,3.3,57.7c0,4.5-0.1,8.9-0.3,13.4c0,1.5,1.4,2.4,2.7,2.7 c7,1.4,14.3,0.9,21.4,0.4c2.9-0.9,3.1-4.6,3.3-7.1c-0.5-13.8-2-27.6-1.6-41.5c0-7.9-0.2-15.9-0.7-23.8c0-0.2-0.1-0.4-0.1-0.6 c15-0.5,30.1-1.9,45.1-1.5c-1,23,4.2,52.1,6.1,70.8c0.3,1.4,1.7,2,3,2.2c2.3,0.4,4.7,0.4,7,0.3c6.2-0.6,14.4-0.9,18.5-1.5 c0.1,0,0.1-0.1,0.2-0.2c1.5,0.9,3.7-0.5,3.2-2.6c-0.8-13.8-2.8-38.4-4.4-56.3c-0.7-4.2-0.4-9-1.3-13.1c0.1,0,0.1,0,0.2,0 c1.1-0.4,3.2,0.4,5.2-2.5C293.7,412.8,291.8,409,290.8,405.7z M283,414.8c-0.6,0.5-0.5,1.9-0.4,3.1c2.1,22,4.8,49.4,5.8,68.6 c-0.6-0.1-0.6,0.1-1.2,0.1c-4.4,0.4-18.9,2.1-22.8,1.3c-0.1-0.3-0.1-0.4-0.1-0.5c-0.1-0.8-0.4-2.9-0.6-4.4 c-2.3-19.1-4.6-38.2-5.2-57.4c-0.4-3.4,0.6-7-0.1-8.9c-0.4-0.7-1.2-0.9-1.9-0.9c-0.3-0.2-0.7-0.4-1.2-0.3 c-13.2-1.4-26.4,0.8-39.6,1.3c-2.7,0.4-6.1-0.3-8.7,0.6c-0.3,0-0.6,0.1-0.9,0.3c0,0,0,0-0.1,0c0,0,0,0,0,0c-0.7,0.4-1.2,1.2-1,2.1 c0.4,2.8,0.9,5.9,1.1,10c0.2,18.1,0,36.1,1.9,54.1c0,3,0.2,4.2-0.7,6.1c-3-0.1-14.9,1-19.3-0.4c0.8-9.9-0.5-39.4-1.8-56.3 c-0.1-4.7-0.7-9.4-0.5-14.1c0-0.5,0.2-3.9-2.7-3.8c-1.5,0.1-2,0.1-2.6,0.2c-0.3-1.6-0.5-4-0.2-4.8c0.7-1.4,2.4-3.9,4.6-6.5 c10.6-13,25-18.4,41.5-19.2c10.7-0.6,21-0.8,30,0.9c9.1,1.7,20.7,7.5,25.3,13c4.3,5.2,7,13.2,7,14.9 C286.7,414.3,284,413.9,283,414.8z"/><path d="M200.8,424c-0.1-1,0.5-1.4-0.7-2.9c-2.5-1.5-5.9-0.9-8.6-0.5c-0.7,0.3-1,0.9-1,1.6c0,0.1-0.1,0.1,0,0.2 c0.3,13,0.9,25.9,1.5,38.9c0.1,0.9,0.7,1.6,1.6,1.8c2.1,0.3,4.2,0,6.3-0.3c1.3,0,2.3-1,2.3-2.3C202.3,448.3,201.1,436.1,200.8,424 z M194.9,460.1c-0.1-0.9-0.1-1.8-0.2-2.8c-0.3-9.5-0.9-19-1-28.5c-0.2-1.5,0.1-3.2,0-4.8c0.2,0,0.3,0,0.5,0c1.6,0,2.2-0.1,3,0 c0.1,3.7,0.3,10.8,0.5,15.6c0,6.3,1.1,15,1,20.1C197.8,459.8,196.1,460,194.9,460.1z"/><path d="M277,420.9c-0.1-1,0.5-1.4-0.7-2.9c-2.5-1.5-5.9-0.9-8.6-0.5c-0.7,0.3-1,0.9-1,1.6c0,0.1-0.1,0.1,0,0.2 c0.3,13,0.9,25.9,1.5,38.9c0.1,0.9,0.7,1.6,1.6,1.8c2.1,0.3,4.2,0,6.3-0.3c1.3,0,2.3-1,2.3-2.3C278.4,445.2,277.2,433.1,277,420.9 z M271,457c-0.1-0.9-0.1-1.8-0.2-2.8c-0.3-9.5-0.9-19-1-28.5c-0.2-1.5,0.1-3.2,0-4.8c0.2,0,0.3,0,0.5,0c1.6,0,2.2-0.1,3,0 c0.1,3.7,0.3,10.8,0.5,15.6c0,6.3,1.1,15,1,20.1C274,456.7,272.3,457,271,457z"/><path d="M260.8,402.1c-3.9-7.4-11.8-12.6-20-13.9c-6.9-1-13.8,0.6-20.2,3.1c-6.2,2.2-12.3,5.8-15.5,11.8 c-0.9,2.1-2,4.4,0.9,4.9c0.1,0,0.1-0.1,0.2-0.1c16.6-0.4,36.4-1.5,51.4-2.1C260.2,406.3,262,404.5,260.8,402.1z M217.5,404.2 c-2.2,0.3-5.9,0.1-8.8,0.3c0.6-1.1,1.5-2.7,2.7-3.6c8.1-7.2,24.8-12,34.4-7.5c5,2,9.3,6.3,11.2,9.2 C245.5,403.1,230.2,404,217.5,404.2z"/></g><g id="change4_14"><path d="M135,142.1c-3.1,0.2-6.3,0.3-9.4,0.5c0.3-0.7,0.3-1.6,0.2-2.3c-0.1-1.7,0.2-3.5-0.1-5.1 c-0.6-1.7-3.2-1.1-3.2,0.6c0.2,2.3-0.1,4.8,0.7,7c-3.6,0.2-7.3,0.4-10.9,0.5c-0.2-2.5-0.3-5-0.5-7.4c0-2-3.1-2-3.1,0 c0.3,2.5,0.6,5,0.9,7.6c-3.3,0.1-6.7,0.3-10,0.4c-0.2-2.5-0.3-5-0.4-7.5c0.4-2.2-2.9-2.7-3-0.5c0.2,2.7,0.3,5.4,0.6,8.1 c-3.7,0.2-7.3,0.3-11,0.5c-0.2-1.5-0.4-4.3-0.4-7.3c0-2.1-3.3-2.1-3.3,0c0,2.2,0.3,4.3,0.6,6.5c0,0.3,0,0.6,0,0.9 c-3.9,0.2-7.8,0.4-11.7,0.6c0.1-0.9,0-1.9,0.1-2.6c-0.1-1.9,1.2-4.2,0-5.9c-1.1-1.2-3.2-0.3-3.2,1.3c0,2.4,0.1,4.9,0.1,7.3 c-3.3,0.2-6.6,0.4-9.8,0.7c-0.1-2.2-0.2-4.4,0-6.6c0-2.3-3.5-2.3-3.5,0c0,1.6,0,5,0.5,6.9c-2,0.2-3.9,0.3-5.9,0.5 c-0.8,0.1-1.6-0.2-2.3,0.1c-1.4,0.5-1,2.8,0.6,2.7c11.4-0.1,22.8-2,34.3-2.3c17.9-1,35.9-0.9,53.8-2.2 C137.2,144.6,136.7,142,135,142.1z" fill="#ffbe4f"/></g><g id="change4_15"><path d="M348.2,139.9c-3.9,0-7.7,0.1-11.6,0.2c0.4-0.6,0.5-1.5,0.4-2.3c-0.1-2,0.1-4.2-0.2-6.2c-0.6-1.6-3.1-1-3,0.6 c0.2,2.5-0.1,5.1,0.3,7.5c0,0.1,0.1,0.3,0.2,0.4c-3.9,0.1-7.8,0.2-11.7,0.3c0.3-0.6,0.2-1.4,0.2-2c-0.1-2.1-0.1-4.4-0.4-6.5 c-0.5-1.5-3-1-2.9,0.6c0.1,2.2,0.3,4.3,0.4,6.5c0,0.5,0.1,1.1,0.4,1.5c-4.6,0.2-9.2,0.3-13.9,0.5c0.4-0.7,0.3-1.9,0.2-2.8 c-0.2-1.7,0-3.5-0.3-5.2c-0.6-1.5-3-1-3,0.6c0,2.4,0,4.8,0.4,7.1c0.1,0.2,0.2,0.2,0.3,0.4c-4.2,0.2-8.4,0.3-12.6,0.5 c0-0.4,0-0.9,0-1.3c-0.2-2.4,0.2-4.8,0-7.2c-0.6-1.6-3.1-1.1-3,0.6c-0.2,2.6,0,5.3,0.1,7.9c-4,0.2-8,0.4-12,0.6 c0.7-2.3-0.1-7.2,0.4-8.6c0-1.9-3-1.9-3,0c-0.2,2.7-0.2,5.5-0.3,8.3c0,0.1,0,0.3,0.1,0.4c-0.8,0-1.6,0.1-2.4,0.1 c-1.8,0.3-4-0.4-5.7,0.5c-0.8,0.8-0.2,2.2,0.9,2.2c26.3-0.9,52.6-2.5,78.9-2.5c1-0.2,2.1,0.1,2.9-0.6 C349.2,141.5,349,140.3,348.2,139.9z" fill="#ffbe4f"/></g><g><g id="change3_5"><path d="M274,101.9c-0.3-1.7-0.7-1.5-2.2-2.9c-11.2-9.8-21.5-18.2-27.3-31.4c-6.7-16.8-6.1-40.3-7.8-60.9 c-0.3-3.5-0.1-6.6-3.1-6.6c-24.1,0.2-48.6,0.5-72.4,5.1c-1.2,0.1-3.4,2.4-3.3,3.2c0.4,18.4-1.4,34.7-7.8,52 c-2.5,6.9-8.2,16-12.5,23.7c-3.1,5.6-8.1,14.3-10.5,18.1c-7.3,10.1,10.6,8.5,16.3,8.6c7.8-0.2,15.6-0.3,23.4-0.5 c0.1,0,0.3,0.1,0.4,0.1c0.4,0,0.9-0.1,1.3-0.1c10.6-0.2,21.2-0.3,31.7-0.5c4.9-0.2,9.9-0.7,14.8-1.1c2.3-0.1,4.5-0.1,6.8-0.2 c15.9-0.8,41.7-3.2,50.8-3.9c0.6-0.2,1-0.6,1.2-1C273.8,103.2,274,102.1,274,101.9z" fill="#202f5a"/></g><g fill="#ffbe4f" id="change4_30"><path d="M223.7,44.9c-4.7-6.1-11.2-11.2-17.1-16.2c-2.5-2-5.1-3.7-8-5.2c-1.6-0.8-3.5-1.1-5,0.2 c-8.8,6.6-15.6,13.4-23.1,20.1c-1.3,0.7-4,4.2-0.1,4.2c1.6,0.1,3.3,0,4.9,0c0,0,0,0,0,0.1c1.4,8.6,1.4,17.3,1.6,27.9 c-0.1,2.5-0.1,4.9-0.3,7.4c-0.2,1.1-0.4,3,2.5,3.2c9.5-1,29.6,3.5,38.9-1.6c3.1-1.5,1-9,0.7-13c-1.1-7.6-1.2-16.6-1.1-23.2 c0.3-0.1,0.6-0.1,0-0.1c0.5-0.1,5.6,0.4,6.2-1.2C223.9,47.2,224.3,45.7,223.7,44.9z M217.3,45.4c0.2-0.1-1.1,0.2-1.4,0.4 c-0.6,0.3-1.1,0.7-1.3,1.3c-0.4,1-0.1,2.1-0.2,3.1c-0.9,10.1,1.9,23.8,1.7,31.6c0,0,0,0.1-0.1,0.1c-0.1,0.1-0.2,0.1-0.3,0.2 c0,0,0,0-0.1,0c-1.6,0.6-1.4,0.5-3.3,1.1c-3.4,0.6-5.3,0.2-9.3,0.5c-6.9-0.1-20.2-1-23.8-0.6c1.1-6.8,0.5-23.8-0.9-33.9 c-0.3-1.3-0.5-2.8-1.6-3.7c-1.3-0.6-1.3-0.1-2.6-0.2c0,0-0.1,0-0.1,0c7.3-6.1,14.3-12.6,22-18.3c2.8,0.9,10.9,7.3,15.3,11.3 c2.4,2.2,4.5,4.2,7.2,6.7C218,45.3,217.6,45.4,217.3,45.4z"/><path d="M220.2,46.8C220,46.7,220,46.7,220.2,46.8L220.2,46.8z"/></g><g id="change4_31"><path d="M229.7,8.2c-1.9,0.1-3.8,0.2-5.8,0.4c0.2-1.5,0.3-3.2,0.1-4.7c-0.5-1.3-2.5-0.9-2.5,0.5 c0.1,1.4-0.2,2.9-0.1,4.3c-2.4,0.2-4.9,0.3-7.3,0.5c-0.1-1.8,0.1-3.7-0.1-5.5c-0.5-1.3-2.6-0.9-2.6,0.5c0,1.7-0.2,3.5,0,5.2 c-3,0.2-5.9,0.5-8.9,0.7c0-0.5,0-1,0.1-1.4c0.1-1.7,0.3-3,0.2-4c-0.4-1.5-2.6-1.2-2.6,0.4c0,1.7-0.3,3.5-0.2,5.3 c-3.1,0.3-6.1,0.5-9.2,0.8c0-0.2,0-0.4,0-0.6c-0.1-1.7,0.2-3.4,0-5c-0.5-1.5-2.9-1-2.8,0.6c0,1.8-0.1,3.6,0.1,5.3 c-3,0.3-5.9,0.6-8.9,1c0.2-2,0.3-4,0.1-5.9c-0.5-1.5-2.9-1-2.8,0.6c0,1.9-0.1,3.8,0,5.6c-1.9,0.2-3.7,0.4-5.6,0.6 c-0.4,0-0.9,0.1-1.3,0.2c0.3-1.6,0.2-4.1,0-5.2c-0.5-1.5-2.9-1-2.8,0.6c0.1,1-0.2,3.5,0.2,5c-1.5,0.2-3.1,0.3-4.6,0.6 c-0.4,0.1-0.7,0.4-0.9,0.7c-0.7,1.1,0.4,2.6,1.7,2.2c20.7-2.9,44.9-4.9,67.1-6.3C231.7,10.5,231.3,8.2,229.7,8.2z" fill="#ffbe4f"/></g></g></g></svg>