<?xml version="1.0" encoding="UTF-8" standalone="no"?><svg xmlns="http://www.w3.org/2000/svg" xmlns:xlink="http://www.w3.org/1999/xlink" fill="#000000" height="132.3" preserveAspectRatio="xMidYMid meet" version="1" viewBox="0.0 0.0 502.4 132.3" width="502.4" zoomAndPan="magnify"><g><g id="change1_1"><path d="M163.8,109.6c-1.9,0.1-3.9,0.2-5.8,0.3c-0.1-0.5-0.4-0.9-0.7-1.3c-1.5-2-4.7-1.5-5.7,0.7 c-0.1,0.3-0.2,0.6-0.3,0.8c-2.6,0.1-5.2,0.3-7.8,0.7c-1.3,0.3-0.7,2.3,0.5,1.9c5.6-0.9,14.6,0.1,21.1-1.2 C166.1,110.7,165,109.3,163.8,109.6z" fill="#202f5a"/></g><g id="change1_2"><path d="M280.3,109.6c-1.9,0.1-3.9,0.2-5.8,0.3c-0.1-0.5-0.4-0.9-0.7-1.3c-1.5-2-4.7-1.5-5.7,0.7 c-0.1,0.3-0.2,0.6-0.3,0.8c-2.6,0.1-5.2,0.3-7.8,0.7c-1.3,0.3-0.7,2.3,0.5,1.9c5.6-0.9,14.6,0.1,21.1-1.2 C282.6,110.7,281.6,109.3,280.3,109.6z" fill="#202f5a"/></g><g id="change1_3"><path d="M396.7,109.6c-1.9,0.1-3.9,0.2-5.8,0.3c-0.1-0.5-0.4-0.9-0.7-1.3c-1.5-2-4.7-1.5-5.7,0.7 c-0.1,0.3-0.2,0.6-0.3,0.8c-2.6,0.1-5.2,0.3-7.8,0.7c-1.3,0.3-0.7,2.3,0.5,1.9c5.6-0.9,14.6,0.1,21.1-1.2 C399,110.7,397.9,109.3,396.7,109.6z" fill="#202f5a"/></g><g id="change2_2"><path d="M148.6,108.8c-0.2-1.7-0.2-5-0.7-7.6c-0.3-11.7-1.6-23.4-2.2-35.1c-0.6-11.4-1.1-22.9-0.9-34.3 c0.2-5.2,0.9-10.3,0.8-15.5c0-3.5-1.7-3.3-4-3c-5,0.4-9.9,0.6-14.9,0.7c-8.1,0.3-16.2-0.1-24.2-0.3c-2.6,0-5.2-0.2-7.8-0.2 c-0.2,0-0.5,0.1-0.6,0.3c-0.4,0.4-0.3,1,0.1,1.3C93,26,92.7,39,93.5,50.5c0.1,2.5,0.3,5,0.4,7.5c-20.1-0.1-40.4-1.5-60.3,0.3 c0,0-0.1,0.1-0.1,0.2c-1.8,0.2-3.6,0.6-5.3,1.4c-1.9,1-3.5,2.5-5,4c-5.7,7.5-7.1,17.2-7.6,25.8c0,0.3,0,0.6,0,0.9 c-0.8,0.1-1.6,0.2-2.2,0.4c-1.1,0.8-1.7,2.1-2.3,3.3c-2.3,4.3-4.1,8.9-6.5,13.1c-1.5,3.1-3.6,6-4.6,9.3c0,0.7,0.6,1.1,1.2,1.3 c1.3,0.4,2.7,0.4,4.1,0.4c4.3,0,8.5-0.1,12.8-0.2c2.8,0,5.6-0.1,8.3-0.5c0.4-0.1,1-0.1,1.5-0.3c1.4-0.1,2.9-0.1,4.3-0.2 c12-0.3,23.9-0.4,35.9-0.7c10.1,0.3,20.2,0.1,30.3,0.1c1.4-0.1,2.8,0.1,4.1-0.2c0.1,0,0.1-0.1,0.2-0.1c14.3-0.8,30.3-0.2,45-0.6 c0.8-0.3,1.1-1.1,1.2-1.9C149.1,113,148.9,110.4,148.6,108.8z M136.8,54.9c-5.3,0.1-10.7-0.1-16-0.3c-1.4,0-2.7-0.1-4.1-0.1 c-0.6,0-1.3,0-1.9,0.1c-1.9,0.2-3.8,0.7-5.8,0.8c-1.9,0.1-4,0.2-5.8-0.1c-1.5-0.2-1.3-1.5-1.1-2.7c0.6-4,0.8-8.1,0.8-12.2 c0-2.5,0-5,0.7-7.4c0.5-4.3,3.9-7.3,7.6-9.2c3.9-2,7.8-3.1,12.2-2.2c3.9,0.8,8,1.9,10.4,5.4c2.5,3.7,2.6,8.3,3,12.6 c0.2,2.3,0.5,4.6,0.7,7c0.1,1.2,0.2,2.4,0.1,3.6c-0.1,1-0.4,2.3,0.1,3.2C138,54.1,137.5,54.9,136.8,54.9z" fill="#f75454"/></g><g fill="#ffbe4f" id="change3_17"><path d="M28.6,125.3C28.7,125.3,28.7,125.4,28.6,125.3C28.7,125.4,28.7,125.4,28.6,125.3 C28.7,125.4,28.7,125.3,28.6,125.3z"/><path d="M50.9,106.3c-3.3-2.7-6.8-3.8-10-3.6c-0.1-0.1-0.3-0.1-0.5-0.1c-7.8-0.8-12.9,7.7-13.3,14.5 c-0.3,2.8,0.3,5.3,1.4,7.4c-0.1,0.3,0,0.7,0.3,0.9c0,0,0,0,0,0c0,0,0,0,0,0c0,0,0,0,0,0c0,0,0,0,0,0c0,0,0,0,0,0 c0.2,0.2,0.4,0.4,0.6,0.5c0.1,0.1,0.2,0.3,0.3,0.4c0.2,0.2,0.4,0.5,0.6,0.7c0.1,0.1,0.2,0.2,0.3,0.3c0.2,0.2,0.4,0.3,0.6,0.5 c4.1,3.6,10.5,4.5,16.2,1.4C56.2,125,58,112.7,50.9,106.3z M42.2,105.1c2,0.2,4.1,0.9,6.2,2.3c0.1,0.1,0.2,0.1,0.2,0.2 c0.2,0.2,0.5,0.4,0.7,0.6c-2.3,1.8-4.7,3.6-7.2,5.5C42.1,110.8,42.1,107.9,42.2,105.1z M39.8,105.2c-0.3,2.7-0.5,5.5-0.6,8.2 c-1.9-1.8-3.6-3.6-5-5.3c0,0,0.1-0.1,0.1-0.1C35.9,106.5,37.8,105.5,39.8,105.2z M30.2,122.8c-1.4-3.9-0.4-9,2.2-12.7 c1.9,2,4,4.1,6,6.3C35.6,118.5,32.9,120.6,30.2,122.8z M34.8,127.8c-1.1-0.5-2.1-1.3-2.9-2.2c0,0,0.1,0,0.1-0.1 c2.4-1.6,4.7-3.4,7-5.2c0,2.7,0.1,5.4,0.3,8C37.5,128.4,36.1,128.2,34.8,127.8z M42.6,128c0-0.4,0-0.7,0-1 c-0.1-2.2-0.2-4.5-0.3-6.7c2,2,4,3.8,5.7,5.2C46.4,126.8,44.6,127.6,42.6,128z M50.2,123.3c-0.4-0.4-0.9-0.8-1.3-1.2 c-1.8-1.6-3.8-3.3-5.8-5.1c2.7-2.1,5.3-4.2,7.9-6.1c0.3,0.6,0.5,1.2,0.7,1.6C53,116.3,52.3,120.7,50.2,123.3z"/></g><g fill="#ffbe4f" id="change3_1"><path d="M63.4,125.3C63.4,125.3,63.4,125.4,63.4,125.3C63.4,125.4,63.4,125.4,63.4,125.3 C63.4,125.4,63.4,125.3,63.4,125.3z"/><path d="M85.6,106.3c-3.3-2.7-6.8-3.8-10-3.6c-0.1-0.1-0.3-0.1-0.5-0.1c-7.8-0.8-12.9,7.7-13.3,14.5 c-0.3,2.8,0.3,5.3,1.4,7.4c-0.1,0.3,0,0.7,0.3,0.9c0,0,0,0,0,0c0,0,0,0,0,0c0,0,0,0,0,0c0,0,0,0,0,0c0,0,0,0,0,0 c0.2,0.2,0.4,0.4,0.6,0.5c0.1,0.1,0.2,0.3,0.3,0.4c0.2,0.2,0.4,0.5,0.6,0.7c0.1,0.1,0.2,0.2,0.3,0.3c0.2,0.2,0.4,0.3,0.6,0.5 c4.1,3.6,10.5,4.5,16.2,1.4C91,125,92.8,112.7,85.6,106.3z M76.9,105.1c2,0.2,4.1,0.9,6.2,2.3c0.1,0.1,0.2,0.1,0.2,0.2 c0.2,0.2,0.5,0.4,0.7,0.6c-2.3,1.8-4.7,3.6-7.2,5.5C76.9,110.8,76.9,107.9,76.9,105.1z M74.6,105.2c-0.3,2.7-0.5,5.5-0.6,8.2 c-1.9-1.8-3.6-3.6-5-5.3c0,0,0.1-0.1,0.1-0.1C70.7,106.5,72.6,105.5,74.6,105.2z M64.9,122.8c-1.4-3.9-0.4-9,2.2-12.7 c1.9,2,4,4.1,6,6.3C70.4,118.5,67.6,120.6,64.9,122.8z M69.5,127.8c-1.1-0.5-2.1-1.3-2.9-2.2c0,0,0.1,0,0.1-0.1 c2.4-1.6,4.7-3.4,7-5.2c0,2.7,0.1,5.4,0.3,8C72.3,128.4,70.8,128.2,69.5,127.8z M77.3,128c0-0.4,0-0.7,0-1 c-0.1-2.2-0.2-4.5-0.3-6.7c2,2,4,3.8,5.7,5.2C81.1,126.8,79.4,127.6,77.3,128z M84.9,123.3c-0.4-0.4-0.9-0.8-1.3-1.2 c-1.8-1.6-3.8-3.3-5.8-5.1c2.7-2.1,5.3-4.2,7.9-6.1c0.3,0.6,0.5,1.2,0.7,1.6C87.7,116.3,87,120.7,84.9,123.3z"/></g><g id="change3_26"><path d="M145.1,108.4c-0.1-1.5-0.5-3.8-1.4-6c-1.6-4.1-4.7-7.4-8.2-10c-2.6-1.6-5.7-2.6-8.7-3.2 c-4.6-1.2-9.5-0.4-13.9,1.1c-3.9,1.6-7.3,4.6-9.5,8.1c-1.2,1.9-2,3.8-2.6,5.6c-1,2.7-1.6,5.4-1.6,8.1c0.2,7,2.8,12.3,9.2,15.8 c2.9,1.7,6.1,2.9,9.4,3.2c2.4,0.2,4.9-0.1,7.3-0.5c0.8-0.1,1.6-0.3,2.5-0.5c0.1,0,0.2,0,0.4-0.1c7.6-2.1,14.2-8.1,16.8-15.6 C145.3,112.6,145.3,110.5,145.1,108.4z M133.3,93.9c1,0.6,1.8,1.3,2.7,2.1c-3.5,2.6-6.6,5.8-9.6,8.9c-1.2,1-2.3,2.1-3.4,3.2 c-0.4-5.4-0.8-10.9-1.1-15.3c0.1-0.3,0.1-0.7,0-1C125.5,91.4,130.2,91.9,133.3,93.9z M120.2,91.9c-0.1,0.3,0,0.7-0.1,0.9 c0,0.4,0,0.8,0,1.2c-0.2,4.1-0.3,14.9-0.3,15.1c0,0,0,0,0,0.1c-4.1-3.9-8.2-8.7-12.4-11.8c0.5-0.5,0.9-0.9,1.4-1.3 C112.2,93.5,115.8,92.7,120.2,91.9z M103.7,103.5c0.5-1.4,1.2-2.6,1.9-3.7c4,3.5,8.1,7,12.3,10.5c-5.2,0.4-10.3,0.9-15.4,1.4 C102.4,108.7,102.6,106.5,103.7,103.5z M107.1,122.9c-3.6-1.5-4.5-8.1-4.6-8.7c1.6-0.1,3.2-0.3,4.9-0.5c3.4-0.3,6.9-0.5,10.3-0.7 c-1.9,1.8-3.8,3.6-5.7,5.3C110.4,119.9,108.7,121.4,107.1,122.9z M109.1,124.5c0.1-0.1,0.3-0.2,0.4-0.3c1.9-1.4,3.6-3.2,5.3-4.8 c1.7-1.8,3.5-3.5,5.3-5.1c0.1,0.7,0.1,1.5,0.2,2.2c0.1,0.9,0.2,1.8,0.3,2.7c0,0.2,0,0.5,0.1,0.7c0.1,0.5,0.1,0.9,0.2,1.4 c0.3,2.4,0.7,4.9,1.1,7.3C117.3,128.4,112.8,126.9,109.1,124.5z M128.4,127.4c0,0.1-1.5,0.6-2.5,0.8c-0.3,0.1-0.5,0.1-0.8,0.1 c0-2.4-1-6.2-1.1-7.6c-0.2-1.7-0.4-3.6-0.5-5.6c0.5,0.4,0.9,0.7,1.4,1.1c0.5,0.4,0.9,0.8,1.4,1.2c2.5,2,5.5,4.6,8.2,6.4 C134,124,131.8,125.9,128.4,127.4z M140.7,116.8c-1.2,2.1-2.3,3.7-3.8,5.1c-0.2-0.2-0.4-0.3-0.6-0.4c-1.6-1-3.3-2-4.9-3.1 c-2.6-1.9-5.1-3.7-7.6-5.8c2.8-0.1,5.6-0.3,8.4-0.5c3.3-0.1,6.4-0.5,9.2-0.9c0.3-0.1,0.6-0.1,0.8-0.2 C142,113.1,141.5,115.2,140.7,116.8z M138.8,108.7c-4.5,0.4-9.1,0.7-13.7,1.1c0.7-0.6,1.4-1.2,2-1.8c3.4-3.1,8.7-8,11.1-9.6 c2,2.5,3.4,5.4,4.1,8.8c0.1,0.4,0.1,0.9,0.1,1.4C141.2,108.3,140,108.7,138.8,108.7z" fill="#ffbe4f"/></g><g id="change1_4"><path d="M97.3,73.7c-0.1-6.2-0.2-11.6-2.3-17.2c-0.4-1.2-1.7-1.1-2.7-1.1c-5.7,0-11.3,0.4-16.9,0.8 c-2.9-0.1-5.9,0.3-8.8,0.5c-1.3,0.1-2.6,0.1-4,0.1c0,0,0,0,0,0c0,0,0,0-0.1,0c-0.6,0.1-1.4-0.1-1.8,0.5c0,0,0,0.1-0.1,0.2 c-0.1,0.1-0.2,0.3-0.2,0.5c0.6,11.3,0.3,22.6,0.3,34c0,0.6-0.2,1.2,0.1,1.8c0.2,0.4,0.7,0.7,1.1,0.8c2,0.4,5.6-0.1,8.3-0.3 c6.9-0.3,13.9-0.6,20.8-1.1c1.8-0.3,2.9,0,4.3-0.8c0.8-0.9,1.1-2.2,1.3-3.3C97.5,84,97.2,78.8,97.3,73.7z" fill="#202f5a"/></g><g id="change3_27"><path d="M94.7,78.9c-0.1-0.9,0-1.9-0.6-2.6c-0.3-0.3-0.8-0.3-1.2-0.4c-1.5,0-3.1,0-5,0c-1.4,0-2.9,0-4.3-0.1 c-0.1,0-0.2,0-0.3,0c-3.9-0.2-7.7-0.2-11.6-0.1c-2.3,0.2-4.7-0.1-6.9,0.6c-2.1,1.2-1.8,5.6-1.8,8.2c0.2,2,0,4,0.4,5.9 c0.1,0.3,0.2,0.5,0.4,0.7c0.3,0.3,0.8,0.4,1.2,0.4c3.2-0.1,5.7-0.7,9.1-0.9c5.9-0.7,14.8,0.3,18.2,0.1c2.8-0.1,2.5-5.7,2.8-7.8 C95.1,81.1,94.7,79.6,94.7,78.9z M92.1,88.8c0,0-0.1,0-0.1,0.1c-0.9,0.3-2.6,0-4.1,0c-7.4-0.5-16.4,0.3-23,1c-0.1,0-0.1,0-0.1,0 c-0.1-0.1-0.1-0.3-0.1-0.5C64.5,85,64,78.1,65.5,77.5c6.1-0.9,14-0.3,20.8-0.1c2.2,0.1,5,0.2,6.6,0.4c0.1,0,0.1,0,0.2-0.1 c0.1,0.5,0.1,1.3,0.2,2.2C93.5,83.4,93.1,87.1,92.1,88.8z" fill="#ffbe4f"/></g><g id="change3_28"><path d="M88.3,79.2c-5.3-0.3-10.7-0.4-16,0c-1.9,0.2-3.8,0-5.7,0.2c-0.6,0.2-0.4,1.2,0.2,1.2 c6.2-0.1,12.5-0.5,18.7-0.1c1.4,0,2.8,0.2,4.1,0.1c0.2-0.1,0.4-0.3,0.4-0.6C90,79,88.9,79.3,88.3,79.2z" fill="#ffbe4f"/></g><g id="change3_29"><path d="M89.1,82.1c-6.2-0.5-12.3-0.2-18.5,0c-1.4,0.1-3-0.1-4.3,0.4c-0.4,0.4-0.1,1.1,0.5,1.1 c7.5-0.3,15.1-0.4,22.6-0.3C90.3,82.8,89.4,81.9,89.1,82.1z" fill="#ffbe4f"/></g><g id="change3_30"><path d="M88.9,85c-5.2,0-10.3,0.3-15.5,0.3c-2.2,0-4.5,0-6.7,0.1c-0.6,0.2-0.4,1.3,0.2,1.2c7.3,0.2,15.7-0.3,22.3-0.3 C90.1,86,89.7,84.8,88.9,85z" fill="#ffbe4f"/></g><g id="change1_5"><path d="M28.2,92c-0.6-1.4-3-1-4.3-1.2c-2.1-0.1-4.1-0.3-6.2-0.5c-0.2,0-0.4,0.1-0.5,0.2c-0.5,0.4-0.1,1.3,0.5,1.3 c3,0.3,7.4,0.5,9.1,0.9c0,0.1,0.1,0.1,0.1,0.2c0,0.1,0.3,2.1,0.3,3.3c0.3,3.9,0.1,7.9,0,11.8c0,1,1.5,1,1.5,0 C28.7,102.7,29.3,97.2,28.2,92z" fill="#202f5a"/></g><g fill="#ffbe4f" id="change3_18"><path d="M8.9,115C8.8,115.1,8.8,115.1,8.9,115C8.9,114.9,8.9,114.9,8.9,115z"/><path d="M17.2,95.3c-0.4-0.8-1.7-0.6-1.9,0.2c-2.3,5.3-5.8,12.4-8.3,18.7c-0.2,0.4-0.4,0.9-0.1,1.3 c0.4,0.7,1.5,0.6,1.7-0.2c-0.2,0.4,0-0.1,0.1-0.3c2.3-5.6,5-11.3,7.8-17.3C16.9,96.9,17.7,96.1,17.2,95.3z"/></g><g id="change3_31"><path d="M22.7,95.4c-1.4,5.1-3.1,10.1-4.5,15.2c-0.2,1.2-1.1,2.6-0.8,3.8c0.6,0.9,1.7,0.3,1.7-0.7 c1.5-5.8,3.5-11.4,5.2-17.2C25.1,95.1,23.4,93.9,22.7,95.4z" fill="#ffbe4f"/></g><g id="change1_6"><path d="M59.5,89.1C59.4,89,59,89,58.9,89c0,0,0.1,0,0.1,0c-5.4,0.5-12.9,1.1-19.2,1.2c-1,0-1.9,0.1-2.9,0.1 c0.2-0.2,0.3-0.4,0.3-0.8c0-9.1,2.5-19.1-1.9-27.6c-0.6-0.9-1.3-1.9-2.3-2.3c-0.7-0.1-1.2,0.9-0.7,1.4c5.7,5.2,3.1,19.4,3.1,28.1 c-0.1,0.6,0.1,1,0.4,1.2c-1.8,0.1-3.7,0.2-5.5,0.4c-0.8,0.3-0.6,1.6,0.3,1.6c9.6-0.5,19.2-0.6,28.7-1.5 C60.1,90.6,60.2,89.5,59.5,89.1z" fill="#202f5a"/></g><g id="change3_32"><path d="M31.8,68c-0.4-1.5-1.7-3.4-3.4-2.8c-0.4,0.1-0.7,0.4-0.8,0.7c-0.2-0.1-0.4-0.1-0.6,0.1c-4.3,2.4-5,10.8-3,14.9 c0.7,1.7,2.7,3,4.5,2.1c1.4-0.8,2.3-2.4,2.9-3.9C32.7,75.2,32.8,71.6,31.8,68z M30.8,73.6c-0.3,4.4-2.6,9.7-4.8,7.4 c-2.3-3.4-1.6-10.3,1-13c0.2-0.3,0.5-0.3,1-0.8c0.1-0.1,0.1-0.2,0.2-0.3c0.4,0.1,0.7-0.1,0.7-0.1c0,0,0.1,0,0.1,0c0,0,0,0,0.1,0 c0,0,0,0,0,0c0.1,0,0.1,0.1,0.2,0.1C30.5,67.6,31,70.9,30.8,73.6z" fill="#ffbe4f"/></g><g><g id="change1_11"><path d="M54.5,39.3c0-0.1,0.1-0.1,0.1-0.2c1.5-3.6,2.8-7.4,3.5-11.2c0-0.8-0.7-1.4-1.5-1.4c-1.8-0.1-4,0.1-5.8,0.3 c-3.9,0.1-7.7,0.3-11.4,1.3c-0.9,0.3-1.6,1.1-1.6,2.1c0,1,0.6,2,1,2.9c2.4,3.8,3.2,5.9,4.5,7c0.5,5.4,0.9,10.9,1.9,16.2 c0.2,0.7,0.1,1.8,1,2c2.5,0.3,5.1,0.2,7.7,0.1c0.4,0,0.8-0.1,1.1-0.4c0.4-0.4,0.5-0.9,0.6-1.4c0.3-3.4-0.3-6.9-0.5-10.4 C54.8,44,54.6,41.7,54.5,39.3z" fill="#202f5a"/></g><g id="change3_46"><path d="M53.3,38.7c-0.6-0.5-1.5-0.2-2.2-0.2c-2.3,0.1-4.5,0.5-6.8,0.8c-0.8,0.2-0.7,1.5,0.2,1.5 c2.2-0.3,5.3-0.7,8.2-0.6C53.4,40.2,53.8,39.2,53.3,38.7z" fill="#ffbe4f"/></g></g><g id="change3_33"><path d="M139,53.8c0.1-0.8-0.1-1.8-0.1-2.6c-0.1-3.3-0.1-6.6-0.4-9.8c-0.3-4.5-0.9-9.1-3-13.2 c-2.2-4.8-8.6-7.7-12.7-8.1c-8.4-0.8-18.6,3.5-20.3,12.5c-1.2,6.5-0.8,13.2-0.8,19.8c0.1,0.8-0.1,1.6-0.1,2.4c-0.1,0-0.1,0-0.2,0.1 c-0.5,0.5-0.1,1.5,0.6,1.4c11.6-0.9,27.7-0.8,36.7-1C139.4,55,139.4,54.3,139,53.8z M103.1,54.5c0.3-6.2-0.1-12.5,0.6-18.8 c0.2-2.8,1.2-6.4,3.1-8.4c3-3.4,7.7-5,11.7-5.4c4.7-0.5,7.6,0.5,11.6,2.8c6.8,4.6,6.5,15.4,7.1,24.5c0.1,1.4-0.1,2.8,0,4.2 c-8.1,0.2-20.7,0-30.1,0.7C105.7,54.3,104.4,54.4,103.1,54.5z" fill="#ffbe4f"/></g><g id="change1_7"><path d="M150,12.2c-0.7-1.6-1.5-3.9-2.6-6.1c-1.5-2.6-1.4-4-2.6-4.8c-0.6-0.3-1.2-0.2-1.8-0.2c-1.2,0-4.6-0.1-6.8,0 C127,1.2,118,0.8,108.9,0.7c-2.2,0-4.4,0.2-6.7,0.4c-0.3,0-0.5,0-0.8,0c-1.5,0.2-3.1,0-4.6,0.4c-1.1,0.5-1.3,0.9-2.2,1.9 c-2.4,2.9-3.9,6.3-6,9.4c-0.6,0.7-0.8,1.9,0,2.5c0.7,0.9,3.3,1.1,5,1.2c6.9,0.2,13.7-0.2,20.6-0.1c11.4,0.2,22.8,0.5,34.2,0.3 c1.3,0,2.3,0.4,2.6-1.2C150.9,14.4,150.4,13.3,150,12.2z" fill="#202f5a"/></g><g id="change3_34"><path d="M100.9,4.4c-0.9,2-2.3,5.3-3.4,8c-0.2,0.7,0.6,1.3,1.2,0.9c1.4-2.3,2.4-5.4,3.7-8.4 C102.6,4,101.3,3.6,100.9,4.4z" fill="#ffbe4f"/></g><g id="change3_35"><path d="M110.2,4.6c-0.4,2.3-1,4.7-1,7c0.3,0.8,1.6,0.5,1.5-0.3c0-0.4,0.8-4.7,1-6.6C111.8,3.9,110.4,3.8,110.2,4.6z" fill="#ffbe4f"/></g><g id="change3_36"><path d="M121.6,4.6c-0.1,2-0.2,4-0.2,6c0,0.3,0.2,0.7,0.5,0.8c0.6,0.3,1.2-0.3,1.2-0.9c0.1-1.9,0.2-3.9,0.3-5.8 C123.4,3.5,121.6,3.5,121.6,4.6z" fill="#ffbe4f"/></g><g id="change3_37"><path d="M136.1,10.9c-0.5-1.7-0.9-3.5-1.4-5.2c-0.2-1.4-2.1-1.5-1.9,0c0.8,1.9,1,4.9,2.2,6.4 C135.7,12.6,136.5,11.6,136.1,10.9z" fill="#ffbe4f"/></g><g fill="#f75454" id="change2_4"><path d="M261.3,39.9c-0.7-9.2-1.6-18.4-1.2-27.6c0.1,0,0.1,0,0.2-0.1c0.7-0.4,0.6-1.5-0.2-1.7 c-0.8-0.1-1.1-0.1-1.4-0.2c-2.8,0-5.5,0.1-8.3,0.1c-3.1-0.1-6.2-0.6-9.3-0.8c-18.7-0.1-37.4-0.8-56,0.7c-7.6,0.4-15,1.7-22.5,2.9 c-0.4,0.1-0.9,0.1-1.1,0.5c0,0.1,0,0.1,0,0.2c-0.1,0.1-0.2,0.2-0.3,0.4c-2.3,25.7-2,51.6-1.7,77.5c0.1,6,0.3,12,0.5,18 c0.1,1.8-0.1,2.4,0.2,3.9c0.1,0.6,0.6,1.1,1.2,1.4c3.4,1.4,7.2,1.1,10.8,1.3c8.8,0,17.6-0.3,26.3,0c8.9,0,17.7,1,26.6,1.5 c8.9,0.5,17.7,0.1,26.6-0.3c4-0.1,7.9,0.2,11.9-0.3c1.3-0.3,1.4-2,1.5-3.1C267,89.4,263,64.6,261.3,39.9z M207.5,72.7 c-0.2,0.3-0.6,0.3-0.9,0.1c-1.4,0.1-2.8,0.1-4.2,0.2c-1.5,0.1-2.9,0.3-4.4,0.4c-3.1,0.3-6.1,0.5-9.2,0.7 c-6.1,0.5-12.2,1.1-18.3,1.5c-0.8,0.1-0.9-0.8-0.5-1.3c-0.5-4.2-0.2-8.6-0.1-12.8c0.1-4,0.2-8.1,0.3-12.1c0.1-3.8,0-7.6,0.7-11.3 c0.7-3.2,1.9-6.4,4.3-8.7c1.1-1.1,2.4-1.9,3.8-2.5c1.5-1.4,3.7-2.3,5.6-2.8c2.4-0.7,5-1,7.5-1c2.4,0,5,0.2,7.2,1.2 c1.9,0.9,3.5,2.5,4.6,4.3c0.1,0.2,0.1,0.5,0,0.7c1.1,2,1.9,4.1,2.3,6.4c0.5,2.2,0.8,4.5,0.9,6.7c0.1,1.3,0.2,2.7,0.2,4 c0.1,2,0.2,4.1,0.3,6.1c0.3,6.3,0.5,12.5,0.2,18.8C208.1,71.8,208,72.5,207.5,72.7z M254.4,70.4C254.4,70.4,254.4,70.4,254.4,70.4 c0.2,0.5,0,1.2-0.6,1.2c-3.3,0.1-6.6,0.1-9.8,0.2c-1.5,0.1-3,0.1-4.6,0.2c-1.6,0.1-3.2,0.4-4.7,0.7c-3,0.5-6,0.9-9.1,1 c-3,0.1-6.1,0.1-9.1,0.4c-0.9,0.1-1.1-1.2-0.5-1.6c0-0.1,0-0.2,0-0.4c0.8-4.1-0.2-8.2,0.1-12.3c0.2-1.8,0.6-3.4,0.9-5.2 c0.3-1.9,0.5-3.7,0.7-5.6c0.3-3.5,0.8-7,1.6-10.4c0.6-2.9,1.5-5.8,3.3-8.2c1.3-1.7,3-2.9,5-3.9c0.1-0.1,0.2-0.2,0.3-0.3 c2.1-1.1,4.3-2.3,6.7-2.6c2.3-0.3,4.9-0.1,7.2,0.4c3.9,0.7,6.8,3.9,8.7,7.2c2,3.5,2.9,7.5,3.4,11.5 C255.1,51.9,255,61.3,254.4,70.4z"/><path d="M162.2,113.3C162.2,113.3,162.2,113.4,162.2,113.3C162.2,113.4,162.2,113.4,162.2,113.3 C162.2,113.4,162.2,113.3,162.2,113.3z"/></g><g fill="#ffbe4f" id="change3_44"><path d="M203.8,108.4c-0.1-1.5-0.5-3.8-1.4-6c-1.6-4.1-4.7-7.4-8.2-10c-2.6-1.6-5.7-2.6-8.7-3.2 c-4.6-1.2-9.5-0.4-13.9,1.1c-3.9,1.6-7.3,4.6-9.5,8.1c-1.2,1.9-2,3.8-2.6,5.6c-1,2.7-1.6,5.4-1.6,8.1c0.2,7,2.8,12.3,9.2,15.8 c2.9,1.7,6.1,2.9,9.4,3.2c2.4,0.2,4.9-0.1,7.3-0.5c0.8-0.1,1.6-0.3,2.5-0.5c0.1,0,0.2,0,0.4-0.1c7.6-2.1,14.2-8.1,16.8-15.6 C204,112.6,204,110.5,203.8,108.4z M192,93.9c1,0.6,1.8,1.3,2.7,2.1c-3.5,2.6-6.6,5.8-9.6,8.9c-1.2,1-2.3,2.1-3.4,3.2 c-0.4-5.4-0.8-10.9-1.1-15.3c0.1-0.3,0.1-0.7,0-1C184.1,91.4,188.9,91.9,192,93.9z M178.9,91.9c-0.1,0.3,0,0.7-0.1,0.9 c0,0.4,0,0.8,0,1.2c-0.2,4.1-0.3,14.9-0.3,15.1c0,0,0,0,0,0.1c-4.1-3.9-8.2-8.7-12.4-11.8c0.5-0.5,0.9-0.9,1.4-1.3 C170.9,93.5,174.5,92.7,178.9,91.9z M162.3,103.5c0.5-1.4,1.2-2.6,1.9-3.7c4,3.5,8.1,7,12.3,10.5c-5.2,0.4-10.3,0.9-15.4,1.4 C161.1,108.7,161.3,106.5,162.3,103.5z M165.7,122.9c-3.6-1.5-4.5-8.1-4.6-8.7c1.6-0.1,3.2-0.3,4.9-0.5c3.4-0.3,6.9-0.5,10.3-0.7 c-1.9,1.8-3.8,3.6-5.7,5.3C169.1,119.9,167.4,121.4,165.7,122.9z M167.8,124.5c0.1-0.1,0.3-0.2,0.4-0.3c1.9-1.4,3.6-3.2,5.3-4.8 c1.7-1.8,3.5-3.5,5.3-5.1c0.1,0.7,0.1,1.5,0.2,2.2c0.1,0.9,0.2,1.8,0.3,2.7c0,0.2,0,0.5,0.1,0.7c0.1,0.5,0.1,0.9,0.2,1.4 c0.3,2.4,0.7,4.9,1.1,7.3C176,128.4,171.5,126.9,167.8,124.5z M187,127.4c0,0.1-1.5,0.6-2.5,0.8c-0.3,0.1-0.5,0.1-0.8,0.1 c0-2.4-1-6.2-1.1-7.6c-0.2-1.7-0.4-3.6-0.5-5.6c0.5,0.4,0.9,0.7,1.4,1.1c0.5,0.4,0.9,0.8,1.4,1.2c2.5,2,5.5,4.6,8.2,6.4 C192.6,124,190.5,125.9,187,127.4z M199.4,116.8c-1.2,2.1-2.3,3.7-3.8,5.1c-0.2-0.2-0.4-0.3-0.6-0.4c-1.6-1-3.3-2-4.9-3.1 c-2.6-1.9-5.1-3.7-7.6-5.8c2.8-0.1,5.6-0.3,8.4-0.5c3.3-0.1,6.4-0.5,9.2-0.9c0.3-0.1,0.6-0.1,0.8-0.2 C200.7,113.1,200.2,115.2,199.4,116.8z M197.5,108.7c-4.5,0.4-9.1,0.7-13.7,1.1c0.7-0.6,1.4-1.2,2-1.8c3.4-3.1,8.7-8,11.1-9.6 c2,2.5,3.4,5.4,4.1,8.8c0.1,0.4,0.1,0.9,0.1,1.4C199.9,108.3,198.6,108.7,197.5,108.7z"/><path d="M267.1,108.4c-0.1-1.5-0.5-3.8-1.4-6c-1.6-4.1-4.7-7.4-8.2-10c-2.6-1.6-5.7-2.6-8.7-3.2 c-4.6-1.2-9.5-0.4-13.9,1.1c-3.9,1.6-7.3,4.6-9.5,8.1c-1.2,1.9-2,3.8-2.6,5.6c-1,2.7-1.6,5.4-1.6,8.1c0.2,7,2.8,12.3,9.2,15.8 c2.9,1.7,6.1,2.9,9.4,3.2c2.4,0.2,4.9-0.1,7.3-0.5c0.8-0.1,1.6-0.3,2.5-0.5c0.1,0,0.2,0,0.4-0.1c7.6-2.1,14.2-8.1,16.8-15.6 C267.2,112.6,267.2,110.5,267.1,108.4z M255.2,93.9c1,0.6,1.8,1.3,2.7,2.1c-3.5,2.6-6.6,5.8-9.6,8.9c-1.2,1-2.3,2.1-3.4,3.2 c-0.4-5.4-0.8-10.9-1.1-15.3c0.1-0.3,0.1-0.7,0-1C247.4,91.4,252.1,91.9,255.2,93.9z M242.1,91.9c-0.1,0.3,0,0.7-0.1,0.9 c0,0.4,0,0.8,0,1.2c-0.3,3.9-0.4,7.9-0.4,11.8c0,0,0,0,0,0c-0.3,1,0,1.9,0,2.4c0,0.3,0.1,0.6,0.1,0.8c0,0,0,0,0,0.1 c-4.1-3.9-8.2-8.7-12.4-11.8c0.5-0.5,0.9-0.9,1.4-1.3C234.1,93.5,237.7,92.7,242.1,91.9z M225.6,103.5c0.5-1.4,1.2-2.6,1.9-3.7 c4,3.5,8.1,7,12.3,10.5c-5.2,0.4-10.3,0.9-15.4,1.4C224.3,108.7,224.6,106.5,225.6,103.5z M229,122.9c-3.6-1.5-4.5-8.1-4.6-8.7 c1.6-0.1,3.2-0.3,4.9-0.5c3.4-0.3,6.9-0.5,10.3-0.7c-1.9,1.8-3.8,3.6-5.7,5.3C232.3,119.9,230.7,121.4,229,122.9z M231.1,124.5 c0.1-0.1,0.3-0.2,0.4-0.3c1.9-1.4,3.6-3.2,5.3-4.8c1.7-1.8,3.5-3.5,5.3-5.1c0.1,0.7,0.1,1.5,0.2,2.2c0.1,0.9,0.2,1.8,0.3,2.7 c0,0.2,0,0.5,0.1,0.7c0.1,0.5,0.1,0.9,0.2,1.4c0.3,2.4,0.7,4.9,1.1,7.3C239.3,128.4,234.7,126.9,231.1,124.5z M250.3,127.4 c0,0.1-1.5,0.6-2.5,0.8c-0.3,0.1-0.5,0.1-0.8,0.1c0-2.4-1-6.2-1.1-7.6c-0.2-1.7-0.4-3.6-0.5-5.6c0.5,0.4,0.9,0.7,1.4,1.1 c0.5,0.4,0.9,0.8,1.4,1.2c2.5,2,5.5,4.6,8.2,6.4C255.9,124,253.7,125.9,250.3,127.4z M262.6,116.8c-1.2,2.1-2.3,3.7-3.8,5.1 c-0.2-0.2-0.4-0.3-0.6-0.4c-1.6-1-3.3-2-4.9-3.1c-2.6-1.9-5.1-3.7-7.6-5.8c2.8-0.1,5.6-0.3,8.4-0.5c3.3-0.1,6.4-0.5,9.2-0.9 c0.3-0.1,0.6-0.1,0.8-0.2C263.9,113.1,263.4,115.2,262.6,116.8z M260.7,108.7c-4.5,0.4-9.1,0.7-13.7,1.1c0.7-0.6,1.4-1.2,2-1.8 c3.4-3.1,8.7-8,11.1-9.6c2,2.5,3.4,5.4,4.1,8.8c0.1,0.4,0.1,0.9,0.1,1.4C263.1,108.3,261.9,108.7,260.7,108.7z"/></g><g id="change3_38"><path d="M208.9,73.2c0.2-5.8,0.1-10.3,0-16.1c-0.2-6.1-0.3-12.3-1.1-18.4c-0.5-3.6-1.3-7.2-3.3-10.3 c-2.9-5.1-9.2-6.3-14.6-5.8c-6.9,0.4-13.9,3.8-17.7,9.7c-1.6,2.7-2.1,5.9-2.6,8.9c-0.9,6.8-0.5,13.7-0.6,20.5 c-0.2,4.7-0.1,9.4-0.2,14c0,0,0,0,0,0c-0.1,0.5,0.2,1.1,0.8,1.1c8.1-0.4,16.2-1.1,24.4-1.8c4-0.3,10-1,13-0.9 C207.8,74.2,208.7,74.4,208.9,73.2z M180.9,74.2c-3.6,0.3-7.6,0.4-10.7,0.8c0.2-6.5,0.4-13,0.4-19.5c0-7.4-0.3-14.3,2.2-21.1 c2.1-5.1,9.6-9.6,15.2-10.1c7.5-1,13.8,0.3,16.5,7.5c1.6,4.2,2.1,9.7,2.3,14.9c0.4,7.4,0.4,14.9,0.4,22.3c0,1.1,0,2.1-0.1,3.2 C200.8,72,188.9,73.6,180.9,74.2z" fill="#ffbe4f"/></g><g><g fill="#202f5a" id="change1_9"><path d="M264.4,5.8c-1.2-1.4-2.1-3.6-4.1-3.9c-6.7-0.4-13.5-0.4-20.2-0.7c-12.7-0.7-25.4-0.9-38.1-0.7 c-3.6-0.2-7.2-0.3-10.8-0.4c-6.3-0.1-12.5,0.7-18.8,0.7c-1.8,0.2-8.7-0.5-9.4,1.7c-2.1,2.6-3.6,5.6-5.3,8.4 c-0.5,1.1-1.2,2.2-1.3,3.4c0,1,0.7,1.8,1.6,2c0.6,0.1,1.2,0.1,1.8,0.2c1.3,0.4,2.8,0.2,4.1,0.3c2.6,0,5.3-0.2,7.9-0.4 c0.1,0,0.3,0,0.4,0c2.3-0.2,5.3-0.1,6.7-0.5c17.5-1.1,35-1.5,52.5-1.4c11.1-0.1,22.2,0.7,33.4,0.2 C269.7,13.9,266.1,8.1,264.4,5.8z"/><path d="M159.6,14.6C159.6,14.6,159.6,14.6,159.6,14.6C159.7,14.7,159.7,14.6,159.6,14.6z"/></g><g id="change3_9"><path d="M169.4,5c-1.2,2.6-2,5.4-2.8,8.2c-0.1,0.3-0.2,0.7,0,1c0.3,0.5,1,0.6,1.3,0.2c0.4-0.5,0.4-1.3,0.6-1.9 c0.7-2.8,2.1-5.2,2.7-7.3C171.1,4.2,169.7,4.1,169.4,5z" fill="#ffbe4f"/></g><g id="change3_10"><path d="M183.5,5.7c-0.1-0.5,0.1-1-0.3-1.4c-0.5-0.5-1.5-0.1-1.5,0.6c0.3,2.3-0.2,5.4,0.5,7.4 c0.5,0.5,1.5,0.1,1.4-0.6C183.6,9.8,183.6,7.7,183.5,5.7z" fill="#ffbe4f"/></g><g id="change3_11"><path d="M199.9,4.8c0-1.4-2.2-1.4-2.1,0c0.1,1.8,0.3,4.7,0.5,5.7c0.2,0.7,1.2,0.7,1.5,0.1 C200.1,8.7,199.8,6.7,199.9,4.8z" fill="#ffbe4f"/></g><g id="change3_12"><path d="M215,5.4c-0.1-0.6,0.1-1.4-0.4-1.9c-0.6-0.6-1.7-0.1-1.7,0.7c0.2,1.8,0.3,4.7,0.5,5.7c0.2,0.6,1,0.7,1.4,0.3 C215.6,9.1,214.9,6.8,215,5.4z" fill="#ffbe4f"/></g><g id="change3_13"><path d="M229.8,4.4c0-1.3-2.1-1.3-2.1,0c0.1,2.2-0.2,5.2,0.5,6.4c0.6,0.6,1.7,0.1,1.6-0.7 C229.7,8.2,229.8,6.3,229.8,4.4z" fill="#ffbe4f"/></g><g id="change3_14"><path d="M244.6,4.9c0-1.3-2-1.3-2,0c0.3,1.9,0.1,4.4,0.7,5.5c0.5,0.6,1.6,0.1,1.5-0.6C244.8,8.1,244.7,6.5,244.6,4.9z" fill="#ffbe4f"/></g><g id="change3_15"><path d="M255.6,7.9C255,6.7,255,6.3,254.3,5c-0.4-1.4-2.3-0.9-1.7,0.5c0.6,1.1,0.9,2,1.3,3.5c0.3,0.7,0.1,0.9,1,1.2 C256.4,10.2,256.1,8.8,255.6,7.9z" fill="#ffbe4f"/></g></g><g id="change3_39"><path d="M256,69.3c0.3-9.8,0.3-19.8-1.2-29.5c-1.1-6.5-4.7-13.1-10.9-16c-4.3-1.7-9.5-1.7-13.8,0 c-5.1,2.2-9.7,6.3-11.5,11.8c-1.2,3.9-1.4,8-1.9,12c-0.8,5.5-1.5,12.4-1.8,19.1c-0.2,2.3-0.1,4.6-0.1,7c0,0.1,0,0.2,0,0.3 c-0.3,0.5,0,1.1,0.6,1.1c13-0.8,26-2,39-2.3c0,0,0,0,0,0C256.6,73.4,255.9,70.5,256,69.3z M216.6,73.6c-0.1-9.1,0.8-19,2-26.7 c0.5-4.2,0.8-8.8,2.2-12.2c3.1-6,9.1-9.7,14.8-10.2c10.8-1,16.5,7.7,17.7,18.3c0.6,7.2,1,17.2,0.8,25.3c0,1.4-0.1,1.8-0.1,2.8 c-11.6,0.2-23.2,1.6-34.9,2.4C218.3,73.4,217.4,73.5,216.6,73.6z" fill="#ffbe4f"/></g><g fill="#f75454" id="change2_1"><path d="M377.7,39.9c-0.7-9.2-1.6-18.4-1.2-27.6c0.1,0,0.1,0,0.2-0.1c0.7-0.4,0.6-1.5-0.2-1.7 c-0.8-0.1-1.1-0.1-1.4-0.2c-2.8,0-5.5,0.1-8.3,0.1c-3.1-0.1-6.2-0.6-9.3-0.8c-18.7-0.1-37.4-0.8-56,0.7c-7.6,0.4-15,1.7-22.5,2.9 c-0.4,0.1-0.9,0.1-1.1,0.5c0,0.1,0,0.1,0,0.2c-0.1,0.1-0.2,0.2-0.3,0.4c-2.3,25.7-2,51.6-1.7,77.5c0.1,6,0.3,12,0.5,18 c0.1,1.8-0.1,2.4,0.2,3.9c0.1,0.6,0.6,1.1,1.2,1.4c3.4,1.4,7.2,1.1,10.8,1.3c8.8,0,17.6-0.3,26.3,0c8.9,0,17.7,1,26.6,1.5 c8.9,0.5,17.7,0.1,26.6-0.3c4-0.1,7.9,0.2,11.9-0.3c1.3-0.3,1.4-2,1.5-3.1C383.3,89.4,379.4,64.6,377.7,39.9z M323.9,72.7 c-0.2,0.3-0.6,0.3-0.9,0.1c-1.4,0.1-2.8,0.1-4.2,0.2c-1.5,0.1-2.9,0.3-4.4,0.4c-3.1,0.3-6.1,0.5-9.2,0.7 c-6.1,0.5-12.2,1.1-18.3,1.5c-0.8,0.1-0.9-0.8-0.5-1.3c-0.5-4.2-0.2-8.6-0.1-12.8c0.1-4,0.2-8.1,0.3-12.1c0.1-3.8,0-7.6,0.7-11.3 c0.7-3.2,1.9-6.4,4.3-8.7c1.1-1.1,2.4-1.9,3.8-2.5c1.5-1.4,3.7-2.3,5.6-2.8c2.4-0.7,5-1,7.5-1c2.4,0,5,0.2,7.2,1.2 c1.9,0.9,3.5,2.5,4.6,4.3c0.1,0.2,0.1,0.5,0,0.7c1.1,2,1.9,4.1,2.3,6.4c0.5,2.2,0.8,4.5,0.9,6.7c0.1,1.3,0.2,2.7,0.2,4 c0.1,2,0.2,4.1,0.3,6.1c0.3,6.3,0.5,12.5,0.2,18.8C324.5,71.8,324.4,72.5,323.9,72.7z M370.8,70.4 C370.8,70.4,370.8,70.4,370.8,70.4c0.2,0.5,0,1.2-0.6,1.2c-3.3,0.1-6.6,0.1-9.8,0.2c-1.5,0.1-3,0.1-4.6,0.2 c-1.6,0.1-3.2,0.4-4.7,0.7c-3,0.5-6,0.9-9.1,1c-3,0.1-6.1,0.1-9.1,0.4c-0.9,0.1-1.1-1.2-0.5-1.6c0-0.1,0-0.2,0-0.4 c0.8-4.1-0.2-8.2,0.1-12.3c0.2-1.8,0.6-3.4,0.9-5.2c0.3-1.9,0.5-3.7,0.7-5.6c0.3-3.5,0.8-7,1.6-10.4c0.6-2.9,1.5-5.8,3.3-8.2 c1.3-1.7,3-2.9,5-3.9c0.1-0.1,0.2-0.2,0.3-0.3c2.1-1.1,4.3-2.3,6.7-2.6c2.3-0.3,4.9-0.1,7.2,0.4c3.9,0.7,6.8,3.9,8.7,7.2 c2,3.5,2.9,7.5,3.4,11.5C371.5,51.9,371.4,61.3,370.8,70.4z"/><path d="M278.6,113.3C278.6,113.3,278.6,113.4,278.6,113.3C278.6,113.4,278.6,113.4,278.6,113.3 C278.6,113.4,278.6,113.3,278.6,113.3z"/></g><g fill="#ffbe4f" id="change3_45"><path d="M320.2,108.4c-0.1-1.5-0.5-3.8-1.4-6c-1.6-4.1-4.7-7.4-8.2-10c-2.6-1.6-5.7-2.6-8.7-3.2 c-4.6-1.2-9.5-0.4-13.9,1.1c-3.9,1.6-7.3,4.6-9.5,8.1c-1.2,1.9-2,3.8-2.6,5.6c-1,2.7-1.6,5.4-1.6,8.1c0.2,7,2.8,12.3,9.2,15.8 c2.9,1.7,6.1,2.9,9.4,3.2c2.4,0.2,4.9-0.1,7.3-0.5c0.8-0.1,1.6-0.3,2.5-0.5c0.1,0,0.2,0,0.4-0.1c7.6-2.1,14.2-8.1,16.8-15.6 C320.3,112.6,320.3,110.5,320.2,108.4z M308.3,93.9c1,0.6,1.8,1.3,2.7,2.1c-3.5,2.6-6.6,5.8-9.6,8.9c-1.2,1-2.3,2.1-3.4,3.2 c-0.4-5.4-0.8-10.9-1.1-15.3c0.1-0.3,0.1-0.7,0-1C300.5,91.4,305.2,91.9,308.3,93.9z M295.2,91.9c-0.1,0.3,0,0.7-0.1,0.9 c0,0.4,0,0.8,0,1.2c-0.3,3.9-0.4,7.9-0.4,11.8c0,0,0,0,0,0c-0.3,1,0,1.9,0,2.4c0,0.3,0.1,0.6,0.1,0.8c0,0,0,0,0,0.1 c-4.1-3.9-8.2-8.7-12.4-11.8c0.5-0.5,0.9-0.9,1.4-1.3C287.3,93.5,290.8,92.7,295.2,91.9z M278.7,103.5c0.5-1.4,1.2-2.6,1.9-3.7 c4,3.5,8.1,7,12.3,10.5c-5.2,0.4-10.3,0.9-15.4,1.4C277.4,108.7,277.7,106.5,278.7,103.5z M282.1,122.9c-3.6-1.5-4.5-8.1-4.6-8.7 c1.6-0.1,3.2-0.3,4.9-0.5c3.4-0.3,6.9-0.5,10.3-0.7c-1.9,1.8-3.8,3.6-5.7,5.3C285.4,119.9,283.8,121.4,282.1,122.9z M284.2,124.5 c0.1-0.1,0.3-0.2,0.4-0.3c1.9-1.4,3.6-3.2,5.3-4.8c1.7-1.8,3.5-3.5,5.3-5.1c0.1,0.7,0.1,1.5,0.2,2.2c0.1,0.9,0.2,1.8,0.3,2.7 c0,0.2,0,0.5,0.1,0.7c0.1,0.5,0.1,0.9,0.2,1.4c0.3,2.4,0.7,4.9,1.1,7.3C292.4,128.4,287.8,126.9,284.2,124.5z M303.4,127.4 c0,0.1-1.5,0.6-2.5,0.8c-0.3,0.1-0.5,0.1-0.8,0.1c0-2.4-1-6.2-1.1-7.6c-0.2-1.7-0.4-3.6-0.5-5.6c0.5,0.4,0.9,0.7,1.4,1.1 c0.5,0.4,0.9,0.8,1.4,1.2c2.5,2,5.5,4.6,8.2,6.4C309,124,306.8,125.9,303.4,127.4z M315.8,116.8c-1.2,2.1-2.3,3.7-3.8,5.1 c-0.2-0.2-0.4-0.3-0.6-0.4c-1.6-1-3.3-2-4.9-3.1c-2.6-1.9-5.1-3.7-7.6-5.8c2.8-0.1,5.6-0.3,8.4-0.5c3.3-0.1,6.4-0.5,9.2-0.9 c0.3-0.1,0.6-0.1,0.8-0.2C317,113.1,316.5,115.2,315.8,116.8z M313.8,108.7c-4.5,0.4-9.1,0.7-13.7,1.1c0.7-0.6,1.4-1.2,2-1.8 c3.4-3.1,8.7-8,11.1-9.6c2,2.5,3.4,5.4,4.1,8.8c0.1,0.4,0.1,0.9,0.1,1.4C316.2,108.3,315,108.7,313.8,108.7z"/><path d="M383.4,108.4c-0.1-1.5-0.5-3.8-1.4-6c-1.6-4.1-4.7-7.4-8.2-10c-2.6-1.6-5.7-2.6-8.7-3.2 c-4.6-1.2-9.5-0.4-13.9,1.1c-3.9,1.6-7.3,4.6-9.5,8.1c-1.2,1.9-2,3.8-2.6,5.6c-1,2.7-1.6,5.4-1.6,8.1c0.2,7,2.8,12.3,9.2,15.8 c2.9,1.7,6.1,2.9,9.4,3.2c2.4,0.2,4.9-0.1,7.3-0.5c0.8-0.1,1.6-0.3,2.5-0.5c0.1,0,0.2,0,0.4-0.1c7.6-2.1,14.2-8.1,16.8-15.6 C383.6,112.6,383.6,110.5,383.4,108.4z M371.6,93.9c1,0.6,1.8,1.3,2.7,2.1c-3.5,2.6-6.6,5.8-9.6,8.9c-1.2,1-2.3,2.1-3.4,3.2 c-0.4-5.4-0.8-10.9-1.1-15.3c0.1-0.3,0.1-0.7,0-1C363.7,91.4,368.5,91.9,371.6,93.9z M358.5,91.9c-0.1,0.3,0,0.7-0.1,0.9 c0,0.4,0,0.8,0,1.2c-0.3,3.9-0.4,7.9-0.4,11.8c0,0,0,0,0,0c-0.3,1,0,1.9,0,2.4c0,0.3,0.1,0.6,0.1,0.8c0,0,0,0,0,0.1 c-4.1-3.9-8.2-8.7-12.4-11.8c0.5-0.5,0.9-0.9,1.4-1.3C350.5,93.5,354.1,92.7,358.5,91.9z M341.9,103.5c0.5-1.4,1.2-2.6,1.9-3.7 c4,3.5,8.1,7,12.3,10.5c-5.2,0.4-10.3,0.9-15.4,1.4C340.7,108.7,340.9,106.5,341.9,103.5z M345.4,122.9c-3.6-1.5-4.5-8.1-4.6-8.7 c1.6-0.1,3.2-0.3,4.9-0.5c3.4-0.3,6.9-0.5,10.3-0.7c-1.9,1.8-3.8,3.6-5.7,5.3C348.7,119.9,347,121.4,345.4,122.9z M347.4,124.5 c0.1-0.1,0.3-0.2,0.4-0.3c1.9-1.4,3.6-3.2,5.3-4.8c1.7-1.8,3.5-3.5,5.3-5.1c0.1,0.7,0.1,1.5,0.2,2.2c0.1,0.9,0.2,1.8,0.3,2.7 c0,0.2,0,0.5,0.1,0.7c0.1,0.5,0.1,0.9,0.2,1.4c0.3,2.4,0.7,4.9,1.1,7.3C355.6,128.4,351.1,126.9,347.4,124.5z M366.7,127.4 c0,0.1-1.5,0.6-2.5,0.8c-0.3,0.1-0.5,0.1-0.8,0.1c0-2.4-1-6.2-1.1-7.6c-0.2-1.7-0.4-3.6-0.5-5.6c0.5,0.4,0.9,0.7,1.4,1.1 c0.5,0.4,0.9,0.8,1.4,1.2c2.5,2,5.5,4.6,8.2,6.4C372.2,124,370.1,125.9,366.7,127.4z M379,116.8c-1.2,2.1-2.3,3.7-3.8,5.1 c-0.2-0.2-0.4-0.3-0.6-0.4c-1.6-1-3.3-2-4.9-3.1c-2.6-1.9-5.1-3.7-7.6-5.8c2.8-0.1,5.6-0.3,8.4-0.5c3.3-0.1,6.4-0.5,9.2-0.9 c0.3-0.1,0.6-0.1,0.8-0.2C380.3,113.1,379.8,115.2,379,116.8z M377.1,108.7c-4.5,0.4-9.1,0.7-13.7,1.1c0.7-0.6,1.4-1.2,2-1.8 c3.4-3.1,8.7-8,11.1-9.6c2,2.5,3.4,5.4,4.1,8.8c0.1,0.4,0.1,0.9,0.1,1.4C379.5,108.3,378.2,108.7,377.1,108.7z"/></g><g id="change3_40"><path d="M325.2,73.2c0.2-5.8,0.1-10.3,0-16.1c-0.2-6.1-0.3-12.3-1.1-18.4c-0.5-3.6-1.3-7.2-3.3-10.3 c-2.9-5.1-9.2-6.3-14.6-5.8c-6.9,0.4-13.9,3.8-17.7,9.7c-1.6,2.7-2.1,5.9-2.6,8.9c-0.9,6.8-0.5,13.7-0.6,20.5 c-0.2,4.7-0.1,9.4-0.2,14c0,0,0,0,0,0c-0.1,0.5,0.2,1.1,0.8,1.1c8.1-0.4,16.2-1.1,24.4-1.8c4-0.3,10-1,13-0.9 C324.2,74.2,325,74.4,325.2,73.2z M297.2,74.2c-3.6,0.3-7.6,0.4-10.7,0.8c0.2-6.5,0.4-13,0.4-19.5c0-7.4-0.3-14.3,2.2-21.1 c2.1-5.1,9.6-9.6,15.2-10.1c7.5-1,13.8,0.3,16.5,7.5c1.6,4.2,2.1,9.7,2.3,14.9c0.4,7.4,0.4,14.9,0.4,22.3c0,1.1,0,2.1-0.1,3.2 C317.2,72,305.3,73.6,297.2,74.2z" fill="#ffbe4f"/></g><g><g fill="#202f5a" id="change1_10"><path d="M380.8,5.8c-1.2-1.4-2.1-3.6-4.1-3.9c-6.7-0.4-13.5-0.4-20.2-0.7c-12.7-0.7-25.4-0.9-38.1-0.7 c-3.6-0.2-7.2-0.3-10.8-0.4c-6.3-0.1-12.5,0.7-18.8,0.7c-1.8,0.2-8.7-0.5-9.4,1.7c-2.1,2.6-3.6,5.6-5.3,8.4 c-0.5,1.1-1.2,2.2-1.3,3.4c0,1,0.7,1.8,1.6,2c0.6,0.1,1.2,0.1,1.8,0.2c1.3,0.4,2.8,0.2,4.1,0.3c2.6,0,5.3-0.2,7.9-0.4 c0.1,0,0.3,0,0.4,0c2.3-0.2,5.3-0.1,6.7-0.5c17.5-1.1,35-1.5,52.5-1.4c11.1-0.1,22.2,0.7,33.4,0.2C386,13.9,382.5,8.1,380.8,5.8z"/><path d="M276,14.6C276,14.6,276,14.6,276,14.6C276,14.7,276,14.6,276,14.6z"/></g><g id="change3_19"><path d="M285.8,5c-1.2,2.6-2,5.4-2.8,8.2c-0.1,0.3-0.2,0.7,0,1c0.3,0.5,1,0.6,1.3,0.2c0.4-0.5,0.4-1.3,0.6-1.9 c0.7-2.8,2.1-5.2,2.7-7.3C287.5,4.2,286,4.1,285.8,5z" fill="#ffbe4f"/></g><g id="change3_20"><path d="M299.9,5.7c-0.1-0.5,0.1-1-0.3-1.4c-0.5-0.5-1.5-0.1-1.5,0.6c0.3,2.3-0.2,5.4,0.5,7.4 c0.5,0.5,1.5,0.1,1.4-0.6C300,9.8,300,7.7,299.9,5.7z" fill="#ffbe4f"/></g><g id="change3_21"><path d="M316.3,4.8c0-1.4-2.2-1.4-2.1,0c0.1,1.8,0.3,4.7,0.5,5.7c0.2,0.7,1.2,0.7,1.5,0.1 C316.4,8.7,316.2,6.7,316.3,4.8z" fill="#ffbe4f"/></g><g id="change3_22"><path d="M331.4,5.4c-0.1-0.6,0.1-1.4-0.4-1.9c-0.6-0.6-1.7-0.1-1.7,0.7c0.2,1.8,0.3,4.7,0.5,5.7 c0.2,0.6,1,0.7,1.4,0.3C331.9,9.1,331.3,6.8,331.4,5.4z" fill="#ffbe4f"/></g><g id="change3_23"><path d="M346.1,4.4c0-1.3-2.1-1.3-2.1,0c0.1,2.2-0.2,5.2,0.5,6.4c0.6,0.6,1.7,0.1,1.6-0.7 C346.1,8.2,346.1,6.3,346.1,4.4z" fill="#ffbe4f"/></g><g id="change3_24"><path d="M361,4.9c0-1.3-2-1.3-2,0c0.3,1.9,0.1,4.4,0.7,5.5c0.5,0.6,1.6,0.1,1.5-0.6C361.1,8.1,361.1,6.5,361,4.9z" fill="#ffbe4f"/></g><g id="change3_25"><path d="M372,7.9c-0.6-1.2-0.6-1.5-1.3-2.9c-0.4-1.4-2.3-0.9-1.7,0.5c0.6,1.1,0.9,2,1.3,3.5c0.3,0.7,0.1,0.9,1,1.2 C372.8,10.2,372.5,8.8,372,7.9z" fill="#ffbe4f"/></g></g><g id="change3_41"><path d="M372.4,69.3c0.3-9.8,0.3-19.8-1.2-29.5c-1.1-6.5-4.7-13.1-10.9-16c-4.3-1.7-9.5-1.7-13.8,0 c-5.1,2.2-9.7,6.3-11.5,11.8c-1.2,3.9-1.4,8-1.9,12c-0.8,5.5-1.5,12.4-1.8,19.1c-0.2,2.3-0.1,4.6-0.1,7c0,0.1,0,0.2,0,0.3 c-0.3,0.5,0,1.1,0.6,1.1c13-0.8,26-2,39-2.3c0,0,0,0,0,0C372.9,73.4,372.3,70.5,372.4,69.3z M333,73.6c-0.1-9.1,0.8-19,2-26.7 c0.5-4.2,0.8-8.8,2.2-12.2c3.1-6,9.1-9.7,14.8-10.2c10.8-1,16.5,7.7,17.7,18.3c0.6,7.2,1,17.2,0.8,25.3c0,1.4-0.1,1.8-0.1,2.8 c-11.6,0.2-23.2,1.6-34.9,2.4C334.6,73.4,333.8,73.5,333,73.6z" fill="#ffbe4f"/></g><g fill="#f75454" id="change2_3"><path d="M494,39.9c-0.7-9.2-1.6-18.4-1.2-27.6c0.1,0,0.1,0,0.2-0.1c0.7-0.4,0.6-1.5-0.2-1.7c-0.8-0.1-1.1-0.1-1.4-0.2 c-2.8,0-5.5,0.1-8.3,0.1c-3.1-0.1-6.2-0.6-9.3-0.8c-18.7-0.1-37.4-0.8-56,0.7c-7.6,0.4-15,1.7-22.5,2.9c-0.4,0.1-0.9,0.1-1.1,0.5 c0,0.1,0,0.1,0,0.2c-0.1,0.1-0.2,0.2-0.3,0.4c-2.3,25.7-2,51.6-1.7,77.5c0.1,6,0.3,12,0.5,18c0.1,1.8-0.1,2.4,0.2,3.9 c0.1,0.6,0.6,1.1,1.2,1.4c3.4,1.4,7.2,1.1,10.8,1.3c8.8,0,17.6-0.3,26.3,0c8.9,0,17.7,1,26.6,1.5c8.9,0.5,17.7,0.1,26.6-0.3 c4-0.1,7.9,0.2,11.9-0.3c1.3-0.3,1.4-2,1.5-3.1C499.7,89.4,495.8,64.6,494,39.9z M440.2,72.7c-0.2,0.3-0.6,0.3-0.9,0.1 c-1.4,0.1-2.8,0.1-4.2,0.2c-1.5,0.1-2.9,0.3-4.4,0.4c-3.1,0.3-6.1,0.5-9.2,0.7c-6.1,0.5-12.2,1.1-18.3,1.5 c-0.8,0.1-0.9-0.8-0.5-1.3c-0.5-4.2-0.2-8.6-0.1-12.8c0.1-4,0.2-8.1,0.3-12.1c0.1-3.8,0-7.6,0.7-11.3c0.7-3.2,1.9-6.4,4.3-8.7 c1.1-1.1,2.4-1.9,3.8-2.5c1.5-1.4,3.7-2.3,5.6-2.8c2.4-0.7,5-1,7.5-1c2.4,0,5,0.2,7.1,1.2c1.9,0.9,3.5,2.5,4.6,4.3 c0.1,0.2,0.1,0.5,0,0.7c1.1,2,1.9,4.1,2.3,6.4c0.5,2.2,0.8,4.5,0.9,6.7c0.1,1.3,0.2,2.7,0.2,4c0.1,2,0.2,4.1,0.3,6.1 c0.3,6.3,0.5,12.5,0.2,18.8C440.8,71.8,440.7,72.5,440.2,72.7z M487.1,70.4C487.1,70.4,487.1,70.4,487.1,70.4 c0.2,0.5,0,1.2-0.6,1.2c-3.3,0.1-6.6,0.1-9.8,0.2c-1.5,0.1-3,0.1-4.6,0.2c-1.6,0.1-3.2,0.4-4.7,0.7c-3,0.5-6,0.9-9.1,1 c-3,0.1-6.1,0.1-9.1,0.4c-0.9,0.1-1.1-1.2-0.5-1.6c0-0.1,0-0.2,0-0.4c0.8-4.1-0.2-8.2,0.1-12.3c0.2-1.8,0.6-3.4,0.9-5.2 c0.3-1.9,0.5-3.7,0.7-5.6c0.3-3.5,0.8-7,1.6-10.4c0.6-2.9,1.5-5.8,3.3-8.2c1.3-1.7,3-2.9,5-3.9c0.1-0.1,0.2-0.2,0.3-0.3 c2.1-1.1,4.3-2.3,6.7-2.6c2.3-0.3,4.9-0.1,7.2,0.4c3.9,0.7,6.8,3.9,8.7,7.2c2,3.5,2.9,7.5,3.4,11.5 C487.8,51.9,487.7,61.3,487.1,70.4z"/><path d="M394.9,113.3C394.9,113.3,394.9,113.4,394.9,113.3C394.9,113.4,394.9,113.4,394.9,113.3 C394.9,113.4,394.9,113.3,394.9,113.3z"/></g><g fill="#ffbe4f" id="change3_16"><path d="M436.5,108.4c-0.1-1.5-0.5-3.8-1.4-6c-1.6-4.1-4.7-7.4-8.2-10c-2.6-1.6-5.7-2.6-8.7-3.2 c-4.6-1.2-9.5-0.4-13.9,1.1c-3.9,1.6-7.3,4.6-9.5,8.1c-1.2,1.9-2,3.8-2.6,5.6c-1,2.7-1.6,5.4-1.6,8.1c0.2,7,2.8,12.3,9.2,15.8 c2.9,1.7,6.1,2.9,9.4,3.2c2.4,0.2,4.9-0.1,7.3-0.5c0.8-0.1,1.6-0.3,2.5-0.5c0.1,0,0.2,0,0.4-0.1c7.6-2.1,14.2-8.1,16.8-15.6 C436.7,112.6,436.7,110.5,436.5,108.4z M424.7,93.9c1,0.6,1.8,1.3,2.7,2.1c-3.5,2.6-6.6,5.8-9.6,8.9c-1.2,1-2.3,2.1-3.4,3.2 c-0.4-5.4-0.8-10.9-1.1-15.3c0.1-0.3,0.1-0.7,0-1C416.8,91.4,421.6,91.9,424.7,93.9z M411.6,91.9c-0.1,0.3,0,0.7-0.1,0.9 c0,0.4,0,0.8,0,1.2c-0.3,3.9-0.4,7.9-0.4,11.8c0,0,0,0,0,0c-0.3,1,0,1.9,0,2.4c0,0.3,0.1,0.6,0.1,0.8c0,0,0,0,0,0.1 c-4.1-3.9-8.2-8.7-12.4-11.8c0.5-0.5,0.9-0.9,1.4-1.3C403.6,93.5,407.2,92.7,411.6,91.9z M395,103.5c0.5-1.4,1.2-2.6,1.9-3.7 c4,3.5,8.1,7,12.3,10.5c-5.2,0.4-10.3,0.9-15.4,1.4C393.8,108.7,394,106.5,395,103.5z M398.5,122.9c-3.6-1.5-4.5-8.1-4.6-8.7 c1.6-0.1,3.2-0.3,4.9-0.5c3.4-0.3,6.9-0.5,10.3-0.7c-1.9,1.8-3.8,3.6-5.7,5.3C401.8,119.9,400.1,121.4,398.5,122.9z M400.5,124.5 c0.1-0.1,0.3-0.2,0.4-0.3c1.9-1.4,3.6-3.2,5.3-4.8c1.7-1.8,3.5-3.5,5.3-5.1c0.1,0.7,0.1,1.5,0.2,2.2c0.1,0.9,0.2,1.8,0.3,2.7 c0,0.2,0,0.5,0.1,0.7c0.1,0.5,0.1,0.9,0.2,1.4c0.3,2.4,0.7,4.9,1.1,7.3C408.7,128.4,404.2,126.9,400.5,124.5z M419.8,127.4 c0,0.1-1.5,0.6-2.5,0.8c-0.3,0.1-0.5,0.1-0.8,0.1c0-2.4-1-6.2-1.1-7.6c-0.2-1.7-0.4-3.6-0.5-5.6c0.5,0.4,0.9,0.7,1.4,1.1 c0.5,0.4,0.9,0.8,1.4,1.2c2.5,2,5.5,4.6,8.2,6.4C425.3,124,423.2,125.9,419.8,127.4z M432.1,116.8c-1.2,2.1-2.3,3.7-3.8,5.1 c-0.2-0.2-0.4-0.3-0.6-0.4c-1.6-1-3.3-2-4.9-3.1c-2.6-1.9-5.1-3.7-7.6-5.8c2.8-0.1,5.6-0.3,8.4-0.5c3.3-0.1,6.4-0.5,9.2-0.9 c0.3-0.1,0.6-0.1,0.8-0.2C433.4,113.1,432.9,115.2,432.1,116.8z M430.2,108.7c-4.5,0.4-9.1,0.7-13.7,1.1c0.7-0.6,1.4-1.2,2-1.8 c3.4-3.1,8.7-8,11.1-9.6c2,2.5,3.4,5.4,4.1,8.8c0.1,0.4,0.1,0.9,0.1,1.4C432.6,108.3,431.3,108.7,430.2,108.7z"/><path d="M499.8,108.4c-0.1-1.5-0.5-3.8-1.4-6c-1.6-4.1-4.7-7.4-8.2-10c-2.6-1.6-5.7-2.6-8.7-3.2 c-4.6-1.2-9.5-0.4-13.9,1.1c-3.9,1.6-7.3,4.6-9.5,8.1c-1.2,1.9-2,3.8-2.6,5.6c-1,2.7-1.6,5.4-1.6,8.1c0.2,7,2.8,12.3,9.2,15.8 c2.9,1.7,6.1,2.9,9.4,3.2c2.4,0.2,4.9-0.1,7.3-0.5c0.8-0.1,1.6-0.3,2.5-0.5c0.1,0,0.2,0,0.4-0.1c7.6-2.1,14.2-8.1,16.8-15.6 C499.9,112.6,499.9,110.5,499.8,108.4z M488,93.9c1,0.6,1.8,1.3,2.7,2.1c-3.5,2.6-6.6,5.8-9.6,8.9c-1.2,1-2.3,2.1-3.4,3.2 c-0.4-5.4-0.8-10.9-1.1-15.3c0.1-0.3,0.1-0.7,0-1C480.1,91.4,484.8,91.9,488,93.9z M474.9,91.9c-0.1,0.3,0,0.7-0.1,0.9 c0,0.4,0,0.8,0,1.2c-0.3,3.9-0.4,7.9-0.4,11.8c0,0,0,0,0,0c-0.3,1,0,1.9,0,2.4c0,0.3,0.1,0.6,0.1,0.8c0,0,0,0,0,0.1 c-4.1-3.9-8.2-8.7-12.4-11.8c0.5-0.5,0.9-0.9,1.4-1.3C466.9,93.5,470.4,92.7,474.9,91.9z M458.3,103.5c0.5-1.4,1.2-2.6,1.9-3.7 c4,3.5,8.1,7,12.3,10.5c-5.2,0.4-10.3,0.9-15.4,1.4C457.1,108.7,457.3,106.5,458.3,103.5z M461.7,122.9c-3.6-1.5-4.5-8.1-4.6-8.7 c1.6-0.1,3.2-0.3,4.9-0.5c3.4-0.3,6.9-0.5,10.3-0.7c-1.9,1.8-3.8,3.6-5.7,5.3C465.1,119.9,463.4,121.4,461.7,122.9z M463.8,124.5 c0.1-0.1,0.3-0.2,0.4-0.3c1.9-1.4,3.6-3.2,5.3-4.8c1.7-1.8,3.5-3.5,5.3-5.1c0.1,0.7,0.1,1.5,0.2,2.2c0.1,0.9,0.2,1.8,0.3,2.7 c0,0.2,0,0.5,0.1,0.7c0.1,0.5,0.1,0.9,0.2,1.4c0.3,2.4,0.7,4.9,1.1,7.3C472,128.4,467.4,126.9,463.8,124.5z M483,127.4 c0,0.1-1.5,0.6-2.5,0.8c-0.3,0.1-0.5,0.1-0.8,0.1c0-2.4-1-6.2-1.1-7.6c-0.2-1.7-0.4-3.6-0.5-5.6c0.5,0.4,0.9,0.7,1.4,1.1 c0.5,0.4,0.9,0.8,1.4,1.2c2.5,2,5.5,4.6,8.2,6.4C488.6,124,486.4,125.9,483,127.4z M495.4,116.8c-1.2,2.1-2.3,3.7-3.8,5.1 c-0.2-0.2-0.4-0.3-0.6-0.4c-1.6-1-3.3-2-4.9-3.1c-2.6-1.9-5.1-3.7-7.6-5.8c2.8-0.1,5.6-0.3,8.4-0.5c3.3-0.1,6.4-0.5,9.2-0.9 c0.3-0.1,0.6-0.1,0.8-0.2C496.6,113.1,496.1,115.2,495.4,116.8z M493.4,108.7c-4.5,0.4-9.1,0.7-13.7,1.1c0.7-0.6,1.4-1.2,2-1.8 c3.4-3.1,8.7-8,11.1-9.6c2,2.5,3.4,5.4,4.1,8.8c0.1,0.4,0.1,0.9,0.1,1.4C495.9,108.3,494.6,108.7,493.4,108.7z"/></g><g id="change3_42"><path d="M441.6,73.2c0.2-5.8,0.1-10.3,0-16.1c-0.2-6.1-0.3-12.3-1.1-18.4c-0.5-3.6-1.3-7.2-3.3-10.3 c-2.9-5.1-9.2-6.3-14.6-5.8c-6.9,0.4-13.9,3.8-17.7,9.7c-1.6,2.7-2.1,5.9-2.6,8.9c-0.9,6.8-0.5,13.7-0.6,20.5 c-0.2,4.7-0.1,9.4-0.2,14c0,0,0,0,0,0c-0.1,0.5,0.2,1.1,0.8,1.1c8.1-0.4,16.2-1.1,24.4-1.8c4-0.3,10-1,13-0.9 C440.6,74.2,441.4,74.4,441.6,73.2z M413.6,74.2c-3.6,0.3-7.6,0.4-10.7,0.8c0.2-6.5,0.4-13,0.4-19.5c0-7.4-0.3-14.3,2.2-21.1 c2.1-5.1,9.6-9.6,15.2-10.1c7.5-1,13.8,0.3,16.5,7.5c1.6,4.2,2.1,9.7,2.3,14.9c0.4,7.4,0.4,14.9,0.4,22.3c0,1.1,0,2.1-0.1,3.2 C433.5,72,421.6,73.6,413.6,74.2z" fill="#ffbe4f"/></g><g><g fill="#202f5a" id="change1_8"><path d="M497.1,5.8c-1.2-1.4-2.1-3.6-4.1-3.9c-6.7-0.4-13.5-0.4-20.2-0.7c-12.7-0.7-25.4-0.9-38.1-0.7 c-3.6-0.2-7.2-0.3-10.8-0.4c-6.3-0.1-12.5,0.7-18.8,0.7c-1.8,0.2-8.7-0.5-9.4,1.7c-2.1,2.6-3.6,5.6-5.3,8.4 c-0.5,1.1-1.2,2.2-1.3,3.4c0,1,0.7,1.8,1.6,2c0.6,0.1,1.2,0.1,1.8,0.2c1.3,0.4,2.8,0.2,4.1,0.3c2.6,0,5.3-0.2,7.9-0.4 c0.1,0,0.3,0,0.4,0c2.3-0.2,5.3-0.1,6.7-0.5c17.5-1.1,35-1.5,52.5-1.4c11.1-0.1,22.2,0.7,33.4,0.2 C502.4,13.9,498.8,8.1,497.1,5.8z"/><path d="M392.4,14.6C392.4,14.6,392.4,14.6,392.4,14.6C392.4,14.7,392.4,14.6,392.4,14.6z"/></g><g id="change3_2"><path d="M402.2,5c-1.2,2.6-2,5.4-2.8,8.2c-0.1,0.3-0.2,0.7,0,1c0.3,0.5,1,0.6,1.3,0.2c0.4-0.5,0.4-1.3,0.6-1.9 c0.7-2.8,2.1-5.2,2.7-7.3C403.9,4.2,402.4,4.1,402.2,5z" fill="#ffbe4f"/></g><g id="change3_3"><path d="M416.3,5.7c-0.1-0.5,0.1-1-0.3-1.4c-0.5-0.5-1.5-0.1-1.5,0.6c0.3,2.3-0.2,5.4,0.5,7.4 c0.5,0.5,1.5,0.1,1.4-0.6C416.3,9.8,416.3,7.7,416.3,5.7z" fill="#ffbe4f"/></g><g id="change3_4"><path d="M432.6,4.8c0-1.4-2.2-1.4-2.1,0c0.1,1.8,0.3,4.7,0.5,5.7c0.2,0.7,1.2,0.7,1.5,0.1 C432.8,8.7,432.6,6.7,432.6,4.8z" fill="#ffbe4f"/></g><g id="change3_5"><path d="M447.8,5.4c-0.1-0.6,0.1-1.4-0.4-1.9c-0.6-0.6-1.7-0.1-1.7,0.7c0.2,1.8,0.3,4.7,0.5,5.7 c0.2,0.6,1,0.7,1.4,0.3C448.3,9.1,447.7,6.8,447.8,5.4z" fill="#ffbe4f"/></g><g id="change3_6"><path d="M462.5,4.4c0-1.3-2.1-1.3-2.1,0c0.1,2.2-0.2,5.2,0.5,6.4c0.6,0.6,1.7,0.1,1.6-0.7 C462.5,8.2,462.5,6.3,462.5,4.4z" fill="#ffbe4f"/></g><g id="change3_7"><path d="M477.3,4.9c0-1.3-2-1.3-2,0c0.3,1.9,0.1,4.4,0.7,5.5c0.5,0.6,1.6,0.1,1.5-0.6C477.5,8.1,477.4,6.5,477.3,4.9z" fill="#ffbe4f"/></g><g id="change3_8"><path d="M488.3,7.9c-0.6-1.2-0.6-1.5-1.3-2.9c-0.4-1.4-2.3-0.9-1.7,0.5c0.6,1.1,0.9,2,1.3,3.5c0.3,0.7,0.1,0.9,1,1.2 C489.1,10.2,488.8,8.8,488.3,7.9z" fill="#ffbe4f"/></g></g><g id="change3_43"><path d="M488.7,69.3c0.3-9.8,0.3-19.8-1.2-29.5c-1.1-6.5-4.7-13.1-10.9-16c-4.3-1.7-9.5-1.7-13.8,0 c-5.1,2.2-9.7,6.3-11.5,11.8c-1.2,3.9-1.4,8-1.9,12c-0.8,5.5-1.5,12.4-1.8,19.1c-0.2,2.3-0.1,4.6-0.1,7c0,0.1,0,0.2,0,0.3 c-0.3,0.5,0,1.1,0.6,1.1c13-0.8,26-2,39-2.3c0,0,0,0,0,0C489.3,73.4,488.6,70.5,488.7,69.3z M449.3,73.6c-0.1-9.1,0.8-19,2-26.7 c0.5-4.2,0.8-8.8,2.2-12.2c3.1-6,9.1-9.7,14.8-10.2c10.8-1,16.5,7.7,17.7,18.3c0.6,7.2,1,17.2,0.8,25.3c0,1.4-0.1,1.8-0.1,2.8 c-11.6,0.2-23.2,1.6-34.9,2.4C451,73.4,450.2,73.5,449.3,73.6z" fill="#ffbe4f"/></g></g></svg>