<?xml version="1.0" encoding="UTF-8" standalone="no"?><svg xmlns="http://www.w3.org/2000/svg" xmlns:xlink="http://www.w3.org/1999/xlink" fill="#000000" height="369.8" preserveAspectRatio="xMidYMid meet" version="1" viewBox="-0.2 -1.7 501.3 369.8" width="501.3" zoomAndPan="magnify"><g><g id="change1_1"><path d="M499.2,355.1c1.9-32.2-0.1-64.5-1-96.7c0.3-48.7-0.3-97.5-0.7-146.2c0.5-34.7,3.1-69.5-1.4-104.1 c0-2-1.2-3.3-2.7-3.8c-2-1.8-5.4-1.4-8.1-1.7c-14.5-1.6-29.1-0.3-43.6-0.3C381.8,1,321.9,2.3,262,3.1 c-51.3,0.7-102.5-1.7-153.8-2.5C74,0.3,39.5-1.7,5.6,4C5.3,4,5,4.2,4.8,4.3c-2.3,0.2-4.4,2-4.2,4.6c-0.8,10.7,0,33.8,0,48.9 c0,17.3-0.7,34.6-0.6,51.9C1.3,171.8,1.4,234,0.6,296.2c-0.3,20-0.7,40.3,1.3,60.2c0,0.3,0,0.7,0.1,1c0.1,0.6,0.1,1.2,0.2,1.9 c0.8,2.3,3.4,2.7,5.2,1.9c1.3,0.1,2.5,0.2,3.8,0.4c-2.7-0.4,1.5,0.3,2.4,0.4c5,0.8,10.1,1,15.1,1.3c21.1,1.1,42.3,0.9,63.4,1.2 c44.5,1.6,88.9,2.4,133.4,2.2c49.7,0.3,99.4,1.4,149.1-0.7c34.8-1.9,69.6,1.6,104.3-1.8c7.4-0.8,9-1.2,16.2-2c1.1,0,2.2-0.5,3-1.3 c1.3-1.2,1.5-3,0.9-4.5C499.2,356,499.3,355.6,499.2,355.1z" fill="#d3efa4"/></g><g id="change2_1"><path d="M475.8,30.5c1.6-4-0.4-9.4-5.9-9.1c-9.5,0.5-19,1.1-28.5,2c-6.4-0.1-12.7-0.3-19.1-0.3 c-13.7-0.1-27.5-0.1-41.2,0.1c-3.9,0.1-6.2,3-6.7,6.7c-0.3,2.5-0.6,4.9-0.9,7.4c-0.9,2-1.3,4.2-1.3,6.5c0,0.1,0,0.1,0,0.2 c-18.9,1.1-37.7,2.4-56.6,3.9c-3.9,0.3-6.3,2.8-6.7,6.7c-0.7,7.1-0.6,14.2,0.3,21.2c0.5,3.6,1.1,7.2,1.9,10.7 c0.4,1.6,0.8,3.1,1.3,4.7c0,0.1,0.1,0.3,0.1,0.5c-2.1,0-4.2,0.1-6.3,0.2c-4.5,0.2-8.9,0.6-13.4,1.2c-4.4,0.6-8.8,1.2-13.1,2.1 c-3.8,0.8-7.9,1.5-11.1,3.8c-6.7,4.8-5.4,14.6-5.1,22.2c-18.2-0.2-36.4-0.1-54.5,0.4c-3.1,0.1-12,2.9-11.4,10.9 c0.7,8.8-1.7,27.8-1.3,36.6c-7.6,0.6-61.8,3.3-65.1,3.6c-0.2-2.6-0.5-5.2-0.8-7.7c-0.6-4.8-0.6-10.8-2.8-15.2 c-2.7-5.3-7.8-5.8-13.1-6.1c-5.5-0.3-11-0.6-16.5-0.8c-2.6-0.1-5.3-0.3-7.9-0.4c-0.4,0-1-0.2-1.5-0.2c0.2-0.6-0.3-2.1-0.4-2.7 c-0.2-1.3-0.3-2.6-0.5-3.9c-0.3-2.6-0.7-5.2-1-7.7c-0.6-4.3-1.1-8.6-1.7-12.9c0.9-1.1,1.6-2.4,1.9-4c0.7-3,0.2-6.4,0.1-9.4 c-0.1-3.1-0.2-6.1-0.3-9.2c-0.1-4.4-0.3-8.8-0.4-13.2c7.9-0.6,15.9,0.4,23.7,1c4.6,0.3,9.2,0.6,13.8,0.2c4.7-0.3,10.2-0.8,14.4-3.2 c4.7-2.7,5.6-7.2,6.1-12.2c0.7-5.7,1.2-11.4,1.7-17c0.4-4.8,0.8-9.6,1.1-14.5c0.3-5.5-1.5-10.9-7.5-12.2c-4.7-1-9.8-0.8-14.6-1.1 c-5.7-0.4-11.4-0.8-17.1-1.2L76.4,17c-9.8-0.7-19.8-2-29.6-1.7c-8.6,0.3-21.7,3.5-21.7,14.3c0,4.4,0.8,9,1.5,13.4 c1,20.7,3.3,41.3,7.1,61.6c0.9,5,3.6,8.9,8.7,10.3c4,1,8.4,1.3,12.7,1.5c0.3,14.3,1.3,28.5,3.6,42.5c0.8,4.8,3.1,9.5,7.5,12 c4.3,2.4,9.2,2.4,13.9,2.3c9-0.1,18-0.2,27-0.3c0.4,4.6,0.8,9.2,1.2,13.9c0.6,6.9,0.8,14.6,8.9,16.8c3.1,0.8,6.6,0.6,9.7,0.6 c3.4,0,6.8,0,10.2-0.1c1,0,1.9-0.1,2.9-0.2c0.1,1.5,0.3,2.9,0.4,4.4c0.3,4.3,0.6,8.7,0.9,13c0,0.3,0,1.2,0.1,1.9 c-1.9,0.2-4.1,1.2-5.8,1.6c-8.3,1.8-94.7,4-97.4,5.4c-1.6,0.8-7.5,3.3-8,9.8c-1.2,17.9,1.2,35.4,3.3,53.3c0.5,4.2,1,8.4,1.4,12.5 c0.5,4.7,0.6,9.8,3.9,13.5c5.3,5.9,15.4,4.8,22.6,5.2c17.6,0.8,35.2,0.8,52.8,0c8-0.3,16.6-1.2,18.8-10.5c0.9-3.9,0.5-8.2,0.4-12.2 c0-4.1,0.2-8.4-0.2-12.5c-0.5-5.3-3.6-9.5-8.9-10.6c-3.3-0.7-6.8-0.6-10.2-0.4c0-2.2-0.1-4.4-0.1-6.6l-0.1-5.9 c0-1.1-0.1-2.2-0.1-3.3c0-0.2,0-0.4,0-0.6c0.1,0,0.2,0,0.2,0c1.9,0.2,4.2-0.3,6.1-0.5l49.6-3.9c3.4-0.3,6.9-2.8,6.7-6.7l-2.6-48.8 c10.4-1.3,19.1-0.8,29.5-2.1c0.7,3.6,1.1,6.2,6.6,6.7c4.8,0.4,12.3,0.4,17.5,0.2c-0.6,47.3,2.5,94.6,9.2,141.4 c0.4,2.9,3.8,4.8,6.4,4.9c6.9,0.2,13.8,0.5,20.8,0.7c3.5,0.1,6.8-3.1,6.7-6.7c-1.4-46.3-2.8-92.6-4.2-138.8 c7.6-0.1,15.3-0.5,22.9-1.2c13.1-1.2,26.7-2.5,39.4-5.8c7-1.8,9.4-7.1,10.7-13.6c0-0.1,0-0.1,0-0.2c9.7-0.9,29.1-0.9,38.8-1.4 c0.3,1.2,1,2.9,1.2,3.5c0.9,3.5,7.8,82.6,7.5,89.2c-0.3,6.3,0,14.5,4.9,19.1c3.1,2.9,7.2,3.1,11.3,3.2c3.9,0.1,7.7,0.2,11.6,0.4 c7.9,0.3,15.9,0.5,23.8,0.8c3.7,0.1,6.5-3.1,6.7-6.7c0.2-6.9,2.5-18.4-7.2-19.6c-3.4-0.4-7.1,0-10.6,0.1c-3.8,0.1-7.6,0.2-11.4,0.3 c0.1,0-0.4,0-1,0c-0.1-0.7-0.1-1.3-0.1-1.4c0-3.8,0.1-7.5,0.1-11.3c0-7.5-0.1-14.9-0.4-22.4c-0.6-15.1-1.8-30.1-4-45 c-1-7.2-2.3-14.3-3.8-21.4c-1.5-6.9-3.8-13-10.7-15.8c-6.6-2.7-13.7-1.1-20.5-0.3c-6.7,0.8-27,1.5-33.7,1.5 c-0.1-4.1-0.4-8.1-0.9-12.2c-0.7-5.8-1.3-12.5-4.3-17.6c-3.3-5.6-9-7.4-15.2-7.8c-6.7-0.4-13.4-0.7-20.2-0.9 c-1.9-0.1-3.9-0.1-5.8-0.2c-0.1-2.5-0.2-5-0.4-7.5c12.6-1.7,25.1-3.9,37.5-6.6c3.8-0.8,5.2-4.8,4.6-8.2c-1.4-8.5-3.2-17.1-4.2-25.7 c-0.3-2.4-0.8-6,1.3-7.8c1.9-1.6,5-1.9,7.4-2.1c9.7-0.8,29.1-1.9,29.1-1.9s-0.7,21.8,15,22.9c8.8,0.6,25.5,0.7,34.3,1.1 c1.7,0.1,6.3-0.4,7.7,1.2c1.5,1.8,0.5,6.4,0.5,8.5c0,4.8-0.3,9.7-0.1,14.5c0.2,4.8,2.4,8.9,7.2,10.5c4.5,1.5,9.9,1.5,14.6,2.1 c5.1,0.6,10.3,1.3,15.4,1.9c3.7,0.5,6.5-3.4,6.7-6.7c1.5-24.5,3-49,4.5-73.4C476.4,40.3,477.4,34.8,475.8,30.5z" fill="#ffffff"/></g><g><g><g><g id="change3_10"><path d="M329.8,355.8c0-0.1-0.1-0.2-0.2-0.3c-0.1-1.4-0.2-2.7-0.3-4.1c-0.5-5.1-0.7-10.1-0.9-15.2 c-0.2-1.3,0.2-2.8-0.3-4.1c-0.1-0.2-0.4-0.2-0.5-0.1c-7-0.2-13.9-0.6-20.9-0.5c-5.1,0.4-10.3,0.8-15.5,0.9 c-3.3,0.3-7.7,0.8-10.1,0.7c-0.5,0-0.8,0.6-0.8,1.1c-0.1,0.2-0.1,1.4-0.1,0.9c0,0.9,0,1.8,0,2.7c-0.3,3.6-0.2,7.6,0,11.4 c0.1,2.5,0.1,5,0.5,7.4c0,0.2,0.2,0.3,0.3,0.4c0.1,0.1,0.2,0.2,0.4,0.2c8.1-0.1,16.2-0.1,24.3-0.1c7.1,0.1,14.2,0.3,21.3-0.6 c0.4-0.1,1.5,0,1.8-0.1c0.1,0,0.2,0,0.3,0C329.6,356.7,330,356.3,329.8,355.8z" fill="#1f89f8"/></g><g id="change4_12"><path d="M327.1,356.7L327.1,356.7L327.1,356.7C327,356.7,327.1,356.7,327.1,356.7z" fill="#ffbe4f"/></g><g id="change4_13"><path d="M327.1,356.7L327.1,356.7C327.2,356.7,327.2,356.7,327.1,356.7z" fill="#ffbe4f"/></g></g><g id="change4_5"><path d="M328.3,332.1c-0.4-0.8-1.4-2.9-2.1-4.2c-1-1.8-1.9-3.8-3.1-5.5c0-0.2-0.1-0.3-0.2-0.4c-0.1,0-0.1,0-0.2,0 c0,0,0,0-0.1,0c-9.4-0.1-18.8-0.2-28.2-0.2c-0.5,0-5.6,0-7,0.4c-0.2-0.1-0.4-0.1-0.5,0.1c-1.5,3.8-3.9,7.1-6.1,10.5 c-0.2,0.5-0.9,1-0.6,1.5c0.2,0.3,0.5,0.3,0.8,0.3c0.7,0,1.4,0,2.2,0l0,0c15-0.2,30.3-0.2,45.2-1.1 C328.9,333.6,328.4,332.3,328.3,332.1z" fill="#ffbe4f"/></g><g><g><g id="change3_11"><path d="M219.8,355.8c0-0.1-0.1-0.2-0.2-0.3c-0.1-1.4-0.2-2.7-0.3-4.1c-0.5-5.1-0.7-10.1-0.9-15.2 c-0.2-1.3,0.2-2.8-0.3-4.1c-0.1-0.2-0.4-0.2-0.5-0.1c-7-0.2-13.9-0.6-20.9-0.5c-5.1,0.4-10.3,0.8-15.5,0.9 c-3.3,0.3-7.7,0.8-10.1,0.7c-0.5,0-0.8,0.6-0.8,1.1c-0.1,0.2-0.1,1.4-0.1,0.9c0,0.9,0,1.8,0,2.7c-0.3,3.6-0.2,7.6,0,11.4 c0.1,2.5,0.1,5,0.5,7.4c0,0.2,0.2,0.3,0.3,0.4s0.2,0.2,0.4,0.2c8.1-0.1,16.2-0.1,24.3-0.1c7.1,0.1,14.2,0.3,21.3-0.6 c0.4-0.1,1.5,0,1.8-0.1c0.1,0,0.2,0,0.3,0C219.6,356.7,220,356.3,219.8,355.8z" fill="#1f89f8"/></g><g id="change4_14"><path d="M217.1,356.7L217.1,356.7C217.1,356.7,217,356.7,217.1,356.7C217,356.7,217.1,356.7,217.1,356.7z" fill="#ffbe4f"/></g><g id="change4_15"><path d="M217.1,356.7L217.1,356.7C217.2,356.7,217.1,356.7,217.1,356.7z" fill="#ffbe4f"/></g></g><g id="change4_1"><path d="M218.9,332c0.1-0.2,0-0.4-0.1-0.6c-0.4-0.8-1.4-2.9-2.1-4.2c-1-1.8-1.9-3.8-3.1-5.5c0-0.2-0.1-0.3-0.3-0.4 c-0.1,0-0.1,0-0.2,0c0,0,0,0-0.1,0c-9.5-0.1-19-0.2-28.5-0.2c-0.5,0-5.7,0-7.1,0.4c-0.2-0.1-0.4-0.1-0.5,0.1 c-1.5,3.8-3.9,7.1-6.2,10.5c-0.2,0.5-0.9,1-0.7,1.5c0.2,0.3,0.5,0.3,0.8,0.3c0.7,0,1.5,0,2.2,0l0,0c15.1-0.2,30.3-0.2,45.4-1.1 C219,332.9,219.2,332.3,218.9,332z" fill="#ffbe4f"/></g><g id="change4_2"><path d="M216.7,340.7c-1.2,0-6.9,0.2-7.2-0.1c0,0-0.2-1.7-0.2-2.2c0.1,0,0.2,0,0.3-0.1c0.2,0,1.6-0.2,2-0.2 s0.9-0.1,0.9-0.5c-0.2-1.1-0.2-2-0.4-3.3c-0.2-0.4-0.8-0.3-0.8,0.2c0.1,1,0.2,1.9,0.4,2.9h-0.1c-0.6,0.1-1.1,0.2-1.9,0.2 c-0.4,0.1-0.9,0-1.1,0.4c-0.2,0.5-0.1,1.1-0.1,1.7c0,0.5,0,1,0.2,1.4c0.5,0.7,1.5,0.7,2.2,0.7c0.5,0,1,0,1.5,0 c0,0.9-0.1,2,0.4,2.7c0.8,0.6,2.5,0.4,3.2,0.3c0.4-0.1,0.3-0.8-0.2-0.8c-0.1,0-1.3-0.1-1.8-0.2c0,0,0,0-0.1,0 c-0.2,0-0.3-0.1-0.4-0.1v-0.1c0-0.1,0-0.6,0-0.7c-0.1-0.4,0-0.8,0-1.2c1.3,0,2.5,0,3.3-0.1C217.2,341.8,217.5,340.8,216.7,340.7 z" fill="#ffbe4f"/></g><g id="change4_3"><path d="M215.7,350.9c-2,0-4.5-0.1-5.4-0.7c0-0.4,0-0.5,0-0.7c0-0.1,0.1-0.2,0.1-0.3c0,0,0,0,0.1-0.1 c0.1,0,0.3-0.1,0.4-0.1c2.3-0.3,4.8-0.3,6.6-0.9c0.4-0.3,0-1-0.5-0.9c-2.5,0.5-5.7,0.5-7.3,1.1c-0.5,0.5-0.5,1.4-0.4,2.1 c0.4,0.9,1.5,1.1,2.4,1.2c0.3,0,0.7,0.1,1,0.1c0.2,1.1-0.3,2.7,1,3.2c0.6,0.2,1.3,0.3,2,0.3c0.6,0.1,1.5,0,1.5-0.8 c0-0.9-1-0.8-1.7-0.9c-0.6-0.1-0.8-0.1-1.1-0.2c0-0.2,0-0.4-0.1-1c0-0.1,0-0.3,0-0.4c1,0.1,2.1,0.1,2.9,0 c0.5-0.2,0.5-0.9,0.1-1.2C216.7,350.7,216.3,351,215.7,350.9z" fill="#ffbe4f"/></g><g id="change4_4"><path d="M181.7,352.1c-0.8-0.3-1.1-0.1-1.8-0.3c-0.3-0.1-0.7-0.1-1-0.2c-0.2-0.6,0.1-1.6-0.1-2.5c0.3,0,0.6,0,0.9,0 c2-0.1,3.8-0.2,3.2-2.2c-0.2-0.9-0.3-2.4-1.2-2.8c-1-0.1-2-0.1-3-0.2c0.2-0.4-0.1-0.8,0-0.9c-0.1-0.6,0-1.3-0.3-1.9 c0.9-0.1,2-0.3,2.4-0.3c0.6,0,1.2-0.4,1.1-1.1c-0.3-1.1-0.6-3.1-1.9-3.1c-1.5-0.1-4.8-0.4-6.9-0.3c-0.7,0.2-0.4,1.3,0.3,1.3 c2.2,0.1,6.6-0.2,6.7,0.3c0.1,0.2,0.4,1,0.5,1.7c-0.5,0.1-1.6,0.4-2.3,0.5c-0.5,0.1-1,0.2-1.6,0.2c0,0,0.2,0,0.1,0 c-0.6,0.2-2.7-0.1-2.1,1c0.7,0.3,1.9-0.1,2.7-0.1c0,0.1-0.1,0.2,0,0.4c0.1,0.2,0.1,1.5,0.1,1.8c-0.2,0.1-0.1,0-0.4,0.2 c-1,0.3-2.1,0.4-3,0.8c-0.7,0.7,0.2,1.4,0.9,1c0.7-0.2,1.7-0.3,2.4-0.6c1.5,0,3.1,0.1,3.7,0.1c0.3,1.2,0.4,1.5,0.4,2.7 c-0.8,0.2-4.4,0.6-6.6,0.8c-0.5,0.1-1.1,0-1.6,0.1c-0.5,0.2-0.5,0.9-0.1,1.2c1,0.1,2.7-0.2,4.3-0.3c0,0.9,0,1.9,0.1,2.8 c0.1,0.2,0.2,0.3,0.3,0.4c0.7,0.5,2.2,0.4,2.7,0.6c0,0,0,0,0.1,0l0,0c0,0,0,0,0,0.1c0.2,0.6,0,0.7,0.4,1.5 c0.4,0.5,1.3,0.3,1.4-0.3C182.8,353.7,182.4,352.6,181.7,352.1z" fill="#ffbe4f"/></g><g id="change3_1"><path d="M179.3,322.7c-1.2,2.9-2.1,5.3-3.3,7.8c-0.3,0.4-0.1,1.2,0.5,1.1c0.5-0.2,0.6-0.9,0.9-1.4 c1.2-2.4,2.4-5.1,3.2-7.1C180.7,322.5,179.6,322.1,179.3,322.7z" fill="#1f89f8"/></g><g id="change3_2"><path d="M184.8,322.8c-0.4-0.4-1.1-0.1-1,0.4c-0.2,1.5-0.6,3.9-1,5.8c0,0.6-0.8,2.3,0.3,2c0.7-1.3,0.8-3.1,1.3-4.5 c0.2-1.1,0.5-2.2,0.6-3.3C185,323,184.9,322.9,184.8,322.8z" fill="#1f89f8"/></g><g id="change3_3"><path d="M190.2,323.2c0-0.3-0.2-0.6-0.4-0.7c-0.4-0.2-1,0.2-1,0.7c0.1,2.6-0.2,5.2-0.2,7.8c0,0.5,0.6,0.7,0.9,0.4 c0.3-0.3,0.1-0.5,0.3-1.1C189.9,327.9,190.3,325.5,190.2,323.2z" fill="#1f89f8"/></g><g id="change3_4"><path d="M195.8,322.8c0-0.9-1.3-0.9-1.3,0c0.2,2.5,0.1,4.9,0.2,7.4c-0.1,0.7,0.4,1.4,1.1,0.8 c0.2-0.2,0.2-0.6,0.2-0.9C196,327.7,196.1,325.3,195.8,322.8z" fill="#1f89f8"/></g><g id="change3_5"><path d="M201.9,323.7c-0.1-0.5,0-1-0.5-1.3s-1.2,0.1-1.1,0.7c0.3,2.6,0.2,5.2,0.5,7.8c0,0.2,0.4,1.2,1.2,0.6 c0.2-0.2,0.2-0.6,0.2-0.9C202.2,328.3,202.1,326,201.9,323.7z" fill="#1f89f8"/></g><g id="change3_6"><path d="M206.8,323.2c0-1.1-1.4-1.2-1.3-0.1c0.6,2.7,1.4,5.4,2.2,8c0,0.3,0.9,1,1.2,0.1 C208.6,328.4,207.4,325.9,206.8,323.2z" fill="#1f89f8"/></g></g><g><g id="change4_16"><path d="M282.9,341.4c1.2,0,6.9,0.2,7.2-0.1c0,0,0.2-1.7,0.2-2.2c-0.1,0-0.2,0-0.3-0.1c-0.2,0-1.6-0.2-2-0.2 s-0.9-0.1-0.9-0.5c0.2-1.1,0.2-2,0.4-3.3c0.2-0.4,0.8-0.3,0.8,0.2c-0.1,1-0.2,1.9-0.4,2.9h0.1c0.6,0.1,1.1,0.2,1.9,0.2 c0.4,0.1,0.9,0,1.1,0.4c0.2,0.5,0.1,1.1,0.1,1.7c0,0.5,0,1-0.2,1.4c-0.5,0.7-1.5,0.7-2.2,0.7c-0.5,0-1,0-1.5,0 c0,0.9,0.1,2-0.4,2.7c-0.8,0.6-2.5,0.4-3.2,0.3c-0.4-0.1-0.3-0.8,0.2-0.8c0.1,0,1.3-0.1,1.8-0.2c0,0,0,0,0.1,0 c0.2,0,0.3-0.1,0.4-0.1v-0.1c0-0.1,0-0.6,0-0.7c0.1-0.4,0-0.8,0-1.2c-1.3,0-2.5,0-3.3-0.1C282.4,342.5,282,341.5,282.9,341.4z" fill="#ffbe4f"/></g><g id="change4_17"><path d="M283.9,351.6c2,0,4.5-0.1,5.4-0.7c0-0.4,0-0.5,0-0.7c0-0.1-0.1-0.2-0.1-0.3c0,0,0,0-0.1-0.1 c-0.1,0-0.3-0.1-0.4-0.1c-2.3-0.3-4.8-0.3-6.6-0.9c-0.4-0.3,0-1,0.5-0.9c2.5,0.5,5.7,0.5,7.3,1.1c0.5,0.5,0.5,1.4,0.4,2.1 c-0.4,0.9-1.5,1.1-2.4,1.2c-0.3,0-0.7,0.1-1,0.1c-0.2,1.1,0.3,2.7-1,3.2c-0.6,0.2-1.3,0.3-2,0.3c-0.6,0.1-1.5,0-1.5-0.8 c0-0.9,1-0.8,1.7-0.9c0.6-0.1,0.8-0.1,1.1-0.2c0-0.2,0-0.4,0.1-1c0-0.1,0-0.3,0-0.4c-1,0.1-2.1,0.1-2.9,0 c-0.5-0.2-0.5-0.9-0.1-1.2C282.9,351.3,283.2,351.7,283.9,351.6z" fill="#ffbe4f"/></g><g id="change4_18"><path d="M317.8,352.8c0.8-0.3,1.1-0.1,1.8-0.3c0.3-0.1,0.7-0.1,1-0.2c0.2-0.6-0.1-1.6,0.1-2.5c-0.3,0-0.6,0-0.9,0 c-2-0.1-3.8-0.2-3.2-2.2c0.2-0.9,0.3-2.4,1.2-2.8c1-0.1,2-0.1,3-0.2c-0.2-0.4,0.1-0.8,0-0.9c0.1-0.6,0-1.3,0.3-1.9 c-0.9-0.1-2-0.3-2.4-0.3c-0.6,0-1.2-0.4-1.1-1.1c0.3-1.1,0.6-3.1,1.9-3.1c1.5-0.1,4.8-0.4,6.9-0.3c0.7,0.2,0.4,1.3-0.3,1.3 c-2.2,0.1-6.6-0.2-6.7,0.3c-0.1,0.2-0.4,1-0.5,1.7c0.5,0.1,1.6,0.4,2.3,0.5c0.5,0.1,1,0.2,1.6,0.2c0,0-0.2,0-0.1,0 c0.6,0.2,2.7-0.1,2.1,1c-0.7,0.3-1.9-0.1-2.7-0.1c0,0.1,0.1,0.2,0,0.4c-0.1,0.2-0.1,1.5-0.1,1.8c0.2,0.1,0.1,0,0.4,0.2 c1,0.3,2.1,0.4,3,0.8c0.7,0.7-0.2,1.4-0.9,1c-0.7-0.2-1.7-0.3-2.4-0.6c-1.5,0-3.1,0.1-3.7,0.1c-0.3,1.2-0.4,1.5-0.4,2.7 c0.8,0.2,4.4,0.6,6.6,0.8c0.5,0.1,1.1,0,1.6,0.1c0.5,0.2,0.5,0.9,0.1,1.2c-1,0.1-2.7-0.2-4.3-0.3c0,0.9,0,1.9-0.1,2.8 c-0.1,0.2-0.2,0.3-0.3,0.4c-0.7,0.5-2.2,0.4-2.7,0.6c0,0,0,0-0.1,0l0,0c0,0,0,0,0,0.1c-0.2,0.6,0,0.7-0.4,1.5 c-0.4,0.5-1.3,0.3-1.4-0.3C316.7,354.4,317.1,353.3,317.8,352.8z" fill="#ffbe4f"/></g><g id="change3_12"><path d="M320.3,323.4c1.2,2.9,2.1,5.3,3.3,7.8c0.3,0.4,0.1,1.2-0.5,1.1c-0.5-0.2-0.6-0.9-0.9-1.4 c-1.2-2.4-2.4-5.1-3.2-7.1C318.9,323.2,319.9,322.8,320.3,323.4z" fill="#1f89f8"/></g><g id="change3_13"><path d="M314.8,323.5c0.4-0.4,1.1-0.1,1,0.4c0.2,1.5,0.6,3.9,1,5.8c0,0.6,0.8,2.3-0.3,2c-0.7-1.3-0.8-3.1-1.3-4.5 c-0.2-1.1-0.5-2.2-0.6-3.3C314.6,323.7,314.7,323.6,314.8,323.5z" fill="#1f89f8"/></g><g id="change3_14"><path d="M309.4,323.8c0-0.3,0.2-0.6,0.4-0.7c0.4-0.2,1,0.2,1,0.7c-0.1,2.6,0.2,5.2,0.2,7.8c0,0.5-0.6,0.7-0.9,0.4 c-0.3-0.3-0.1-0.5-0.3-1.1C309.6,328.6,309.3,326.2,309.4,323.8z" fill="#1f89f8"/></g><g id="change3_15"><path d="M303.7,323.5c0-0.9,1.3-0.9,1.3,0c-0.2,2.5-0.1,4.9-0.2,7.4c0.1,0.7-0.4,1.4-1.1,0.8 c-0.2-0.2-0.2-0.6-0.2-0.9C303.6,328.4,303.5,326,303.7,323.5z" fill="#1f89f8"/></g><g id="change3_16"><path d="M297.7,324.4c0.1-0.5,0-1,0.5-1.3s1.2,0.1,1.1,0.7c-0.3,2.6-0.2,5.2-0.5,7.8c0,0.2-0.4,1.2-1.2,0.6 c-0.2-0.2-0.2-0.6-0.2-0.9C297.3,329,297.5,326.7,297.7,324.4z" fill="#1f89f8"/></g><g id="change3_17"><path d="M292.7,323.9c0-1.1,1.4-1.2,1.3-0.1c-0.6,2.7-1.4,5.4-2.2,8c0,0.3-0.9,1-1.2,0.1 C291,329.1,292.2,326.5,292.7,323.9z" fill="#1f89f8"/></g></g><g><g fill="#1f89f8"><g id="change3_8"><path d="M264.9,278.1C264.9,278.2,264.9,278.2,264.9,278.1C264.9,278.2,264.9,278.2,264.9,278.1 C264.9,278.2,264.9,278.2,264.9,278.1z"/><path d="M264.9,278.1C264.8,278,264.8,278,264.9,278.1L264.9,278.1z"/><path d="M292.7,322.3c-0.9-2.2-2.6-3.9-4.3-5.6c-3-2.7-5.7-5.8-8.7-8.4c-3.6-1.4-7.4-2.2-11.2-2.8 c-1.4-3.1-2.9-6.5-4.4-9.8c0-2.3-0.1-4.6,0.1-6.9c0.1-3.5,0.6-7.1,0.4-9.8c0.2-0.2,0.3-0.4,0.3-0.6c0-0.1,0-0.2,0-0.3 c-0.7-1.5-1.7-2.2-3-3.7c-1.8-1.8-5.5-6-7.6-4.2c-2.8,2.3-5.4,4.8-7.9,7.3c-0.1,0.2-0.1,0.4,0,0.5c-0.1,0.2-0.2,0.5-0.2,0.8 c-0.1,4.6-0.9,10.6-1.1,16.1c-1.8,2.8-3.6,5.5-5.4,8.1c-0.5,0.8-1.1,1.6-1.7,2.3c-2.4,0-4.7,0-7,0.3c-4.2,2.6-8.7,6-13.2,8.8 c-2.5,1.6-5,3.2-7.3,5.1c-0.7,0.6-2,1.6-1.7,2.6c2.2,2.5,4.8,4.7,7,7.3c0.7,0.7,1.4,1.9,2.2,2.6c0,0.1,0.1,0.2,0.4,0.3l0,0 c0.1,0,0.1,0.1,0.2,0.1c0.3,0,0.5-0.3,0.5-0.5c1.3-1,3-2.1,4.4-3.3c4.1-3.1,8.1-6.8,12.1-9.2c7.8-0.9,17.6,0.6,26.1,0.2 c2-0.1,4.4,0.2,6.4-0.1c3.1,4,5.4,7.1,8.7,11.1c0.9,1.1,1.8,2.2,2.8,3.2l0,0c0,0.4,0.6,0.6,0.9,0.3c3.8-3.5,8.3-7.8,11.7-10.8 l0.1-0.1c0.1-0.1,0.2-0.2,0.3-0.3C292.9,323,292.8,322.6,292.7,322.3z"/></g><g id="change3_9"><path d="M292.5,323.6C292.5,323.6,292.4,323.6,292.5,323.6C292.4,323.6,292.4,323.7,292.5,323.6z"/></g></g><g id="change4_6"><path d="M260.2,281.5c-1.2-1.3-2.6-1.9-4-2c-0.1-0.1-0.1-0.1-0.2-0.1c-0.2,0-0.4,0-0.6,0.1 c-2.2,0.2-4.4,1.6-5.6,3.6c-1.4,2.4-1.3,5.6,0.3,7.9c0.5,0.9,1.8,1.8,3.3,2.1c3.6,0.9,7.6-1,8.7-4.9 C262.8,286,262.1,283.5,260.2,281.5z" fill="#ffbe4f"/></g></g></g><g id="change4_7"><path d="M265.7,306.1c-8.4-0.2-16.9-1.1-25.3-0.9c-0.7-0.2-1.2,0.9-0.3,1c7.8-0.6,15.7,0.6,23.5,0.7 C264.3,306.8,266.3,307.4,265.7,306.1z" fill="#ffbe4f"/></g><g id="change4_8"><path d="M262.3,295.8c-3.6-0.1-7.2-0.3-10.8-0.5c-1.6,0.1-3.4-0.6-5-0.3c-0.3,0.3-0.1,0.9,0.4,0.9 c5.1,0.4,10.3,0.5,15.4,0.7c0.3,0,0.8,0,0.8-0.4C263.1,295.8,262.6,295.8,262.3,295.8z" fill="#ffbe4f"/></g><g id="change4_9"><path d="M262.1,277.7c-4.3-0.1-8.6,0-12.9-0.1c-0.4,0.1-1-0.2-1.3,0.2c-0.1,0.2,0.1,0.4,0.2,0.4 c4.8,0.1,9.5,0.2,14.3,0.3c0.3,0,0.7,0,0.7-0.4C263.1,277.6,262.5,277.8,262.1,277.7z" fill="#ffbe4f"/></g><g id="change3_7"><path d="M259.9,284.1c-1.2,0.2-2.1,1.2-3.2,1.8c-0.3,0.2-0.7,0.5-1,0.6c0.1-1.5,0.9-6.2-0.2-4.6 c0,4.1-2.9,8.2,3.5,3.8C259.5,285.4,261,284.8,259.9,284.1z" fill="#1f89f8"/></g><g id="change4_10"><path d="M231.8,307.2c-0.2-0.3-0.6,0-0.5,0.3c1,3.5,2.4,7,3.8,10.4c0.1,0.1,0.3,0.2,0.5,0.1 C235.6,316.1,232.5,309.6,231.8,307.2z" fill="#ffbe4f"/></g><g id="change4_11"><path d="M278.2,309.1c-3.1,2.9-6.3,5.6-9,8.9c-0.1,0.1-0.1,0.4,0.1,0.5s0.4-0.1,0.6-0.3c1.8-1.9,3.6-3.7,5.5-5.4 c1.1-1.2,2.8-2,3.7-3.4C279,309.1,278.4,308.8,278.2,309.1z" fill="#ffbe4f"/></g></g><g id="change5_1"><path d="M162,287.1c-0.8-1.4-1.1-2.9-0.9-4.5c-0.6,0.1-1.2,0.1-1.8,0.2c0.9,1.8,2.3,3.1,4.2,3.8c0.5,0.2,1,0,1.3-0.5 c0.9-1.6,2-2.9,3.4-4.1c-0.4,0-0.8,0-1.2,0c1.1,1,1.8,2.2,2.3,3.6c0.3,0.8,1.3,0.8,1.7,0.3c1-1.1,2.4-2.5,4-2.5 c1,0,2.3,1.1,1.7,2.2c-0.6,1,1.2,2.1,1.8,1.1c1.3-2.1-0.2-4.5-2.5-5.2c-2.7-0.7-5,1.4-6.7,3.2c0.6,0.1,1.2,0.2,1.7,0.3 c-0.6-1.7-1.6-3.2-2.9-4.4c-0.3-0.3-0.9-0.3-1.2,0c-1.6,1.4-2.9,3-3.9,4.9c0.4-0.2,0.9-0.3,1.3-0.5c-1.4-0.5-2.5-1.4-3.2-2.7 c-0.4-0.8-1.7-0.8-1.8,0.2c-0.2,2,0.3,3.9,1.4,5.6C161.1,288.6,162.5,287.9,162,287.1L162,287.1z" fill="#00a14b"/></g><g id="change5_2"><path d="M200,235.9c-0.2-1.7-0.1-3.4,0.5-5.1c-0.6,0.1-1.1,0.1-1.7,0.2c0.9,1.5,1.8,2.9,2.7,4.3c0.3,0.6,1.3,0.5,1.6,0 c0.7-1,1.5-2.3,2.8-2.7c0.8-0.3,2-0.2,2.3,0.7c0.2,0.6,1.1,0.9,1.6,0.5c1.5-1.4,2.5-3.2,4-4.5c0.7-0.6,1.5-1.1,2.4-1 s1.5,0.8,1.5,1.7c0,1.2,1.7,1,2,0c0.6-2.8-2.7-4.4-5-3.7c-3,0.9-4.1,3.9-6.2,5.8c0.5,0.2,1.1,0.3,1.6,0.5c-0.6-1.7-2.5-2.4-4.2-2.2 c-2,0.3-3.4,2.1-4.5,3.6c0.5,0,1.1,0,1.6,0c-0.9-1.4-1.8-2.9-2.7-4.3c-0.4-0.6-1.5-0.5-1.7,0.2c-0.6,2-0.8,4-0.4,6.1 C198.4,237.2,200.1,237,200,235.9L200,235.9z" fill="#00a14b"/></g><g id="change5_3"><path d="M70.8,209.7c-0.5-1.2-0.9-2.4-1.3-3.6c-0.2-0.6-0.4-1.2-0.6-1.8c0-0.1-0.1-0.3,0-0.4c0.1-0.1-0.1,0.1-0.1,0.1 c0.7,0,0.9,0.7,1.2,1.2c0.4,0.9,0.8,1.8,1.6,2.3c0.5,0.3,1.1,0.3,1.5-0.2c0.4-0.6,0.8-1.3,1.1-2c0.3-0.6,0.6-1.3,1.1-1.7 c0.3-0.2,0.7-0.3,1-0.2c0.4,0.1,0.5,0.1,0.5,0.4c0,1.1,1.7,1.3,2.1,0.3c0.3-0.8,0.8-2.1,1.7-2.2c0.4-0.1,1.1,0.5,0.8,0.9 c-0.7,0.9,0.5,2.2,1.4,1.4c1.8-1.4,0.4-4-1.4-4.5c-2.2-0.6-3.9,1.6-4.5,3.5c0.7,0.1,1.4,0.2,2.1,0.3c0-1.9-2.3-2.6-3.8-2.1 c-2.1,0.6-2.5,3-3.6,4.6c0.5-0.1,1-0.1,1.5-0.2c-1-0.7-1-2.1-1.8-3c-0.7-0.8-2-1.3-3.1-0.9c-1.5,0.6-1.1,2.2-0.7,3.4 c0.6,1.6,1.2,3.2,1.9,4.8C69.6,211.4,71.2,210.7,70.8,209.7L70.8,209.7z" fill="#00a14b"/></g><g id="change5_4"><path d="M163.1,155c-0.8-1.9-1.3-3.9-1.6-6c-0.6,0.3-1.1,0.6-1.7,1c0.7,0.7,0.8,1.9,1.4,2.6c0.6,0.8,1.7,1.3,2.7,1 c0.6-0.2,1-0.5,1.3-1.1c0.2-0.3,0.3-0.8,0.6-1.1c0.6-0.5,1.5-0.1,1.4,0.7c-0.1,1,1.2,1.7,1.9,0.8c1-1.3,2.1-2.6,3.4-3.6 c0.4-0.3,0.7-0.2,0.9,0.3c0.2,0.7-0.1,1.7-0.3,2.4c-0.2,1.1,1.3,1.4,1.8,0.5c0.6-1.1,1-2.4,0.6-3.7c-0.3-1.1-1.3-2-2.5-2.1 c-1.3-0.1-2.2,0.9-3.1,1.8c-0.9,0.9-1.8,1.9-2.6,2.9c0.6,0.3,1.3,0.6,1.9,0.8c0.1-1.2-0.5-2.4-1.5-3c-1.1-0.6-2.5-0.5-3.4,0.3 c-0.5,0.4-0.7,0.9-1,1.4c0,0.1-0.1,0.3-0.2,0.3c-0.1,0.1,0.1,0,0,0s-0.3-0.2-0.4-0.2c-0.4-0.4-0.5-0.9-0.7-1.4 c-0.3-0.6-0.6-1.2-1.1-1.6c-0.7-0.6-1.8,0.1-1.7,1c0.3,2.2,1,4.4,1.9,6.4C161.9,156.8,163.5,156.1,163.1,155L163.1,155z" fill="#00a14b"/></g><g id="change5_5"><path d="M132.5,118.5c-0.6-1.6-0.9-3.2-0.9-4.9c-0.6,0.2-1.2,0.3-1.8,0.5c0.5,0.7,1,1.4,1.4,2.1 c0.4,0.6,0.8,1.4,1.5,1.8c1.2,0.8,2.8,0.1,3.6-1.1c0.6-0.8,0.8-2.1,2-2.2c0.9-0.1,1.7,0.4,1.9,1.2c0.3,1.1,1.9,0.7,2.1-0.3 c0.2-0.7,0.6-1.5,1.3-1.7c0.4-0.1,1.3,0.3,1.2,0.8c-0.4,1.3,1.4,2.1,1.9,0.8c0.8-1.8-0.8-3.8-2.7-3.9c-2.1-0.1-3.5,1.7-3.9,3.6 c0.7-0.1,1.4-0.2,2.1-0.3c-0.7-2.3-3.7-3.2-5.7-2c-0.5,0.3-0.9,0.8-1.2,1.3s-0.5,1.3-1,1.6c-0.3,0.2-0.3,0.2-0.6,0 c-0.3-0.3-0.5-0.7-0.7-1c-0.5-0.7-1-1.5-1.5-2.2c-0.7-0.9-1.8-0.2-1.8,0.7c0,1.9,0.4,3.8,1.2,5.6 C131.2,120.3,132.9,119.6,132.5,118.5L132.5,118.5z" fill="#00a14b"/></g><g id="change5_6"><path d="M215.7,101.7c-0.4-2.2-0.9-4.3-1.1-6.6c-0.7,0.2-1.3,0.3-2,0.5c0.7,1.6,1.7,3.1,2.9,4.3 c0.6,0.6,1.7,0.5,1.9-0.5c0.3-1.8,2.7-1.9,3.2-0.2c0.2,0.6,1.1,0.9,1.6,0.5c0.7-0.6,1.5-1.5,2.5-1.6c0.6-0.1,1.3,0.4,1.3,1.1 c-0.1,1.1,1.3,1.4,1.8,0.5c1-1.6-0.7-3.4-2.2-3.7c-1.8-0.4-3.4,0.9-4.6,2c0.5,0.2,1.1,0.3,1.6,0.5c-0.6-1.6-2.2-2.7-3.9-2.5 s-3.1,1.6-3.3,3.3c0.6-0.2,1.3-0.3,1.9-0.5c-1.1-1.1-2-2.4-2.7-3.8c-0.5-1-2.1-0.7-2,0.5c0.2,2.3,0.5,4.7,1.4,6.8 C214.3,103.1,215.9,102.7,215.7,101.7L215.7,101.7z" fill="#00a14b"/></g><g id="change5_7"><path d="M264.8,73.1c0.2-0.9,0.1-1.8,0-2.7c-0.1-0.9-0.1-1.9-0.2-2.8c-0.3,0.4-0.6,0.8-0.9,1.2c0.1,0,0,0,0,0 c0,0.1,0.1,0.1,0.2,0.2c0.1,0.2,0.2,0.5,0.3,0.8c0.2,0.6,0.5,1.1,0.9,1.6c1.1,1.1,2.6,0.9,3.3-0.5c0.4-0.8,0.6-1.4,1.7-1.5 c0.7-0.1,1.5,0.2,1.8,0.9c0.3,0.7,1.5,1,1.9,0.3c0.6-1,1.3-2.3,2.4-2.9c0.7-0.4,1.8-0.6,2.5,0.1c0.9,1,2.5-0.1,1.7-1.3 c-1-1.5-3-1.7-4.6-1.1c-1.8,0.7-2.9,2.5-3.9,4.1c0.7,0,1.4,0,2.1,0c-1.1-2.3-4.2-2.9-6.2-1.5c-0.5,0.3-0.9,0.8-1.1,1.4 c-0.1,0.1-0.1,0.3-0.1,0.4c-0.1,0.5,0.1,0.1,0.1,0.3c0.1,0,0.1,0,0-0.1c0-0.1-0.1-0.1-0.1-0.2c-0.1-0.1-0.2-0.3-0.2-0.4 c-0.5-1.2-1.3-2.8-2.9-2.5c-0.6,0.1-1,0.6-0.9,1.2c0.1,0.9,0.2,1.8,0.3,2.8c0.1,0.9,0.2,1.8,0.5,2.6 C263.6,74.1,264.7,73.9,264.8,73.1L264.8,73.1z" fill="#00a14b"/></g><g id="change5_8"><path d="M184.5,56.5c0-0.8,0-1.5,0.1-2.2c0.1-0.8,0.4-1.4,0.7-2.1c-0.6,0.1-1.3,0.1-1.9,0.2c1.1,1.4,2.2,2.9,3.2,4.3 c0.6,0.8,1.8,0.4,2-0.5c0.1-0.4,0.3-0.9,0.6-1.2c0.1-0.1,0.1-0.2,0.2-0.2c-0.2,0.1-0.1,0,0,0.1c0.6,1.2,2.3,1.1,3.2,0.3 c0.8-0.7,1.4-1.7,2.5-2c0.9-0.2,1.8,0.2,2.1,1.1c0.4,1.2,2.4,0.7,2.1-0.6c-0.3-1.6-1.6-2.7-3.2-2.9c-1.7-0.2-3.2,0.6-4.3,1.8 c-0.2,0.2-0.5,0.5-0.7,0.8c-0.1,0-0.1,0.1-0.2,0.1c0.3,0.1,0.4,0.1,0.3,0c0-0.1-0.3-0.3-0.4-0.4c-0.5-0.5-1.2-0.8-1.9-0.6 c-1.5,0.3-2.3,2-2.7,3.3c0.7-0.2,1.3-0.3,2-0.5c-1.1-1.4-2.2-2.9-3.3-4.3c-0.5-0.7-1.5-0.5-1.9,0.2c-0.8,1.6-1.3,3.8-0.5,5.4 C183.1,57.4,184.4,57.4,184.5,56.5L184.5,56.5z" fill="#00a14b"/></g><g id="change5_9"><path d="M369.4,139.7c-0.8-1.7-1.2-3.4-0.9-5.3c-0.6,0.2-1.2,0.5-1.8,0.7c1.2,0.9,2.1,2.1,2.6,3.6 c0.2,0.5,1,0.9,1.5,0.6c0.7-0.4,1.2-0.8,1.7-1.5c0.4-0.5,0.8-1.2,1.4-1.4c0.5-0.1,0.5,0.4,0.8,0.7c0.4,0.6,0.9,1.1,1.6,1.1 c0.5,0.1,1-0.2,1.2-0.7c0.6-1.2,1.5-2.7,2.8-3.1c0.6-0.2,2.4,0.3,2.1,1.3c-0.2,0.6,0,1.2,0.6,1.5c0.5,0.2,1.3,0,1.5-0.6 c0.8-2.4-1.3-4.5-3.6-4.5c-2.7-0.1-4.4,2.4-5.5,4.5c0.4-0.2,0.8-0.4,1.2-0.7c0.2,0,0.1,0.2,0-0.1c0-0.1-0.1-0.2-0.1-0.2 c-0.2-0.3-0.4-0.7-0.7-1c-0.6-0.6-1.4-0.8-2.3-0.6c-0.8,0.2-1.5,0.6-2,1.2c-0.5,0.6-0.9,1.4-1.6,1.8c0.5,0.2,1,0.4,1.5,0.6 c-0.6-1.8-1.8-3.4-3.3-4.5c-0.7-0.5-1.7-0.2-1.8,0.7c-0.3,2.3,0.2,4.6,1.5,6.5C368.4,141.4,369.8,140.6,369.4,139.7L369.4,139.7z" fill="#00a14b"/></g><g id="change5_10"><path d="M360.5,102.3c-0.9-1.3-1.5-2.8-1.8-4.3c-0.6,0.3-1.1,0.6-1.7,0.9c1,0.9,1.6,1.9,2,3.2c0.2,0.8,1.3,0.8,1.8,0.3 c0.8-1,1.8-1.9,3-2.6c-0.2,0.1-0.3,0.1-0.5,0.2c-0.5-0.4-0.7-0.4-0.5-0.2c0-0.1,0,0,0,0.1c0.1,0.1,0.1,0.2,0.2,0.3 c0.2,0.4,0.5,0.8,0.9,1c0.8,0.4,1.6,0.1,2.3-0.3c0.6-0.4,1-1.1,1.5-1.4c0.1-0.1,0.3-0.1,0.5-0.1c-0.2,0,0.1,0,0.1,0 c-0.1,0-0.2-0.1-0.3-0.2c-0.1-0.3-0.1-0.3-0.1-0.1c0.1,0.6,0.6,1,1.2,0.9s0.9-0.6,0.9-1.2c0-1.4-1.5-1.8-2.6-1.4 c-0.6,0.2-1.1,0.5-1.5,0.9c-0.3,0.4-0.7,0.7-1,1c0,0,0,0-0.1,0c0.1,0,0.1,0,0.2,0h0.1c0-0.1-0.4-0.7-0.4-0.8 c-0.4-0.6-1.2-0.9-1.9-0.5c-1.4,0.7-2.6,1.9-3.5,3.1c0.6,0.1,1.2,0.2,1.8,0.3c-0.5-1.6-1.4-2.9-2.6-4c-0.7-0.6-1.8,0.1-1.7,0.9 c0.4,1.9,1.1,3.7,2.2,5.3C359.6,104.6,361.3,103.3,360.5,102.3L360.5,102.3z" fill="#00a14b"/></g><g id="change5_11"><path d="M307.6,300c0-1.5,0.4-3,1.1-4.3c-0.6,0.1-1.2,0.1-1.8,0.2c1,1.3,1.9,2.6,2.9,3.9c0.5,0.7,1.8,0.4,1.9-0.5 c0.1-0.8,1-1.3,1.7-1c1,0.3,1.5,1.5,1.7,2.4c0.1,0.9,1.4,1.4,2,0.5c1.4-2.1,4-5.5,6.7-3c0.7,0.7,2-0.3,1.6-1.2 c-1-1.9-3.3-2.3-5.2-1.7c-2.2,0.7-3.6,2.7-4.8,4.5c0.7,0.2,1.3,0.4,2,0.5c-0.3-2-1.6-4-3.8-4.3c-1.8-0.2-3.8,1-3.9,2.9 c0.6-0.2,1.3-0.3,1.9-0.5c-1-1.3-2-2.6-3-3.9c-0.5-0.7-1.4-0.5-1.8,0.2c-0.9,1.7-1.2,3.5-1.1,5.4 C305.7,301.5,307.6,301.2,307.6,300L307.6,300z" fill="#00a14b"/></g><g id="change5_12"><path d="M289.7,259.8c-1.2-2-1.5-4.5-1-6.8c-0.7,0.1-1.3,0.2-2,0.2c0.8,1.6,1.8,3.3,3.6,4c1.6,0.6,3.3,0.2,4.3-1.2 c0.3-0.4,0.7-1.4,1.1-1.6c0.3-0.1,0.3,0.1,0.4,0.5c0.4,1.2,0.6,2.5,1.9,3.1c0.4,0.2,1,0.1,1.3-0.3c0.6-1,1.3-2.3,2.4-2.7 c0.6-0.2,1.9,0,1.8,0.9c-0.2,1.4,2,1.7,2.2,0.3c0.4-2-1.6-3.5-3.5-3.5c-2.2,0-3.6,2-4.6,3.7c0.4-0.1,0.9-0.2,1.3-0.3 c-0.3-0.1-0.4-0.7-0.5-1c-0.2-0.5-0.3-1-0.5-1.5c-0.7-1.2-2.2-1.7-3.3-0.9c-0.9,0.7-1.3,2.5-2.4,2.7c-1.7,0.4-2.8-1.7-3.4-2.9 c-0.5-0.9-1.8-0.8-2,0.2c-0.5,2.8,0.2,5.7,1.8,8C289,261.7,290.2,260.7,289.7,259.8L289.7,259.8z" fill="#00a14b"/></g><g id="change5_13"><path d="M345.6,230.6c-1-1.8-1.5-3.8-1.5-5.8c-0.6,0.1-1.3,0.2-1.9,0.2c0.3,0.7,0.6,1.4,1,2.2c0.3,0.6,0.5,1.3,0.9,1.8 c1,1.2,2.4,0.3,3.1-0.7c0.4-0.6,1-0.9,1.8-0.8c0.6,0.1,1.3,0.5,1.5,1.1c0.2,1,1.6,1.3,2,0.3c0.4-0.8,1-2.1,2-2.2 c0.4,0,1.2,0.5,1,0.9c-0.7,1.1,0.7,2.2,1.6,1.3c1.5-1.6-0.2-3.9-2-4.3c-2.2-0.4-3.8,1.7-4.6,3.4c0.7,0.1,1.3,0.2,2,0.3 c-0.5-2.1-2.7-3.3-4.8-2.9c-1.1,0.3-1.7,0.9-2.4,1.8c0,0-0.2,0.2-0.2,0.3h0.4c0.1-0.1-0.4-0.8-0.5-1c-0.4-0.7-0.7-1.5-1.1-2.2 c-0.5-1-1.9-0.6-1.9,0.5c0,2.4,0.8,4.6,2,6.7C344.6,232.3,346.1,231.5,345.6,230.6L345.6,230.6z" fill="#00a14b"/></g><g id="change5_14"><path d="M438.8,258.7c0-1.6,0-3.2,0.1-4.9c-0.7,0-1.3,0-2,0c0,1.2,0.3,2.5,1,3.4c0.8,1,2.2,1.3,3.3,0.6 c0.9-0.5,1.5-1.7,2.6-1.7c0.9,0,1.7,0.7,1.8,1.6c0.1,0.9,1.3,1.2,1.9,0.5c1-1.3,2.4-2.8,4.2-2.4c1.1,0.3,1.7-1.6,0.6-2 c-2.7-0.9-4.9,1.2-6.5,3.1c0.6,0.2,1.3,0.4,1.9,0.5c-0.3-2.4-3.1-4.1-5.4-3.2c-0.6,0.2-1.1,0.7-1.5,1.1c-0.3,0.3-0.8,0.9-1.2,0.7 c-0.7-0.3-0.8-1.9-0.8-2.5s-0.6-0.9-1.1-0.9c-0.6,0.1-0.9,0.6-0.9,1.1c0,1.6,0,3.2,0,4.9C436.8,259.8,438.7,259.8,438.8,258.7 L438.8,258.7z" fill="#00a14b"/></g><g id="change5_15"><path d="M433.1,188.8c0.3,0.8,0.6,1.6,0.9,2.4c0.1,0.5,0.8,0.7,1.2,0.5c0.5-0.2,0.7-0.8,0.5-1.2 c-0.4-1.6-0.5-3.2-0.1-4.8c-0.7,0.1-1.4,0.2-2.1,0.3c0.6,2.2,1.9,4.1,3.6,5.5c0.5,0.5,1.5,0.2,1.8-0.4c0.4-1,0.8-2.5,1.9-3 c0.3-0.1,0.8-0.2,1.1,0c0.4,0.2,0.5,0.8,0.7,1.1c0.8,1.1,2.4,0.9,3.4,0.2c0.5-0.4,0.9-1,1.3-1.5c0.1-0.1,0.3-0.4,0.4-0.4 c0.4-0.2,0.1,0.3,0.1-0.3c-0.1,1.1,1.6,1.7,2,0.6c0.6-1.8-1.4-3.1-3-2.4c-0.9,0.4-1.3,1.2-1.9,1.9c-0.2,0.2-0.4,0.2-0.6,0.3 c0.1-0.1,0.1,0.3,0.1-0.1c0-0.2-0.2-0.4-0.3-0.5c-0.8-1.4-2.7-1.7-4.2-1.1c-1.7,0.7-2.5,2.5-3.1,4.2c0.6-0.1,1.2-0.3,1.8-0.4 c-1.4-1.2-2.4-2.8-3-4.6c-0.4-1.1-1.9-0.7-2.1,0.3c-0.4,1.9-0.3,4.1,0.5,5.9c0.6-0.3,1.1-0.6,1.7-0.9c-0.4-0.7-0.8-1.3-1.1-2.1 C434.1,187.3,432.7,187.8,433.1,188.8L433.1,188.8z" fill="#00a14b"/></g><g id="change5_16"><path d="M374.6,338.2c0-2.1,0-4.2,0.1-6.3c-0.6,0-1.3,0-1.9,0c0.1,1.9,1.1,3.8,2.6,4.9c0.9,0.7,1.9-0.3,1.6-1.2 c-0.2-0.8,0.8-1.5,1.5-1.4c1,0.2,1.5,1.2,1.5,2.1c0.1,1.2,1.7,1.2,2.1,0.3c0.6-1.1,1.5-2.6,2.9-2.8c0.8-0.1,2.2,0.7,1.8,1.6 c-0.4,1,1.1,2,1.7,1c1.3-2.2-0.5-4.7-2.9-4.9c-2.6-0.3-4.5,2.1-5.6,4.2c0.7,0.1,1.4,0.2,2.1,0.3c-0.1-2.1-1.9-4.2-4.1-4.1 s-3.7,2.3-3.1,4.4c0.5-0.4,1.1-0.8,1.6-1.2c-1.2-0.9-1.8-2.1-2-3.5c-0.2-1.2-2-1-1.9,0.2c0.1,2.1,0.1,4.2,0.1,6.3 C372.9,339.2,374.6,339.2,374.6,338.2L374.6,338.2z" fill="#00a14b"/></g></g></svg>