<?xml version="1.0" encoding="UTF-8" standalone="no"?><svg xmlns="http://www.w3.org/2000/svg" xmlns:xlink="http://www.w3.org/1999/xlink" fill="#000000" height="500" id="Layer" preserveAspectRatio="xMidYMid meet" version="1.1" viewBox="0.0 0.0 376.4 500.0" width="376.4" x="0" xml:space="preserve" y="0" zoomAndPan="magnify"><g><g id="change1_1"><path d="M352.6859436,500H23.7265682C10.6227465,500,0,489.3772583,0,476.2734375V23.7265682 C0,10.6227465,10.6227465,0,23.7265682,0h328.9593811c13.1038208,0,23.7265625,10.6227465,23.7265625,23.7265682v452.546875 C376.4125061,489.3772583,365.7897644,500,352.6859436,500z" fill="#ffffff"/></g><g id="change2_1"><path d="M376.4125366,125.8273697H0.0000014V23.7265282c0-13.1037979,10.6227217-23.7265186,23.7265186-23.7265186 h328.9594116c13.1038818,0,23.726593,10.6227207,23.726593,23.7265186V125.8273697z" fill="#40a456"/></g><g id="change1_2"><path d="M5.7589045,24.4494133L5.0193558,14.0733585l4.0853844,1.9823399l-0.7066698,7.0306683L5.7589045,24.4494133z M97.4742355,117.2779694l2.6342087,1.792572l5.8404999-5.0777588l0.7175522-3.2330856l-6.8267899-3.7525406 L97.4742355,117.2779694z M268.8851929,47.422123l-7.2285461-1.1861916l-1.0273438,1.8472214l5.1136475,5.0975723 L268.8851929,47.422123z M158.85289,71.4531097l0.0614014-1.6200714l-4.5171661-3.1149368l-0.9194031,5.6080246 l2.4877625,1.8640366L158.85289,71.4531097z M327.1261597,69.509201l0.9944153,5.1965103l1.7699585,1.631485l4.7572327-2.8622665 l-5.3449097-5.0085449L327.1261597,69.509201z M14.2490044,95.1560593l4.1499424,1.6079102l-2.0616093-2.6875076 L14.2490044,95.1560593z M9.4746656,53.2304192l1.490057-3.5713348l-2.8886843,0.715229L9.4746656,53.2304192z M149.8273468,32.4209595l-1.210144-4.2254601l-4.773056-0.1812077l1.651825,10.6108608L149.8273468,32.4209595z M23.9092312,111.6684494l1.5571671,1.7166061l5.3330536-0.5311661l-2.853178-6.8264923L23.9092312,111.6684494z M303.5168457,26.2717113l-2.1474915-5.5856514l-2.9889832,0.0463924l-0.0851135,9.487875l1.8083191,0.3942451 L303.5168457,26.2717113z M294.4772339,63.4700012l-5.2831116-1.5768318l0.9000244,3.5582695l2.6660461,0.3179779 L294.4772339,63.4700012z M161.0315247,23.0946236l-1.5176849-2.8077621l-3.2872009-0.0900803l2.0516968,6.1070595 L161.0315247,23.0946236z M93.1774597,45.2668304l6.2252121,1.6879311l-2.2437134-3.7252197l-0.223999-0.2828484 l-2.445343-0.3456039L93.1774597,45.2668304z M83.0230026,51.5756645l-3.2991486-2.2425156l-0.3856888,1.1509094 l0.8724213,3.120636L83.0230026,51.5756645z M81.730896,71.101799l2.5565186,1.3237152l4.3313751-7.8867264l-1.3670273-1.1683235 l-4.8059387,2.0967445L81.730896,71.101799z M124.1834183,13.2537889l-2.1829147-3.2710705l-0.4046021-0.1538849 l-1.8609619,0.018466l3.8239288,5.1688862L124.1834183,13.2537889z M96.0726776,96.803299l-1.66008,1.383316l4.0360641,0.6277008 L96.0726776,96.803299z M104.9143143,8.7857189l-3.1990814,0.7853384l-0.9392242,3.2407436l6.6149521-0.459403 L104.9143143,8.7857189z M121.7538376,24.943346l-0.5939178,2.7726326l4.1406326-0.3555107l-2.2392197-3.0116425 L121.7538376,24.943346z M65.4972229,109.8014069l-6.7734909,0.4521942l-1.9570427,4.7359085l10.668438,0.6185455 l0.8389359-1.7099991l-0.969101-1.7963333L65.4972229,109.8014069z M250.0844269,66.7337189l0.9506989,1.7550354 l1.0780182,0.5054932l1.68013-1.9093704l-2.706192-1.2921829L250.0844269,66.7337189z M51.6217499,93.2960739l-1.0931091,1.3582458 l-1.1971512,2.158287l2.55299,5.0887222l4.4395447-0.0286789l-3.0024834-8.4779358L51.6217499,93.2960739z M218.5381317,79.0611801 l0.381485-4.0991898l-4.7272644,1.23423l0.6382141,1.0950623L218.5381317,79.0611801z M39.9363937,37.0748901l5.3831253-4.6015358 l-0.7330933-1.9330959l-6.9542542,0.6014271L39.9363937,37.0748901z M237.3287048,72.1338043l0.6360321-1.1530075 l-1.5387726-2.1790161l-2.8695526,0.2217484l-0.5048065,1.792572L237.3287048,72.1338043z M243.4060364,37.8237495 l-6.8412018-3.0500755l-2.5454102,0.9437256l-2.0980988,9.8046532l10.1235352-2.3737335L243.4060364,37.8237495z M357.7167969,7.9862671l-2.4851379-5.517642l-1.4408264,1.5715792l0.9386292,3.64715L357.7167969,7.9862671z M345.3595886,98.0530014l-1.9040222-1.4726486l-0.2667236,2.5430832l1.5035706,1.0450668L345.3595886,98.0530014z M195.5688019,8.8879585l3.415802,0.8215208l4.1199188-7.1922112l-10.1121216-2.5172589h-0.9542389l-1.7945251,2.5406795 L195.5688019,8.8879585z M256.4096985,18.42943l2.0299988-0.1525326l1.3631287-6.6801119l-6.2117767,0.5166025 L256.4096985,18.42943z M294.3062439,119.9016724l5.7059021-0.0654602l1.8179626-5.7655106l-13.6633606-1.5513077 L294.3062439,119.9016724z M245.4903107,3.2652245l-5.1556702-3.2652152h-5.0035858l9.869812,5.5984125L245.4903107,3.2652245z M336.6708679,32.4679489l-2.3003235,2.5770111l7.1757202,1.4996681l-0.4719543-2.3316994L336.6708679,32.4679489z M241.2625275,93.7134399l2.5505829,6.6296692l2.0705414-0.0462418l1.7590332-6.7775497L241.2625275,93.7134399z M313.9899597,15.7666941l3.9689331-1.4480209l-3.1533508-0.6323547L313.9899597,15.7666941z M313.0349731,88.8581772 l1.6412964-1.3643951l-3.9827576-0.6176376L313.0349731,88.8581772z M136.5385895,35.7065926l-2.0490723,0.4058037 l-1.4161224,4.2472267l1.7051239-0.1207047L136.5385895,35.7065926z M372.6607666,67.0216675l1.5491943,0.8455429 l2.2025757-2.331543v-1.7445335l-3.1608582-1.3529854L372.6607666,67.0216675z M219.8512726,123.8580933l3.223465,0.7494583 l-1.0118866-2.3322983L219.8512726,123.8580933z M230.4875031,104.3624344l0.0397797,6.0855942l1.2519531,0.5168991 l1.0434875-0.652771l1.2529297-1.1223831l-0.4982147-3.7773209L230.4875031,104.3624344z M315.9091492,28.0317059 l-0.2900391,0.0007515l-0.2817993,0.1423244l-1.4107971,1.8553276l3.2579956,0.9333706l0.48703-0.7850399l0.1117859-0.2185917 l-0.081604-1.2243252L315.9091492,28.0317059z M89.4126816,117.8486176l-0.4301987,0.1433792l-1.9385757,2.6818008 l4.6885376,1.2210236l0.738945-1.2581024l-0.1559067-1.7298203L89.4126816,117.8486176z M5.617856,108.4442139l0.8425393,4.9920349 l5.4975238-3.9721909l-5.4991755-1.4795456L5.617856,108.4442139z M154.1744843,101.7905273l3.9466705,2.300621l3.926239-0.1854172 l0.6787415-0.4593964l0.2502747-0.179863l0.1035919-0.7472076l-8.8853912-5.1094284L154.1744843,101.7905273z M346.4603577,47.9183083l-0.7981567-1.6265297l-0.6333313-0.3992004l-0.7248535,0.2068825l-0.5722351,5.0486298 l2.4694519-1.0569267L346.4603577,47.9183083z M148.8292694,5.6542706l2.0583801,3.8176999l1.3078003-3.1448092 l-0.3022156-0.7833877L148.8292694,5.6542706z M314.9685669,60.8622131l1.3848267,1.2888832l1.2743835,0.0627556 l-0.4327393-1.8946648L314.9685669,60.8622131z M75.1011505,121.6675186l-1.2105103-0.2152863l-1.2872314,1.596199 l1.2418137,2.0527496l1.166748-0.2259445l1.384819-1.508522l-0.7069702-1.4663391L75.1011505,121.6675186z M276.8701782,18.261734 l-1.2598267,0.9057446l0.6875916,1.1525612l2.302063-1.1190815L276.8701782,18.261734z M309.1547241,114.4209595 l3.0439148-0.6833954l0.5505371-1.0060349l-1.2555542-1.0856018L309.1547241,114.4209595z M294.8853149,10.9837971 l-0.2749023-2.3039217l-5.0298462,0.661931l3.7900696,2.1641493L294.8853149,10.9837971z M86.6650467,12.4313679 l3.3073273-1.9336967l-0.4202957-2.7787886L88.750679,7.0763187L86.7738953,6.058125L83.79776,8.0644855l1.0424347,4.1696091 L86.6650467,12.4313679z M146.9541321,115.0232925l1.0526428,0.8323288l2.3849182-2.5376816l-2.1221161-0.2883987 L146.9541321,115.0232925z M110.752861,69.4443436l-1.3153839-2.2585831l-1.8689117,3.4980698l2.0526733-0.2784882 L110.752861,69.4443436z M364.7329712,99.4637833l1.544342-0.1121445l0.3146667-2.2198486l-4.8608093-0.6287537 L364.7329712,99.4637833z M271.2921143,78.5669479l1.8442078,1.2414398l2.6654358-4.0649643l-3.9407349,1.3975754 L271.2921143,78.5669479z" fill="#ffffff"/></g><g id="change3_1"><path d="M1.060532,86.9988022l1.9560665,8.0000687l-3.016597-1.8764954v-5.6640244L1.060532,86.9988022z M5.7352591,34.952179l-0.4910059-2.4792747l-5.2442517-1.0789967v3.9962063l4.3317509,0.8647575L5.7352591,34.952179z M274.8849182,1.40254l0.7411194-1.4025307h-2.2121277L274.8849182,1.40254z M118.9028397,0.0000092h-4.842804l3.9297028,2.6367636 L118.9028397,0.0000092z M142.2475739,23.0255642l0.2643738-3.4165478l-4.7638245-4.5392342l-2.7276001,1.0941601 l2.2126465,4.7831974L142.2475739,23.0255642z M252.5113678,0.3956064l0.4334412,3.8761013l3.1278534-1.9602702 l1.0773315-2.3114281h-4.6148224L252.5113678,0.3956064z M140.4486847,53.9325829l0.6396484-1.8955612l-2.6900635,0.0237198 l1.2674103,1.2012024L140.4486847,53.9325829z M40.978611,0.0000092h-6.9258804l-1.2153168,1.4998161l2.6298599,3.5908508 l0.872715,0.2787948l4.8464012-2.104547L40.978611,0.0000092z M189.7743225,14.1233521l-0.0509644,9.1994724l1.9941254,0.6326561 L189.7743225,14.1233521z M179.7609863,5.6102819l1.809021-2.7450085l-5.0279236,0.8649089l1.1178131,1.8779981 L179.7609863,5.6102819z M218.4529419,46.3234558l2.4421082-1.4058342l-1.6912994-1.1974487L218.4529419,46.3234558z M245.7050018,123.7268753l-0.375473,0.5469284l0.1816559,1.553566h3.8395386l0.2548523-0.3762283l-1.6975403-2.5002975 L245.7050018,123.7268753z M306.1665039,125.8273697h3.7028503l-3.7719727-3.1668777L306.1665039,125.8273697z M290.2145691,79.5090256l-1.574585,1.3237152l0.6502075,1.8781433l2.3370972,0.1064453l0.5377197-1.7202072l-0.1910706-0.5682526 L290.2145691,79.5090256z M189.1442261,125.8273697l0.4340973-3.4659424l-1.8956299,3.4659424H189.1442261z M333.1064453,55.4897499l-1.3171082,3.3006477l2.2516785-1.6155701l0.3433533-0.2568741l-0.1273193-0.7132759 L333.1064453,55.4897499z M373.2845459,50.9572716l3.1279907,5.5891075V46.1836853L373.2845459,50.9572716z M14.5768919,79.2778244 l4.1291494,2.6375122L20.2563,79.5521164l-4.0074654-1.5432053L14.5768919,79.2778244z M193.4431,60.5094032l1.9398499-5.6820335 l-4.5132599,6.344265L193.4431,60.5094032z M1.5883951,69.9890213l0.654124,7.7820816l1.2167428,0.4536972l3.4507027-3.6084137 l-0.8005023-2.7331543L1.5883951,69.9890213z M19.0895519,33.2312202l2.9060993,6.6071472l2.1214371-5.6348953 L19.0895519,33.2312202z M251.9332123,29.1982307l-1.2397766-2.070467l-1.9373016,0.4798203l2.2593231,3.3661041 L251.9332123,29.1982307z M24.7922306,15.2509918l-3.2530537,1.1759815l2.6305332,1.8150921L24.7922306,15.2509918z M211.4318848,12.858943l-6.5814819-1.9350481l1.0379333,11.1098976L211.4318848,12.858943z M9.6091833,123.1766434 l-1.3002911,1.2427902l2.8458977,1.4079361h0.1417236l-0.0735645-1.746933L9.6091833,123.1766434z M158.6515656,116.7116699 l-2.3447571,6.7721405l2.0324097,2.3435593h7.0332947l-5.2022095-9.225441L158.6515656,116.7116699z M268.2788086,33.5525017 l-1.2977295-0.6431656l-0.6563721,1.2690659l2.319458,2.3933983L268.2788086,33.5525017z M251.6602783,46.1895409 l1.6216431-0.0202675l1.2012787-3.7217674l-2.8732147,2.0060616L251.6602783,46.1895409z M22.7436829,125.8273697h1.511301 l3.6554089-4.2093964l-3.5075283,0.548584L22.7436829,125.8273697z M136.0397797,125.8273697h0.0394745l-0.0300293-0.0228195 L136.0397797,125.8273697z M287.125,97.6126633l3.125061-0.9119034l1.3052368-4.257431l-6.5432434,3.2033615L287.125,97.6126633z M173.9089203,16.1504307l-0.8412628-1.1082726l-0.5265045-0.1597395l-1.3926239,0.6326551l0.1308441,1.6206722 l1.5114441,0.4433384L173.9089203,16.1504307z M181.8452606,72.1584244l0.7984009-2.7400513l-2.1230011-1.3147049 L181.8452606,72.1584244z M175.1950378,119.0741425l0.3450012,0.5407791l1.9952393-1.0248032l0.1713104-3.5229874 l-5.8990479-1.8242569L175.1950378,119.0741425z M173.8171234,87.378334l6.4618225,2.1677475l-1.9328003-2.4003067 L173.8171234,87.378334z M187.7810974,88.2214737l0.0631409,2.1537857l2.4411316,6.2857208l1.5844116,0.4334259l7.8922119-5.210022 l0.2733154-2.7802887l-6.2167358-3.1129837L187.7810974,88.2214737z M191.951004,112.1257477l4.5214539-1.2696609 l-1.5173187-2.4743271L191.951004,112.1257477z M200.445694,76.8407364l2.1695557-0.4151154l0.2613678-4.1862717 l-3.5052643,3.3569412L200.445694,76.8407364z M112.6415176,97.777359l-2.7749634,2.8476944l0.847496,4.339859l4.8950424-0.1171036 l2.4674149-1.9685287l-3.8841324-4.9917297L112.6415176,97.777359z M125.4363403,57.5450554l-1.1578903-1.7541389 l-7.6492081,1.4331551l2.8113632,2.8149719l5.3153381-1.0276527L125.4363403,57.5450554z M134.7946625,103.2657242 l0.3811035,0.1055374l3.2856293-2.2378616l-5.6500549,1.3190613L134.7946625,103.2657242z M164.8706207,81.8067932 l0.6882782,0.9293137l3.509552-0.8300781l0.6126862-2.0453949l-2.1102448-3.0945129L164.8706207,81.8067932z M144.7260895,83.1232986l2.714386,6.0489578l3.2366943-1.4049301l-3.4566345-4.8160782L144.7260895,83.1232986z M137.8556213,67.8885269l1.1190796,1.6292343l3.8381195-0.8191223l-3.6525574-2.6532745L137.8556213,67.8885269z M125.0565109,108.6652069l-4.8831863,10.2981415l0.9432068,2.2573776l6.7803192,2.1395264l6.1117859-4.7405548 l-4.1362762-7.742897L125.0565109,108.6652069z M203.9213867,51.6598892l-2.0980835,9.804203l10.12323-2.3737335 l1.361084-5.3245697l-6.8414917-3.0502281L203.9213867,51.6598892z M353.2529297,84.5965424l1.7353516-4.4333954 l-3.9041748,2.5391846L353.2529297,84.5965424z M363.1676331,57.5337944l-0.2809143-1.4031334l-0.2235413-1.0792961 l-1.6601563,1.3271637l0.8977966,0.4828262L363.1676331,57.5337944z M360.7426147,115.1563034l2.7078552-0.6328049 l-2.1369629-3.1577148L360.7426147,115.1563034z M370.852356,24.9118195l0.2186584-2.8284817l-3.4066467,3.460535 L370.852356,24.9118195z M318.5942688,41.8549347l-0.1679993,7.0025978l9.0030823-8.0362549l-3.9281921-2.0240746 L318.5942688,41.8549347z M359.4459229,72.0603943l1.3858032,4.7684784l3.2878723-2.8314819l2.0497742-2.4906845 l-3.0133057-0.7369995L359.4459229,72.0603943z M225.4240875,60.3363037l3.0731201-2.5210114l-5.5102844,1.7515869 L225.4240875,60.3363037z M240.9382477,59.5806885l3.4362946-7.3578033l-6.6604462-1.8278542L240.9382477,59.5806885z M301.0000916,102.1615067l2.87323,0.2122803l-0.7369385-1.9736252L301.0000916,102.1615067z M259.8856812,114.2110748 l3.7956543,2.3046722l6.8560486-5.0361633l-9.7249146-2.02108L259.8856812,114.2110748z M246.3752594,113.7845535 l5.9661713-1.9906006l0.0483398-3.2685165l-1.6216431-0.5005341L246.3752594,113.7845535z M344.8432922,116.267128 l1.8676453,0.9539413l0.87677-1.6439438l-3.1843872-3.3694077L344.8432922,116.267128z M37.4899979,17.6550503l4.0610619,7.6957531 l-2.249649-7.665575L37.4899979,17.6550503z M59.0407333,67.8371887l0.4298286,4.0607605l7.9106636-1.2558517l5.0390244-6.3765488 l-4.5177689-1.664959L59.0407333,67.8371887z M48.3699684,123.1105881l1.0589561,1.4345093l1.0680351,0.4091034h0.1246872 l1.3302422-0.0154572l-1.4748955-2.2145996L48.3699684,123.1105881z M47.7293587,56.5439758l4.7059517-0.0298767 l-3.8094406-5.4298134L47.7293587,56.5439758z M49.2648315,73.6918716l-1.4900589-0.9345703l-1.6338081,2.534523 l0.2558975,0.9395294l1.7521133,0.8146133l1.9501381-1.1422043L49.2648315,73.6918716z M70.5129013,90.6527023l0.2706146-5.5451126 l-6.643486,4.1343307L70.5129013,90.6527023z M83.8026352,81.3805695l10.2295303,2.5783615l-2.1046982-2.9266663 L83.8026352,81.3805695z M104.5571518,30.8352661l-0.5060959,1.4032822l1.3881149-0.5344696l1.0046844-0.3972492 l-1.5387039-1.4151402L104.5571518,30.8352661z M124.7312469,72.3606567l-0.0858002,0.3558121l-0.9151993,3.5557175 l2.1378784-3.0287552l1.19767-1.7118073l-1.9839859,0.6922607L124.7312469,72.3606567z M101.505722,56.3055649l2.3010712,1.9030724 l-0.3571701-3.0807037L101.505722,56.3055649z" fill="#ffc334"/></g><g id="change4_1"><path d="M174.2391357,33.5256271l-1.0944519-4.5488415l5.874054,5.5788937L174.2391357,33.5256271z M179.0029755,45.8577499l-0.083252,2.509449l3.5007019-0.5221558l-1.3157654-2.3292961L179.0029755,45.8577499z M58.0729103,13.386055l-0.5314674-1.3789597l-2.712429-2.0848799l-0.3913193,1.8731937l1.7929497,1.9478092L58.0729103,13.386055z M74.9383316,3.6321464L74.17379,2.1348825l-1.725914-0.2561246L71.4497986,3.064198l1.0825958,0.6251485L74.9383316,3.6321464z M70.7721024,23.5987663l4.1898804,3.3878727l1.2253723-3.7746124l-2.5903702-2.039238L70.7721024,23.5987663z M319.8380127,97.3071442l4.157074,2.4894867l4.2268372-2.7867508L319.8380127,97.3071442z M304.7966919,47.4787216 l-2.0227051-3.4027367l-3.8509521,0.0905304l-0.9984741,2.9892731l2.6815186,3.3296204l2.4046631-0.256424L304.7966919,47.4787216z M278.8696289,110.1220856l3.9341125,0.7389526l-2.6462708-2.8061142L278.8696289,110.1220856z M203.5927429,125.8273697h1.4360199 l1.7764282-0.6952591l-3.7677765-4.0925903L203.5927429,125.8273697z M79.0063019,102.2098465l0.3979263,1.2426376 l0.8691101,0.6466217l2.728569-1.8114929l-1.5814133-1.3692017L79.0063019,102.2098465z M352.9214478,20.6485271 l-0.6820679,0.8195705l1.6218872,2.7525139l1.4305115-1.482851l-1.1292725-2.4147186L352.9214478,20.6485271z M209.4114075,101.4033356l-3.8595123,3.2206268l0.0940552,7.1088867l7.8533936,3.748642l6.8343658-4.8033142l-1.7488861-6.4008636 L209.4114075,101.4033356z M157.0277405,38.9126549l-1.1543579,2.6463699l1.7088013,2.2630882l2.2588806-0.7008171 l0.8175354-2.9596939l-1.2190704-1.3630486L157.0277405,38.9126549z M307.9391174,0.0000092l-2.132782,2.7274432 l4.6158142,2.4162199l0.4455872-3.8178499l-2.6151428-1.3258133H307.9391174z M345.9827881,61.6814842l-2.2736511,5.1906548 l8.127655,1.9171829l-0.8099365-5.9872551L345.9827881,61.6814842z M374.9864502,80.0302811l-1.7146606,2.099144 l1.1657715,1.9451065l1.9749756,0.060051v-3.8565826L374.9864502,80.0302811z M375.7006836,122.1779709l0.711853-1.4654388 v-3.5669785l-2.9652405,0.2100296L375.7006836,122.1779709z M233.8513489,86.6817169l4.2212524-0.8113098l-2.5312195-4.0724716 L233.8513489,86.6817169z M57.2553673,34.4885712l2.3601456-1.00243l0.0803223-1.9093742l-3.7490158,1.3698006 L57.2553673,34.4885712z M344.2495117,0.0000092l-5.5758667,11.1274643l3.8492737,3.6674175l1.8380737-14.7948818H344.2495117z M302.1306763,76.8923798l6.8396301-2.5526886l-1.5387878-1.8958664L302.1306763,76.8923798z M325.7100525,116.0224152 l4.3607178-1.92379l-4.5708313-2.3434067L325.7100525,116.0224152z M131.4912262,90.0631409l0.2736969-6.4055252 l-6.1884308,2.7328491L131.4912262,90.0631409z M90.7297134,22.5158672l2.4937668,1.7840137l1.7985001-0.9974747 l-3.6026382-2.869318L90.7297134,22.5158672z M334.7237244,86.5634155l2.5256042-0.1223526l-4.5819397-5.5948105 L334.7237244,86.5634155z M329.6905823,2.8597186l-4.474762,0.4439397l0.8122864,2.9580457L329.6905823,2.8597186z M237.2119751,21.819706l-2.4917297-0.5074463l3.0761108,6.5915337L237.2119751,21.819706z M335.1368408,22.421133 l-0.3963623-3.8861599l-5.3166199,3.500021L335.1368408,22.421133z M35.7540245,105.3016586l10.6003532,13.8594131 l1.1434021-0.3775787l1.4447174-12.9592285l-3.4947662-3.0449677L35.7540245,105.3016586z M163.1148376,57.4183426 l2.1428223-0.4461899L163.031662,54.02071L163.1148376,57.4183426z M285.315918,35.379303l0.165741,2.2731438l4.957489-2.4842262 l-1.7909241-1.6787758L285.315918,35.379303z M174.1651306,104.408226l2.4348297-0.2875061l0.6997681-3.7583923 l-1.8431702-1.336174L174.1651306,104.408226z M266.0856934,62.2823105l-1.9038391,5.8434296l3.9541931-5.1391602 L266.0856934,62.2823105z M106.3040848,82.03965l2.1790085,4.0517502l2.2668381-3.5801926L106.3040848,82.03965z M225.4520874,9.4023094l5.3409271,3.6055641l-2.0658875-5.556376L225.4520874,9.4023094z M25.6018162,52.9729424 l-7.9165211,6.9691162l-1.6699905,2.9999313l2.2711182,1.3136559l8.616436-8.409481L25.6018162,52.9729424z M33.7611771,90.0009842 l1.1986504,3.0254517l2.2595596-2.4665146L33.7611771,90.0009842z M37.2157822,51.0231819l-3.0804024-3.6750755 l0.4777946,5.9659348L37.2157822,51.0231819z M355.8294983,38.1707039l4.2550049,4.3143349l1.0787048-3.909729 l-2.2157898-2.2198486L355.8294983,38.1707039z M265.8843689,95.4438629l3.0919495-0.951088l-2.87323-2.2884598 L265.8843689,95.4438629z M217.8711853,92.4308624l-0.041748-1.2237244l-1.205246,0.8107147l-0.8372955,2.2467194 l2.1336823,0.7356491L217.8711853,92.4308624z M112.9956741,120.5229187l-2.0770721,1.667511l-0.5840836,0.9764557 l5.3857498,0.7497559l-0.5777817-1.6850739L112.9956741,120.5229187z M117.5483475,44.4322472l6.9020844-4.2736511 l-10.1146011-0.6401596L117.5483475,44.4322472z M251.8829193,86.0562744l0.8672333,1.6146622l5.6517944-7.4229584 l-3.5596313,0.118454L251.8829193,86.0562744z M282.1707153,54.4248657l-3.7487183-2.9870224l-0.9230042,0.9743576 l2.4078064,2.7082253L282.1707153,54.4248657z M194.6141205,40.8082161l1.467392-0.4203682l3.5710297-4.4782791 l-2.8712769-2.178112L194.6141205,40.8082161z M286.9530334,125.8273697h0.7297058l-0.6610413-0.2043304L286.9530334,125.8273697z M65.0443497,49.8270798l3.0324402-1.4881058l-2.4635162-2.2901077L65.0443497,49.8270798z M219.4020691,32.5084839 l-0.7080231-5.2811832l-1.4640808,1.004982l-1.0612793,2.5068989l2.1639252,1.554615L219.4020691,32.5084839z M32.0846558,75.0741348l0.623497-4.7886047l-6.5985909-1.0246429L32.0846558,75.0741348z M82.0054855,36.9098969 l-0.3074722,1.1765823l1.38414-0.4215698l1.5262375-2.0158195l-1.8744659-1.3502846L82.0054855,36.9098969z" fill="#f66000"/></g></g></svg>