<?xml version="1.0" encoding="UTF-8" standalone="no"?><svg xmlns="http://www.w3.org/2000/svg" xmlns:xlink="http://www.w3.org/1999/xlink" fill="#000000" height="506.1" preserveAspectRatio="xMidYMid meet" version="1" viewBox="-0.2 -1.1 451.5 506.1" width="451.5" zoomAndPan="magnify"><g><g id="change1_1"><path d="M225.6,169.3c-19.6,1.5-38.5,10.1-54,21.9c-15.4,11.6-26.5,27-31.6,45.7c-4.4,16.2-5.1,33.6,0.4,49.6 c5.1,14.9,14.6,27.9,27.1,37.4c28.6,21.5,68.6,19.5,98.3,1.3c14.7-9,27.1-21.9,34.6-37.5c7.6-15.8,8.9-33.1,6.8-50.3 c-1.9-15.2-6.2-32-16.6-43.6c-5.7-6.4-13.2-11.3-20.8-15.1c-9-4.6-18.8-8.1-28.8-9.4c-5.4-0.7-10.4-0.8-15.7,0.2 c-2.3,0.4-2.4,4.2,0,4.7c9.5,1.9,19.2,3.3,28.5,6.3c8.4,2.7,16.4,6.6,23.5,11.8c11.7,8.5,16.9,21.2,20.3,34.9 c3.7,15.2,4.7,32,0.1,47.2c-4.6,14.9-14.8,27.8-26.6,37.6c-24.3,20.4-61.2,28.5-90.3,13.7c-13.2-6.7-24-17.7-30.9-30.8 c-7.1-13.4-9.2-28-7.5-43c2-18.2,9.4-35.7,22.6-48.6c13-12.7,29.8-22.3,47.3-26.8c4.4-1.1,8.8-1.9,13.3-2.2 C228.7,174,228.7,169.1,225.6,169.3L225.6,169.3z" fill="#ffbe4f"/></g><g id="change1_2"><path d="M320.2,89.8c-19.6-13-41.2-23-64.3-28.1c-21.6-4.8-43.9-5.3-65.7-1.6c-43.1,7.3-84.1,30.8-113.4,63 C50.4,152.2,33,188.7,27.8,227.7c-5.1,37.9,0.9,76.6,16.2,111.6c14.9,34,37.1,66,68,87.3c14.7,10.1,31.5,17.8,49.1,20.6 c20.9,3.3,42.3,5,63.5,4.5c20.1-0.5,40.2-3.1,59.4-9.1c20-6.2,38.9-15.8,55.7-28.3c16.7-12.5,31.1-27.2,42.8-44.5 c11.8-17.3,20.8-36.6,27.1-56.6c6.1-19.3,9.5-39.7,8.5-60c-1-20.4-5.3-41-13-60c-4-9.9-8.8-19.4-13.8-28.7 c-4.9-9.1-10-18.2-15.9-26.7c-11.1-15.9-24.9-29.1-41.2-39.6C329.8,95.2,324.7,92.9,320.2,89.8c-2.2-1.5-4.3,2.1-2.1,3.5 c0.7,0.5,2,1.6,3.6,2.9c2.9,2.4,5.8,4.7,8.9,7c7,5.2,13.9,10.4,20.1,16.4c14.4,13.8,24.6,30.6,33.8,48.1 c9.1,17.4,17.1,35.2,21.3,54.4c4.2,19.5,5.7,39.5,2.9,59.3c-5.4,38.9-23.6,77.8-50.6,106.4c-27.7,29.3-64.9,48.3-104.7,54.3 c-19.7,2.9-39.9,2.7-59.6,0.9c-18.6-1.7-37.7-3.5-55.1-10.4c-33-13-59-41.9-76.6-71.9C43.9,329.7,32.9,294,32.5,257.7 c-0.4-38.1,10.3-76,31.2-107.9c22.6-34.4,57.1-61.3,95.5-75.8c20.5-7.7,42.3-11.8,64.3-11.3c22,0.5,43.8,5.7,64,14.3 c10.6,4.5,20.8,10,30.5,16.3C320.3,94.8,322.4,91.3,320.2,89.8z" fill="#ffbe4f"/></g><g id="change2_12"><path d="M367.2,491.3c0-1.9-1.5-3.7-2.1-5.5c-5.4-17.3-107.2-193.6-118-223.3c0.2-0.4,0.3-0.8,0.5-1.3 c1.2-6.1,1.1-9.9,0.1-15.4c-0.4-1.3-0.9-3.2-1.5-4.6c-2.2-4.6-5.6-8.1-10.4-10.8c-5.3-2.6-11.8-3.1-17.6-2.4 c-6.7,0.9-13.2,3.9-16.9,9.8c-4.9,9.1-5.4,19-1.7,27.7c-33.1,52.7-86.5,153.5-100.5,175.7c-6.8,10.8-12.9,21.9-19,33.1 c-2.9,5.3-6.3,10.4-8.3,16.2c-0.2,0.8-0.4,1.6-0.5,2.4c-0.3,0.6-0.2,1.4,0.7,1.6c4.6,0.6,13,0.3,18.4,0.6c7.7,0.1,15.4,1.1,23,1.7 c2.7,0.4,7.8,1.1,10.7,1.5c1.5,0.2,4,1.3,4.2-1.1c0-0.1,0-0.1-0.1-0.2c0.8-1.3,84.6-207.3,89.5-217.1c4.7,0.1,9.5-1.2,13.7-2.8 c0.5-0.2,1-0.4,1.5-0.6c4.6,17.6,61.1,196.1,68.1,219.7c0.4,1.3,0.2,2.1,0.8,3.1c0.1,0.1,0.2,0.2,0.4,0.3c0.2,0.3,0.5,0.5,0.8,0.4 c8.6-1.6,15.9-3,24.8-3.1c12.8-1.2,27.3-2.3,38.1-3.7C367.1,493,367.5,492.1,367.2,491.3z" fill="#202f5a"/></g><g><g id="change2_16"><path d="M49.3,124.5c-0.5,9.9-1.1,19.8-1.3,29.6c-0.1,4.8-0.2,9.7-0.4,14.5c-0.1,5-0.6,10.2-0.3,15.1 c0.1,1.5,2.6,2.1,2.8,0.4c0.7-4.7,0.7-9.6,1-14.3c0.3-5,0.6-10.1,0.9-15.1c0.6-10.1,1-20.1,1.5-30.2 C53.7,121.8,49.5,121.8,49.3,124.5L49.3,124.5z" fill="#202f5a"/></g><g><g id="change2_1"><path d="M3,159.2c0.3-2.9-0.5-7.8,3-8.9c2.1-0.6,4.4-0.3,6.5-0.3c2.7,0,5.4,0,8.1,0.3c2.3,0.2,4.6,0.5,7,0.7 c2.1,0.2,4.8,0.3,6.7,1.2c2.9,1.4,1.1,6.1,1.6,8.5c0.2,0.9,1.4,1,1.9,0.3c1.7-2.7,1.4-8.5-1.1-10.7c-1.8-1.7-4.7-1.7-7-1.8 c-2.9,0-5.8-0.1-8.7-0.3c-3.1-0.2-6.3-0.1-9.4-0.2c-2.5-0.1-5.2-0.6-7.6,0.5c-4,1.9-3.5,7.1-3.9,10.7 C-0.2,161.1,2.8,161.1,3,159.2L3,159.2z" fill="#202f5a"/></g><g id="change2_2"><path d="M67.1,160.2c-0.1-1.4-0.2-2.9,0.2-4.2c0.4-1.7,1.4-2.3,3.1-2.6c4.2-0.7,8.5-0.6,12.8-0.6 c3.9,0,8.1-0.6,11.9,0.4c1.4,0.4,2.8,0.7,2.8,2.3c0,1.6-0.6,3,0.3,4.5c0.4,0.7,1.5,0.9,2.1,0.3c2.4-2.8,1.5-8-1.8-9.7 c-4.4-2.3-10.2-1.1-15-0.9c-2.7,0.1-5.3,0.2-8,0.5c-2.3,0.2-5.3,0.3-7.3,1.3c-3,1.5-2.8,5.8-2.6,8.6 C65.6,161.2,67.2,161.3,67.1,160.2L67.1,160.2z" fill="#202f5a"/></g><g fill="#32ad62" id="change3_1"><path d="M99.5,157.6c-4.7-0.5-9.9,0.4-14.6,0.6c-3.7,0.2-7.4,0.3-11.2,0.4c-2.3,0.1-4.7,0.8-7,0.3 c-0.8,9.5-3.7,23.6-16.3,23.1c-12.7-0.5-14.9-13.5-14.2-23.5c-10-1.7-21.1-0.2-31.2-0.1l-2,0.7c2.4,25.9,30.4,41.9,55.1,38.8 c13.7-1.7,26.2-8.6,33.4-20.6c2.4-3.9,4.4-8.9,5.7-13.3c0.5-1.9,0.6-4,1.6-5.7"/><path d="M99.5,156.2c-5.3-0.4-10.5,0.4-15.7,0.7c-2.6,0.1-5.2,0.2-7.8,0.3c-2.9,0.1-6,0.9-8.8,0.4 c-1-0.2-1.8,0.4-1.9,1.5c-0.8,8.2-3.3,21.7-14,21.5c-11.6-0.2-13.2-12.7-12.6-21.8c0.1-1-0.8-2.2-1.8-2.4c-6.5-1-13-1-19.6-0.7 c-4.8,0.2-10.3-0.4-14.9,1.2c-1,0.3-2,1.3-1.9,2.4c3.9,38.1,54.6,53.3,82.9,31.1c4.4-3.4,8-7.7,10.8-12.5 c1.5-2.6,2.7-5.4,3.8-8.2c1.2-3.2,1.5-7,2.9-10c1.3-2.8-2.9-5.3-4.2-2.5c-1,2.1-1.2,4.1-1.8,6.3c-0.7,2.6-1.7,5.2-2.8,7.7 c-2,4.3-4.5,8.3-7.8,11.8c-6.3,6.6-14.8,10.5-23.7,12.2c-15.5,2.9-32.3-2-43.6-13.1C10.7,176,6.5,168,5.6,159.2 c-0.6,0.8-1.2,1.6-1.9,2.4c4.1-1.5,9.2-0.9,13.6-1.1c6.1-0.3,12.2-0.5,18.3,0.4c-0.6-0.8-1.2-1.6-1.8-2.4 c-0.5,11.4,3.4,25.9,17.4,25.2c12.9-0.6,16.1-14.2,17.1-24.8c-0.6,0.5-1.3,1-1.9,1.5c2.5,0.4,4.9-0.1,7.4-0.3 c3-0.2,6-0.2,8.9-0.4c5.6-0.2,11.2-1.2,16.8-0.8C101.4,159.2,101.4,156.3,99.5,156.2L99.5,156.2z"/></g></g><g><g fill="#32ad62" id="change3_2"><path d="M8,121.7c19.6,1.5,39.6,1.6,59.3,1.2c7.5-0.1,15,0.1,22.5-0.1c1.1,0,3.2,0.4,3.9-0.5 c2.1-2.9-4.1-10.9-5.7-12.8c-5.8-7-15.2-10.6-23.9-12.3c-14.4-2.8-33.2-0.7-44.5,9.6c-3.8,3.4-9.7,9.3-10.5,14.7 c6.2-0.5,12.6,0.4,18.8,0.4c10.1,0.1,20.1,0.8,30.2,1.1c9.4,0.3,18.8-0.1,28.2,0.1c2.2,0,4,0,6.1-0.6"/><path d="M8,123.7c17,1.4,34,1.7,51,1.5c8.7-0.1,17.3,0,26,0.1c4.3,0,11.9,1.6,11.4-5c-0.3-4.3-3.7-8.6-6.3-11.8 c-3.8-4.7-9-8-14.5-10.2c-11.7-4.8-25.4-5.6-37.7-2.8c-6.7,1.5-13.2,4.3-18.6,8.6c-5.2,4.2-11,10.1-12.5,16.8 c-0.3,1.5,0.7,3.3,2.4,3.1c7.1-0.5,14.2,0.3,21.2,0.4c7.3,0.2,14.5,0.6,21.7,0.9c6.9,0.3,13.8,0.4,20.7,0.3 c6.6,0,13.8,0.9,20.3-0.4c3.4-0.7,2-6.3-1.4-5.3c-3.1,0.9-6.3,0.8-9.4,0.7c-3.5,0-7.1,0-10.6,0c-6.9,0-13.8-0.1-20.8-0.3 c-6.8-0.3-13.7-0.6-20.5-0.7c-7.1-0.1-14.2-1-21.2-0.5c0.8,1,1.6,2.1,2.4,3.1c1-5.4,5.6-9.8,9.5-13.4c4.1-3.8,9.2-6.4,14.5-8 c10.5-3.2,22.3-3.1,32.9-0.2c9.6,2.7,18.5,8.5,22.5,18c0.2,0.6,0.7,1.4,0.6,2.1c0,0.5,0.6-0.2-0.2-0.2c-0.6,0-1.1-0.1-1.7-0.1 c-3.5,0-7.1,0.1-10.7,0.2c-7.3,0.1-14.6,0.2-21.9,0.3c-16.4,0.2-32.8,0-49.2-1.2C5.5,119.6,5.5,123.5,8,123.7L8,123.7z"/></g><g id="change2_17"><path d="M8.1,119.1c14.9,0.7,29.9,0.5,44.8,0.5c14.4,0,28.9,2,43.3,2.1c1.3,0,1.3-2,0-2.1 c-14.4-0.1-28.9-2.1-43.3-2.1c-14.9,0-29.9,0.4-44.8-0.3C6.9,117.2,6.9,119,8.1,119.1L8.1,119.1z" fill="#202f5a"/></g></g></g><g><g id="change2_25"><path d="M397.9,135.3c-0.5,9.9-1.1,19.8-1.3,29.6c-0.1,4.8-0.2,9.7-0.4,14.5c-0.1,5-0.6,10.2-0.3,15.1 c0.1,1.5,2.6,2.1,2.8,0.4c0.7-4.7,0.7-9.6,1-14.3c0.3-5,0.6-10.1,0.9-15.1c0.6-10.1,1-20.1,1.5-30.2 C402.3,132.6,398,132.5,397.9,135.3L397.9,135.3z" fill="#202f5a"/></g><g><g id="change2_3"><path d="M351.6,169.9c0.3-2.9-0.5-7.8,3-8.9c2.1-0.6,4.4-0.3,6.5-0.3c2.7,0,5.4,0,8.1,0.3c2.3,0.2,4.6,0.5,7,0.7 c2.1,0.2,4.8,0.3,6.7,1.2c2.9,1.4,1.1,6.1,1.6,8.5c0.2,0.9,1.4,1,1.9,0.3c1.7-2.7,1.4-8.5-1.1-10.7c-1.8-1.7-4.7-1.7-7-1.8 c-2.9,0-5.8-0.1-8.7-0.3c-3.1-0.2-6.3-0.1-9.4-0.2c-2.5-0.1-5.2-0.6-7.6,0.5c-4,1.9-3.5,7.1-3.9,10.7 C348.4,171.8,351.4,171.8,351.6,169.9L351.6,169.9z" fill="#202f5a"/></g><g id="change2_4"><path d="M415.7,171c-0.1-1.4-0.2-2.9,0.2-4.2c0.4-1.7,1.4-2.3,3.1-2.6c4.2-0.7,8.5-0.6,12.8-0.6 c3.9,0,8.1-0.6,11.9,0.4c1.4,0.4,2.8,0.7,2.8,2.3c0,1.6-0.6,3,0.3,4.5c0.4,0.7,1.5,0.9,2.1,0.3c2.4-2.8,1.5-8-1.8-9.7 c-4.4-2.3-10.2-1.1-15-0.9c-2.7,0.1-5.3,0.2-8,0.5c-2.3,0.2-5.3,0.3-7.3,1.3c-3,1.5-2.8,5.8-2.6,8.6 C414.1,172,415.8,172,415.7,171L415.7,171z" fill="#202f5a"/></g><g fill="#f75454" id="change4_1"><path d="M448.1,168.4c-4.7-0.5-9.9,0.4-14.6,0.6c-3.7,0.2-7.4,0.3-11.2,0.4c-2.3,0.1-4.7,0.8-7,0.3 c-0.8,9.5-3.7,23.6-16.3,23.1c-12.7-0.5-14.9-13.5-14.2-23.5c-10-1.7-21.1-0.2-31.2-0.1l-2,0.7c2.4,25.9,30.4,41.9,55.1,38.8 c13.7-1.7,26.2-8.6,33.4-20.6c2.4-3.9,4.4-8.9,5.7-13.3c0.5-1.9,0.6-4,1.6-5.7"/><path d="M448.1,166.9c-5.3-0.4-10.5,0.4-15.7,0.7c-2.6,0.1-5.2,0.2-7.8,0.3c-2.9,0.1-6,0.9-8.8,0.4 c-1-0.2-1.8,0.4-1.9,1.5c-0.8,8.2-3.3,21.7-14,21.5c-11.6-0.2-13.2-12.7-12.6-21.8c0.1-1-0.8-2.2-1.8-2.4c-6.5-1-13-1-19.6-0.7 c-4.8,0.2-10.3-0.4-14.9,1.2c-1,0.3-2,1.3-1.9,2.4c3.9,38.1,54.6,53.3,82.9,31.1c4.4-3.4,8-7.7,10.8-12.5 c1.5-2.6,2.7-5.4,3.8-8.2c1.2-3.2,1.5-7,2.9-10c1.3-2.8-2.9-5.3-4.2-2.5c-1,2.1-1.2,4.1-1.8,6.3c-0.7,2.6-1.7,5.2-2.8,7.7 c-2,4.3-4.5,8.3-7.8,11.8c-6.3,6.6-14.8,10.5-23.7,12.2c-15.5,2.9-32.3-2-43.6-13.1c-6.3-6.2-10.5-14.1-11.5-22.9 c-0.6,0.8-1.2,1.6-1.9,2.4c4.1-1.5,9.2-0.9,13.6-1.1c6.1-0.3,12.2-0.5,18.3,0.4c-0.6-0.8-1.2-1.6-1.8-2.4 c-0.5,11.4,3.4,25.9,17.4,25.2c12.9-0.6,16.1-14.2,17.1-24.8c-0.6,0.5-1.3,1-1.9,1.5c2.5,0.4,4.9-0.1,7.4-0.3 c3-0.2,6-0.2,8.9-0.4c5.6-0.2,11.2-1.2,16.8-0.8C450,170,450,167.1,448.1,166.9L448.1,166.9z"/></g></g><g><g fill="#f75454" id="change4_2"><path d="M356.6,132.5c19.6,1.5,39.6,1.6,59.3,1.2c7.5-0.1,15,0.1,22.5-0.1c1.1,0,3.2,0.4,3.9-0.5 c2.1-2.9-4.1-10.9-5.7-12.8c-5.8-7-15.2-10.6-23.9-12.3c-14.4-2.8-33.2-0.7-44.5,9.6c-3.8,3.4-9.7,9.3-10.5,14.7 c6.2-0.5,12.6,0.4,18.8,0.4c10.1,0.1,20.1,0.8,30.2,1.1c9.4,0.3,18.8-0.1,28.2,0.1c2.2,0,4,0,6.1-0.6"/><path d="M356.5,134.4c17,1.4,34,1.7,51,1.5c8.7-0.1,17.3,0,26,0.1c4.3,0,11.9,1.6,11.4-5c-0.3-4.3-3.7-8.6-6.3-11.8 c-3.8-4.7-9-8-14.5-10.2c-11.7-4.8-25.4-5.6-37.7-2.8c-6.7,1.5-13.2,4.3-18.6,8.6c-5.2,4.2-11,10.1-12.5,16.8 c-0.3,1.5,0.7,3.3,2.4,3.1c7.1-0.5,14.2,0.3,21.2,0.4c7.3,0.2,14.5,0.6,21.7,0.9c6.9,0.3,13.8,0.4,20.7,0.3 c6.6,0,13.8,0.9,20.3-0.4c3.4-0.7,2-6.3-1.4-5.3c-3.1,0.9-6.3,0.8-9.4,0.7c-3.5,0-7.1,0-10.6,0c-6.9,0-13.8-0.1-20.8-0.3 c-6.8-0.3-13.7-0.6-20.5-0.7c-7.1-0.1-14.2-1-21.2-0.5c0.8,1,1.6,2.1,2.4,3.1c1-5.4,5.6-9.8,9.5-13.4c4.1-3.8,9.2-6.4,14.5-8 c10.5-3.2,22.3-3.1,32.9-0.2c9.6,2.7,18.5,8.5,22.5,18c0.2,0.6,0.7,1.4,0.6,2.1c0,0.5,0.6-0.2-0.2-0.2c-0.6,0-1.1-0.1-1.7-0.1 c-3.5,0-7.1,0.1-10.7,0.2c-7.3,0.1-14.6,0.2-21.9,0.3c-16.4,0.2-32.8,0-49.2-1.2C354,130.3,354,134.2,356.5,134.4L356.5,134.4z"/></g><g id="change2_5"><path d="M356.6,129.8c14.9,0.7,29.9,0.5,44.8,0.5c14.4,0,28.9,2,43.3,2.1c1.3,0,1.3-2,0-2.1 c-14.4-0.1-28.9-2.1-43.3-2.1c-14.9,0-29.9,0.4-44.8-0.3C355.5,127.9,355.5,129.8,356.6,129.8L356.6,129.8z" fill="#202f5a"/></g></g></g><g><g id="change2_24"><path d="M56.6,307.5c-0.5,9.9-1.1,19.8-1.3,29.6c-0.1,4.8-0.2,9.7-0.4,14.5c-0.1,5-0.6,10.2-0.3,15.1 c0.1,1.5,2.6,2.1,2.8,0.4c0.7-4.7,0.7-9.6,1-14.3c0.3-5,0.6-10.1,0.9-15.1c0.6-10.1,1-20.1,1.5-30.2 C61,304.8,56.7,304.7,56.6,307.5L56.6,307.5z" fill="#202f5a"/></g><g><g id="change2_7"><path d="M10.3,342.1c0.3-2.9-0.5-7.8,3-8.9c2.1-0.6,4.4-0.3,6.5-0.3c2.7,0,5.4,0,8.1,0.3c2.3,0.2,4.6,0.5,7,0.7 c2.1,0.2,4.8,0.3,6.7,1.2c2.9,1.4,1.1,6.1,1.6,8.5c0.2,0.9,1.4,1,1.9,0.3c1.7-2.7,1.4-8.5-1.1-10.7c-1.8-1.7-4.7-1.7-7-1.8 c-2.9,0-5.8-0.1-8.7-0.3c-3.1-0.2-6.3-0.1-9.4-0.2c-2.5-0.1-5.2-0.6-7.6,0.5c-4,1.9-3.5,7.1-3.9,10.7 C7.1,344,10.1,344,10.3,342.1L10.3,342.1z" fill="#202f5a"/></g><g id="change2_8"><path d="M74.4,343.2c-0.1-1.4-0.2-2.9,0.2-4.2c0.4-1.7,1.4-2.3,3.1-2.6c4.2-0.7,8.5-0.6,12.8-0.6 c3.9,0,8.1-0.6,11.9,0.4c1.4,0.4,2.8,0.7,2.8,2.3c0,1.6-0.6,3,0.3,4.5c0.4,0.7,1.5,0.9,2.1,0.3c2.4-2.8,1.5-8-1.8-9.7 c-4.4-2.3-10.2-1.1-15-0.9c-2.7,0.1-5.3,0.2-8,0.5c-2.3,0.2-5.3,0.3-7.3,1.3c-3,1.5-2.8,5.8-2.6,8.6 C72.8,344.2,74.5,344.2,74.4,343.2L74.4,343.2z" fill="#202f5a"/></g><g fill="#f66125" id="change5_1"><path d="M106.8,340.6c-4.7-0.5-9.9,0.4-14.6,0.6c-3.7,0.2-7.4,0.3-11.2,0.4c-2.3,0.1-4.7,0.8-7,0.3 c-0.8,9.5-3.7,23.6-16.3,23.1c-12.7-0.5-14.9-13.5-14.2-23.5c-10-1.7-21.1-0.2-31.2-0.1l-2,0.7c2.4,25.9,30.4,41.9,55.1,38.8 c13.7-1.7,26.2-8.6,33.4-20.6c2.4-3.9,4.4-8.9,5.7-13.3c0.5-1.9,0.6-4,1.6-5.7"/><path d="M106.8,339.1c-5.3-0.4-10.5,0.4-15.7,0.7c-2.6,0.1-5.2,0.2-7.8,0.3c-2.9,0.1-6,0.9-8.8,0.4 c-1-0.2-1.8,0.4-1.9,1.5c-0.8,8.2-3.3,21.7-14,21.5c-11.6-0.2-13.2-12.7-12.6-21.8c0.1-1-0.8-2.2-1.8-2.4c-6.5-1-13-1-19.6-0.7 c-4.8,0.2-10.3-0.4-14.9,1.2c-1,0.3-2,1.3-1.9,2.4c3.9,38.1,54.6,53.3,82.9,31.1c4.4-3.4,8-7.7,10.8-12.5 c1.5-2.6,2.7-5.4,3.8-8.2c1.2-3.2,1.5-7,2.9-10c1.3-2.8-2.9-5.3-4.2-2.5c-1,2.1-1.2,4.1-1.8,6.3c-0.7,2.6-1.7,5.2-2.8,7.7 c-2,4.3-4.5,8.3-7.8,11.8c-6.3,6.6-14.8,10.5-23.7,12.2c-15.5,2.9-32.3-2-43.6-13.1c-6.3-6.2-10.5-14.1-11.5-22.9 c-0.6,0.8-1.2,1.6-1.9,2.4c4.1-1.5,9.2-0.9,13.6-1.1c6.1-0.3,12.2-0.5,18.3,0.4c-0.6-0.8-1.2-1.6-1.8-2.4 c-0.5,11.4,3.4,25.9,17.4,25.2c12.9-0.6,16.1-14.2,17.1-24.8c-0.6,0.5-1.3,1-1.9,1.5c2.5,0.4,4.9-0.1,7.4-0.3 c3-0.2,6-0.2,8.9-0.4c5.6-0.2,11.2-1.2,16.8-0.8C108.7,342.2,108.7,339.3,106.8,339.1L106.8,339.1z"/></g></g><g><g fill="#f66125" id="change5_2"><path d="M15.3,304.7c19.6,1.5,39.6,1.6,59.3,1.2c7.5-0.1,15,0.1,22.5-0.1c1.1,0,3.2,0.4,3.9-0.5 c2.1-2.9-4.1-10.9-5.7-12.8c-5.8-7-15.2-10.6-23.9-12.3c-14.4-2.8-33.2-0.7-44.5,9.6c-3.8,3.4-9.7,9.3-10.5,14.7 c6.2-0.5,12.6,0.4,18.8,0.4c10.1,0.1,20.1,0.8,30.2,1.1c9.4,0.3,18.8-0.1,28.2,0.1c2.2,0,4,0,6.1-0.6"/><path d="M15.3,306.6c17,1.4,34,1.7,51,1.5c8.7-0.1,17.3,0,26,0.1c4.3,0,11.9,1.6,11.4-5c-0.3-4.3-3.7-8.6-6.3-11.8 c-3.8-4.7-9-8-14.5-10.2c-11.7-4.8-25.4-5.6-37.7-2.8c-6.7,1.5-13.2,4.3-18.6,8.6c-5.2,4.2-11,10.1-12.5,16.8 c-0.3,1.5,0.7,3.3,2.4,3.1c7.1-0.5,14.2,0.3,21.2,0.4c7.3,0.2,14.5,0.6,21.7,0.9c6.9,0.3,13.8,0.4,20.7,0.3 c6.6,0,13.8,0.9,20.3-0.4c3.4-0.7,2-6.3-1.4-5.3c-3.1,0.9-6.3,0.8-9.4,0.7c-3.5,0-7.1,0-10.6,0c-6.9,0-13.8-0.1-20.8-0.3 c-6.8-0.3-13.7-0.6-20.5-0.7c-7.1-0.1-14.2-1-21.2-0.5c0.8,1,1.6,2.1,2.4,3.1c1-5.4,5.6-9.8,9.5-13.4c4.1-3.8,9.2-6.4,14.5-8 c10.5-3.2,22.3-3.1,32.9-0.2c9.6,2.7,18.5,8.5,22.5,18c0.2,0.6,0.7,1.4,0.6,2.1c0,0.5,0.6-0.2-0.2-0.2c-0.6,0-1.1-0.1-1.7-0.1 c-3.5,0-7.1,0.1-10.7,0.2c-7.3,0.1-14.6,0.2-21.9,0.3c-16.4,0.2-32.8,0-49.2-1.2C12.8,302.5,12.8,306.4,15.3,306.6L15.3,306.6z"/></g><g id="change2_15"><path d="M15.3,302c14.9,0.7,29.9,0.5,44.8,0.5c14.4,0,28.9,2,43.3,2.1c1.3,0,1.3-2,0-2.1 c-14.4-0.1-28.9-2.1-43.3-2.1c-14.9,0-29.9,0.4-44.8-0.3C14.2,300.1,14.2,302,15.3,302L15.3,302z" fill="#202f5a"/></g></g></g><g><g id="change2_6"><path d="M382.8,313.7c-0.5,9.9-1.1,19.8-1.3,29.6c-0.1,4.8-0.2,9.7-0.4,14.5c-0.1,5-0.6,10.2-0.3,15.1 c0.1,1.5,2.6,2.1,2.8,0.4c0.7-4.7,0.7-9.6,1-14.3c0.3-5,0.6-10.1,0.9-15.1c0.6-10.1,1-20.1,1.5-30.2 C387.2,310.9,382.9,310.9,382.8,313.7L382.8,313.7z" fill="#202f5a"/></g><g><g id="change2_18"><path d="M336.5,348.3c0.3-2.9-0.5-7.8,3-8.9c2.1-0.6,4.4-0.3,6.5-0.3c2.7,0,5.4,0,8.1,0.3c2.3,0.2,4.6,0.5,7,0.7 c2.1,0.2,4.8,0.3,6.7,1.2c2.9,1.4,1.1,6.1,1.6,8.5c0.2,0.9,1.4,1,1.9,0.3c1.7-2.7,1.4-8.5-1.1-10.7c-1.8-1.7-4.7-1.7-7-1.8 c-2.9,0-5.8-0.1-8.7-0.3c-3.1-0.2-6.3-0.1-9.4-0.2c-2.5-0.1-5.2-0.6-7.6,0.5c-4,1.9-3.5,7.1-3.9,10.7 C333.3,350.2,336.3,350.2,336.5,348.3L336.5,348.3z" fill="#202f5a"/></g><g id="change2_19"><path d="M400.6,349.4c-0.1-1.4-0.2-2.9,0.2-4.2c0.4-1.7,1.4-2.3,3.1-2.6c4.2-0.7,8.5-0.6,12.8-0.6 c3.9,0,8.1-0.6,11.9,0.4c1.4,0.4,2.8,0.7,2.8,2.3c0,1.6-0.6,3,0.3,4.5c0.4,0.7,1.5,0.9,2.1,0.3c2.4-2.8,1.5-8-1.8-9.7 c-4.4-2.3-10.2-1.1-15-0.9c-2.7,0.1-5.3,0.2-8,0.5c-2.3,0.2-5.3,0.3-7.3,1.3c-3,1.5-2.8,5.8-2.6,8.6 C399,350.4,400.7,350.4,400.6,349.4L400.6,349.4z" fill="#202f5a"/></g><g fill="#f66125" id="change5_3"><path d="M433,346.8c-4.7-0.5-9.9,0.4-14.6,0.6c-3.7,0.2-7.4,0.3-11.2,0.4c-2.3,0.1-4.7,0.8-7,0.3 c-0.8,9.5-3.7,23.6-16.3,23.1c-12.7-0.5-14.9-13.5-14.2-23.5c-10-1.7-21.1-0.2-31.2-0.1l-2,0.7c2.4,25.9,30.4,41.9,55.1,38.8 c13.7-1.7,26.2-8.6,33.4-20.6c2.4-3.9,4.4-8.9,5.7-13.3c0.5-1.9,0.6-4,1.6-5.7"/><path d="M433,345.3c-5.3-0.4-10.5,0.4-15.7,0.7c-2.6,0.1-5.2,0.2-7.8,0.3c-2.9,0.1-6,0.9-8.8,0.4 c-1-0.2-1.8,0.4-1.9,1.5c-0.8,8.2-3.3,21.7-14,21.5c-11.6-0.2-13.2-12.7-12.6-21.8c0.1-1-0.8-2.2-1.8-2.4c-6.5-1-13-1-19.6-0.7 c-4.8,0.2-10.3-0.4-14.9,1.2c-1,0.3-2,1.3-1.9,2.4c3.9,38.1,54.6,53.3,82.9,31.1c4.4-3.4,8-7.7,10.8-12.5 c1.5-2.6,2.7-5.4,3.8-8.2c1.2-3.2,1.5-7,2.9-10c1.3-2.8-2.9-5.3-4.2-2.5c-1,2.1-1.2,4.1-1.8,6.3c-0.7,2.6-1.7,5.2-2.8,7.7 c-2,4.3-4.5,8.3-7.8,11.8c-6.3,6.6-14.8,10.5-23.7,12.2c-15.5,2.9-32.3-2-43.6-13.1c-6.3-6.2-10.5-14.1-11.5-22.9 c-0.6,0.8-1.2,1.6-1.9,2.4c4.1-1.5,9.2-0.9,13.6-1.1c6.1-0.3,12.2-0.5,18.3,0.4c-0.6-0.8-1.2-1.6-1.8-2.4 c-0.5,11.4,3.4,25.9,17.4,25.2c12.9-0.6,16.1-14.2,17.1-24.8c-0.6,0.5-1.3,1-1.9,1.5c2.5,0.4,4.9-0.1,7.4-0.3 c3-0.2,6-0.2,8.9-0.4c5.6-0.2,11.2-1.2,16.8-0.8C434.9,348.4,434.9,345.5,433,345.3L433,345.3z"/></g></g><g><g fill="#f66125" id="change5_5"><path d="M341.5,310.9c19.6,1.5,39.6,1.6,59.3,1.2c7.5-0.1,15,0.1,22.5-0.1c1.1,0,3.2,0.4,3.9-0.5 c2.1-2.9-4.1-10.9-5.7-12.8c-5.8-7-15.2-10.6-23.9-12.3c-14.4-2.8-33.2-0.7-44.5,9.6c-3.8,3.4-9.7,9.3-10.5,14.7 c6.2-0.5,12.6,0.4,18.8,0.4c10.1,0.1,20.1,0.8,30.2,1.1c9.4,0.3,18.8-0.1,28.2,0.1c2.2,0,4,0,6.1-0.6"/><path d="M341.4,312.8c17,1.4,34,1.7,51,1.5c8.7-0.1,17.3,0,26,0.1c4.3,0,11.9,1.6,11.4-5c-0.3-4.3-3.7-8.6-6.3-11.8 c-3.8-4.7-9-8-14.5-10.2c-11.7-4.8-25.4-5.6-37.7-2.8c-6.7,1.5-13.2,4.3-18.6,8.6c-5.2,4.2-11,10.1-12.5,16.8 c-0.3,1.5,0.7,3.3,2.4,3.1c7.1-0.5,14.2,0.3,21.2,0.4c7.3,0.2,14.5,0.6,21.7,0.9c6.9,0.3,13.8,0.4,20.7,0.3 c6.6,0,13.8,0.9,20.3-0.4c3.4-0.7,2-6.3-1.4-5.3c-3.1,0.9-6.3,0.8-9.4,0.7c-3.5,0-7.1,0-10.6,0c-6.9,0-13.8-0.1-20.8-0.3 c-6.8-0.3-13.7-0.6-20.5-0.7c-7.1-0.1-14.2-1-21.2-0.5c0.8,1,1.6,2.1,2.4,3.1c1-5.4,5.6-9.8,9.5-13.4c4.1-3.8,9.2-6.4,14.5-8 c10.5-3.2,22.3-3.1,32.9-0.2c9.6,2.7,18.5,8.5,22.5,18c0.2,0.6,0.7,1.4,0.6,2.1c0,0.5,0.6-0.2-0.2-0.2c-0.6,0-1.1-0.1-1.7-0.1 c-3.5,0-7.1,0.1-10.7,0.2c-7.3,0.1-14.6,0.2-21.9,0.3c-16.4,0.2-32.8,0-49.2-1.2C338.9,308.7,338.9,312.6,341.4,312.8 L341.4,312.8z"/></g><g id="change2_10"><path d="M341.5,308.2c14.9,0.7,29.9,0.5,44.8,0.5c14.4,0,28.9,2,43.3,2.1c1.3,0,1.3-2,0-2.1 c-14.4-0.1-28.9-2.1-43.3-2.1c-14.9,0-29.9,0.4-44.8-0.3C340.4,306.3,340.4,308.2,341.5,308.2L341.5,308.2z" fill="#202f5a"/></g></g></g><g><g id="change2_20"><path d="M215,416.9c-0.5,9.9-1.1,19.8-1.3,29.6c-0.1,4.8-0.2,9.7-0.4,14.5c-0.1,5-0.6,10.2-0.3,15.1 c0.1,1.5,2.6,2.1,2.8,0.4c0.7-4.7,0.7-9.6,1-14.3c0.3-5,0.6-10.1,0.9-15.1c0.6-10.1,1-20.1,1.5-30.2 C219.4,414.2,215.1,414.2,215,416.9L215,416.9z" fill="#202f5a"/></g><g id="change2_21"><path d="M168.6,451.6c0.3-2.9-0.5-7.8,3-8.9c2.1-0.6,4.4-0.3,6.5-0.3c2.7,0,5.4,0,8.1,0.3c2.3,0.2,4.6,0.5,7,0.7 c2.1,0.2,4.8,0.3,6.7,1.2c2.9,1.4,1.1,6.1,1.6,8.5c0.2,0.9,1.4,1,1.9,0.3c1.7-2.7,1.4-8.5-1.1-10.7c-1.8-1.7-4.7-1.7-7-1.8 c-2.9,0-5.8-0.1-8.7-0.3c-3.1-0.2-6.3-0.1-9.4-0.2c-2.5-0.1-5.2-0.6-7.6,0.5c-4,1.9-3.5,7.1-3.9,10.7 C165.5,453.5,168.5,453.5,168.6,451.6L168.6,451.6z" fill="#202f5a"/></g><g id="change2_22"><path d="M232.8,452.6c-0.1-1.4-0.2-2.9,0.2-4.2c0.4-1.7,1.4-2.3,3.1-2.6c4.2-0.7,8.5-0.6,12.8-0.6 c3.9,0,8.1-0.6,11.9,0.4c1.4,0.4,2.8,0.7,2.8,2.3c0,1.6-0.6,3,0.3,4.5c0.4,0.7,1.5,0.9,2.1,0.3c2.4-2.8,1.5-8-1.8-9.7 c-4.4-2.3-10.2-1.1-15-0.9c-2.7,0.1-5.3,0.2-8,0.5c-2.3,0.2-5.3,0.3-7.3,1.3c-3,1.5-2.8,5.8-2.6,8.6 C231.2,453.7,232.8,453.7,232.8,452.6L232.8,452.6z" fill="#202f5a"/></g><g fill="#32ad62" id="change3_4"><path d="M265.2,450c-4.7-0.5-9.9,0.4-14.6,0.6c-3.7,0.2-7.4,0.3-11.2,0.4c-2.3,0.1-4.7,0.8-7,0.3 c-0.8,9.5-3.7,23.6-16.3,23.1c-12.7-0.5-14.9-13.5-14.2-23.5c-10-1.7-21.1-0.2-31.2-0.1l-2,0.7c2.4,25.9,30.4,41.9,55.1,38.8 c13.7-1.7,26.2-8.6,33.4-20.6c2.4-3.9,4.4-8.9,5.7-13.3c0.5-1.9,0.6-4,1.6-5.7"/><path d="M265.2,448.6c-5.3-0.4-10.5,0.4-15.7,0.7c-2.6,0.1-5.2,0.2-7.8,0.3c-2.9,0.1-6,0.9-8.8,0.4 c-1-0.2-1.8,0.4-1.9,1.5c-0.8,8.2-3.3,21.7-14,21.5c-11.6-0.2-13.2-12.7-12.6-21.8c0.1-1-0.8-2.2-1.8-2.4c-6.5-1-13-1-19.6-0.7 c-4.8,0.2-10.3-0.4-14.9,1.2c-1,0.3-2,1.3-1.9,2.4c3.9,38.1,54.6,53.3,82.9,31.1c4.4-3.4,8-7.7,10.8-12.5 c1.5-2.6,2.7-5.4,3.8-8.2c1.2-3.2,1.5-7,2.9-10c1.3-2.8-2.9-5.3-4.2-2.5c-1,2.1-1.2,4.1-1.8,6.3c-0.7,2.6-1.7,5.2-2.8,7.7 c-2,4.3-4.5,8.3-7.8,11.8c-6.3,6.6-14.8,10.5-23.7,12.2c-15.5,2.9-32.3-2-43.6-13.1c-6.3-6.2-10.5-14.1-11.5-22.9 c-0.6,0.8-1.2,1.6-1.9,2.4c4.1-1.5,9.2-0.9,13.6-1.1c6.1-0.3,12.2-0.5,18.3,0.4c-0.6-0.8-1.2-1.6-1.8-2.4 c-0.5,11.4,3.4,25.9,17.4,25.2c12.9-0.6,16.1-14.2,17.1-24.8c-0.6,0.5-1.3,1-1.9,1.5c2.5,0.4,4.9-0.1,7.4-0.3 c3-0.2,6-0.2,8.9-0.4c5.6-0.2,11.2-1.2,16.8-0.8C267,451.6,267,448.7,265.2,448.6L265.2,448.6z"/></g><g fill="#32ad62" id="change3_3"><path d="M173.6,414.1c19.6,1.5,39.6,1.6,59.3,1.2c7.5-0.1,15,0.1,22.5-0.1c1.1,0,3.2,0.4,3.9-0.5 c2.1-2.9-4.1-10.9-5.7-12.8c-5.8-7-15.2-10.6-23.9-12.3c-14.4-2.8-33.2-0.7-44.5,9.6c-3.8,3.4-9.7,9.3-10.5,14.7 c6.2-0.5,12.6,0.4,18.8,0.4c10.1,0.1,20.1,0.8,30.2,1.1c9.4,0.3,18.8-0.1,28.2,0.1c2.2,0,4,0,6.1-0.6"/><path d="M173.6,416.1c17,1.4,34,1.7,51,1.5c8.7-0.1,17.3,0,26,0.1c4.3,0,11.9,1.6,11.4-5c-0.3-4.3-3.7-8.6-6.3-11.8 c-3.8-4.7-9-8-14.5-10.2c-11.7-4.8-25.4-5.6-37.7-2.8c-6.7,1.5-13.2,4.3-18.6,8.6c-5.2,4.2-11,10.1-12.5,16.8 c-0.3,1.5,0.7,3.3,2.4,3.1c7.1-0.5,14.2,0.3,21.2,0.4c7.3,0.2,14.5,0.6,21.7,0.9c6.9,0.3,13.8,0.4,20.7,0.3 c6.6,0,13.8,0.9,20.3-0.4c3.4-0.7,2-6.3-1.4-5.3c-3.1,0.9-6.3,0.8-9.4,0.7c-3.5,0-7.1,0-10.6,0c-6.9,0-13.8-0.1-20.8-0.3 c-6.8-0.3-13.7-0.6-20.5-0.7c-7.1-0.1-14.2-1-21.2-0.5c0.8,1,1.6,2.1,2.4,3.1c1-5.4,5.6-9.8,9.5-13.4c4.1-3.8,9.2-6.4,14.5-8 c10.5-3.2,22.3-3.1,32.9-0.2c9.6,2.7,18.5,8.5,22.5,18c0.2,0.6,0.7,1.4,0.6,2.1c0,0.5,0.6-0.2-0.2-0.2c-0.6,0-1.1-0.1-1.7-0.1 c-3.5,0-7.1,0.1-10.7,0.2c-7.3,0.1-14.6,0.2-21.9,0.3c-16.4,0.2-32.8,0-49.2-1.2C171.1,412,171.1,415.9,173.6,416.1L173.6,416.1z"/></g><g id="change2_23"><path d="M173.7,411.5c14.9,0.7,29.9,0.5,44.8,0.5c14.4,0,28.9,2,43.3,2.1c1.3,0,1.3-2,0-2.1 c-14.4-0.1-28.9-2.1-43.3-2.1c-14.9,0-29.9,0.4-44.8-0.3C172.6,409.6,172.5,411.4,173.7,411.5L173.7,411.5z" fill="#202f5a"/></g></g><g><g id="change2_9"><path d="M224.1,30.7c-0.5,9.9-1.1,19.8-1.3,29.6c-0.1,4.8-0.2,9.7-0.4,14.5c-0.1,5-0.6,10.2-0.3,15.1 c0.1,1.5,2.6,2.1,2.8,0.4c0.7-4.7,0.7-9.6,1-14.3c0.3-5,0.6-10.1,0.9-15.1c0.6-10.1,1-20.1,1.5-30.2C228.5,28,224.3,28,224.1,30.7 L224.1,30.7z" fill="#202f5a"/></g><g><g id="change2_13"><path d="M177.8,65.4c0.3-2.9-0.5-7.8,3-8.9c2.1-0.6,4.4-0.3,6.5-0.3c2.7,0,5.4,0,8.1,0.3c2.3,0.2,4.6,0.5,7,0.7 c2.1,0.2,4.8,0.3,6.7,1.2c2.9,1.4,1.1,6.1,1.6,8.5c0.2,0.9,1.4,1,1.9,0.3c1.7-2.7,1.4-8.5-1.1-10.7c-1.8-1.7-4.7-1.7-7-1.8 c-2.9,0-5.8-0.1-8.7-0.3c-3.1-0.2-6.3-0.1-9.4-0.2c-2.5-0.1-5.2-0.6-7.6,0.5c-4,1.9-3.5,7.1-3.9,10.7 C174.6,67.2,177.6,67.2,177.8,65.4L177.8,65.4z" fill="#202f5a"/></g><g id="change2_14"><path d="M241.9,66.4c-0.1-1.4-0.2-2.9,0.2-4.2c0.4-1.7,1.4-2.3,3.1-2.6c4.2-0.7,8.5-0.6,12.8-0.6 c3.9,0,8.1-0.6,11.9,0.4c1.4,0.4,2.8,0.7,2.8,2.3c0,1.6-0.6,3,0.3,4.5c0.4,0.7,1.5,0.9,2.1,0.3c2.4-2.8,1.5-8-1.8-9.7 c-4.4-2.3-10.2-1.1-15-0.9c-2.7,0.1-5.3,0.2-8,0.5c-2.3,0.2-5.3,0.3-7.3,1.3c-3,1.5-2.8,5.8-2.6,8.6 C240.4,67.4,242,67.5,241.9,66.4L241.9,66.4z" fill="#202f5a"/></g><g fill="#f66125" id="change5_4"><path d="M274.3,63.8c-4.7-0.5-9.9,0.4-14.6,0.6c-3.7,0.2-7.4,0.3-11.2,0.4c-2.3,0.1-4.7,0.8-7,0.3 c-0.8,9.5-3.7,23.6-16.3,23.1c-12.7-0.5-14.9-13.5-14.2-23.5c-10-1.7-21.1-0.2-31.2-0.1l-2,0.7c2.4,25.9,30.4,41.9,55.1,38.8 c13.7-1.7,26.2-8.6,33.4-20.6c2.4-3.9,4.4-8.9,5.7-13.3c0.5-1.9,0.6-4,1.6-5.7"/><path d="M274.3,62.3c-5.3-0.4-10.5,0.4-15.7,0.7c-2.6,0.1-5.2,0.2-7.8,0.3c-2.9,0.1-6,0.9-8.8,0.4 c-1-0.2-1.8,0.4-1.9,1.5c-0.8,8.2-3.3,21.7-14,21.5c-11.6-0.2-13.2-12.7-12.6-21.8c0.1-1-0.8-2.2-1.8-2.4c-6.5-1-13-1-19.6-0.7 c-4.8,0.2-10.3-0.4-14.9,1.2c-1,0.3-2,1.3-1.9,2.4c3.9,38.1,54.6,53.3,82.9,31.1c4.4-3.4,8-7.7,10.8-12.5 c1.5-2.6,2.7-5.4,3.8-8.2c1.2-3.2,1.5-7,2.9-10c1.3-2.8-2.9-5.3-4.2-2.5c-1,2.1-1.2,4.1-1.8,6.3c-0.7,2.6-1.7,5.2-2.8,7.7 c-2,4.3-4.5,8.3-7.8,11.8c-6.3,6.6-14.8,10.5-23.7,12.2c-15.5,2.9-32.3-2-43.6-13.1c-6.3-6.2-10.5-14.1-11.5-22.9 c-0.6,0.8-1.2,1.6-1.9,2.4c4.1-1.5,9.2-0.9,13.6-1.1c6.1-0.3,12.2-0.5,18.3,0.4c-0.6-0.8-1.2-1.6-1.8-2.4 C208,76.2,212,90.7,226,90c12.9-0.6,16.1-14.2,17.1-24.8c-0.6,0.5-1.3,1-1.9,1.5c2.5,0.4,4.9-0.1,7.4-0.3c3-0.2,6-0.2,8.9-0.4 c5.6-0.2,11.2-1.2,16.8-0.8C276.2,65.4,276.2,62.5,274.3,62.3L274.3,62.3z"/></g></g><g><g fill="#f66125" id="change5_6"><path d="M182.8,27.9c19.6,1.5,39.6,1.6,59.3,1.2c7.5-0.1,15,0.1,22.5-0.1c1.1,0,3.2,0.4,3.9-0.5 c2.1-2.9-4.1-10.9-5.7-12.8c-5.8-7-15.2-10.6-23.9-12.3c-14.4-2.8-33.2-0.7-44.5,9.6c-3.8,3.4-9.7,9.3-10.5,14.7 c6.2-0.5,12.6,0.4,18.8,0.4c10.1,0.1,20.1,0.8,30.2,1.1c9.4,0.3,18.8-0.1,28.2,0.1c2.2,0,4,0,6.1-0.6"/><path d="M182.8,29.9c17,1.4,34,1.7,51,1.5c8.7-0.1,17.3,0,26,0.1c4.3,0,11.9,1.6,11.4-5c-0.3-4.3-3.7-8.6-6.3-11.8 c-3.8-4.7-9-8-14.5-10.2c-11.7-4.8-25.4-5.6-37.7-2.8c-6.7,1.5-13.2,4.3-18.6,8.6c-5.2,4.2-11,10.1-12.5,16.8 c-0.3,1.5,0.7,3.3,2.4,3.1c7.1-0.5,14.2,0.3,21.2,0.4c7.3,0.2,14.5,0.6,21.7,0.9c6.9,0.3,13.8,0.4,20.7,0.3 c6.6,0,13.8,0.9,20.3-0.4c3.4-0.7,2-6.3-1.4-5.3c-3.1,0.9-6.3,0.8-9.4,0.7c-3.5,0-7.1,0-10.6,0c-6.9,0-13.8-0.1-20.8-0.3 c-6.8-0.3-13.7-0.6-20.5-0.7c-7.1-0.1-14.2-1-21.2-0.5c0.8,1,1.6,2.1,2.4,3.1c1-5.4,5.6-9.8,9.5-13.4c4.1-3.8,9.2-6.4,14.5-8 c10.5-3.2,22.3-3.1,32.9-0.2c9.6,2.7,18.5,8.5,22.5,18c0.2,0.6,0.7,1.4,0.6,2.1c0,0.5,0.6-0.2-0.2-0.2c-0.6,0-1.1-0.1-1.7-0.1 c-3.5,0-7.1,0.1-10.7,0.2c-7.3,0.1-14.6,0.2-21.9,0.3c-16.4,0.2-32.8,0-49.2-1.2C180.3,25.8,180.3,29.7,182.8,29.9L182.8,29.9z"/></g><g id="change2_11"><path d="M182.9,25.3c14.9,0.7,29.9,0.5,44.8,0.5c14.4,0,28.9,2,43.3,2.1c1.3,0,1.3-2,0-2.1 c-14.4-0.1-28.9-2.1-43.3-2.1c-14.9,0-29.9,0.4-44.8-0.3C181.7,23.4,181.7,25.2,182.9,25.3L182.9,25.3z" fill="#202f5a"/></g></g></g><g id="change1_3"><path d="M200.6,269c2.1,2.6,4.3,5,7,7c1.3,1,2.6,1.8,4.1,2.5c0.7,0.3,1.5,0.6,2.3,0.9c0.7,0.2,1.7,0.6,2.5,0.4 c0.4-0.1,0.7-0.7,0.3-1.1c-0.6-0.5-1.4-0.6-2.1-0.8c-0.8-0.2-1.5-0.5-2.2-0.9c-1.4-0.7-2.7-1.5-4-2.4c-2.5-1.9-4.7-4.2-6.7-6.7 C201.1,267.1,199.9,268.2,200.6,269L200.6,269z" fill="#ffbe4f"/></g><g id="change1_4"><path d="M243.7,264.6c-1.3,1.9-2.6,3.8-4.2,5.4c-0.9,0.8-1.8,1.6-2.8,2.3c-0.5,0.3-1.1,0.6-1.6,0.9 c-0.5,0.3-1.1,0.6-1.2,1.3c0,0.2,0.2,0.4,0.4,0.5c0.7,0.1,1.1-0.3,1.7-0.6c0.6-0.3,1.2-0.7,1.8-1c1.1-0.6,2.1-1.4,3-2.2 c1.8-1.6,3.3-3.6,4.6-5.6C246,264.6,244.4,263.6,243.7,264.6L243.7,264.6z" fill="#ffbe4f"/></g><g id="change1_5"><path d="M218.8,238.3c-5.9,2.7-10.4,8.9-10,15.5c0.2,3.2,1.5,6.4,3.8,8.6c2.1,2,4.7,3.1,7.5,3.4 c5.8,0.7,11.8-2.4,14.5-7.6c2.9-5.6,2.6-12.7-2-17.3c-2.7-2.6-6.4-4.4-10.3-4.1c-3.8,0.3-8,2.4-9.6,6c-0.4,0.9,0.5,2.3,1.6,1.6 c2.4-1.7,4.4-3.7,7.3-4.3c2.6-0.6,5.5,0.1,7.6,1.9c3.8,3.1,4.7,8.3,2.8,12.7c-1.8,4.2-5.5,7.2-10,7.4c-4.5,0.3-8.7-2.4-10.1-6.9 c-1.9-6.3,2.4-12.5,7.9-15.2C221.1,239.5,220,237.7,218.8,238.3L218.8,238.3z" fill="#ffbe4f"/></g></g></svg>