<?xml version="1.0" encoding="UTF-8" standalone="no"?><svg xmlns="http://www.w3.org/2000/svg" xmlns:xlink="http://www.w3.org/1999/xlink" fill="#000000" height="502" preserveAspectRatio="xMidYMid meet" version="1" viewBox="-2.4 -0.8 388.9 502.0" width="388.9" zoomAndPan="magnify"><g><g><g id="change1_1"><path d="M70.9,170.4c-6.1-1.5-4.2,7.7-5.1,11.4c-0.5,19.1-1.1,38.2-2.5,57.2c-2.9,32.7-0.3,65.4-0.4,98.1 c0.3,6.1-1,12.6,0.1,18.4c0.9,1,2.8,0.3,2.8-1.1c3.4-37.1,0.5-74.3,3.3-111.4c1.8-21.6,1.7-48.9,3.3-67.6 C72.9,173.6,73,171.2,70.9,170.4z" fill="#ffbe4f"/></g><g><g id="change2_18"><path d="M56.3,354.3c0,0,0-0.1-0.1-0.1c-0.9-0.6-1.3-1-3-1c-4,0.3-8.8-1-10.4,2.1c-2.9,2.6-5.8,5.4-6,8.7 c-0.6,6.3,1.2,15.3,3,21.5c1.1,1.9,3.5,1.4,5.3,1.3c0.2-0.1,0.2-0.1,0.3-0.1c1.6-0.2,1.9,0.3,2.5-1.2c0.6-3.2-0.7-11.2-0.2-16.6 c0.2-1.5,0.4-2.6,1.5-3c1.7-0.7,5.1-2.7,6.1-4.1c-0.5,0.8,1.6-1.6,1.8-2.6c0.3-1.3,0.8-2.8,0.5-4.2 C57.3,354.5,56.8,354.3,56.3,354.3z" fill="#202f5a"/></g><g fill="#202f5a" id="change2_11"><path d="M87.7,352.9c0,0,0,0.1-0.1,0.1C87.6,353,87.6,353,87.7,352.9C87.7,353,87.6,352.9,87.7,352.9z"/><path d="M110.5,357.1c-1.3-3.3-3.4-4-4.4-6c-2.6-2.9,0.2-10.6-5.5-9.1c-5.4,2-10.8,5.5-13,11.1 c-0.1,0.1-0.1,0.3-0.1,0.4c0-0.1,0.1-0.3,0.1-0.4c0,0-0.1,0.1-0.1,0.1c0,0.2-0.1,0.3-0.1,0.4c-0.5,1.5,0.5,2.8,1.9,2.7 c1.9,1.9,4.4,3.7,5,4.4c1.6,2.4,1.3,3.1,0.7,5.9c-2.2,3.3-2.4,9.5-2.2,14.4c0.4,2.5,5.6,1.5,6.7,1.6c2.7,0.1,2-3.6,3-5.3 c0.6-2,2.2-5.9,3.9-8.6C108.4,365.6,110.8,358.2,110.5,357.1z"/></g><g><g id="change2_14"><path d="M41.2,330.3c-0.1-0.5-0.5-0.7-0.8-0.9c0-0.2-0.1-0.4-0.3-0.6c-1.8-2.5-4.6-6.5-7.8-8.9 c-12-6.6-25.2-4.3-30.1,9.5c-1.3,3.6-0.8,9.1,0.5,11.7c1.3,4,3.3,7,4.3,10.5c0.3,1.4,0.3,2-0.6,3.4c-0.6,1.1-1.4,2.1-1.6,3.4 c-0.3,1.7,1.1,2.8,2.7,2.4c5.1-1.8,10.6-6.1,10.9-11.9c-0.4-4.8-0.5-9.1,0.9-13.1c0-0.1,0.1-0.2,0.1-0.3 c0.3-0.6,0.5-0.8,1.5-1.6c1.1-1.2,6.2-1.6,8.1-0.5c0.8,0.4,2.7,3,3,3.4c0.6,0.7,0.8,1.8,1.6,2.2c1.8,0.6,2.7-2.1,4-3 c1.1-1.2,2.3-2.2,3.1-3.7C40.9,331.6,41.4,331,41.2,330.3z" fill="#202f5a"/></g><g id="change2_15"><path d="M120,309.2c1.1-4.8-1.8-8.8-4.1-11.5c-3.5-3-8.3-3.5-12.7-3.1c-3.9,0.5-7.4,2.6-10.4,5 c-3.1,2.7-6,7.4-7.6,9.4c-2.7,3.4-2.9,3.7-5.6,3.9c-4.6,0.7-9.9,0.5-13.9,3.2c-5.1,6.4,2.3,11.3,7.6,13.2 c4.9,2.1,15.4,3.5,21.8-0.2c4.7-2.5,9-9.4,10.7-12.2c2-2.3,4.2-3.8,8-4.5c0,0,0,0,0,0c0,0,0,0,0.1,0c0.1,0,0.2,0,0.3,0 c1.6-0.2,3.6,0.2,4.9-0.8C119.5,311,120,309.5,120,309.2z" fill="#202f5a"/></g><g id="change3_2"><path d="M133.3,330.3c0-0.3,0-0.4-0.1-0.4c0-0.2-0.1-0.4-0.1-0.6c-0.5-1.6-0.5-1.4-1.2-2.8 c-1.6-3.8-9.9-9.2-12.4-13.8c-0.8-1.5-5-7-7.7-9.5c0.2-0.4,0.4-0.9,0.6-1.2c0.8-2.3,0.9-4,0.8-6.6c0-0.5-0.9-1.5-1.8-0.5 c-1.5,0.9-4.6,3-6.2,4.8c-0.2,0.3-0.4,0.6-0.7,0.9c-0.9,0-1.7,0.1-2.6,0.4c-4.6,1.4-8,7.5-9.3,10.8c-0.2,0.4-0.4,0.7-0.5,1.1 c-1.8,4.3-3.9,9-5.4,13c-0.4,0.6-0.6,1-0.6,1.1c-0.1,0.1-0.1,0.2-0.2,0.3c-0.1,0-0.2,0-0.3,0c-0.7-0.1-1.6-0.2-3.3-0.4 c-7-0.9-11.9,0-19.3-0.8c-6.3-0.7-12.6-0.1-18.9,0.2c-2.7,0.3-5.8,0.4-7.2,1.4c-2.3,1.6-4.1,4-5.2,6.7 c-1.5,3.9-1.7,8.2-1.4,12.3c0,3,0.2,7.3-0.2,9.2c0,0,0,0,0,0c0,0,0,0-0.1,0.1c0,0,0,0,0.1-0.1c0,0,0,0,0,0 c-0.1,0.1-0.2,0.2-0.3,0.3c-0.8,0.8-5.1,3.2-5.3,6c-0.5,7.2,2.6,14.4,3.1,21.6c0.1,1-0.2,2.2,0.9,2.7c2.5,1.2,7.4,1,7.8-1.3 c1.1-5.8,0.5-13.9,0.8-18.5c0.4-2,0.2-1.8,1.8-3.1c1.4-1.3,6.4-2.4,8.9-6.4c0.4-0.5,0.8-1,1.1-1.6c1.8,0.6,16.6,4.6,25.7,4 c-0.4,2.9-0.6,5.8-0.9,8.7c-0.2,5.6,3,8.5,3.3,14.7c-0.2,4.8,8,3.7,9.3,2.5c0.4-0.4,0.5-1,0.4-1.6c0-4.6,0-9.2,0.5-13.8 c0.4-4.4,2.1-11.3,4.4-14.1c1.7-2.1,5.3-3.7,8.4-6.8c3-3.3,5.8-6.7,7.8-10.4c1.2-2.2,3.9-2.8,6.2-1.8c6.7,2.8,13.6,3.3,16.8,0.1 c1-1.8,1.5-2.7,2.2-4.2C133.4,332.2,133.4,331.2,133.3,330.3z" fill="#f66125"/></g></g><g id="change4_4"><path d="M74.1,323.4c-5.4,0.1-10.8,0-16.2-0.1c-2.3-0.1-8.4,1.2-8.9,2.7c-1.5,4.5-1.2,8.1,0.2,13.6 c2.5,8.7,11.8,17.1,21.9,12.2c4.4-2.4,8-7.2,8.7-12.2c1.1-3.5,2-6.9,2.2-11.2C82.2,324.1,77.6,323.3,74.1,323.4z" fill="#f75454"/></g><g id="change2_19"><path d="M115.6,315.7c0,0-0.1,0-0.2-0.1c-0.6-0.8-1.8-1.1-2.4,0.2C111.7,319.5,117.8,318.4,115.6,315.7z" fill="#202f5a"/></g></g></g><g fill="#202f5a" id="change2_17"><path d="M383.8,457.1c0.4-7.6,2.7-20.1,0.5-27c-0.4-0.5-1-0.7-1.5-0.8c-0.5-0.3-1.1-0.6-1.9-0.6 c-0.4,0-0.9-0.1-1.3-0.2c-39.6-3.4-79.5,0.1-119.2,1c-78.6,4.8-157.4-4.2-236-0.8c-6.8,0.5-13.7,0.7-20.5-0.1 c-0.1,0-0.1,0.1-0.1,0.1c-1.6-0.1-3.3,0.8-3.3,2.9c0.4,14.4,0.4,34.8-0.2,49.2c0.1,5.3-2.7,18.1,5.9,16.8 c73.3-3.1,146.8,2.5,220.2,1.2c39.8,2.4,79.6,0.4,119.4,0c10.2-0.2,20.5,0.8,30.7-0.1c3.9-0.9,5.5,0.8,7.4-4.3 C383.9,492.9,382.9,468.5,383.8,457.1z"/><path d="M380.8,428.8C380.8,428.8,380.8,428.8,380.8,428.8C381.2,428.8,381.3,428.8,380.8,428.8z"/></g><g id="change4_3"><path d="M243,283.1c0.8-26.4,1.6-53.4,0.6-79.6c-1.7-3.2-5.7-3.1-8.9-3.6c-10.4-1.1-16.5-3-28.5-3.1 c-14.2-0.4-35.5,2.6-40.1,3.2c-5.4,0.5-10.8,0.9-16.2,0.8c-0.6,0-1.3,0-2,0.2c-2.5-1-6.1,0.3-6,3.8c4,42.4-0.5,85-1.6,127.4 c0.6,34.8,0.3,73.4,1.9,105.8c0.2,2.2-0.9,4.6,2.3,7.3c2.5,1.2,3.8,0.7,7.1,2.1c22.2,6,45.7,4.8,68.3,2.4c4.7-0.4,9.3-1.6,13.8-3.2 c2.7-0.5,5.5-1.4,6.7-4.1c5.9-20.2,3.1-42.1,4-62.9C245.6,347.4,243.8,315.3,243,283.1z" fill="#f75454"/></g><g id="change1_5"><path d="M196.6,235.8c-0.7-4.1,0.9-10-0.3-14.1c0.1,0.1,0.1,0.2,0.2,0.2c0-1.3-0.8-2.5-1.9-3.2c0,0,0,0,0-0.1 c0,0,0,0,0,0c-0.2-0.1-0.3-0.3-0.5-0.4c-3.4-1.7-5.6,2.7-5.3,3c-1.2,3.2-0.1,7.5-0.6,10.8c0.3,13.8,0.8,27.6,1.6,41.3 c0.9,39.3-0.9,78.7,0.4,118c0.5,4.3-0.7,9.3,1.2,13.2c1.6,1.6,4.6,0.4,4.5-1.9C194.6,347.1,198.1,291.4,196.6,235.8z" fill="#ffbe4f"/></g><g id="change1_6"><path d="M322.9,173.6c0.1-4.3-6.8-4.4-6.7,0c-1.3,39.4,3.5,78.8,0.1,118.2c-2,23-0.5,46-0.9,69c0,2.8,4.5,2.9,4.4,0 c-0.5-34.6,1.5-69.1,3-103.7C323.8,229.3,321.3,201.4,322.9,173.6z" fill="#ffbe4f"/></g><g><g id="change2_3"><path d="M195.4,2.1c-0.7-2.5-4.3-2.9-5.7-0.8c-1.3,3.1,0,6.7-0.3,10c-0.2,14.1,0.5,28.2,0.3,42.3 c-0.3,4,6,4.5,6.2,0.4C196.1,36.8,196.2,19.4,195.4,2.1z" fill="#202f5a"/></g><g><g id="change4_2"><path d="M377.6,215.7c-2.1-1.6-4.5-2.6-6.7-4.1c-0.6-0.4-1.2-0.9-1.8-1.3c-0.8-0.8-1.6-1.3-2.2-1.6 c-0.9-0.7-1.9-1.5-2.8-2.3c-1.1-1-2.5-2.2-4-3.5c-7.3-6.5-15.3-14.5-23.1-21.2c-13-12.4-27.8-22.8-40-36.1 c-17.9-19.6-99.8-95.2-104.4-92.3c-2,1.2-72.6,58.1-102,83.6c-13.3,11.6-26,24-38.5,36.4c-0.4,0.4-0.9,0.9-1.3,1.4 c-7.9,7.5-15.7,15.1-23.3,22.9c-5.8,5-11.4,10.3-16.5,16.1c-0.7,0.7-0.9,1.8-0.8,2.7c-0.3,0.9-0.3,1.9,0.5,2.9 c4.3,3.3,10.8,0.3,15.9,0.6c17-1.3,34-2,51.1-0.9c37.2,0.3,74.4,0.9,111.6,4.2c23.4,0.6,46.8-1.5,70.2,0.2 c35.2,0,89.7,6.4,114.2,1.3C378.3,224.8,381,218.9,377.6,215.7z" fill="#f75454"/></g><g id="change1_3"><path d="M383.6,213.3c0.4-2.6,0.3-5.4-1.1-7.7c-5.5-9-14.7-2.5-19.9,3.3c-2.1,2.2-4.7,4.4-6.6,6.9 c-0.6-1.3-1.2-2.5-1.8-3.4c-1.4-2.6-2.3-5.7-4.9-7.3c-2.7-1.6-5.9-1.2-8.8-0.5c-4.5,0.7-8.5,3.4-10.9,7.3c-2-4.1-5.4-8.8-9.6-9.6 c-3.3-1.2-6.7,0.4-9.2,2.6c-3,2.5-6,5.2-8.3,8.5c-1-2.1-2.2-4.4-2.9-6.3c-3.1-6.6-12.1-8.1-18.2-4.9c-3.8,2-6.8,5-9.6,8.2 c-0.2-0.5-0.4-1-0.7-1.5c-4.4-13.7-17.3-12.1-25.4-2.7c-0.8,1.3-1.8,2.6-2.7,4c-1.3-3-3.7-6.7-6.9-7.9 c-4.7-2.8-10.3-0.3-14.8,1.7c-1.8,0.9-3.1,2.3-4.3,3.8c-3-7.6-7.5-10.2-17.9-5.7c-3.6,1.1-7.3,4.3-9.8,7 c-4.2-8.9-14.1-18.2-23.9-4.1c-1,1.7-2.2,3.6-2.9,5.6c-5-11.4-15.7-20.4-24.6-6.4c-1.1,1.9-2.4,3.8-3.4,5.9 c-1.5-2.6-3.6-5.2-4.8-6.5c-3.1-2.7-5.8-7.4-10.5-6.3c-4.6,0.8-7.5,4.8-9.7,8.7c-0.7,1.5-1.6,2.9-2.4,4.4c-0.8-2-1.8-4-3.1-5.8 c-7.3-10-15.5-12.4-22.8-0.8c-0.9,1.9-2,3.7-3.1,5.6c-0.1-0.3-0.2-0.6-0.3-0.8c-1.5-5.1-4.9-9.5-9.4-12.3 c-6-3.2-12.2,1.2-16.3,5.5c-1.3,2.2-3.9,6-5.5,9.5c-2.1-9.6-10-16.4-19.5-8.7c-2.9,2.5-5.7,5.6-7.5,9.1c-2-2.8-5.1-5.2-7.8-6.9 c-8.3-4.7-13-1.3-9.1,7.9c1.5,2.8,1.7,6.5,4,8.7c0.5,0.3,1.1,0.4,1.6,0.3c0.3,0.1,0.5,0.2,0.8,0.3c44.9-0.8,85.2,1.6,130.3,0.4 c29.8,0.7,59.6,1.7,89.5,2c15.4,0.7,30.7,2.6,46.1,2.1c31.5,0.4,62.9,4,94.3,1.1c2.8-0.6,3.4,0.1,7-0.8c1.1-0.4,1.7-1.1,2.1-2 c0.6-0.4,1.1-0.9,1.3-1.7c-0.1,0.4-0.2,0.8,0,0.2c0.1-0.2,0.1-0.4,0.2-0.6c0.8-1,2.1-3.3,3-6 C383.6,215.2,383.8,214.2,383.6,213.3z" fill="#ffbe4f"/></g></g><g id="change1_2"><path d="M263.8,27.4c-3.1-2.6-7.5-3.2-11.2-4.7c-16.2-4.9-31.9-11.5-48.7-14c-0.2,0-0.4-0.1-0.7-0.1 c-2.1-0.3,0,0-0.6-0.1c-3.8-0.3-10.8-2.6-13.3,1c-0.8,1.7-0.7,3.6-0.6,5.4c0,0.3,0,0.6,0.1,0.9c-0.1,6,0,11.7-0.8,16.2 c0.3,6.4-3.3,17.6,7.4,13.7c20-3.1,42.3-4.2,66.7-11.1C265.4,33.9,266.2,29.7,263.8,27.4z" fill="#ffbe4f"/></g><g id="change2_4"><path d="M188.1,68.7c-4.1,7.6-4.7,16.5-7.1,24.7c-10.7,29-20.7,58.2-31.3,87.2c-0.4,2.4-2.1,5-1.3,7.4 c0.7,1.3,2.6,1.5,3.6,0.5c7-23.6,17.5-46.3,24.2-70.1c4.2-12,10-23.5,12.1-36.2c1-4.3,2.4-8.2,4.1-11.9 C193,67.7,189.3,66.4,188.1,68.7z" fill="#202f5a"/></g><g id="change2_5"><path d="M210.5,105c-3.5-12.2-5.3-25-9.1-37c-1.6-2.4-5.6-0.4-4.8,2.4c7.7,37.3,19,77.8,34.1,110.8 c0.7,2.8,5.1,1.6,4.3-1.2C225.2,155.6,217.5,130.4,210.5,105z" fill="#202f5a"/></g><g fill="#202f5a" id="change2_16"><path d="M177.9,74.2c-0.5-1.4-2.5-1.8-3.5-0.7c-3,3.9-6.2,7.5-9.4,11.2c-15.9,17.3-27.6,34.1-42.8,51.4 c-10.6,10.9-16.3,21.1-26.6,32.6c-1.6,2.5-23.6,27.9-13.7,23.4c10.1-15.7,24.9-29.8,36.9-46.6c10.7-11.1,24.1-27.3,33.8-40 c8.3-9.7,17.3-18.8,24.9-29.1C178.1,75.9,178.3,74.9,177.9,74.2z"/><path d="M177.5,76.6c-0.1,0.1,0,0,0.2-0.3C177.6,76.3,177.6,76.4,177.5,76.6C177.5,76.5,177.5,76.6,177.5,76.6z"/></g><g fill="#202f5a" id="change2_21"><path d="M305.4,194.8c-27-35.6-61.5-80-91.7-117.2c-0.1-0.1-0.1-0.1-0.1-0.1c-0.2-0.3-0.4-0.6-0.7-0.8 c-1.7-1.5-4.5,0-4.4,2.2c9.5,17.1,24.7,30.8,36.6,46.3c9.3,11.1,17.7,24.3,29.3,37.3c4.8,6.2,14,18.1,17.4,22.4 c4,4.1,6.7,10.7,11.6,13.4C305.1,198.3,306.3,196.3,305.4,194.8z"/><path d="M213.6,77.5C213.6,77.5,213.6,77.5,213.6,77.5C213.2,76.9,213.2,77,213.6,77.5z"/></g></g><g><g id="change2_9"><path d="M181.6,410.8c0,0,0-0.1-0.1-0.1c-0.9-0.6-1.3-1-3-1c-4,0.3-8.8-1-10.4,2.1c-2.9,2.6-5.8,5.4-6,8.7 c-0.6,6.3,1.2,15.3,3,21.5c1.1,1.9,3.5,1.4,5.3,1.3c0.2-0.1,0.2-0.1,0.3-0.1c1.6-0.2,1.9,0.3,2.5-1.2c0.6-3.2-0.7-11.2-0.2-16.6 c0.2-1.5,0.4-2.6,1.5-3c1.7-0.7,5.1-2.7,6.1-4.1c-0.5,0.8,1.6-1.6,1.8-2.6c0.3-1.3,0.8-2.8,0.5-4.2 C182.6,411.1,182.1,410.9,181.6,410.8z" fill="#202f5a"/></g><g fill="#202f5a" id="change2_20"><path d="M212.9,409.5c0,0,0,0.1-0.1,0.1C212.9,409.6,212.9,409.6,212.9,409.5C212.9,409.5,212.9,409.5,212.9,409.5z"/><path d="M235.8,413.6c-1.3-3.3-3.4-4-4.4-6c-2.6-2.9,0.2-10.6-5.5-9.1c-5.4,2-10.8,5.5-13,11.1 c-0.1,0.1-0.1,0.3-0.1,0.4c0-0.1,0.1-0.3,0.1-0.4c0,0-0.1,0.1-0.1,0.1c0,0.2-0.1,0.3-0.1,0.4c-0.5,1.5,0.5,2.8,1.9,2.7 c1.9,1.9,4.4,3.7,5,4.4c1.6,2.4,1.3,3.1,0.7,5.9c-2.2,3.3-2.4,9.5-2.2,14.4c0.4,2.5,5.6,1.5,6.7,1.6c2.7,0.1,2-3.6,3-5.3 c0.6-2,2.2-5.9,3.9-8.6C233.7,422.2,236.1,414.8,235.8,413.6z"/></g><g><g id="change2_7"><path d="M166.4,386.9c-0.1-0.5-0.5-0.7-0.8-0.9c0-0.2-0.1-0.4-0.3-0.6c-1.8-2.5-4.6-6.5-7.8-8.9 c-12-6.6-25.2-4.3-30.1,9.5c-1.3,3.6-0.8,9.1,0.5,11.7c1.3,4,3.3,7,4.3,10.5c0.3,1.4,0.3,2-0.6,3.4c-0.6,1.1-1.4,2.1-1.6,3.4 c-0.3,1.7,1.1,2.8,2.7,2.4c5.1-1.8,10.6-6.1,10.9-11.9c-0.4-4.8-0.5-9.1,0.9-13.1c0-0.1,0.1-0.2,0.1-0.3c0.3-0.6,0.5-0.8,1.5-1.6 c1.1-1.2,6.2-1.6,8.1-0.5c0.8,0.4,2.7,3,3,3.4c0.6,0.7,0.8,1.8,1.6,2.2c1.8,0.6,2.7-2.1,4-3c1.1-1.2,2.3-2.2,3.1-3.7 C166.2,388.2,166.7,387.6,166.4,386.9z" fill="#202f5a"/></g><g id="change2_8"><path d="M245.3,365.8c1.1-4.8-1.8-8.8-4.1-11.5c-3.5-3-8.3-3.5-12.7-3.1c-3.9,0.5-7.4,2.6-10.4,5 c-3.1,2.7-6,7.4-7.6,9.4c-2.7,3.4-2.9,3.7-5.6,3.9c-4.6,0.7-9.9,0.5-13.9,3.2c-5.1,6.4,2.3,11.3,7.6,13.2 c4.9,2.1,15.4,3.5,21.8-0.2c4.7-2.5,9-9.4,10.7-12.2c2-2.3,4.2-3.8,8-4.5c0,0,0,0,0,0c0,0,0,0,0.1,0c0.1,0,0.2,0,0.3,0 c1.6-0.2,3.6,0.2,4.9-0.8C244.8,367.6,245.2,366.1,245.3,365.8z" fill="#202f5a"/></g><g id="change1_4"><path d="M258.5,386.9c0-0.3,0-0.4-0.1-0.4c0-0.2-0.1-0.4-0.1-0.6c-0.5-1.6-0.5-1.4-1.2-2.8 c-1.6-3.8-9.9-9.2-12.4-13.8c-0.8-1.5-5-7-7.7-9.5c0.2-0.4,0.4-0.9,0.6-1.2c0.8-2.3,0.9-4,0.8-6.6c0-0.5-0.9-1.5-1.8-0.5 c-1.5,0.9-4.6,3-6.2,4.8c-0.2,0.3-0.4,0.6-0.7,0.9c-0.9,0-1.7,0.1-2.6,0.4c-4.6,1.4-8,7.5-9.3,10.8c-0.2,0.4-0.4,0.7-0.5,1.1 c-1.8,4.3-3.9,9-5.4,13c-0.4,0.6-0.6,1-0.6,1.1c-0.1,0.1-0.1,0.2-0.2,0.3c-0.1,0-0.2,0-0.3,0c-0.7-0.1-1.6-0.2-3.3-0.4 c-7-0.9-11.9,0-19.3-0.8c-6.3-0.7-12.6-0.1-18.9,0.2c-2.7,0.3-5.8,0.4-7.2,1.4c-2.3,1.6-4.1,4-5.2,6.7c-1.5,3.9-1.7,8.2-1.4,12.3 c0,3,0.2,7.3-0.2,9.2c0,0,0,0,0,0c0,0,0,0-0.1,0.1c0,0,0,0,0.1-0.1c0,0,0,0,0,0c-0.1,0.1-0.2,0.2-0.3,0.3c-0.8,0.8-5.1,3.2-5.3,6 c-0.5,7.2,2.6,14.4,3.1,21.6c0.1,1-0.2,2.2,0.9,2.7c2.5,1.2,7.4,1,7.8-1.3c1.1-5.8,0.5-13.9,0.8-18.5c0.4-2,0.2-1.8,1.8-3.1 c1.4-1.3,6.4-2.4,8.9-6.4c0.4-0.5,0.8-1,1.1-1.6c1.8,0.6,16.6,4.6,25.7,4c-0.4,2.9-0.6,5.8-0.9,8.7c-0.2,5.6,3,8.5,3.3,14.7 c-0.2,4.8,8,3.7,9.3,2.5c0.4-0.4,0.5-1,0.4-1.6c0-4.6,0-9.2,0.5-13.8c0.4-4.4,2.1-11.3,4.4-14.1c1.7-2.1,5.3-3.7,8.4-6.8 c3-3.3,5.8-6.7,7.8-10.4c1.2-2.2,3.9-2.8,6.2-1.8c6.7,2.8,13.6,3.3,16.8,0.1c1-1.8,1.5-2.7,2.2-4.2 C258.6,388.8,258.7,387.8,258.5,386.9z" fill="#ffbe4f"/></g></g><g id="change4_5"><path d="M199.4,380c-5.4,0.1-10.8,0-16.2-0.1c-2.3-0.1-8.4,1.2-8.9,2.7c-1.5,4.5-1.2,8.1,0.2,13.6 c2.5,8.7,11.8,17.1,21.9,12.2c4.4-2.4,8-7.2,8.7-12.2c1.1-3.5,2-6.9,2.2-11.2C207.4,380.7,202.9,379.9,199.4,380z" fill="#f75454"/></g><g id="change2_10"><path d="M240.9,372.2c0,0-0.1,0-0.2-0.1c-0.6-0.8-1.8-1.1-2.4,0.2C237,376.1,243,375,240.9,372.2z" fill="#202f5a"/></g></g><g><g id="change2_1"><path d="M308.2,361.2c0,0,0-0.1-0.1-0.1c-0.9-0.6-1.3-1-3-1c-4,0.3-8.8-1-10.4,2.1c-2.9,2.6-5.8,5.4-6,8.7 c-0.6,6.3,1.2,15.3,3,21.5c1.1,1.9,3.5,1.4,5.3,1.3c0.2-0.1,0.2-0.1,0.3-0.1c1.6-0.2,1.9,0.3,2.5-1.2c0.6-3.2-0.7-11.2-0.2-16.6 c0.2-1.5,0.4-2.6,1.5-3c1.7-0.7,5.1-2.7,6.1-4.1c-0.5,0.8,1.6-1.6,1.8-2.6c0.3-1.3,0.8-2.8,0.5-4.2 C309.2,361.4,308.7,361.2,308.2,361.2z" fill="#202f5a"/></g><g fill="#202f5a" id="change2_6"><path d="M339.5,359.8c0,0,0,0.1-0.1,0.1C339.5,359.9,339.5,359.9,339.5,359.8C339.5,359.9,339.5,359.8,339.5,359.8z"/><path d="M362.4,364c-1.3-3.3-3.4-4-4.4-6c-2.6-2.9,0.2-10.6-5.5-9.1c-5.4,2-10.8,5.5-13,11.1 c-0.1,0.1-0.1,0.3-0.1,0.4c0-0.1,0.1-0.3,0.1-0.4c0,0-0.1,0.1-0.1,0.1c0,0.2-0.1,0.3-0.1,0.4c-0.5,1.5,0.5,2.8,1.9,2.7 c1.9,1.9,4.4,3.7,5,4.4c1.6,2.4,1.3,3.1,0.7,5.9c-2.2,3.3-2.4,9.5-2.2,14.4c0.4,2.5,5.6,1.5,6.7,1.6c2.7,0.1,2-3.6,3-5.3 c0.6-2,2.2-5.9,3.9-8.6C360.3,372.6,362.7,365.1,362.4,364z"/></g><g><g id="change2_12"><path d="M293,337.2c-0.1-0.5-0.5-0.7-0.8-0.9c0-0.2-0.1-0.4-0.3-0.6c-1.8-2.5-4.6-6.5-7.8-8.9 c-12-6.6-25.2-4.3-30.1,9.5c-1.3,3.6-0.8,9.1,0.5,11.7c1.3,4,3.3,7,4.3,10.5c0.3,1.4,0.3,2-0.6,3.4c-0.6,1.1-1.4,2.1-1.6,3.4 c-0.3,1.7,1.1,2.8,2.7,2.4c5.1-1.8,10.6-6.1,10.9-11.9c-0.4-4.8-0.5-9.1,0.9-13.1c0-0.1,0.1-0.2,0.1-0.3c0.3-0.6,0.5-0.8,1.5-1.6 c1.1-1.2,6.2-1.6,8.1-0.5c0.8,0.4,2.7,3,3,3.4c0.6,0.7,0.8,1.8,1.6,2.2c1.8,0.6,2.7-2.1,4-3c1.1-1.2,2.3-2.2,3.1-3.7 C292.8,338.5,293.3,337.9,293,337.2z" fill="#202f5a"/></g><g id="change2_13"><path d="M371.9,316.1c1.1-4.8-1.8-8.8-4.1-11.5c-3.5-3-8.3-3.5-12.7-3.1c-3.9,0.5-7.4,2.6-10.4,5 c-3.1,2.7-6,7.4-7.6,9.4c-2.7,3.4-2.9,3.7-5.6,3.9c-4.6,0.7-9.9,0.5-13.9,3.2c-5.1,6.4,2.3,11.3,7.6,13.2 c4.9,2.1,15.4,3.5,21.8-0.2c4.7-2.5,9-9.4,10.7-12.2c2-2.3,4.2-3.8,8-4.5c0,0,0,0,0,0c0,0,0,0,0.1,0c0.1,0,0.2,0,0.3,0 c1.6-0.2,3.6,0.2,4.9-0.8C371.4,317.9,371.8,316.5,371.9,316.1z" fill="#202f5a"/></g><g id="change3_1"><path d="M385.1,337.2c0-0.3,0-0.4-0.1-0.4c0-0.2-0.1-0.4-0.1-0.6c-0.5-1.6-0.5-1.4-1.2-2.8 c-1.6-3.8-9.9-9.2-12.4-13.8c-0.8-1.5-5-7-7.7-9.5c0.2-0.4,0.4-0.9,0.6-1.2c0.8-2.3,0.9-4,0.8-6.6c0-0.5-0.9-1.5-1.8-0.5 c-1.5,0.9-4.6,3-6.2,4.8c-0.2,0.3-0.4,0.6-0.7,0.9c-0.9,0-1.7,0.1-2.6,0.4c-4.6,1.4-8,7.5-9.3,10.8c-0.2,0.4-0.4,0.7-0.5,1.1 c-1.8,4.3-3.9,9-5.4,13c-0.4,0.6-0.6,1-0.6,1.1c-0.1,0.1-0.1,0.2-0.2,0.3c-0.1,0-0.2,0-0.3,0c-0.7-0.1-1.6-0.2-3.3-0.4 c-7-0.9-11.9,0-19.3-0.8c-6.3-0.7-12.6-0.1-18.9,0.2c-2.7,0.3-5.8,0.4-7.2,1.4c-2.3,1.6-4.1,4-5.2,6.7c-1.5,3.9-1.7,8.2-1.4,12.3 c0,3,0.2,7.3-0.2,9.2c0,0,0,0,0,0c0,0,0,0-0.1,0.1c0,0,0,0,0.1-0.1c0,0,0,0,0,0c-0.1,0.1-0.2,0.2-0.3,0.3c-0.8,0.8-5.1,3.2-5.3,6 c-0.5,7.2,2.6,14.4,3.1,21.6c0.1,1-0.2,2.2,0.9,2.7c2.5,1.2,7.4,1,7.8-1.3c1.1-5.8,0.5-13.9,0.8-18.5c0.4-2,0.2-1.8,1.8-3.1 c1.4-1.3,6.4-2.4,8.9-6.4c0.4-0.5,0.8-1,1.1-1.6c1.8,0.6,16.6,4.6,25.7,4c-0.4,2.9-0.6,5.8-0.9,8.7c-0.2,5.6,3,8.5,3.3,14.7 c-0.2,4.8,8,3.7,9.3,2.5c0.4-0.4,0.5-1,0.4-1.6c0-4.6,0-9.2,0.5-13.8c0.4-4.4,2.1-11.3,4.4-14.1c1.7-2.1,5.3-3.7,8.4-6.8 c3-3.3,5.8-6.7,7.8-10.4c1.2-2.2,3.9-2.8,6.2-1.8c6.7,2.8,13.6,3.3,16.8,0.1c1-1.8,1.5-2.7,2.2-4.2 C385.2,339.1,385.3,338.2,385.1,337.2z" fill="#f66125"/></g></g><g id="change4_1"><path d="M325.9,330.4c-5.4,0.1-10.8,0-16.2-0.1c-2.3-0.1-8.4,1.2-8.9,2.7c-1.5,4.5-1.2,8.1,0.2,13.6 c2.5,8.7,11.8,17.1,21.9,12.2c4.4-2.4,8-7.2,8.7-12.2c1.1-3.5,2-6.9,2.2-11.2C334,331,329.5,330.2,325.9,330.4z" fill="#f75454"/></g><g id="change2_2"><path d="M367.5,322.6c0,0-0.1,0-0.2-0.1c-0.6-0.8-1.8-1.1-2.4,0.2C363.6,326.5,369.6,325.3,367.5,322.6z" fill="#202f5a"/></g></g><g fill="#ffbe4f" id="change1_8"><path d="M5.8,482.5c1.3,1.1,2.4,2.6,3.6,3.7c0.9,0.8,2.2,2.1,3.5,2c1.2-0.1,2-1.5,2.7-2.4c1.4-1.9,2.7-3.9,4.3-5.6 c-0.3,0-0.7,0-1,0c3.1,2.4,5.1,5.8,7.6,8.7c0.3,0.3,0.8,0.3,1.1,0c2.4-2.7,4.3-5.7,7-8c0.4-0.3,1.3-1.3,1.9-1.1 c0.5,0.2,1.1,1.3,1.4,1.7c0.7,1.1,1.3,2.1,2,3.2c1.1,1.6,2.1,4.2,3.8,5.2c0.6,0.4,1.2,0.4,1.8,0.1c0.5-0.3,0.9-0.8,1.4-1.2 c0.9-0.7,1.9-1.2,2.8-1.8c1.3-0.8,2.6-1.5,3.8-2.5c1.3-1.1,2.8-2.8,4.5-3.2c2.5-0.5,4.1,4.2,5.2,5.9c0.9,1.3,1.9,3,3.7,2 c1.9-1.1,3.4-3.3,4.9-4.8c1.1-1,2.2-2.1,3.5-2.8c1.7-0.8,2.6,0.1,3.6,1.5c1.8,2.6,3,5.6,5.8,7.4c0.4,0.2,0.9,0.1,1.2-0.2 c1.6-1.6,2.9-3.6,4-5.5c0.8-1.3,1.9-4.7,3.8-3.5c3.7,2.4,6.5,6.1,10.6,7.8c0.5,0.2,1,0.1,1.3-0.4c1.5-2.2,2.1-5,3.8-7.1 c0.7-0.9,1.3-1.6,2.3-0.9c0.4,0.2,0.6,0.6,0.9,0.9c0.6,0.6,1.2,1.3,1.8,1.9c2.2,2,4.4,5,7.2,6.1c2,0.8,3.6-1.1,5-2.4 c2.1-1.9,4-3.9,6.2-5.7c0.7-0.6-0.3-1.5-1-0.9c-2.2,1.8-4.4,3.8-6.6,5.6c-0.6,0.5-1.7,2-2.5,2.1c-1.3,0.2-3.4-2.2-4.2-3 c-1.1-1-2.1-2.1-3.1-3.2c-1.2-1.2-2.4-3.1-4.1-3.6c-1.7-0.5-2.8,0.9-3.6,2.3c-1.4,2.3-2.4,4.8-3.9,7c0.4-0.1,0.9-0.2,1.3-0.4 c-2.7-1.2-5-3.4-7.2-5.3c-1.3-1.2-2.9-3-4.8-3.2c-1.8-0.2-3,1.7-3.8,3c-1.5,2.4-2.8,5-4.9,7.1c0.4-0.1,0.8-0.1,1.2-0.2 c-3.6-2.3-5.3-11.7-11-9.1c-2.2,1.1-4,3.1-5.6,4.9c-0.7,0.8-1.8,2.4-2.8,2.8c-1,0.3-1.8-1.8-2.3-2.6c-1.1-1.9-2-4.6-4.3-5.4 c-2.6-0.9-5,1.8-6.8,3.4c-1.4,1.2-3,2.2-4.6,3.1c-1,0.6-3.2,2.7-4.2,2.2c-1-0.5-1.7-2.4-2.3-3.3c-0.6-1-1.3-2.1-2-3.1 c-1-1.7-2.4-4.9-4.7-3.3c-3.5,2.4-5.8,6.2-8.6,9.4c0.4,0,0.7,0,1.1,0c-2.5-3-4.6-6.4-7.8-8.7c-0.2-0.2-0.7-0.1-0.9,0.1 c-1.2,1.3-2.2,2.7-3.2,4.2c-0.6,0.9-1.6,3.1-2.7,3.4c-1.2,0.3-2.8-1.8-3.5-2.6c-0.9-0.9-1.6-1.9-2.6-2.7 C6.1,481,5.1,481.9,5.8,482.5L5.8,482.5z"/><path d="M131.8,482.1c2.6,3,5.3,6,8.3,8.8c0.2,0.2,0.6,0.3,0.8,0.1c3.2-1.8,6.4-3.6,9.6-5.3c1.5-0.8,3.2-2,4.8-2.3 c2.1-0.4,3.6,1.8,4.9,3c1.8,1.8,3.6,4.4,6.3,5.1c2.7,0.6,5.5-1.1,7.6-2.5c2.4-1.6,5.5-4.5,8.6-4.2c3,0.3,5.4,3.3,7.7,5 c2.2,1.6,4.3,2.3,6.7,0.8c2.2-1.4,4.1-3.1,6.1-4.8c1-0.8,2.4-2.2,3.7-2.4c1.4-0.3,2.6,1.1,3.6,2c2.5,2.4,4.9,4.9,7.5,7.2 c0.4,0.4,1,0.4,1.4,0c3.8-3.5,5.9-8.8,10.3-11.4c-0.4-0.1-0.8-0.1-1.2-0.2c4.1,3.2,8.1,6.8,12.5,9.6c0.4,0.2,0.8,0.1,1.1-0.2 c3.6-2.9,6.6-6.5,9.2-10.4c0.6-1-1-1.9-1.6-0.9c-2.3,3.7-5.2,7.2-8.7,9.8c0.4,0,0.7,0.1,1.1,0.1c-3.9-3.4-8-7.1-12.4-9.8 c-0.3-0.2-0.8-0.2-1,0c-4.3,3.3-6.6,8.4-10.7,11.9c0.5,0,0.9,0,1.4,0c-2.4-2.2-4.7-4.6-7.1-6.9c-1.4-1.4-3.2-3.2-5.4-2.9 c-2.3,0.4-4.4,2.5-6.1,3.9c-1,0.9-2,1.7-3.1,2.5c-2,1.3-3.2,1.9-5.3,0.5c-2.6-1.6-4.6-4.2-7.5-5.3c-2.8-1-5.5,0.1-7.9,1.6 c-2.8,1.7-5.4,4.4-8.6,5c-3.4,0.6-6.3-4-8.5-6c-2.9-2.6-5.1-1.8-8.3-0.1c-3.8,2-7.6,4.1-11.4,6.3c0.3,0,0.6,0.1,0.8,0.1 c-3-2.7-5.6-5.8-8.2-8.8C132.2,480.3,131.1,481.4,131.8,482.1L131.8,482.1z"/><path d="M250,479.9c2.2,2.5,3.8,5.4,6,7.8c0.9,1,2.7,3.4,4.2,3c0.8-0.2,1.8-1.2,2.5-1.7c1.3-1,2.4-2,3.5-3.2 c2.4-2.4,4.5-5.1,6.8-7.7c-0.5-0.1-0.9-0.3-1.4-0.4c0.5,2.6,3,4.3,4.7,6c2.5,2.5,4.4,5.7,7.2,7.9c0.4,0.3,1,0.3,1.3-0.2 c1.6-2.9,3.6-5.6,5.6-8.2c1-1.2,3.2-5.1,4.9-4.7c1.9,0.5,3.6,2.7,4.8,4.1c1,1.2,2.1,2.3,3.2,3.5c1.5,1.7,4.6,5.5,6.9,2.6 c3.3-4.2,6.5-8.8,8.6-13.6c0.6-1.3-1.3-2.4-1.9-1.1c-1.4,2.5-2.7,5.1-4.2,7.5c-0.8,1.2-1.6,2.4-2.5,3.6c-0.3,0.4-1.4,2.3-1.8,2.4 c-1.1,0.4-3.4-2.5-4.1-3.3c-1.2-1.3-2.3-2.5-3.5-3.8c-1.5-1.6-5-5.4-7.5-3.5c-1.9,1.4-3.4,4-4.8,5.8c-1.9,2.5-3.5,5.1-5.2,7.8 c0.4-0.1,0.9-0.1,1.3-0.2c-2.2-2.3-4.3-4.8-6.4-7.2c-1.7-1.9-4.3-3.5-5.1-6c-0.2-0.6-1-0.9-1.4-0.4c-3.4,4-6.7,9-11.3,11.8 c-1,0.6-1.2,0.1-2.1-0.7c-1.1-1-2-2.1-2.9-3.3c-1.5-2-2.8-4.1-4.5-5.9C250.4,478.1,249.4,479.2,250,479.9L250,479.9z"/><path d="M317.5,474.5c2.4,2.2,5,4.3,6.9,6.9c1,1.3,2.2,3.5,4.2,3.3c0.7-0.1,1.2-0.5,1.7-0.9c1.4-1.1,2.8-2.2,4.2-3.3 c3-2.4,5.9-4.8,8.9-7.2c-0.5-0.1-1-0.1-1.5-0.2c1.6,2.5,3.5,4.7,5,7.3c1.3,2.2,2.6,4.5,4.4,6.3c1.2,1.1,2.1,0.6,3.5,0 c2.3-1,4.1-3,5.9-4.6c1.3-1.2,2.7-2.4,4-3.7c1.4-1.3,3-3.1,4.9-3.8c1.6-0.6,2.8,2.2,3.6,3.4c1.6,2.3,3.2,4.9,5.2,6.9 c0.9,1,2.3-0.3,1.8-1.4c-1.3-2.6-3.3-4.8-4.9-7.2c-0.9-1.4-2-3.4-3.6-4.1c-3-1.3-6.7,3.1-8.5,4.9c-1.3,1.3-2.7,2.5-4,3.8 c-1.7,1.7-3.8,4.2-6.4,4.7c-0.3,0.1-0.2,0.1,0.1,0.1c-0.2-0.2-0.5-0.5-0.7-0.7c-0.5-0.5-1-1.1-1.4-1.7c-0.8-1.1-1.5-2.3-2.2-3.5 c-1.5-2.7-3.4-5.1-5-7.6c-0.3-0.5-1-0.6-1.5-0.2c-2.2,1.9-4.4,3.7-6.6,5.6c-1.2,1-2.4,2-3.6,3c-0.9,0.7-2.1,2.1-3.2,2.5 c-1.8,0.6-3.2-2.5-4.2-3.7c-1.9-2.1-4-3.9-6.1-5.8C317.7,473.1,316.9,474,317.5,474.5L317.5,474.5z"/></g><g id="change1_7"><path d="M132.8,434.1c-6.1,0.4-12.1,0.6-18.2,0.8c-11,0.3-22-0.1-32.9,0c-14.2,0.2-28.3,0.2-42.4,0.4 c-6.5,0.1-13,0.1-19.4,0.2c-4,0.1-9,0.3-11.6,3.8c-2.4,3.2-2.7,7.8-2.8,11.6c-0.1,4.4,0,8.9,0.6,13.3c0.5,4.2,3.7,5.4,7.4,6.1 c6.2,1.1,12.3,2,18.6,2.5c13.9,1.2,27.9,0.7,41.8,0.5c14.3-0.2,28.6-0.3,42.8-0.4c28.5-0.2,56.9-0.8,85.4-1.7 c14-0.4,28.1-0.5,42.1-0.5c14-0.1,27.9-0.3,41.9-0.7c14.1-0.4,28.2-0.9,42.3-1.3c7-0.2,14.1-0.4,21.1-0.8 c6.4-0.4,12.7-1.1,19.1-1.5c4.3-0.3,7.3-2.2,8.6-6.4c1.2-3.6,1.4-7.6,1.6-11.3c0.2-3.7,0.2-7.3-0.1-11c-0.2-2.3-0.2-4.5-2.7-5.3 c-3.4-1.2-7.6-0.5-11.1-0.3c-5.4,0.3-10.7,0.3-16.1,0.4c-13.7,0.5-27.4,1.2-41.1,1.3c-10.3,0.1-20.6-0.3-30.9-0.1 c-8.2,0.1-16.3,0.4-24.5,0.7c-1.4,0.1-2.9,0.1-4.3,0.2c-1.3,0.1-1.3,2.1,0,2c13.4-0.6,26.8-1.1,40.2-0.9c11.7,0.1,23.3,0.4,34.9,0 c13.1-0.4,26.2-0.7,39.3-0.8c3.3,0,6.6-0.4,9.9-0.1c0.8,0.1,1.6,0.1,2.4,0.4c0.3,0.1,1,0.6,0.6,0.1c0.4,0.7,0.3,2.1,0.4,2.8 c0.3,3.6,0.2,7.3,0,10.9c-0.2,3.5-0.5,7.1-1.6,10.4c-0.6,1.8-1.7,3.1-3.6,3.6c-2.5,0.7-5.5,0.6-8.1,0.9c-6.7,0.7-13.5,1.2-20.3,1.3 c-13.3,0.2-26.5,0.6-39.8,1.2c-13.3,0.5-26.6,1-40,1.3c-13.6,0.3-27.1-0.1-40.7,0.1c-26.9,0.4-53.7,1.7-80.5,2.1 c-27.4,0.4-54.9,0.6-82.3,1.4c-13.1,0.4-26.1,0.1-39.1-1.7c-2.5-0.4-5.1-0.7-7.6-1.2c-2.2-0.5-3.9-1.4-4.4-3.8 c-0.8-4.2-0.8-8.9-0.7-13.2c0.1-3.8,0.3-9.3,3.4-12c3.7-3.1,10.4-2,14.9-2c13.4,0.1,26.8,0.3,40.1,0.2c6.9,0,13.8-0.2,20.7-0.2 c5.7,0,11.3,0.3,17,0.3c8.2,0,16.5-0.4,24.7-0.9c1.6-0.1,3.3-0.2,4.9-0.3C134.3,436.4,134.3,434,132.8,434.1L132.8,434.1z" fill="#ffbe4f"/></g></g></svg>