<?xml version="1.0" encoding="UTF-8" standalone="no"?><svg xmlns="http://www.w3.org/2000/svg" xmlns:xlink="http://www.w3.org/1999/xlink" fill="#ff8533" height="273.5" preserveAspectRatio="xMidYMid meet" version="1" viewBox="0.0 0.0 474.0 273.5" width="474" zoomAndPan="magnify"><defs><clipPath id="a"><path d="M 0 0 L 474 0 L 474 273.519531 L 0 273.519531 Z M 0 0"/></clipPath></defs><g><g clip-path="url(#a)" id="change1_1"><path d="M 450.617188 192.964844 C 431.230469 213.503906 402.757812 222.3125 376.164062 229.050781 C 366.089844 231.601562 355.972656 233.996094 345.824219 236.238281 C 358.078125 230.085938 369.945312 223.1875 381.363281 215.589844 C 382.21875 215.019531 382.800781 213.992188 382.828125 212.949219 C 382.847656 212.351562 382.492188 211.046875 381.605469 211.636719 C 365.539062 222.328125 348.566406 231.609375 330.933594 239.417969 C 312.5 243.210938 293.964844 246.511719 275.363281 249.324219 C 241.4375 254.457031 207.265625 257.953125 173 259.789062 C 155.925781 260.707031 138.796875 261.347656 121.695312 261.230469 C 119.113281 261.214844 116.535156 261.175781 113.953125 261.101562 C 91.820312 256.117188 70.054688 248.65625 50.769531 236.644531 C 28.273438 222.640625 10.078125 201.609375 4.5625 175.179688 C 4.148438 173.195312 3.800781 171.203125 3.523438 169.207031 C 5.105469 154.90625 10.140625 140.851562 17.347656 128.5625 C 32.128906 103.367188 56.695312 85.492188 81.898438 71.71875 C 94.433594 64.867188 107.410156 58.867188 120.464844 53.085938 C 121.8125 52.488281 122.605469 48.289062 120.703125 49.132812 C 93.242188 61.300781 65.59375 74.589844 42.820312 94.527344 C 23.273438 111.640625 8.300781 133.902344 2.675781 159.332031 C 1.953125 137.839844 8.410156 116.234375 19.359375 97.792969 C 34.015625 73.113281 57.21875 54.6875 82.417969 41.578125 C 109.390625 27.542969 139 18.984375 168.710938 13.046875 C 201.910156 6.410156 235.851562 3.488281 269.695312 4.328125 C 300.5 5.09375 331.648438 8.511719 361.339844 17.027344 C 388.441406 24.804688 414.679688 37.25 435.320312 56.777344 C 454.007812 74.453125 466.554688 98.144531 470.207031 123.664062 C 473.761719 148.492188 468.148438 174.386719 450.617188 192.964844 Z M 215.527344 268.332031 C 189.082031 270.355469 162.394531 269.402344 136.1875 265.324219 C 146.867188 265.132812 157.550781 264.683594 168.203125 264.152344 C 185.984375 263.265625 203.742188 261.929688 221.453125 260.152344 C 251.847656 257.101562 282.109375 252.738281 312.128906 247.089844 C 308.90625 248.292969 305.664062 249.453125 302.40625 250.5625 C 274.355469 260.117188 245.074219 266.074219 215.527344 268.332031 Z M 71.195312 255.707031 C 44.703125 248.84375 18.773438 232.664062 8.191406 206.375 C 4.992188 198.429688 3.367188 190.113281 3.050781 181.726562 C 5.699219 192.011719 10.113281 201.851562 16.449219 210.804688 C 32.011719 232.808594 56.382812 246.984375 81.257812 256.121094 C 84.433594 257.289062 87.640625 258.382812 90.871094 259.417969 C 84.25 258.578125 77.675781 257.382812 71.195312 255.707031 Z M 462.832031 88.0625 C 451.015625 63.007812 430.398438 43.890625 406.382812 30.578125 C 380.867188 16.433594 352.160156 8.804688 323.445312 4.589844 C 289.722656 -0.363281 255.324219 -1.222656 221.367188 1.597656 C 188.074219 4.359375 154.792969 10.5625 123.007812 20.9375 C 94.96875 30.085938 67.667969 43.175781 45.40625 62.808594 C 24.269531 81.445312 8.722656 105.996094 2.609375 133.648438 C -0.078125 145.804688 -0.738281 158.269531 0.855469 170.371094 C -0.4375 182.371094 0.523438 194.617188 4.460938 206.074219 C 8.953125 219.152344 17.367188 230.515625 28.007812 239.269531 C 51.609375 258.683594 82.332031 264.28125 112.117188 265.234375 C 130.179688 269.394531 148.703125 271.804688 167.070312 272.902344 C 197.386719 274.714844 227.929688 272.527344 257.695312 266.523438 C 282.695312 261.484375 307.175781 253.765625 330.511719 243.460938 C 346.171875 240.230469 361.773438 236.679688 377.261719 232.695312 C 391.019531 229.15625 404.738281 225.097656 417.699219 219.21875 C 430.332031 213.488281 442.191406 205.914062 451.730469 195.757812 C 460.53125 186.382812 466.792969 174.992188 470.378906 162.667969 C 477.519531 138.09375 473.636719 110.964844 462.832031 88.0625"/></g></g></svg>