<?xml version="1.0" encoding="UTF-8" standalone="no"?><svg xmlns="http://www.w3.org/2000/svg" xmlns:xlink="http://www.w3.org/1999/xlink" fill="#000000" height="259.3" preserveAspectRatio="xMidYMid meet" version="1" viewBox="0.0 -0.1 500.2 259.3" width="500.2" zoomAndPan="magnify"><g><g fill="#202f5a" id="change1_4"><path d="M15.1,203.5l481.8-0.8l0.3,54.5l-483.8-0.1c0,0,0.9-41.2,1.5-50.4L15.1,203.5z"/><path d="M15.1,204.5c4.3,0,8.6,0,12.9,0c11.7,0,23.4,0,35.1,0c17.3,0,34.6,0,51.9,0c21,0,42.1,0,63.1,0 c23.1,0,46.2,0,69.4,0c23.3,0,46.5,0.1,69.8,0.1c21.8,0,43.5,0,65.3-0.1c18.4,0,36.8,0,55.2,0c13.2,0,26.4,0,39.6,0 c4.1,0,8.2,0,12.2,0c2.1,0,4.3,0.2,6.5,0c0.3,0,0.5,0,0.8,0c-0.5-0.5-1.1-1.1-1.6-1.6c0.1,15.9,0.1,31.9,0.3,47.8 c0,2.2,0,4.5,0.1,6.7c0.5-0.5,1-1,1.6-1.5c-4.3,0-8.7,0-13,0.1c-11.7,0-23.4,0.1-35.1,0.1c-17.4,0-34.8,0-52.2,0 c-21.1,0-42.2,0-63.3,0c-23.3,0-46.5,0-69.8,0c-23.3,0-46.7,0-70,0c-21.9,0-43.8,0-65.7,0c-18.4,0-36.8,0.1-55.1,0.1 c-13.3,0-26.6,0.1-39.9-0.1c-4.1,0-8.2-0.1-12.3-0.1c-2.1,0-4.4-0.2-6.5,0c-0.3,0-0.6,0-0.8,0c0.5,0.5,1,1,1.4,1.4 c0.2-14.6,0.6-29.2,1.2-43.8c0.1-3.3,0.4-6.5,0.5-9.8c0.1-1.9-2.9-1.9-3,0c-0.5,15.9-1,31.7-1.4,47.6c-0.1,2-0.1,4-0.2,6 c0,0.8,0.7,1.4,1.4,1.4c4.3,0,8.7,0,13-0.1c11.7-0.1,23.4-0.2,35.1-0.1c17.4,0.1,34.8,0.1,52.2,0.2c21.1,0.1,42.2,0.1,63.3,0.1 c23.3,0,46.5,0,69.8,0c23.3,0,46.7,0,70,0c21.9,0,43.8,0,65.7,0c18.4,0,36.8,0,55.1,0c13.3,0,26.6,0,39.9,0.1 c6.3,0,12.5,0.2,18.8,0.1c0.3,0,0.5,0,0.8,0c0.8,0,1.6-0.7,1.6-1.5c0-15.9-0.1-31.9-0.2-47.8c0-2.2,0-4.5,0-6.7 c0-0.9-0.7-1.6-1.6-1.6c-4.3,0-8.6,0-12.9,0c-11.7,0-23.4,0.1-35.1,0.1c-17.3,0-34.6,0.1-51.9,0.1c-21,0-42.1,0.1-63.1,0.1 c-23.1,0.1-46.2,0.1-69.4,0.2c-23.3,0.1-46.5,0.2-69.8,0.2c-21.8,0.1-43.5,0.1-65.3,0.2c-18.4,0-36.8,0.1-55.2,0.2 c-13.2,0-26.4,0.1-39.6,0.1c-6.2,0-12.5,0-18.7,0.1c-0.3,0-0.5,0-0.8,0C13.8,202.5,13.8,204.5,15.1,204.5z"/></g><g id="change1_18"><path d="M494.4,29.8c0,14.5,0,29,0,43.5c0,29.5-0.1,58.9,0.1,88.4c0,8,0.1,16,0.1,24c0,7.2-0.3,14.4,0,21.6 c0.1,2.1,3.1,2.1,3.2,0c0.3-6.3,0-12.7,0-19c0-7.1,0-14.3,0.1-21.4c0-15.2,0-30.3,0-45.5c-0.1-25.5-0.1-51-0.2-76.5 c0-5,0-10.1,0-15.1C497.7,27.7,494.4,27.7,494.4,29.8L494.4,29.8z" fill="#202f5a"/></g><g id="change1_19"><path d="M13.7,38.6c0.4,13.7,0.7,27.5,1,41.2c0.5,28.1,0.7,56.2,0.6,84.4c0,7.8-0.1,15.7-0.3,23.5 c-0.2,7.1-0.7,14.2-0.8,21.3c0,2.1,3,2,3.2,0c0.6-6.2,0.6-12.6,0.8-18.8c0.2-7,0.4-13.9,0.5-20.9c0.2-14.6,0.2-29.2,0.1-43.8 c-0.2-24.2-0.7-48.3-1.3-72.5c-0.1-4.8-0.3-9.6-0.4-14.3C16.9,36.5,13.7,36.5,13.7,38.6L13.7,38.6z" fill="#202f5a"/></g><g fill="#f75454" id="change2_3"><path d="M16,184.8l481-0.8l0.3,54.5l-482.9-0.1c0,0,0.9-41.2,1.5-50.4L16,184.8z"/><path d="M16,185.8c4.3,0,8.6,0,12.9,0c11.7,0,23.4,0,35.1,0c17.3,0,34.6,0,51.8,0c21,0,42,0,63,0 c23.1,0,46.2,0,69.2,0c23.2,0,46.4,0.1,69.7,0c21.7,0,43.4,0,65.2-0.1c18.4,0,36.7,0,55.1,0c13.2,0,26.4,0,39.6,0 c4.1,0,8.2,0,12.2,0c2.1,0,4.3,0.2,6.4,0c0.3,0,0.5,0,0.8,0c-0.5-0.5-1.1-1.1-1.6-1.6c0.1,15.9,0.1,31.8,0.3,47.7 c0,2.3,0,4.5,0.1,6.8c0.5-0.5,1-1,1.6-1.5c-4.3,0-8.7,0-13,0.1c-11.7,0-23.4,0.1-35,0.1c-17.4,0-34.8,0-52.1,0 c-21.1,0-42.1,0-63.2,0c-23.2,0-46.4,0-69.7,0c-23.3,0-46.6,0-69.8,0c-21.9,0-43.7,0-65.6,0c-18.3,0-36.7,0.1-55,0.1 c-13.3,0-26.6,0.1-39.9-0.1c-4.1,0-8.2-0.1-12.3-0.1c-2.1,0-4.3-0.2-6.4,0c-0.3,0-0.5,0-0.8,0c0.5,0.5,1,1,1.4,1.4 c0.3-14.6,0.6-29.1,1.2-43.7c0.1-3.3,0.4-6.6,0.5-9.9c0.1-1.9-2.9-1.9-3,0c-0.5,15.8-1,31.6-1.4,47.5c-0.1,2-0.1,4.1-0.2,6.1 c0,0.8,0.7,1.4,1.4,1.4c4.3,0,8.7,0,13-0.1c11.7-0.1,23.4-0.2,35-0.1c17.4,0.1,34.8,0.1,52.1,0.2c21.1,0.1,42.1,0.1,63.2,0.1 c23.2,0,46.4,0,69.7,0c23.3,0,46.6,0,69.8,0c21.9,0,43.7,0,65.6,0c18.3,0,36.7,0,55,0c13.3,0,26.6,0,39.9,0 c6.2,0,12.5,0.2,18.8,0.1c0.3,0,0.5,0,0.8,0c0.8,0,1.6-0.7,1.6-1.5c0-15.9-0.1-31.8-0.2-47.7c0-2.3,0-4.5,0-6.8 c0-0.9-0.7-1.6-1.6-1.6c-4.3,0-8.6,0-12.9,0c-11.7,0-23.4,0.1-35.1,0.1c-17.3,0-34.6,0.1-51.8,0.1c-21,0-42,0.1-63,0.1 c-23.1,0.1-46.2,0.1-69.2,0.2c-23.2,0.1-46.4,0.2-69.7,0.3c-21.7,0.1-43.4,0.1-65.2,0.2c-18.4,0-36.7,0.1-55.1,0.2 c-13.2,0-26.4,0.1-39.6,0.1c-6.2,0-12.4,0-18.7,0.1c-0.3,0-0.5,0-0.8,0C14.7,183.8,14.7,185.8,16,185.8z"/></g><g><g id="change2_4"><path d="M0,126.4C0,126.4,0,126.4,0,126.4C0,126.4,0,126.4,0,126.4L0,126.4z" fill="#f75454"/></g></g><g><g><g id="change1_11"><path d="M213.4,177.7c-4.5-10.9-16.6-13-26.8-11.9c-12.6-1-25.4,0.2-38,1.3c-14.8,1.9-29.8,2.9-44.5,5.9 c-3.8,0.8-7.6,1.8-10.9,3.8c-0.7,0.4-1.4,0.9-2,1.5c-0.1,0-0.3,0.1-0.5,0.2c-3.3,3.6-3.6,9.2-1.8,13.6c2.2,5.7,8.6,7.4,14.1,7.9 c12.7,1,25.4,0,38.1-0.2c12.8,0.1,25.6-0.5,38.4-1.5c9-0.7,18.2-1.7,26.7-4.6c1.8-0.8,3.7-1.8,5-3.3 C214,186.9,214.7,181.9,213.4,177.7z" fill="#202f5a"/></g><g><g id="change1_2"><path d="M138.4,158.3c-0.6-4.3-12.5-3.4-15.6-5.3c-6.6-4.2-0.8-10.1-5.9-14.3c-2.9-2.7-7.7-1.6-9.3,1.6 c-3.3,7-6.3,14.4-7.1,21.7c0,1.8-1,4.4,0.6,5.7c5.7,2.7,15.3,1.5,23.3-1.1c3.8-1.2,8-1.6,11.5-3.8c1.5-0.8,2.8-2.3,2.7-3.5 C138.7,158.8,138.6,158.5,138.4,158.3z" fill="#202f5a"/></g><g id="change1_3"><path d="M156,143.6C156,143.6,156,143.6,156,143.6c0.1-0.3,0.3-0.6,0.5-0.8c0.8-1.5,1.4-3.3,0.8-5 c-0.8-2.2-2.8-2.6-5-2.1c-0.1,0-0.2,0-0.4,0c0,0,0,0,0,0.1c-2,0.5-4.1,1.7-5.6,3c-2.7,2.4-5.7,5.5-6.1,9.3c0.1,2,1.3,3,2.9,3.2 c1.2,0.5,2.8,0.4,4,0c0.8-0.2,1.6-0.6,2.4-1c1.5,4,3.2,5.2,5.6-0.6c0.6-1,1-2.2,1.5-3.2C157.3,145.5,157.3,144,156,143.6z M152,139.1c1-0.3,1.4-0.4,1.8-0.4c0,0,0,0.1,0.1,0.1c0,0.7-1.5,3.5-3.9,6c-0.1-0.3-0.3-0.5-0.6-0.7c-0.6-0.7-1.2-1.3-1.9-1.9 C149,140.7,150.7,139.4,152,139.1z M145,148.1c-1.1,0.3-0.8,0.2-1.4,0.3c-0.1,0-0.2,0-0.3,0c0,0-0.1,0-0.1,0c0,0,0,0,0,0 c0,0,0,0,0,0c0-0.1,0-0.3,0-0.4c0.1-0.8,0.7-1.7,1.5-2.8c0.2,0.9,0.4,1.9,0.6,2.8C145.3,148,145.1,148.1,145,148.1z" fill="#202f5a"/></g><g id="change3_1"><path d="M208,162.1c-6.6-17.2-36-25.4-40-25.5c-4.1-0.1-7.5,0.9-10.9,4.5c-3,2.9-3.8,6.1-5.1,8.5 c-1,1.6-1.8,3.3-2.8,4.8c0,0,0,0,0,0c-0.1,0.1-0.1,0.2-0.2,0.2c-0.7,0.4-1.3,0.8-2.6,1.2c-8.7,2.8-19.1,2.9-29.1,3.3 c-7.3,0.3-10.7-0.2-14.7,1.4c-7.6,3-8.1,9.3-9.7,15.8c-0.3,1.1-0.5,2.1-0.5,2.8c-0.1,1.5,1.4,3.6,2.9,4.2 c7,2.9,14.9,2.4,22.4,2.7c16.5,0.6,71.3-1.8,79.1-2.9c2.7-0.4,5.6-0.3,8-1.8C210.7,177,210.6,169.1,208,162.1z" fill="#ffbe4f"/></g><g id="change4_1"><path d="M201.6,162.7C201.6,162.7,201.6,162.7,201.6,162.7C201.6,162.7,201.6,162.7,201.6,162.7 c0-0.2-0.1-0.4-0.3-0.6c-1-1-1.8-0.9-2.5-0.3c-0.4,0.1-0.7,0.3-0.9,0.7c-1.9,3.4-1.3,8,0.1,10.5c1.9,2.7,4.4,0.1,4.5-2.4 C203.1,169,202.8,164.6,201.6,162.7z" fill="#f66125"/></g></g></g><g id="change1_12"><path d="M108.9,145.1c-0.7-7.5-1.3-14.9-1.8-22.4c-0.5-6.9-0.5-13.8-0.8-20.6c-0.2-4.4-0.9-9.2,0.6-13.4 c0.6-1.7,2-3.7,3.9-3.7c1.5,0,2.4,1.6,3,2.8c1.6,3.4,1.4,7.2,2.7,10.6c0.4,0.9,1.7,0.8,1.7-0.2c0.4-4.7-2.5-18.4-9.8-14.5 c-4.3,2.3-4.5,8.3-4.4,12.6c0.1,6.5,0.3,13,0.6,19.5c0.5,9.8,1.3,19.7,2.2,29.5C107,146.3,109,146.4,108.9,145.1L108.9,145.1z" fill="#202f5a"/></g></g><g><g><g id="change1_10"><path d="M347.5,181.5c3.9-11.1,15.9-13.8,26.2-13.4c12.5-1.6,25.4-1.1,38-0.7c14.9,1.1,29.9,1.3,44.7,3.5 c3.8,0.6,7.7,1.4,11.1,3.2c0.7,0.4,1.4,0.9,2.1,1.4c0.1,0,0.3,0.1,0.5,0.2c3.4,3.4,4.1,9,2.5,13.5c-1.9,5.8-8.2,7.8-13.7,8.6 c-12.6,1.7-25.4,1.3-38,1.8c-12.8,0.7-25.6,0.8-38.4,0.5c-9-0.3-18.2-0.7-26.9-3.2c-1.9-0.7-3.8-1.6-5.2-3 C347.5,190.7,346.4,185.8,347.5,181.5z" fill="#202f5a"/></g><g><g id="change1_16"><path d="M421.4,158.1c0.4-4.4,12.3-4,15.2-6.1c6.3-4.5,0.2-10.1,5.1-14.6c2.8-2.8,7.6-2,9.4,1.1 c3.6,6.9,7,14.1,8.2,21.3c0.1,1.8,1.2,4.3-0.3,5.7c-5.5,3-15.2,2.3-23.3,0.2c-3.9-1-8.1-1.1-11.7-3.2c-1.5-0.7-3-2.2-2.9-3.4 C421.1,158.7,421.2,158.4,421.4,158.1z" fill="#202f5a"/></g><g id="change1_17"><path d="M403.1,144.4C403.1,144.4,403.1,144.4,403.1,144.4c-0.2-0.3-0.3-0.5-0.5-0.8c-0.8-1.5-1.6-3.2-1.1-4.9 c0.7-2.2,2.7-2.7,4.9-2.4c0.1,0,0.2,0,0.4,0c0,0,0,0,0,0.1c2,0.4,4.2,1.5,5.7,2.7c2.8,2.3,6,5.2,6.5,9c0,2-1.1,3-2.7,3.4 c-1.2,0.5-2.7,0.6-4,0.2c-0.8-0.2-1.6-0.5-2.4-0.9c-1.3,4-2.9,5.3-5.6-0.3c-0.6-1-1.1-2.1-1.7-3.1 C401.9,146.4,401.8,144.8,403.1,144.4z M406.8,139.7c-1-0.2-1.4-0.3-1.8-0.3c0,0,0,0.1-0.1,0.1c0,0.7,1.7,3.5,4.2,5.7 c0.1-0.3,0.3-0.6,0.6-0.7c0.6-0.7,1.2-1.4,1.8-2C409.9,141.1,408.2,139.9,406.8,139.7z M414.3,148.3c1.1,0.3,0.8,0.2,1.4,0.2 c0.1,0,0.2,0,0.3,0c0,0,0,0,0.1,0c0,0,0,0,0,0c0,0,0,0,0,0c0-0.1,0-0.3,0-0.4c-0.2-0.7-0.8-1.7-1.6-2.7 c-0.1,0.9-0.3,1.9-0.5,2.8C414,148.3,414.1,148.3,414.3,148.3z" fill="#202f5a"/></g><g id="change2_1"><path d="M352.1,165.7c5.6-17.6,34.6-27.3,38.6-27.6c4.1-0.3,7.6,0.5,11.2,4c3.2,2.7,4.1,5.9,5.5,8.2 c1.1,1.5,2,3.2,3.1,4.7c0,0,0,0,0,0c0.1,0.1,0.1,0.1,0.2,0.2c0.7,0.4,1.3,0.7,2.6,1.1c8.8,2.3,19.2,1.9,29.2,1.7 c7.3-0.1,10.7-0.8,14.7,0.6c7.7,2.6,8.6,8.8,10.5,15.3c0.4,1.1,0.6,2,0.7,2.8c0.1,1.4-1.2,3.7-2.6,4.4 c-6.8,3.3-14.8,3.2-22.2,3.9c-16.4,1.5-71.3,2-79.2,1.3c-2.7-0.2-5.6,0-8.1-1.4C350.3,180.7,349.9,172.8,352.1,165.7z" fill="#f75454"/></g><g id="change3_3"><path d="M358.5,165.9C358.5,165.9,358.5,165.9,358.5,165.9C358.5,165.9,358.5,165.9,358.5,165.9 c0-0.2,0.1-0.4,0.2-0.6c0.9-1,1.8-1,2.5-0.5c0.4,0.1,0.7,0.3,1,0.6c2.1,3.3,1.7,7.9,0.4,10.5c-1.7,2.8-4.4,0.3-4.6-2.1 C357.3,172.2,357.4,167.8,358.5,165.9z" fill="#ffbe4f"/></g></g></g><g id="change1_9"><path d="M450.4,142.1c-0.1-6.6-0.5-13.2-0.9-19.7c-0.4-5.3-0.4-10.9-1.3-16.1c-0.5-2.9-1.9-8.5-5.4-9.2 c-2.6-0.6-4.3,2.3-5.2,4.3c-1.2,2.8-1.8,5.9-1.8,8.9c0,1.2,1.6,1.3,2,0.3c1-2.6,1.6-5.4,2.6-8c0.2-0.6,0.9-2.7,1.6-2.8 c1.4-0.2,2.6,3.4,3,4.3c1.9,5.4,1.7,11.6,2.1,17.3c0.5,7,0.8,13.9,0.9,20.9C448,143.7,450.5,143.7,450.4,142.1L450.4,142.1z" fill="#202f5a"/></g></g><g><g><g id="change1_8"><path d="M151.4,201.9c-4.5-10.9-16.6-13-26.8-11.9c-12.6-1-25.4,0.2-38,1.3c-14.8,1.9-29.8,2.9-44.5,5.9 c-3.8,0.8-7.6,1.8-10.9,3.8c-0.7,0.4-1.4,0.9-2,1.5c-0.1,0-0.3,0.1-0.5,0.2c-3.3,3.6-3.6,9.2-1.8,13.6c2.2,5.7,8.6,7.4,14.1,7.9 c12.7,1,25.4,0,38.1-0.2c12.8,0.1,25.6-0.5,38.4-1.5c9-0.7,18.2-1.7,26.7-4.6c1.8-0.8,3.7-1.8,5-3.3 C152,211,152.8,206,151.4,201.9z" fill="#202f5a"/></g><g><g id="change1_13"><path d="M76.4,182.4c-0.6-4.3-12.5-3.4-15.6-5.3c-6.6-4.2-0.8-10.1-5.9-14.3c-2.9-2.7-7.7-1.6-9.3,1.6 c-3.3,7-6.3,14.4-7.1,21.7c0,1.8-1,4.4,0.6,5.7c5.7,2.7,15.3,1.5,23.3-1.1c3.8-1.2,8-1.6,11.5-3.8c1.5-0.8,2.8-2.3,2.7-3.5 C76.8,183,76.6,182.7,76.4,182.4z" fill="#202f5a"/></g><g id="change1_14"><path d="M94,167.7C94,167.7,94,167.7,94,167.7c0.1-0.3,0.3-0.6,0.5-0.8c0.8-1.5,1.4-3.3,0.8-5 c-0.8-2.2-2.8-2.6-5-2.1c-0.1,0-0.2,0-0.4,0c0,0,0,0,0,0.1c-2,0.5-4.1,1.7-5.6,3c-2.7,2.4-5.7,5.5-6.1,9.3c0.1,2,1.3,3,2.9,3.2 c1.2,0.5,2.8,0.4,4,0c0.8-0.2,1.6-0.6,2.4-1c1.5,4,3.2,5.2,5.6-0.6c0.6-1,1-2.2,1.5-3.2C95.3,169.7,95.3,168.1,94,167.7z M90.1,163.2c1-0.3,1.4-0.4,1.8-0.4c0,0,0,0.1,0.1,0.1c0,0.7-1.5,3.5-3.9,6c-0.1-0.3-0.3-0.5-0.6-0.7c-0.6-0.7-1.2-1.3-1.9-1.9 C87,164.8,88.7,163.5,90.1,163.2z M83.1,172.2c-1.1,0.3-0.8,0.2-1.4,0.3c-0.1,0-0.2,0-0.3,0c0,0-0.1,0-0.1,0c0,0,0,0,0,0 c0,0,0,0,0,0c0-0.1,0-0.3,0-0.4c0.1-0.8,0.7-1.7,1.5-2.8c0.2,0.9,0.4,1.9,0.6,2.8C83.3,172.2,83.2,172.2,83.1,172.2z" fill="#202f5a"/></g><g id="change5_1"><path d="M146,186.3c-6.6-17.2-36-25.4-40-25.5c-4.1-0.1-7.5,0.9-10.9,4.5c-3,2.9-3.8,6.1-5.1,8.5 c-1,1.6-1.8,3.3-2.8,4.8c0,0,0,0,0,0c-0.1,0.1-0.1,0.2-0.2,0.2c-0.7,0.4-1.3,0.8-2.6,1.2c-8.7,2.8-19.1,2.9-29.1,3.3 c-7.3,0.3-10.7-0.2-14.7,1.4c-7.6,3-8.1,9.3-9.7,15.8c-0.3,1.1-0.5,2.1-0.5,2.8c-0.1,1.5,1.4,3.6,2.9,4.2 c7,2.9,14.9,2.4,22.4,2.7c16.5,0.6,71.3-1.8,79.1-2.9c2.7-0.4,5.6-0.3,8-1.8C148.7,201.1,148.6,193.3,146,186.3z" fill="#32ad62"/></g><g id="change4_2"><path d="M139.6,186.9C139.6,186.9,139.6,186.9,139.6,186.9C139.6,186.9,139.6,186.9,139.6,186.9 c0-0.2-0.1-0.4-0.3-0.6c-1-1-1.8-0.9-2.5-0.3c-0.4,0.1-0.7,0.3-0.9,0.7c-1.9,3.4-1.3,8,0.1,10.5c1.9,2.7,4.4,0.1,4.5-2.4 C141.2,193.1,140.9,188.7,139.6,186.9z" fill="#f66125"/></g></g></g><g id="change1_7"><path d="M47.6,170.5c-0.1-7.7-0.5-15.4-0.8-23.1c-0.3-7-0.4-14.1-0.6-21.1c-0.2-5.7-0.5-12.3,2.7-17.2 c0.5-0.8,1.6-2.5,2.7-2.3c0.7,0.1,1.2,1.1,1.5,1.7c1,1.9,1.3,4.2,1.5,6.4c0.2,1.5,2.1,1.5,2.3,0c0.3-3.1-0.7-8-3.6-9.8 c-3.6-2.2-6.4,2.8-7.4,5.5c-1.9,4.9-1.8,10.5-1.7,15.8c0.1,6.5,0.1,13,0.3,19.5c0.3,8.2,0.7,16.5,0.7,24.7 C45.4,171.9,47.6,172,47.6,170.5L47.6,170.5z" fill="#202f5a"/></g></g><g><g><g id="change1_15"><path d="M218.9,205.5c3.9-11.1,15.9-13.8,26.2-13.4c12.5-1.6,25.4-1.1,38-0.7c14.9,1.1,29.9,1.3,44.7,3.5 c3.8,0.6,7.7,1.4,11.1,3.2c0.7,0.4,1.4,0.9,2.1,1.4c0.1,0,0.3,0.1,0.5,0.2c3.4,3.4,4.1,9,2.5,13.5c-1.9,5.8-8.2,7.8-13.7,8.6 c-12.6,1.7-25.4,1.3-38,1.8c-12.8,0.7-25.6,0.8-38.4,0.5c-9-0.3-18.2-0.7-26.9-3.2c-1.9-0.7-3.8-1.6-5.2-3 C218.8,214.6,217.8,209.7,218.9,205.5z" fill="#202f5a"/></g><g><g id="change1_5"><path d="M292.8,182.1c0.4-4.4,12.3-4,15.2-6.1c6.3-4.5,0.2-10.1,5.1-14.6c2.8-2.8,7.6-2,9.4,1.1 c3.6,6.9,7,14.1,8.2,21.3c0.1,1.8,1.2,4.3-0.3,5.7c-5.5,3-15.2,2.3-23.3,0.2c-3.9-1-8.1-1.1-11.7-3.2c-1.5-0.7-3-2.2-2.9-3.4 C292.5,182.7,292.6,182.3,292.8,182.1z" fill="#202f5a"/></g><g id="change1_6"><path d="M274.4,168.4C274.4,168.4,274.4,168.4,274.4,168.4c-0.2-0.3-0.3-0.5-0.5-0.8c-0.8-1.5-1.6-3.2-1.1-4.9 c0.7-2.2,2.7-2.7,4.9-2.4c0.1,0,0.2,0,0.4,0c0,0,0,0,0,0.1c2,0.4,4.2,1.5,5.7,2.7c2.8,2.3,6,5.2,6.5,9c0,2-1.1,3-2.7,3.4 c-1.2,0.5-2.7,0.6-4,0.2c-0.8-0.2-1.6-0.5-2.4-0.9c-1.3,4-2.9,5.3-5.6-0.3c-0.6-1-1.1-2.1-1.7-3.1 C273.2,170.4,273.1,168.8,274.4,168.4z M278.1,163.6c-1-0.2-1.4-0.3-1.8-0.3c0,0,0,0.1-0.1,0.1c0,0.7,1.7,3.5,4.2,5.7 c0.1-0.3,0.3-0.6,0.6-0.7c0.6-0.7,1.2-1.4,1.8-2C281.3,165,279.5,163.9,278.1,163.6z M285.6,172.3c1.1,0.3,0.8,0.2,1.4,0.2 c0.1,0,0.2,0,0.3,0c0,0,0,0,0.1,0c0,0,0,0,0,0c0,0,0,0,0,0c0-0.1,0-0.3,0-0.4c-0.2-0.7-0.8-1.7-1.6-2.7 c-0.1,0.9-0.3,1.9-0.5,2.8C285.4,172.2,285.5,172.2,285.6,172.3z" fill="#202f5a"/></g><g id="change3_2"><path d="M223.5,189.6c5.6-17.6,34.6-27.3,38.6-27.6c4.1-0.3,7.6,0.5,11.2,4c3.2,2.7,4.1,5.9,5.5,8.2 c1.1,1.5,2,3.2,3.1,4.7c0,0,0,0,0,0c0.1,0.1,0.1,0.1,0.2,0.2c0.7,0.4,1.3,0.7,2.6,1.1c8.8,2.3,19.2,1.9,29.2,1.7 c7.3-0.1,10.7-0.8,14.7,0.6c7.7,2.6,8.6,8.8,10.5,15.3c0.4,1.1,0.6,2,0.7,2.8c0.1,1.4-1.2,3.7-2.6,4.4 c-6.8,3.3-14.8,3.2-22.2,3.9c-16.4,1.5-71.3,2-79.2,1.3c-2.7-0.2-5.6,0-8.1-1.4C221.6,204.6,221.2,196.7,223.5,189.6z" fill="#ffbe4f"/></g><g id="change4_3"><path d="M229.9,189.9C229.9,189.9,229.9,189.9,229.9,189.9C229.9,189.9,229.9,189.9,229.9,189.9 c0-0.2,0.1-0.4,0.2-0.6c0.9-1,1.8-1,2.5-0.5c0.4,0.1,0.7,0.3,1,0.6c2.1,3.3,1.7,7.9,0.4,10.5c-1.7,2.8-4.4,0.3-4.6-2.1 C228.7,196.2,228.7,191.8,229.9,189.9z" fill="#f66125"/></g></g></g><g id="change1_1"><path d="M322.9,165.3c-0.8-11.1-0.9-22.3-1.6-33.4c-0.4-7.1-0.2-14.5-2.5-21.3c-1.3-3.8-4.9-10-9.9-8.5 c-4.1,1.2-6,6.8-7.2,10.5c-1.4,4.3-3,9.6-2,14.1c0.2,1,1.8,1.1,2.1,0c0.7-3.5,1.2-7,2-10.5c0.8-3.6,1.9-8.8,5-11.2 c4-3.1,7.4,5,8.1,7.6c1.8,6.2,1.7,12.8,2.1,19.2c0.7,11.1,0.8,22.3,1.5,33.4C320.6,166.8,323,166.9,322.9,165.3L322.9,165.3z" fill="#202f5a"/></g></g><g fill="#f75454" id="change2_2"><path d="M15.3,46.6c0,0,7,1.4,9.5,1.5c16.4,0.3,32.8-0.9,49.2-1c60.9-0.3,121.8,0.4,182.6,0.4 c77.1,0,154.2-3.3,231.1-1.2c7.3,0.2,7.2-0.4,7.8-9c0.8-10.6,1.1-21.7,2.3-32.1c-15-0.6-29.7-3.5-44.7-3.5 c-21.3,0-42.4,2.3-63.7,2.3c-59.3,0-118.7-1.1-178-1.1c-27.7,0-55.3,0.9-82.9,1.2C106.8,4.1,15.4,7.3,15.4,7.3L15.3,46.6z"/><path d="M14.8,48.1c13.5,2.8,27.4,1.4,41.1,1c18.2-0.5,36.3-0.2,54.5-0.1c36.4,0.1,72.7,0.5,109.1,0.6 c36.5,0.1,73,0,109.4-0.8c36.3-0.8,72.6-1.7,108.9-1.5c9.1,0,18.2,0.1,27.3,0.3c8.3,0.1,16.8,0.8,25.1,0.5c4-0.1,5.9-1.9,6.4-5.9 c1-7.7,1-15.6,1.6-23.3c0.3-4.4,0.8-8.8,1.4-13.2c0.2-1.3-0.5-2.4-1.9-2.5c-10.2-0.8-20.4-1.9-30.7-2.5C456.8,0,446.5,0,436,0.4 c-10.3,0.4-20.6,1.1-30.9,1.6c-10.4,0.4-20.7,0.3-31.1,0.3c-42.2-0.1-84.4-0.7-126.5-1c-40.2-0.3-80.4,0.5-120.6,1 c-20.1,0.3-40.3,1-60.4,1.6C49.8,4.5,33,4.8,16.2,5.5c-0.3,0-0.6,0-0.8,0c-0.9,0-1.8,0.8-1.8,1.7c-0.1,13.1-0.2,26.1-0.2,39.2 c0,2.4,3.7,2.4,3.7,0c0-13.1,0-26.1,0-39.2c-0.6,0.6-1.2,1.2-1.8,1.7c14.1-0.5,28.2-1,42.3-1.5c21.5-0.7,42.9-1.5,64.4-1.9 c36.7-0.7,73.3-1.4,110-1.2c42,0.2,84,0.7,126.1,1c20.9,0.1,41.8,0.1,62.7-1c10.4-0.6,20.9-1.2,31.4-1.2c10.4,0,20.5,1.5,30.8,2.7 c4.9,0.6,9.9,1.1,14.9,1.2c-0.7-0.7-1.3-1.3-2-2c-0.7,8.6-1,17.1-1.5,25.7c-0.2,3.5-0.4,7.1-0.8,10.6c-0.2,1.3-0.2,2.6-1.5,3 c-2.5,0.8-6.1,0.1-8.6,0.1c-4.5-0.1-8.9-0.2-13.4-0.3c-8.8-0.1-17.6-0.2-26.3-0.3c-35.6-0.1-71.3,0.3-106.9,0.7 c-35.5,0.4-71,0.7-106.5,0.6c-35.7-0.1-71.4-0.4-107.2-0.4c-17.8,0-35.5-0.1-53.3,0.3c-8.8,0.2-17.7,0.9-26.5,1.1 c-7.4,0.2-15.1,0.9-22.4-0.3c-1.7-0.3-3.5-0.6-5.2-1C13.7,44.6,12.8,47.7,14.8,48.1z"/></g><g id="change3_4"><path d="M125.8,28c0.2-8.6,0.6-17.3,0.8-25.9c-20.1,0.3-40.1,1-60.2,1.6c-0.8,0-1.6,0-2.4,0.1c0.1,2.1,0.1,4.3,0.1,6.4 c0,7,0.1,14,0.2,21c0.1,6,0.3,12.1,0.4,18.1c15.2-0.1,30.4-0.1,45.6-0.1c5.1,0,10.3,0.1,15.4,0.1C125.6,42.2,125.7,35.1,125.8,28z" fill="#ffbe4f"/></g><g id="change3_5"><path d="M245.9,47.3c0.1-5.1,0.2-10.1,0.5-15.1c0.4-10.3,0.9-20.6,1.4-30.9c-0.1,0-0.2,0-0.2,0 c-19.3-0.2-38.6-0.1-57.9,0.1c0.5,16.1,0.7,32.2,0.4,48.3c9.8,0,19.7,0.1,29.5,0.1c8.8,0,17.5,0,26.3,0 C245.9,48.9,245.9,48.1,245.9,47.3z" fill="#ffbe4f"/></g><g id="change3_6"><path d="M497.9,3c-10.2-0.8-20.4-1.9-30.7-2.5c-9.2-0.6-18.2-0.6-27.4-0.3c-0.5,15.7-0.8,31.5-1.4,47.2 c8.9,0,17.9,0.1,26.8,0.3c8.4,0.1,16.8,0.8,25.1,0.5c4.1-0.1,6.1-2,6.6-6c1-7.7,1-15.6,1.6-23.3c0.3-4.4,0.8-8.8,1.4-13.1 C500.2,4.3,499.4,3.1,497.9,3z" fill="#ffbe4f"/></g><g id="change3_7"><path d="M369.8,34.9c0.3-10.9,0.4-21.7,0.4-32.6c-19.3,0-38.7-0.2-58.1-0.4c0,0,0,0,0,0.1c0.9,15.6,1.7,31.5,1.2,47.2 c5.2-0.1,10.4-0.1,15.6-0.2c13.4-0.3,26.9-0.6,40.4-0.8C369.6,43.7,369.7,39.3,369.8,34.9z" fill="#ffbe4f"/></g></g></svg>