<?xml version="1.0" encoding="UTF-8" standalone="no"?><svg xmlns="http://www.w3.org/2000/svg" xmlns:xlink="http://www.w3.org/1999/xlink" fill="#202f5a" height="86.4" preserveAspectRatio="xMidYMid meet" version="1" viewBox="-1.5 -1.6 63.9 86.4" width="63.9" zoomAndPan="magnify"><g id="change1_1"><path clip-rule="evenodd" d="M57.78,49.63c1.77-0.48,3.17-1.96,3.46-3.88 c1.04-7.02-1.36-19.92-8.12-30.14c-1.8-2.71-3.89-5.22-6.27-7.42c-0.11-0.11-0.21-0.22-0.33-0.33c-0.2-0.19-0.41-0.36-0.62-0.53 c0,0-0.01,0-0.01-0.01c-0.06-0.05-0.11-0.1-0.17-0.14c0.01,0.01,0.02,0.02,0.03,0.03c-0.17-0.15-0.35-0.28-0.53-0.42l0.01-0.02 L45.2,6.75l0.01,0.03C40.44,2.9,34.6,0.33,27.62,0.04c0.02,0,0.04-0.01,0.06-0.01c-0.03,0-0.05,0.01-0.07,0.01 c-1.84-0.07-3.76-0.01-5.77,0.26c-1.17,0.15-2.37,0.37-3.59,0.64C12.24,2.31,7.22,6.58,3.97,12.71c-2,3.78-3.32,8.28-3.78,13.11 c0,0-0.01,0-0.01,0c-0.02,0.17-0.03,0.33-0.05,0.5c0,0,0.01,0,0.01,0.01c-0.17,1.99-0.18,4.03-0.05,6.1c0,0.01-0.01,0.01-0.01,0.02 c0.01,0.08,0.01,0.16,0.02,0.23c0,0,0.01,0,0.01,0.01c0.07,0.99,0.18,1.99,0.32,2.98c-0.01-0.02-0.01-0.04-0.02-0.06l0.03,0.18 c0-0.01,0-0.01,0.01-0.02c0.23,1.54,0.55,3.08,0.96,4.63c0,0-0.01,0-0.01,0.01c0.04,0.15,0.08,0.3,0.12,0.46 c0,0,0.01-0.01,0.01-0.01c0.15,0.54,0.31,1.07,0.48,1.61C2.02,42.43,2.01,42.42,2,42.4c0.02,0.05,0.04,0.09,0.06,0.14 c0.13,0.38,0.24,0.77,0.38,1.15c0.75,2.1,2.84,3.33,4.97,3.11c-0.12,0.01-0.24,0.03-0.35,0.04c0.4,0.67,0.66,1.45,0.73,2.34 c0.09,1.26-0.32,2.51-0.44,3.73c-0.08,0.82-0.06,1.64,0.11,2.44c-1.93,3.6-1.66,9.08,0.84,14.47c0.43,1.14,0.98,2.3,1.7,3.43 c1.09,1.72,2.38,3.16,3.74,4.27c4.07,3.97,8.91,5.88,12.74,4.89l0,0l0.04-0.01l0,0c0.73-0.19,1.43-0.49,2.08-0.91 c0.77-0.49,1.41-1.13,1.94-1.85c0,0,0,0,0,0c0.34-0.12,0.68-0.25,1-0.41c0.34-0.16,0.67-0.34,0.99-0.54 c1.46-0.93,2.6-2.22,3.41-3.75c0.79,1.61,1.96,2.86,3.49,3.57c0.29,0.13,0.58,0.24,0.88,0.33c0.29,0.09,0.59,0.15,0.9,0.2 c0,0,0,0,0,0c-0.07-0.01-0.13-0.01-0.2-0.02c0.73,1,1.65,1.8,2.77,2.31c4.95,2.3,11.86-1.07,15.25-8.37 c2.77-5.98,2.57-14.1-0.5-17.01c-0.02-0.03-0.03-0.07-0.05-0.09c-0.05-0.06-0.1-0.09-0.17-0.14c0,0.02,0,0.03,0,0.04 c-0.06-0.05-0.12-0.09-0.18-0.14c-0.7-1.3-1.32-3.46-0.37-5.84C57.76,49.72,57.76,49.68,57.78,49.63z M56.43,57.74 c0.01,0.03,0.01,0.07,0.01,0.1c0-0.02-0.01-0.04-0.01-0.05c-0.02-0.12-0.05-0.24-0.07-0.36c0,0,0,0.01,0,0.01 C56.38,57.54,56.41,57.64,56.43,57.74z M10.14,45.57C10.14,45.57,10.15,45.56,10.14,45.57C10.15,45.56,10.15,45.56,10.14,45.57 C10.15,45.57,10.14,45.57,10.14,45.57z M36.75,60.75c-0.19,0.4-0.36,0.8-0.52,1.21c-0.56-1.56-1.32-3.12-2.28-4.62 c-5.12-8-14.07-11.43-19.99-7.65c-0.43,0.27-0.82,0.58-1.19,0.92c-0.03,0.02-0.05,0.05-0.07,0.07c-0.36,0.32-0.68,0.67-0.99,1.05 c0,0,0,0,0,0c-0.07,0.02-0.14,0.05-0.21,0.07c0.16-0.96,0.29-1.93,0.22-2.9c-0.1-1.43-0.52-2.71-1.13-3.82 c-0.06,0.08-0.14,0.15-0.2,0.22c0,0-0.01,0-0.01-0.01c1.09-1.19,1.54-2.88,1.07-4.51c0.01,0.01,0.02,0.02,0.03,0.03 c-0.03-0.1-0.06-0.2-0.1-0.3c0,0,0,0,0,0c0-0.01,0-0.02-0.01-0.02c-0.56-1.56-0.99-3.13-1.3-4.7c0-0.01,0-0.02-0.01-0.03 c-1.34-6.82-0.39-13.56,2.28-18.6c1.86-3.51,4.55-6.17,7.99-6.95c11.71-2.66,19.81,3.06,24.84,10.65 c4.98,7.52,7.19,16.82,6.76,22.47c-0.11-0.45-0.2-0.89-0.23-1.31c0,0.53,0.07,1.11,0.19,1.69c-0.02,0.22-0.04,0.45-0.07,0.66 c-0.27,1.85,0.57,3.59,2,4.59c-0.36,1.09-0.53,2.15-0.54,3.15c0.08,0.06,0.15,0.13,0.22,0.2h0c-0.22-0.19-0.46-0.37-0.7-0.53 c-0.25-0.17-0.51-0.31-0.79-0.44C47.08,49.02,40.23,53.25,36.75,60.75z M61.43,40.69C61.43,40.69,61.43,40.69,61.43,40.69 c0-0.01,0-0.01,0-0.02L61.43,40.69z M5.47,10.2c0,0-0.01,0.01-0.01,0.01l0.02-0.03C5.47,10.19,5.47,10.2,5.47,10.2z" fill="#ffbe4f" fill-rule="evenodd"/></g><g id="change2_1"><path clip-rule="evenodd" d="M10.03,52.49c5.13-3.28,13.45,0.55,18.57,8.55 c5.12,8,5.1,17.17-0.03,20.45c-5.13,3.28-13.45-0.55-18.57-8.55C4.88,64.94,4.9,55.78,10.03,52.49L10.03,52.49z M55.36,54.58 c0.23,0.08,0.44,0.26,0.68,0.27c5.31,0.27,6.36,10.79,2.97,18.1c-3.39,7.3-10.3,10.67-15.25,8.37c-1.11-0.52-2.04-1.31-2.77-2.31 c4.74,0.89,10.57-3.2,13.7-9.94C57.16,63.74,57.28,58.18,55.36,54.58L55.36,54.58z M11.38,40.49c-2.99-8.33-2.31-17.13,0.98-23.33 c1.86-3.51,4.55-6.17,7.99-6.95c11.71-2.66,19.81,3.06,24.84,10.65c5.29,7.99,7.46,18.01,6.65,23.5c-0.39,2.59,1.41,5.01,4,5.4 c2.59,0.38,5.01-1.41,5.4-4c1.04-7.02-1.36-19.92-8.12-30.14C46.6,5.78,36.32-1.6,21.84,0.3c-1.17,0.15-2.37,0.37-3.59,0.64 C12.24,2.31,7.22,6.58,3.97,12.71c-4.37,8.24-5.5,19.92-1.53,30.99c0.89,2.47,3.61,3.75,6.07,2.87 C10.98,45.67,12.27,42.95,11.38,40.49L11.38,40.49z" fill="#f75454" fill-rule="evenodd"/></g><g id="change3_1"><path clip-rule="evenodd" d="M53.3,52.09c0.02-1.19,0.24-2.47,0.76-3.79 c0.4-1.01,1.55-1.51,2.57-1.11c1.02,0.4,1.51,1.55,1.11,2.57c-1.05,2.65-0.18,5.03,0.61,6.25c0.59,0.92,0.32,2.15-0.6,2.73 c-0.35,0.23-0.75,0.33-1.13,0.31C56.35,56.08,55.21,53.57,53.3,52.09L53.3,52.09z M10.6,45.08c-0.53,0.65-1.24,1.18-2.09,1.48 c-0.48,0.17-0.97,0.26-1.46,0.28c0.4,0.68,0.67,1.45,0.73,2.34c0.09,1.26-0.32,2.51-0.44,3.73c-0.13,1.23-0.05,2.45,0.49,3.64 c0.45,1,1.62,1.44,2.62,0.99c1-0.45,1.44-1.62,0.99-2.62c-0.41-0.92-0.15-1.87,0.02-2.83c0.18-1.06,0.35-2.13,0.27-3.2 C11.63,47.46,11.22,46.19,10.6,45.08L10.6,45.08z" fill="#006bcb" fill-rule="evenodd"/></g><g id="change4_1"><path clip-rule="evenodd" d="M24,82.51c-0.02-0.02-0.05-0.05-0.08-0.07c-0.01-0.01-0.03,0.02-0.05,0.03 c0.02,0.04,0.03,0.09,0.06,0.11C23.97,82.61,24,82.58,24,82.51L24,82.51z M26.49,82.4l-0.04,0.01l0.03-0.03L26.49,82.4L26.49,82.4z M25.22,81.02c0.01-0.04,0.03-0.08,0.04-0.12c-0.01-0.02-0.02-0.04-0.03-0.05c-0.01,0.04-0.03,0.08-0.04,0.12 C25.19,80.98,25.21,81.01,25.22,81.02L25.22,81.02z M20.28,80.98c0.03-0.03,0.04-0.08,0.05-0.12c-0.04-0.02-0.07-0.03-0.11-0.05 c-0.01,0.04-0.04,0.09-0.03,0.13C20.2,81,20.24,81.02,20.28,80.98L20.28,80.98z M50.19,80.83c-0.01-0.01-0.05,0.03-0.05,0.04 c0.01,0.04,0.03,0.09,0.04,0.13c0.02-0.03,0.04-0.05,0.07-0.08C50.23,80.88,50.21,80.85,50.19,80.83L50.19,80.83z M45.26,80.93 c0.02-0.01,0.03-0.04,0.04-0.06c-0.01-0.02-0.02-0.05-0.04-0.06c-0.05-0.03-0.09-0.01-0.09,0.06 C45.18,80.95,45.21,80.97,45.26,80.93L45.26,80.93z M22.75,80.94c0.03-0.02,0.07-0.03,0.1-0.05c-0.01-0.02-0.03-0.05-0.03-0.05 c-0.03,0.01-0.06,0.03-0.1,0.05C22.73,80.9,22.74,80.92,22.75,80.94L22.75,80.94z M47.78,80.84c-0.04-0.03-0.07-0.01-0.08,0.05 c0,0.01,0.02,0.05,0.03,0.05c0.03-0.01,0.06-0.04,0.09-0.05C47.8,80.87,47.79,80.84,47.78,80.84L47.78,80.84z M27.72,80.9 c0,0.01,0.03,0.02,0.05,0.02c0.02-0.01,0.03-0.03,0.05-0.04c-0.01-0.02-0.02-0.05-0.04-0.05C27.72,80.82,27.7,80.85,27.72,80.9 L27.72,80.9z M7.71,67.96c-0.02,0.02-0.03,0.06-0.02,0.11c0.01,0.06,0.03,0.12,0.08,0.12c0.42,1.65,1.17,3.39,2.22,5.06 c1.76,2.79,4.06,4.86,6.3,5.92c0.1,0.05,0.19,0.09,0.29,0.13c0.01,0.01,0.01,0.01,0.01,0.01c0,0,0,0,0.01,0 c2.01,0.87,3.95,0.91,5.44-0.03c1.56-1,2.34-2.92,2.33-5.26c-0.02-2.48-0.94-5.43-2.73-8.21c-1.11-1.71-2.42-3.15-3.79-4.24 c0-0.01,0.01-0.01,0.01-0.02c-0.02-0.09-0.08-0.11-0.14-0.1c0,0-0.01,0-0.01,0.01c-0.06-0.05-0.12-0.09-0.18-0.13 c-0.74-0.55-1.5-1-2.25-1.34c-1.62-0.73-3.22-0.98-4.55-0.53c-0.37,0.13-0.71,0.32-1.02,0.55l0,0c-0.67,0.39-1.21,0.95-1.59,1.66 c-0.51,0.93-0.75,2.1-0.76,3.39c-0.01,0.82,0.08,1.7,0.27,2.6C7.66,67.75,7.68,67.85,7.71,67.96L7.71,67.96z M19,63.08 c-0.54-0.56-1.1-1.06-1.67-1.5c-0.71-0.55-1.44-1.01-2.16-1.36c-1.55-0.75-3.08-0.96-4.39-0.63c-0.37,0.09-0.73,0.22-1.07,0.4l0,0 c-0.62,0.43-1.09,1.03-1.43,1.74c-0.45,0.93-0.67,2.05-0.65,3.31c0.01,0.8,0.12,1.65,0.33,2.53c0.41,1.77,1.19,3.66,2.36,5.46 c1.74,2.7,3.99,4.69,6.17,5.7c1.95,0.9,3.85,1.02,5.27,0.1c1.43-0.91,2.12-2.68,2.12-4.83c0-2.26-0.77-4.94-2.28-7.5 c-0.03,0.04-0.07,0.06-0.11,0.04c-0.02-0.01-0.05-0.08-0.05-0.12c-0.01-0.06,0.01-0.1,0.05-0.11c-0.06-0.1-0.12-0.2-0.19-0.3 c-0.66-1.04-1.39-1.98-2.17-2.8c-0.01,0.04-0.02,0.08-0.04,0.09c-0.06,0.02-0.12-0.03-0.13-0.12C18.95,63.16,18.98,63.1,19,63.08 L19,63.08z M23.97,79.36c0.01,0.02,0.03,0.05,0.04,0.05c0.03-0.02,0.06-0.05,0.08-0.07c-0.02-0.03-0.05-0.06-0.07-0.09 C23.98,79.26,23.96,79.3,23.97,79.36L23.97,79.36z M46.55,79.21c-0.06-0.03-0.11-0.02-0.13,0.07c-0.01,0.04,0.03,0.08,0.04,0.12 c0.03-0.02,0.07-0.04,0.1-0.07C46.6,79.28,46.59,79.24,46.55,79.21L46.55,79.21z M26.45,79.31c-0.01,0.07,0.01,0.1,0.05,0.08 c0.01-0.01,0.01-0.04,0.02-0.07c-0.01-0.02-0.02-0.04-0.03-0.07C26.47,79.28,26.45,79.29,26.45,79.31L26.45,79.31z M51.41,79.25 c0,0.04,0.01,0.08,0.02,0.12c0.02-0.02,0.05-0.03,0.07-0.05c-0.01-0.03-0.03-0.07-0.05-0.1C51.43,79.22,51.41,79.23,51.41,79.25 L51.41,79.25z M48.95,79.32c0.02,0.03,0.07,0.05,0.09,0.04c0.03-0.01,0.04-0.07,0.06-0.11c-0.04-0.01-0.07-0.04-0.11-0.04 C48.94,79.21,48.92,79.26,48.95,79.32L48.95,79.32z M19,79.25c0.02,0.02,0.04,0.07,0.06,0.07c0.02,0,0.05-0.04,0.07-0.06 c-0.03-0.02-0.06-0.04-0.09-0.04C19.03,79.21,19.01,79.23,19,79.25L19,79.25z M29.07,79.22c-0.01,0.01-0.03,0.02-0.04,0.04 c0,0.01,0.01,0.04,0.02,0.04c0.04,0.02,0.07,0,0.05-0.06C29.1,79.24,29.08,79.23,29.07,79.22L29.07,79.22z M44.03,79.28 c0.02,0.01,0.03,0.02,0.05,0.03c0.01-0.02,0.01-0.04,0.02-0.06c-0.02-0.01-0.03-0.02-0.05-0.02C44.04,79.23,44.03,79.26,44.03,79.28 L44.03,79.28z M53.97,79.25l-0.04,0.02l0.03,0.03L53.97,79.25L53.97,79.25z M41.51,79.29c0.01,0,0.03-0.01,0.04-0.02 c-0.02,0-0.05-0.01-0.08-0.01C41.48,79.27,41.5,79.29,41.51,79.29L41.51,79.29z M52.75,77.79c-0.01-0.04-0.03-0.08-0.04-0.12 c-0.01,0.02-0.04,0.04-0.04,0.05c0.01,0.04,0.02,0.08,0.03,0.12C52.73,77.82,52.75,77.8,52.75,77.79L52.75,77.79z M47.78,77.6 c-0.05-0.02-0.09-0.01-0.1,0.05c-0.02,0.07-0.02,0.15,0.06,0.16c0.03,0,0.06-0.06,0.08-0.09C47.85,77.67,47.83,77.63,47.78,77.6 L47.78,77.6z M25.32,77.66c-0.03-0.05-0.08-0.05-0.1,0c-0.01,0.04,0.01,0.09,0.01,0.14c0.03-0.02,0.07-0.04,0.09-0.07 C25.33,77.72,25.33,77.67,25.32,77.66L25.32,77.66z M27.7,77.75c0.02,0.06,0.05,0.05,0.06-0.02c0-0.02-0.01-0.04-0.02-0.07 c-0.01,0.01-0.03,0.01-0.04,0.02C27.7,77.71,27.69,77.74,27.7,77.75L27.7,77.75z M22.7,77.63c0,0.04,0.01,0.08,0.02,0.12 c0.02-0.02,0.05-0.04,0.07-0.05c-0.02-0.04-0.03-0.07-0.05-0.1C22.74,77.6,22.7,77.62,22.7,77.63L22.7,77.63z M15.2,77.69 c0,0.02,0.02,0.04,0.03,0.06c0.01-0.01,0.03-0.02,0.04-0.03c0.01-0.02,0-0.05-0.01-0.07C15.22,77.61,15.2,77.63,15.2,77.69 L15.2,77.69z M20.21,77.67c0.01,0.06,0.05,0.08,0.09,0.04c0.02-0.02,0.04-0.05,0.06-0.08c-0.03-0.02-0.07-0.05-0.1-0.05 C20.24,77.58,20.2,77.64,20.21,77.67L20.21,77.67z M50.17,77.64c0.01,0.07,0.04,0.1,0.08,0.07c0.02-0.01,0.04-0.04,0.04-0.06 c0-0.02-0.01-0.05-0.03-0.06C50.22,77.56,50.18,77.58,50.17,77.64L50.17,77.64z M17.8,77.59c-0.05-0.03-0.08-0.01-0.1,0.05 c0,0.02,0.03,0.06,0.04,0.06c0.04-0.01,0.07-0.04,0.1-0.06C17.83,77.63,17.82,77.6,17.8,77.59L17.8,77.59z M55.27,77.63 c-0.01-0.01-0.03-0.02-0.04-0.03c-0.01,0.01-0.03,0.02-0.04,0.03c0,0.01,0.01,0.03,0.02,0.05C55.23,77.67,55.25,77.65,55.27,77.63 L55.27,77.63z M30.33,77.64c-0.01-0.02-0.02-0.05-0.04-0.05c-0.03,0-0.06,0.02-0.09,0.03c0.01,0.02,0.02,0.04,0.03,0.05 C30.27,77.67,30.3,77.66,30.33,77.64L30.33,77.64z M37.41,76.27c0,0,0.25,0.13,0.73,0.22c0.83,0.15,2.31,0.19,4.09-0.34 c0.79-0.24,1.64-0.59,2.52-1.11c1.74-1.03,3.61-2.7,5.36-5.36c0.39-0.61,0.75-1.23,1.08-1.86c1.39-2.7,2.19-5.6,2.37-8.22 c0.06-0.8,0.06-1.57-0.01-2.3c-0.11-1.25-0.39-2.39-0.88-3.32c-0.23-0.44-0.52-0.82-0.83-1.16c0.26,0.37,0.47,0.79,0.66,1.24 c0.4,0.95,0.65,2.05,0.72,3.26c0.04,0.71,0.04,1.47-0.03,2.24c-0.22,2.56-1.06,5.38-2.45,8.01c-0.33,0.62-0.68,1.23-1.06,1.82 c-1.67,2.63-3.45,4.28-5.13,5.31c-0.84,0.52-1.66,0.88-2.42,1.13c-1.72,0.57-3.14,0.54-3.97,0.49 C37.68,76.29,37.41,76.27,37.41,76.27L37.41,76.27z M53.95,76.22C54,76.21,54.02,76.16,54,76.1c-0.01-0.02-0.03-0.04-0.04-0.06 c-0.02,0.04-0.03,0.09-0.05,0.13C53.91,76.19,53.94,76.23,53.95,76.22L53.95,76.22z M14.05,75.98c-0.07,0-0.12,0.04-0.1,0.14 c0.01,0.04,0.05,0.06,0.08,0.09c0.07-0.01,0.12-0.06,0.1-0.15C14.13,76.03,14.08,75.98,14.05,75.98L14.05,75.98z M28.99,76.12 c-0.02-0.03-0.04-0.06-0.07-0.08c0,0-0.04,0.03-0.04,0.04c0.01,0.04,0.02,0.1,0.05,0.12C28.97,76.22,28.99,76.18,28.99,76.12 L28.99,76.12z M21.49,75.99c0,0-0.04,0.02-0.04,0.03c0,0.04,0.01,0.08,0.02,0.12c0.02-0.02,0.05-0.04,0.07-0.05 C21.53,76.05,21.51,76.02,21.49,75.99L21.49,75.99z M26.56,76.01c-0.03,0.01-0.06,0.03-0.09,0.04c0.01,0.02,0.02,0.04,0.03,0.06 c0.03-0.02,0.06-0.03,0.1-0.05C26.58,76.04,26.57,76,26.56,76.01L26.56,76.01z M51.47,76c-0.01,0.01-0.04,0.03-0.04,0.05 c0,0.02,0.02,0.04,0.03,0.06c0.01-0.02,0.03-0.03,0.04-0.05C51.5,76.03,51.49,76.01,51.47,76L51.47,76z M19.03,75.97 c-0.01-0.02-0.02-0.04-0.03-0.05c-0.02,0.03-0.06,0.05-0.06,0.08c0,0.03,0.03,0.06,0.05,0.09C19.03,76.07,19.04,76.03,19.03,75.97 L19.03,75.97z M16.43,76.01c-0.02,0-0.03,0.01-0.05,0.01c0.01,0.02,0.01,0.05,0.02,0.05c0.02,0,0.04-0.01,0.05-0.01 C16.44,76.04,16.43,76.01,16.43,76.01L16.43,76.01z M56.55,76.01c-0.01-0.01-0.03-0.02-0.05-0.02c-0.06,0.01-0.06,0.04-0.01,0.07 c0.01,0.01,0.03,0,0.05-0.01C56.55,76.05,56.55,76.03,56.55,76.01L56.55,76.01z M31.43,76c0,0.01,0.03,0.06,0.04,0.05 c0.05-0.01,0.07-0.06,0.05-0.12c-0.01-0.02-0.03-0.04-0.04-0.06C31.47,75.91,31.44,75.95,31.43,76L31.43,76z M36.23,61.96 c0,0.1-0.01,0.19,0,0.3c0.01,0.06,0.03,0.12,0.04,0.19c0.09,0.36,0.18,0.8,0.28,1.31c0.04,0.18,0.07,0.37,0.11,0.56 c0.21,1.09,0.36,2.41,0.39,3.84c0.01,0.54,0.01,1.09-0.02,1.65c-0.06,1.06-0.24,2.15-0.55,3.25c-0.03,0.12-0.06,0.24-0.1,0.35 c-0.09,0.3-0.2,0.6-0.3,0.9c-0.07,0.21-0.11,0.41-0.18,0.62c0.12-0.17,0.24-0.33,0.34-0.5c0.24-0.42,0.4-0.86,0.56-1.3 c0.55-1.57,0.76-3.16,0.76-4.64c0-0.48-0.03-0.96-0.08-1.41c-0.12-1.22-0.34-2.33-0.59-3.23c-0.16-0.61-0.35-1.12-0.49-1.53 c-0.01-0.04-0.02-0.08-0.04-0.11C36.35,62.11,36.29,62.04,36.23,61.96L36.23,61.96z M15.24,74.38c-0.05,0.02-0.06,0.06-0.04,0.12 c0.03,0.08,0.07,0.12,0.13,0.07c0.03-0.02,0.04-0.08,0.05-0.13C15.35,74.37,15.3,74.35,15.24,74.38L15.24,74.38z M12.81,74.36 c-0.06-0.03-0.11,0.01-0.12,0.09c0,0.04,0.03,0.09,0.05,0.13c0.04-0.03,0.09-0.07,0.14-0.11C12.85,74.43,12.83,74.37,12.81,74.36 L12.81,74.36z M17.77,74.49c-0.02-0.04-0.02-0.11-0.05-0.12c-0.03-0.01-0.1,0.01-0.11,0.04c-0.02,0.08,0.03,0.14,0.08,0.16 C17.72,74.57,17.75,74.52,17.77,74.49L17.77,74.49z M20.23,74.57c0.04,0,0.08-0.08,0.11-0.12c-0.02-0.1-0.05-0.16-0.12-0.15 c-0.02,0.01-0.05,0.07-0.06,0.11C20.16,74.48,20.17,74.57,20.23,74.57L20.23,74.57z M30.25,74.46c-0.01-0.07-0.04-0.09-0.09-0.07 c-0.02,0.01-0.04,0.04-0.04,0.05c0.02,0.04,0.04,0.08,0.07,0.12C30.21,74.53,30.23,74.49,30.25,74.46L30.25,74.46z M55.21,74.38 c-0.01,0-0.04,0.03-0.04,0.04c0,0.04,0.01,0.09,0.02,0.13c0.02-0.02,0.05-0.04,0.07-0.06C55.27,74.44,55.26,74.4,55.21,74.38 L55.21,74.38z M22.74,74.39c-0.02,0.01-0.05,0.03-0.04,0.03c0.01,0.04,0.02,0.08,0.04,0.12c0.01-0.02,0.03-0.03,0.04-0.05 C22.79,74.45,22.78,74.41,22.74,74.39L22.74,74.39z M25.19,74.48c0.01,0.02,0.03,0.05,0.03,0.05c0.03-0.02,0.06-0.05,0.09-0.08 c-0.02-0.03-0.05-0.05-0.07-0.08C25.2,74.38,25.18,74.42,25.19,74.48L25.19,74.48z M52.75,74.44c-0.01-0.02-0.02-0.04-0.03-0.05 c-0.01,0.01-0.04,0.02-0.04,0.04c0,0.02,0.02,0.04,0.03,0.05C52.72,74.47,52.74,74.46,52.75,74.44L52.75,74.44z M27.79,74.39 c-0.02-0.01-0.04-0.01-0.05,0.01c-0.03,0.05-0.02,0.08,0.03,0.08c0.02,0,0.03-0.02,0.05-0.04C27.81,74.43,27.81,74.4,27.79,74.39 L27.79,74.39z M57.67,74.42c0.03,0.02,0.06,0.05,0.09,0.06c0.01,0,0.03-0.05,0.05-0.08c-0.04-0.01-0.07-0.03-0.1-0.04 C57.69,74.36,57.68,74.4,57.67,74.42L57.67,74.42z M19.04,72.88c-0.02-0.04-0.04-0.08-0.05-0.11c-0.02,0.04-0.05,0.07-0.05,0.11 c0,0.04,0.03,0.08,0.05,0.12C19,72.95,19.02,72.92,19.04,72.88L19.04,72.88z M26.52,72.97c0.05-0.03,0.1-0.07,0.09-0.18 c-0.04-0.02-0.1-0.07-0.14-0.06c-0.06,0.02-0.06,0.11-0.04,0.18C26.45,72.97,26.48,72.99,26.52,72.97L26.52,72.97z M14.01,72.98 c0.06,0,0.1-0.06,0.11-0.14c-0.01-0.09-0.06-0.12-0.11-0.1c-0.03,0.01-0.07,0.05-0.07,0.09C13.92,72.9,13.94,72.97,14.01,72.98 L14.01,72.98z M16.63,72.86c-0.02-0.04-0.04-0.09-0.07-0.1c-0.03-0.01-0.1,0.02-0.1,0.05c-0.01,0.09,0.02,0.16,0.1,0.15 C16.58,72.96,16.61,72.89,16.63,72.86L16.63,72.86z M31.51,72.83c-0.01-0.02-0.03-0.05-0.04-0.05c-0.05,0.02-0.06,0.06-0.04,0.12 c0.01,0.02,0.02,0.04,0.04,0.06C31.48,72.91,31.5,72.87,31.51,72.83L31.51,72.83z M21.56,72.75c-0.03-0.01-0.09,0.01-0.1,0.04 c-0.03,0.08,0,0.15,0.07,0.16c0.03,0,0.06-0.05,0.09-0.08C21.63,72.81,21.61,72.75,21.56,72.75L21.56,72.75z M56.52,72.81 c-0.04-0.02-0.07-0.05-0.11-0.05c-0.05,0-0.07,0.06-0.04,0.12c0.02,0.03,0.06,0.05,0.1,0.07C56.49,72.9,56.51,72.85,56.52,72.81 L56.52,72.81z M53.99,72.77c-0.05,0-0.07,0.04-0.05,0.1c0.01,0.02,0.03,0.05,0.04,0.05c0.03-0.02,0.06-0.05,0.09-0.07 C54.03,72.82,54.01,72.79,53.99,72.77L53.99,72.77z M58.91,72.79c0.01,0.04,0.02,0.08,0.03,0.12c0.02-0.02,0.04-0.05,0.07-0.07 c-0.02-0.03-0.03-0.06-0.06-0.08C58.95,72.75,58.91,72.78,58.91,72.79L58.91,72.79z M11.47,72.82c0.03,0.03,0.06,0.05,0.09,0.08 c0.03-0.02,0.06-0.05,0.08-0.07c-0.03-0.02-0.05-0.07-0.08-0.07C11.53,72.75,11.5,72.8,11.47,72.82L11.47,72.82z M29.06,72.81 c0-0.01-0.03-0.02-0.05-0.03c-0.02,0.01-0.04,0.02-0.04,0.04c0,0.02,0.01,0.05,0.02,0.06C29.05,72.89,29.08,72.86,29.06,72.81 L29.06,72.81z M30.31,71.16c-0.06-0.03-0.11,0.01-0.12,0.1c0,0.04,0.02,0.11,0.05,0.12c0.06,0.03,0.11-0.02,0.12-0.1 C30.35,71.24,30.34,71.17,30.31,71.16L30.31,71.16z M17.71,71.22c-0.02,0.09,0.01,0.16,0.08,0.16c0.03,0,0.05-0.06,0.08-0.09 c-0.02-0.04-0.03-0.1-0.06-0.12C17.78,71.13,17.73,71.16,17.71,71.22L17.71,71.22z M20.29,71.31c-0.01-0.04-0.03-0.08-0.04-0.12 c-0.02,0.02-0.06,0.04-0.07,0.07c0,0.04,0.02,0.08,0.03,0.12C20.25,71.35,20.27,71.33,20.29,71.31L20.29,71.31z M10.32,71.12 c-0.03,0-0.09,0.03-0.1,0.06c-0.02,0.08,0.02,0.14,0.07,0.17c0.08,0.04,0.09-0.04,0.11-0.1C10.42,71.16,10.38,71.11,10.32,71.12 L10.32,71.12z M27.75,71.08c-0.06,0.01-0.1,0.08-0.09,0.16c0.01,0.07,0.04,0.16,0.11,0.12c0.05-0.02,0.08-0.09,0.11-0.13 C27.87,71.1,27.81,71.07,27.75,71.08L27.75,71.08z M12.78,71.11c-0.03,0.01-0.08,0.05-0.08,0.08c-0.02,0.09,0.03,0.14,0.09,0.15 c0.07,0.01,0.11-0.04,0.11-0.12C12.89,71.13,12.84,71.09,12.78,71.11L12.78,71.11z M57.76,71.27c0.02-0.06,0.01-0.12-0.04-0.13 c-0.03-0.01-0.07,0.03-0.11,0.05c0.02,0.05,0.02,0.11,0.05,0.13C57.7,71.37,57.74,71.34,57.76,71.27L57.76,71.27z M15.37,71.22 c0.03-0.08-0.03-0.13-0.1-0.15c-0.07,0-0.11,0.07-0.11,0.14c0,0.04,0.04,0.09,0.06,0.13C15.28,71.3,15.35,71.28,15.37,71.22 L15.37,71.22z M22.84,71.14c-0.04-0.01-0.08,0.03-0.11,0.04c0.02,0.04,0.04,0.09,0.06,0.12c0.04,0.05,0.08,0.03,0.1-0.04 C22.9,71.2,22.89,71.15,22.84,71.14L22.84,71.14z M25.3,71.14c-0.03,0-0.06,0.04-0.08,0.06c0.02,0.04,0.04,0.08,0.07,0.1 c0.04,0.04,0.08,0.02,0.09-0.03C25.41,71.18,25.37,71.14,25.3,71.14L25.3,71.14z M55.32,71.22c-0.01-0.02-0.03-0.05-0.04-0.06 c-0.05-0.03-0.09-0.01-0.09,0.05c0,0.07,0.04,0.09,0.09,0.06C55.29,71.26,55.3,71.23,55.32,71.22L55.32,71.22z M19.07,69.55 c-0.07-0.03-0.11,0.02-0.12,0.1c0,0.04,0.02,0.12,0.05,0.12c0.06,0.02,0.11-0.03,0.13-0.11C19.1,69.63,19.09,69.56,19.07,69.55 L19.07,69.55z M58.96,69.78c0.01,0,0.03-0.03,0.05-0.05c-0.02-0.05-0.03-0.09-0.05-0.14c-0.01,0.02-0.03,0.04-0.04,0.06 C58.89,69.72,58.91,69.76,58.96,69.78L58.96,69.78z M29.02,69.52c-0.07-0.01-0.11,0.03-0.1,0.12c0,0.05,0.02,0.12,0.05,0.13 c0.06,0.02,0.11-0.02,0.14-0.09C29.14,69.58,29.07,69.55,29.02,69.52L29.02,69.52z M16.52,69.48c-0.08-0.02-0.11,0.05-0.12,0.13 c0,0.08,0.03,0.15,0.09,0.17c0.08,0,0.13-0.04,0.13-0.14C16.63,69.55,16.59,69.49,16.52,69.48L16.52,69.48z M31.61,69.6 c-0.03-0.03-0.06-0.08-0.09-0.08c-0.07-0.01-0.11,0.05-0.09,0.14c0.01,0.04,0.05,0.09,0.07,0.09C31.57,69.76,31.61,69.7,31.61,69.6 L31.61,69.6z M14.01,69.45c-0.08,0.01-0.14,0.08-0.12,0.2c0.01,0.08,0.07,0.12,0.13,0.11c0.07-0.04,0.15-0.09,0.12-0.21 C14.13,69.5,14.05,69.44,14.01,69.45L14.01,69.45z M9.06,69.67c0.02-0.06,0-0.11-0.05-0.13c-0.06-0.02-0.13-0.02-0.15,0.06 c-0.01,0.08,0.05,0.15,0.11,0.15C9,69.76,9.03,69.7,9.06,69.67L9.06,69.67z M21.5,69.75c0.05-0.01,0.06-0.05,0.04-0.11 c-0.02-0.02-0.05-0.07-0.07-0.06c-0.05,0.01-0.06,0.06-0.04,0.11C21.44,69.72,21.47,69.76,21.5,69.75L21.5,69.75z M11.48,69.5 c-0.06,0.02-0.07,0.11-0.05,0.18c0.02,0.06,0.05,0.08,0.09,0.06c0.06-0.03,0.1-0.07,0.1-0.18C11.58,69.54,11.52,69.48,11.48,69.5 L11.48,69.5z M26.51,69.51c-0.02,0.03-0.06,0.07-0.05,0.11c0.01,0.06,0.05,0.09,0.1,0.06c0.03-0.02,0.06-0.07,0.06-0.1 C26.61,69.51,26.56,69.49,26.51,69.51L26.51,69.51z M24.1,69.59c-0.03-0.03-0.06-0.07-0.09-0.08c-0.03,0-0.06,0.04-0.08,0.06 c0.03,0.03,0.05,0.05,0.08,0.08C24.04,69.64,24.07,69.61,24.1,69.59L24.1,69.59z M56.42,69.59c0.02,0.06,0.04,0.07,0.07,0.03 c0.01-0.01,0-0.03,0-0.05c-0.01-0.01-0.03-0.03-0.03-0.02C56.44,69.55,56.42,69.58,56.42,69.59L56.42,69.59z M20.26,67.9 c-0.06,0.03-0.1,0.1-0.07,0.18c0.02,0.08,0.08,0.11,0.14,0.06c0.03-0.02,0.06-0.08,0.05-0.13C20.38,67.93,20.34,67.89,20.26,67.9 L20.26,67.9z M15.25,68.17c0.09,0.01,0.14-0.07,0.12-0.19c-0.01-0.09-0.07-0.11-0.13-0.12c-0.06,0.02-0.1,0.09-0.09,0.16 C15.17,68.08,15.22,68.16,15.25,68.17L15.25,68.17z M27.76,68.16c0.07-0.02,0.13-0.07,0.1-0.15c-0.02-0.05-0.09-0.08-0.14-0.11 c-0.01,0-0.05,0.07-0.06,0.11C27.66,68.09,27.69,68.16,27.76,68.16L27.76,68.16z M17.72,68.15c0.05,0.03,0.1-0.03,0.13-0.11 c0.03-0.06,0.01-0.1-0.04-0.12c-0.06-0.03-0.12-0.04-0.14,0.04C17.66,68.02,17.69,68.13,17.72,68.15L17.72,68.15z M12.73,68.15 c0.05-0.03,0.09-0.1,0.11-0.17c0.02-0.07-0.01-0.14-0.07-0.18c-0.07-0.02-0.11,0.04-0.13,0.11C12.61,68.02,12.67,68.19,12.73,68.15 L12.73,68.15z M60.21,67.97c-0.01,0.04-0.04,0.09-0.04,0.13c0,0.01,0.02,0.05,0.04,0.05c0.01,0,0.04-0.03,0.04-0.05 C60.24,68.06,60.22,68.02,60.21,67.97L60.21,67.97z M30.17,68.03c0,0.04,0.03,0.08,0.05,0.12c0.03-0.02,0.07-0.04,0.09-0.08 c0.03-0.05,0.02-0.1-0.02-0.13C30.21,67.9,30.17,67.94,30.17,68.03L30.17,68.03z M55.18,67.94l-0.02,0.05l0,0 c0,0.03,0.03,0.08,0.04,0.12c0.03-0.02,0.07-0.04,0.09-0.07c0.03-0.04,0.03-0.09-0.01-0.11C55.24,67.91,55.2,67.91,55.18,67.94 L55.18,67.94z M10.26,68.04c-0.02-0.04-0.02-0.1-0.05-0.11c-0.05-0.03-0.11-0.03-0.12,0.06c0,0.03,0.05,0.07,0.07,0.1 C10.19,68.07,10.23,68.05,10.26,68.04L10.26,68.04z M57.71,68.07c0.01,0,0.03-0.02,0.04-0.04c0.03-0.05,0.02-0.09-0.03-0.11 c-0.05,0-0.07,0.04-0.05,0.1C57.68,68.05,57.69,68.07,57.71,68.07L57.71,68.07z M25.34,67.94c-0.01-0.05-0.01-0.11-0.04-0.14 c-0.05-0.05-0.11-0.03-0.15,0.04c-0.03,0.07-0.03,0.15,0.04,0.18C25.26,68.06,25.31,68.01,25.34,67.94L25.34,67.94z M24.02,66.5 c0.02-0.07,0.03-0.16-0.04-0.18c-0.05-0.02-0.1,0.02-0.14,0.04c-0.02,0.11,0.03,0.16,0.08,0.19C23.97,66.58,24,66.56,24.02,66.5 L24.02,66.5z M28.98,66.55c0.06,0.03,0.1-0.04,0.12-0.11c0.01-0.1-0.04-0.13-0.1-0.13c-0.03,0-0.09,0.05-0.08,0.07 C28.92,66.44,28.94,66.53,28.98,66.55L28.98,66.55z M9,66.55c0.06,0.02,0.12-0.02,0.14-0.1c0.03-0.1-0.03-0.13-0.09-0.16 c-0.07,0-0.11,0.04-0.11,0.13C8.95,66.47,8.97,66.54,9,66.55L9,66.55z M19.01,66.55c0.07,0.01,0.1-0.06,0.12-0.14 c-0.01-0.09-0.05-0.13-0.12-0.11c-0.03,0.01-0.07,0.06-0.08,0.09C18.92,66.46,18.95,66.54,19.01,66.55L19.01,66.55z M16.49,66.29 c-0.06,0.04-0.08,0.1-0.06,0.18c0.01,0.04,0.05,0.08,0.08,0.08c0.07,0,0.11-0.05,0.11-0.14C16.61,66.32,16.55,66.29,16.49,66.29 L16.49,66.29z M14.02,66.23c-0.04-0.03-0.07-0.01-0.09,0.05c-0.03,0.1-0.03,0.19,0.04,0.25c0.09,0.03,0.12-0.06,0.13-0.13 C14.12,66.33,14.08,66.27,14.02,66.23L14.02,66.23z M11.53,66.41c0-0.09-0.03-0.14-0.1-0.12c-0.03,0.04-0.08,0.07-0.08,0.1 c0,0.09,0.06,0.14,0.12,0.14C11.5,66.52,11.53,66.45,11.53,66.41L11.53,66.41z M56.51,66.31c-0.07,0-0.1,0.04-0.09,0.13 c0,0.02,0.02,0.04,0.03,0.06c0.04-0.04,0.08-0.08,0.12-0.12C56.56,66.36,56.53,66.33,56.51,66.31L56.51,66.31z M26.51,66.47 c0.06-0.02,0.1-0.09,0.09-0.17c-0.01-0.08-0.05-0.14-0.11-0.13c-0.08,0.03-0.1,0.1-0.09,0.18C26.4,66.43,26.43,66.51,26.51,66.47 L26.51,66.47z M58.92,66.42c0.01,0.02,0.02,0.05,0.03,0.05c0.01,0,0.03-0.02,0.04-0.04c0.03-0.05,0.02-0.09-0.03-0.1 C58.92,66.33,58.9,66.36,58.92,66.42L58.92,66.42z M30.26,64.72c-0.02,0.01-0.03,0.07-0.05,0.1c0.01,0.09,0.06,0.13,0.12,0.11 c0.02,0,0.05-0.08,0.05-0.11C30.37,64.75,30.32,64.7,30.26,64.72L30.26,64.72z M7.76,64.94c0.07,0.02,0.1-0.05,0.12-0.12 c0.03-0.1-0.04-0.12-0.08-0.15c-0.08-0.03-0.11,0.04-0.12,0.11C7.66,64.86,7.7,64.92,7.76,64.94L7.76,64.94z M25.24,64.93 c0.02-0.01,0.04-0.07,0.06-0.11c0-0.09-0.03-0.15-0.11-0.13c-0.03,0.01-0.07,0.07-0.06,0.1C25.13,64.87,25.16,64.95,25.24,64.93 L25.24,64.93z M20.17,64.77c-0.02,0.08,0.02,0.14,0.08,0.16c0.07,0.01,0.1-0.05,0.13-0.13c0.03-0.1-0.03-0.13-0.08-0.15 C20.22,64.62,20.19,64.7,20.17,64.77L20.17,64.77z M15.27,64.67c-0.03,0.01-0.07,0.06-0.07,0.1c-0.01,0.08,0.02,0.15,0.08,0.16 c0.07,0.01,0.1-0.06,0.11-0.14C15.37,64.7,15.34,64.64,15.27,64.67L15.27,64.67z M22.7,64.85c0.01,0.04,0.06,0.08,0.09,0.08 c0.07-0.01,0.11-0.08,0.09-0.16c-0.01-0.04-0.06-0.05-0.1-0.07C22.71,64.71,22.67,64.77,22.7,64.85L22.7,64.85z M10.28,64.69 c-0.07,0.03-0.09,0.1-0.05,0.17c0.02,0.03,0.07,0.07,0.1,0.06c0.06-0.02,0.09-0.1,0.06-0.18C10.37,64.71,10.31,64.71,10.28,64.69 L10.28,64.69z M17.8,64.7c-0.03,0.02-0.08,0.04-0.09,0.07c-0.01,0.09,0.04,0.15,0.1,0.15c0.02,0,0.07-0.04,0.08-0.08 C17.91,64.74,17.86,64.71,17.8,64.7L17.8,64.7z M27.78,64.91c0.06-0.03,0.09-0.1,0.08-0.19c-0.02-0.08-0.06-0.16-0.13-0.13 c-0.04,0.02-0.06,0.12-0.06,0.19C27.66,64.85,27.69,64.95,27.78,64.91L27.78,64.91z M12.76,64.91c0.02,0,0.05-0.08,0.05-0.11 c0-0.04-0.04-0.07-0.06-0.11c-0.02,0.03-0.06,0.06-0.07,0.1C12.66,64.86,12.69,64.93,12.76,64.91L12.76,64.91z M57.79,64.73 c-0.02-0.01-0.04-0.03-0.05-0.02c-0.06,0.02-0.06,0.06,0,0.09c0.01,0.01,0.04-0.01,0.06-0.02C57.79,64.78,57.79,64.75,57.79,64.73 L57.79,64.73z M60.21,64.79l0.02-0.04l-0.03,0L60.21,64.79L60.21,64.79z M14.01,63.11c-0.03-0.01-0.08,0.04-0.09,0.07 c-0.02,0.08,0,0.15,0.07,0.17c0.03-0.02,0.09-0.04,0.09-0.07C14.11,63.19,14.07,63.12,14.01,63.11L14.01,63.11z M24.04,63.09 c-0.07-0.01-0.11,0.04-0.1,0.13c0,0.04,0.03,0.11,0.05,0.12c0.06,0.03,0.12-0.01,0.14-0.09C24.15,63.16,24.1,63.12,24.04,63.09 L24.04,63.09z M26.47,63.34c0.02-0.06,0.05-0.12,0.07-0.19c-0.03-0.02-0.06-0.04-0.09-0.05c-0.08,0.05-0.05,0.12-0.03,0.19 C26.44,63.31,26.46,63.32,26.47,63.34L26.47,63.34z M11.52,63.08c-0.06,0.03-0.09,0.1-0.06,0.17c0.02,0.07,0.08,0.11,0.14,0.07 c0.02-0.02,0.05-0.08,0.04-0.12C11.63,63.13,11.59,63.07,11.52,63.08L11.52,63.08z M6.55,63.04c-0.05,0.01-0.14,0.05-0.15,0.09 c-0.02,0.12,0.05,0.19,0.14,0.2c0.08,0.01,0.1-0.07,0.12-0.15C6.66,63.09,6.61,63.03,6.55,63.04L6.55,63.04z M9.01,62.96 c-0.08,0.03-0.12,0.11-0.11,0.22C8.9,63.25,8.93,63.32,9,63.33c0.1,0,0.18-0.15,0.14-0.26C9.12,62.99,9.08,62.95,9.01,62.96 L9.01,62.96z M29,63.07c-0.02,0-0.05,0.08-0.05,0.12c0.01,0.08,0.06,0.14,0.13,0.12c0.02-0.01,0.03-0.08,0.05-0.12 C29.11,63.08,29.06,63.06,29,63.07L29,63.07z M21.5,62.98c-0.04,0.02-0.09,0.1-0.1,0.17c-0.02,0.1,0.09,0.19,0.16,0.14 c0.06-0.04,0.09-0.1,0.08-0.19C21.61,63.02,21.57,62.95,21.5,62.98L21.5,62.98z M16.55,63.06c-0.03,0.03-0.08,0.05-0.09,0.08 c-0.02,0.09,0.04,0.15,0.1,0.16c0.03,0,0.07-0.05,0.08-0.08C16.67,63.12,16.61,63.08,16.55,63.06L16.55,63.06z M58.99,63.11 c-0.04,0.03-0.04,0.06,0.01,0.08c0.01,0,0.03-0.01,0.05-0.02c0-0.02,0-0.04-0.01-0.05C59.03,63.11,59,63.1,58.99,63.11L58.99,63.11z M12.83,61.46c-0.08-0.03-0.15,0.02-0.15,0.15c0,0.08,0.03,0.13,0.18,0.17c-0.02,0,0.01-0.07,0.04-0.14 C12.92,61.56,12.88,61.48,12.83,61.46L12.83,61.46z M27.85,61.65c0.01-0.09-0.03-0.15-0.09-0.16c-0.06-0.02-0.11,0.03-0.13,0.11 c-0.02,0.09,0.02,0.14,0.09,0.16C27.78,61.77,27.82,61.73,27.85,61.65L27.85,61.65z M15.34,61.64c0.01-0.09-0.03-0.15-0.09-0.16 c-0.06-0.02-0.12,0.02-0.14,0.09c-0.02,0.09,0.03,0.14,0.09,0.16C15.27,61.76,15.31,61.72,15.34,61.64L15.34,61.64z M25.32,61.47 c-0.06-0.04-0.13,0-0.15,0.07c-0.02,0.08,0.01,0.15,0.07,0.19c0.08,0.01,0.12-0.05,0.13-0.14C25.38,61.56,25.35,61.49,25.32,61.47 L25.32,61.47z M7.77,61.37c-0.08,0.01-0.14,0.09-0.15,0.2c0,0.09,0.05,0.13,0.12,0.15c0.08,0,0.16-0.05,0.17-0.16 C7.92,61.45,7.85,61.37,7.77,61.37L7.77,61.37z M10.22,61.39c-0.04,0.02-0.08,0.13-0.07,0.18c0.01,0.11,0.08,0.19,0.17,0.14 c0.06-0.03,0.08-0.1,0.08-0.19C10.37,61.41,10.31,61.33,10.22,61.39L10.22,61.39z M22.75,61.44c-0.06,0.01-0.11,0.06-0.08,0.15 c0.02,0.07,0.03,0.15,0.11,0.12c0.06-0.02,0.1-0.07,0.09-0.16C22.85,61.48,22.82,61.43,22.75,61.44L22.75,61.44z M20.28,61.43 c-0.03,0-0.08,0.03-0.09,0.06c-0.03,0.07,0,0.15,0.06,0.17c0.06,0.03,0.11-0.02,0.13-0.1C20.4,61.46,20.34,61.44,20.28,61.43 L20.28,61.43z M57.69,61.53c0,0.01,0.01,0.03,0.02,0.05c0.02-0.02,0.04-0.04,0.06-0.06c-0.01-0.01-0.03-0.02-0.05-0.03 C57.72,61.51,57.7,61.52,57.69,61.53L57.69,61.53z M60.2,61.53l0.01,0.04l0.02-0.04L60.2,61.53L60.2,61.53z M14.08,59.84 c-0.08-0.02-0.15,0.01-0.15,0.15c0,0.08,0.03,0.13,0.13,0.15c0.04,0.02,0.07-0.06,0.09-0.13C14.18,59.93,14.13,59.85,14.08,59.84 L14.08,59.84z M6.62,59.83c-0.02-0.04-0.06-0.08-0.09-0.09c-0.1-0.02-0.18,0.11-0.16,0.28c0.03,0.03,0.08,0.11,0.13,0.11 C6.57,60.14,6.66,59.92,6.62,59.83L6.62,59.83z M16.54,60.03c0.01-0.1-0.04-0.14-0.11-0.15c-0.03-0.01-0.09,0.02-0.1,0.05 c-0.02,0.08,0.02,0.15,0.07,0.18C16.46,60.15,16.51,60.11,16.54,60.03L16.54,60.03z M9.01,60.12c0.06,0.01,0.11-0.04,0.13-0.13 c0.02-0.12-0.03-0.19-0.12-0.22c-0.07-0.02-0.1,0.06-0.11,0.13C8.89,60.01,8.91,60.1,9.01,60.12L9.01,60.12z M21.48,60.11 c0.03,0.02,0.1-0.03,0.13-0.05c0.05-0.11,0.02-0.18-0.03-0.22c-0.05-0.04-0.11-0.07-0.15,0.02C21.38,59.96,21.4,60.06,21.48,60.11 L21.48,60.11z M11.54,59.83c-0.07-0.03-0.11,0.04-0.12,0.12c-0.02,0.09,0.03,0.15,0.09,0.16c0.07,0.02,0.1-0.05,0.13-0.12 C11.66,59.88,11.59,59.85,11.54,59.83L11.54,59.83z M23.98,59.85c-0.03,0.01-0.06,0.07-0.06,0.11c-0.01,0.08,0.01,0.15,0.08,0.14 c0.08-0.02,0.13-0.07,0.12-0.16C24.1,59.86,24.04,59.83,23.98,59.85L23.98,59.85z M26.51,59.85c-0.03,0.01-0.07,0.05-0.08,0.09 c-0.02,0.08,0.02,0.15,0.08,0.16c0.07,0.01,0.1-0.05,0.11-0.14C26.62,59.87,26.58,59.82,26.51,59.85L26.51,59.85z M18.97,60 c0.05-0.02,0.12-0.05,0.14-0.11c0.03-0.08-0.02-0.14-0.09-0.17c-0.1,0-0.14,0.09-0.15,0.2C18.87,59.95,18.94,60.01,18.97,60 L18.97,60z M59.03,59.88c-0.04-0.03-0.08-0.01-0.1,0.05c0,0.02,0.02,0.06,0.03,0.06c0.04-0.01,0.07-0.03,0.1-0.05 C59.06,59.92,59.05,59.89,59.03,59.88L59.03,59.88z M56.66,58.97c0.05,0.03,0.05,0.05,0.1,0.06c0.01,0,0.03,0,0.04,0 c0.19-0.01,0.37-0.03,0.54-0.09c0.45-0.14,0.8-0.43,1.05-0.77c0.07-0.09,0.13-0.19,0.17-0.29c0.22-0.48,0.26-1.05,0.09-1.61 c-0.05-0.15-0.09-0.3-0.2-0.43c-0.05-0.06-0.1-0.09-0.17-0.14c0,0.08-0.02,0.13-0.02,0.21c0.01,0.15,0.04,0.29,0.05,0.43 c0.05,0.48-0.04,0.93-0.23,1.32c-0.06,0.12-0.12,0.24-0.19,0.34c-0.17,0.25-0.41,0.46-0.7,0.63c-0.14,0.08-0.28,0.16-0.44,0.22 c-0.01,0.01-0.02,0.01-0.03,0.01C56.69,58.91,56.69,58.93,56.66,58.97L56.66,58.97z M10.27,58.17c-0.08-0.02-0.11,0.06-0.12,0.13 c-0.02,0.12,0.01,0.21,0.12,0.22c0.06,0.01,0.11-0.04,0.13-0.12C10.41,58.27,10.37,58.19,10.27,58.17L10.27,58.17z M7.66,58.26 c-0.03,0.11,0,0.2,0.08,0.24c0.08,0.01,0.12-0.05,0.13-0.12c0.03-0.11-0.01-0.2-0.09-0.24C7.7,58.1,7.68,58.2,7.66,58.26L7.66,58.26 z M15.3,58.24c-0.07-0.02-0.11,0.03-0.12,0.1c-0.01,0.09,0.03,0.14,0.09,0.16c0.07,0.02,0.1-0.04,0.12-0.11 C15.41,58.3,15.35,58.27,15.3,58.24L15.3,58.24z M12.8,58.5c0.06-0.03,0.11-0.08,0.1-0.17c-0.01-0.08-0.05-0.14-0.13-0.12 c-0.06,0.03-0.11,0.07-0.09,0.16C12.7,58.45,12.72,58.54,12.8,58.5L12.8,58.5z M17.68,58.5c0.07,0.02,0.12-0.02,0.14-0.11 c0.03-0.11-0.03-0.14-0.07-0.15c-0.09-0.02-0.15,0-0.17,0.09C17.56,58.42,17.61,58.48,17.68,58.5L17.68,58.5z M22.76,58.24 c-0.03-0.01-0.09,0.04-0.09,0.06c0.01,0.07,0.02,0.17,0.05,0.19c0.05,0.04,0.11-0.02,0.13-0.1C22.88,58.28,22.82,58.26,22.76,58.24 L22.76,58.24z M25.24,58.23c-0.06,0.03-0.08,0.12-0.05,0.19c0.01,0.03,0.06,0.07,0.09,0.06c0.06-0.01,0.1-0.07,0.1-0.17 C25.35,58.24,25.3,58.2,25.24,58.23L25.24,58.23z M20.19,58.45c0.1,0.06,0.13-0.06,0.17-0.14c0.01-0.09-0.01-0.16-0.07-0.19 c-0.1-0.05-0.16,0.04-0.16,0.15C20.12,58.33,20.15,58.43,20.19,58.45L20.19,58.45z M57.18,48.62c-0.05,0.05-0.1,0.08-0.15,0.14 c-0.02,0.02-0.02,0.05-0.04,0.07c-0.15,0.31-0.3,0.64-0.42,0.98c-0.24,0.68-0.38,1.4-0.46,2.13c-0.03,0.31-0.05,0.63-0.05,0.94 c0.02,1.05,0.24,2.1,0.67,3.04c0.13,0.28,0.27,0.57,0.47,0.81c0.09,0.11,0.19,0.19,0.29,0.29c-0.05-0.14-0.08-0.27-0.13-0.41 c-0.07-0.19-0.17-0.38-0.24-0.57c-0.03-0.07-0.05-0.15-0.08-0.23c-0.23-0.67-0.38-1.37-0.44-2.09c-0.03-0.35-0.03-0.71-0.03-1.07 c0-0.84,0.08-1.68,0.26-2.49c0.03-0.12,0.05-0.24,0.08-0.36c0.07-0.29,0.13-0.57,0.22-0.84c0.01-0.04,0.03-0.08,0.04-0.12 C57.2,48.75,57.18,48.7,57.18,48.62L57.18,48.62z M9.93,45.78c0,0.08,0,0.15,0.01,0.24c0,0.03,0.01,0.06,0.02,0.09 c0.12,0.45,0.26,0.91,0.37,1.38c0.11,0.46,0.22,0.92,0.29,1.38c0.1,0.68,0.13,1.37,0.04,2.05c-0.02,0.22-0.07,0.44-0.12,0.66 c-0.12,0.54-0.28,1.07-0.38,1.61c-0.14,0.78-0.19,1.61-0.01,2.39c0.09,0.37,0.21,0.73,0.42,1.04c0.09,0.13,0.2,0.24,0.32,0.36 c-0.07-0.15-0.11-0.29-0.16-0.44c-0.01-0.04-0.03-0.07-0.04-0.11c-0.15-0.41-0.24-0.84-0.27-1.28c-0.04-0.63,0.03-1.27,0.17-1.87 c0.12-0.53,0.32-1.05,0.45-1.58c0.06-0.24,0.1-0.48,0.13-0.73c0.08-0.9-0.04-1.81-0.26-2.7c-0.08-0.31-0.17-0.63-0.27-0.93 c-0.16-0.46-0.3-0.93-0.54-1.34C10.05,45.92,9.99,45.86,9.93,45.78L9.93,45.78z M9.05,56.53c-0.11,0.01-0.12,0.12-0.12,0.23 c-0.01,0.09,0.04,0.15,0.11,0.15c0.07,0.01,0.12-0.05,0.12-0.14C9.17,56.67,9.16,56.57,9.05,56.53L9.05,56.53z M18.98,56.9 c0.07,0.01,0.09-0.08,0.09-0.14c-0.01-0.11-0.06-0.16-0.12-0.16c-0.06,0-0.12,0.05-0.09,0.15C18.89,56.81,18.94,56.89,18.98,56.9 L18.98,56.9z M14.16,56.71c0-0.09-0.05-0.14-0.11-0.16c-0.11-0.02-0.14,0.09-0.15,0.19c-0.01,0.08,0.04,0.14,0.11,0.16 C14.1,56.9,14.15,56.82,14.16,56.71L14.16,56.71z M24.04,56.64c-0.09,0.03-0.11,0.1-0.09,0.17c0.02,0.07,0.08,0.11,0.14,0.07 c0.02-0.02,0.05-0.08,0.04-0.12C24.13,56.69,24.09,56.64,24.04,56.64L24.04,56.64z M11.53,56.61c-0.06,0.01-0.12,0.05-0.09,0.15 c0.02,0.07,0.06,0.14,0.13,0.13c0.06-0.02,0.11-0.06,0.09-0.16C11.64,56.66,11.6,56.6,11.53,56.61L11.53,56.61z M16.55,56.88 c0.06-0.01,0.1-0.07,0.09-0.13c-0.03-0.11-0.09-0.15-0.14-0.12c-0.06,0.03-0.08,0.11-0.04,0.18C16.47,56.85,16.52,56.89,16.55,56.88 L16.55,56.88z M21.5,56.88c0.1,0,0.12-0.1,0.12-0.2c-0.01-0.09-0.05-0.15-0.11-0.16c-0.12-0.01-0.11,0.11-0.11,0.21 C21.41,56.8,21.44,56.88,21.5,56.88L21.5,56.88z M56.4,56.76c0.02,0.06,0.06,0.08,0.1,0.05c0.03-0.03,0.04-0.08,0.06-0.12 c-0.04-0.01-0.07-0.04-0.11-0.04C56.39,56.65,56.38,56.7,56.4,56.76L56.4,56.76z M58.95,56.74c0.01,0,0.03-0.02,0.04-0.04 c-0.01-0.02-0.02-0.05-0.03-0.05c-0.01,0-0.03,0.02-0.04,0.04C58.93,56.71,58.94,56.74,58.95,56.74L58.95,56.74z M7.77,55.35 c0.1,0,0.13-0.1,0.13-0.23c-0.02-0.11-0.08-0.17-0.17-0.16c-0.09,0.01-0.14,0.1-0.13,0.22C7.61,55.32,7.69,55.36,7.77,55.35 L7.77,55.35z M17.8,55.02c-0.08-0.04-0.1,0.04-0.11,0.11c-0.01,0.08,0.03,0.14,0.09,0.16c0.07,0.03,0.1-0.04,0.12-0.11 C17.9,55.08,17.85,55.05,17.8,55.02L17.8,55.02z M12.76,54.99c-0.06,0-0.11,0.03-0.11,0.13c0.01,0.12,0.07,0.17,0.16,0.18 c0.07,0,0.1-0.06,0.11-0.14C12.91,55.03,12.84,54.99,12.76,54.99L12.76,54.99z M20.2,55.28c0.06,0.03,0.12-0.03,0.14-0.1 c0.03-0.1-0.02-0.14-0.08-0.16c-0.08-0.01-0.11,0.05-0.11,0.14C20.15,55.2,20.17,55.27,20.2,55.28L20.2,55.28z M22.77,54.96 c-0.03-0.01-0.08,0.03-0.09,0.06c-0.03,0.1-0.01,0.2,0.07,0.25c0.06,0.04,0.1-0.02,0.13-0.08C22.91,55.05,22.86,54.99,22.77,54.96 L22.77,54.96z M15.29,54.88c-0.09,0-0.16,0.06-0.17,0.17c-0.01,0.11,0.03,0.21,0.13,0.22c0.09,0.01,0.15-0.06,0.17-0.19 C15.41,55,15.4,54.89,15.29,54.88L15.29,54.88z M9.01,53.71c0.09-0.01,0.15-0.08,0.13-0.2c-0.02-0.11-0.09-0.15-0.2-0.13 c-0.05,0.03-0.14,0.06-0.11,0.19C8.85,53.69,8.93,53.73,9.01,53.71L9.01,53.71z M19.04,53.68c0.06-0.03,0.11-0.07,0.1-0.17 c-0.02-0.08-0.05-0.14-0.13-0.12c-0.06,0.02-0.11,0.08-0.09,0.17C18.94,53.63,18.96,53.72,19.04,53.68L19.04,53.68z M11.52,53.69 c0.1-0.01,0.14-0.1,0.14-0.21c-0.02-0.12-0.09-0.18-0.18-0.16c-0.09,0.01-0.15,0.1-0.14,0.22C11.35,53.65,11.43,53.7,11.52,53.69 L11.52,53.69z M16.52,53.31c-0.09,0-0.15,0.09-0.14,0.21c0.01,0.12,0.08,0.19,0.17,0.17c0.07-0.01,0.11-0.07,0.11-0.16 C16.65,53.4,16.6,53.31,16.52,53.31L16.52,53.31z M14.01,53.31c-0.09,0.03-0.15,0.09-0.15,0.21c0.01,0.12,0.09,0.17,0.18,0.15 c0.07-0.01,0.12-0.07,0.12-0.15C14.16,53.39,14.1,53.33,14.01,53.31L14.01,53.31z M17.65,51.89c0.08,0.02,0.16,0.05,0.24,0.08 c-0.02,0.07-0.06,0.11-0.13,0.11c-0.07,0-0.12-0.05-0.11-0.14C17.65,51.92,17.65,51.9,17.65,51.89L17.65,51.89z M15.26,51.69 c-0.09,0.01-0.15,0.1-0.14,0.21c0.01,0.12,0.08,0.19,0.17,0.17c0.07-0.01,0.11-0.07,0.11-0.18C15.4,51.82,15.32,51.68,15.26,51.69 L15.26,51.69z M12.68,52.04c0.13,0.05,0.18-0.09,0.22-0.18c0.01-0.11-0.03-0.18-0.09-0.2c-0.12-0.04-0.2,0.06-0.23,0.2 C12.58,51.91,12.63,52.02,12.68,52.04L12.68,52.04z M55.18,48.72c-0.02,0.06-0.01,0.1,0.04,0.11c0.01,0,0.03-0.02,0.04-0.04 c-0.02-0.04-0.03-0.08-0.05-0.12C55.2,48.69,55.19,48.7,55.18,48.72L55.18,48.72z M57.81,48.65c-0.01-0.02-0.02-0.04-0.03-0.05 c-0.02-0.01-0.04-0.01-0.05,0c-0.03,0.04-0.02,0.07,0.03,0.07C57.78,48.69,57.79,48.67,57.81,48.65L57.81,48.65z M53.91,47.04 c0.01,0.05,0.02,0.09,0.04,0.14c0.01-0.02,0.04-0.03,0.04-0.05c-0.01-0.04-0.02-0.09-0.03-0.13C53.94,47.01,53.91,47.03,53.91,47.04 L53.91,47.04z M56.48,47.06c-0.02-0.05-0.05-0.05-0.06,0.02c0,0.02,0.01,0.04,0.02,0.06c0,0,0.02-0.01,0.03-0.01 C56.48,47.1,56.49,47.08,56.48,47.06L56.48,47.06z M52.77,16.4l-0.05,0.01l0.04,0.03L52.77,16.4c1.03,1.76,1.87,3.48,2.56,5.16 c0.96,2.34,1.62,4.57,2.08,6.61c1.13,4.97,1.06,8.82,0.99,10.33c-0.06,1.18-0.11,3.18-0.61,4.91c-0.33,1.11-0.83,2.11-1.67,2.68 c-1.11,0.76-2,0.65-2.69,0.08c-0.52-0.44-0.91-1.14-1.19-1.9c-0.28-0.74-0.46-1.53-0.52-2.25c0,0.73,0.09,1.56,0.33,2.32 c0.26,0.82,0.67,1.56,1.21,2.04c0.75,0.67,1.76,0.84,3.04,0.01c0.91-0.6,1.48-1.66,1.84-2.85c0.53-1.75,0.61-3.8,0.68-5 c0.09-1.53,0.24-5.44-0.91-10.47c-0.47-2.07-1.17-4.32-2.17-6.67c-1.16-2.74-2.73-5.63-4.86-8.51c-0.48-0.64-0.98-1.29-1.52-1.92 c-0.87-1.04-1.78-2.1-2.84-3.09c-0.26-0.24-0.53-0.46-0.8-0.68c0.23,0.27,0.45,0.54,0.68,0.8c0.96,1.08,1.91,2.1,2.74,3.15 c0.52,0.65,1,1.3,1.46,1.95C51.41,14.19,52.12,15.3,52.77,16.4L52.77,16.4z M21.49,1.78c-0.01,0-0.02,0-0.02,0 c-0.01,0-0.03,0.01-0.04,0.03c-0.98,0.42-1.9,0.88-2.77,1.39c-4.46,2.57-7.54,6.26-9.49,10.63c-1.28,2.84-2.08,5.98-2.46,9.29 c-0.05,0.42-0.09,0.84-0.12,1.27c-0.04-0.02-0.09-0.03-0.14-0.01c-0.05,0.02-0.11,0.06-0.08,0.16c0.04,0.13,0.1,0.2,0.2,0.17 c-0.07,0.92-0.1,1.86-0.11,2.8c-0.07,0.04-0.12,0.13-0.11,0.25c0.01,0.1,0.05,0.14,0.11,0.16c0,0.94,0.03,1.89,0.08,2.84 c-0.01,0-0.01-0.01-0.02-0.01c-0.07,0.04-0.16,0.05-0.17,0.18c-0.02,0.18,0.09,0.23,0.19,0.25c0.01,0,0.02,0,0.03,0 c0.14,2.08,0.4,4.18,0.76,6.3c0.07,0.41,0.18,0.9,0.31,1.43C7.59,38.95,7.58,39,7.57,39.06c0,0.09,0.06,0.18,0.12,0.22 c0.16,0.67,0.32,1.39,0.43,2.11c0.14,0.92,0.19,1.83,0.01,2.58c-0.21,0.87-0.75,1.52-1.84,1.69c-0.23,0.04-0.55,0.05-0.93-0.03 c0.04-0.04,0.06-0.1,0.07-0.17c0-0.1-0.04-0.21-0.14-0.22c-0.12-0.01-0.2,0.08-0.21,0.22c0,0.04,0,0.07,0.01,0.1 c-0.28-0.09-0.59-0.24-0.91-0.46c-0.46-0.32-0.93-0.81-1.42-1.5C2.51,43.24,2.25,42.85,2,42.4c0.19,0.49,0.39,0.91,0.61,1.28 c0.46,0.75,0.96,1.24,1.43,1.58c0.94,0.68,1.8,0.73,2.29,0.66c0.52-0.07,0.93-0.24,1.26-0.49c-0.02,0.11,0.03,0.18,0.11,0.2 c0.11,0.04,0.19,0,0.22-0.11c0.02-0.16-0.02-0.24-0.1-0.28c0,0-0.01,0-0.01,0c0.31-0.32,0.52-0.73,0.64-1.19 c0.5-1.93-0.48-4.92-0.75-6.62c-0.8-4.89-1.01-9.73-0.49-14.25c0.13-1.12,0.3-2.22,0.53-3.29c0.03,0.01,0.06,0.01,0.08,0 c0.1-0.02,0.13-0.12,0.12-0.22c-0.01-0.09-0.04-0.17-0.12-0.21c0.42-1.9,1-3.73,1.75-5.45c1.53-3.47,3.77-6.5,6.86-8.9 c-0.02,0.08-0.01,0.17,0.07,0.21c0.05,0.04,0.11-0.01,0.14-0.08c0.03-0.08,0.01-0.15-0.04-0.19c-0.02-0.01-0.03-0.02-0.05-0.03 c0.71-0.54,1.46-1.06,2.26-1.54c0.83-0.49,1.71-0.95,2.64-1.36c0.01,0,0.02,0,0.04,0c0.03,0,0.06-0.02,0.08-0.06 c1.05-0.46,2.16-0.88,3.34-1.25c0.89-0.28,1.8-0.55,2.76-0.78c-0.98,0.16-1.92,0.35-2.82,0.59C23.67,0.94,22.55,1.33,21.49,1.78 L21.49,1.78z M10.15,45.57c0.09-0.08,0.17-0.17,0.26-0.26c-0.02-0.04-0.04-0.06-0.08-0.08c-0.09-0.04-0.24,0.08-0.23,0.19 C10.1,45.47,10.12,45.53,10.15,45.57L10.15,45.57z M55.24,45.48l-0.03-0.06c-0.01,0.02-0.03,0.04-0.03,0.05 c0.01,0.03,0.03,0.05,0.04,0.07L55.24,45.48L55.24,45.48z M57.68,45.43c0,0.02,0.02,0.03,0.03,0.05c0.01-0.01,0.03-0.03,0.03-0.04 c0-0.01-0.02-0.03-0.03-0.05C57.7,45.4,57.68,45.41,57.68,45.43L57.68,45.43z M4.15,43.89c0.01-0.13-0.08-0.16-0.15-0.18 c-0.08-0.02-0.16,0-0.21,0.09c-0.04,0.08,0.08,0.24,0.18,0.24C4.05,44.05,4.12,44.02,4.15,43.89L4.15,43.89z M9.01,43.61 c-0.09,0-0.16,0.07-0.16,0.19c0,0.16,0.07,0.23,0.19,0.24c0.1-0.01,0.14-0.11,0.13-0.22C9.16,43.7,9.1,43.61,9.01,43.61L9.01,43.61z M6.41,44.01c0.1,0.08,0.25-0.06,0.28-0.23c-0.03-0.05-0.05-0.14-0.09-0.17c-0.1-0.07-0.27,0.05-0.27,0.21 C6.33,43.88,6.36,43.98,6.41,44.01L6.41,44.01z M54.02,43.79c-0.05-0.02-0.08,0-0.09,0.07c0,0.05,0.01,0.09,0.02,0.14 c0.03-0.03,0.07-0.05,0.09-0.08C54.08,43.87,54.06,43.82,54.02,43.79L54.02,43.79z M56.55,43.93l0.04,0l-0.02-0.06L56.55,43.93 L56.55,43.93z M58.96,43.78l-0.02,0.04l0.03,0.01L58.96,43.78L58.96,43.78z M2.79,42.01c-0.1,0-0.19,0.14-0.18,0.27 c0.01,0.13,0.1,0.17,0.17,0.18c0.08,0.01,0.16-0.03,0.17-0.17C2.96,42.14,2.89,42.05,2.79,42.01L2.79,42.01z M10.33,42.43 c0.06-0.03,0.1-0.09,0.09-0.18c-0.01-0.14-0.06-0.25-0.19-0.24c-0.1,0.03-0.13,0.12-0.13,0.23C10.11,42.37,10.24,42.47,10.33,42.43 L10.33,42.43z M5.08,42.26c0.02,0.12,0.09,0.16,0.18,0.17c0.06-0.04,0.15-0.06,0.14-0.2c-0.01-0.13-0.1-0.16-0.17-0.15 C5.15,42.08,5.06,42.11,5.08,42.26L5.08,42.26z M7.74,41.98c-0.09,0.01-0.15,0.1-0.15,0.21c-0.01,0.11,0.04,0.22,0.13,0.23 c0.12,0,0.17-0.11,0.18-0.25C7.9,42.03,7.83,41.97,7.74,41.98L7.74,41.98z M52.73,42.15c-0.05,0.01-0.07,0.05-0.05,0.11 c0.01,0.02,0.03,0.05,0.04,0.05c0.01,0,0.03-0.02,0.05-0.04C52.79,42.21,52.78,42.17,52.73,42.15L52.73,42.15z M55.26,42.18 c-0.01,0-0.04,0.02-0.04,0.04c-0.02,0.06,0,0.1,0.04,0.1c0.03,0,0.05-0.05,0.08-0.08C55.31,42.22,55.28,42.19,55.26,42.18 L55.26,42.18z M60.22,42.17l-0.03,0.05l0.04,0.01L60.22,42.17L60.22,42.17z M1.41,40.4c0.04,0.15,0.08,0.3,0.12,0.46 c0.11-0.01,0.21-0.15,0.2-0.3c-0.03-0.13-0.09-0.23-0.21-0.21C1.48,40.35,1.44,40.37,1.41,40.4L1.41,40.4z M4.04,40.83 c0.07,0.02,0.11-0.03,0.14-0.11c0.03-0.13-0.06-0.28-0.16-0.28c-0.07,0-0.1,0.07-0.11,0.15C3.9,40.72,3.94,40.8,4.04,40.83 L4.04,40.83z M6.48,40.82c0.08,0.01,0.16-0.03,0.16-0.15c0.01-0.16-0.08-0.22-0.17-0.26c-0.09,0.02-0.15,0.09-0.14,0.2 C6.34,40.72,6.4,40.81,6.48,40.82L6.48,40.82z M9.05,40.36c-0.09-0.02-0.14,0.06-0.17,0.17c-0.04,0.14,0,0.25,0.06,0.28 c0.16,0.05,0.2-0.03,0.22-0.14C9.18,40.54,9.18,40.4,9.05,40.36L9.05,40.36z M11.39,40.5c-0.03,0.03-0.04,0.07-0.03,0.11 c0.02,0.09,0.06,0.16,0.12,0.19C11.46,40.71,11.42,40.61,11.39,40.5L11.39,40.5z M54,40.71c0.03-0.03,0.03-0.08,0.05-0.12 c-0.03-0.02-0.07-0.04-0.1-0.06c-0.01,0.04-0.03,0.08-0.03,0.13C53.92,40.73,53.96,40.75,54,40.71L54,40.71z M56.52,40.54 c-0.03,0-0.07,0.03-0.1,0.04c0.01,0.05,0.03,0.09,0.04,0.14c0.03-0.02,0.08-0.04,0.1-0.07C56.59,40.6,56.57,40.55,56.52,40.54 L56.52,40.54z M61.43,40.68c0,0,0,0.01,0,0.01c0,0,0,0,0,0L61.43,40.68L61.43,40.68z M59.03,40.61c0-0.02,0-0.04-0.01-0.05 c-0.01-0.01-0.04-0.02-0.05-0.01c-0.04,0.03-0.04,0.07,0.02,0.08C59,40.63,59.02,40.61,59.03,40.61L59.03,40.61z M5.43,39.09 c0.01-0.16-0.06-0.27-0.16-0.3c-0.09-0.03-0.15,0.08-0.14,0.19c0.01,0.14,0.07,0.25,0.19,0.25C5.39,39.24,5.42,39.17,5.43,39.09 L5.43,39.09z M2.81,38.73c-0.13-0.02-0.24,0.13-0.23,0.29c0.01,0.13,0.08,0.17,0.17,0.19c0.14,0,0.25-0.14,0.23-0.29 C2.96,38.81,2.9,38.74,2.81,38.73L2.81,38.73z M10.43,39.03c0-0.14-0.03-0.26-0.15-0.27c-0.08,0-0.15,0.08-0.16,0.19 c-0.02,0.15,0.06,0.24,0.16,0.26C10.36,39.22,10.42,39.15,10.43,39.03L10.43,39.03z M60.23,39c0-0.01-0.02-0.02-0.04-0.02 c-0.01,0.02-0.02,0.05-0.01,0.06C60.2,39.09,60.22,39.07,60.23,39L60.23,39z M55.16,38.98c0,0.02,0.02,0.04,0.04,0.06 c0.01-0.02,0.03-0.04,0.05-0.05c-0.01-0.02-0.03-0.04-0.04-0.06C55.19,38.94,55.16,38.96,55.16,38.98L55.16,38.98z M57.71,38.94 c-0.01,0-0.03,0.02-0.04,0.04c0.01,0.02,0.02,0.04,0.03,0.05c0.01,0,0.03-0.02,0.04-0.04C57.73,38.97,57.73,38.94,57.71,38.94 L57.71,38.94z M52.76,38.95c-0.02,0-0.03,0.02-0.05,0.03c0.01,0.01,0.03,0.03,0.04,0.04c0.02,0,0.03-0.02,0.05-0.03 C52.79,38.98,52.77,38.95,52.76,38.95L52.76,38.95z M6.5,37.67c0.12,0.01,0.18-0.09,0.19-0.24c0.01-0.15-0.08-0.29-0.17-0.26 c-0.11,0.03-0.17,0.14-0.17,0.29C6.36,37.56,6.41,37.66,6.5,37.67L6.5,37.67z M8.93,37.64c0.13,0.06,0.23-0.02,0.26-0.2 c0.02-0.11-0.02-0.24-0.09-0.25c-0.13-0.03-0.23,0.07-0.28,0.22C8.78,37.53,8.85,37.6,8.93,37.64L8.93,37.64z M1.47,37.63 c0.13,0.02,0.26-0.1,0.26-0.24c-0.03-0.13-0.07-0.24-0.19-0.24c-0.13,0-0.22,0.12-0.22,0.29C1.32,37.56,1.39,37.61,1.47,37.63 L1.47,37.63z M4.08,37.14c-0.11-0.03-0.21,0.04-0.23,0.19c-0.03,0.16,0.06,0.23,0.16,0.27c0.13,0.01,0.2-0.08,0.21-0.23 C4.22,37.27,4.17,37.16,4.08,37.14L4.08,37.14z M58.97,37.45c0.01-0.02,0.01-0.04,0.02-0.06c-0.01-0.02-0.01-0.04-0.03-0.05 c-0.01,0-0.03,0.02-0.04,0.02C58.94,37.39,58.95,37.42,58.97,37.45L58.97,37.45z M53.96,37.43c0.03-0.01,0.06-0.03,0.09-0.05 c-0.01-0.02-0.02-0.04-0.04-0.05c-0.04-0.03-0.07-0.01-0.08,0.05C53.93,37.39,53.96,37.43,53.96,37.43L53.96,37.43z M56.45,37.41 c0.01,0,0.04-0.03,0.04-0.05c0-0.02-0.02-0.04-0.04-0.06C56.4,37.33,56.4,37.37,56.45,37.41L56.45,37.41z M7.78,35.54 c-0.11,0.01-0.18,0.12-0.18,0.27c0,0.12,0.07,0.19,0.15,0.21c0.12,0.02,0.19-0.06,0.2-0.21C7.94,35.66,7.9,35.53,7.78,35.54 L7.78,35.54z M5.27,35.53c-0.09,0.01-0.15,0.12-0.16,0.25c-0.01,0.15,0.06,0.24,0.18,0.24c0.12,0.01,0.19-0.1,0.19-0.24 C5.48,35.64,5.43,35.53,5.27,35.53L5.27,35.53z M2.58,35.81C2.6,35.97,2.69,36.02,2.81,36c0.1-0.02,0.14-0.12,0.13-0.23 c-0.01-0.14-0.07-0.25-0.21-0.24C2.62,35.56,2.56,35.66,2.58,35.81L2.58,35.81z M10.08,35.75c-0.02,0.03-0.02,0.07-0.02,0.12 c0,0.06,0.03,0.1,0.07,0.12C10.11,35.91,10.09,35.83,10.08,35.75L10.08,35.75z M52.67,35.81c0.01,0.02,0.03,0.05,0.03,0.05 c0.03-0.02,0.06-0.05,0.09-0.08c-0.02-0.03-0.05-0.05-0.07-0.08C52.67,35.71,52.66,35.75,52.67,35.81L52.67,35.81z M55.2,35.77 c0.04,0.02,0.07,0.04,0.1,0.04c0.01,0,0.03-0.03,0.04-0.04c-0.02-0.02-0.05-0.06-0.07-0.07C55.25,35.7,55.22,35.74,55.2,35.77 L55.2,35.77z M0.43,35.61l0.03,0.18c0-0.01,0.01-0.03,0.01-0.04C0.46,35.69,0.45,35.64,0.43,35.61L0.43,35.61z M57.71,35.78l0-0.05 l-0.04,0.02L57.71,35.78L57.71,35.78z M1.5,33.91c-0.11,0.02-0.18,0.12-0.17,0.27c0,0.15,0.07,0.25,0.18,0.25 c0.11,0,0.19-0.19,0.16-0.36C1.66,33.93,1.58,33.91,1.5,33.91L1.5,33.91z M6.56,33.89c-0.1-0.02-0.15,0.05-0.19,0.14 c-0.06,0.13,0.02,0.35,0.13,0.37c0.11,0.02,0.2-0.03,0.24-0.19C6.77,34.09,6.68,33.92,6.56,33.89L6.56,33.89z M9.19,34.19 c-0.01-0.13-0.07-0.24-0.2-0.22c-0.09,0.01-0.14,0.11-0.14,0.21c0.01,0.15,0.09,0.21,0.24,0.21C9.16,34.39,9.2,34.3,9.19,34.19 L9.19,34.19z M4,33.92c-0.1,0-0.19,0.14-0.17,0.27c0.03,0.15,0.11,0.21,0.22,0.2c0.1-0.01,0.12-0.11,0.14-0.21 C4.19,34.04,4.1,33.92,4,33.92L4,33.92z M54.02,34.09c-0.03,0-0.08,0.01-0.09,0.04c-0.02,0.06-0.02,0.14,0.05,0.15 c0.02,0,0.05-0.05,0.08-0.08C54.08,34.14,54.07,34.1,54.02,34.09L54.02,34.09z M51.51,34.2c0.02,0.01,0.04,0,0.05-0.01 c0.01-0.01,0-0.03,0-0.05c-0.02-0.01-0.04-0.02-0.05-0.02C51.45,34.13,51.44,34.17,51.51,34.2L51.51,34.2z M58.98,34.17l-0.02-0.06 l-0.03,0.05L58.98,34.17L58.98,34.17z M56.54,34.13c-0.01-0.01-0.03-0.02-0.04-0.02c0,0-0.01,0.02-0.02,0.03 c0.01,0.01,0.03,0.01,0.04,0.01C56.53,34.17,56.54,34.14,56.54,34.13L56.54,34.13z M2.77,32.86c0.15-0.01,0.17-0.18,0.18-0.33 c0-0.15-0.05-0.28-0.17-0.25c-0.13,0.03-0.2,0.15-0.2,0.33C2.59,32.75,2.66,32.87,2.77,32.86L2.77,32.86z M5.36,32.78 c0.06-0.01,0.11-0.07,0.1-0.12c-0.04-0.23-0.11-0.35-0.26-0.33c-0.1,0.01-0.14,0.12-0.13,0.23C5.11,32.74,5.22,32.82,5.36,32.78 L5.36,32.78z M7.76,32.29c-0.12,0.01-0.19,0.12-0.19,0.27c0,0.16,0.08,0.24,0.16,0.23c0.17-0.02,0.24-0.12,0.23-0.26 C7.97,32.38,7.89,32.28,7.76,32.29L7.76,32.29z M0.09,32.44c0.01,0.08,0.01,0.15,0.02,0.23c0.03,0.06,0.08,0.09,0.14,0.1 c0.08,0.01,0.16-0.03,0.16-0.17c0-0.15-0.08-0.22-0.18-0.27C0.17,32.34,0.12,32.37,0.09,32.44L0.09,32.44z M55.25,32.6 c0-0.02-0.03-0.04-0.06-0.07c-0.01,0.05-0.02,0.09-0.02,0.13c0,0.02,0.02,0.04,0.03,0.05C55.22,32.68,55.24,32.64,55.25,32.6 L55.25,32.6z M52.74,32.58c0.03,0,0.05-0.04,0.08-0.07c-0.03-0.02-0.07-0.04-0.1-0.05c-0.01,0-0.03,0.03-0.04,0.04 C52.7,32.54,52.73,32.59,52.74,32.58L52.74,32.58z M60.24,32.54c0-0.02-0.02-0.03-0.03-0.05c-0.01,0.01-0.03,0.03-0.03,0.04 c0,0.01,0.02,0.03,0.03,0.05C60.22,32.57,60.24,32.55,60.24,32.54L60.24,32.54z M1.58,30.73c-0.1-0.04-0.25,0.1-0.26,0.25 c-0.02,0.15,0.05,0.24,0.15,0.28c0.14,0.03,0.19-0.08,0.22-0.21C1.72,30.9,1.7,30.78,1.58,30.73L1.58,30.73z M4.05,30.67 c-0.12-0.01-0.23,0.13-0.23,0.29c0.01,0.16,0.09,0.23,0.2,0.24c0.12,0.01,0.17-0.09,0.19-0.26C4.21,30.8,4.14,30.68,4.05,30.67 L4.05,30.67z M9.03,30.68c-0.12,0.01-0.19,0.11-0.2,0.24c0,0.14,0.08,0.23,0.2,0.22c0.12-0.01,0.17-0.1,0.21-0.23 C9.2,30.78,9.15,30.67,9.03,30.68L9.03,30.68z M53.94,31.05c0.02-0.03,0.05-0.06,0.06-0.09c0-0.02-0.04-0.05-0.06-0.07 c-0.01,0.04-0.03,0.07-0.03,0.11C53.91,31.01,53.93,31.03,53.94,31.05L53.94,31.05z M51.55,30.92c-0.03-0.02-0.06-0.04-0.09-0.05 c-0.01,0-0.03,0.04-0.03,0.04c0.01,0.03,0.03,0.06,0.05,0.08C51.5,30.97,51.52,30.94,51.55,30.92L51.55,30.92z M0.25,29.67 c0.11,0.03,0.24-0.14,0.24-0.3c-0.01-0.14-0.07-0.24-0.18-0.28c-0.12-0.04-0.23,0.11-0.23,0.29C0.08,29.53,0.15,29.63,0.25,29.67 L0.25,29.67z M2.79,29.06c-0.05,0.04-0.12,0.08-0.18,0.15c-0.06,0.07-0.1,0.17-0.05,0.28c0.06,0.12,0.16,0.19,0.26,0.14 c0.12-0.06,0.2-0.19,0.17-0.38C2.98,29.14,2.91,29.09,2.79,29.06L2.79,29.06z M5.22,29.57c0.13,0.03,0.25-0.11,0.24-0.27 c-0.01-0.12-0.07-0.18-0.16-0.21c-0.13-0.01-0.24,0.12-0.24,0.28C5.06,29.5,5.14,29.56,5.22,29.57L5.22,29.57z M7.76,29.11 c-0.08,0-0.15,0.07-0.17,0.18c-0.02,0.12,0.06,0.25,0.17,0.24c0.08,0,0.16-0.03,0.17-0.15C7.94,29.22,7.87,29.12,7.76,29.11 L7.76,29.11z M55.23,29.4L55.2,29.4l0.01,0.05L55.23,29.4L55.23,29.4z M52.73,29.26c-0.01,0-0.04,0.01-0.04,0.02 c0,0.04-0.01,0.08,0.01,0.11c0.02,0.04,0.05,0.02,0.07-0.03C52.79,29.31,52.78,29.27,52.73,29.26L52.73,29.26z M50.25,29.31 c0-0.01-0.02-0.04-0.04-0.05c-0.01,0.02-0.04,0.04-0.04,0.05C50.19,29.37,50.22,29.37,50.25,29.31L50.25,29.31z M1.51,27.46 c-0.12,0.01-0.18,0.1-0.19,0.24c-0.01,0.18,0.07,0.32,0.19,0.33c0.12,0.01,0.24-0.14,0.24-0.29C1.74,27.59,1.63,27.45,1.51,27.46 L1.51,27.46z M4.17,27.53c-0.1-0.05-0.2,0.01-0.29,0.08c-0.04,0.04-0.09,0.11-0.09,0.18C3.78,27.9,3.85,27.97,3.93,28 c0.15,0.06,0.28-0.03,0.34-0.22C4.3,27.65,4.25,27.57,4.17,27.53L4.17,27.53z M9.01,27.5c-0.09-0.01-0.16,0.04-0.18,0.17 c-0.01,0.12,0.04,0.2,0.12,0.24c0.09,0.04,0.16,0,0.2-0.12C9.19,27.67,9.12,27.5,9.01,27.5L9.01,27.5z M48.99,27.64 c-0.01,0-0.05,0.04-0.04,0.05c0.01,0.06,0.05,0.08,0.1,0.06c0.02-0.02,0.03-0.03,0.05-0.05C49.06,27.68,49.03,27.66,48.99,27.64 L48.99,27.64z M51.46,27.75c0.01,0,0.04-0.03,0.04-0.05c0-0.02-0.02-0.04-0.03-0.06C51.41,27.68,51.4,27.71,51.46,27.75L51.46,27.75 z M0.18,25.81c-0.02,0.17-0.03,0.33-0.05,0.5c0.03,0.04,0.08,0.07,0.13,0.09c0.11,0.02,0.25-0.13,0.25-0.28 c0-0.18-0.08-0.29-0.22-0.33C0.26,25.78,0.22,25.79,0.18,25.81L0.18,25.81z M2.74,25.88c-0.12,0.03-0.16,0.11-0.16,0.23 c0,0.17,0.11,0.31,0.24,0.28c0.09-0.02,0.14-0.11,0.14-0.22C2.96,25.98,2.84,25.85,2.74,25.88L2.74,25.88z M5.22,25.97 c-0.08,0.01-0.17,0.06-0.14,0.2c0.03,0.16,0.13,0.2,0.23,0.17c0.08-0.02,0.15-0.08,0.15-0.24C5.42,25.98,5.32,25.95,5.22,25.97 L5.22,25.97z M7.74,26.32c0.1-0.05,0.18-0.13,0.18-0.28c0-0.13-0.09-0.18-0.17-0.17c-0.11,0.01-0.18,0.1-0.18,0.26 C7.58,26.26,7.65,26.29,7.74,26.32L7.74,26.32z M52.71,26.2c0.02-0.04,0.04-0.07,0.06-0.11c-0.02-0.02-0.05-0.04-0.07-0.06 c-0.01,0.04-0.02,0.08-0.03,0.12C52.67,26.17,52.7,26.18,52.71,26.2L52.71,26.2z M50.23,26.04c-0.01,0-0.04,0.03-0.04,0.05 c0,0.02,0.03,0.05,0.04,0.05c0.03-0.01,0.07-0.03,0.1-0.05C50.3,26.07,50.27,26.05,50.23,26.04L50.23,26.04z M1.55,24.18 c-0.13-0.02-0.23,0.1-0.24,0.28C1.3,24.62,1.4,24.81,1.5,24.79c0.13-0.02,0.23-0.11,0.26-0.29C1.79,24.36,1.68,24.2,1.55,24.18 L1.55,24.18z M3.99,24.29c-0.04,0.04-0.11,0.07-0.12,0.13C3.83,24.56,3.9,24.67,4,24.73c0.06,0.03,0.12,0.03,0.16-0.06 C4.21,24.54,4.13,24.33,3.99,24.29L3.99,24.29z M9.06,24.24c-0.11-0.04-0.24,0.1-0.23,0.27c0,0.11,0.05,0.19,0.14,0.22 c0.12,0,0.18-0.11,0.19-0.24C9.18,24.37,9.16,24.27,9.06,24.24L9.06,24.24z M49,24.61c-0.01-0.05-0.03-0.1-0.04-0.14 c-0.01,0.02-0.04,0.04-0.04,0.05c0.01,0.05,0.02,0.09,0.04,0.14C48.97,24.64,48.99,24.62,49,24.61L49,24.61z M53.96,24.53 c0.01-0.01,0.03-0.03,0.03-0.04c0-0.02-0.02-0.03-0.03-0.05c-0.01,0.01-0.03,0.03-0.03,0.04C53.93,24.49,53.95,24.51,53.96,24.53 L53.96,24.53z M51.49,24.53c0.01,0,0.03-0.02,0.05-0.03c0-0.02,0-0.05-0.01-0.05c-0.01-0.01-0.04-0.02-0.05-0.02 C51.43,24.47,51.43,24.51,51.49,24.53L51.49,24.53z M7.79,22.69c-0.11,0.02-0.18,0.12-0.18,0.27c0,0.12,0.07,0.21,0.15,0.2 c0.11-0.01,0.17-0.12,0.18-0.27C7.91,22.78,7.89,22.67,7.79,22.69L7.79,22.69z M5.24,22.7c-0.09,0.01-0.14,0.07-0.14,0.15 c0,0.15,0.07,0.23,0.17,0.27c0.07,0.02,0.12-0.04,0.13-0.11C5.44,22.86,5.33,22.7,5.24,22.7L5.24,22.7z M3,22.85 c-0.01-0.14-0.08-0.24-0.22-0.26c-0.1,0-0.21,0.14-0.2,0.31c0,0.13,0.08,0.19,0.16,0.2C2.85,23.13,3.01,22.98,3,22.85L3,22.85z M10.2,23.08l0.03-0.14c0.01-0.06,0.03-0.12,0.04-0.17l0.03-0.12c-0.01-0.01-0.03-0.01-0.04-0.01c-0.1,0.04-0.18,0.12-0.17,0.27 C10.1,23,10.14,23.06,10.2,23.08L10.2,23.08z M50.2,23.01c0.01-0.04,0.03-0.09,0.04-0.13c0-0.01-0.03-0.05-0.04-0.05 c-0.01,0-0.04,0.03-0.04,0.05C50.17,22.92,50.19,22.97,50.2,23.01L50.2,23.01z M47.66,22.85c0.01,0.04,0.03,0.09,0.05,0.13 c0.01-0.02,0.03-0.04,0.04-0.05c0.02-0.06,0.01-0.11-0.05-0.12C47.69,22.81,47.66,22.84,47.66,22.85L47.66,22.85z M55.17,22.86 l0.04,0.03l0-0.06L55.17,22.86L55.17,22.86z M9.07,21.05c-0.15,0-0.22,0.14-0.24,0.31c-0.01,0.11,0.05,0.19,0.15,0.22 c0.12,0.01,0.22-0.11,0.22-0.3C9.2,21.17,9.18,21.05,9.07,21.05L9.07,21.05z M6.69,21.36c0.02-0.15-0.04-0.25-0.15-0.29 c-0.1,0-0.16,0.08-0.18,0.18c-0.02,0.14,0.04,0.26,0.16,0.29C6.61,21.55,6.68,21.47,6.69,21.36L6.69,21.36z M1.56,21.03 c-0.12-0.03-0.25,0.1-0.25,0.26c0,0.15,0.07,0.23,0.19,0.23c0.11,0,0.19-0.05,0.21-0.19C1.73,21.19,1.66,21.06,1.56,21.03 L1.56,21.03z M4.05,21.01c-0.12,0-0.19,0.1-0.2,0.24c-0.01,0.15,0.07,0.23,0.19,0.24c0.12,0.01,0.18-0.09,0.21-0.23 C4.22,21.13,4.17,21.02,4.05,21.01L4.05,21.01z M49.05,21.38c0.02-0.06,0.01-0.1-0.03-0.13c-0.01-0.01-0.05,0-0.05,0.01 c-0.01,0.04-0.03,0.1-0.01,0.13C48.98,21.44,49.02,21.43,49.05,21.38L49.05,21.38z M46.43,21.3c0.01,0.02,0.03,0.04,0.04,0.05 c0.02-0.04,0.04-0.07,0.06-0.11c0,0-0.03-0.03-0.04-0.04C46.43,21.2,46.41,21.24,46.43,21.3L46.43,21.3z M10.27,19.49 c-0.05,0.04-0.11,0.08-0.15,0.13c-0.05,0.05-0.08,0.13-0.05,0.21c0.03,0.11,0.1,0.15,0.23,0.17c0.04-0.04,0.11-0.09,0.17-0.16 c0.07-0.08,0.06-0.2,0.01-0.29C10.43,19.46,10.36,19.42,10.27,19.49L10.27,19.49z M5.25,19.42c-0.09,0.03-0.13,0.14-0.12,0.24 c0.01,0.15,0.08,0.24,0.2,0.23c0.11-0.05,0.18-0.13,0.15-0.29C5.45,19.46,5.37,19.39,5.25,19.42L5.25,19.42z M2.93,19.7 c0.01-0.15-0.05-0.24-0.14-0.26c-0.15-0.01-0.21,0.08-0.22,0.22c0,0.14,0.08,0.23,0.19,0.23C2.85,19.88,2.92,19.82,2.93,19.7 L2.93,19.7z M50.31,19.8l0.03,0l-0.01-0.04L50.31,19.8L50.31,19.8z M47.78,19.61c-0.01-0.01-0.04,0.01-0.05,0.02 c0,0.02,0,0.05,0.01,0.06c0.02,0.01,0.04,0.02,0.06,0.01C47.85,19.66,47.84,19.62,47.78,19.61L47.78,19.61z M45.25,19.64 c0-0.02-0.02-0.04-0.03-0.05c-0.05,0.03-0.06,0.07,0,0.1C45.22,19.69,45.25,19.66,45.25,19.64L45.25,19.64z M55.27,19.62l0,0.03 l0.04-0.01L55.27,19.62L55.27,19.62z M11.56,17.93c-0.1,0.01-0.21,0.02-0.23,0.19c-0.01,0.12,0.07,0.2,0.15,0.21 c0.11,0.02,0.21-0.04,0.23-0.19C11.73,18,11.65,17.95,11.56,17.93L11.56,17.93z M9.01,18.29c0.08,0.01,0.16-0.04,0.16-0.17 c0-0.15-0.06-0.24-0.17-0.28c-0.08,0.02-0.15,0.07-0.16,0.19C8.82,18.19,8.9,18.27,9.01,18.29L9.01,18.29z M6.45,17.79 c-0.09,0.03-0.13,0.13-0.12,0.23c0,0.15,0.13,0.28,0.25,0.26c0.1-0.05,0.17-0.13,0.15-0.28C6.7,17.84,6.58,17.74,6.45,17.79 L6.45,17.79z M4.04,18.28c0.09-0.01,0.15-0.08,0.15-0.2c0-0.15-0.06-0.24-0.18-0.27c-0.08-0.01-0.16,0.07-0.18,0.17 C3.8,18.14,3.9,18.29,4.04,18.28L4.04,18.28z M46.43,17.99c0,0.04,0.01,0.08,0.02,0.12c0.02-0.02,0.05-0.04,0.07-0.05 c-0.02-0.04-0.03-0.07-0.05-0.11C46.46,17.97,46.43,17.98,46.43,17.99L46.43,17.99z M43.98,18.08c0.03-0.01,0.06-0.03,0.1-0.05 c-0.03-0.02-0.06-0.04-0.09-0.05c-0.01,0-0.03,0.03-0.03,0.05C43.94,18.05,43.97,18.08,43.98,18.08L43.98,18.08z M2.76,16.16 c-0.14,0.03-0.21,0.16-0.19,0.35c0.01,0.11,0.07,0.2,0.15,0.21c0.13,0.02,0.23-0.19,0.21-0.4C2.92,16.19,2.85,16.14,2.76,16.16 L2.76,16.16z M5.43,16.56c0.03-0.16-0.07-0.34-0.18-0.34c-0.08,0-0.16,0.06-0.17,0.18c-0.02,0.16,0.08,0.28,0.23,0.29 C5.37,16.7,5.41,16.63,5.43,16.56L5.43,16.56z M10.09,16.44c0.01,0.15,0.08,0.24,0.2,0.22c0.06-0.01,0.12-0.05,0.11-0.15 c-0.02-0.15-0.08-0.23-0.2-0.24C10.13,16.3,10.08,16.34,10.09,16.44L10.09,16.44z M7.69,16.17c-0.04,0-0.11,0.09-0.11,0.24 c-0.01,0.15,0.06,0.25,0.19,0.25c0.12,0,0.2-0.09,0.21-0.24C7.97,16.28,7.9,16.18,7.69,16.17L7.69,16.17z M12.66,16.61 c0.05-0.08,0.1-0.17,0.15-0.25c-0.01-0.01-0.03-0.01-0.05-0.01c-0.05,0.01-0.14,0.05-0.14,0.1C12.6,16.53,12.62,16.58,12.66,16.61 L12.66,16.61z M42.71,16.6c0.01,0,0.04-0.03,0.04-0.05c-0.01-0.05-0.02-0.09-0.04-0.14c-0.01,0.04-0.03,0.09-0.04,0.13 C42.67,16.56,42.7,16.59,42.71,16.6L42.71,16.6z M50.23,16.47l-0.03,0l0.01,0.05L50.23,16.47L50.23,16.47z M47.71,16.38 c-0.01,0.01-0.04,0.03-0.04,0.05c0,0.02,0.02,0.03,0.03,0.05c0.01-0.02,0.04-0.03,0.04-0.05C47.74,16.41,47.72,16.39,47.71,16.38 L47.71,16.38z M45.27,16.38c-0.02-0.01-0.04-0.01-0.05,0c-0.03,0.05-0.02,0.08,0.03,0.08c0.02,0,0.03-0.02,0.05-0.04 C45.29,16.41,45.29,16.39,45.27,16.38L45.27,16.38z M6.57,15.1c0.09-0.02,0.14-0.11,0.12-0.24c-0.02-0.15-0.08-0.23-0.21-0.22 c-0.11,0.02-0.2,0.17-0.16,0.28C6.36,15.06,6.46,15.13,6.57,15.1L6.57,15.1z M4.05,14.55c-0.13-0.01-0.23,0.11-0.23,0.29 C3.81,15,3.89,15.09,4,15.09c0.11,0,0.19-0.09,0.19-0.23C4.21,14.68,4.15,14.56,4.05,14.55L4.05,14.55z M11.35,14.84 c0,0.12,0.07,0.19,0.14,0.2c0.04,0.01,0.13-0.06,0.13-0.11c0.01-0.14-0.05-0.23-0.16-0.23C11.38,14.71,11.35,14.76,11.35,14.84 L11.35,14.84z M43.98,14.88l-0.01-0.07l-0.02,0.06L43.98,14.88L43.98,14.88z M41.43,14.81c0,0.02,0.02,0.04,0.03,0.06 c0.01-0.02,0.03-0.03,0.04-0.05c-0.01-0.02-0.02-0.04-0.04-0.06C41.45,14.78,41.43,14.79,41.43,14.81L41.43,14.81z M48.98,14.8 l-0.04-0.01l0.02,0.06L48.98,14.8L48.98,14.8z M51.47,14.77l-0.03,0.05l0.04,0.01L51.47,14.77L51.47,14.77z M5.3,12.98 C5.16,13,5.07,13.1,5.07,13.28c0,0.13,0.08,0.16,0.16,0.19c0.13,0,0.26-0.12,0.27-0.26C5.51,13.11,5.39,12.96,5.3,12.98L5.3,12.98z M7.93,13.23c-0.01-0.13-0.07-0.24-0.19-0.21c-0.09,0.02-0.15,0.11-0.15,0.21c0,0.16,0.09,0.2,0.21,0.2 C7.89,13.43,7.94,13.34,7.93,13.23L7.93,13.23z M10.44,13.24c0-0.11-0.02-0.2-0.1-0.24c-0.09-0.04-0.21,0.07-0.2,0.2 c0.01,0.1,0.05,0.2,0.14,0.21C10.37,13.42,10.43,13.36,10.44,13.24L10.44,13.24z M12.89,13.24c-0.02-0.08-0.06-0.14-0.13-0.13 c-0.06,0.01-0.11,0.06-0.09,0.16c0.02,0.07,0.04,0.15,0.12,0.13C12.85,13.37,12.91,13.34,12.89,13.24L12.89,13.24z M40.26,13.24 c0.01-0.01,0.02-0.03,0.03-0.05c-0.01-0.02-0.02-0.04-0.04-0.05c-0.05-0.03-0.08-0.01-0.08,0.06 C40.19,13.26,40.22,13.28,40.26,13.24L40.26,13.24z M15.16,13.24c0.07-0.07,0.13-0.13,0.2-0.2c-0.02-0.02-0.04-0.03-0.07-0.02 C15.19,13.05,15.16,13.14,15.16,13.24L15.16,13.24z M50.22,13.17l-0.04,0.02l0.03,0.03L50.22,13.17L50.22,13.17z M16.7,11.55 c-0.03-0.03-0.08-0.12-0.12-0.11c-0.13,0.04-0.2,0.16-0.19,0.34c0,0.08,0.06,0.14,0.13,0.13C16.64,11.91,16.72,11.75,16.7,11.55 L16.7,11.55z M6.56,11.36c-0.14-0.01-0.24,0.12-0.24,0.29c0,0.14,0.09,0.18,0.17,0.18c0.13,0,0.25-0.04,0.29-0.23 C6.75,11.45,6.68,11.37,6.56,11.36L6.56,11.36z M8.85,11.56c-0.03,0.12,0.03,0.19,0.12,0.22c0.09,0.03,0.16,0,0.18-0.11 c0.02-0.13-0.04-0.2-0.12-0.24C8.95,11.39,8.88,11.45,8.85,11.56L8.85,11.56z M11.7,11.57c-0.04-0.06-0.04-0.19-0.15-0.17 c-0.1,0.02-0.13,0.11-0.13,0.21c0.01,0.1,0.05,0.2,0.15,0.19C11.66,11.78,11.69,11.69,11.7,11.57L11.7,11.57z M14,11.44 c-0.07,0-0.11,0.07-0.11,0.16c0.01,0.11,0.06,0.19,0.15,0.19c0.07-0.01,0.11-0.07,0.11-0.15C14.14,11.51,14.08,11.44,14,11.44 L14,11.44z M36.55,11.54c-0.03,0.01-0.07,0.02-0.1,0.04c0.01,0.02,0.02,0.04,0.04,0.05c0.03-0.02,0.07-0.03,0.1-0.05 C36.58,11.58,36.56,11.54,36.55,11.54L36.55,11.54z M38.96,11.63c0,0,0.03-0.03,0.04-0.04c0-0.02-0.02-0.03-0.03-0.05 C38.92,11.56,38.91,11.6,38.96,11.63L38.96,11.63z M49.03,11.6v-0.03l-0.04,0.02L49.03,11.6L49.03,11.6z M17.91,10.03 c-0.01-0.08-0.06-0.14-0.13-0.12c-0.09,0.02-0.13,0.1-0.14,0.2c0.02,0.1,0.08,0.14,0.14,0.13C17.87,10.22,17.94,10.16,17.91,10.03 L17.91,10.03z M5.48,10.19c0,0-0.01,0.01-0.01,0.02c0,0-0.01,0.01-0.01,0.01L5.48,10.19L5.48,10.19z M15.27,10.21 c0.07,0,0.11-0.06,0.12-0.14c0.01-0.13-0.03-0.21-0.11-0.25c-0.09-0.04-0.16,0.02-0.18,0.14C15.07,10.08,15.16,10.21,15.27,10.21 L15.27,10.21z M10.22,10.19c0.09,0.03,0.16,0.01,0.19-0.12c0.02-0.13-0.03-0.22-0.12-0.25c-0.09-0.04-0.16,0.02-0.19,0.13 C10.07,10.08,10.14,10.16,10.22,10.19L10.22,10.19z M7.58,10.07c0.04,0.11,0.11,0.15,0.19,0.11c0.1-0.04,0.17-0.11,0.17-0.25 C7.91,9.8,7.84,9.75,7.75,9.75C7.63,9.76,7.53,9.94,7.58,10.07L7.58,10.07z M12.77,9.77c-0.09,0-0.16,0.09-0.15,0.2 c0.01,0.1,0.07,0.2,0.16,0.21c0.1,0.01,0.13-0.09,0.15-0.2C12.91,9.87,12.87,9.77,12.77,9.77L12.77,9.77z M35.24,9.95 c-0.02,0.01-0.05,0.03-0.05,0.04c0.01,0.05,0.02,0.09,0.04,0.13c0.02-0.02,0.04-0.03,0.04-0.05C35.3,10.01,35.28,9.97,35.24,9.95 L35.24,9.95z M20.28,10.07c0.03-0.03,0.09-0.05,0.09-0.08c0.01-0.09-0.05-0.14-0.1-0.13c-0.05,0.01-0.13,0.08-0.13,0.11 C20.15,10.05,20.21,10.08,20.28,10.07L20.28,10.07z M32.81,9.93c-0.03,0.02-0.07,0.04-0.1,0.05c0.02,0.02,0.03,0.05,0.04,0.05 c0.04-0.01,0.07-0.03,0.1-0.05C32.84,9.96,32.83,9.95,32.81,9.93L32.81,9.93z M40.21,10.02c0.01-0.01,0.02-0.03,0.04-0.04 c-0.01-0.02-0.02-0.03-0.03-0.05c-0.01,0.01-0.03,0.03-0.03,0.04C40.19,9.99,40.2,10,40.21,10.02L40.21,10.02z M47.71,9.96 l-0.01,0.05l0.04-0.02L47.71,9.96L47.71,9.96z M30.28,9.97l0.05,0.01c0,0-0.01-0.01-0.01-0.01C30.32,9.96,30.3,9.96,30.28,9.97 L30.28,9.97z M11.47,8.21c-0.09,0.03-0.15,0.11-0.14,0.22c0.02,0.15,0.12,0.21,0.23,0.18c0.06-0.01,0.1-0.08,0.1-0.17 C11.64,8.3,11.59,8.21,11.47,8.21L11.47,8.21z M8.96,8.58c0.12,0.01,0.17-0.11,0.21-0.24C9.16,8.23,9.14,8.13,9.03,8.13 C8.91,8.12,8.84,8.22,8.83,8.36C8.82,8.46,8.86,8.57,8.96,8.58L8.96,8.58z M16.34,8.43c0.02,0.07,0.06,0.13,0.13,0.13 c0.06-0.02,0.1-0.07,0.08-0.16c-0.02-0.07-0.05-0.15-0.12-0.12C16.38,8.3,16.31,8.33,16.34,8.43L16.34,8.43z M19,8.56 c0.03,0,0.05-0.06,0.07-0.1c-0.02-0.04-0.04-0.1-0.07-0.11c-0.02-0.01-0.08,0.03-0.09,0.07C18.89,8.5,18.93,8.57,19,8.56L19,8.56z M24.04,8.45c0-0.04-0.03-0.08-0.05-0.12c-0.02,0.04-0.05,0.07-0.05,0.11c0,0.04,0.03,0.08,0.05,0.12C24,8.52,24.04,8.48,24.04,8.45 L24.04,8.45z M14,8.17c-0.1,0.01-0.14,0.11-0.13,0.21c0.01,0.11,0.08,0.18,0.17,0.17c0.1-0.01,0.12-0.11,0.13-0.2 C14.15,8.22,14.09,8.16,14,8.17L14,8.17z M31.48,8.38c-0.01,0.02-0.03,0.03-0.04,0.05c-0.02,0.05-0.01,0.1,0.03,0.12 c0.01,0.01,0.03-0.02,0.05-0.04C31.51,8.47,31.49,8.42,31.48,8.38L31.48,8.38z M29.01,8.48c0.02-0.07,0.02-0.14-0.05-0.17 c-0.03,0.02-0.08,0.04-0.09,0.07c-0.01,0.04,0.02,0.1,0.04,0.13C28.95,8.55,28.99,8.54,29.01,8.48L29.01,8.48z M36.45,8.44 l0.02,0.07l0.02-0.07L36.45,8.44L36.45,8.44z M43.96,8.49c0.01-0.01,0.02-0.01,0.03-0.02c0-0.02-0.01-0.04-0.01-0.06 c-0.01,0.01-0.03,0.01-0.03,0.02C43.95,8.45,43.96,8.47,43.96,8.49L43.96,8.49z M41.42,8.4c0.01,0.02,0.02,0.04,0.04,0.05 c0.01,0,0.04-0.02,0.04-0.03c0.03-0.05,0.01-0.09-0.03-0.11C41.42,8.31,41.4,8.35,41.42,8.4L41.42,8.4z M21.46,8.41 c0.06,0.02,0.11,0.01,0.15-0.07c-0.02-0.05-0.03-0.11-0.06-0.13c-0.06-0.05-0.11-0.01-0.13,0.07C21.4,8.34,21.41,8.39,21.46,8.41 L21.46,8.41z M34.02,8.4c0.02-0.01,0.03-0.03,0.04-0.05C34.03,8.33,34,8.31,33.97,8.29c-0.01,0-0.03,0.04-0.03,0.05 C33.95,8.41,33.98,8.43,34.02,8.4L34.02,8.4z M26.59,8.36c-0.03-0.02-0.06-0.03-0.1-0.05c-0.01,0.02-0.02,0.03-0.04,0.05 c0.03,0.02,0.06,0.04,0.09,0.04C26.57,8.4,26.58,8.38,26.59,8.36L26.59,8.36z M12.76,6.65c-0.08,0.01-0.17,0.06-0.15,0.2 c0.01,0.08,0.05,0.14,0.12,0.15c0.1,0.02,0.16-0.03,0.18-0.18C12.91,6.71,12.84,6.64,12.76,6.65L12.76,6.65z M10.26,6.96 c0.09,0,0.15-0.1,0.15-0.21c0-0.11-0.04-0.2-0.14-0.22c-0.12,0.01-0.19,0.1-0.18,0.25C10.1,6.9,10.18,6.96,10.26,6.96L10.26,6.96z M25.21,6.94c0.03-0.02,0.08-0.04,0.09-0.07c0.01-0.03,0-0.11-0.02-0.13c-0.06-0.06-0.11,0-0.11,0.08 C25.17,6.86,25.2,6.9,25.21,6.94L25.21,6.94z M17.8,6.87c0.01-0.06-0.02-0.16-0.07-0.17c-0.03-0.01-0.08,0.01-0.1,0.04 c-0.05,0.07,0.02,0.2,0.09,0.2C17.74,6.94,17.77,6.9,17.8,6.87L17.8,6.87z M15.27,6.93c0.07,0.01,0.11-0.03,0.14-0.12 c0.03-0.09-0.01-0.22-0.09-0.25c-0.06-0.03-0.12-0.02-0.16,0.07C15.11,6.76,15.16,6.91,15.27,6.93L15.27,6.93z M20.18,6.82 c0.01,0.04,0.05,0.07,0.07,0.1c0.07-0.02,0.11-0.07,0.11-0.16c0-0.03-0.05-0.07-0.09-0.08C20.19,6.68,20.15,6.73,20.18,6.82 L20.18,6.82z M30.25,6.84c-0.01-0.02-0.02-0.04-0.03-0.06c-0.01,0.01-0.04,0.02-0.04,0.04c-0.01,0.07,0.01,0.1,0.05,0.09 C30.24,6.9,30.24,6.86,30.25,6.84L30.25,6.84z M37.71,6.77c0,0.02-0.02,0.04-0.01,0.05c0.02,0.04,0.04,0.03,0.04-0.03 C37.74,6.78,37.72,6.77,37.71,6.77L37.71,6.77z M42.7,6.83c0.01-0.01,0.04-0.01,0.04-0.02c0-0.02-0.01-0.04-0.01-0.06 c-0.01,0.01-0.04,0.01-0.04,0.02C42.68,6.79,42.69,6.81,42.7,6.83L42.7,6.83z M22.68,6.7c0,0.04,0.02,0.09,0.03,0.13 c0.03-0.02,0.07-0.04,0.1-0.05c-0.02-0.04-0.02-0.1-0.05-0.13C22.73,6.61,22.69,6.63,22.68,6.7L22.68,6.7z M32.77,6.77 c-0.01-0.02-0.02-0.04-0.04-0.06c-0.01,0.02-0.04,0.03-0.04,0.05c0,0.02,0.02,0.04,0.03,0.06L32.77,6.77L32.77,6.77z M27.75,6.7 c-0.01,0-0.03,0.03-0.04,0.05c0.01,0.02,0.03,0.05,0.04,0.05c0.03-0.01,0.07-0.03,0.1-0.04C27.81,6.74,27.78,6.71,27.75,6.7 L27.75,6.7z M45.2,6.75l0.03,0.02l-0.01,0.02L45.2,6.75L45.2,6.75z M35.2,6.76l0.03,0.01l-0.01-0.04L35.2,6.76L35.2,6.76z M11.6,4.94c-0.12-0.02-0.24,0.11-0.26,0.27c-0.01,0.11,0.05,0.15,0.11,0.17c0.14,0.05,0.28-0.05,0.29-0.2 C11.73,5.07,11.69,4.98,11.6,4.94L11.6,4.94z M14.14,5.2c0.01-0.13-0.06-0.17-0.15-0.17c-0.06,0-0.11,0.06-0.11,0.14 c0,0.12,0.06,0.17,0.19,0.17C14.12,5.36,14.14,5.28,14.14,5.2L14.14,5.2z M24.01,5.09c-0.03,0.01-0.06,0.08-0.06,0.12 c0.01,0.09,0.06,0.14,0.12,0.11c0.03-0.01,0.04-0.08,0.06-0.13C24.12,5.09,24.08,5.06,24.01,5.09L24.01,5.09z M19.01,5.29 c0.01-0.04,0.04-0.08,0.04-0.12c0-0.02-0.05-0.06-0.07-0.06c-0.05,0.01-0.06,0.06-0.04,0.11C18.95,5.25,18.99,5.27,19.01,5.29 L19.01,5.29z M21.52,5.28c0.06,0.01,0.11-0.05,0.12-0.13C21.63,5.07,21.6,5.02,21.54,5c-0.08-0.02-0.1,0.05-0.1,0.13 C21.43,5.21,21.46,5.28,21.52,5.28L21.52,5.28z M26.48,5.27c0.01-0.01,0.03-0.03,0.04-0.05c0.02-0.05,0.01-0.09-0.04-0.12 c-0.02,0.01-0.05,0.03-0.05,0.04C26.45,5.18,26.47,5.23,26.48,5.27L26.48,5.27z M31.5,5.19c0.01-0.01,0-0.04-0.01-0.06 c-0.01-0.01-0.03-0.01-0.04-0.01c-0.01,0.02-0.02,0.04-0.02,0.05C31.45,5.24,31.47,5.25,31.5,5.19L31.5,5.19z M28.99,5.21 c0.03-0.01,0.06-0.03,0.09-0.05c-0.01-0.02-0.02-0.04-0.04-0.05c-0.04-0.03-0.08-0.01-0.09,0.05C28.96,5.17,28.99,5.21,28.99,5.21 L28.99,5.21z M12.8,3.34c-0.11,0.01-0.19,0.1-0.21,0.23c-0.01,0.13,0.08,0.18,0.16,0.18c0.1,0.01,0.22,0,0.24-0.16 C13,3.44,12.91,3.36,12.8,3.34L12.8,3.34z M15.26,3.73c0.07,0.01,0.11-0.05,0.12-0.13c0.01-0.1-0.04-0.16-0.1-0.16 c-0.05,0-0.15,0.04-0.15,0.07C15.11,3.63,15.17,3.72,15.26,3.73L15.26,3.73z M22.89,3.5c-0.02-0.06-0.05-0.07-0.09-0.04 c-0.06,0.04-0.1,0.1-0.07,0.17c0.02,0.07,0.08,0.11,0.13,0.07C22.91,3.66,22.91,3.58,22.89,3.5L22.89,3.5z M17.9,3.53 c-0.03-0.08-0.08-0.12-0.14-0.1c-0.06,0.03-0.08,0.12-0.04,0.19c0.02,0.04,0.06,0.07,0.09,0.07C17.87,3.68,17.9,3.62,17.9,3.53 L17.9,3.53z M25.38,3.62c0-0.04-0.01-0.12-0.03-0.13c-0.03-0.01-0.07,0.02-0.11,0.04c0.02,0.04,0.03,0.1,0.05,0.13 C25.34,3.71,25.38,3.69,25.38,3.62L25.38,3.62z M37.82,3.61l0.01,0.06l0.02-0.06L37.82,3.61L37.82,3.61z M20.21,3.66 c0.07,0.03,0.12-0.03,0.12-0.12c0-0.03-0.05-0.06-0.08-0.09c-0.03,0.03-0.08,0.05-0.08,0.08C20.17,3.57,20.19,3.65,20.21,3.66 L20.21,3.66z M27.7,3.62c0,0.01,0.02,0.03,0.03,0.05c0.01-0.04,0.03-0.08,0.04-0.11c-0.01-0.02-0.02-0.03-0.04-0.04 C27.72,3.54,27.71,3.58,27.7,3.62L27.7,3.62z M30.34,3.53c-0.03-0.02-0.06-0.04-0.09-0.05c-0.01,0-0.03,0.03-0.04,0.05 c0.01,0.02,0.03,0.05,0.04,0.05C30.28,3.57,30.31,3.55,30.34,3.53L30.34,3.53z M24,1.88c-0.03,0.01-0.06,0.07-0.06,0.11 c-0.02,0.09,0.03,0.13,0.1,0.14c0.06-0.02,0.12-0.05,0.1-0.15C24.12,1.9,24.07,1.85,24,1.88L24,1.88z M16.5,2.12 c0.07,0.01,0.11-0.04,0.13-0.13c0-0.1-0.04-0.15-0.11-0.16c-0.06-0.01-0.12,0.03-0.13,0.12C16.39,2.03,16.42,2.11,16.5,2.12 L16.5,2.12z M28.95,2.01c0.01,0.02,0.02,0.04,0.04,0.05c0.01-0.04,0.03-0.08,0.05-0.12C29.01,1.93,29,1.89,28.99,1.9 C28.94,1.91,28.93,1.95,28.95,2.01L28.95,2.01z M19.1,1.9c-0.01-0.03-0.06-0.04-0.09-0.07c-0.03,0.03-0.05,0.06-0.08,0.09 c0.02,0.03,0.05,0.08,0.08,0.09C19.08,2.03,19.12,1.98,19.1,1.9L19.1,1.9z M26.5,1.87c-0.01,0-0.03,0.03-0.05,0.05 c0.01,0.02,0.03,0.06,0.04,0.05c0.04-0.01,0.07-0.03,0.11-0.05C26.57,1.91,26.54,1.88,26.5,1.87L26.5,1.87z M31.53,1.88 c-0.02-0.01-0.05-0.01-0.05,0c-0.03,0.05-0.02,0.08,0.04,0.08c0.02,0,0.03-0.02,0.05-0.04C31.55,1.91,31.54,1.88,31.53,1.88 L31.53,1.88z M33.97,1.96c0.01-0.01,0.03-0.03,0.04-0.04c-0.01-0.02-0.02-0.03-0.03-0.05c-0.01,0.01-0.03,0.03-0.04,0.04 C33.94,1.93,33.96,1.94,33.97,1.96L33.97,1.96z M25.22,0.5c0.05,0,0.07-0.04,0.05-0.1c-0.01-0.02-0.02-0.04-0.04-0.05 c-0.02,0.04-0.04,0.07-0.06,0.11C25.18,0.46,25.21,0.5,25.22,0.5L25.22,0.5z M22.58,0.32c-0.02,0.09,0.03,0.15,0.1,0.17 c0.08,0.03,0.09-0.06,0.11-0.14c-0.01-0.08-0.04-0.16-0.12-0.12C22.63,0.24,22.59,0.28,22.58,0.32L22.58,0.32z M30.19,0.35 c0.01,0.04,0.02,0.09,0.03,0.13c0.01-0.02,0.03-0.03,0.04-0.05c-0.01-0.04-0.02-0.09-0.03-0.13C30.21,0.31,30.19,0.33,30.19,0.35 L30.19,0.35z M27.74,0.34c0.02,0,0.03-0.02,0.05-0.03c-0.01-0.02-0.01-0.05-0.02-0.06c-0.05-0.04-0.08-0.02-0.08,0.05 C27.7,0.32,27.72,0.34,27.74,0.34L27.74,0.34z" fill="inherit" fill-rule="evenodd"/></g></svg>