<?xml version="1.0" encoding="UTF-8" standalone="no"?><svg xmlns="http://www.w3.org/2000/svg" xmlns:xlink="http://www.w3.org/1999/xlink" fill="#000000" height="500.1" preserveAspectRatio="xMidYMid meet" version="1" viewBox="-0.2 -0.1 328.2 500.1" width="328.2" zoomAndPan="magnify"><g><g fill="#202f5a" id="change1_11"><path d="M113.4,114.7c-3.8-2.2-7.1-5.2-9.7-8.8c-2.4-3.4-4.1-7.7-3.4-11.8s4.8-7.8,8.9-7c-1.8-4.1-1.4-9,1-12.8 c2.4-3.7,6.7-6.2,11.2-6.3c-0.2-6.6,3.7-13.2,9.7-16.2c1-0.5,2.1-0.9,3.2-0.8c3.4,0.2,4.8,4.3,5.3,7.6c1.2-5.1,5.1-9.8,10.2-10.5 s10.8,3.9,9.9,9c4-2.2,8.5-4.4,13.1-3.6c4.6,0.7,8.7,5.6,6.9,9.8c2.2-1.4,5.2-1.4,7.5-0.1c2.3,1.3,3.8,3.9,3.8,6.5 c1.9-3.1,6.7-3.8,9.4-1.4s2.4,7.3-0.5,9.5c3.9-1.2,8.1,2.5,8.2,6.6c0.1,4.1-3,7.7-6.8,9.3c3.2,0.5,5.5,3.8,5.5,7 c0,3.2-2,6.2-4.6,8.2c-2.6,2-5.7,3.1-8.8,3.9c3.4,2,4.3,6.8,2.5,10.3c-1.8,3.5-5.7,5.5-9.6,5.7c0.6,4.1-3.9,7.5-8,7.4 s-7.8-2.5-11.2-4.8c1.5,2,3,5.1,0.9,6.6c-0.5,0.4-1.2,0.5-1.8,0.6c-6.1,0.9-12.6-1.9-16.2-6.8L113.4,114.7z"/><path d="M114.1,113.6c-5-2.9-9.8-7.5-11.8-13.1c-1-2.7-1.2-5.8,0.3-8.4c1.3-2.2,3.8-4.1,6.4-3.6 c0.8,0.1,2-0.6,1.6-1.6c-3.3-8,2.1-17.1,10.9-17.4c0.7,0,1.3-0.6,1.3-1.3c-0.1-5.1,2.2-10,6.1-13.2c1.7-1.4,4.8-3.6,6.9-1.9 c1.7,1.4,2.3,4,2.6,6.1c0.2,1.3,2.2,1.2,2.5,0c1.1-4.4,4.3-8.9,9.1-9.6c4.4-0.6,9.1,3.1,8.5,7.7c-0.1,1,1.2,1.5,1.9,1.1 c3.8-2.1,8.6-4.6,13.1-3.3c3.3,1,6.2,4.5,4.9,8c-0.4,1.1,1,2,1.9,1.5c4.2-2.3,9.2,0.5,9.4,5.2c0,1.3,1.7,1.7,2.4,0.6 c1.6-2.4,5.4-3,7.5-1c2.1,2.1,1.6,5.8-0.6,7.5c-1,0.8,0.1,2.5,1.3,2.1c3.4-0.9,6.6,2.3,6.6,5.6c0,3.7-3,6.6-6.1,7.9 c-1,0.4-0.7,2.2,0.3,2.4c4.6,0.8,5.5,6.2,3.4,9.7c-2.4,4.1-7,5.7-11.3,7c-1.1,0.3-1.2,1.8-0.3,2.4c2.7,1.7,3.4,5.4,2.2,8.3 c-1.5,3.3-5.1,5-8.5,5.3c-0.6,0.1-1.4,0.5-1.3,1.3c0.4,3.5-3.1,5.9-6.3,6.1c-4.1,0.2-7.8-2.4-11-4.6c-1-0.7-2.5,0.7-1.8,1.8 c0.8,1,2.6,3.5,1.4,4.8c-0.6,0.6-1.9,0.6-2.6,0.6c-1.1,0.1-2.3,0-3.4-0.2c-3.7-0.6-7.1-2.5-9.6-5.3c-0.9-1-1.1-1.3-2.2-1.8 c-1.2-0.6-2.5-1.2-3.7-1.7c-8.3-3.9-16.6-7.7-24.8-11.6C118.8,115.8,116.4,114.7,114.1,113.6c-1.5-0.7-2.8,1.5-1.3,2.2 c6.8,3.2,13.7,6.4,20.5,9.6c4.2,2,8.4,3.9,12.6,5.9c1.1,0.5,2.2,0.9,3.2,1.5c0.1,0,0.2,0.1,0.3,0.1c0,0,0,0,0.1,0 c-0.4-0.3,0.2,0.4,0.3,0.6c1.2,1.5,2.7,2.7,4.3,3.8c3.7,2.3,8.2,3.4,12.5,2.7c5.1-0.8,4-6,1.7-9.1c-0.6,0.6-1.2,1.2-1.8,1.8 c4,2.7,8.8,5.8,13.9,4.7c3.9-0.8,7.6-4.2,7.2-8.5c-0.4,0.4-0.9,0.9-1.3,1.3c4.6-0.4,9.3-2.8,11.1-7.3c1.6-4,0.3-8.8-3.4-11.1 c-0.1,0.8-0.2,1.6-0.3,2.4c5.5-1.6,11.4-4.1,13.6-9.8c1.9-4.7-0.3-10.9-5.7-11.9c0.1,0.8,0.2,1.6,0.3,2.4 c4.4-1.9,8.1-6.4,7.3-11.4c-0.7-4.5-5.3-8-9.8-6.8c0.4,0.7,0.8,1.4,1.3,2.1c3.4-2.7,3.7-8.5,0.3-11.4c-3.4-2.9-8.9-1.9-11.3,1.8 c0.8,0.2,1.6,0.4,2.4,0.6c-0.2-6.7-7.3-10.8-13.2-7.5c0.6,0.5,1.3,1,1.9,1.5c1.7-4.4-1.5-9-5.5-10.7c-5.5-2.4-11.5,0.4-16.3,3.1 c0.6,0.4,1.3,0.7,1.9,1.1c0.7-5.8-5.1-10.7-10.6-10.3c-6.2,0.4-10.7,5.9-12.1,11.5c0.8,0,1.7,0,2.5,0c-0.4-2.7-1.3-5.7-3.6-7.4 c-2.7-2.1-5.9-0.8-8.5,0.8c-5.4,3.5-8.8,9.8-8.7,16.3c0.4-0.4,0.9-0.9,1.3-1.3c-10.3,0.4-17.4,11-13.4,20.7 c0.5-0.5,1.1-1.1,1.6-1.6c-3.2-0.5-6.2,0.8-8.2,3.3c-2.2,2.6-2.9,6-2.3,9.3c1.2,7.4,7.4,13.7,13.6,17.3 C114.2,116.6,115.5,114.4,114.1,113.6z"/></g><g id="change2_3"><path d="M31.7,21.8c-0.1-0.3-0.2-0.6-0.3-0.9c0.2-1.2,0.4-2.4,0.5-3.6c0.3-2.1,0.6-4.3,0.9-6.4 c0.1-0.7,0.2-1.6-0.2-2.2c-0.8-1.4-3.2-1-4.1,0.3c-0.7,1-0.8,2.3-0.7,3.6c-1.4-2.9-2.9-5.7-4.7-8.4c-0.5-0.7-1-1.5-1.7-1.9 c-0.7-0.4-1.8-0.5-2.4,0.2c-0.4,0.4-0.5,1-0.5,1.6c0,2.1,0.8,5.3,1.3,7.2c-1.1-2-2.7-3.8-4.5-5.1c-0.3-0.2-0.6-0.5-1-0.5 c-1.1,0-1.3,1.6-1.1,2.7c0.5,2.6,1.1,5.3,1.6,7.9c-1.6-2.7-3.3-5.5-6-7.1C8.7,8.9,8.4,8.8,8,8.8C7.5,9,7.3,9.6,7.2,10.1 c-0.7,3.2-0.1,6.6,1.6,9.3c-1.1-1.7-2.2-3.4-3.3-5.1c-0.7-1-1.5-2.1-2.7-2.2c-1.3-0.1-2.5,1.1-2.7,2.4c-0.3,1.3,0.1,2.6,0.4,3.9 c0.9,3.3,1.8,6.5,2.7,9.8c0.3,0.9,0.5,1.9,0.9,2.9c0,0,0,0.1,0,0.1c7.2,29.5,16.8,57.1,33,82.8c11.4,18.2,24,35.9,40.5,49.6 l51.9-12.6C88.8,117.1,53.4,69.9,31.7,21.8z" fill="#ba6529"/></g><g id="change2_2"><path d="M82.2,303.7l24.4,178.1c0,0-12.1,5.1-16.5,9.9c-1,1.1-1.9,3.1-0.6,3.9c0.4,0.3,1,0.3,1.5,0.3 c26.1,0.2,46.6-2.3,72.7-4.1c-0.6-1.4-0.9-16.5-0.9-16.5s-10.9-141.2-15.3-155.2L82.2,303.7z" fill="#ba6529"/></g><g id="change1_1"><path d="M88.9 494.8L88.9 500 163.9 498.8 163.6 491.8 156.2 492.4 163 483.9 162.8 476.2 144.5 493.3 112.9 494.7 106.1 480.7 97.1 485.9 100.1 494.9z" fill="#202f5a"/></g><g id="change2_1"><path d="M152.8,308.3c0,0,10,37.6,35,63.9c25.1,26.3,110.8,63,110.8,63s2.3,12.9,5.9,18.3c0.9,1.3,2.6,2.6,3.7,1.5 c0.4-0.4,0.5-0.9,0.6-1.4c6-25.4,8.1-45.9,12.3-71.7c-1.5,0.3-16.3-2.8-16.3-2.8s-42.8-30.5-52.2-35c-9.4-4.4-30.9-53-36.1-57.3 L152.8,308.3z" fill="#ba6529"/></g><g id="change1_2"><path d="M307.3 455.4L312.4 456.6 328 383.2 321.1 381.9 320 389.3 313.2 380.8 305.7 379.2 318.3 400.9 312.6 432 297.4 435.5 300.5 445.5 309.9 444.6z" fill="#202f5a"/></g><g id="change2_5"><path d="M109.1,137.6c0.6-15.7,1.4-31.9,8.1-46.2c4.1-8.8,11.1-17,20.6-19.1c9.2-2,18.9,2.4,25.2,9.3 c6.3,7,9.5,16.2,11.3,25.4c1.8,9.5,2.2,19.3,1.2,28.9L146,149L109.1,137.6z" fill="#ba6529"/></g><g id="change1_3"><path d="M125.6,101.1c-0.5,0.9-0.4,2,0.1,2.8c0.5,0.9,1.5,1.5,2.6,1.4c0.2,0,0.4-0.1,0.7-0.2c0.3-0.1,0.4-0.3,0.6-0.6 c0.2-0.3,0.3-0.7,0.3-1c0-0.4,0-0.9-0.1-1.3c-0.1-0.5-0.4-1-0.7-1.4c-0.1-0.1-0.1-0.1-0.2-0.2c-0.1-0.1-0.3-0.2-0.4-0.3 c-0.3-0.2-0.6-0.2-1-0.3c-0.3,0-0.5,0-0.8,0.1c-0.1,0-0.1,0-0.2,0.1c-0.2,0.1-0.3,0.1-0.5,0.2c-0.6,0.4-1,1-1,1.7 c0,0.3,0.1,0.7,0.4,0.9c0.2,0.2,0.6,0.4,0.9,0.4c0.3,0,0.7-0.1,0.9-0.4c0.2-0.3,0.4-0.6,0.4-0.9c0,0,0-0.1,0-0.1c0,0.1,0,0.2,0,0.3 c0-0.1,0-0.1,0-0.2c0,0.1-0.1,0.2-0.1,0.3c0-0.1,0.1-0.1,0.1-0.2c-0.1,0.1-0.1,0.2-0.2,0.3c0-0.1,0.1-0.1,0.2-0.1 c-0.1,0.1-0.2,0.1-0.3,0.2c0.1,0,0.1-0.1,0.2-0.1c-0.1,0-0.2,0.1-0.3,0.1c0.1,0,0.2-0.1,0.3-0.1c-0.1,0-0.2,0-0.3,0 c0.1,0,0.2,0,0.3,0c-0.1,0-0.2,0-0.3,0c0.1,0,0.2,0,0.2,0.1c-0.1,0-0.2-0.1-0.3-0.1c0.1,0,0.1,0.1,0.2,0.1 c-0.1-0.1-0.2-0.1-0.3-0.2c0.1,0.1,0.2,0.2,0.3,0.2c-0.1-0.1-0.1-0.2-0.2-0.3c0.1,0.1,0.2,0.2,0.2,0.4c0-0.1-0.1-0.2-0.1-0.3 c0.1,0.2,0.1,0.4,0.2,0.6c0-0.1,0-0.2,0-0.3c0,0.3,0,0.5,0,0.8c0-0.1,0-0.2,0-0.3c0,0.1,0,0.1-0.1,0.2c0-0.1,0.1-0.2,0.1-0.3 c0,0,0,0.1-0.1,0.1c0.1-0.1,0.1-0.2,0.2-0.3c0,0,0,0.1-0.1,0.1c0.1-0.1,0.2-0.1,0.3-0.2c0,0-0.1,0-0.1,0.1c0.1,0,0.2-0.1,0.3-0.1 c-0.1,0-0.1,0-0.2,0c0.1,0,0.2,0,0.3,0c-0.1,0-0.2,0-0.3,0c0.1,0,0.2,0,0.3,0c-0.1,0-0.2,0-0.3-0.1c0.1,0,0.2,0.1,0.3,0.1 c-0.1,0-0.2-0.1-0.3-0.2c0.1,0.1,0.2,0.1,0.3,0.2c-0.1-0.1-0.2-0.2-0.3-0.3c0.1,0.1,0.1,0.2,0.2,0.3c-0.1-0.1-0.2-0.2-0.2-0.4 c0,0.1,0.1,0.2,0.1,0.3c-0.1-0.1-0.1-0.3-0.1-0.4c0,0.1,0,0.2,0,0.3c0-0.1,0-0.3,0-0.4c0,0.1,0,0.2,0,0.3c0-0.1,0-0.2,0.1-0.3 c0,0.1-0.1,0.2-0.1,0.3c0,0,0-0.1,0.1-0.1c0.2-0.3,0.2-0.7,0.1-1c-0.1-0.3-0.3-0.6-0.6-0.8c-0.3-0.2-0.7-0.2-1-0.1 C126.1,100.6,125.8,100.8,125.6,101.1L125.6,101.1z" fill="#202f5a"/></g><g id="change1_4"><path d="M134.6,120.4c5.9,1.2,12.1-0.4,16.7-4.3c1.3-1.1-0.6-2.9-1.8-1.8c-3.8,3.3-9.2,4.7-14.2,3.7 C133.7,117.6,133,120.1,134.6,120.4L134.6,120.4z" fill="#202f5a"/></g><g id="change1_5"><path d="M124,95.8c0.1-0.1,0.2-0.1,0.3-0.2c0.1-0.1,0.1-0.1,0,0c0.1,0,0.1,0,0.2-0.1c0.2-0.1,0.4-0.1,0.6-0.2 c0.2-0.1,0.4-0.1,0.7-0.1c0.1,0,0.1,0-0.1,0c0.1,0,0.1,0,0.2,0c0.1,0,0.2,0,0.3,0c0.2,0,0.5,0,0.7,0c0.1,0,0.2,0,0.3,0 c0.1,0,0.1,0-0.1,0c0.1,0,0.1,0,0.2,0c0.5,0.1,0.9,0.2,1.4,0.4c0.6,0.3,1.4-0.3,1.6-0.9c0.2-0.7-0.2-1.3-0.9-1.6 c-2.2-0.9-4.7-0.7-6.8,0.4c-0.6,0.3-0.8,1.2-0.5,1.8C122.6,96,123.3,96.2,124,95.8L124,95.8z" fill="#202f5a"/></g><g id="change1_6"><path d="M150.9,102.4c0,0,0,0.1,0.1,0.1c0-0.1-0.1-0.2-0.1-0.3c0,0.1,0.1,0.2,0.1,0.3c0-0.1,0-0.2,0-0.3 c0,0.1,0,0.3,0,0.4c0-0.1,0-0.2,0-0.3c0,0.2-0.1,0.3-0.1,0.4C150.8,102.6,150.9,102.5,150.9,102.4c0,0.1-0.1,0.3-0.2,0.4 c0.1-0.1,0.1-0.2,0.2-0.3c-0.1,0.1-0.2,0.2-0.3,0.3c0.1-0.1,0.2-0.1,0.3-0.2c-0.1,0.1-0.2,0.1-0.3,0.2c0.1,0,0.2-0.1,0.3-0.1 c-0.1,0-0.2,0.1-0.3,0.1c0.1,0,0.2,0,0.3,0c-0.1,0-0.2,0-0.3,0c0.1,0,0.2,0,0.3,0c-0.1,0-0.1,0-0.2,0c0.1,0,0.2,0.1,0.3,0.1 c0,0-0.1,0-0.1-0.1c0.1,0.1,0.2,0.1,0.3,0.2c0,0-0.1,0-0.1-0.1c0.1,0.1,0.1,0.2,0.2,0.3c0,0,0-0.1-0.1-0.1c0,0.1,0.1,0.2,0.1,0.3 c0-0.1,0-0.1-0.1-0.2c0,0.1,0,0.2,0,0.3c0-0.3,0-0.5,0-0.8c0,0.1,0,0.2,0,0.3c0-0.2,0.1-0.4,0.2-0.6c0,0.1-0.1,0.2-0.1,0.3 c0.1-0.1,0.1-0.3,0.2-0.4c-0.1,0.1-0.1,0.2-0.2,0.3c0.1-0.1,0.2-0.2,0.3-0.2c-0.1,0.1-0.2,0.1-0.3,0.2c0.1,0,0.1-0.1,0.2-0.1 c-0.1,0-0.2,0.1-0.3,0.1c0.1,0,0.2-0.1,0.2-0.1c-0.1,0-0.2,0-0.3,0c0.1,0,0.2,0,0.3,0c-0.1,0-0.2,0-0.3,0c0.1,0,0.2,0,0.3,0.1 c-0.1,0-0.2-0.1-0.3-0.1c0.1,0,0.1,0.1,0.2,0.1c-0.1-0.1-0.2-0.1-0.3-0.2c0.1,0,0.1,0.1,0.2,0.1c-0.1-0.1-0.1-0.2-0.2-0.3 c0,0,0.1,0.1,0.1,0.2c0-0.1-0.1-0.2-0.1-0.3c0,0.1,0,0.1,0,0.2c0-0.1,0-0.2,0-0.3c0,0,0,0.1,0,0.1c0,0.3,0.1,0.7,0.4,0.9 c0.2,0.2,0.6,0.4,0.9,0.4c0.3,0,0.7-0.1,0.9-0.4c0.2-0.3,0.4-0.6,0.4-0.9c0-0.5-0.2-1.1-0.7-1.5c-0.3-0.2-0.5-0.4-0.8-0.5 c-0.2-0.1-0.5-0.1-0.7-0.1c-0.1,0-0.1,0-0.2,0c-0.2,0-0.3,0-0.5,0.1c-0.4,0.1-0.6,0.3-0.9,0.5c-0.4,0.3-0.7,0.8-0.8,1.3 c-0.1,0.2-0.1,0.3-0.1,0.5c0,0.3-0.1,0.5-0.1,0.8c0,0.3,0,0.5,0.1,0.8c0.1,0.4,0.4,0.9,0.8,1.1c0.2,0.1,0.3,0.2,0.5,0.2 c0.2,0,0.4,0.1,0.6,0c0.4,0,0.6-0.1,1-0.3c0.2-0.1,0.4-0.2,0.6-0.4c0.1-0.1,0.2-0.2,0.3-0.3c0.3-0.4,0.6-0.9,0.7-1.4 c0-0.2,0.1-0.4,0.1-0.5c0-0.2,0-0.4-0.1-0.5c0-0.3-0.2-0.5-0.3-0.7c-0.1-0.3-0.5-0.5-0.8-0.6c-0.3-0.1-0.7,0-1,0.1 C150.8,101,150.6,101.7,150.9,102.4L150.9,102.4z" fill="#202f5a"/></g><g id="change1_7"><path d="M156.1,93.6c-2.1-1.1-4.6-1.3-6.8-0.4c-0.3,0.1-0.6,0.3-0.8,0.6c-0.2,0.3-0.2,0.7-0.1,1 c0.2,0.6,0.9,1.2,1.6,0.9c0.4-0.2,0.9-0.3,1.4-0.4c0.1,0,0.1,0,0.2,0c-0.2,0-0.2,0-0.1,0c0.1,0,0.2,0,0.3,0c0.2,0,0.5,0,0.7,0 c0.1,0,0.2,0,0.3,0c0.1,0,0.1,0,0.2,0c-0.2,0-0.2,0-0.1,0c0.2,0,0.4,0.1,0.7,0.1c0.2,0.1,0.4,0.1,0.6,0.2c0.1,0,0.1,0,0.2,0.1 c-0.2-0.1-0.2-0.1,0,0c0.1,0.1,0.2,0.1,0.3,0.2c0.6,0.3,1.4,0.2,1.8-0.5C156.9,94.8,156.7,94,156.1,93.6L156.1,93.6z" fill="#202f5a"/></g><g id="change1_8"><path d="M135.3,109c0.2-0.2,0.5-0.3,0.8-0.5c0.1-0.1,0.3-0.1,0.4-0.2c0.1-0.1,0.1-0.1,0,0c0.1,0,0.1-0.1,0.2-0.1 c0.3-0.1,0.6-0.2,0.9-0.3c0.1,0,0.3-0.1,0.4-0.1c0.2,0,0.1,0,0,0c0.1,0,0.1,0,0.2,0c0.3,0,0.6,0,0.9,0c0.1,0,0.3,0,0.4,0 c0.1,0,0.1,0,0.2,0c-0.2,0-0.2,0,0,0c0.3,0.1,0.6,0.1,0.9,0.2c0.1,0,0.3,0.1,0.4,0.1c0.1,0.1,0.1,0.1,0,0c0.1,0,0.1,0.1,0.2,0.1 c0.6,0.3,1.4,0.2,1.8-0.5c0.3-0.6,0.2-1.5-0.5-1.8c-2.7-1.3-6.1-1.1-8.5,0.7c-0.5,0.4-0.9,1.1-0.5,1.8 C133.9,109,134.7,109.4,135.3,109L135.3,109z" fill="#202f5a"/></g><g id="change1_12"><path d="M86.3,248.2c-12.5,30.1-22.9,61.2-31,92.8c23.4,8.2,47.8,13.6,72.4,16c9.2,0.9,18.4,1.4,27.6,0.7 c37.6-3.1,69.8-26.9,99.3-50.4c-16.7-29.7-33.4-59.5-50-89.2c-34.8,10.6-71,16.7-107.4,18.1" fill="#202f5a"/></g><g id="change2_4"><path d="M223.1,21.9c0-0.3,0.1-0.6,0.1-0.9c-0.5-1.1-0.9-2.2-1.3-3.4c-0.8-2-1.5-4-2.3-6c-0.3-0.7-0.5-1.5-0.3-2.2 c0.4-1.6,2.9-1.7,4-0.6c0.9,0.9,1.2,2.1,1.5,3.3c0.7-3.1,1.6-6.2,2.7-9.2c0.3-0.8,0.6-1.6,1.2-2.2c0.6-0.6,1.6-0.8,2.4-0.4 c0.5,0.3,0.7,0.9,0.9,1.4c0.5,2,0.4,5.3,0.3,7.3c0.7-2.2,1.8-4.3,3.2-6c0.2-0.3,0.5-0.6,0.9-0.7c1.1-0.3,1.6,1.3,1.7,2.4 c0.1,2.7,0.1,5.4,0.2,8.1c0.9-3,2-6.1,4.2-8.3c0.3-0.2,0.6-0.5,0.9-0.5c0.5,0,0.8,0.5,1.1,1c1.3,2.9,1.5,6.4,0.5,9.4 c0.7-1.9,1.4-3.8,2.1-5.7c0.4-1.1,1-2.4,2.1-2.8c1.2-0.4,2.6,0.5,3.2,1.7c0.6,1.2,0.5,2.6,0.4,3.9c-0.2,3.4-0.3,6.7-0.5,10.1 c0,1-0.1,2-0.2,3c0,0,0,0.1,0,0.1c-0.4,30.4-3.6,59.4-13.6,88.1c-7,20.3-15.4,40.4-28.4,57.4l-53.4-0.6 C188.7,127.5,212.7,73.7,223.1,21.9z" fill="#ba6529"/></g><g><g id="change3_1"><path d="M232.9,130.1c-0.7-1.1-2-1.5-3.3-1.9c-12-3.5-24.1-6.7-36.3-9.6c-1.4-0.3-3-0.7-4.4-0.2 c-1.1,0.4-2,1.2-2.9,2c-8.2,7.4-12.3,11.7-21.5,15.6c0,0-41.3,8.4-53.3-3.6c-4.5-4.4-7.2-7-9.2-8.4 c-13.5,8.2-24.9,18.7-37.4,28.4c4.1,2.9,17.5,24.2,22,26.4c-1.9,24.7-5,53.6-7,78.3c42.7,9.4,109.2,10.2,151.3-1.7 c-5.2-25.7-8-47-13.9-66.5c5.3-18.1,10.5-36.1,15.8-54.2C233.4,133.2,233.8,131.4,232.9,130.1z" fill="#ffbe4f"/></g></g><g fill="#202f5a" id="change1_13"><path d="M138.3,69.3c-2.4,3.7-1.9,9.1,1.2,12.3c3.1,3.2,8.4,3.9,12.2,1.6c-0.1,3.1,1.5,6.3,4.1,8 c2.6,1.8,6.1,2.1,9,0.9c-2.5,4-1.6,9.8,2,12.9s9.4,3.2,13.1,0.2c4.2-3.5,4.9-9.8,3.6-15.1c-2.1-8.4-8.5-15.3-16.1-19.5 s-16.4-5.8-25-6.3"/><path d="M137.2,68.6c-2.6,4.4-2.1,10.4,1.6,14c3.6,3.5,9.3,4.1,13.6,1.6c-0.6-0.4-1.3-0.7-1.9-1.1 c0,7.6,7.6,13,14.7,10.1c-0.5-0.6-1-1.3-1.5-1.9c-3.1,5.4-1.4,13.1,4.3,16c5.7,2.9,12.8,0.7,15.7-5c3-6,1.5-13.2-1.5-18.9 c-3.2-6-8.4-10.8-14.3-14.1c-7.9-4.3-16.8-6-25.7-6.5c-1.7-0.1-1.6,2.5,0,2.6c12.6,0.7,25.8,4.1,34.3,14.1 c3.6,4.3,6.3,9.8,6.3,15.5c0,5.7-3.4,11.2-9.7,11c-6.7-0.2-10.5-7.7-7.1-13.4c0.5-0.9-0.4-2.3-1.5-1.9c-5.5,2.2-11.5-1.6-11.4-7.7 c0-1-1.1-1.6-1.9-1.1c-3.3,1.9-7.8,1.5-10.5-1.2c-2.9-2.8-3.3-7.5-1.2-10.9C140.3,68.5,138.1,67.2,137.2,68.6L137.2,68.6z"/></g><g id="change1_9"><path d="M90.1,172.5c4.8-12.4,11.9-23.8,20.9-33.6c1.1-1.2-0.7-3-1.8-1.8c-9.3,10.1-16.6,21.9-21.6,34.7 C87.1,173.3,89.6,174,90.1,172.5L90.1,172.5z" fill="#202f5a"/></g><g id="change1_10"><path d="M184.3,138.7c13,10.4,22.9,24.2,28.4,39.9c0.5,1.6,3,0.9,2.5-0.7c-5.7-16.1-15.8-30.4-29.1-41 C184.8,135.9,183,137.7,184.3,138.7L184.3,138.7z" fill="#202f5a"/></g><g id="change4_1"><path d="M80.3,335.3c1.3-23.8,6.2-47.3,14.5-69.7c0.6-1.6-1.9-2.2-2.5-0.7c-8.4,22.5-13.3,46.3-14.6,70.4 C77.6,336.9,80.2,336.9,80.3,335.3L80.3,335.3z" fill="#f66125"/></g><g id="change4_2"><path d="M112.4,272.6c-1.2,22.4-2.4,44.8-3.6,67.3c-0.1,1.7,2.5,1.6,2.6,0c1.2-22.4,2.4-44.8,3.6-67.3 C115.1,270.9,112.5,270.9,112.4,272.6L112.4,272.6z" fill="#f66125"/></g><g id="change4_3"><path d="M142,277.1c3.7,22.6,6.4,45.4,8.2,68.2c0.1,1.6,2.7,1.7,2.6,0c-1.7-23.1-4.5-46.1-8.2-68.9 C144.2,274.8,141.7,275.4,142,277.1L142,277.1z" fill="#f66125"/></g><g id="change4_4"><path d="M172.8,278.4c4.8,17.4,9.1,34.9,12.9,52.6c0.3,1.6,2.8,0.9,2.5-0.7c-3.8-17.7-8.1-35.2-12.9-52.6 C174.8,276.2,172.3,276.8,172.8,278.4L172.8,278.4z" fill="#f66125"/></g><g id="change4_5"><path d="M207.6,275.1c6.9,14.5,13.8,28.9,20.7,43.4c0.7,1.5,2.9,0.2,2.2-1.3c-6.9-14.5-13.8-28.9-20.7-43.4 C209.1,272.3,206.9,273.6,207.6,275.1L207.6,275.1z" fill="#f66125"/></g><g fill="#32ad62" id="change5_1"><path d="M173.9,144.2c-2-0.5-3.9,0.7-4.8,2.5c-0.9,2-0.4,4.1,1.1,5.6c1.4,1.4,3.5,2.3,5.5,2.2 c1.3-0.1,2.4-0.7,3.1-1.8c0.6-0.9,0.8-1.9,0.9-3c0.1-2.1-0.9-4.2-2.7-5.3c-1.8-1.1-4.2-1-5.8,0.4c-1.5,1.3-2,3.6-1.2,5.3 c0.8,1.8,2.8,2.5,4.6,2.1c2.2-0.5,3.6-3,2.3-5c-0.7-1.1-2.1-1.5-3.3-0.8c-1.1,0.6-1.7,2.1-0.9,3.2c0.4,0.5,1.1,0.9,1.8,0.5 c0.5-0.3,0.9-1.2,0.5-1.8c0,0-0.1-0.1-0.1-0.1c0,0,0.1,0.3,0.1,0.3c0,0.3-0.1,0.2,0,0.1c-0.2,0.4,0,0.1,0,0.1c0,0,0,0,0-0.1 c0,0-0.1,0.1-0.1,0.1c0,0,0.2-0.2,0.1-0.1c-0.1,0.1,0,0,0.1,0c0.1,0-0.2,0,0,0c-0.3,0-0.1,0-0.1,0c-0.3,0-0.2,0-0.1,0 c-0.2-0.1-0.1-0.1,0,0c-0.2-0.1-0.1-0.1,0,0c0.2,0.1,0,0,0,0c0,0,0.1,0.1,0.1,0.2c-0.1-0.2,0-0.1,0,0c0,0.1,0,0.3,0,0 c0,0.1,0,0.3,0,0.4c0-0.3,0,0-0.1,0.1c0.1-0.3,0,0-0.1,0.1c-0.1,0.2,0,0,0,0c-0.1,0.1-0.1,0.1-0.2,0.2c-0.1,0.1-0.2,0.1,0,0 c-0.1,0-0.1,0.1-0.2,0.1c-0.1,0.1-0.4,0.2-0.1,0.1c-0.1,0-0.2,0.1-0.4,0.1c-0.1,0-0.1,0-0.2,0c0.3-0.1,0.1,0,0,0 c-0.1,0-0.3,0-0.4,0c-0.1,0-0.2-0.1,0.1,0c-0.1,0-0.1,0-0.2,0c-0.1,0-0.2-0.1-0.4-0.1c0.3,0.1,0.1,0.1,0,0c-0.1,0-0.2-0.1-0.2-0.1 c-0.1,0-0.2-0.1,0,0c0,0-0.1-0.1-0.1-0.1c0,0-0.1-0.1-0.1-0.1c0,0,0.1,0.2,0,0c-0.1-0.1-0.1-0.2-0.2-0.4c0,0,0.1,0.2,0,0 c0-0.1,0-0.2-0.1-0.2c0-0.1-0.1-0.3,0,0c0-0.1,0-0.1,0-0.2c0-0.1,0-0.3,0-0.4c0-0.1,0.1-0.2,0,0c0-0.1,0-0.1,0-0.2 c0-0.2,0.1-0.3,0.1-0.5c0-0.2-0.1,0.2,0,0c0-0.1,0.1-0.1,0.1-0.2c0-0.1,0.3-0.4,0.1-0.2c0.1-0.1,0.2-0.2,0.3-0.3 c0.1,0,0.1-0.1,0.2-0.1c-0.1,0.1-0.1,0,0,0c0.1,0,0.1-0.1,0.2-0.1c0,0,0.2-0.1,0.1-0.1c-0.1,0.1,0.1,0,0.1,0c0.1,0,0.1,0,0.2-0.1 c0.1,0,0.1,0,0.2,0c0.2-0.1-0.2,0,0,0c0.2,0,0.4,0,0.6,0c0.1,0,0.2,0,0.2,0c0.2,0-0.2-0.1,0,0c0.1,0,0.3,0.1,0.4,0.1 c0.1,0,0.1,0,0.2,0.1c0.2,0.1-0.2-0.1,0,0c0.2,0.1,0.3,0.2,0.5,0.2c0.1,0,0.1,0.1,0.2,0.1c-0.2-0.1,0,0,0.1,0 c0.1,0.1,0.2,0.2,0.3,0.3c0,0,0.2,0.2,0.1,0.1c-0.1-0.1,0.1,0.1,0.1,0.1c0.1,0.2,0.2,0.3,0.3,0.5c0.1,0.2,0,0.1,0,0 c0,0.1,0.1,0.2,0.1,0.2c0.1,0.2,0.1,0.3,0.1,0.5c0,0.1,0,0.2,0.1,0.2c0.1,0.4,0-0.1,0,0.1c0,0.2,0,0.4,0,0.6c0,0.2,0,0.3,0,0.5 c0,0.3,0,0.1,0,0c0,0.1,0,0.2,0,0.2c0,0.2-0.1,0.3-0.1,0.5c0,0.1-0.1,0.2-0.1,0.2c-0.1,0.3,0.1-0.2-0.1,0.1 c-0.1,0.1-0.2,0.3-0.3,0.4c0.1-0.2,0,0,0,0c-0.1,0.1-0.1,0.1-0.2,0.2c-0.2,0.2-0.1,0.1,0,0c-0.1,0-0.1,0.1-0.2,0.1 c-0.2,0.1-0.1,0,0,0c0,0-0.4,0.1-0.2,0.1c-0.2,0-0.4,0-0.6,0c-0.1,0-0.2,0-0.3,0c0.2,0,0,0,0,0c-0.3-0.1-0.7-0.1-1-0.2 c-0.1,0-0.3-0.1-0.4-0.2c0.2,0.1-0.2-0.1-0.2-0.1c-0.3-0.2-0.6-0.3-0.9-0.6c0.2,0.2-0.2-0.2-0.2-0.2c-0.1-0.1-0.2-0.2-0.3-0.4 c-0.2-0.2,0,0,0,0c-0.1-0.1-0.1-0.2-0.2-0.3c0-0.1-0.1-0.1-0.1-0.2c0-0.1-0.2-0.4-0.1-0.1c-0.1-0.2-0.1-0.3-0.2-0.5 c0-0.1,0-0.1,0-0.2c0-0.1,0,0.2,0,0c0-0.1,0-0.1,0-0.2c0,0,0-0.4,0-0.1c0-0.2,0.1-0.3,0.1-0.5c0-0.1,0.1-0.1,0.1-0.2 c0-0.1,0-0.1,0,0.1c0,0,0-0.1,0.1-0.1c0.1-0.1,0.2-0.3,0.2-0.4c0.1-0.2,0,0,0,0c0.1-0.1,0.1-0.2,0.2-0.2c0-0.1,0.1-0.1,0.1-0.1 c0,0,0.2-0.2,0.1-0.1c-0.1,0.1,0,0,0.1,0c0.1,0,0.1-0.1,0.2-0.1c0.2-0.1,0,0,0,0c0.1,0,0.2-0.1,0.3-0.1c0.1,0,0.1,0,0.2,0 c-0.3,0.1,0,0,0.1,0c0.1,0,0.1,0,0.2,0c-0.2,0-0.1,0,0.1,0c0.7,0.2,1.4-0.2,1.6-0.9C175,145.1,174.6,144.3,173.9,144.2 L173.9,144.2z"/><path d="M199.5,201.3c-1.9,1.1-2.8,3.3-2.4,5.4c0.3,2.1,1.9,3.8,3.8,4.5c1.6,0.6,3.6,0.5,5.1-0.5 c1.9-1.3,2.3-3.7,1.5-5.8c-0.8-2-2.4-4-4.6-4.8c-2.2-0.8-4.4,0.6-5,2.8c-0.6,2.3,0.7,4.6,2.5,5.9c1,0.7,2.4,1.1,3.5,0.4 c1-0.6,1.5-1.8,1.6-2.9c0.1-1.2-0.3-2.5-1.1-3.4c-0.8-0.9-2.2-1.3-3.4-0.9c-1.2,0.4-2,1.4-2.1,2.6c-0.1,1.3,0.7,2.3,1.8,2.7 c0.6,0.3,1.4-0.3,1.6-0.9c0.2-0.7-0.2-1.3-0.9-1.6c0.3,0.1,0.1,0,0.1,0c0.2,0.1,0.1,0.1,0.1,0c0.2,0.2,0.1,0.1,0,0 c0-0.1-0.1-0.2,0,0.1c0-0.1-0.1-0.4-0.1-0.1c0-0.1,0-0.1,0-0.2c0-0.2-0.1,0.1,0,0c0-0.1,0-0.1,0-0.2c0-0.2-0.1,0.2,0,0 c0,0,0.1-0.1,0.1-0.1c-0.2,0.4,0,0,0,0c0,0-0.1,0-0.1,0.1c0,0,0.1,0,0.1-0.1c0,0,0.2-0.1,0,0c0.1,0,0.1,0,0.2-0.1 c0.3-0.1-0.2,0,0.1,0c0.1,0,0.1,0,0.2,0c0.2,0-0.2-0.1,0,0c0.1,0,0.1,0,0.2,0.1c0.2,0.1-0.2-0.1,0,0c0.1,0,0.1,0.1,0.2,0.1 c0.2,0.1-0.1-0.1,0,0c0.1,0.1,0.1,0.1,0.2,0.2c0.1,0.1,0.1,0.1,0,0c0,0,0,0.1,0.1,0.1c0,0.1,0.1,0.1,0.1,0.2c0,0-0.1-0.2,0,0 c0.1,0.2,0.1,0.3,0.1,0.5c0-0.2,0,0.2,0,0.3c0,0.1-0.1,0.5,0,0.3c0,0.2-0.1,0.3-0.1,0.5c-0.1,0.2,0,0.1,0,0c0,0.1-0.1,0.1-0.1,0.2 c-0.2,0.3,0,0,0,0c0,0.1-0.1,0.1,0,0c-0.1,0-0.1,0.1-0.2,0.1c0.2-0.1-0.1,0,0,0c0.2,0-0.2,0,0,0c0.1,0-0.1,0-0.2,0 c-0.2-0.1,0.1,0.1-0.1,0c-0.1,0-0.2-0.1-0.2-0.1c-0.1,0-0.1-0.1-0.2-0.1c0.1,0.1-0.1,0-0.1-0.1c-0.2-0.1-0.3-0.3-0.5-0.5 c-0.3-0.3-0.3-0.3-0.5-0.7c-0.2-0.4-0.3-0.5-0.4-0.9c0-0.1,0-0.2-0.1-0.3c-0.1-0.3,0-0.1,0-0.1c0-0.2,0-0.3,0-0.5c0-0.1,0-0.2,0,0 c0-0.1,0-0.2,0.1-0.2c0-0.1,0-0.2,0.1-0.2c0.1-0.2,0,0,0-0.1c0.1-0.1,0.1-0.2,0.2-0.4c-0.1,0.2,0,0,0,0c0.1-0.1,0.1-0.1,0.2-0.2 c0.1-0.2,0.1-0.1,0,0c0.1,0,0.1-0.1,0.2-0.1c0.2-0.1,0.1-0.1,0,0c0.1,0,0.2-0.1,0.3-0.1c0,0,0.3,0,0.1,0c-0.2,0,0.1,0,0.1,0 c0,0,0.3,0,0.1,0c-0.2,0,0.1,0,0.1,0c0.1,0,0.2,0,0.2,0.1c0,0,0.3,0.1,0.1,0c-0.1,0,0.1,0,0.1,0c0.1,0.1,0.2,0.1,0.3,0.2 c0.1,0,0.1,0.1,0.2,0.1c0,0,0.2,0.1,0.1,0c0.1,0.1,0.3,0.2,0.4,0.4c0.3,0.2,0.5,0.5,0.7,0.8c-0.1-0.1,0,0,0,0.1 c0.1,0.1,0.1,0.2,0.2,0.2c0.1,0.2,0.2,0.3,0.3,0.5c0.2,0.3,0.4,0.7,0.4,0.9c0.1,0.2,0.1,0.4,0.2,0.5c0,0.1,0,0.2,0.1,0.3 c0,0.2,0,0,0,0c0,0.2,0,0.4,0,0.5c0,0.3,0,0.1,0,0.1c0,0.1-0.1,0.3-0.1,0.4c0,0-0.1,0.2,0,0c0,0,0,0.1-0.1,0.1 c0,0-0.2,0.4-0.2,0.3c0.1-0.1-0.2,0.2-0.2,0.2c0,0-0.1,0.1-0.2,0.1c-0.1,0.1,0.2-0.1,0,0c-0.1,0.1-0.2,0.1-0.4,0.2 c-0.1,0-0.2,0.1,0,0c-0.1,0-0.1,0-0.2,0.1c-0.1,0-0.3,0.1-0.4,0.1c-0.1,0-0.5,0.1-0.2,0c-0.3,0-0.6,0-0.9,0c-0.2,0,0,0,0,0 c-0.1,0-0.1,0-0.2,0c-0.2,0-0.3-0.1-0.5-0.1c-0.1,0-0.1-0.1-0.2-0.1c-0.1,0,0.2,0.1,0,0c-0.2-0.1-0.4-0.2-0.5-0.3 c-0.1,0-0.4-0.3-0.2-0.2c-0.2-0.1-0.3-0.3-0.5-0.4c-0.1-0.1-0.1-0.1-0.2-0.2c-0.2-0.2,0,0-0.1-0.1c-0.1-0.1-0.2-0.3-0.3-0.5 c0-0.1-0.1-0.1-0.1-0.2c-0.1-0.2,0,0,0-0.1c-0.1-0.2-0.1-0.3-0.2-0.5c0-0.1,0-0.2-0.1-0.2c-0.1-0.2,0,0.1,0-0.1c0-0.2,0-0.4,0-0.5 c0-0.2,0-0.1,0,0c0-0.1,0-0.2,0.1-0.4c0-0.2,0.1-0.3,0.1-0.5c0.1-0.2,0-0.1,0,0c0.1-0.1,0.1-0.2,0.2-0.3c0-0.1,0.1-0.1,0.1-0.2 c0.1-0.2,0,0,0-0.1c0.1-0.1,0.2-0.3,0.4-0.4c0,0,0.2-0.1,0,0c0.1-0.1,0.2-0.1,0.3-0.2c0.6-0.4,0.8-1.2,0.5-1.8 C201,201.2,200.1,201,199.5,201.3L199.5,201.3z"/><path d="M141.2,215.4c-1.2-0.4-2.5,0.1-3.3,1c-0.8,0.9-1.1,2.2-1.2,3.4c-0.1,1.9,0.5,4,1.8,5.4c3.1,3.6,9,0.9,9.7-3.4 c0.4-2.1-0.4-4.2-2.4-5.1c-1-0.5-2-0.7-3.1-0.7c-1-0.1-2.2-0.1-3.1,0.1c-1.2,0.4-1.9,1.5-1.8,2.7c0.1,1.1,0.6,2,1.2,2.8 c0.7,1,1.6,1.9,2.8,2.3c1.2,0.4,2.6,0.1,3.5-0.8c1.6-1.8,1.9-6-1.1-6.5c-1.3-0.2-2.7,0.5-3.1,1.8c-0.4,1.2,0.1,2.6,1.2,3.3 c0.6,0.4,1.4,0.1,1.8-0.5c0.4-0.6,0.1-1.4-0.5-1.8c-0.2-0.2,0,0,0,0c0,0-0.1-0.1,0,0c0-0.1-0.1-0.1-0.1-0.2c0,0,0.1,0.2,0,0 c0-0.1,0-0.2,0,0c0-0.1,0-0.2,0-0.2c0,0,0,0,0,0.1c0,0.1,0,0.1,0,0c0-0.1,0-0.1,0-0.2c0,0,0,0.1,0,0.1c0.3-0.1-0.1,0,0,0 c0,0,0.1-0.1,0.1-0.1c0,0-0.1,0-0.1,0.1c0,0,0.3-0.1,0,0c0.1,0,0.1,0,0.2-0.1c-0.1,0-0.2,0,0,0c0,0,0.3,0,0,0c0.1,0,0.1,0,0.2,0 c0.2,0.1,0.1,0.1,0,0c0.2,0.3,0-0.1,0,0c0,0.1,0.2,0.1,0,0c0,0,0.1,0.2,0.1,0.1c0,0.1,0.1,0.2,0.1,0.3c0-0.1,0-0.2,0,0.1 c0,0.1,0,0.2,0,0.3c0,0,0,0.2,0,0.1c0-0.1,0,0.2,0,0.2c0,0.2-0.1,0.4-0.1,0.5c0,0.1-0.1,0.2-0.1,0.3c0-0.1,0.1-0.2,0,0.1 c0,0.1-0.1,0.2-0.1,0.2c0,0-0.1,0.2,0,0.1c-0.1,0.1-0.1,0.1-0.2,0.2c0.1-0.1,0,0-0.1,0c0.2-0.1-0.4,0.1-0.1,0c-0.1,0-0.2,0-0.3,0 c0.2,0,0,0-0.1,0c-0.2-0.1-0.2,0-0.3-0.1c-0.1,0-0.2-0.1-0.2-0.1c0,0-0.2-0.1-0.1-0.1c-0.6-0.5-1-1-1.3-1.7 c-0.1-0.1-0.1-0.2-0.2-0.4c-0.1-0.2,0-0.1,0,0c0-0.1-0.1-0.2-0.1-0.2c0-0.1-0.1-0.5-0.1-0.2c0-0.1,0-0.1,0-0.2c0-0.2,0,0.1,0,0 c0-0.1,0,0.1,0,0.1c0.1-0.2,0,0,0,0c0.1-0.2,0.1,0,0,0c-0.2,0,0.1,0,0.1,0c-0.2,0,0.1,0,0.1,0c0.1,0,0.2,0,0.3,0 c0.2,0,0.4,0,0.6,0c0.3,0,0.6,0,1,0c0.2,0,0.3,0,0.5,0c0.1,0,0.2,0,0.3,0c0.2,0,0,0,0.1,0c0.3,0.1,0.6,0.1,0.9,0.2 c0,0,0.5,0.2,0.3,0.1c0.2,0.1,0.3,0.2,0.5,0.3c0,0,0.2,0.2,0.1,0.1c-0.1-0.1,0.1,0.1,0.1,0.1c0.1,0.1,0.2,0.2,0.3,0.3 c-0.1-0.2,0.1,0.2,0.1,0.2c0,0.1,0.1,0.1,0.1,0.2c-0.1-0.2,0,0,0,0.1c0,0.1,0,0.1,0.1,0.2c0,0,0.1,0.3,0,0.1c0-0.1,0,0.2,0,0.3 c0,0.2,0,0.3,0,0.5c0-0.3,0,0.2-0.1,0.3c0,0.2-0.1,0.3-0.1,0.5c0,0.1,0,0.1-0.1,0.2c0.1-0.2,0,0,0,0c-0.1,0.1-0.1,0.3-0.2,0.4 c0,0.1-0.1,0.1-0.1,0.2c0,0-0.2,0.3-0.1,0.2c0.1-0.1-0.1,0.1-0.1,0.1c-0.1,0.1-0.1,0.1-0.2,0.2c-0.1,0.1-0.2,0.2-0.3,0.3 c-0.1,0.1-0.1,0.1-0.2,0.2c0.2-0.1,0,0,0,0c-0.2,0.1-0.4,0.2-0.6,0.3c-0.5,0.3-1.2,0.5-1.8,0.4c0,0-0.3-0.1-0.4-0.1 c-0.1,0-0.1,0-0.2-0.1c-0.2-0.1,0.2,0.1,0,0c-0.1-0.1-0.2-0.1-0.3-0.2c-0.1,0-0.1-0.1-0.2-0.1c0.2,0.1,0,0,0,0 c-0.1-0.1-0.2-0.2-0.4-0.4c-0.2-0.2-0.1-0.1,0,0c-0.1-0.1-0.1-0.2-0.2-0.2c-0.1-0.1-0.2-0.3-0.3-0.5c0-0.1-0.1-0.1-0.1-0.2 c0,0-0.1-0.3-0.1-0.2c0.1,0.1,0-0.1,0-0.1c0-0.1-0.1-0.2-0.1-0.3c-0.1-0.2-0.1-0.3-0.1-0.5c0-0.2-0.1-0.4-0.1-0.5c0-0.3,0-0.1,0,0 c0-0.1,0-0.2,0-0.3c0-0.4,0-0.8,0-1.1c0-0.2,0.1-0.7,0.2-0.9c0,0,0.3-0.4,0.2-0.3c0.1-0.1,0.1-0.1,0.2-0.2c-0.1,0.1,0,0,0.1-0.1 c0,0,0.3-0.1,0.1-0.1c-0.1,0,0.2,0,0.2,0c-0.2,0-0.1,0,0,0c-0.2-0.1,0.1,0,0.1,0.1c0.7,0.2,1.4-0.3,1.6-0.9 C142.3,216.2,141.8,215.6,141.2,215.4L141.2,215.4z"/><path d="M136.9,244.8c-1.2-0.4-2.5,0.1-3.3,1c-0.8,0.9-1.1,2.2-1.2,3.4c-0.1,1.9,0.5,4,1.8,5.4c3.1,3.6,9,0.9,9.7-3.4 c0.4-2.1-0.4-4.2-2.4-5.1c-1-0.5-2-0.7-3.1-0.7c-1-0.1-2.2-0.1-3.1,0.1c-1.2,0.4-1.9,1.5-1.8,2.7c0.1,1.1,0.6,2,1.2,2.8 c0.7,1,1.6,1.9,2.8,2.3c1.2,0.4,2.6,0.1,3.5-0.8c1.6-1.8,1.9-6-1.1-6.4c-1.3-0.2-2.7,0.5-3.1,1.8c-0.4,1.2,0.1,2.6,1.2,3.3 c0.6,0.4,1.4,0.1,1.8-0.5c0.4-0.6,0.1-1.4-0.5-1.8c-0.2-0.2,0,0,0,0c0,0-0.1-0.1,0,0c0-0.1-0.1-0.1-0.1-0.2c0,0,0.1,0.2,0,0 c0-0.1,0-0.2,0,0c0-0.1,0-0.2,0-0.2c0,0,0,0,0,0.1c0,0.1,0,0.1,0,0c0-0.1,0-0.1,0-0.2c0,0,0,0.1,0,0.1c0.3-0.1-0.1,0,0,0 c0,0,0.1-0.1,0.1-0.1c0,0-0.1,0-0.1,0.1c0,0,0.3-0.1,0,0c0.1,0,0.1,0,0.2-0.1c-0.1,0-0.2,0,0,0c0,0,0.3,0,0,0c0.1,0,0.1,0,0.2,0 c0.2,0.1,0.1,0.1,0,0c0.2,0.3,0-0.1,0,0c0,0.1,0.2,0.1,0,0c0,0,0.1,0.2,0.1,0.1c0,0.1,0.1,0.2,0.1,0.3c0-0.1,0-0.2,0,0.1 c0,0.1,0,0.2,0,0.3c0,0,0,0.2,0,0.1c0-0.1,0,0.2,0,0.2c0,0.2-0.1,0.4-0.1,0.5c0,0.1-0.1,0.2-0.1,0.3c0-0.1,0.1-0.2,0,0.1 c0,0.1-0.1,0.2-0.1,0.2c0,0-0.1,0.2,0,0.1c-0.1,0.1-0.1,0.1-0.2,0.2c0.1-0.1,0,0-0.1,0c0.2-0.1-0.4,0.1-0.1,0c-0.1,0-0.2,0-0.3,0 c0.2,0,0,0-0.1,0c-0.2-0.1-0.2,0-0.3-0.1c-0.1,0-0.2-0.1-0.2-0.1c0,0-0.2-0.1-0.1-0.1c-0.6-0.5-1-1-1.3-1.7 c-0.1-0.1-0.1-0.2-0.2-0.4c-0.1-0.2,0-0.1,0,0c0-0.1-0.1-0.2-0.1-0.2c0-0.1-0.1-0.5-0.1-0.2c0-0.1,0-0.1,0-0.2c0-0.2,0,0.1,0,0 c0-0.1,0,0.1,0,0.1c0.1-0.2,0,0,0,0c0.1-0.2,0.1,0,0,0c-0.2,0,0.1,0,0.1,0c-0.2,0,0.1,0,0.1,0c0.1,0,0.2,0,0.3,0 c0.2,0,0.4,0,0.6,0c0.3,0,0.6,0,1,0c0.2,0,0.3,0,0.5,0c0.1,0,0.2,0,0.3,0c0.2,0,0,0,0.1,0c0.3,0.1,0.6,0.1,0.9,0.2 c0,0,0.5,0.2,0.3,0.1c0.2,0.1,0.3,0.2,0.5,0.3c0,0,0.2,0.2,0.1,0.1c-0.1-0.1,0.1,0.1,0.1,0.1c0.1,0.1,0.2,0.2,0.3,0.3 c-0.1-0.2,0.1,0.2,0.1,0.2c0,0.1,0.1,0.1,0.1,0.2c-0.1-0.2,0,0,0,0.1c0,0.1,0,0.1,0.1,0.2c0,0,0.1,0.3,0,0.1c0-0.1,0,0.2,0,0.3 c0,0.2,0,0.3,0,0.5c0-0.3,0,0.2-0.1,0.3c0,0.2-0.1,0.3-0.1,0.5c0,0.1,0,0.1-0.1,0.2c0.1-0.2,0,0,0,0c-0.1,0.1-0.1,0.3-0.2,0.4 c0,0.1-0.1,0.1-0.1,0.2c0,0-0.2,0.3-0.1,0.2c0.1-0.1-0.1,0.1-0.1,0.1c-0.1,0.1-0.1,0.1-0.2,0.2c-0.1,0.1-0.2,0.2-0.3,0.3 c-0.1,0.1-0.1,0.1-0.2,0.2c0.2-0.1,0,0,0,0c-0.2,0.1-0.4,0.2-0.6,0.3c-0.5,0.3-1.2,0.5-1.8,0.4c0,0-0.3-0.1-0.4-0.1 c-0.1,0-0.1,0-0.2-0.1c-0.2-0.1,0.2,0.1,0,0c-0.1-0.1-0.2-0.1-0.3-0.2c-0.1,0-0.1-0.1-0.2-0.1c0.2,0.1,0,0,0,0 c-0.1-0.1-0.2-0.2-0.4-0.4c-0.2-0.2-0.1-0.1,0,0c-0.1-0.1-0.1-0.2-0.2-0.2c-0.1-0.1-0.2-0.3-0.3-0.5c0-0.1-0.1-0.1-0.1-0.2 c0,0-0.1-0.3-0.1-0.2c0.1,0.1,0-0.1,0-0.1c0-0.1-0.1-0.2-0.1-0.3c-0.1-0.2-0.1-0.3-0.1-0.5c0-0.2-0.1-0.4-0.1-0.5c0-0.3,0-0.1,0,0 c0-0.1,0-0.2,0-0.3c0-0.4,0-0.8,0-1.1c0-0.2,0.1-0.7,0.2-0.9c0,0,0.3-0.4,0.2-0.3c0.1-0.1,0.1-0.1,0.2-0.2c-0.1,0.1,0,0,0.1-0.1 c0,0,0.3-0.1,0.1-0.1c-0.1,0,0.2,0,0.2,0c-0.2,0-0.1,0,0,0c-0.2-0.1,0.1,0,0.1,0.1c0.7,0.2,1.4-0.3,1.6-0.9 C138,245.7,137.5,245,136.9,244.8L136.9,244.8z"/><path d="M184.9,235.3c-2-0.5-3.9,0.7-4.8,2.5c-0.9,2-0.4,4.1,1.1,5.6c1.4,1.4,3.5,2.3,5.5,2.2 c1.3-0.1,2.4-0.7,3.1-1.8c0.6-0.9,0.8-1.9,0.9-3c0.1-2.1-0.9-4.2-2.7-5.3c-1.8-1.1-4.2-1-5.8,0.4c-1.5,1.3-2,3.6-1.2,5.3 c0.8,1.8,2.8,2.5,4.6,2.1c2.2-0.5,3.6-3,2.3-5c-0.7-1.1-2.1-1.5-3.3-0.8c-1.1,0.6-1.7,2.1-0.9,3.2c0.4,0.5,1.1,0.9,1.8,0.5 c0.5-0.3,0.9-1.2,0.5-1.8c0,0-0.1-0.1-0.1-0.1c0,0,0.1,0.3,0.1,0.3c0,0.3-0.1,0.2,0,0.1c-0.2,0.4,0,0.1,0,0.1c0,0,0,0,0-0.1 c0,0-0.1,0.1-0.1,0.1c0,0,0.2-0.2,0.1-0.1c-0.1,0.1,0,0,0.1,0c0.1,0-0.2,0,0,0c-0.3,0-0.1,0-0.1,0c-0.3,0-0.2,0-0.1,0 c-0.2-0.1-0.1-0.1,0,0c-0.2-0.1-0.1-0.1,0,0c0.2,0.1,0,0,0,0c0,0,0.1,0.1,0.1,0.2c-0.1-0.2,0-0.1,0,0c0,0.1,0,0.3,0,0 c0,0.1,0,0.3,0,0.4c0-0.3,0,0-0.1,0.1c0.1-0.3,0,0-0.1,0.1c-0.1,0.2,0,0,0,0c-0.1,0.1-0.1,0.1-0.2,0.2c-0.1,0.1-0.2,0.1,0,0 c-0.1,0-0.1,0.1-0.2,0.1c-0.1,0.1-0.4,0.2-0.1,0.1c-0.1,0-0.2,0.1-0.4,0.1c-0.1,0-0.1,0-0.2,0c0.3-0.1,0.1,0,0,0 c-0.1,0-0.3,0-0.4,0c-0.1,0-0.2-0.1,0.1,0c-0.1,0-0.1,0-0.2,0c-0.1,0-0.2-0.1-0.4-0.1c0.3,0.1,0.1,0.1,0,0c-0.1,0-0.2-0.1-0.2-0.1 c-0.1,0-0.2-0.1,0,0c0,0-0.1-0.1-0.1-0.1c0,0-0.1-0.1-0.1-0.1c0,0,0.1,0.2,0,0c-0.1-0.1-0.1-0.2-0.2-0.4c0,0,0.1,0.2,0,0 c0-0.1,0-0.2-0.1-0.2c0-0.1-0.1-0.3,0,0c0-0.1,0-0.1,0-0.2c0-0.1,0-0.3,0-0.4c0-0.1,0.1-0.2,0,0c0-0.1,0-0.1,0-0.2 c0-0.2,0.1-0.3,0.1-0.5c0-0.2-0.1,0.2,0,0c0-0.1,0.1-0.1,0.1-0.2c0-0.1,0.3-0.4,0.1-0.2c0.1-0.1,0.2-0.2,0.3-0.3 c0.1,0,0.1-0.1,0.2-0.1c-0.1,0.1-0.1,0,0,0c0.1,0,0.1-0.1,0.2-0.1c0,0,0.2-0.1,0.1-0.1c-0.1,0.1,0.1,0,0.1,0c0.1,0,0.1,0,0.2-0.1 c0.1,0,0.1,0,0.2,0c0.2-0.1-0.2,0,0,0c0.2,0,0.4,0,0.6,0c0.1,0,0.2,0,0.2,0c0.2,0-0.2-0.1,0,0c0.1,0,0.3,0.1,0.4,0.1 c0.1,0,0.1,0,0.2,0.1c0.2,0.1-0.2-0.1,0,0c0.2,0.1,0.3,0.2,0.5,0.2c0.1,0,0.1,0.1,0.2,0.1c-0.2-0.1,0,0,0.1,0 c0.1,0.1,0.2,0.2,0.3,0.3c0,0,0.2,0.2,0.1,0.1c-0.1-0.1,0.1,0.1,0.1,0.1c0.1,0.2,0.2,0.3,0.3,0.5c0.1,0.2,0,0.1,0,0 c0,0.1,0.1,0.2,0.1,0.2c0.1,0.2,0.1,0.3,0.1,0.5c0,0.1,0,0.2,0.1,0.2c0.1,0.4,0-0.1,0,0.1c0,0.2,0,0.4,0,0.6c0,0.2,0,0.3,0,0.5 c0,0.3,0,0.1,0,0c0,0.1,0,0.2,0,0.2c0,0.2-0.1,0.3-0.1,0.5c0,0.1-0.1,0.2-0.1,0.2c-0.1,0.3,0.1-0.2-0.1,0.1 c-0.1,0.1-0.2,0.3-0.3,0.4c0.1-0.2,0,0,0,0c-0.1,0.1-0.1,0.1-0.2,0.2c-0.2,0.2-0.1,0.1,0,0c-0.1,0-0.1,0.1-0.2,0.1 c-0.2,0.1-0.1,0,0,0c0,0-0.4,0.1-0.2,0.1c-0.2,0-0.4,0-0.6,0c-0.1,0-0.2,0-0.3,0c0.2,0,0,0,0,0c-0.3-0.1-0.7-0.1-1-0.2 c-0.1,0-0.3-0.1-0.4-0.2c0.2,0.1-0.2-0.1-0.2-0.1c-0.3-0.2-0.6-0.3-0.9-0.6c0.2,0.2-0.2-0.2-0.2-0.2c-0.1-0.1-0.2-0.2-0.3-0.4 c-0.2-0.2,0,0,0,0c-0.1-0.1-0.1-0.2-0.2-0.3c0-0.1-0.1-0.1-0.1-0.2c0-0.1-0.2-0.4-0.1-0.1c-0.1-0.2-0.1-0.3-0.2-0.5 c0-0.1,0-0.1,0-0.2c0-0.1,0,0.2,0,0c0-0.1,0-0.1,0-0.2c0,0,0-0.4,0-0.1c0-0.2,0.1-0.3,0.1-0.5c0-0.1,0.1-0.1,0.1-0.2 c0-0.1,0-0.1,0,0.1c0,0,0-0.1,0.1-0.1c0.1-0.1,0.2-0.3,0.2-0.4c0.1-0.2,0,0,0,0c0.1-0.1,0.1-0.2,0.2-0.2c0-0.1,0.1-0.1,0.1-0.1 c0,0,0.2-0.2,0.1-0.1c-0.1,0.1,0,0,0.1,0c0.1,0,0.1-0.1,0.2-0.1c0.2-0.1,0,0,0,0c0.1,0,0.2-0.1,0.3-0.1c0.1,0,0.1,0,0.2,0 c-0.3,0.1,0,0,0.1,0c0.1,0,0.1,0,0.2,0c-0.2,0-0.1,0,0.1,0c0.7,0.2,1.4-0.2,1.6-0.9C186,236.2,185.6,235.5,184.9,235.3 L184.9,235.3z"/><path d="M178.1,214.7c-2-0.5-3.9,0.7-4.8,2.5c-0.9,2-0.4,4.1,1.1,5.6c1.4,1.4,3.5,2.3,5.5,2.2 c1.3-0.1,2.4-0.7,3.1-1.8c0.6-0.9,0.8-1.9,0.9-3c0.1-2.1-0.9-4.2-2.7-5.3c-1.8-1.1-4.2-1-5.8,0.4c-1.5,1.3-2,3.6-1.2,5.3 c0.8,1.8,2.8,2.5,4.6,2.1c2.2-0.5,3.6-3,2.3-5c-0.7-1.1-2.1-1.5-3.3-0.8c-1.1,0.6-1.7,2.1-0.9,3.2c0.4,0.5,1.1,0.9,1.8,0.5 c0.5-0.3,0.9-1.2,0.5-1.8c0,0-0.1-0.1-0.1-0.1c0,0,0.1,0.3,0.1,0.3c0,0.3-0.1,0.2,0,0.1c-0.2,0.4,0,0.1,0,0.1c0,0,0,0,0-0.1 c0,0-0.1,0.1-0.1,0.1c0,0,0.2-0.2,0.1-0.1c-0.1,0.1,0,0,0.1,0c0.1,0-0.2,0,0,0c-0.3,0-0.1,0-0.1,0c-0.3,0-0.2,0-0.1,0 c-0.2-0.1-0.1-0.1,0,0c-0.2-0.1-0.1-0.1,0,0c0.2,0.1,0,0,0,0c0,0,0.1,0.1,0.1,0.2c-0.1-0.2,0-0.1,0,0c0,0.1,0,0.3,0,0 c0,0.1,0,0.3,0,0.4c0-0.3,0,0-0.1,0.1c0.1-0.3,0,0-0.1,0.1c-0.1,0.2,0,0,0,0c-0.1,0.1-0.1,0.1-0.2,0.2c-0.1,0.1-0.2,0.1,0,0 c-0.1,0-0.1,0.1-0.2,0.1c-0.1,0.1-0.4,0.2-0.1,0.1c-0.1,0-0.2,0.1-0.4,0.1c-0.1,0-0.1,0-0.2,0c0.3-0.1,0.1,0,0,0 c-0.1,0-0.3,0-0.4,0c-0.1,0-0.2-0.1,0.1,0c-0.1,0-0.1,0-0.2,0c-0.1,0-0.2-0.1-0.4-0.1c0.3,0.1,0.1,0.1,0,0c-0.1,0-0.2-0.1-0.2-0.1 c-0.1,0-0.2-0.1,0,0c0,0-0.1-0.1-0.1-0.1c0,0-0.1-0.1-0.1-0.1c0,0,0.1,0.2,0,0c-0.1-0.1-0.1-0.2-0.2-0.4c0,0,0.1,0.2,0,0 c0-0.1,0-0.2-0.1-0.2c0-0.1-0.1-0.3,0,0c0-0.1,0-0.1,0-0.2c0-0.1,0-0.3,0-0.4c0-0.1,0.1-0.2,0,0c0-0.1,0-0.1,0-0.2 c0-0.2,0.1-0.3,0.1-0.5c0-0.2-0.1,0.2,0,0c0-0.1,0.1-0.1,0.1-0.2c0-0.1,0.3-0.4,0.1-0.2c0.1-0.1,0.2-0.2,0.3-0.3 c0.1,0,0.1-0.1,0.2-0.1c-0.1,0.1-0.1,0,0,0c0.1,0,0.1-0.1,0.2-0.1c0,0,0.2-0.1,0.1-0.1c-0.1,0.1,0.1,0,0.1,0c0.1,0,0.1,0,0.2-0.1 c0.1,0,0.1,0,0.2,0c0.2-0.1-0.2,0,0,0c0.2,0,0.4,0,0.6,0c0.1,0,0.2,0,0.2,0c0.2,0-0.2-0.1,0,0c0.1,0,0.3,0.1,0.4,0.1 c0.1,0,0.1,0,0.2,0.1c0.2,0.1-0.2-0.1,0,0c0.2,0.1,0.3,0.2,0.5,0.2c0.1,0,0.1,0.1,0.2,0.1c-0.2-0.1,0,0,0.1,0 c0.1,0.1,0.2,0.2,0.3,0.3c0,0,0.2,0.2,0.1,0.1c-0.1-0.1,0.1,0.1,0.1,0.1c0.1,0.2,0.2,0.3,0.3,0.5c0.1,0.2,0,0.1,0,0 c0,0.1,0.1,0.2,0.1,0.2c0.1,0.2,0.1,0.3,0.1,0.5c0,0.1,0,0.2,0.1,0.2c0.1,0.4,0-0.1,0,0.1c0,0.2,0,0.4,0,0.6c0,0.2,0,0.3,0,0.5 c0,0.3,0,0.1,0,0c0,0.1,0,0.2,0,0.2c0,0.2-0.1,0.3-0.1,0.5c0,0.1-0.1,0.2-0.1,0.2c-0.1,0.3,0.1-0.2-0.1,0.1 c-0.1,0.1-0.2,0.3-0.3,0.4c0.1-0.2,0,0,0,0c-0.1,0.1-0.1,0.1-0.2,0.2c-0.2,0.2-0.1,0.1,0,0c-0.1,0-0.1,0.1-0.2,0.1 c-0.2,0.1-0.1,0,0,0c0,0-0.4,0.1-0.2,0.1c-0.2,0-0.4,0-0.6,0c-0.1,0-0.2,0-0.3,0c0.2,0,0,0,0,0c-0.3-0.1-0.7-0.1-1-0.2 c-0.1,0-0.3-0.1-0.4-0.2c0.2,0.1-0.2-0.1-0.2-0.1c-0.3-0.2-0.6-0.3-0.9-0.6c0.2,0.2-0.2-0.2-0.2-0.2c-0.1-0.1-0.2-0.2-0.3-0.4 c-0.2-0.2,0,0,0,0c-0.1-0.1-0.1-0.2-0.2-0.3c0-0.1-0.1-0.1-0.1-0.2c0-0.1-0.2-0.4-0.1-0.1c-0.1-0.2-0.1-0.3-0.2-0.5 c0-0.1,0-0.1,0-0.2c0-0.1,0,0.2,0,0c0-0.1,0-0.1,0-0.2c0,0,0-0.4,0-0.1c0-0.2,0.1-0.3,0.1-0.5c0-0.1,0.1-0.1,0.1-0.2 c0-0.1,0-0.1,0,0.1c0,0,0-0.1,0.1-0.1c0.1-0.1,0.2-0.3,0.2-0.4c0.1-0.2,0,0,0,0c0.1-0.1,0.1-0.2,0.2-0.2c0-0.1,0.1-0.1,0.1-0.1 c0,0,0.2-0.2,0.1-0.1c-0.1,0.1,0,0,0.1,0c0.1,0,0.1-0.1,0.2-0.1c0.2-0.1,0,0,0,0c0.1,0,0.2-0.1,0.3-0.1c0.1,0,0.1,0,0.2,0 c-0.3,0.1,0,0,0.1,0c0.1,0,0.1,0,0.2,0c-0.2,0-0.1,0,0.1,0c0.7,0.2,1.4-0.2,1.6-0.9C179.2,215.6,178.8,214.8,178.1,214.7 L178.1,214.7z"/><path d="M160.2,235.3c-2-0.5-3.9,0.7-4.8,2.5c-0.9,2-0.4,4.1,1.1,5.6c1.4,1.4,3.5,2.3,5.5,2.2 c1.3-0.1,2.4-0.7,3.1-1.8c0.6-0.9,0.8-1.9,0.9-3c0.1-2.1-0.9-4.2-2.7-5.3c-1.8-1.1-4.2-1-5.8,0.4c-1.5,1.3-2,3.6-1.2,5.3 c0.8,1.8,2.8,2.5,4.6,2.1c2.2-0.5,3.6-3,2.3-5c-0.7-1.1-2.1-1.5-3.3-0.8c-1.1,0.6-1.7,2.1-0.9,3.2c0.4,0.5,1.1,0.9,1.8,0.5 c0.5-0.3,0.9-1.2,0.5-1.8c0,0-0.1-0.1-0.1-0.1c0,0,0.1,0.3,0.1,0.3c0,0.3-0.1,0.2,0,0.1c-0.2,0.4,0,0.1,0,0.1c0,0,0,0,0-0.1 c0,0-0.1,0.1-0.1,0.1c0,0,0.2-0.2,0.1-0.1c-0.1,0.1,0,0,0.1,0c0.1,0-0.2,0,0,0c-0.3,0-0.1,0-0.1,0c-0.3,0-0.2,0-0.1,0 c-0.2-0.1-0.1-0.1,0,0c-0.2-0.1-0.1-0.1,0,0c0.2,0.1,0,0,0,0c0,0,0.1,0.1,0.1,0.2c-0.1-0.2,0-0.1,0,0c0,0.1,0,0.3,0,0 c0,0.1,0,0.3,0,0.4c0-0.3,0,0-0.1,0.1c0.1-0.3,0,0-0.1,0.1c-0.1,0.2,0,0,0,0c-0.1,0.1-0.1,0.1-0.2,0.2c-0.1,0.1-0.2,0.1,0,0 c-0.1,0-0.1,0.1-0.2,0.1c-0.1,0.1-0.4,0.2-0.1,0.1c-0.1,0-0.2,0.1-0.4,0.1c-0.1,0-0.1,0-0.2,0c0.3-0.1,0.1,0,0,0 c-0.1,0-0.3,0-0.4,0c-0.1,0-0.2-0.1,0.1,0c-0.1,0-0.1,0-0.2,0c-0.1,0-0.2-0.1-0.4-0.1c0.3,0.1,0.1,0.1,0,0c-0.1,0-0.2-0.1-0.2-0.1 c-0.1,0-0.2-0.1,0,0c0,0-0.1-0.1-0.1-0.1c0,0-0.1-0.1-0.1-0.1c0,0,0.1,0.2,0,0c-0.1-0.1-0.1-0.2-0.2-0.4c0,0,0.1,0.2,0,0 c0-0.1,0-0.2-0.1-0.2c0-0.1-0.1-0.3,0,0c0-0.1,0-0.1,0-0.2c0-0.1,0-0.3,0-0.4c0-0.1,0.1-0.2,0,0c0-0.1,0-0.1,0-0.2 c0-0.2,0.1-0.3,0.1-0.5c0-0.2-0.1,0.2,0,0c0-0.1,0.1-0.1,0.1-0.2c0-0.1,0.3-0.4,0.1-0.2c0.1-0.1,0.2-0.2,0.3-0.3 c0.1,0,0.1-0.1,0.2-0.1c-0.1,0.1-0.1,0,0,0c0.1,0,0.1-0.1,0.2-0.1c0,0,0.2-0.1,0.1-0.1c-0.1,0.1,0.1,0,0.1,0c0.1,0,0.1,0,0.2-0.1 c0.1,0,0.1,0,0.2,0c0.2-0.1-0.2,0,0,0c0.2,0,0.4,0,0.6,0c0.1,0,0.2,0,0.2,0c0.2,0-0.2-0.1,0,0c0.1,0,0.3,0.1,0.4,0.1 c0.1,0,0.1,0,0.2,0.1c0.2,0.1-0.2-0.1,0,0c0.2,0.1,0.3,0.2,0.5,0.2c0.1,0,0.1,0.1,0.2,0.1c-0.2-0.1,0,0,0.1,0 c0.1,0.1,0.2,0.2,0.3,0.3c0,0,0.2,0.2,0.1,0.1c-0.1-0.1,0.1,0.1,0.1,0.1c0.1,0.2,0.2,0.3,0.3,0.5c0.1,0.2,0,0.1,0,0 c0,0.1,0.1,0.2,0.1,0.2c0.1,0.2,0.1,0.3,0.1,0.5c0,0.1,0,0.2,0.1,0.2c0.1,0.4,0-0.1,0,0.1c0,0.2,0,0.4,0,0.6c0,0.2,0,0.3,0,0.5 c0,0.3,0,0.1,0,0c0,0.1,0,0.2,0,0.2c0,0.2-0.1,0.3-0.1,0.5c0,0.1-0.1,0.2-0.1,0.2c-0.1,0.3,0.1-0.2-0.1,0.1 c-0.1,0.1-0.2,0.3-0.3,0.4c0.1-0.2,0,0,0,0c-0.1,0.1-0.1,0.1-0.2,0.2c-0.2,0.2-0.1,0.1,0,0c-0.1,0-0.1,0.1-0.2,0.1 c-0.2,0.1-0.1,0,0,0c0,0-0.4,0.1-0.2,0.1c-0.2,0-0.4,0-0.6,0c-0.1,0-0.2,0-0.3,0c0.2,0,0,0,0,0c-0.3-0.1-0.7-0.1-1-0.2 c-0.1,0-0.3-0.1-0.4-0.2c0.2,0.1-0.2-0.1-0.2-0.1c-0.3-0.2-0.6-0.3-0.9-0.6c0.2,0.2-0.2-0.2-0.2-0.2c-0.1-0.1-0.2-0.2-0.3-0.4 c-0.2-0.2,0,0,0,0c-0.1-0.1-0.1-0.2-0.2-0.3c0-0.1-0.1-0.1-0.1-0.2c0-0.1-0.2-0.4-0.1-0.1c-0.1-0.2-0.1-0.3-0.2-0.5 c0-0.1,0-0.1,0-0.2c0-0.1,0,0.2,0,0c0-0.1,0-0.1,0-0.2c0,0,0-0.4,0-0.1c0-0.2,0.1-0.3,0.1-0.5c0-0.1,0.1-0.1,0.1-0.2 c0-0.1,0-0.1,0,0.1c0,0,0-0.1,0.1-0.1c0.1-0.1,0.2-0.3,0.2-0.4c0.1-0.2,0,0,0,0c0.1-0.1,0.1-0.2,0.2-0.2c0-0.1,0.1-0.1,0.1-0.1 c0,0,0.2-0.2,0.1-0.1c-0.1,0.1,0,0,0.1,0c0.1,0,0.1-0.1,0.2-0.1c0.2-0.1,0,0,0,0c0.1,0,0.2-0.1,0.3-0.1c0.1,0,0.1,0,0.2,0 c-0.3,0.1,0,0,0.1,0c0.1,0,0.1,0,0.2,0c-0.2,0-0.1,0,0.1,0c0.7,0.2,1.4-0.2,1.6-0.9C161.2,236.2,160.9,235.5,160.2,235.3 L160.2,235.3z"/><path d="M178.1,193.3c-2-0.5-3.9,0.7-4.8,2.5c-0.9,2-0.4,4.1,1.1,5.6c1.4,1.4,3.5,2.3,5.5,2.2 c1.3-0.1,2.4-0.7,3.1-1.8c0.6-0.9,0.8-1.9,0.9-3c0.1-2.1-0.9-4.2-2.7-5.3c-1.8-1.1-4.2-1-5.8,0.4c-1.5,1.3-2,3.6-1.2,5.3 c0.8,1.8,2.8,2.5,4.6,2.1c2.2-0.5,3.6-3,2.3-5c-0.7-1.1-2.1-1.5-3.3-0.8c-1.1,0.6-1.7,2.1-0.9,3.2c0.4,0.5,1.1,0.9,1.8,0.5 c0.5-0.3,0.9-1.2,0.5-1.8c0,0-0.1-0.1-0.1-0.1c0,0,0.1,0.3,0.1,0.3c0,0.3-0.1,0.2,0,0.1c-0.2,0.4,0,0.1,0,0.1c0,0,0,0,0-0.1 c0,0-0.1,0.1-0.1,0.1c0,0,0.2-0.2,0.1-0.1c-0.1,0.1,0,0,0.1,0c0.1,0-0.2,0,0,0c-0.3,0-0.1,0-0.1,0c-0.3,0-0.2,0-0.1,0 c-0.2-0.1-0.1-0.1,0,0c-0.2-0.1-0.1-0.1,0,0c0.2,0.1,0,0,0,0c0,0,0.1,0.1,0.1,0.2c-0.1-0.2,0-0.1,0,0c0,0.1,0,0.3,0,0 c0,0.1,0,0.3,0,0.4c0-0.3,0,0-0.1,0.1c0.1-0.3,0,0-0.1,0.1c-0.1,0.2,0,0,0,0c-0.1,0.1-0.1,0.1-0.2,0.2c-0.1,0.1-0.2,0.1,0,0 c-0.1,0-0.1,0.1-0.2,0.1c-0.1,0.1-0.4,0.2-0.1,0.1c-0.1,0-0.2,0.1-0.4,0.1c-0.1,0-0.1,0-0.2,0c0.3-0.1,0.1,0,0,0 c-0.1,0-0.3,0-0.4,0c-0.1,0-0.2-0.1,0.1,0c-0.1,0-0.1,0-0.2,0c-0.1,0-0.2-0.1-0.4-0.1c0.3,0.1,0.1,0.1,0,0c-0.1,0-0.2-0.1-0.2-0.1 c-0.1,0-0.2-0.1,0,0c0,0-0.1-0.1-0.1-0.1c0,0-0.1-0.1-0.1-0.1c0,0,0.1,0.2,0,0c-0.1-0.1-0.1-0.2-0.2-0.4c0,0,0.1,0.2,0,0 c0-0.1,0-0.2-0.1-0.2c0-0.1-0.1-0.3,0,0c0-0.1,0-0.1,0-0.2c0-0.1,0-0.3,0-0.4c0-0.1,0.1-0.2,0,0c0-0.1,0-0.1,0-0.2 c0-0.2,0.1-0.3,0.1-0.5c0-0.2-0.1,0.2,0,0c0-0.1,0.1-0.1,0.1-0.2c0-0.1,0.3-0.4,0.1-0.2c0.1-0.1,0.2-0.2,0.3-0.3 c0.1,0,0.1-0.1,0.2-0.1c-0.1,0.1-0.1,0,0,0c0.1,0,0.1-0.1,0.2-0.1c0,0,0.2-0.1,0.1-0.1c-0.1,0.1,0.1,0,0.1,0c0.1,0,0.1,0,0.2-0.1 c0.1,0,0.1,0,0.2,0c0.2-0.1-0.2,0,0,0c0.2,0,0.4,0,0.6,0c0.1,0,0.2,0,0.2,0c0.2,0-0.2-0.1,0,0c0.1,0,0.3,0.1,0.4,0.1 c0.1,0,0.1,0,0.2,0.1c0.2,0.1-0.2-0.1,0,0c0.2,0.1,0.3,0.2,0.5,0.2c0.1,0,0.1,0.1,0.2,0.1c-0.2-0.1,0,0,0.1,0 c0.1,0.1,0.2,0.2,0.3,0.3c0,0,0.2,0.2,0.1,0.1c-0.1-0.1,0.1,0.1,0.1,0.1c0.1,0.2,0.2,0.3,0.3,0.5c0.1,0.2,0,0.1,0,0 c0,0.1,0.1,0.2,0.1,0.2c0.1,0.2,0.1,0.3,0.1,0.5c0,0.1,0,0.2,0.1,0.2c0.1,0.4,0-0.1,0,0.1c0,0.2,0,0.4,0,0.6c0,0.2,0,0.3,0,0.5 c0,0.3,0,0.1,0,0c0,0.1,0,0.2,0,0.2c0,0.2-0.1,0.3-0.1,0.5c0,0.1-0.1,0.2-0.1,0.2c-0.1,0.3,0.1-0.2-0.1,0.1 c-0.1,0.1-0.2,0.3-0.3,0.4c0.1-0.2,0,0,0,0c-0.1,0.1-0.1,0.1-0.2,0.2c-0.2,0.2-0.1,0.1,0,0c-0.1,0-0.1,0.1-0.2,0.1 c-0.2,0.1-0.1,0,0,0c0,0-0.4,0.1-0.2,0.1c-0.2,0-0.4,0-0.6,0c-0.1,0-0.2,0-0.3,0c0.2,0,0,0,0,0c-0.3-0.1-0.7-0.1-1-0.2 c-0.1,0-0.3-0.1-0.4-0.2c0.2,0.1-0.2-0.1-0.2-0.1c-0.3-0.2-0.6-0.3-0.9-0.6c0.2,0.2-0.2-0.2-0.2-0.2c-0.1-0.1-0.2-0.2-0.3-0.4 c-0.2-0.2,0,0,0,0c-0.1-0.1-0.1-0.2-0.2-0.3c0-0.1-0.1-0.1-0.1-0.2c0-0.1-0.2-0.4-0.1-0.1c-0.1-0.2-0.1-0.3-0.2-0.5 c0-0.1,0-0.1,0-0.2c0-0.1,0,0.2,0,0c0-0.1,0-0.1,0-0.2c0,0,0-0.4,0-0.1c0-0.2,0.1-0.3,0.1-0.5c0-0.1,0.1-0.1,0.1-0.2 c0-0.1,0-0.1,0,0.1c0,0,0-0.1,0.1-0.1c0.1-0.1,0.2-0.3,0.2-0.4c0.1-0.2,0,0,0,0c0.1-0.1,0.1-0.2,0.2-0.2c0-0.1,0.1-0.1,0.1-0.1 c0,0,0.2-0.2,0.1-0.1c-0.1,0.1,0,0,0.1,0c0.1,0,0.1-0.1,0.2-0.1c0.2-0.1,0,0,0,0c0.1,0,0.2-0.1,0.3-0.1c0.1,0,0.1,0,0.2,0 c-0.3,0.1,0,0,0.1,0c0.1,0,0.1,0,0.2,0c-0.2,0-0.1,0,0.1,0c0.7,0.2,1.4-0.2,1.6-0.9C179.2,194.2,178.8,193.4,178.1,193.3 L178.1,193.3z"/><path d="M208.5,237.6c-2-0.5-3.9,0.7-4.8,2.5c-0.9,2-0.4,4.1,1.1,5.6c1.4,1.4,3.5,2.3,5.5,2.2 c1.3-0.1,2.4-0.7,3.1-1.8c0.6-0.9,0.8-1.9,0.9-3c0.1-2.1-0.9-4.2-2.7-5.3c-1.8-1.1-4.2-1-5.8,0.4c-1.5,1.3-2,3.6-1.2,5.3 c0.8,1.8,2.8,2.5,4.6,2.1c2.2-0.5,3.6-3,2.3-5c-0.7-1.1-2.1-1.5-3.3-0.8c-1.1,0.6-1.7,2.1-0.9,3.2c0.4,0.5,1.1,0.9,1.8,0.5 c0.5-0.3,0.9-1.2,0.5-1.8c0,0-0.1-0.1-0.1-0.1c0,0,0.1,0.3,0.1,0.3c0,0.3-0.1,0.2,0,0.1c-0.2,0.4,0,0.1,0,0.1c0,0,0,0,0-0.1 c0,0-0.1,0.1-0.1,0.1c0,0,0.2-0.2,0.1-0.1c-0.1,0.1,0,0,0.1,0c0.1,0-0.2,0,0,0c-0.3,0-0.1,0-0.1,0c-0.3,0-0.2,0-0.1,0 c-0.2-0.1-0.1-0.1,0,0c-0.2-0.1-0.1-0.1,0,0c0.2,0.1,0,0,0,0c0,0,0.1,0.1,0.1,0.2c-0.1-0.2,0-0.1,0,0c0,0.1,0,0.3,0,0 c0,0.1,0,0.3,0,0.4c0-0.3,0,0-0.1,0.1c0.1-0.3,0,0-0.1,0.1c-0.1,0.2,0,0,0,0c-0.1,0.1-0.1,0.1-0.2,0.2c-0.1,0.1-0.2,0.1,0,0 c-0.1,0-0.1,0.1-0.2,0.1c-0.1,0.1-0.4,0.2-0.1,0.1c-0.1,0-0.2,0.1-0.4,0.1c-0.1,0-0.1,0-0.2,0c0.3-0.1,0.1,0,0,0 c-0.1,0-0.3,0-0.4,0c-0.1,0-0.2-0.1,0.1,0c-0.1,0-0.1,0-0.2,0c-0.1,0-0.2-0.1-0.4-0.1c0.3,0.1,0.1,0.1,0,0c-0.1,0-0.2-0.1-0.2-0.1 c-0.1,0-0.2-0.1,0,0c0,0-0.1-0.1-0.1-0.1c0,0-0.1-0.1-0.1-0.1c0,0,0.1,0.2,0,0c-0.1-0.1-0.1-0.2-0.2-0.4c0,0,0.1,0.2,0,0 c0-0.1,0-0.2-0.1-0.2c0-0.1-0.1-0.3,0,0c0-0.1,0-0.1,0-0.2c0-0.1,0-0.3,0-0.4c0-0.1,0.1-0.2,0,0c0-0.1,0-0.1,0-0.2 c0-0.2,0.1-0.3,0.1-0.5c0-0.2-0.1,0.2,0,0c0-0.1,0.1-0.1,0.1-0.2c0-0.1,0.3-0.4,0.1-0.2c0.1-0.1,0.2-0.2,0.3-0.3 c0.1,0,0.1-0.1,0.2-0.1c-0.1,0.1-0.1,0,0,0c0.1,0,0.1-0.1,0.2-0.1c0,0,0.2-0.1,0.1-0.1c-0.1,0.1,0.1,0,0.1,0c0.1,0,0.1,0,0.2-0.1 c0.1,0,0.1,0,0.2,0c0.2-0.1-0.2,0,0,0c0.2,0,0.4,0,0.6,0c0.1,0,0.2,0,0.2,0c0.2,0-0.2-0.1,0,0c0.1,0,0.3,0.1,0.4,0.1 c0.1,0,0.1,0,0.2,0.1c0.2,0.1-0.2-0.1,0,0c0.2,0.1,0.3,0.2,0.5,0.2c0.1,0,0.1,0.1,0.2,0.1c-0.2-0.1,0,0,0.1,0 c0.1,0.1,0.2,0.2,0.3,0.3c0,0,0.2,0.2,0.1,0.1c-0.1-0.1,0.1,0.1,0.1,0.1c0.1,0.2,0.2,0.3,0.3,0.5c0.1,0.2,0,0.1,0,0 c0,0.1,0.1,0.2,0.1,0.2c0.1,0.2,0.1,0.3,0.1,0.5c0,0.1,0,0.2,0.1,0.2c0.1,0.4,0-0.1,0,0.1c0,0.2,0,0.4,0,0.6c0,0.2,0,0.3,0,0.5 c0,0.3,0,0.1,0,0c0,0.1,0,0.2,0,0.2c0,0.2-0.1,0.3-0.1,0.5c0,0.1-0.1,0.2-0.1,0.2c-0.1,0.3,0.1-0.2-0.1,0.1 c-0.1,0.1-0.2,0.3-0.3,0.4c0.1-0.2,0,0,0,0c-0.1,0.1-0.1,0.1-0.2,0.2c-0.2,0.2-0.1,0.1,0,0c-0.1,0-0.1,0.1-0.2,0.1 c-0.2,0.1-0.1,0,0,0c0,0-0.4,0.1-0.2,0.1c-0.2,0-0.4,0-0.6,0c-0.1,0-0.2,0-0.3,0c0.2,0,0,0,0,0c-0.3-0.1-0.7-0.1-1-0.2 c-0.1,0-0.3-0.1-0.4-0.2c0.2,0.1-0.2-0.1-0.2-0.1c-0.3-0.2-0.6-0.3-0.9-0.6c0.2,0.2-0.2-0.2-0.2-0.2c-0.1-0.1-0.2-0.2-0.3-0.4 c-0.2-0.2,0,0,0,0c-0.1-0.1-0.1-0.2-0.2-0.3c0-0.1-0.1-0.1-0.1-0.2c0-0.1-0.2-0.4-0.1-0.1c-0.1-0.2-0.1-0.3-0.2-0.5 c0-0.1,0-0.1,0-0.2c0-0.1,0,0.2,0,0c0-0.1,0-0.1,0-0.2c0,0,0-0.4,0-0.1c0-0.2,0.1-0.3,0.1-0.5c0-0.1,0.1-0.1,0.1-0.2 c0-0.1,0-0.1,0,0.1c0,0,0-0.1,0.1-0.1c0.1-0.1,0.2-0.3,0.2-0.4c0.1-0.2,0,0,0,0c0.1-0.1,0.1-0.2,0.2-0.2c0-0.1,0.1-0.1,0.1-0.1 c0,0,0.2-0.2,0.1-0.1c-0.1,0.1,0,0,0.1,0c0.1,0,0.1-0.1,0.2-0.1c0.2-0.1,0,0,0,0c0.1,0,0.2-0.1,0.3-0.1c0.1,0,0.1,0,0.2,0 c-0.3,0.1,0,0,0.1,0c0.1,0,0.1,0,0.2,0c-0.2,0-0.1,0,0.1,0c0.7,0.2,1.4-0.2,1.6-0.9C209.5,238.5,209.2,237.8,208.5,237.6 L208.5,237.6z"/><path d="M167.6,169.5c-2-0.5-3.9,0.7-4.8,2.5c-0.9,2-0.4,4.1,1.1,5.6c1.4,1.4,3.5,2.3,5.5,2.2 c1.3-0.1,2.4-0.7,3.1-1.8c0.6-0.9,0.8-1.9,0.9-3c0.1-2.1-0.9-4.2-2.7-5.3c-1.8-1.1-4.2-1-5.8,0.4c-1.5,1.3-2,3.6-1.2,5.3 c0.8,1.8,2.8,2.5,4.6,2.1c2.2-0.5,3.6-3,2.3-5c-0.7-1.1-2.1-1.5-3.3-0.8c-1.1,0.6-1.7,2.1-0.9,3.2c0.4,0.5,1.1,0.9,1.8,0.5 c0.5-0.3,0.9-1.2,0.5-1.8c0,0-0.1-0.1-0.1-0.1c0,0,0.1,0.3,0.1,0.3c0,0.3-0.1,0.2,0,0.1c-0.2,0.4,0,0.1,0,0.1c0,0,0,0,0-0.1 c0,0-0.1,0.1-0.1,0.1c0,0,0.2-0.2,0.1-0.1c-0.1,0.1,0,0,0.1,0c0.1,0-0.2,0,0,0c-0.3,0-0.1,0-0.1,0c-0.3,0-0.2,0-0.1,0 c-0.2-0.1-0.1-0.1,0,0c-0.2-0.1-0.1-0.1,0,0c0.2,0.1,0,0,0,0c0,0,0.1,0.1,0.1,0.2c-0.1-0.2,0-0.1,0,0c0,0.1,0,0.3,0,0 c0,0.1,0,0.3,0,0.4c0-0.3,0,0-0.1,0.1c0.1-0.3,0,0-0.1,0.1c-0.1,0.2,0,0,0,0c-0.1,0.1-0.1,0.1-0.2,0.2c-0.1,0.1-0.2,0.1,0,0 c-0.1,0-0.1,0.1-0.2,0.1c-0.1,0.1-0.4,0.2-0.1,0.1c-0.1,0-0.2,0.1-0.4,0.1c-0.1,0-0.1,0-0.2,0c0.3-0.1,0.1,0,0,0 c-0.1,0-0.3,0-0.4,0c-0.1,0-0.2-0.1,0.1,0c-0.1,0-0.1,0-0.2,0c-0.1,0-0.2-0.1-0.4-0.1c0.3,0.1,0.1,0.1,0,0c-0.1,0-0.2-0.1-0.2-0.1 c-0.1,0-0.2-0.1,0,0c0,0-0.1-0.1-0.1-0.1c0,0-0.1-0.1-0.1-0.1c0,0,0.1,0.2,0,0c-0.1-0.1-0.1-0.2-0.2-0.4c0,0,0.1,0.2,0,0 c0-0.1,0-0.2-0.1-0.2c0-0.1-0.1-0.3,0,0c0-0.1,0-0.1,0-0.2c0-0.1,0-0.3,0-0.4c0-0.1,0.1-0.2,0,0c0-0.1,0-0.1,0-0.2 c0-0.2,0.1-0.3,0.1-0.5c0-0.2-0.1,0.2,0,0c0-0.1,0.1-0.1,0.1-0.2c0-0.1,0.3-0.4,0.1-0.2c0.1-0.1,0.2-0.2,0.3-0.3 c0.1,0,0.1-0.1,0.2-0.1c-0.1,0.1-0.1,0,0,0c0.1,0,0.1-0.1,0.2-0.1c0,0,0.2-0.1,0.1-0.1c-0.1,0.1,0.1,0,0.1,0c0.1,0,0.1,0,0.2-0.1 c0.1,0,0.1,0,0.2,0c0.2-0.1-0.2,0,0,0c0.2,0,0.4,0,0.6,0c0.1,0,0.2,0,0.2,0c0.2,0-0.2-0.1,0,0c0.1,0,0.3,0.1,0.4,0.1 c0.1,0,0.1,0,0.2,0.1c0.2,0.1-0.2-0.1,0,0c0.2,0.1,0.3,0.2,0.5,0.2c0.1,0,0.1,0.1,0.2,0.1c-0.2-0.1,0,0,0.1,0 c0.1,0.1,0.2,0.2,0.3,0.3c0,0,0.2,0.2,0.1,0.1c-0.1-0.1,0.1,0.1,0.1,0.1c0.1,0.2,0.2,0.3,0.3,0.5c0.1,0.2,0,0.1,0,0 c0,0.1,0.1,0.2,0.1,0.2c0.1,0.2,0.1,0.3,0.1,0.5c0,0.1,0,0.2,0.1,0.2c0.1,0.4,0-0.1,0,0.1c0,0.2,0,0.4,0,0.6c0,0.2,0,0.3,0,0.5 c0,0.3,0,0.1,0,0c0,0.1,0,0.2,0,0.2c0,0.2-0.1,0.3-0.1,0.5c0,0.1-0.1,0.2-0.1,0.2c-0.1,0.3,0.1-0.2-0.1,0.1 c-0.1,0.1-0.2,0.3-0.3,0.4c0.1-0.2,0,0,0,0c-0.1,0.1-0.1,0.1-0.2,0.2c-0.2,0.2-0.1,0.1,0,0c-0.1,0-0.1,0.1-0.2,0.1 c-0.2,0.1-0.1,0,0,0c0,0-0.4,0.1-0.2,0.1c-0.2,0-0.4,0-0.6,0c-0.1,0-0.2,0-0.3,0c0.2,0,0,0,0,0c-0.3-0.1-0.7-0.1-1-0.2 c-0.1,0-0.3-0.1-0.4-0.2c0.2,0.1-0.2-0.1-0.2-0.1c-0.3-0.2-0.6-0.3-0.9-0.6c0.2,0.2-0.2-0.2-0.2-0.2c-0.1-0.1-0.2-0.2-0.3-0.4 c-0.2-0.2,0,0,0,0c-0.1-0.1-0.1-0.2-0.2-0.3c0-0.1-0.1-0.1-0.1-0.2c0-0.1-0.2-0.4-0.1-0.1c-0.1-0.2-0.1-0.3-0.2-0.5 c0-0.1,0-0.1,0-0.2c0-0.1,0,0.2,0,0c0-0.1,0-0.1,0-0.2c0,0,0-0.4,0-0.1c0-0.2,0.1-0.3,0.1-0.5c0-0.1,0.1-0.1,0.1-0.2 c0-0.1,0-0.1,0,0.1c0,0,0-0.1,0.1-0.1c0.1-0.1,0.2-0.3,0.2-0.4c0.1-0.2,0,0,0,0c0.1-0.1,0.1-0.2,0.2-0.2c0-0.1,0.1-0.1,0.1-0.1 c0,0,0.2-0.2,0.1-0.1c-0.1,0.1,0,0,0.1,0c0.1,0,0.1-0.1,0.2-0.1c0.2-0.1,0,0,0,0c0.1,0,0.2-0.1,0.3-0.1c0.1,0,0.1,0,0.2,0 c-0.3,0.1,0,0,0.1,0c0.1,0,0.1,0,0.2,0c-0.2,0-0.1,0,0.1,0c0.7,0.2,1.4-0.2,1.6-0.9C168.6,170.4,168.3,169.6,167.6,169.5 L167.6,169.5z"/><path d="M88.6,146.1c-2-0.5-3.9,0.7-4.8,2.5c-0.9,2-0.4,4.1,1.1,5.6c1.4,1.4,3.5,2.3,5.5,2.2c1.3-0.1,2.4-0.7,3.1-1.8 c0.6-0.9,0.8-1.9,0.9-3c0.1-2.1-0.9-4.2-2.7-5.3c-1.8-1.1-4.2-1-5.8,0.4c-1.5,1.3-2,3.6-1.2,5.3c0.8,1.8,2.8,2.5,4.6,2.1 c2.2-0.5,3.6-3,2.3-5c-0.7-1.1-2.1-1.5-3.3-0.8c-1.1,0.6-1.7,2.1-0.9,3.2c0.4,0.5,1.1,0.9,1.8,0.5c0.5-0.3,0.9-1.2,0.5-1.8 c0,0-0.1-0.1-0.1-0.1c0,0,0.1,0.3,0.1,0.3c0,0.3-0.1,0.2,0,0.1c-0.2,0.4,0,0.1,0,0.1c0,0,0,0,0-0.1c0,0-0.1,0.1-0.1,0.1 c0,0,0.2-0.2,0.1-0.1c-0.1,0.1,0,0,0.1,0c0.1,0-0.2,0,0,0c-0.3,0-0.1,0-0.1,0c-0.3,0-0.2,0-0.1,0c-0.2-0.1-0.1-0.1,0,0 c-0.2-0.1-0.1-0.1,0,0c0.2,0.1,0,0,0,0c0,0,0.1,0.1,0.1,0.2c-0.1-0.2,0-0.1,0,0c0,0.1,0,0.3,0,0c0,0.1,0,0.3,0,0.4 c0-0.3,0,0-0.1,0.1c0.1-0.3,0,0-0.1,0.1c-0.1,0.2,0,0,0,0c-0.1,0.1-0.1,0.1-0.2,0.2c-0.1,0.1-0.2,0.1,0,0c-0.1,0-0.1,0.1-0.2,0.1 c-0.1,0.1-0.4,0.2-0.1,0.1c-0.1,0-0.2,0.1-0.4,0.1c-0.1,0-0.1,0-0.2,0c0.3-0.1,0.1,0,0,0c-0.1,0-0.3,0-0.4,0c-0.1,0-0.2-0.1,0.1,0 c-0.1,0-0.1,0-0.2,0c-0.1,0-0.2-0.1-0.4-0.1c0.3,0.1,0.1,0.1,0,0c-0.1,0-0.2-0.1-0.2-0.1c-0.1,0-0.2-0.1,0,0c0,0-0.1-0.1-0.1-0.1 c0,0-0.1-0.1-0.1-0.1c0,0,0.1,0.2,0,0c-0.1-0.1-0.1-0.2-0.2-0.4c0,0,0.1,0.2,0,0c0-0.1,0-0.2-0.1-0.2c0-0.1-0.1-0.3,0,0 c0-0.1,0-0.1,0-0.2c0-0.1,0-0.3,0-0.4c0-0.1,0.1-0.2,0,0c0-0.1,0-0.1,0-0.2c0-0.2,0.1-0.3,0.1-0.5c0-0.2-0.1,0.2,0,0 c0-0.1,0.1-0.1,0.1-0.2c0-0.1,0.3-0.4,0.1-0.2c0.1-0.1,0.2-0.2,0.3-0.3c0.1,0,0.1-0.1,0.2-0.1c-0.1,0.1-0.1,0,0,0 c0.1,0,0.1-0.1,0.2-0.1c0,0,0.2-0.1,0.1-0.1c-0.1,0.1,0.1,0,0.1,0c0.1,0,0.1,0,0.2-0.1c0.1,0,0.1,0,0.2,0c0.2-0.1-0.2,0,0,0 c0.2,0,0.4,0,0.6,0c0.1,0,0.2,0,0.2,0c0.2,0-0.2-0.1,0,0c0.1,0,0.3,0.1,0.4,0.1c0.1,0,0.1,0,0.2,0.1c0.2,0.1-0.2-0.1,0,0 c0.2,0.1,0.3,0.2,0.5,0.2c0.1,0,0.1,0.1,0.2,0.1c-0.2-0.1,0,0,0.1,0c0.1,0.1,0.2,0.2,0.3,0.3c0,0,0.2,0.2,0.1,0.1 c-0.1-0.1,0.1,0.1,0.1,0.1c0.1,0.2,0.2,0.3,0.3,0.5c0.1,0.2,0,0.1,0,0c0,0.1,0.1,0.2,0.1,0.2c0.1,0.2,0.1,0.3,0.1,0.5 c0,0.1,0,0.2,0.1,0.2c0.1,0.4,0-0.1,0,0.1c0,0.2,0,0.4,0,0.6c0,0.2,0,0.3,0,0.5c0,0.3,0,0.1,0,0c0,0.1,0,0.2,0,0.2 c0,0.2-0.1,0.3-0.1,0.5c0,0.1-0.1,0.2-0.1,0.2c-0.1,0.3,0.1-0.2-0.1,0.1c-0.1,0.1-0.2,0.3-0.3,0.4c0.1-0.2,0,0,0,0 c-0.1,0.1-0.1,0.1-0.2,0.2c-0.2,0.2-0.1,0.1,0,0c-0.1,0-0.1,0.1-0.2,0.1c-0.2,0.1-0.1,0,0,0c0,0-0.4,0.1-0.2,0.1 c-0.2,0-0.4,0-0.6,0c-0.1,0-0.2,0-0.3,0c0.2,0,0,0,0,0c-0.3-0.1-0.7-0.1-1-0.2c-0.1,0-0.3-0.1-0.4-0.2c0.2,0.1-0.2-0.1-0.2-0.1 c-0.3-0.2-0.6-0.3-0.9-0.6c0.2,0.2-0.2-0.2-0.2-0.2c-0.1-0.1-0.2-0.2-0.3-0.4c-0.2-0.2,0,0,0,0c-0.1-0.1-0.1-0.2-0.2-0.3 c0-0.1-0.1-0.1-0.1-0.2c0-0.1-0.2-0.4-0.1-0.1c-0.1-0.2-0.1-0.3-0.2-0.5c0-0.1,0-0.1,0-0.2c0-0.1,0,0.2,0,0c0-0.1,0-0.1,0-0.2 c0,0,0-0.4,0-0.1c0-0.2,0.1-0.3,0.1-0.5c0-0.1,0.1-0.1,0.1-0.2c0-0.1,0-0.1,0,0.1c0,0,0-0.1,0.1-0.1c0.1-0.1,0.2-0.3,0.2-0.4 c0.1-0.2,0,0,0,0c0.1-0.1,0.1-0.2,0.2-0.2c0-0.1,0.1-0.1,0.1-0.1c0,0,0.2-0.2,0.1-0.1c-0.1,0.1,0,0,0.1,0c0.1,0,0.1-0.1,0.2-0.1 c0.2-0.1,0,0,0,0c0.1,0,0.2-0.1,0.3-0.1c0.1,0,0.1,0,0.2,0c-0.3,0.1,0,0,0.1,0c0.1,0,0.1,0,0.2,0c-0.2,0-0.1,0,0.1,0 c0.7,0.2,1.4-0.2,1.6-0.9C89.7,147,89.3,146.2,88.6,146.1L88.6,146.1z"/><path d="M193.8,169.5c-2-0.5-3.9,0.7-4.8,2.5c-0.9,2-0.4,4.1,1.1,5.6c1.4,1.4,3.5,2.3,5.5,2.2 c1.3-0.1,2.4-0.7,3.1-1.8c0.6-0.9,0.8-1.9,0.9-3c0.1-2.1-0.9-4.2-2.7-5.3c-1.8-1.1-4.2-1-5.8,0.4c-1.5,1.3-2,3.6-1.2,5.3 c0.8,1.8,2.8,2.5,4.6,2.1c2.2-0.5,3.6-3,2.3-5c-0.7-1.1-2.1-1.5-3.3-0.8c-1.1,0.6-1.7,2.1-0.9,3.2c0.4,0.5,1.1,0.9,1.8,0.5 c0.5-0.3,0.9-1.2,0.5-1.8c0,0-0.1-0.1-0.1-0.1c0,0,0.1,0.3,0.1,0.3c0,0.3-0.1,0.2,0,0.1c-0.2,0.4,0,0.1,0,0.1c0,0,0,0,0-0.1 c0,0-0.1,0.1-0.1,0.1c0,0,0.2-0.2,0.1-0.1c-0.1,0.1,0,0,0.1,0c0.1,0-0.2,0,0,0c-0.3,0-0.1,0-0.1,0c-0.3,0-0.2,0-0.1,0 c-0.2-0.1-0.1-0.1,0,0c-0.2-0.1-0.1-0.1,0,0c0.2,0.1,0,0,0,0c0,0,0.1,0.1,0.1,0.2c-0.1-0.2,0-0.1,0,0c0,0.1,0,0.3,0,0 c0,0.1,0,0.3,0,0.4c0-0.3,0,0-0.1,0.1c0.1-0.3,0,0-0.1,0.1c-0.1,0.2,0,0,0,0c-0.1,0.1-0.1,0.1-0.2,0.2c-0.1,0.1-0.2,0.1,0,0 c-0.1,0-0.1,0.1-0.2,0.1c-0.1,0.1-0.4,0.2-0.1,0.1c-0.1,0-0.2,0.1-0.4,0.1c-0.1,0-0.1,0-0.2,0c0.3-0.1,0.1,0,0,0 c-0.1,0-0.3,0-0.4,0c-0.1,0-0.2-0.1,0.1,0c-0.1,0-0.1,0-0.2,0c-0.1,0-0.2-0.1-0.4-0.1c0.3,0.1,0.1,0.1,0,0c-0.1,0-0.2-0.1-0.2-0.1 c-0.1,0-0.2-0.1,0,0c0,0-0.1-0.1-0.1-0.1c0,0-0.1-0.1-0.1-0.1c0,0,0.1,0.2,0,0c-0.1-0.1-0.1-0.2-0.2-0.4c0,0,0.1,0.2,0,0 c0-0.1,0-0.2-0.1-0.2c0-0.1-0.1-0.3,0,0c0-0.1,0-0.1,0-0.2c0-0.1,0-0.3,0-0.4c0-0.1,0.1-0.2,0,0c0-0.1,0-0.1,0-0.2 c0-0.2,0.1-0.3,0.1-0.5c0-0.2-0.1,0.2,0,0c0-0.1,0.1-0.1,0.1-0.2c0-0.1,0.3-0.4,0.1-0.2c0.1-0.1,0.2-0.2,0.3-0.3 c0.1,0,0.1-0.1,0.2-0.1c-0.1,0.1-0.1,0,0,0c0.1,0,0.1-0.1,0.2-0.1c0,0,0.2-0.1,0.1-0.1c-0.1,0.1,0.1,0,0.1,0c0.1,0,0.1,0,0.2-0.1 c0.1,0,0.1,0,0.2,0c0.2-0.1-0.2,0,0,0c0.2,0,0.4,0,0.6,0c0.1,0,0.2,0,0.2,0c0.2,0-0.2-0.1,0,0c0.1,0,0.3,0.1,0.4,0.1 c0.1,0,0.1,0,0.2,0.1c0.2,0.1-0.2-0.1,0,0c0.2,0.1,0.3,0.2,0.5,0.2c0.1,0,0.1,0.1,0.2,0.1c-0.2-0.1,0,0,0.1,0 c0.1,0.1,0.2,0.2,0.3,0.3c0,0,0.2,0.2,0.1,0.1c-0.1-0.1,0.1,0.1,0.1,0.1c0.1,0.2,0.2,0.3,0.3,0.5c0.1,0.2,0,0.1,0,0 c0,0.1,0.1,0.2,0.1,0.2c0.1,0.2,0.1,0.3,0.1,0.5c0,0.1,0,0.2,0.1,0.2c0.1,0.4,0-0.1,0,0.1c0,0.2,0,0.4,0,0.6c0,0.2,0,0.3,0,0.5 c0,0.3,0,0.1,0,0c0,0.1,0,0.2,0,0.2c0,0.2-0.1,0.3-0.1,0.5c0,0.1-0.1,0.2-0.1,0.2c-0.1,0.3,0.1-0.2-0.1,0.1 c-0.1,0.1-0.2,0.3-0.3,0.4c0.1-0.2,0,0,0,0c-0.1,0.1-0.1,0.1-0.2,0.2c-0.2,0.2-0.1,0.1,0,0c-0.1,0-0.1,0.1-0.2,0.1 c-0.2,0.1-0.1,0,0,0c0,0-0.4,0.1-0.2,0.1c-0.2,0-0.4,0-0.6,0c-0.1,0-0.2,0-0.3,0c0.2,0,0,0,0,0c-0.3-0.1-0.7-0.1-1-0.2 c-0.1,0-0.3-0.1-0.4-0.2c0.2,0.1-0.2-0.1-0.2-0.1c-0.3-0.2-0.6-0.3-0.9-0.6c0.2,0.2-0.2-0.2-0.2-0.2c-0.1-0.1-0.2-0.2-0.3-0.4 c-0.2-0.2,0,0,0,0c-0.1-0.1-0.1-0.2-0.2-0.3c0-0.1-0.1-0.1-0.1-0.2c0-0.1-0.2-0.4-0.1-0.1c-0.1-0.2-0.1-0.3-0.2-0.5 c0-0.1,0-0.1,0-0.2c0-0.1,0,0.2,0,0c0-0.1,0-0.1,0-0.2c0,0,0-0.4,0-0.1c0-0.2,0.1-0.3,0.1-0.5c0-0.1,0.1-0.1,0.1-0.2 c0-0.1,0-0.1,0,0.1c0,0,0-0.1,0.1-0.1c0.1-0.1,0.2-0.3,0.2-0.4c0.1-0.2,0,0,0,0c0.1-0.1,0.1-0.2,0.2-0.2c0-0.1,0.1-0.1,0.1-0.1 c0,0,0.2-0.2,0.1-0.1c-0.1,0.1,0,0,0.1,0c0.1,0,0.1-0.1,0.2-0.1c0.2-0.1,0,0,0,0c0.1,0,0.2-0.1,0.3-0.1c0.1,0,0.1,0,0.2,0 c-0.3,0.1,0,0,0.1,0c0.1,0,0.1,0,0.2,0c-0.2,0-0.1,0,0.1,0c0.7,0.2,1.4-0.2,1.6-0.9C194.9,170.4,194.5,169.6,193.8,169.5 L193.8,169.5z"/><path d="M208.5,137.1c-2-0.5-3.9,0.7-4.8,2.5c-0.9,2-0.4,4.1,1.1,5.6c1.4,1.4,3.5,2.3,5.5,2.2 c1.3-0.1,2.4-0.7,3.1-1.8c0.6-0.9,0.8-1.9,0.9-3c0.1-2.1-0.9-4.2-2.7-5.3c-1.8-1.1-4.2-1-5.8,0.4c-1.5,1.3-2,3.6-1.2,5.3 c0.8,1.8,2.8,2.5,4.6,2.1c2.2-0.5,3.6-3,2.3-5c-0.7-1.1-2.1-1.5-3.3-0.8c-1.1,0.6-1.7,2.1-0.9,3.2c0.4,0.5,1.1,0.9,1.8,0.5 c0.5-0.3,0.9-1.2,0.5-1.8c0,0-0.1-0.1-0.1-0.1c0,0,0.1,0.3,0.1,0.3c0,0.3-0.1,0.2,0,0.1c-0.2,0.4,0,0.1,0,0.1c0,0,0,0,0-0.1 c0,0-0.1,0.1-0.1,0.1c0,0,0.2-0.2,0.1-0.1c-0.1,0.1,0,0,0.1,0c0.1,0-0.2,0,0,0c-0.3,0-0.1,0-0.1,0c-0.3,0-0.2,0-0.1,0 c-0.2-0.1-0.1-0.1,0,0c-0.2-0.1-0.1-0.1,0,0c0.2,0.1,0,0,0,0c0,0,0.1,0.1,0.1,0.2c-0.1-0.2,0-0.1,0,0c0,0.1,0,0.3,0,0 c0,0.1,0,0.3,0,0.4c0-0.3,0,0-0.1,0.1c0.1-0.3,0,0-0.1,0.1c-0.1,0.2,0,0,0,0c-0.1,0.1-0.1,0.1-0.2,0.2c-0.1,0.1-0.2,0.1,0,0 c-0.1,0-0.1,0.1-0.2,0.1c-0.1,0.1-0.4,0.2-0.1,0.1c-0.1,0-0.2,0.1-0.4,0.1c-0.1,0-0.1,0-0.2,0c0.3-0.1,0.1,0,0,0 c-0.1,0-0.3,0-0.4,0c-0.1,0-0.2-0.1,0.1,0c-0.1,0-0.1,0-0.2,0c-0.1,0-0.2-0.1-0.4-0.1c0.3,0.1,0.1,0.1,0,0c-0.1,0-0.2-0.1-0.2-0.1 c-0.1,0-0.2-0.1,0,0c0,0-0.1-0.1-0.1-0.1c0,0-0.1-0.1-0.1-0.1c0,0,0.1,0.2,0,0c-0.1-0.1-0.1-0.2-0.2-0.4c0,0,0.1,0.2,0,0 c0-0.1,0-0.2-0.1-0.2c0-0.1-0.1-0.3,0,0c0-0.1,0-0.1,0-0.2c0-0.1,0-0.3,0-0.4c0-0.1,0.1-0.2,0,0c0-0.1,0-0.1,0-0.2 c0-0.2,0.1-0.3,0.1-0.5c0-0.2-0.1,0.2,0,0c0-0.1,0.1-0.1,0.1-0.2c0-0.1,0.3-0.4,0.1-0.2c0.1-0.1,0.2-0.2,0.3-0.3 c0.1,0,0.1-0.1,0.2-0.1c-0.1,0.1-0.1,0,0,0c0.1,0,0.1-0.1,0.2-0.1c0,0,0.2-0.1,0.1-0.1c-0.1,0.1,0.1,0,0.1,0c0.1,0,0.1,0,0.2-0.1 c0.1,0,0.1,0,0.2,0c0.2-0.1-0.2,0,0,0c0.2,0,0.4,0,0.6,0c0.1,0,0.2,0,0.2,0c0.2,0-0.2-0.1,0,0c0.1,0,0.3,0.1,0.4,0.1 c0.1,0,0.1,0,0.2,0.1c0.2,0.1-0.2-0.1,0,0c0.2,0.1,0.3,0.2,0.5,0.2c0.1,0,0.1,0.1,0.2,0.1c-0.2-0.1,0,0,0.1,0 c0.1,0.1,0.2,0.2,0.3,0.3c0,0,0.2,0.2,0.1,0.1c-0.1-0.1,0.1,0.1,0.1,0.1c0.1,0.2,0.2,0.3,0.3,0.5c0.1,0.2,0,0.1,0,0 c0,0.1,0.1,0.2,0.1,0.2c0.1,0.2,0.1,0.3,0.1,0.5c0,0.1,0,0.2,0.1,0.2c0.1,0.4,0-0.1,0,0.1c0,0.2,0,0.4,0,0.6c0,0.2,0,0.3,0,0.5 c0,0.3,0,0.1,0,0c0,0.1,0,0.2,0,0.2c0,0.2-0.1,0.3-0.1,0.5c0,0.1-0.1,0.2-0.1,0.2c-0.1,0.3,0.1-0.2-0.1,0.1 c-0.1,0.1-0.2,0.3-0.3,0.4c0.1-0.2,0,0,0,0c-0.1,0.1-0.1,0.1-0.2,0.2c-0.2,0.2-0.1,0.1,0,0c-0.1,0-0.1,0.1-0.2,0.1 c-0.2,0.1-0.1,0,0,0c0,0-0.4,0.1-0.2,0.1c-0.2,0-0.4,0-0.6,0c-0.1,0-0.2,0-0.3,0c0.2,0,0,0,0,0c-0.3-0.1-0.7-0.1-1-0.2 c-0.1,0-0.3-0.1-0.4-0.2c0.2,0.1-0.2-0.1-0.2-0.1c-0.3-0.2-0.6-0.3-0.9-0.6c0.2,0.2-0.2-0.2-0.2-0.2c-0.1-0.1-0.2-0.2-0.3-0.4 c-0.2-0.2,0,0,0,0c-0.1-0.1-0.1-0.2-0.2-0.3c0-0.1-0.1-0.1-0.1-0.2c0-0.1-0.2-0.4-0.1-0.1c-0.1-0.2-0.1-0.3-0.2-0.5 c0-0.1,0-0.1,0-0.2c0-0.1,0,0.2,0,0c0-0.1,0-0.1,0-0.2c0,0,0-0.4,0-0.1c0-0.2,0.1-0.3,0.1-0.5c0-0.1,0.1-0.1,0.1-0.2 c0-0.1,0-0.1,0,0.1c0,0,0-0.1,0.1-0.1c0.1-0.1,0.2-0.3,0.2-0.4c0.1-0.2,0,0,0,0c0.1-0.1,0.1-0.2,0.2-0.2c0-0.1,0.1-0.1,0.1-0.1 c0,0,0.2-0.2,0.1-0.1c-0.1,0.1,0,0,0.1,0c0.1,0,0.1-0.1,0.2-0.1c0.2-0.1,0,0,0,0c0.1,0,0.2-0.1,0.3-0.1c0.1,0,0.1,0,0.2,0 c-0.3,0.1,0,0,0.1,0c0.1,0,0.1,0,0.2,0c-0.2,0-0.1,0,0.1,0c0.7,0.2,1.4-0.2,1.6-0.9C209.5,138.1,209.2,137.3,208.5,137.1 L208.5,137.1z"/><path d="M117.6,146.1c-2-0.5-3.9,0.7-4.8,2.5c-0.9,2-0.4,4.1,1.1,5.6c1.4,1.4,3.5,2.3,5.5,2.2 c1.3-0.1,2.4-0.7,3.1-1.8c0.6-0.9,0.8-1.9,0.9-3c0.1-2.1-0.9-4.2-2.7-5.3c-1.8-1.1-4.2-1-5.8,0.4c-1.5,1.3-2,3.6-1.2,5.3 c0.8,1.8,2.8,2.5,4.6,2.1c2.2-0.5,3.6-3,2.3-5c-0.7-1.1-2.1-1.5-3.3-0.8c-1.1,0.6-1.7,2.1-0.9,3.2c0.4,0.5,1.1,0.9,1.8,0.5 c0.5-0.3,0.9-1.2,0.5-1.8c0,0-0.1-0.1-0.1-0.1c0,0,0.1,0.3,0.1,0.3c0,0.3-0.1,0.2,0,0.1c-0.2,0.4,0,0.1,0,0.1c0,0,0,0,0-0.1 c0,0-0.1,0.1-0.1,0.1c0,0,0.2-0.2,0.1-0.1c-0.1,0.1,0,0,0.1,0c0.1,0-0.2,0,0,0c-0.3,0-0.1,0-0.1,0c-0.3,0-0.2,0-0.1,0 c-0.2-0.1-0.1-0.1,0,0c-0.2-0.1-0.1-0.1,0,0c0.2,0.1,0,0,0,0c0,0,0.1,0.1,0.1,0.2c-0.1-0.2,0-0.1,0,0c0,0.1,0,0.3,0,0 c0,0.1,0,0.3,0,0.4c0-0.3,0,0-0.1,0.1c0.1-0.3,0,0-0.1,0.1c-0.1,0.2,0,0,0,0c-0.1,0.1-0.1,0.1-0.2,0.2c-0.1,0.1-0.2,0.1,0,0 c-0.1,0-0.1,0.1-0.2,0.1c-0.1,0.1-0.4,0.2-0.1,0.1c-0.1,0-0.2,0.1-0.4,0.1c-0.1,0-0.1,0-0.2,0c0.3-0.1,0.1,0,0,0 c-0.1,0-0.3,0-0.4,0c-0.1,0-0.2-0.1,0.1,0c-0.1,0-0.1,0-0.2,0c-0.1,0-0.2-0.1-0.4-0.1c0.3,0.1,0.1,0.1,0,0c-0.1,0-0.2-0.1-0.2-0.1 c-0.1,0-0.2-0.1,0,0c0,0-0.1-0.1-0.1-0.1c0,0-0.1-0.1-0.1-0.1c0,0,0.1,0.2,0,0c-0.1-0.1-0.1-0.2-0.2-0.4c0,0,0.1,0.2,0,0 c0-0.1,0-0.2-0.1-0.2c0-0.1-0.1-0.3,0,0c0-0.1,0-0.1,0-0.2c0-0.1,0-0.3,0-0.4c0-0.1,0.1-0.2,0,0c0-0.1,0-0.1,0-0.2 c0-0.2,0.1-0.3,0.1-0.5c0-0.2-0.1,0.2,0,0c0-0.1,0.1-0.1,0.1-0.2c0-0.1,0.3-0.4,0.1-0.2c0.1-0.1,0.2-0.2,0.3-0.3 c0.1,0,0.1-0.1,0.2-0.1c-0.1,0.1-0.1,0,0,0c0.1,0,0.1-0.1,0.2-0.1c0,0,0.2-0.1,0.1-0.1c-0.1,0.1,0.1,0,0.1,0c0.1,0,0.1,0,0.2-0.1 c0.1,0,0.1,0,0.2,0c0.2-0.1-0.2,0,0,0c0.2,0,0.4,0,0.6,0c0.1,0,0.2,0,0.2,0c0.2,0-0.2-0.1,0,0c0.1,0,0.3,0.1,0.4,0.1 c0.1,0,0.1,0,0.2,0.1c0.2,0.1-0.2-0.1,0,0c0.2,0.1,0.3,0.2,0.5,0.2c0.1,0,0.1,0.1,0.2,0.1c-0.2-0.1,0,0,0.1,0 c0.1,0.1,0.2,0.2,0.3,0.3c0,0,0.2,0.2,0.1,0.1c-0.1-0.1,0.1,0.1,0.1,0.1c0.1,0.2,0.2,0.3,0.3,0.5c0.1,0.2,0,0.1,0,0 c0,0.1,0.1,0.2,0.1,0.2c0.1,0.2,0.1,0.3,0.1,0.5c0,0.1,0,0.2,0.1,0.2c0.1,0.4,0-0.1,0,0.1c0,0.2,0,0.4,0,0.6c0,0.2,0,0.3,0,0.5 c0,0.3,0,0.1,0,0c0,0.1,0,0.2,0,0.2c0,0.2-0.1,0.3-0.1,0.5c0,0.1-0.1,0.2-0.1,0.2c-0.1,0.3,0.1-0.2-0.1,0.1 c-0.1,0.1-0.2,0.3-0.3,0.4c0.1-0.2,0,0,0,0c-0.1,0.1-0.1,0.1-0.2,0.2c-0.2,0.2-0.1,0.1,0,0c-0.1,0-0.1,0.1-0.2,0.1 c-0.2,0.1-0.1,0,0,0c0,0-0.4,0.1-0.2,0.1c-0.2,0-0.4,0-0.6,0c-0.1,0-0.2,0-0.3,0c0.2,0,0,0,0,0c-0.3-0.1-0.7-0.1-1-0.2 c-0.1,0-0.3-0.1-0.4-0.2c0.2,0.1-0.2-0.1-0.2-0.1c-0.3-0.2-0.6-0.3-0.9-0.6c0.2,0.2-0.2-0.2-0.2-0.2c-0.1-0.1-0.2-0.2-0.3-0.4 c-0.2-0.2,0,0,0,0c-0.1-0.1-0.1-0.2-0.2-0.3c0-0.1-0.1-0.1-0.1-0.2c0-0.1-0.2-0.4-0.1-0.1c-0.1-0.2-0.1-0.3-0.2-0.5 c0-0.1,0-0.1,0-0.2c0-0.1,0,0.2,0,0c0-0.1,0-0.1,0-0.2c0,0,0-0.4,0-0.1c0-0.2,0.1-0.3,0.1-0.5c0-0.1,0.1-0.1,0.1-0.2 c0-0.1,0-0.1,0,0.1c0,0,0-0.1,0.1-0.1c0.1-0.1,0.2-0.3,0.2-0.4c0.1-0.2,0,0,0,0c0.1-0.1,0.1-0.2,0.2-0.2c0-0.1,0.1-0.1,0.1-0.1 c0,0,0.2-0.2,0.1-0.1c-0.1,0.1,0,0,0.1,0c0.1,0,0.1-0.1,0.2-0.1c0.2-0.1,0,0,0,0c0.1,0,0.2-0.1,0.3-0.1c0.1,0,0.1,0,0.2,0 c-0.3,0.1,0,0,0.1,0c0.1,0,0.1,0,0.2,0c-0.2,0-0.1,0,0.1,0c0.7,0.2,1.4-0.2,1.6-0.9C118.7,147,118.3,146.2,117.6,146.1 L117.6,146.1z"/><path d="M129.2,165.3c-2-0.5-3.9,0.7-4.8,2.5c-0.9,2-0.4,4.1,1.1,5.6c1.4,1.4,3.5,2.3,5.5,2.2 c1.3-0.1,2.4-0.7,3.1-1.8c0.6-0.9,0.8-1.9,0.9-3c0.1-2.1-0.9-4.2-2.7-5.3c-1.8-1.1-4.2-1-5.8,0.4c-1.5,1.3-2,3.6-1.2,5.3 c0.8,1.8,2.8,2.5,4.6,2.1c2.2-0.5,3.6-3,2.3-5c-0.7-1.1-2.1-1.5-3.3-0.8c-1.1,0.6-1.7,2.1-0.9,3.2c0.4,0.5,1.1,0.9,1.8,0.5 c0.5-0.3,0.9-1.2,0.5-1.8c0,0-0.1-0.1-0.1-0.1c0,0,0.1,0.3,0.1,0.3c0,0.3-0.1,0.2,0,0.1c-0.2,0.4,0,0.1,0,0.1c0,0,0,0,0-0.1 c0,0-0.1,0.1-0.1,0.1c0,0,0.2-0.2,0.1-0.1c-0.1,0.1,0,0,0.1,0c0.1,0-0.2,0,0,0c-0.3,0-0.1,0-0.1,0c-0.3,0-0.2,0-0.1,0 c-0.2-0.1-0.1-0.1,0,0c-0.2-0.1-0.1-0.1,0,0c0.2,0.1,0,0,0,0c0,0,0.1,0.1,0.1,0.2c-0.1-0.2,0-0.1,0,0c0,0.1,0,0.3,0,0 c0,0.1,0,0.3,0,0.4c0-0.3,0,0-0.1,0.1c0.1-0.3,0,0-0.1,0.1c-0.1,0.2,0,0,0,0c-0.1,0.1-0.1,0.1-0.2,0.2c-0.1,0.1-0.2,0.1,0,0 c-0.1,0-0.1,0.1-0.2,0.1c-0.1,0.1-0.4,0.2-0.1,0.1c-0.1,0-0.2,0.1-0.4,0.1c-0.1,0-0.1,0-0.2,0c0.3-0.1,0.1,0,0,0 c-0.1,0-0.3,0-0.4,0c-0.1,0-0.2-0.1,0.1,0c-0.1,0-0.1,0-0.2,0c-0.1,0-0.2-0.1-0.4-0.1c0.3,0.1,0.1,0.1,0,0c-0.1,0-0.2-0.1-0.2-0.1 c-0.1,0-0.2-0.1,0,0c0,0-0.1-0.1-0.1-0.1c0,0-0.1-0.1-0.1-0.1c0,0,0.1,0.2,0,0c-0.1-0.1-0.1-0.2-0.2-0.4c0,0,0.1,0.2,0,0 c0-0.1,0-0.2-0.1-0.2c0-0.1-0.1-0.3,0,0c0-0.1,0-0.1,0-0.2c0-0.1,0-0.3,0-0.4c0-0.1,0.1-0.2,0,0c0-0.1,0-0.1,0-0.2 c0-0.2,0.1-0.3,0.1-0.5c0-0.2-0.1,0.2,0,0c0-0.1,0.1-0.1,0.1-0.2c0-0.1,0.3-0.4,0.1-0.2c0.1-0.1,0.2-0.2,0.3-0.3 c0.1,0,0.1-0.1,0.2-0.1c-0.1,0.1-0.1,0,0,0c0.1,0,0.1-0.1,0.2-0.1c0,0,0.2-0.1,0.1-0.1c-0.1,0.1,0.1,0,0.1,0c0.1,0,0.1,0,0.2-0.1 c0.1,0,0.1,0,0.2,0c0.2-0.1-0.2,0,0,0c0.2,0,0.4,0,0.6,0c0.1,0,0.2,0,0.2,0c0.2,0-0.2-0.1,0,0c0.1,0,0.3,0.1,0.4,0.1 c0.1,0,0.1,0,0.2,0.1c0.2,0.1-0.2-0.1,0,0c0.2,0.1,0.3,0.2,0.5,0.2c0.1,0,0.1,0.1,0.2,0.1c-0.2-0.1,0,0,0.1,0 c0.1,0.1,0.2,0.2,0.3,0.3c0,0,0.2,0.2,0.1,0.1c-0.1-0.1,0.1,0.1,0.1,0.1c0.1,0.2,0.2,0.3,0.3,0.5c0.1,0.2,0,0.1,0,0 c0,0.1,0.1,0.2,0.1,0.2c0.1,0.2,0.1,0.3,0.1,0.5c0,0.1,0,0.2,0.1,0.2c0.1,0.4,0-0.1,0,0.1c0,0.2,0,0.4,0,0.6c0,0.2,0,0.3,0,0.5 c0,0.3,0,0.1,0,0c0,0.1,0,0.2,0,0.2c0,0.2-0.1,0.3-0.1,0.5c0,0.1-0.1,0.2-0.1,0.2c-0.1,0.3,0.1-0.2-0.1,0.1 c-0.1,0.1-0.2,0.3-0.3,0.4c0.1-0.2,0,0,0,0c-0.1,0.1-0.1,0.1-0.2,0.2c-0.2,0.2-0.1,0.1,0,0c-0.1,0-0.1,0.1-0.2,0.1 c-0.2,0.1-0.1,0,0,0c0,0-0.4,0.1-0.2,0.1c-0.2,0-0.4,0-0.6,0c-0.1,0-0.2,0-0.3,0c0.2,0,0,0,0,0c-0.3-0.1-0.7-0.1-1-0.2 c-0.1,0-0.3-0.1-0.4-0.2c0.2,0.1-0.2-0.1-0.2-0.1c-0.3-0.2-0.6-0.3-0.9-0.6c0.2,0.2-0.2-0.2-0.2-0.2c-0.1-0.1-0.2-0.2-0.3-0.4 c-0.2-0.2,0,0,0,0c-0.1-0.1-0.1-0.2-0.2-0.3c0-0.1-0.1-0.1-0.1-0.2c0-0.1-0.2-0.4-0.1-0.1c-0.1-0.2-0.1-0.3-0.2-0.5 c0-0.1,0-0.1,0-0.2c0-0.1,0,0.2,0,0c0-0.1,0-0.1,0-0.2c0,0,0-0.4,0-0.1c0-0.2,0.1-0.3,0.1-0.5c0-0.1,0.1-0.1,0.1-0.2 c0-0.1,0-0.1,0,0.1c0,0,0-0.1,0.1-0.1c0.1-0.1,0.2-0.3,0.2-0.4c0.1-0.2,0,0,0,0c0.1-0.1,0.1-0.2,0.2-0.2c0-0.1,0.1-0.1,0.1-0.1 c0,0,0.2-0.2,0.1-0.1c-0.1,0.1,0,0,0.1,0c0.1,0,0.1-0.1,0.2-0.1c0.2-0.1,0,0,0,0c0.1,0,0.2-0.1,0.3-0.1c0.1,0,0.1,0,0.2,0 c-0.3,0.1,0,0,0.1,0c0.1,0,0.1,0,0.2,0c-0.2,0-0.1,0,0.1,0c0.7,0.2,1.4-0.2,1.6-0.9C130.3,166.2,129.9,165.5,129.2,165.3 L129.2,165.3z"/><path d="M108.8,173.4c-2-0.5-3.9,0.7-4.8,2.5c-0.9,2-0.4,4.1,1.1,5.6c1.4,1.4,3.5,2.3,5.5,2.2 c1.3-0.1,2.4-0.7,3.1-1.8c0.6-0.9,0.8-1.9,0.9-3c0.1-2.1-0.9-4.2-2.7-5.3c-1.8-1.1-4.2-1-5.8,0.4c-1.5,1.3-2,3.6-1.2,5.3 c0.8,1.8,2.8,2.5,4.6,2.1c2.2-0.5,3.6-3,2.3-5c-0.7-1.1-2.1-1.5-3.3-0.8c-1.1,0.6-1.7,2.1-0.9,3.2c0.4,0.5,1.1,0.9,1.8,0.5 c0.5-0.3,0.9-1.2,0.5-1.8c0,0-0.1-0.1-0.1-0.1c0,0,0.1,0.3,0.1,0.3c0,0.3-0.1,0.2,0,0.1c-0.2,0.4,0,0.1,0,0.1c0,0,0,0,0-0.1 c0,0-0.1,0.1-0.1,0.1c0,0,0.2-0.2,0.1-0.1c-0.1,0.1,0,0,0.1,0c0.1,0-0.2,0,0,0c-0.3,0-0.1,0-0.1,0c-0.3,0-0.2,0-0.1,0 c-0.2-0.1-0.1-0.1,0,0c-0.2-0.1-0.1-0.1,0,0c0.2,0.1,0,0,0,0c0,0,0.1,0.1,0.1,0.2c-0.1-0.2,0-0.1,0,0c0,0.1,0,0.3,0,0 c0,0.1,0,0.3,0,0.4c0-0.3,0,0-0.1,0.1c0.1-0.3,0,0-0.1,0.1c-0.1,0.2,0,0,0,0c-0.1,0.1-0.1,0.1-0.2,0.2c-0.1,0.1-0.2,0.1,0,0 c-0.1,0-0.1,0.1-0.2,0.1c-0.1,0.1-0.4,0.2-0.1,0.1c-0.1,0-0.2,0.1-0.4,0.1c-0.1,0-0.1,0-0.2,0c0.3-0.1,0.1,0,0,0 c-0.1,0-0.3,0-0.4,0c-0.1,0-0.2-0.1,0.1,0c-0.1,0-0.1,0-0.2,0c-0.1,0-0.2-0.1-0.4-0.1c0.3,0.1,0.1,0.1,0,0c-0.1,0-0.2-0.1-0.2-0.1 c-0.1,0-0.2-0.1,0,0c0,0-0.1-0.1-0.1-0.1c0,0-0.1-0.1-0.1-0.1c0,0,0.1,0.2,0,0c-0.1-0.1-0.1-0.2-0.2-0.4c0,0,0.1,0.2,0,0 c0-0.1,0-0.2-0.1-0.2c0-0.1-0.1-0.3,0,0c0-0.1,0-0.1,0-0.2c0-0.1,0-0.3,0-0.4c0-0.1,0.1-0.2,0,0c0-0.1,0-0.1,0-0.2 c0-0.2,0.1-0.3,0.1-0.5c0-0.2-0.1,0.2,0,0c0-0.1,0.1-0.1,0.1-0.2c0-0.1,0.3-0.4,0.1-0.2c0.1-0.1,0.2-0.2,0.3-0.3 c0.1,0,0.1-0.1,0.2-0.1c-0.1,0.1-0.1,0,0,0c0.1,0,0.1-0.1,0.2-0.1c0,0,0.2-0.1,0.1-0.1c-0.1,0.1,0.1,0,0.1,0c0.1,0,0.1,0,0.2-0.1 c0.1,0,0.1,0,0.2,0c0.2-0.1-0.2,0,0,0c0.2,0,0.4,0,0.6,0c0.1,0,0.2,0,0.2,0c0.2,0-0.2-0.1,0,0c0.1,0,0.3,0.1,0.4,0.1 c0.1,0,0.1,0,0.2,0.1c0.2,0.1-0.2-0.1,0,0c0.2,0.1,0.3,0.2,0.5,0.2c0.1,0,0.1,0.1,0.2,0.1c-0.2-0.1,0,0,0.1,0 c0.1,0.1,0.2,0.2,0.3,0.3c0,0,0.2,0.2,0.1,0.1c-0.1-0.1,0.1,0.1,0.1,0.1c0.1,0.2,0.2,0.3,0.3,0.5c0.1,0.2,0,0.1,0,0 c0,0.1,0.1,0.2,0.1,0.2c0.1,0.2,0.1,0.3,0.1,0.5c0,0.1,0,0.2,0.1,0.2c0.1,0.4,0-0.1,0,0.1c0,0.2,0,0.4,0,0.6c0,0.2,0,0.3,0,0.5 c0,0.3,0,0.1,0,0c0,0.1,0,0.2,0,0.2c0,0.2-0.1,0.3-0.1,0.5c0,0.1-0.1,0.2-0.1,0.2c-0.1,0.3,0.1-0.2-0.1,0.1 c-0.1,0.1-0.2,0.3-0.3,0.4c0.1-0.2,0,0,0,0c-0.1,0.1-0.1,0.1-0.2,0.2c-0.2,0.2-0.1,0.1,0,0c-0.1,0-0.1,0.1-0.2,0.1 c-0.2,0.1-0.1,0,0,0c0,0-0.4,0.1-0.2,0.1c-0.2,0-0.4,0-0.6,0c-0.1,0-0.2,0-0.3,0c0.2,0,0,0,0,0c-0.3-0.1-0.7-0.1-1-0.2 c-0.1,0-0.3-0.1-0.4-0.2c0.2,0.1-0.2-0.1-0.2-0.1c-0.3-0.2-0.6-0.3-0.9-0.6c0.2,0.2-0.2-0.2-0.2-0.2c-0.1-0.1-0.2-0.2-0.3-0.4 c-0.2-0.2,0,0,0,0c-0.1-0.1-0.1-0.2-0.2-0.3c0-0.1-0.1-0.1-0.1-0.2c0-0.1-0.2-0.4-0.1-0.1c-0.1-0.2-0.1-0.3-0.2-0.5 c0-0.1,0-0.1,0-0.2c0-0.1,0,0.2,0,0c0-0.1,0-0.1,0-0.2c0,0,0-0.4,0-0.1c0-0.2,0.1-0.3,0.1-0.5c0-0.1,0.1-0.1,0.1-0.2 c0-0.1,0-0.1,0,0.1c0,0,0-0.1,0.1-0.1c0.1-0.1,0.2-0.3,0.2-0.4c0.1-0.2,0,0,0,0c0.1-0.1,0.1-0.2,0.2-0.2c0-0.1,0.1-0.1,0.1-0.1 c0,0,0.2-0.2,0.1-0.1c-0.1,0.1,0,0,0.1,0c0.1,0,0.1-0.1,0.2-0.1c0.2-0.1,0,0,0,0c0.1,0,0.2-0.1,0.3-0.1c0.1,0,0.1,0,0.2,0 c-0.3,0.1,0,0,0.1,0c0.1,0,0.1,0,0.2,0c-0.2,0-0.1,0,0.1,0c0.7,0.2,1.4-0.2,1.6-0.9C109.9,174.4,109.5,173.6,108.8,173.4 L108.8,173.4z"/><path d="M142.9,148.3c-2-0.5-3.9,0.7-4.8,2.5c-0.9,2-0.4,4.1,1.1,5.6c1.4,1.4,3.5,2.3,5.5,2.2 c1.3-0.1,2.4-0.7,3.1-1.8c0.6-0.9,0.8-1.9,0.9-3c0.1-2.1-0.9-4.2-2.7-5.3c-1.8-1.1-4.2-1-5.8,0.4c-1.5,1.3-2,3.6-1.2,5.3 c0.8,1.8,2.8,2.5,4.6,2.1c2.2-0.5,3.6-3,2.3-5c-0.7-1.1-2.1-1.5-3.3-0.8c-1.1,0.6-1.7,2.1-0.9,3.2c0.4,0.5,1.1,0.9,1.8,0.5 c0.5-0.3,0.9-1.2,0.5-1.8c0,0-0.1-0.1-0.1-0.1c0,0,0.1,0.3,0.1,0.3c0,0.3-0.1,0.2,0,0.1c-0.2,0.4,0,0.1,0,0.1c0,0,0,0,0-0.1 c0,0-0.1,0.1-0.1,0.1c0,0,0.2-0.2,0.1-0.1c-0.1,0.1,0,0,0.1,0c0.1,0-0.2,0,0,0c-0.3,0-0.1,0-0.1,0c-0.3,0-0.2,0-0.1,0 c-0.2-0.1-0.1-0.1,0,0c-0.2-0.1-0.1-0.1,0,0c0.2,0.1,0,0,0,0c0,0,0.1,0.1,0.1,0.2c-0.1-0.2,0-0.1,0,0c0,0.1,0,0.3,0,0 c0,0.1,0,0.3,0,0.4c0-0.3,0,0-0.1,0.1c0.1-0.3,0,0-0.1,0.1c-0.1,0.2,0,0,0,0c-0.1,0.1-0.1,0.1-0.2,0.2c-0.1,0.1-0.2,0.1,0,0 c-0.1,0-0.1,0.1-0.2,0.1c-0.1,0.1-0.4,0.2-0.1,0.1c-0.1,0-0.2,0.1-0.4,0.1c-0.1,0-0.1,0-0.2,0c0.3-0.1,0.1,0,0,0 c-0.1,0-0.3,0-0.4,0c-0.1,0-0.2-0.1,0.1,0c-0.1,0-0.1,0-0.2,0c-0.1,0-0.2-0.1-0.4-0.1c0.3,0.1,0.1,0.1,0,0c-0.1,0-0.2-0.1-0.2-0.1 c-0.1,0-0.2-0.1,0,0c0,0-0.1-0.1-0.1-0.1c0,0-0.1-0.1-0.1-0.1c0,0,0.1,0.2,0,0c-0.1-0.1-0.1-0.2-0.2-0.4c0,0,0.1,0.2,0,0 c0-0.1,0-0.2-0.1-0.2c0-0.1-0.1-0.3,0,0c0-0.1,0-0.1,0-0.2c0-0.1,0-0.3,0-0.4c0-0.1,0.1-0.2,0,0c0-0.1,0-0.1,0-0.2 c0-0.2,0.1-0.3,0.1-0.5c0-0.2-0.1,0.2,0,0c0-0.1,0.1-0.1,0.1-0.2c0-0.1,0.3-0.4,0.1-0.2c0.1-0.1,0.2-0.2,0.3-0.3 c0.1,0,0.1-0.1,0.2-0.1c-0.1,0.1-0.1,0,0,0c0.1,0,0.1-0.1,0.2-0.1c0,0,0.2-0.1,0.1-0.1c-0.1,0.1,0.1,0,0.1,0c0.1,0,0.1,0,0.2-0.1 c0.1,0,0.1,0,0.2,0c0.2-0.1-0.2,0,0,0c0.2,0,0.4,0,0.6,0c0.1,0,0.2,0,0.2,0c0.2,0-0.2-0.1,0,0c0.1,0,0.3,0.1,0.4,0.1 c0.1,0,0.1,0,0.2,0.1c0.2,0.1-0.2-0.1,0,0c0.2,0.1,0.3,0.2,0.5,0.2c0.1,0,0.1,0.1,0.2,0.1c-0.2-0.1,0,0,0.1,0 c0.1,0.1,0.2,0.2,0.3,0.3c0,0,0.2,0.2,0.1,0.1c-0.1-0.1,0.1,0.1,0.1,0.1c0.1,0.2,0.2,0.3,0.3,0.5c0.1,0.2,0,0.1,0,0 c0,0.1,0.1,0.2,0.1,0.2c0.1,0.2,0.1,0.3,0.1,0.5c0,0.1,0,0.2,0.1,0.2c0.1,0.4,0-0.1,0,0.1c0,0.2,0,0.4,0,0.6c0,0.2,0,0.3,0,0.5 c0,0.3,0,0.1,0,0c0,0.1,0,0.2,0,0.2c0,0.2-0.1,0.3-0.1,0.5c0,0.1-0.1,0.2-0.1,0.2c-0.1,0.3,0.1-0.2-0.1,0.1 c-0.1,0.1-0.2,0.3-0.3,0.4c0.1-0.2,0,0,0,0c-0.1,0.1-0.1,0.1-0.2,0.2c-0.2,0.2-0.1,0.1,0,0c-0.1,0-0.1,0.1-0.2,0.1 c-0.2,0.1-0.1,0,0,0c0,0-0.4,0.1-0.2,0.1c-0.2,0-0.4,0-0.6,0c-0.1,0-0.2,0-0.3,0c0.2,0,0,0,0,0c-0.3-0.1-0.7-0.1-1-0.2 c-0.1,0-0.3-0.1-0.4-0.2c0.2,0.1-0.2-0.1-0.2-0.1c-0.3-0.2-0.6-0.3-0.9-0.6c0.2,0.2-0.2-0.2-0.2-0.2c-0.1-0.1-0.2-0.2-0.3-0.4 c-0.2-0.2,0,0,0,0c-0.1-0.1-0.1-0.2-0.2-0.3c0-0.1-0.1-0.1-0.1-0.2c0-0.1-0.2-0.4-0.1-0.1c-0.1-0.2-0.1-0.3-0.2-0.5 c0-0.1,0-0.1,0-0.2c0-0.1,0,0.2,0,0c0-0.1,0-0.1,0-0.2c0,0,0-0.4,0-0.1c0-0.2,0.1-0.3,0.1-0.5c0-0.1,0.1-0.1,0.1-0.2 c0-0.1,0-0.1,0,0.1c0,0,0-0.1,0.1-0.1c0.1-0.1,0.2-0.3,0.2-0.4c0.1-0.2,0,0,0,0c0.1-0.1,0.1-0.2,0.2-0.2c0-0.1,0.1-0.1,0.1-0.1 c0,0,0.2-0.2,0.1-0.1c-0.1,0.1,0,0,0.1,0c0.1,0,0.1-0.1,0.2-0.1c0.2-0.1,0,0,0,0c0.1,0,0.2-0.1,0.3-0.1c0.1,0,0.1,0,0.2,0 c-0.3,0.1,0,0,0.1,0c0.1,0,0.1,0,0.2,0c-0.2,0-0.1,0,0.1,0c0.7,0.2,1.4-0.2,1.6-0.9C144,149.2,143.6,148.5,142.9,148.3 L142.9,148.3z"/><path d="M105.8,226.1c-2.6,1-4.5,3.7-4.2,6.6c0.3,2.7,2.4,5.3,5.2,5.7c2.5,0.4,5.5-0.9,6.1-3.6c0.7-3-1.5-6.3-4.1-7.7 c-1.3-0.7-3.1-1-4.5-0.3c-1.4,0.8-1.9,2.5-2,4c-0.1,2.7,1.3,5.6,3.7,7c1.3,0.7,3,1,4.4,0.1c1.2-0.8,1.8-2.3,1.6-3.7 c-0.2-1.6-1.2-2.8-2.4-3.7c-1-0.7-2.4-1.2-3.6-1.1c-1.5,0.1-2.9,1.1-2.9,2.7c0,1.5,1.3,3,2.9,2.9c1.6-0.1,3-1.6,2.8-3.2 c-0.2-1.6-2.1-3.8-3.7-2.3c-0.6,0.5-0.9,1.5-0.6,2.3c0.3,0.6,0.9,1.1,1.6,0.9c0.6-0.2,1.2-0.9,0.9-1.6c-0.1-0.2,0,0,0,0.1 c0,0.2-0.2,0.2-0.4,0.3c-0.3,0-0.7-0.1-1-0.1c0.2,0.1,0.3,0.2,0.4,0.3c0.1,0.1,0.1,0.2,0.2,0.3c-0.1-0.1,0.1,0.3,0,0 c0,0.1,0,0.2,0,0.3c0-0.2,0,0,0,0c0.1-0.2-0.1,0.2,0,0c0,0-0.3,0.3-0.2,0.2c0.1-0.1-0.2,0.1,0,0c-0.1,0-0.2,0.1-0.2,0.1 c0,0,0.1,0,0.1,0c-0.1,0-0.2,0-0.1,0c0,0,0.3,0.2,0,0c0,0-0.2-0.1,0,0c-0.2-0.2-0.1-0.1,0,0c-0.1-0.1-0.1-0.1,0,0c0,0,0-0.1,0-0.1 c0,0,0-0.1,0-0.1c0,0.1,0,0.1,0,0c0.1-0.1,0,0.1,0,0.1c0,0,0.1-0.2,0,0c0,0,0.3-0.2,0.1-0.1c-0.2,0.1,0.1-0.1,0.1-0.1 c-0.1,0-0.2,0,0,0c0.1,0,0.1,0,0.2-0.1c-0.3,0.1,0.1,0,0.1,0c0.1,0,0.2,0,0.3,0c0.2,0-0.3-0.1,0.1,0c0.2,0,0.4,0.1,0.5,0.1 c0.1,0,0.2,0.1,0.3,0.1c-0.1,0-0.2-0.1,0.1,0c0.2,0.1,0.4,0.2,0.6,0.3c0.4,0.2,0.6,0.4,0.9,0.8c0.1,0.2,0.1,0.2,0.3,0.4 c0.2,0.3,0.1,0.2,0.2,0.4c0,0,0.1,0.4,0.1,0.2c0-0.2,0,0.2,0,0.2c0,0.1,0,0.2,0,0.3c0,0.4,0-0.1,0,0.1c0,0.1-0.1,0.2-0.1,0.3 c0,0-0.1,0.2,0,0c0,0.1-0.1,0.1-0.1,0.2c-0.1,0.2,0.1-0.1-0.1,0.1c-0.3,0.3,0.1,0-0.1,0.1c0,0-0.3,0.2-0.1,0.1 c-0.2,0.1-0.2,0.1-0.4,0.1c-0.3,0-0.7-0.1-1-0.2c-0.7-0.3-1.3-0.9-1.7-1.5c-0.9-1.3-1.2-3-0.7-4.5c0.1-0.2,0.2-0.5,0.5-0.6 c0.2-0.1,0.3-0.1,0.5-0.1c0.3,0,0.4,0,0.5,0c0.8,0.2,1.4,0.5,2,1.1c0.7,0.6,1.2,1.3,1.5,2.2c0.2,0.4,0.3,0.8,0.3,1.2 c0,0.2,0,0.5,0,0.5c0,0.1,0,0.2-0.1,0.3c0,0.1-0.1,0.3,0,0.1c-0.1,0.2-0.2,0.3-0.3,0.5c0.1-0.2-0.2,0.2-0.2,0.2 c0,0-0.2,0.2-0.1,0.1c-0.1,0-0.1,0.1-0.2,0.1c-0.2,0.1-0.3,0.2-0.5,0.3c0.2-0.1-0.1,0-0.1,0c-0.1,0-0.2,0-0.2,0.1 c-0.1,0-0.2,0-0.2,0.1c0,0-0.4,0.1-0.2,0c0.2,0-0.2,0-0.2,0c-0.1,0-0.2,0-0.2,0c-0.1,0-0.2,0-0.2,0c-0.1,0-0.4,0-0.1,0 c-0.9-0.1-1.6-0.5-2.2-1.2c-0.2-0.2-0.2-0.2-0.3-0.4c-0.1-0.2-0.2-0.4-0.3-0.6c-0.1-0.1-0.1-0.3-0.2-0.5c0-0.1-0.1-0.2-0.1-0.3 c0,0-0.1-0.4,0-0.2c-0.1-0.9,0.1-1.6,0.5-2.4c0.3-0.4,0.4-0.7,0.8-1c0.2-0.2,0.2-0.2,0.4-0.3c0.1-0.1,0.2-0.1,0.3-0.2 c0,0,0.4-0.2,0.3-0.1c0.6-0.3,1.1-0.9,0.9-1.6C107.2,226.4,106.4,225.9,105.8,226.1L105.8,226.1z"/><path d="M144.5,187c-3,0.1-5.4,2.7-5.4,5.6c0,3.1,2.3,5.7,5.2,6.5c2.7,0.7,6.6,0,7.8-2.8c0.7-1.6,0.3-3.3-0.5-4.8 c-0.7-1.3-1.5-2.5-2.6-3.5c-1-1-2.4-1.7-3.9-1.6c-1.5,0.2-2.8,1.1-3.6,2.4c-1.5,2.7-0.5,6.4,1.6,8.6c1,1,2.3,1.8,3.8,1.7 c1.4,0,2.7-0.7,3.5-1.8c1-1.3,0.7-3,0-4.4c-0.7-1.3-1.6-2.7-2.9-3.4c-1.4-0.7-3.3-0.7-4.5,0.4c-1.5,1.3-1.1,3.4-0.3,5 c0.4,0.8,1.1,1.6,2,1.8c1.1,0.3,2-0.4,2.5-1.3c0.8-1.5,0.7-3.5-0.3-4.9c-0.4-0.6-1.5-1-2-0.3c-1,1.3-0.9,3.2,0.6,4.1 c0.6,0.4,1.4,0.1,1.8-0.5c0.4-0.6,0.1-1.4-0.5-1.8c0.1,0.1,0-0.1,0,0c-0.1-0.3,0,0.2-0.1-0.2c0,0,0,0.1,0,0.1c0-0.2,0-0.2,0,0 c0-0.1,0.1-0.2-0.1,0c-0.7-0.1-1.3-0.2-2-0.3c0.5,0.7,0.6,1.5,0.3,2.2c0,0.1-0.1,0.3-0.2,0.3c0,0,0.6-0.2,0.6-0.1 c0,0-0.1-0.1-0.1-0.1c-0.3-0.4-0.5-0.8-0.7-1.2c-0.1-0.3-0.2-0.7-0.1-1c0.1-0.2,0.3-0.3,0.5-0.4c0.1,0,0.2,0,0.3-0.1 c-0.2,0,0.1,0,0.1,0c0.1,0,0.2,0,0.3,0c-0.1,0-0.2,0,0.1,0c0.3,0.1,0.6,0.2,0.9,0.5c0.7,0.6,1.3,1.5,1.6,2.4 c0.1,0.2,0.1,0.4,0.2,0.7c0,0.3,0,0.2,0,0.1c0,0.1,0,0.2-0.1,0.3c-0.1,0.2,0.1-0.1,0,0c-0.1,0.1-0.1,0.2-0.2,0.3 c0.1-0.2-0.3,0.3-0.2,0.2c-0.1,0.1-0.3,0.2-0.5,0.3c-0.4,0.2,0.1,0-0.1,0c-0.1,0-0.2,0.1-0.3,0.1c0,0-0.2,0-0.1,0 c-0.1,0-0.2,0-0.3,0c-0.1,0-0.2,0-0.3,0c-0.3,0,0.1,0-0.2,0c-0.7-0.2-1.4-0.7-1.8-1.4c-1-1.4-1.7-3.7-0.7-5.3c0.4-0.6,1-1,1.6-0.9 c0.3,0,0.6,0.1,0.9,0.3c0.4,0.2,0.7,0.5,1,0.8c0.7,0.7,1.2,1.5,1.7,2.4c0.4,0.8,0.9,1.7,0.6,2.5c-0.2,0.6-0.8,1.1-1.4,1.4 c-0.9,0.4-1.9,0.5-2.9,0.4c-2-0.3-3.6-1.7-3.9-3.7c-0.1-0.8,0.1-1.7,0.6-2.3c0.6-0.7,1.4-1.2,2.2-1.2c0.7,0,1.3-0.6,1.3-1.3 C145.8,187.7,145.2,187,144.5,187L144.5,187z"/><path d="M104.3,195.5c-3,0.1-5.4,2.7-5.4,5.6c0,3.1,2.3,5.7,5.2,6.5c2.7,0.7,6.6,0,7.8-2.8c0.7-1.6,0.3-3.3-0.5-4.8 c-0.7-1.3-1.5-2.5-2.6-3.5c-1-1-2.4-1.7-3.9-1.6c-1.5,0.2-2.8,1.1-3.6,2.4c-1.5,2.7-0.5,6.4,1.6,8.6c1,1,2.3,1.8,3.8,1.7 c1.4,0,2.7-0.7,3.5-1.8c1-1.3,0.7-3,0-4.4c-0.7-1.3-1.6-2.7-2.9-3.4c-1.4-0.7-3.3-0.7-4.5,0.4c-1.5,1.3-1.1,3.4-0.3,5 c0.4,0.8,1.1,1.6,2,1.8c1.1,0.3,2-0.4,2.5-1.3c0.8-1.5,0.7-3.5-0.3-4.9c-0.4-0.6-1.5-1-2-0.3c-1,1.3-0.9,3.2,0.6,4.1 c0.6,0.4,1.4,0.1,1.8-0.5c0.4-0.6,0.1-1.4-0.5-1.8c0.1,0.1,0-0.1,0,0c-0.1-0.3,0,0.2-0.1-0.2c0,0,0,0.1,0,0.1c0-0.2,0-0.2,0,0 c0-0.1,0.1-0.2-0.1,0c-0.7-0.1-1.3-0.2-2-0.3c0.5,0.7,0.6,1.5,0.3,2.2c0,0.1-0.1,0.3-0.2,0.3c0,0,0.6-0.2,0.6-0.1 c0,0-0.1-0.1-0.1-0.1c-0.3-0.4-0.5-0.8-0.7-1.2c-0.1-0.3-0.2-0.7-0.1-1c0.1-0.2,0.3-0.3,0.5-0.4c0.1,0,0.2,0,0.3-0.1 c-0.2,0,0.1,0,0.1,0c0.1,0,0.2,0,0.3,0c-0.1,0-0.2,0,0.1,0c0.3,0.1,0.6,0.2,0.9,0.5c0.7,0.6,1.3,1.5,1.6,2.4 c0.1,0.2,0.1,0.4,0.2,0.7c0,0.3,0,0.2,0,0.1c0,0.1,0,0.2-0.1,0.3c-0.1,0.2,0.1-0.1,0,0c-0.1,0.1-0.1,0.2-0.2,0.3 c0.1-0.2-0.3,0.3-0.2,0.2c-0.1,0.1-0.3,0.2-0.5,0.3c-0.4,0.2,0.1,0-0.1,0c-0.1,0-0.2,0.1-0.3,0.1c0,0-0.2,0-0.1,0 c-0.1,0-0.2,0-0.3,0c-0.1,0-0.2,0-0.3,0c-0.3,0,0.1,0-0.2,0c-0.7-0.2-1.4-0.7-1.8-1.4c-1-1.4-1.7-3.7-0.7-5.3c0.4-0.6,1-1,1.6-0.9 c0.3,0,0.6,0.1,0.9,0.3c0.4,0.2,0.7,0.5,1,0.8c0.7,0.7,1.2,1.5,1.7,2.4c0.4,0.8,0.9,1.7,0.6,2.5c-0.2,0.6-0.8,1.1-1.4,1.4 c-0.9,0.4-1.9,0.5-2.9,0.4c-2-0.3-3.6-1.7-3.9-3.7c-0.1-0.8,0.1-1.7,0.6-2.3c0.6-0.7,1.4-1.2,2.2-1.2c0.7,0,1.3-0.6,1.3-1.3 C105.6,196.2,105,195.5,104.3,195.5L104.3,195.5z"/></g></g></svg>