<?xml version="1.0" encoding="UTF-8" standalone="no"?><svg xmlns="http://www.w3.org/2000/svg" xmlns:xlink="http://www.w3.org/1999/xlink" fill="#000000" height="510" preserveAspectRatio="xMidYMid meet" version="1" viewBox="-5.5 -2.8 486.3 510.0" width="486.3" zoomAndPan="magnify"><g><g><g id="change1_4"><path d="M480.2,260.8c-0.3-1.8-1.9-3-3.7-3.3c-2.3-0.6-4.2-0.4-8.4-0.3c-15.9,1.4-31.9,6.1-45.2,15.2 c-2.8,2-5.9,3.9-7.6,6.9c-1,2.6-0.8,5.6-1.2,8.3c-0.2,8.3-1.3,16.8,0.3,24.9c0.4,1.2,1.2,2.3,2.5,2.7c2,0.6,3.5-2.4,3.2-2.7 c0.4-0.5,0.8-1.2,0.9-1.7c0.1-0.1,0.2-0.2,0.2-0.3c1.9-9.9,11.2-19.3,19-25.2c11.7-6.9,22.1-11.3,35.6-13.4 c1.4-0.2,1.4,0.4,3.3-1.6C480.8,267.6,480.4,264,480.2,260.8z" fill="#ffbe4f"/></g><g id="change2_4"><path d="M189.1,42.3c-0.2-5.1-0.5-11.2-0.1-15.4c-0.1-1.3-1.7-1.8-2.7-1.1c-2.3-0.4-4.6-0.8-6.9-0.5 c-0.2,0.1-0.3,0.2-0.4,0.3c-0.6,0.1-1.1,0.4-1.1,1.2c1,44-0.8,88.1-1.6,132.1c-0.8,31.7,1.6,67.1,1.2,96.9 c-0.4,1.4-0.4,1.7-0.1,1.5c-1.1,2.1,1,4.6,3.4,4.4c1.7,0.1,5.1,0.3,6.6-0.7c0.6,0,1.1-0.1,1.4-0.3c1.9-1.4,0.9-3.2,1.2-5.9 C193.3,184.1,190.5,113.2,189.1,42.3z" fill="#202f5a"/></g><g id="change3_1"><path d="M353.5,73.2c-1.3-1.8-3-3.2-4.8-4.5c-1.2-1.5-2.7-2.8-4.5-3.7c-13.2-7.8-26.8-14.8-40.4-21.8 c-12.6-6.5-25.5-12.6-38.7-17.7c-17.2-5.3-34.9-8.8-52.4-12.4c-8-1.3-16.2-2.7-24.3-3.5c-2.7-1.4-6-2.2-9.6-2.5 c-0.5-2-1.6-4-2.4-5c-3.7-4.9-6.1,0.3-6.8,5.1c-0.7,0-1.4,0.1-2.1,0.1c-1.6,0.2-3.2,0.7-4.7,1.4c-19.5,0.6-39.2,2-58.2,6.3 C84,19.8,64.9,29,46.7,39.7c-12.8,8-28.2,13.6-37.5,26c-4.5,7.3-5.9,16.1-7,24.4c0.2,5.8-7.7,22.7,5.3,25.6 c4.3,1.2,8.9,1.2,13.3,1.1c23.7-0.9,47.5-1,71.2-2.3c26.5-1.7,53-2.7,79.4-3.8c4.4-0.6,9.2-1.5,12.6-4.4 c9.7-10.9,5.9-30.8,9.3-39.4c2.5,2.3,3,3.5,4.9,7.4c3.5,5.9,4.4,21.8,9.9,29.7c3.4,3.2,8.2,4.2,12.6,5.6c15,3.7,30.6,4.4,45.9,5.5 c21.6,1.4,43.2,2.3,64.7,5c0.3,0,0.6,0.1,0.8,0.1c3,0.5,6,1,9,1.3c2.5,0.3,5.2,0.5,7.4-1c9.3-7,6-20.1,7.5-30.2 C356.2,84.7,356.4,78.3,353.5,73.2z" fill="#f75454"/></g><g fill="#ffbe4f" id="change1_1"><path d="M244.8,70.8c-0.4-1.6-2.2-4.9-4-7.1c-17.7-18.2-28.6-43.3-52.5-54.3c-9.3-0.8-14.4-1.9-25.5-0.9 c-1.8,1.7-6.8,5.3-8.6,7.1c-12,10.1-24.1,20.8-32.1,35.1c-3.3,7.4-4.4,15.8-5.6,23.9c-1,11.8-3.1,24-1.7,35.8 c0.4,1.7,1.3,3.2,2.8,3.9c3.1,1.7,5.3,1.7,8.7,1.9c21.3,0.2,42.7-1.4,64-0.3c14.4,1.2,28.8,1.1,43.2,0.2c2-0.2,4.2-0.3,5.8-1.7 c5.4-5.3,5.5-16.4,5.6-25C244.6,85,245.9,76.7,244.8,70.8z"/><path d="M232.9,112.2C233,112.2,233,112.2,232.9,112.2c0.1,0,0.2,0,0.3,0C233.1,112.2,233,112.2,232.9,112.2z"/></g><g id="change2_5"><path d="M107.7,63.9c-29,0-61.5,4.2-91.4,9.2c-1.8,0.5-4.3-0.1-5.7,1.4c-0.7,1.2,0.5,2.7,1.8,2.3 c29.3-4.3,64.6-10.4,95.3-9.3C110,67.6,110,63.9,107.7,63.9z" fill="#202f5a"/></g><g id="change2_6"><path d="M232.4,68.2c-5.3-0.7-10.8-0.4-16.2-0.9c-27.5-2.2-54.9-4.6-82.5-3.7c-3,0.4-6.4-0.5-9.1,0.8 c-1.2,1.1-0.3,3.3,1.3,3.2c24.1-1.1,48.3-0.4,72.3,1.8c11.1,0.9,22.2,1.6,33.4,1.8c0.8,0,1.6-0.7,1.6-1.6 C233.1,69,232.8,68.5,232.4,68.2z" fill="#202f5a"/></g><g><g id="change1_2"><path d="M369.3,199.4c0.2-1.2-0.3-2.4-1.4-2.9c-0.3-0.2-1-0.4-1.8-0.5c0.3-1.9-1-4.3-1.6-4.6 c-0.5-0.3-1.1-0.2-1.5-0.1h0c0.1,0,0,0,0.1-0.1c0,0-0.1,0-0.1,0.1c-0.3,0-0.6,0-0.8,0c0-1.2-0.2-2.4-0.2-3.2 c-0.3-3-0.4-4.8-1.7-6.8c-0.5-0.7-1.3-1.5-2.2-1.2c-0.6,0.1-1,0.7-1.1,1.2c-0.7,1.3-0.3,3.5-0.8,4.9c-0.3,1.5-0.5,3.2-0.5,4.8 c-0.6,0-1.2,0.1-1.9,0.3c-1.1,0.3-1.6,1.4-1.3,2.5c-0.1,1.2-0.1,1.8-0.2,2.6c-0.6,0.1-1.2,0.2-1.8,0.5c0.3-0.2,0.2-0.3-0.7,0 c-1.3,0.3-2.1,1.3-2.4,2.5c-0.6,6.6,0,12.4,0.7,18.4c0.5,9.1,1.3,19.2,1.6,27.1c0.3,1.7,0.3,4,2.1,4.8c3.9,1.1,9.8,0.4,12.9,0.7 c2.2,0.2,2.8-0.7,3.5-2.6c1-3.4,1.6-14.7,2.1-21.7C370.4,217.6,369.9,205.5,369.3,199.4z" fill="#ffbe4f"/></g><g id="change4_1"><path d="M397.2,199.4c0.2-1.2-0.3-2.4-1.4-2.9c-0.3-0.2-1-0.4-1.8-0.5c0.3-1.9-1-4.3-1.6-4.6 c-0.5-0.3-1.1-0.2-1.5-0.1h0c0.1,0,0,0,0.1-0.1c0,0-0.1,0-0.1,0.1c-0.3,0-0.6,0-0.8,0c0-1.2-0.2-2.4-0.2-3.2 c-0.3-3-0.4-4.8-1.7-6.8c-0.5-0.7-1.3-1.5-2.2-1.2c-0.6,0.1-1,0.7-1.1,1.2c-0.7,1.3-0.3,3.5-0.8,4.9c-0.3,1.5-0.5,3.2-0.5,4.8 c-0.6,0-1.2,0.1-1.9,0.3c-1.1,0.3-1.6,1.4-1.3,2.5c-0.1,1.2-0.1,1.8-0.2,2.6c-0.6,0.1-1.2,0.2-1.8,0.5c0.3-0.2,0.2-0.3-0.7,0 c-1.3,0.3-2.1,1.3-2.4,2.5c-0.6,6.6,0,12.4,0.7,18.4c0.5,9.1,1.3,19.2,1.6,27.1c0.3,1.7,0.3,4,2.1,4.8c3.9,1.1,9.8,0.4,12.9,0.7 c2.2,0.2,2.8-0.7,3.5-2.6c1-3.4,1.6-14.7,2.1-21.7C398.3,217.6,397.8,205.5,397.2,199.4z" fill="#f66125"/></g></g><g id="change2_7"><path d="M340.2,69.6c-26-1.8-52-2.7-78-2.8c-3.9,0.3-8.3-1-11.9,0.3c-1.1,1.1-0.3,3.2,1.3,3.2 c29.6,0.8,59.1,1.9,88.6,4c1.8,0.3,3.8-0.9,3.3-2.9C342.5,69.3,341.8,69.9,340.2,69.6z" fill="#202f5a"/></g><g id="change1_5"><path d="M186.3,244.3c0-0.2,0.1-0.4,0.1-0.7c-0.5-4.2-0.3-8.6-0.7-12.8c0-0.1,0-0.2,0-0.4c0,0,0-0.1,0-0.1 c0,0,0,0,0-0.1c-0.5-1.4-3.2-2.1-4.9-2.6c-1.8-0.6-6-2.2-6.7-2.5c-8.1-3.7-18.4-9.6-26.7-14.9c-0.8-0.5-2.8-1.8-2.8-1.8 c0,0,0-0.1-0.1-0.1c-0.1-0.2-0.1-0.5-0.2-0.6c-0.6-3.2-1.4-7.1-3.9-8.3c-9.2-1.5-18.7-0.3-28-1.1c-7.2-0.4-14.5-0.3-21.7,0.4 c-2.3,0.1-5,0.8-5,3.6c-0.4,14.1,0,28.1-0.1,42.2c-0.3,1.5,0.4,2.6,1.4,3.1c0.2,0.2,0.5,0.4,0.8,0.5c31,0.5,62.2,1.1,93.2-0.8 c1.6-0.1,3.6,0.5,4.9-0.7c-0.1,0.2,0,0.2,0.4-0.3c0,0,0,0,0,0c0,0,0,0,0,0c0,0,0,0,0.1-0.1C186.8,245.6,186.7,244.9,186.3,244.3z" fill="#ffbe4f"/></g><g id="change3_2"><path d="M77.7,246.9c-0.8-0.9-0.2-2.7,1.2-2.6c61.3,1.9,93,2.3,154.3,2.2c68,0.6,117.5,2.1,185.5,0.2 c-0.4,0,1.6-0.3,2.3,0.6c0.7,0.7,0.7,1.6,0.4,2.5c0.1,0.2,0.2,0.3,0.2,0.5c0.1,7.7,0.4,15.5-0.2,23.2c-0.1,1.8-2.7,52.3-4.2,100.4 c-0.7,22.3-3.2,44.6-2.9,66.9c0.2,5.2-1.3,10.9-7.2,12c-37.3,3-74.8,2.1-112.3,0.4c-35.4,0.3-70.7-0.5-106.1-0.7 c-13.3,0.3-26.7,0.2-40-0.1c-21.6,0.8-43.2,1.5-64.9,0.7c-1.1-0.2-4.4,0-4.7-0.1c-0.3,0.2-0.3,0.2-0.2,0c-0.5,0.4-1,0.7-1.6,0.6 c-1-0.1-1.6-0.5-1.9-1c-0.4-0.2-0.8-0.5-1-1c-1.8-19.5,0.4-39.2-0.1-58.7c-1.6-36.6,3.7-119.4,3.7-119.4S77.7,254.7,77.7,246.9z" fill="#f75454"/></g><g><g><g id="change1_3"><path d="M346.7,462.7c9.2-3.5,20.7,1.5,23.5,10.9c0.9,1.6,1.5,3.3,1.9,5c1.3,6.1-1,12.9-5.5,17.2 c-14.1,11.4-34.1-2.2-33.2-14.5C334.2,472.8,337.3,466.5,346.7,462.7z" fill="#ffbe4f"/></g><g id="change2_1"><path d="M347.4,469.5c0.5-6.2,0.9-8.8,2.8-15.2c0.1-0.2,0.3-0.3,0.4-0.4c-0.3,0.2-0.4,0.3,0.1-0.3 c0.7-0.8,1.3-1,2.1-1.3c5.6-0.8,10.9-0.8,16.6-0.9c2.8,0,7.9-1.1,9.1,2.1c1.8,2.1-0.8,6.1-1.8,8.4c-5.5,10.4-16.2,19.8-20.6,26 c-2.3,2-4.6,0.9-5.8-0.4C346,482.5,347.4,475.4,347.4,469.5z" fill="#202f5a"/></g></g></g><g id="change1_6"><path d="M85.5,275.8c1.1-3.4,5.2-2,7.9-2.1c27.5-0.1,54.9,1.9,82.4,3.1c68.3-0.2,136.6,1.3,204.9,1.2 c8.8,0.3,17.8-1.2,26.5-0.7c2.7,1,1.9,5.4-1.1,5.3c-52.5,4.3-105.3,0.5-157.9,0.5c-25.6-0.2-51.2,0.4-76.7-0.6 c-26.4-1.5-52.9-3.8-79.3-2.7C89.4,279.9,84.6,279.9,85.5,275.8z" fill="#ffbe4f"/></g><g><g id="change4_2"><path d="M359.7,309c-18,2.8-32.2,15.5-49.8,19.8c-0.5,0.2-1,0.3-1.5,0.5c-0.2,0-0.4,0.1-0.6,0.1 c-19.8,2.8-41.2,1.6-59.2,11.4c-11.3,6-17.5,18.4-7.7,29c9.7,9.5,24.3,10.8,37.2,12.3c17.9,1.1,36-2.4,52.7-9 c11.3-3.9,22-9.3,31.2-17c5-3.7,10-7.7,13.4-13.4c2.3-3.3,3.5-9.3,3.8-12C381.6,317.5,373.4,307.8,359.7,309z" fill="#f66125"/></g><g id="change1_8"><path d="M381.9,324.3c-3.6-5.6-11.2-7.1-17.4-6.4c-12.4,1.2-22.5,13.3-32.8,16.7c-10.8,5.3-21.9,7.3-33.1,9.2 c-11.5,1.5-24.3,1.9-36.1,4.4c-9.6,2.1-20.5,5.7-25.2,15.1c-1.6,3.3-1.4,7.4,0.4,10.6c1.7,2.7,4.5,4.5,7.4,5.6 c14.9,5.9,31.4,3.6,46.9,2c30.3-4,71.9-10.9,88.4-40.5C383.1,336.1,384.9,329.5,381.9,324.3z" fill="#ffbe4f"/></g><g id="change4_3"><path d="M367.3,335.8c-18,2.8-32.2,15.5-49.8,19.8c-0.5,0.2-1,0.3-1.5,0.5c-0.2,0-0.4,0.1-0.6,0.1 c-19.8,2.8-41.2,1.6-59.2,11.4c-11.3,6-17.5,18.4-7.7,29c9.7,9.5,24.3,10.8,37.2,12.3c17.9,1.1,36-2.4,52.7-9 c11.3-3.9,22-9.3,31.2-17c5-3.7,10-7.7,13.4-13.4c2.3-3.3,3.5-9.3,3.8-12C389.2,344.3,381,334.5,367.3,335.8z" fill="#f66125"/></g><g id="change3_3"><path d="M371.8,324c-3.2-3-4.4,4.7-5.4,5c-1.2,1.5-2.6,1.8-3.3,2c-2.4,0.2-3.5-0.5-7.4-1.5c-2.8-0.7-5.8-0.9-8.4,0.5 c-2.5,1.4-4.1,4.1-5.6,6.5c-1.5,2.3-3,6.6-6,6.4c-2-0.1-5.7-1.4-8.7-1.4c-2.3,0.1-4.4,1-6.3,2.3c-4.4,2.9-7.3,10.8-13.1,7.6 c-3.2-2-7-5.8-10.9-3.2c-2.5,1.4-4.5,3.5-6.4,5.5c-1.2,1-1.7,1.7-3,1.6c-2.7-0.1-4.9-2.1-7.7-4c-2.8-2-7-1.5-9.6,0.7 c-2.6,2.2-3.9,5.3-5.9,7.2c-0.7,0.6-0.9,1-2.1,1.3c0,0,0,0,0,0c-0.1,0-0.2,0-0.4,0c-0.7,0-1.6-0.4-1.7-0.6 c-1.2-1-1.9-2.4-3.3-3.2c-1.8-1.3-4.4-1.3-6.1,0.3c-2.6,2.2-4.7,5.1-5.8,8.3c-0.6,2.1-1.6,6-0.6,7.9c0.7,0.7,2.1,0.2,2.1-0.9 c-0.5-4.9,1-9.4,3.8-12.4c1.3-1.2,2.4-2.9,4.3-2.3c2.7,1,3.9,5.7,8.1,5.1c3.3-0.4,5.9-5.1,7.2-6.7c2.6-4,6.8-4.8,10.2-1.8 c1.9,1.7,6.7,4.8,10.2,2.8c2.3-1.5,3.9-3.8,6.1-5.5c1-0.8,2.2-1.7,3.2-1.9c1.8,0,2.5,0.6,4,1.6c3.6,3.3,9.3,4.6,13.1,0.8 c2.8-2.7,4.9-6.6,8.9-7.6c3.2-1.2,7.6,1.8,12.2,1.3c7.6-2.9,7.5-15,15.3-13.7c3.6,0.1,6.7,3,10.8,2.7c1.8-0.2,3.6-0.9,5-2.2 c1.5-1,2.9-5,3.1-5.3C371.9,326.1,372.7,324.9,371.8,324z" fill="#f75454"/></g></g><g id="change1_7"><path d="M127.8,380.7c11.3-10,38.1-18.1,57-12.9c10.3,3,19.8,9.8,27.7,18.7c13.8,13.6,21.5,32.8,21.2,52.2 c0,1.3,0,2.6-0.1,3.9c0,0.4,0,0.7-0.1,1.1c-0.3,4.5-1.1,8.8-2.5,12.9c-1.6,5.7-4,11.2-7.2,16.5c-16.1,29.8-57.5,33.3-84.9,17.9 c-15.5-8.2-26.7-23.5-31-40.3C101,425.5,107.3,397.7,127.8,380.7z M117.3,419.9c12.1,2,32,6.3,46.2,8.7 c-8.5-13.8-16.9-27.7-25.1-41.6c-1.2,0.7-2.5,1.4-3.6,2.2C123.7,398,118.8,407.7,117.3,419.9z M144.4,383.8 c6.7,10.7,13.2,21.6,19.7,32.5c0.5-12.6,1.1-25.2,2.1-37.8C158.4,378.8,150.9,380.9,144.4,383.8z M188,382.7 c-4.7-2.2-9.6-3.4-14.6-4c-0.3,14.2-1.3,28.5-2.1,42.7c9.6-10.5,19.2-20.9,28.9-31.2C196.1,387,191.9,384.3,188,382.7z M220.7,416.6c-1.4-2.9-2.8-5.7-4.2-8.4c-3.1-4.7-6.9-9.1-10.9-13.1c-10.6,11.9-21.5,23.5-32.4,35c17.3,2.5,35.1,4.2,51.9,8.9 C225.2,431,223.7,423.2,220.7,416.6z M214.5,471.4c5.9-8.1,9.1-17.3,10.2-26.4c-15.8-3.6-32.1-6.1-48.3-8.5 c3.7,5.9,7.4,11.8,11.2,17.6c5.6,8.8,11.3,17.6,16.4,26.7C208.6,478,212.4,474.7,214.5,471.4z M190.5,486.7 c2.5-0.7,5.1-1.6,7.6-2.8c-9.2-14.6-18.5-29.3-27.6-44c-0.6,16.6,0.6,33.3-1.8,49.7C175.5,489.8,182.8,488.9,190.5,486.7z M160.4,488.7c0.4,0.1,0.9,0.1,1.3,0.2c0.7-16,1.1-32.1,1.5-48.2c-7.2,7.7-14.4,15.5-21.5,23.4c-2.5,3-5.3,5.8-8.2,8.4 C141,479.4,151.1,486.2,160.4,488.7z M116.9,434.1c1.1,11.5,1.3,17.8,9.5,30.5c0.7,0.9,1.4,1.8,2.2,2.8c10.4-11,20.7-22.1,31-33.3 c-14.7-2.2-29.1-4.5-42.8-7.7C116.8,428.8,116.8,431.4,116.9,434.1z" fill="#ffbe4f"/></g></g><g id="change2_2"><path d="M138,206.6c-15.6-0.5-31.3-1-47-1.1c-1.1,0.1-2.5-0.2-3.4,0.6c-1,0.9-0.2,2.7,1.1,2.6 c16.3-0.6,35.3,1.2,50.1,1.7C140.7,209.7,140.1,206.6,138,206.6z" fill="#202f5a"/></g><g id="change2_3"><path d="M143.8,213.6c-3.1-0.9-2,6.5-2.5,9c0,2.9-1.5,23.8,2.4,19.3c1.2-7.8,0.5-17.4,1-26.4 C144.7,214.8,144.6,213.8,143.8,213.6z" fill="#202f5a"/></g></g></svg>