<?xml version="1.0" encoding="UTF-8" standalone="no"?><svg xmlns="http://www.w3.org/2000/svg" xmlns:xlink="http://www.w3.org/1999/xlink" fill="#000000" height="322.8" preserveAspectRatio="xMidYMid meet" version="1" viewBox="-1.4 -2.2 502.9 322.8" width="502.9" zoomAndPan="magnify"><g><g><g fill="#f66125" id="change1_5"><path d="M303.1,187.9l-0.1,0.1C303,188,303,188,303.1,187.9C303.1,188,303.1,187.9,303.1,187.9z"/><path d="M346.4,53.3c-1.6-3.4-2.2-9.4-4.9-10.7c-10.7-0.1-21.7,5-27.8,14c-4.7,6.7-8.3,14.2-10.6,22.1 c-1.5,6.9-2.6,13.3-6,18.8c-1.4,2.5-2.2,3.5-4.4,5.4c-0.1,0.1-0.2,0.2-0.3,0.3c-8.6-17.9-17.4-36.7-24.3-54.7 c-0.5-1.4-1-2.7-1.4-4.1c-0.1-0.4-0.2-0.8-0.4-1.1c0.1-0.2,0.2-0.3,0.2-0.5c1.3-2.7,1.3-5.7,0.1-8.4c-0.6-1.8-1.9-3.2-3.5-4.2 c-0.2-1.3-0.3-2.5-0.6-3.8c-1.1-6.7-6.9-11.5-13.4-12.7c-0.5-0.1-1-0.2-1.5-0.2c0.4-0.8,0.7-1.7,0.8-2.5 c0.8-4.3-3.6-13.2-10.8-10.3c-5.5,2.2-6.9,8.4-4,13.3c-4.3,1.3-8.1,4-11.3,8.8c-1.1,1.6-1.8,3.5-2.3,5.4c-0.1,0.7-0.4,1.3-0.5,2 c-1.3,0.7-2.6,1.5-3.8,2.7c-1.1,1.4-1.9,3-2,4.8c-0.1,2,0.5,4.3,1.8,5.9c-0.7,3.4-1.7,6.6-2.9,9.6c-0.3-4.6-1.3-9-4.4-13.1 c-10.4-11.6-28.7-13.9-42.8-8.3c-13.8,5.5-23.5,18.7-27.8,32.6c-3.1,13.8-3.6,29,2.7,42.1c7.3,14.1,20.4,23.2,27,35.8 c1.9,3.6,3.1,6,4.1,8.8c-0.9,9.2-0.3,18.5,1.9,27.6c2.2,9.8,3.9,19.4,8.6,27.6c0.8,1.3,1.5,2.6,2.3,3.9c-2.8,0.1-5.6,0.2-8.3,0.3 c-3,0.3-12.7-1.7-10.5,3.9c0.6,1.1,2.1,2.2,2.3,2.4c3.6,2.5,7.3,5,11.3,7c17,4.6,34.9,1.5,52.3,2.6c11.9,0.7,23.7-0.2,35.6-0.1 c1,0.1,2,0.1,3,0.2h0c3.1,0.1,6.1,0.3,9.1,0.3c0.7,0,1.5,0,2.2,0c1.5,0,2.9-0.1,4.4,0c4.5,0.1,7.8,0.2,11.5-1.2 c3.3-1.2,29.3-12,18.9-15.7c-5.5-0.6-11-0.8-16.5-0.8c4.7-8.5,7.4-17.9,8.9-27.5c0.1-0.9,0.2-1.8,0.4-2.7 c1.3-2.7,2.2-5.5,2.9-8.5c0.8-6.5,0.7-13.1,0.6-19.7c3.8-5.3,8.2-15.2,9.3-17.5c4.9-9.8,3.1-20.9,3.5-31.5 c0.4-6.1,1.1-9.9,1.8-15.7c0.3-4,1.2-9.4,2.7-12.5c1.3-3.4,4.5-9.7,7.3-10.8c2.5-1.7,6.9-3,8-3.1 C349.9,59.5,347.3,56.1,346.4,53.3z M197.5,75.4c0.1,3.2-0.1,6.5-0.1,9.7c0,0.1,0,0.2,0.1,0.2c-6.6,13.3-13.7,26.3-19.2,40 c-4.9-2.6-8.4-5.8-12.4-10c-7.6-8-12.6-18.3-12.5-29.1c-0.3-9.8,1.3-18.3,5.4-26.4c4.1-10.3,11.8-17.3,21.8-17.5 c6.8-0.8,13,4.6,15.1,9.9C198.3,59.6,197.3,66.4,197.5,75.4z M303,188.1C303,188,303,188,303,188.1c0.1-0.1,0.1-0.1,0.1-0.1 L303,188.1z"/></g><g id="change2_2"><path d="M262.1,42.5c-8.9-1.8-18.4-1.9-27.4-1.9c-5.1,0.6-10.8,0.7-15.5,2.7c-0.4,0.7,0.3,1.6,1.1,1.4 c12.1-3.2,27-2.1,38.9-0.8c0.9,0,1.9,0.5,2.8,0.2C262.5,43.8,262.6,43,262.1,42.5z" fill="#ffbe4f"/></g><g id="change2_3"><path d="M258.3,29.5c-6.3-2.2-13.2-2.5-19.8-2.3c-5.1,0.2-10.1,0.8-15.1,1.8c-0.8,0.2-1.8,0.2-2.4,0.9 c-0.5,0.8,0.3,1.8,1.2,1.5c11.2-2.6,23-3.3,34.2-0.4C257.7,31.6,259.2,30.9,258.3,29.5z" fill="#ffbe4f"/></g><g id="change2_4"><path d="M243.3,11.6c-2.8-0.1-5.6,0-8.3,0.5c-1.4,0.4-0.8,2.5,0.6,2.1c2.2-0.4,4.9-0.6,7.9-0.3c1,0.1,2.8,0.6,2.9-1 C246.3,11.3,244.4,11.7,243.3,11.6z" fill="#ffbe4f"/></g><g id="change2_5"><path d="M212.2,55c-0.5-0.9-1.9-0.7-2.1,0.3c-2.6,6.4-4.9,12.9-7.5,19.3c-0.9,2.3-1.9,4.6-2.8,7 c-0.1,0.3,0,0.6,0.1,0.9c0.5,0.9,1.9,0.6,2.1-0.4c3.3-8.3,6.4-16.8,9.9-25C212,56.7,212.6,55.3,212.2,55z" fill="#ffbe4f"/></g><g id="change2_6"><path d="M177.1,127.4c-1.9,3.8-3.1,8-4.3,12.2c-0.2,0.8-0.6,1.7-0.5,2.5c0.1,0.8,1.1,1.3,1.8,0.9 c1.3-1.9,2.5-8.9,4.1-12c0.2-1,1.2-1.8,1.2-3.3C179.1,126.7,177.6,126.5,177.1,127.4z" fill="#ffbe4f"/></g><g id="change2_7"><path d="M308.1,143.2c-3.5-7.7-6.9-17.4-9.8-26.4c-1.5-3.8-2.2-8.5-4.2-12c-0.9-0.6-2.2,0.4-1.9,1.4 c3.6,10.7,6.7,21.5,11,32c0.9,2.2,1.8,4.4,2.9,6.5c0.2,0.3,0.4,0.5,0.8,0.6C308.1,145.6,308.9,144.1,308.1,143.2z" fill="#ffbe4f"/></g><g id="change2_8"><path d="M291.3,209.6c-26.7,0.6-53.4-0.8-80.2-1.1c-7.2,0.1-14.5-0.1-21.6,0.4c-1.3,0.5-0.9,2.5,0.5,2.5 c33.7-1.3,67.4,1.7,101.1,0.9C292.9,212.5,293.2,209.7,291.3,209.6z" fill="#ffbe4f"/></g><g id="change3_2"><path d="M310.5,174.8c-1.4-0.8-1.2-0.3-2.4-0.4c-10-0.3-19.9,0.2-29.9,0.2c-29.1,0.5-58.2,0.1-87.2,0.8 c-6,0.1-12.1,0-18.1,0.4c-1.2,0.4-0.9,2.4,0.5,2.4c45-0.6,90-0.5,135-0.8C309.7,177.7,312,176.9,310.5,174.8z" fill="#202f5a"/></g><g id="change3_3"><path d="M303.6,193.6c-33.8-0.5-67.6,1.4-101.4,1.9c-8.1,0-16.3-1.4-24.4-0.7c-1.2,0.4-0.8,2.3,0.5,2.3 c9.6-0.5,19.1,1.2,28.7,0.9c32.5-0.5,65-1.9,97.5-1.5C306.9,196.2,306.1,193,303.6,193.6z" fill="#202f5a"/></g><g id="change2_9"><path d="M308.2,180.3c-10.5-0.2-21,0.7-31.5,1c-24-0.4-48-0.2-71.9-0.4c-9.7-0.2-19.4-0.5-29.2-0.3 c-0.4,0-0.8,0-1.1,0.2c-0.5,0-1,0.4-0.9,0.9c0.6,2.8,0.8,5.4,1.5,7.9c0.7,1,2,1.3,3.2,1.5c1.8,0.3,3.6,0.4,5.4,0.4 c14.2-0.3,28.5-0.7,42.7-0.5c12.1-0.4,24.2-1,36.3-0.9c10.2,0.1,20.4-0.4,30.6-0.3c5-0.1,10,0.6,14.5-0.1c1.5-1.2,0.8-4.8,1.3-7.2 C309.1,181.7,309.2,180.6,308.2,180.3z" fill="#ffbe4f"/></g></g><path d="M139.1,224.2L139.1,224.2c-0.1,0-0.1,0-0.2,0l-0.5,0l-0.5,0l-0.6,0l-1.1,0.1l-1.6,0.1l-1.7,0.2l-1.8,0.2 l-2.2,0.2l-2.6,0.3l-2.8,0.3l-2.9,0.3l-2.8,0.3l-2.9,0.3l-3,0.3l-3.3,0.4l-3.4,0.4l-3.9,0.4l-4.4,0.4l-4.2,0.4l-4.1,0.4l-4.6,0.4 l-4.7,0.4l-4.4,0.4l-4.4,0.4l-4.3,0.4l-4.1,0.4l-4.1,0.4l-4.3,0.5l-4.6,0.5l-4.7,0.6l-4.4,0.5l-4.2,0.5l-3.8,0.5l-3.5,0.4l-3.2,0.4 l-2.9,0.4l-2.7,0.3l-2.5,0.3l-2.4,0.3l-2.2,0.3l-2,0.2l-1.8,0.2l-1.7,0.2l-1.5,0.2" fill="none"/><g><g><g id="change2_15"><path d="M147,241.8c-2,1.4-5,3-6.6,3.5c-6.1,2.3-12.6,3.2-18.9,4.5c-9.7,2.2-19.1,2.6-29.4,3 c-22.3,1.5-44.6-0.7-66.8-3c-3.6-0.5-10-1.8-14.3-3.4c-2.1-0.7-4.5-2.2-7.1-3.2c-0.2,0-1.9-0.8-2.1-0.8c-0.1,0-0.1,0-0.1,0 c0,0,0,0-0.1,0c-0.1,0-0.1,0-0.2,0.1c0,0,0,0,0,0c-0.5,0.2-0.9,0.9-0.5,1.4c2.1,3.8,4.4,7.7,7.8,10.4c9.8,7.9,22.7,9.9,35,10.4 c10.3,0.3,20.6,1.2,30.9,0.8c18.5-0.6,37-1.2,55.2-4.9c10.3-2.8,22.3-9.9,23.3-20.7C152.2,237.6,148.2,241.2,147,241.8z" fill="#ffbe4f"/></g><g><g id="change1_2"><path d="M150.8,233.8c-3.3-3.2-8.1-3.8-12.4-4.7c-20.4-3.6-41.3-3.2-62-2.9c-17.9,0.7-36.3,1-53.9,4.9 c-17.2,3.8-23.9,8.5-21.3,13.6c3.8,7.5,19.2,9.4,26.9,10.8c19.5,2.3,38.1,1.9,58,1.6c18.1-0.6,36.6-1.1,54.1-6.1 C149.1,248.8,158.7,242,150.8,233.8z" fill="#f66125"/></g><g id="change2_1"><path d="M87.6,228.3c-1.9-0.5-2.6,1.9-0.6,2c14.8,0.6,30.6,0.2,43.4,5.4c3.9,2,4.4,4,1,5.9 c-4.4,1.8-11.8,2.2-17.4,3.2c-13.8,2.2-29.8,2.5-44.7,2.7c-11.6,0.3-25.3,0.8-35.9-0.7c-4.8-0.7-9.4-1.7-12.2-4.9 c-3.5-5.8,23.7-9.5,32-10.7c6.5-0.9,15.7-1.6,23.1-1.9c1.8-0.1,3.7,0,5.6,0c0.8-0.3,0.5-1.6-0.3-1.5c-10.7-0.7-56.6,3-62,11.2 c-2.4,4.3,3.9,7.2,7.1,8.3c12.1,3.1,24.8,2.4,37.1,2.4c13.9-0.4,27.8,0,41.6-1.7c6.8-0.6,12-1.6,18.7-2.6 c4.1-0.8,11.8-1.5,11.4-7.1C133,228.5,96.8,228.8,87.6,228.3z" fill="#ffbe4f"/></g></g></g><g><g id="change4_1"><path d="M144.8,175.2c0.1-2.7,0.2-4.5,0-6.7c-0.1-1.4-0.4-2.8-1.1-4c-1.3-1.8-3.7-2-5.8-2c-3.6,0-7.2,0.2-10.8,0.4 c-19.2,0.9-40.5,0-60.7,0c-16.5-0.6-33.1-0.8-49.6,0.8c-7.3-0.1-7.5,6.7-6.8,12.3c0.4,3.7,0.8,7.5,1.6,11.1c0.3,3,0.9,6,1.7,8.9 c1.8,6.6,3.7,12.7,8.4,18.3c11.6,13.7,28.5,22.4,46.3,25c20.4,2.9,43.4,0.1,59.1-14.4c3.3-2.9,5.7-6.6,7.8-10.4 c3.7-6.2,6.4-13.1,7.8-20.2C143.8,188.1,144.2,181.6,144.8,175.2z" fill="#f75454"/></g><g id="change3_4"><path d="M101,182.4c0.1-5.6,0.2-11.1,0.1-16.7c-0.1-1.2,0.5-2.3-1-2.6c-0.1,0-45.3-0.6-45.5-0.5 c-0.2,0-0.9,0.2-1,1.2c0.2,9.1,0.7,18.3,0.8,27.4c0.1,4.1,0,7.4,0.8,11.5c0.4,2,1.2,4,2.7,5.3c2.1,2,4.9,2.8,7.7,3.1 c5.5,0.8,11.1,0.6,16.6,0.1c3.9-0.5,8.2,0,11.8-1.7C103,205.2,100.6,191.1,101,182.4z" fill="#202f5a"/></g><g id="change2_18"><path d="M53.8,168.7c-11.1,0.7-22.3,0.5-33.4,0.6c-3.6,0.1-7.3-0.5-10.9-0.5c-1.1,0.4-0.7,2.2,0.4,2.1 c8.5,0.8,17,0.6,25.5,0.6c6.6-0.1,13.2,0.1,19.7-0.6C56.8,169.9,55.6,168.3,53.8,168.7z" fill="#ffbe4f"/></g><g id="change2_19"><path d="M144,166.4c-8.9,0.3-17.7,1-26.6,1c-5.8-0.3-11.7,0.1-17.5,0.1c-1.3,0-1.3,2,0,2c7.3-0.1,14.7,0,22,0.1 c7.7-0.2,15.4-0.6,23-1.2C146.2,167.8,145.3,166,144,166.4z" fill="#ffbe4f"/></g></g><g><g><g id="change3_6"><path d="M142.9,179.4C142.9,179.4,142.9,179.4,142.9,179.4C142.8,179.4,142.8,179.4,142.9,179.4 C142.8,179.4,142.9,179.4,142.9,179.4C142.9,179.4,142.9,179.4,142.9,179.4z" fill="#202f5a"/></g><g id="change4_2"><path d="M175.3,173.5c-4-5-10.8-6.8-17-6.2c-4.1,0.4-8.2,1.6-11.7,3.7c-2,1.3-3.8,2.9-5.5,4.6 c-0.6,0.5-1.1,1.1-1.6,1.7c-0.9,1-1.5,2.4-0.9,3.8c1.1,3.3,3.8,2.7,6.7,1c3.1-1.9,7.2-4,9.3-4.3c6.3-0.9,11.8,3,13.5,8.3 c1.3,5-2.1,10.1-6.9,14.3c-3,2.1-8.7,5.6-12.6,6.7c-5.2,1.8-10.9,2.3-15.9,4.5c-2.5,1.5-4.5,4.8-4.1,7.7c0.5,2,2.9,2.6,4.7,2.7 c3.8-0.2,6.1-0.7,9.3-1.1c15-2.3,32-9.4,37.3-24.4C182.3,188.9,180.2,178.6,175.3,173.5z" fill="#f75454"/></g></g><g id="change2_10"><path d="M135.5,209.7c-2.8,0.9-5.7,2.8-6.6,5.7c-0.5,1.5-0.7,3.2-0.1,4.7c0.2,0.4,0.3,0.9,0.8,1c0.5,0.1,1-0.3,1-0.8 c-0.1-0.6-0.4-0.9-0.6-1.9c0-0.4,0-1.4,0.3-2.4c0.4-1.5,1.6-2.7,3.1-3.7c1.1-0.7,1.5-0.7,2.8-1.3 C136.9,210.6,136.3,209.4,135.5,209.7z" fill="#ffbe4f"/></g><g fill="#ffbe4f" id="change2_21"><path d="M141.4,184.2C141.4,184.2,141.4,184.2,141.4,184.2C141.3,184.2,141.3,184.2,141.4,184.2z"/><path d="M142.5,173c-1.9,1.3-3.8,2.9-4.6,5.1c-0.6,1.4-0.8,3.2,0,4.6c0.8,1,2.2,1.6,3.5,1.5c0.1,0,0.3-0.1,0.4-0.2 c0.5-0.4,0.1-1.2-0.5-1.2c0.3,0-0.2,0-0.4-0.1c-0.5-0.1-0.8-0.2-0.9-0.3c-1.7-0.7-1.2-3.4,0.5-5.6c0.3-0.4,1.8-1.9,2.6-2.3 C144.2,174.1,143.6,172.5,142.5,173z"/></g></g><path d="M0,241.9L0,241.9C0,241.9,0,241.9,0,241.9l0,0.2l0,0.2l0,0.2l0,0.2l0,0.3l0,0.3l0,0.3l0,0.3l0.1,0.4l0.1,0.4 l0.1,0.4l0.1,0.4l0.1,0.4l0.1,0.4l0.1,0.4l0.2,0.4l0.2,0.4l0.2,0.4l0.3,0.4l0.2,0.4l0.2,0.4l0.2,0.4l0.3,0.4l0.3,0.4l0.4,0.5 l0.3,0.4l0.4,0.5l0.4,0.5l0.5,0.6l0.5,0.6l0.5,0.5l0.4,0.5l0.4,0.4l0.4,0.4l0.4,0.4l0.4,0.3l0.3,0.3l0.3,0.3l0.3,0.3l0.3,0.3 l0.3,0.3l0.4,0.3l0.4,0.3l0.4,0.3l0.4,0.2l0.4,0.2l0.4,0.2l0.4,0.2l0.4,0.2l0.4,0.2l0.5,0.2L14,260l0.5,0.2l0.4,0.2l0.4,0.2 l0.4,0.2l0.4,0.2l0.4,0.2l0.4,0.2l0.4,0.1l0.4,0.1l0.4,0.1l0.3,0.1" fill="none"/></g><g><g><g id="change2_12"><path d="M466.1,251.9c-2,1.4-5,3-6.6,3.5c-6.1,2.3-12.6,3.2-18.9,4.5c-9.7,2.2-19.1,2.6-29.4,3 c-22.3,1.5-44.6-0.7-66.8-3c-3.6-0.5-10-1.8-14.3-3.4c-2.1-0.7-4.5-2.2-7.1-3.2c-0.2,0-1.9-0.8-2.1-0.8c-0.1,0-0.1,0-0.1,0 c0,0,0,0-0.1,0c-0.1,0-0.1,0-0.2,0.1c0,0,0,0,0,0c-0.5,0.2-0.9,0.9-0.5,1.4c2.1,3.8,4.4,7.7,7.8,10.4c9.8,7.9,22.7,9.9,35,10.4 c10.3,0.3,20.6,1.2,30.9,0.8c18.5-0.6,37-1.2,55.2-4.9c10.3-2.8,22.3-9.9,23.3-20.7C471.4,247.7,467.4,251.3,466.1,251.9z" fill="#ffbe4f"/></g><g><g id="change1_8"><path d="M470,243.9c-3.3-3.2-8.1-3.8-12.4-4.7c-20.4-3.6-41.3-3.2-62-2.9c-17.9,0.7-36.3,1-53.9,4.9 c-17.2,3.8-23.9,8.5-21.3,13.6c3.8,7.5,19.2,9.4,26.9,10.8c19.5,2.3,38.1,1.9,58,1.6c18.1-0.6,36.6-1.1,54.1-6.1 C468.3,258.9,477.9,252.1,470,243.9z" fill="#f66125"/></g><g id="change2_14"><path d="M406.8,238.5c-1.9-0.5-2.6,1.9-0.6,2c14.8,0.6,30.6,0.2,43.4,5.4c3.9,2,4.4,4,1,5.9 c-4.4,1.8-11.8,2.2-17.4,3.2c-13.8,2.2-29.8,2.5-44.7,2.7c-11.6,0.3-25.3,0.8-35.9-0.7c-4.8-0.7-9.4-1.7-12.2-4.9 c-3.5-5.8,23.7-9.5,32-10.7c6.5-0.9,15.7-1.6,23.1-1.9c1.8-0.1,3.7,0,5.6,0c0.8-0.3,0.5-1.6-0.3-1.5c-10.7-0.7-56.6,3-62,11.2 c-2.4,4.3,3.9,7.2,7.1,8.3c12.1,3.1,24.8,2.4,37.1,2.4c13.9-0.4,27.8,0,41.6-1.7c6.8-0.6,12-1.6,18.7-2.6 c4.1-0.8,11.8-1.5,11.4-7.1C452.2,238.6,416,238.9,406.8,238.5z" fill="#ffbe4f"/></g></g></g><g><g id="change2_22"><path d="M464,185.4c0.1-2.7,0.2-4.5,0-6.7c-0.1-1.4-0.4-2.8-1.1-4c-1.3-1.8-3.7-2-5.8-2c-3.6,0-7.2,0.2-10.8,0.4 c-19.2,0.9-40.5,0-60.7,0c-16.5-0.6-33.1-0.8-49.6,0.8c-7.3-0.1-7.5,6.7-6.8,12.3c0.4,3.7,0.8,7.5,1.6,11.1c0.3,3,0.9,6,1.7,8.9 c1.8,6.6,3.7,12.7,8.4,18.3c11.6,13.7,28.5,22.4,46.3,25c20.4,2.9,43.4,0.1,59.1-14.4c3.3-2.9,5.7-6.6,7.8-10.4 c3.7-6.2,6.4-13.1,7.8-20.2C463,198.2,463.4,191.8,464,185.4z" fill="#ffbe4f"/></g><g id="change3_7"><path d="M420.2,192.5c0.1-5.6,0.2-11.1,0.1-16.7c-0.1-1.2,0.5-2.3-1-2.6c-0.1,0-45.3-0.6-45.5-0.5 c-0.2,0-0.9,0.2-1,1.2c0.2,9.1,0.7,18.3,0.8,27.4c0.1,4.1,0,7.4,0.8,11.5c0.4,2,1.2,4,2.7,5.3c2.1,2,4.9,2.8,7.7,3.1 c5.5,0.8,11.1,0.6,16.6,0.1c3.9-0.5,8.2,0,11.8-1.7C422.2,215.3,419.8,201.2,420.2,192.5z" fill="#202f5a"/></g><g id="change1_6"><path d="M373,178.9c-11.1,0.7-22.3,0.5-33.4,0.6c-3.6,0.1-7.3-0.5-10.9-0.5c-1.1,0.4-0.7,2.2,0.4,2.1 c8.5,0.8,17,0.6,25.5,0.6c6.6-0.1,13.2,0.1,19.7-0.6C376,180,374.8,178.4,373,178.9z" fill="#f66125"/></g><g id="change1_7"><path d="M463.2,176.6c-8.9,0.3-17.7,1-26.6,1c-5.8-0.3-11.7,0.1-17.5,0.1c-1.3,0-1.3,2,0,2c7.3-0.1,14.7,0,22,0.1 c7.7-0.2,15.4-0.6,23-1.2C465.3,177.9,464.5,176.2,463.2,176.6z" fill="#f66125"/></g></g><g><g><g id="change3_8"><path d="M462,189.5C462,189.5,462,189.5,462,189.5C462,189.5,462,189.5,462,189.5C462,189.6,462,189.5,462,189.5 C462,189.5,462,189.5,462,189.5z" fill="#202f5a"/></g><g id="change2_13"><path d="M494.5,183.6c-4-5-10.8-6.8-17-6.2c-4.1,0.4-8.2,1.6-11.7,3.7c-2,1.3-3.8,2.9-5.5,4.6 c-0.6,0.5-1.1,1.1-1.6,1.7c-0.9,1-1.5,2.4-0.9,3.8c1.1,3.3,3.8,2.7,6.7,1c3.1-1.9,7.2-4,9.3-4.3c6.3-0.9,11.8,3,13.5,8.3 c1.3,5-2.1,10.1-6.9,14.3c-3,2.1-8.7,5.6-12.6,6.7c-5.2,1.8-10.9,2.3-15.9,4.5c-2.5,1.5-4.5,4.8-4.1,7.7c0.5,2,2.9,2.6,4.7,2.7 c3.8-0.2,6.1-0.7,9.3-1.1c15-2.3,32-9.4,37.3-24.4C501.5,199,499.3,188.8,494.5,183.6z" fill="#ffbe4f"/></g></g><g id="change1_1"><path d="M454.7,219.8c-2.8,0.9-5.7,2.8-6.6,5.7c-0.5,1.5-0.7,3.2-0.1,4.7c0.2,0.4,0.3,0.9,0.8,1c0.5,0.1,1-0.3,1-0.8 c-0.1-0.6-0.4-0.9-0.6-1.9c0-0.4,0-1.4,0.3-2.4c0.4-1.5,1.6-2.7,3.1-3.7c1.1-0.7,1.5-0.7,2.8-1.3 C456.1,220.7,455.5,219.5,454.7,219.8z" fill="#f66125"/></g><g fill="#f66125" id="change1_3"><path d="M460.6,194.3C460.6,194.3,460.6,194.3,460.6,194.3C460.5,194.3,460.4,194.3,460.6,194.3z"/><path d="M461.7,183.1c-1.9,1.3-3.8,2.9-4.6,5.1c-0.6,1.4-0.8,3.2,0,4.6c0.8,1,2.2,1.6,3.5,1.5 c0.1,0,0.3-0.1,0.4-0.2c0.5-0.4,0.1-1.2-0.5-1.2c0.3,0-0.2,0-0.4-0.1c-0.5-0.1-0.8-0.2-0.9-0.3c-1.7-0.7-1.2-3.4,0.5-5.6 c0.3-0.4,1.8-1.9,2.6-2.3C463.4,184.2,462.7,182.6,461.7,183.1z"/></g></g><path d="M319.2,252L319.2,252C319.2,252,319.2,252,319.2,252l0,0.2l0,0.2l0,0.2l0,0.2l0,0.3l0,0.3l0,0.3l0,0.3 l0.1,0.4l0.1,0.4l0.1,0.4l0.1,0.4l0.1,0.4l0.1,0.4l0.1,0.4l0.2,0.4l0.2,0.4l0.2,0.4l0.3,0.4l0.2,0.4l0.2,0.4l0.2,0.4l0.3,0.4 l0.3,0.4l0.4,0.5l0.3,0.4l0.4,0.5l0.4,0.5l0.5,0.6l0.5,0.6l0.5,0.5l0.4,0.5l0.4,0.4l0.4,0.4l0.4,0.4l0.4,0.3l0.3,0.3l0.3,0.3 l0.3,0.3l0.3,0.3l0.3,0.3l0.4,0.3l0.4,0.3l0.4,0.3l0.4,0.2l0.4,0.2l0.4,0.2l0.4,0.2l0.4,0.2l0.4,0.2l0.5,0.2l0.4,0.2l0.5,0.2 l0.4,0.2l0.4,0.2l0.4,0.2l0.4,0.2l0.4,0.2l0.4,0.2l0.4,0.1l0.4,0.1l0.4,0.1l0.3,0.1" fill="none"/></g><g><g><g id="change2_11"><path d="M190.5,296.5c2,1.4,5,3,6.6,3.5c6.1,2.3,12.6,3.2,18.9,4.5c9.7,2.2,19.1,2.6,29.4,3 c22.3,1.5,44.6-0.7,66.8-3c3.6-0.5,10-1.8,14.3-3.4c2.1-0.7,4.5-2.2,7.1-3.2c0.2,0,1.9-0.8,2.1-0.8c0.1,0,0.1,0,0.1,0 c0,0,0,0,0.1,0c0.1,0,0.1,0,0.2,0.1c0,0,0,0,0,0c0.5,0.2,0.9,0.9,0.5,1.4c-2.1,3.8-4.4,7.7-7.8,10.4c-9.8,7.9-22.7,9.9-35,10.4 c-10.3,0.3-20.6,1.2-30.9,0.8c-18.5-0.6-37-1.2-55.2-4.9c-10.3-2.8-22.3-9.9-23.3-20.7C185.3,292.3,189.3,295.8,190.5,296.5z" fill="#ffbe4f"/></g><g><g id="change1_4"><path d="M186.7,288.4c3.3-3.2,8.1-3.8,12.4-4.7c20.4-3.6,41.3-3.2,62-2.9c17.9,0.7,36.3,1,53.9,4.9 c17.2,3.8,23.9,8.5,21.3,13.6c-3.8,7.5-19.2,9.4-26.9,10.8c-19.5,2.3-38.1,1.9-58,1.6c-18.1-0.6-36.6-1.1-54.1-6.1 C188.4,303.4,178.8,296.7,186.7,288.4z" fill="#f66125"/></g><g id="change2_20"><path d="M249.9,283c1.9-0.5,2.6,1.9,0.6,2c-14.8,0.6-30.6,0.2-43.4,5.4c-3.9,2-4.4,4-1,5.9 c4.4,1.8,11.8,2.2,17.4,3.2c13.8,2.2,29.8,2.5,44.7,2.7c11.6,0.3,25.3,0.8,35.9-0.7c4.8-0.7,9.4-1.7,12.2-4.9 c3.5-5.8-23.7-9.5-32-10.7c-6.5-0.9-15.7-1.6-23.1-1.9c-1.8-0.1-3.7,0-5.6,0c-0.8-0.3-0.5-1.6,0.3-1.5c10.7-0.7,56.6,3,62,11.2 c2.4,4.3-3.9,7.2-7.1,8.3c-12.1,3.1-24.8,2.4-37.1,2.4c-13.9-0.4-27.8,0-41.6-1.7c-6.8-0.6-12-1.6-18.7-2.6 c-4.1-0.8-11.8-1.5-11.4-7.1C204.5,283.2,240.7,283.5,249.9,283z" fill="#ffbe4f"/></g></g></g><g><g id="change5_1"><path d="M192.7,229.9c-0.1-2.7-0.2-4.5,0-6.7c0.1-1.4,0.4-2.8,1.1-4c1.3-1.8,3.7-2,5.8-2c3.6,0,7.2,0.2,10.8,0.4 c19.2,0.9,40.5,0,60.7,0c16.5-0.6,33.1-0.8,49.6,0.8c7.3-0.1,7.5,6.7,6.8,12.3c-0.4,3.7-0.8,7.5-1.6,11.1c-0.3,3-0.9,6-1.7,8.9 c-1.8,6.6-3.7,12.7-8.4,18.3c-11.6,13.7-28.5,22.4-46.3,25c-20.4,2.9-43.4,0.1-59.1-14.4c-3.3-2.9-5.7-6.6-7.8-10.4 c-3.7-6.2-6.4-13.1-7.8-20.2C193.7,242.8,193.3,236.3,192.7,229.9z" fill="#32ad62"/></g><g id="change3_1"><path d="M236.5,237c-0.1-5.6-0.2-11.1-0.1-16.7c0.1-1.2-0.5-2.3,1-2.6c0.1,0,45.3-0.6,45.5-0.5c0.2,0,0.9,0.2,1,1.2 c-0.2,9.1-0.7,18.3-0.8,27.4c-0.1,4.1,0,7.4-0.8,11.5c-0.4,2-1.2,4-2.7,5.3c-2.1,2-4.9,2.8-7.7,3.1c-5.5,0.8-11.1,0.6-16.6,0.1 c-3.9-0.5-8.2,0-11.8-1.7C234.5,259.8,236.9,245.7,236.5,237z" fill="#202f5a"/></g><g id="change2_16"><path d="M283.7,223.4c11.1,0.7,22.3,0.5,33.4,0.6c3.6,0.1,7.3-0.5,10.9-0.5c1.1,0.4,0.7,2.2-0.4,2.1 c-8.5,0.8-17,0.6-25.5,0.6c-6.6-0.1-13.2,0.1-19.7-0.6C280.7,224.6,281.9,223,283.7,223.4z" fill="#ffbe4f"/></g><g id="change2_17"><path d="M193.5,221.1c8.9,0.3,17.7,1,26.6,1c5.8-0.3,11.7,0.1,17.5,0.1c1.3,0,1.3,2,0,2c-7.3-0.1-14.7,0-22,0.1 c-7.7-0.2-15.4-0.6-23-1.2C191.3,222.5,192.2,220.7,193.5,221.1z" fill="#ffbe4f"/></g></g><g><g><g id="change3_9"><path d="M194.6,234C194.6,234,194.6,234,194.6,234C194.7,234.1,194.7,234.1,194.6,234 C194.7,234.1,194.6,234.1,194.6,234C194.6,234,194.6,234,194.6,234z" fill="#202f5a"/></g><g id="change5_2"><path d="M162.2,228.2c4-5,10.8-6.8,17-6.2c4.1,0.4,8.2,1.6,11.7,3.7c2,1.3,3.8,2.9,5.5,4.6c0.6,0.5,1.1,1.1,1.6,1.7 c0.9,1,1.5,2.4,0.9,3.8c-1.1,3.3-3.8,2.7-6.7,1c-3.1-1.9-7.2-4-9.3-4.3c-6.3-0.9-11.8,3-13.5,8.3c-1.3,5,2.1,10.1,6.9,14.3 c3,2.1,8.7,5.6,12.6,6.7c5.2,1.8,10.9,2.3,15.9,4.5c2.5,1.5,4.5,4.8,4.1,7.7c-0.5,2-2.9,2.6-4.7,2.7c-3.8-0.2-6.1-0.7-9.3-1.1 c-15-2.3-32-9.4-37.3-24.4C155.2,243.6,157.3,233.3,162.2,228.2z" fill="#32ad62"/></g></g><g id="change3_5"><path d="M202,264.3c2.8,0.9,5.7,2.8,6.6,5.7c0.5,1.5,0.7,3.2,0.1,4.7c-0.2,0.4-0.3,0.9-0.8,1c-0.5,0.1-1-0.3-1-0.8 c0.1-0.6,0.4-0.9,0.6-1.9c0-0.4,0-1.4-0.3-2.4c-0.4-1.5-1.6-2.7-3.1-3.7c-1.1-0.7-1.5-0.7-2.8-1.3 C200.6,265.2,201.2,264.1,202,264.3z" fill="#202f5a"/></g><g fill="#202f5a" id="change3_10"><path d="M196.1,238.8C196.1,238.8,196.1,238.8,196.1,238.8C196.2,238.9,196.2,238.9,196.1,238.8z"/><path d="M195,227.7c1.9,1.3,3.8,2.9,4.6,5.1c0.6,1.4,0.8,3.2,0,4.6c-0.8,1-2.2,1.6-3.5,1.5c-0.1,0-0.3-0.1-0.4-0.2 c-0.5-0.4-0.1-1.2,0.5-1.2c-0.3,0,0.2,0,0.4-0.1c0.5-0.1,0.8-0.2,0.9-0.3c1.7-0.7,1.2-3.4-0.5-5.6c-0.3-0.4-1.8-1.9-2.6-2.3 C193.3,228.7,193.9,227.2,195,227.7z"/></g></g><path d="M337.5,296.5L337.5,296.5C337.5,296.5,337.5,296.6,337.5,296.5l0,0.2l0,0.2l0,0.2l0,0.2l0,0.3l0,0.3l0,0.3 l0,0.3l-0.1,0.4l-0.1,0.4l-0.1,0.4l-0.1,0.4l-0.1,0.4l-0.1,0.4l-0.1,0.4l-0.2,0.4l-0.2,0.4l-0.2,0.4l-0.3,0.4l-0.2,0.4l-0.2,0.4 l-0.2,0.4l-0.3,0.4l-0.3,0.4l-0.4,0.5l-0.3,0.4l-0.4,0.5l-0.4,0.5l-0.5,0.6l-0.5,0.6l-0.5,0.5l-0.4,0.5l-0.4,0.4l-0.4,0.4 l-0.4,0.4l-0.4,0.3l-0.3,0.3l-0.3,0.3l-0.3,0.3l-0.3,0.3l-0.3,0.3l-0.4,0.3l-0.4,0.3l-0.4,0.3l-0.4,0.2l-0.4,0.2l-0.4,0.2 l-0.4,0.2l-0.4,0.2l-0.4,0.2l-0.5,0.2l-0.4,0.2l-0.5,0.2l-0.4,0.2l-0.4,0.2l-0.4,0.2l-0.4,0.2l-0.4,0.2l-0.4,0.2L320,316l-0.4,0.1 l-0.4,0.1l-0.3,0.1" fill="none"/></g></g></svg>