<?xml version="1.0" encoding="UTF-8" standalone="no"?><svg xmlns="http://www.w3.org/2000/svg" xmlns:xlink="http://www.w3.org/1999/xlink" fill="#000000" height="84.2" preserveAspectRatio="xMidYMid meet" version="1" viewBox="-0.4 -0.9 212.6 84.2" width="212.6" zoomAndPan="magnify"><g id="change1_1"><path d="M146.9,83.3c-1.2,0-2.3,0-3.5-0.1c-22.5-1.5-35.5-19.3-46.9-35C86.2,34,76.5,20.8,61.8,21.5 C19.6,23.7,14.7,53,14.6,53.3l-0.2,1.2L0.1,55.4L0,53.9c0-0.2-0.4-6.1,4.6-20.5C12,12.1,40.8,0.9,58,0.1c20.2-1,37.4,9.4,52.5,31.9 c17.5,26,33.5,25.3,44.1,24.8c22.6-1.1,42.7-33.4,42.9-33.7l1-1.7l13.7,14.9l-0.5,0.9C211.4,37.7,187.1,83.3,146.9,83.3z M63.1,18.5 c15.5,0,25.4,13.5,35.8,27.9c11.6,15.9,23.6,32.4,44.7,33.8c11.6,0.8,29.3-2.3,47.9-21c6.6-6.7,12.3-14.3,17-22.4l-9.6-10.5 c-4.6,6.9-22.9,32.5-44.2,33.5c-10.6,0.5-28.2,1.3-46.7-26.1C93.6,12.1,77.2,2.1,58.2,3.1C41.8,3.9,14.3,14.4,7.4,34.4 c-3.3,9.7-4.2,15.3-4.4,17.8l8.9-0.6c1.5-5.8,10.1-31.1,49.7-33.1C62.1,18.5,62.6,18.5,63.1,18.5z" fill="#f6b1b1"/></g></svg>