<?xml version="1.0" encoding="UTF-8" standalone="no"?><svg xmlns="http://www.w3.org/2000/svg" xmlns:xlink="http://www.w3.org/1999/xlink" fill="#000000" height="506.1" preserveAspectRatio="xMidYMid meet" version="1" viewBox="-0.1 -0.1 368.6 506.1" width="368.6" zoomAndPan="magnify"><g><g id="change1_2"><path d="M84,461.1c-1.4-8.1-0.5-16.8-2.3-24.8c-1.9-2.1-3.6-2.2-5.5-1.9c-3.7-0.2-7.7,0.8-11.4,0.9 c-3.5,0.6-7.5-0.1-10.7,1.5c-0.7,0.5-1.1,1.2-1.2,1.9c-0.3,0.4-0.4,0.9-0.4,1.5c1,17.9,4.4,35.6,7.2,53.3c0.1,2.7,1.7,5,4.4,5.6 c4.9,1.2,9,0.9,15.5,0.4c2.2-0.2,4.5-0.9,5.7-2.9C89.1,486.1,84.7,472.2,84,461.1z" fill="#202f5a"/></g><g id="change1_3"><path d="M303.7,253.8c0.6-57.8-5.6-122.1-10.4-176.2c-0.6-4.2,0.5-4.7-1.9-8.7c-4.6-3.6-11.7-3.1-17.2-3.9 c-2.8,0.1-3.8,3.1-3.9,5.5c-0.1,10.9,1.3,21.7,2,32.5c2.9,47.1,7.2,89.7,7,136.3c0.2,4.9,0.2,10.5,0.1,12.8 c0.1,1.8-0.4,3.9,0.5,5.5c-1.5,1.8-0.4,4.9,2,5c6.3,0.3,13,1.8,19.2,0.7C304.3,261.3,303.4,257,303.7,253.8z" fill="#202f5a"/></g><g id="change1_4"><path d="M46.3,235.9 M69.3,212.2C65.6,169,62,125.8,60.6,82.3c-0.1-6.7-0.5-7.9-4.4-9c-5.3-0.8-10.7,0.5-15.8,1.8 c-2,0.6-4.4,1-5.6,3.3c-3.3,10.6-0.8,29.6-0.6,37.1c1.3,16.3,2.2,32.6,3.2,48.9c0.1,4.8,0.2,9.6,0.3,14.3 c1.4,31.5,4.7,60.8,6.7,90.4c0.1,1.7,0.3,3.6,1.4,4.9c1.7,1.7,4,1.4,6.1,1.7c6,0.1,12.9-0.3,18-2.4c1.9-1.3,2.1-4.1,2-6.5 C71.2,248.6,70.4,230.4,69.3,212.2z" fill="#202f5a"/></g><g id="change2_2"><path d="M304.9,24.6c-1.2-6.8,1.5-17.7-2.9-22.9c-1.4-1.3-3.3-1.7-5.1-1.7C282.1-0.1,55,5.3,37,5.9 C29.5,6.1,23.3,6.8,14.9,7C12.4,7.1,9.7,9,9.8,12.2c-0.3,19.6,0.8,39.3,1,59c0.3,7.5,2.8,18.4,6.7,22.7c8.9,11.8,27.6,16.2,39.3,6 c4.2-3.1,7.2-7.3,9.7-11.8c7,8,12.4,15.5,22.1,18.1c12.7,3.5,28.1-11.4,33.9-18.5c3,4,6.7,7.5,11.1,9.9c14.6,8.7,34.5,3.5,45.6-8.8 c2.4-2.3,4.5-4.9,6.6-7.5c0.2,0.2,0.3,0.3,0.4,0.5c5.2,6.6,11.4,13.2,20,14.8c5.1,1.7,15.7,0.9,22.4-5.1c4-3.4,8.2-7.7,11.4-11 c0.2,0.4,0.4,0.7,0.6,0.8c10.2,12.9,28.4,19.1,44.5,17.2c9.1-1.3,16.7-8.1,18.9-17.1C308.7,61.2,306.7,49.2,304.9,24.6z" fill="#ff8533"/></g><g id="change2_3"><path d="M311.9,261c0.6-2.2-0.5-5-3.5-5c-82.7,8.1-165.8,10-248.8,13.3c-18.4,0.7-36.8,1.5-55.1,3.5 c-1.9-0.9-4.6,0-4.6,2.7c1.1,10.7,1.4,9.7,2.1,20.4c0.5,2.5,3.1,3.8,5.4,3.8c10.6-0.8,18.5-2.9,26.4,1.4 c12.3,5.5,11.2,19.9,12.7,34.4c2.6,32.9,3.5,77.8,6.6,110.6c0.6,1,3.4,5.3,5.4,5.2c43.2-0.3,86.3,0.3,129.3-4.4 c6.3-0.6,12.7-1.2,19-1.9c11.4-0.6,22.8-1.3,34.2-2.4c22.6-2.7,38.7-4.1,61.3-8.2c0.3,0,0.5,0,0.8,0c1.2,0.4,2.6,0.2,3.6-0.9 c1.5-1.5,1.6-3.5,1.7-5.5c0.5-8.3,0-16.5-0.3-24.8c0.3-18.9,0.8-37.7,2.2-56.5C312.3,318.2,314.6,289.4,311.9,261z" fill="#ff8533"/></g><g id="change3_14"><path d="M295.3,15.8c-0.2-1.7,0.1-3.4,0-5.1c0.7-1.4,0.4-3.2-1.9-4.2c-30.9-3.7-62.1,0.6-93,2.8 c-31.2,1.2-62.5,0.9-93.7,1.6c-23.2,1.7-46.4,3.2-69.7,3.6C31.5,15.3,25,13.9,19.7,16c-0.3,0.3-0.4,0.6-0.5,0.9 c-0.7,0.5-1.1,1.2-1.1,2.3C18.6,38,20,56.8,21.5,75.6c1.1,7.4,4.1,15.3,10.9,19.1c10.3,7.1,21.4-1.2,25.9-9.3 c1.9-3.7,4.6-7.5,6.2-11.4c5.5,6.7,11,14,18.1,18.8c15.9,7.1,29.4-7.9,38.8-19.6c5.5,6.2,11,12.9,19.4,15.1 c17.2,3.6,32.5-9.2,43.6-20.8c5.8,7.7,12,16,21.7,18.1c12.5,3.1,26.2-10,31.8-17.2c3.3,4.2,6,8,12.6,11.8 c8.5,4.4,15.9,6.1,24.3,6.2c4.6-0.1,9.5-0.2,13.7-2.4c8.2-4.2,10.9-13.9,10.9-22.5C299,46.6,297.4,28,295.3,15.8z M289.2,76.3 c-5.5,6.4-26,5.6-37-1.9c-4.4-2.2-8.7-9.7-14-14c-1.8-0.9-3.5,0.5-3.9,2.2c-1.6,1.3-2.3,3.7-3.8,5.2c-5.7,6.6-16.6,15-25,11.6 c-5.5-1.5-10.8-7.7-16.2-14.3c-2-2-1.5-3-4.1-4.4c-0.9-0.3-1.7,0.1-2.4,0.6c-0.4-0.1-0.9-0.1-1.4,0.1c-3,1.8-9.4,10.3-13.8,12.9 c-10.7,7.5-19.6,10.3-28,7.2c-3.8-1.3-10.3-7.2-14.9-13.1c-1.1-1.1-2.2-2.6-3.8-2.6c-0.7,0-1.2,0.2-1.7,0.6 c-0.2,0.1-0.3,0.1-0.5,0.2c-4.6,5.4-6.2,8.6-12.9,14.6c-6.3,6-14.2,9.3-20,6.4C81.1,85.3,71.1,72.7,67.5,69c-0.7-1.4-2-1.6-3.1-1.3 c-0.9-0.6-2.1-0.7-3.1-0.1c-0.8,0.1-1.9,3-2,3.3c-6.1,14.2-14.1,26.2-24.9,18.3c-4.4-2.4-7.3-11.3-7.4-17.9 c-0.5-16.9-2.5-33.8-2.6-50.7c56.4-1.7,112.7-5.1,169.2-5.3c31.2-1.1,67.6-6.7,96.3-3.3c0,8.7,2.8,14.7,2.5,23.6 C292.3,50.6,297,66.2,289.2,76.3z" fill="#ffbe4f"/></g><g><g id="change3_16"><path d="M287.2,163c-5.7-2.6-37.7-12.8-37.8-2.3c2.5,10,5.4,19.2,7.7,28c0,0,0,0.1,0.1,0.1 c-10.4,2.2-20.2,7.6-28.2,14.4c-7.4,6.9-11.8,16.3-14.2,26c-0.8,4.8-3,9.8-2.4,14.7c0.8,1.9,2.8,2.9,4.5,3.9 c12.4,6.3,27.3,10.1,38.3,15.3c8,3,18.1,9.9,24,0.8c7.5-11.2,8.8-25.3,9.8-38.4c1.5-14-4.3-24.9-13.3-34.4 C280.8,185.3,297.9,171.5,287.2,163z M284.3,231.1c-2,12.2-5.9,30.2-11.7,33.5c-1.5,0.7-2.9-0.2-5.5-0.9c-8.9-3.6-20-8.4-31.4-12 c-7.4-2.7-13.2-4.2-19.4-8.1c-0.1-0.1-0.3-0.3-0.4-0.4c-0.2-0.3-0.4-0.3-0.4-0.5c0-0.1-0.1-0.2-0.1-0.2c0.1,0.2,0,0.1,0-0.1 c0-0.1,0-0.5,0-0.7c2.2-12.8,5.9-25.3,13.6-33.9c7.3-7.7,16.7-13.1,27-16.2c1-0.3,2.1-0.6,3.2-0.9c0.9-0.3,0.9,0,2.1-0.3 c1-0.4,0.3-2.8,0.2-3.1c-2.9-7.7-6.2-19.4-8.2-26.8c0-0.1,0-0.1,0-0.1c0,0,0.1-0.1,0.1-0.1c0,0,0,0,0,0c0.1,0,0.1,0,0.2-0.1 c8.6-1.5,20.4,1.9,31,5.1c-0.1,0,1.1,0.4,1.4,0.8c0.1,0.2,0.2,0.4,0.3,0.7c1.1,4.6-2.7,10.3-7.1,15c-2.4,2.8-5.5,5.1-7.2,6.7 c-0.7,0.7-1.7,2.5,0.4,4.2c0,0,0,0,0.1,0c2.6,2.1,8.4,9.8,9.7,13.1C286.1,214.2,285.3,225.1,284.3,231.1z" fill="#ffbe4f"/></g><g fill="#ff8533" id="change2_4"><path d="M281.8,238c0-4.6-1.7-7.2-4.3-9.6c3-3.4,3.9-7.2,2.8-12.4c-1.6-4.9-7.1-8.4-12.2-7.2c0,0,0,0,0,0 c-2.5-6.9-14.1-6.8-18.3-1.2c-2.4,3.4-1.5,7.3-0.4,10.7c-0.8,0-1.5,0-2.3,0.1c-6.5,0.6-16.2,8.5-12.4,15.5c2.1,3.3,6,5.1,9.9,4.9 c-0.3,1-0.5,2.1-0.6,2.6c-2.3,9.8,6.6,18.6,15.2,14.2c2.7-1.3,4-2.8,5.1-4.2c4.9,3.2,11.6,1.7,15.7-4.9 C282.1,241.8,281.9,239.2,281.8,238z"/><path d="M259.8,244.1C259.8,244.1,259.8,244.1,259.8,244.1c0.1-0.4,0.4-0.7,0.6-1c0.1-0.2,0.2-0.4,0.3-0.6 C260.4,243.1,260.1,243.7,259.8,244.1z"/></g><g id="change1_6"><path d="M276.9,190.8c-0.4-1.9-2.6-1-3.8-0.5c-1.7,0.5-5.2,1.4-6.1,1.6c-0.5,0.1-0.9,0-1.3-0.1 c-0.2-0.2-0.4-0.3-0.7-0.3c-1.3-0.7-2.5-2.1-4.6-3.1c-1.5-0.6-3.1-1.4-4.7-1.2c-0.9,0.3-0.8,1.8,0.1,2.1c1.5,0.4,3.6,1.9,5.7,3.2 c-3.8,1.2-8,2.6-10,6.4c-1.2,3.6,2.7,5.5,5.7,4.5c1.2-0.4,2.2-1,3.2-1.7c-0.3,2.6-0.4,5-1.2,6.4c-1.5,3.7-5.2,6.3-5.5,10.5 c-0.6,4.4,1.9,8,3.9,4.5c0-1.9-0.8-4.2,0.9-6.9c3-4.5,4.4-8.4,4.5-13.3c0.4,1.2,0.9,2.3,1.5,3.3c1.3,2.5,3.7,4.3,3.3,6.5 c-0.3,1.4-3.1,8.2-2.8,10.4c0.8,2.6,3.7,2,3.8-1.8c0.6-2.7,2.1-5.3,2.3-8.1c0.2-2.3-0.9-4.2-2.1-6c0.1,0.1,0.2,0.2,0.4,0.3 c3.9,1.6,7.2-1.7,6.2-5.7c-0.7-3.5-3.5-6-6.2-8.2c1.9-0.5,3.8-1,5.7-1.2C276.1,192.5,277,191.8,276.9,190.8z M258.8,200.2 c-0.7,1-5.3,1.6-4.3-0.4c1.5-1.7,5-3.7,8.3-5C261.6,197.1,260.6,198.7,258.8,200.2z M272.7,205.1c-0.4,0.5-1.2,0.2-2.4-0.2 c-0.8-0.4-1.3-1.3-2-2.7c-0.2-0.3-1-2.5-1.2-3.9c-0.1-0.6-0.3-1.5-0.6-2.4c0,0,0,0,0,0c0,0,0-0.1,0-0.1c0.7,0.6,1.5,1.2,2.5,1.8 C272.5,199.4,273.7,203,272.7,205.1z" fill="#202f5a"/></g></g><g><g id="change3_12"><path d="M285.8,117.6c5.4-3.2,36.2-16.6,37.3-6.2c-1.5,10.2-3.4,19.7-4.8,28.7c0,0.1,0,0.1,0,0.1 c10.6,1.1,20.9,5.5,29.5,11.4c8,6.1,13.4,15,16.7,24.5c1.3,4.7,4,9.5,3.9,14.4c-0.6,2-2.5,3.2-4,4.4 c-11.7,7.6-26.1,12.9-36.6,19.2c-7.6,3.8-17,11.7-23.8,3.2c-8.6-10.4-11.3-24.3-13.7-37.2c-2.9-13.8,1.8-25.2,9.7-35.5 C294.4,139.1,276.1,127.1,285.8,117.6z M295.6,185.1c3.2,11.9,8.9,29.5,15,32.1c1.5,0.6,2.9-0.5,5.4-1.4 c8.5-4.5,19.1-10.4,30-15.1c7.1-3.5,12.7-5.5,18.5-10c0.1-0.1,0.3-0.3,0.4-0.4c0.2-0.3,0.3-0.4,0.4-0.5c0-0.1,0-0.2,0-0.2 c0,0.2,0,0.1,0-0.1c0-0.1-0.1-0.5-0.1-0.7c-3.5-12.6-8.4-24.6-17-32.4c-8-7-18-11.3-28.6-13.3c-1.1-0.2-2.2-0.4-3.2-0.6 c-0.9-0.2-0.9,0.1-2.1-0.1c-1.1-0.2-0.5-2.8-0.5-3.1c2.1-8,4.2-19.9,5.4-27.5c0-0.1,0-0.1,0-0.1c0,0-0.1-0.1-0.1-0.1c0,0,0,0,0,0 c-0.1,0-0.1,0-0.2,0c-8.7-0.6-20.1,4-30.3,8.3c0.1,0-1.1,0.5-1.3,1c-0.1,0.2-0.2,0.4-0.3,0.8c-0.6,4.6,3.7,10,8.6,14.2 c2.7,2.6,6,4.5,7.8,5.9c0.8,0.6,1.9,2.3,0,4.3c0,0,0,0-0.1,0c-2.4,2.4-7.3,10.6-8.3,14.1C292.2,168.4,294,179.2,295.6,185.1z" fill="#ffbe4f"/></g><g fill="#ff8533" id="change2_1"><path d="M298.8,191.6c-0.5-4.6,0.9-7.3,3.3-10c-3.3-3.1-4.6-6.8-4-12c1.1-5.1,6.2-9,11.4-8.4c0,0,0,0,0,0 c1.8-7.2,13.3-8.2,18.1-3.1c2.7,3.2,2.2,7.1,1.5,10.6c0.8,0,1.5-0.2,2.3-0.1c6.5-0.1,17,6.8,13.9,14.1c-1.7,3.5-5.4,5.7-9.3,5.9 c0.4,1,0.7,2,0.8,2.5c3.3,9.5-4.6,19.2-13.6,15.7c-2.8-1-4.2-2.4-5.5-3.6c-4.6,3.6-11.4,2.9-16.2-3.3 C298.9,195.5,298.9,192.8,298.8,191.6z"/><path d="M321.3,195.5C321.3,195.5,321.3,195.5,321.3,195.5c-0.1-0.4-0.5-0.7-0.7-1c-0.2-0.2-0.2-0.4-0.4-0.5 C320.6,194.6,321,195.1,321.3,195.5z"/></g><g id="change1_1"><path d="M298.9,144.2c0.2-2,2.5-1.3,3.7-0.9c1.8,0.4,5.3,0.8,6.2,1c0.5,0,0.9-0.1,1.3-0.2c0.2-0.2,0.4-0.3,0.7-0.3 c1.2-0.8,2.2-2.4,4.2-3.6c1.4-0.7,3-1.8,4.6-1.7c1,0.2,1,1.7,0.1,2.1c-1.5,0.5-3.4,2.3-5.3,3.8c3.9,0.8,8.2,1.8,10.6,5.3 c1.5,3.5-2.1,5.8-5.2,5.1c-1.2-0.2-2.3-0.7-3.4-1.4c0.6,2.5,0.9,5,1.8,6.2c1.9,3.5,5.9,5.7,6.5,9.9c1.1,4.3-1.1,8.1-3.4,4.9 c-0.2-1.9,0.3-4.3-1.6-6.7c-3.5-4.1-5.2-7.9-5.9-12.8c-0.3,1.2-0.6,2.4-1.2,3.4c-1.1,2.6-3.3,4.6-2.6,6.8 c0.5,1.4,3.9,7.8,3.8,10.1c-0.5,2.6-3.4,2.4-4-1.4c-0.9-2.7-2.6-5-3.1-7.8c-0.4-2.3,0.4-4.3,1.5-6.2c-0.1,0.1-0.2,0.2-0.3,0.3 c-3.7,2-7.4-1-6.8-5c0.3-3.6,2.9-6.4,5.4-8.8c-1.9-0.3-3.9-0.6-5.8-0.6C299.9,145.8,298.9,145.2,298.9,144.2z M317.9,151.7 c0.8,0.9,5.5,1,4.3-0.8c-1.7-1.5-5.4-3.2-8.8-4.1C314.8,148.8,315.9,150.3,317.9,151.7z M304.5,157.9c0.4,0.4,1.2,0.1,2.4-0.4 c0.8-0.5,1.1-1.4,1.7-2.9c0.2-0.3,0.7-2.6,0.8-4c0-0.6,0.1-1.5,0.3-2.4c0,0,0,0,0,0c0,0,0-0.1,0-0.1c-0.6,0.7-1.4,1.3-2.3,2.1 C304.2,152.3,303.4,156,304.5,157.9z" fill="#202f5a"/></g></g><g fill="#ffbe4f"><g><g id="change3_2"><path d="M120.4,320.1C120.4,320,120.5,320,120.4,320.1c-1.1,1.5-2.3,2.4-3.1,2.8c-1.5,0.3-1.5,0.6-2.5-1 c-2.1-4.1-0.8-10.5,2.3-15.5c0.2-0.2,0.6-0.6,0.7-0.8c0.2-0.2,0.6-0.4,0.7-0.4c0.2-0.1,0.6-0.1,0.9-0.2c0.8,0,0.2-0.1,1.4,0.2 c2.6,0.8,3.7-3.3,1.1-4c-11.9-4.4-17.8,26.5-5,26c3.2-0.3,6.3-2.9,7.5-5.8C124.6,319.3,121.4,318.2,120.4,320.1z"/></g><g id="change3_3"><path d="M139.4,301c-0.1,0-0.1,0.1-0.2,0.1c-0.4-0.2-0.9-0.3-1.5-0.2c-2.9,0.9-4.3,3.9-5.3,6.5 c-1.3,3.5-2.2,7.3-1.7,11.1c0.8,7.5,7.6,8.2,12.1,3.1C147.1,316.5,149.9,299.6,139.4,301z M142.1,312.5c-0.9,5.5-3.5,8.1-5.9,8 c-0.7,0-1.7-3.1-1.1-7.2c0.1-0.6,1.3-5.7,2.4-7.1c0.5-0.8,0.6-1.1,1-1.3c0.5,0.2,1.2,0.3,2.1,0.1c0,0,0,0,0.1,0c0,0,0.1,0,0.1,0 c0,0,0,0,0,0c0.1,0,0.2,0,0.3,0.1C142.1,305.5,143,309.4,142.1,312.5z"/></g><g id="change3_4"><path d="M169.1,299.6c-0.5-0.9-1.6-1.3-2.5-1c-3.1,0.5-8,1.2-10.3,1.5c-1.3,0.2-2.7,0.1-3.9,0.5 c-2.1,0.8-1.4,4.2,0.8,4.1c1.1-0.1,2.6-0.3,4.2-0.5c-1.2,6.3-1.2,12.8-1.5,19.1c-0.1,2.2,3.1,3.1,4.2,1.1 c1-7.2,0.4-15.3,1.9-20.9c1.3-0.2,2.4-0.3,2.9-0.4C167,303.3,170.5,302.5,169.1,299.6z"/></g><g id="change3_5"><path d="M187,297.6c-3.5,0.1-7.1,0.4-10.6,0.6c-3,0-3,4.6,0,4.6c1.4-0.1,2.9-0.2,4.4-0.3c-0.8,3.9-1.4,11.9-1.6,16.8 c-0.4,2,0.2,4.9,2.8,4.3c2.5-0.8,1.6-3.9,1.9-5.9c0.3-5,1-11.6,1.5-14.5c0-0.1,0.1-0.2,0.1-0.3c-0.3,0.8,0,0.1,0.1-0.7 c0.8-0.1,1.5-0.1,2.3-0.2c0.8-0.3,1.3-1.2,1.3-2C189.2,298.6,188.2,297.5,187,297.6z"/></g><g id="change3_6"><path d="M204.7,297.6c-0.2,0-0.4,0.1-0.6,0.2c-0.4-0.2-1-0.3-1.5-0.1c-4.3,1.4-6.1,6.3-7,10.4 c-0.8,4-1.4,8.5,0.5,12.3c1.8,3.2,6.3,3.3,8.7,0.7C209.4,316.9,214.2,298.1,204.7,297.6z M205.2,310c-0.9,4.3-2.9,8.1-4.7,8.2 c0,0,0,0,0,0c-1-1.2-1-5.3-0.3-8.6c0.8-3.5,1.4-5.4,2.6-6.7c0.3-0.3,0.5-0.5,0.8-0.8c0.2-0.1,0.5-0.2,0.7-0.3 c0.2,0.1,0.5,0.2,0.7,0.2c0.1,0-0.7-0.1-0.3,0c0.3,0.1,0.4,0.1,0.6,0.2c0.1,0,0.1,0.1,0.1,0.1C206,304.5,205.6,307.6,205.2,310z"/></g><g id="change3_7"><path d="M234.2,295c-1.9,1.3-1.4,5.2-1.7,6.1c-0.7,4.1-1.2,8.3-2.1,12.4c0,0.2-0.2,0.4-0.2,0.7 c-2.4-5.2-4.1-11.5-6.5-17.8c-0.9-1.3-2.5-0.9-3.6-0.1c-0.7,0.5-1.4,1-1.4,2.1c-0.5,4.5-1.6,12.8-2.2,19.2 c-0.5,2.2,2.1,4,3.8,2.4c1.4-2.4,0.9-5.7,1.5-8.4c0.1-1.7,0.3-3.2,0.6-4.7c2.9,8.9,7.4,20.3,11.3,12.1c2.4-6.7,2.3-13.9,4-20.8 C238.1,297.2,237.1,293.6,234.2,295z"/></g><g id="change3_8"><path d="M192.1,332.9c-1.9,1.3-1.4,5.2-1.7,6.1c-0.7,4.1-1.2,8.3-2.1,12.4c0,0.2-0.2,0.4-0.2,0.7 c-2.4-5.2-4.1-11.5-6.5-17.8c-0.9-1.3-2.5-0.9-3.6-0.1c-0.7,0.5-1.4,1-1.4,2.1c-0.5,4.5-1.6,12.8-2.2,19.2 c-0.5,2.2,2.1,4,3.8,2.4c1.4-2.4,0.9-5.7,1.5-8.4c0.1-1.7,0.3-3.2,0.6-4.7c2.9,8.9,7.4,20.3,11.3,12.1c2.4-6.7,2.3-13.9,4-20.8 C195.9,335,194.9,331.5,192.1,332.9z"/></g><g id="change3_9"><path d="M144.9,334.1c-10-1.9-16.1,17.9-8.5,23.4c2,1.1,4.7,0.5,6.2-1.1c1.2-1.4,0-3.8-1.8-3.7 c-1.5,0.2-1.5,0.6-1.9,0.6c-0.1,0-0.1,0-0.1,0c-0.2-0.2-0.4-0.5-0.6-1.2c-1.3-3.7,0.5-9.8,3-12.2c1.2-1.1,0.9-1,2.4-1.4 c0.5,0.1,1.7,0.2,1.9-0.2C147.2,337.4,146.8,334.6,144.9,334.1z"/></g><g id="change3_13"><path d="M156.7,345.7C156.8,345.7,156.8,345.7,156.7,345.7C156.7,345.7,156.7,345.7,156.7,345.7z"/><path d="M164.9,343.4c-0.6-2.6-1.3-5.3-3-7.3c-2.2-2.3-5.8-1.4-7.2,1.3c-3,5.7-3.9,12.4-4.9,18.7 c0.2,2.3,3.7,2.5,4.2,0.3c0.3-1.7,0.7-3.7,1.2-5.7c1.9-0.2,4.5-0.2,6.1-1c0.1,1.5,0.2,3.1,0.2,5.2c0,0.9,0.5,1.9,1.4,2.2 C168.5,358.6,165.1,346.3,164.9,343.4z M156.4,345.7C156.4,345.7,156.4,345.7,156.4,345.7c0.1,0,0.2,0,0.4-0.1 C156.6,345.7,156.5,345.7,156.4,345.7c0.8-3.1,1.7-5.6,2.5-6.5c0.9,1.5,1,2.1,1.7,4.6c0.1,0.5,0.2,1,0.3,1.5 C159.4,345.1,157.7,345.7,156.4,345.7z"/></g><g id="change3_10"><path d="M208.3,332.9c-2-0.9-3.4-1.5-5.1-0.6c-0.7,0.4-1.4,0.6-1.6,1.5c-0.4,7.4-1.8,14.7-2.1,22.1 c0.2,1.9,2.4,2.4,3.9,2.2c6.2-1,11.6-6.7,12.1-13C215.8,340,212.8,335.2,208.3,332.9z M206.8,352.2c-1.4,1-2,1.3-2.8,1.5 c0.2-1.4,0.3-3.2,0.5-4.4c0.4-3.7,1.2-8.4,1.5-12.7c1,0.4,1.2,0.7,2.6,2C212.8,342.8,211.3,349,206.8,352.2z"/></g><g id="change3_11"><path d="M235.4,330.9c-0.5-1.9-3.3-2.3-4.2-0.6c-1.4,3.2-2.7,6-4,8.9c-0.2-0.3-0.4-0.5-0.6-0.8 c-1.5-2-2.6-4.3-4.2-6.3c-1.8-2.3-5.3,0.7-3.2,2.8c0.7,1,3.5,5.7,5.4,8.1c0.2,0.3,0.4,0.5,0.6,0.7c-1.3,3.2-2.6,6.6-3.7,10.6 c-1.7,3.3,0.6,5.7,3.1,3.9c3.6-9.2,6-14.5,10.1-24.6C235,332.8,235.7,331.9,235.4,330.9z"/></g></g><g id="change3_1"><path d="M251.1,287.2c-4.5-2-11.6-1.7-17.2-1.4c-0.8,0-1.5,0.1-2.3,0.1c-41.5-0.9-83.7-2.3-123.9,7.2 c-2.4,0.7-4.8,1.8-7,3.3c-1,0.4-2,0.7-2.9,1.2c-6,3.8-9.7,10.7-10.4,17.7c-0.1,1.6-0.6,3.3-0.1,4.8c0.3,0.7,0.9,1.1,1.5,1.2 c0.3,1,0.6,1.9,1.1,2.9c3.5,6.4,11.3,8.5,16.7,11.5c2,1.2,4,4.4,4.5,6c1.8,6.2,1.2,7.9,2.4,16.1c2.1,13.5,17.6,15.3,28.8,15.9 c31.5,0,61.2-2.4,91.1-8.1c7-1.9,12.3-7.4,15.5-13.7c3.2-5.8,4.2-12.7,1.3-18.8c-0.7-2.4-2.5-5.6-2.4-7.3c1.6-5.1,7.5-8,10.4-13.6 C262.7,303.4,262.3,290.9,251.1,287.2z M257.1,303.3c-1.1,6-3.3,8.8-7.6,13.1c-3.2,3-7.4,7-5.9,11.9c1.5,5.4,4.1,10,3.3,14.3 c-2.4,9.3-8.1,16.7-17.4,18.6c-25.1,3.9-58.1,7.3-88.5,6c-9.5-0.6-19.3-3.1-20.3-8.3c-2-6-0.6-8-2.7-15.5 c-1.2-5.2-4.3-10.1-8.9-13c-7.3-3.6-13.2-6.3-15.3-10.2c-2.6-7,1.1-14.6,7.3-19.4c10.8-4.4,24.2-5.1,36.7-6.7 c33.7-3.4,70.2-2.6,102.6-4.6c3.8-0.2,7.8,0,9.8,1c1.5,0.8,4.6,2,5.1,3.2C257.1,295.6,257.9,300.5,257.1,303.3z"/></g></g><g id="change1_5"><path d="M299.6,295.5c0.1-7.5,1.4-15.8-1.7-22.8c-2.9-3.8-7.9-4.5-12.3-5.1c-27.5-2.1-55.1,0.6-82.6,1.5 c-30.3,1.6-60.6,1.5-90.9,3c-34.2,2-68.6,3.9-102.7,6.7c-2,0.8-1.6,3.6,0.2,4.2c0.4,3,0.4,6.4,4,6.6c10.6,2.3,20.7,0.3,29.5,6.3 c4.5,2.9,7.3,9,10.3,14.6c9.7,24.8,5.9,56.6,7.3,84.8c1.1,12.3-2.1,25.2,1.7,37.2c2.5,6.8,10.3,7.9,16.6,8.4 c40.2,0.5,83.8-0.7,123.3-5.6c0-0.3,0.1-0.6,0.1-0.9c0.2-0.1,0.5-0.1,0.7-0.3c3.6-11.5,3.4-22.1,9.8-32.1 c6.6-11.8,17.6-19.7,30.6-25.3c9-3.8,22-6.9,33.2-5.2c5.5,0.4,16.6,3,22.8,6.4c0.2,0.1,0.4,0.1,0.6,0.1c0.1,0,0.3-0.2,0.4-0.2 c0.1-0.1,0.2-0.3,0.2-0.4C300.8,377.1,299,323.9,299.6,295.5z M218.1,389.4c-8,8-11.7,19-15,29.6c-0.9,3.7-1.8,7.3-2.6,11 c-9,1.4-18,2.6-27,3.4c-30.5,1-58.8,2.4-89.8,3.5c-4.9-0.1-9.3,0.2-14-1.2c-1.7-0.6-4-2.5-4.6-4.3c-3.4-11.1-0.7-23.5-1.8-35.3 c-3-31.4,10.9-107.7-36.2-108.2c-4.6-0.1-12-0.8-14.4-1.2c-0.4-0.8-0.5-2.3-0.7-3.7c45.4-3.3,95.2-7.6,142.2-8.8 c42.7-0.2,85.4-5.5,128.1-3.7c4.4,0.6,9.1,0.3,12.7,4c3.8,11.2,1,23.7,1.5,35.5c0,21.5,0.2,44.5-1.1,64.1 C269.5,363.2,237.7,369.3,218.1,389.4z" fill="#202f5a"/></g><g id="change3_15"><path d="M306.1,388.9c-10.5-9.3-35.5-16.8-53-12c-9.6,2.8-18.5,9.2-25.8,17.5c-12.8,12.6-20,30.6-19.7,48.6 c0,1.2,0,2.4,0.1,3.7c0,0.3,0,0.7,0.1,1c0.3,4.2,1,8.2,2.3,12c1.5,5.3,3.7,10.5,6.7,15.3c15,27.8,53.5,31,79.1,16.7 c14.5-7.6,24.9-21.8,28.9-37.6C331.1,430.7,325.3,404.7,306.1,388.9z M315.9,425.4c-11.3,1.9-29.8,5.8-43.1,8.1 c7.9-12.9,15.7-25.8,23.4-38.7c1.1,0.7,2.3,1.3,3.3,2.1C309.9,405,314.5,414.1,315.9,425.4z M290.7,391.8 c-6.2,10-12.3,20.1-18.3,30.2c-0.4-11.7-1-23.5-1.9-35.2C277.6,387.1,284.6,389.1,290.7,391.8z M250.1,390.8c4.4-2,9-3.2,13.6-3.7 c0.3,13.3,1.2,26.5,1.9,39.8c-8.9-9.7-17.9-19.5-26.9-29.1C242.5,394.8,246.4,392.3,250.1,390.8z M219.6,422.3 c1.3-2.7,2.6-5.3,3.9-7.8c2.9-4.3,6.4-8.5,10.2-12.2c9.9,11,20,21.8,30.1,32.6c-16.1,2.4-32.6,3.9-48.3,8.3 C215.5,435.7,216.8,428.5,219.6,422.3z M225.4,473.4c-5.5-7.5-8.5-16.1-9.5-24.6c14.7-3.3,29.9-5.7,45-7.9 c-3.4,5.5-6.9,11-10.4,16.3c-5.2,8.2-10.6,16.4-15.3,24.8C230.9,479.5,227.3,476.5,225.4,473.4z M247.7,487.6 c-2.4-0.6-4.8-1.5-7.1-2.6c8.6-13.6,17.2-27.3,25.7-41c0.5,15.4-0.6,31,1.7,46.3C261.7,490.5,254.9,489.6,247.7,487.6z M275.8,489.4c-0.4,0.1-0.8,0.1-1.2,0.2c-0.6-14.9-1-29.9-1.4-44.8c6.7,7.2,13.4,14.4,20,21.8c2.4,2.8,4.9,5.4,7.7,7.8 C293.9,480.9,284.4,487.1,275.8,489.4z M316.2,438.7c-1,10.8-1.2,16.6-8.9,28.4c-0.6,0.8-1.3,1.7-2.1,2.6 c-9.7-10.2-19.3-20.6-28.9-31c13.7-2,27.1-4.2,39.9-7.2C316.4,433.7,316.4,436.1,316.2,438.7z" fill="#ffbe4f"/></g></g></svg>