<?xml version="1.0" encoding="UTF-8" standalone="no"?><svg xmlns="http://www.w3.org/2000/svg" xmlns:xlink="http://www.w3.org/1999/xlink" fill="#000000" height="334.9" preserveAspectRatio="xMidYMid meet" version="1" viewBox="-6.1 -15.3 307.6 334.9" width="307.6" zoomAndPan="magnify"><g id="change1_1"><path d="M256.7,40.8c-35.1-16.5-87.1-56.1-137.8-34.5S8.7,102.5,1.3,141.9s15.3,127.7,105.5,152.7 S272.7,280,301.5,130C301.5,130,291.8,57.3,256.7,40.8z M169.4,273.3c-24.6,6.1-57.1-5.3-92.2-32.5s-35.1-47.4-43.9-73.8 s6.1-53.6,27.2-82.5s48.5-44.3,74.6-48.3c34.2-5.3,77.3,5.3,101,14s37.7,45.7,39.5,70.3s-7.9,46.5-23.7,84.3S194,267.2,169.4,273.3z" fill="#f6b1b1"/></g></svg>