<?xml version="1.0" encoding="UTF-8" standalone="no"?><svg xmlns="http://www.w3.org/2000/svg" xmlns:xlink="http://www.w3.org/1999/xlink" fill="#000000" height="496.3" preserveAspectRatio="xMidYMid meet" version="1" viewBox="-0.1 -0.8 501.1 496.3" width="501.1" zoomAndPan="magnify"><g><g><g><g id="change1_8"><path d="M210.6,224c-0.6-1.1-2.4-0.9-2.7,0.3c-6.7,22.1-17.1,41.5-27.2,62.7c-15.5,33-31,66-43.7,100.2 c-1.5,4.1-3.1,8.2-4.3,12.5c-0.2,0.5-0.1,1,0.1,1.4c2.6,2.8,3.4-1.9,4.2-3.8c14.5-41.8,33.1-80.5,52.5-120.8 c7.3-14.8,14.3-29.8,19.3-45.6C209.2,228.8,211.1,225.9,210.6,224z" fill="#ffbe4f"/></g><g id="change1_9"><path d="M243.1,224c-12.7,52.8-33,103.4-45.6,156.3c-2.4,9.7-4.9,19.4-6.9,29.2c-0.2,1.1-0.7,2.5,0.4,3.3 c1.7,1.2,3.2-0.4,3.3-2.2c0.6-2.6,1.1-5.2,1.7-7.8c3.2-14.5,7.1-28.8,11-43.2c10.4-37.8,23.6-74.7,33.6-112.6 c1.9-7.6,4.1-15.1,5.3-22.8C245.8,222.7,243.4,222.5,243.1,224z" fill="#ffbe4f"/></g><g id="change2_4"><path d="M197.6,402.7c-1.8-2.5-5.1-2.6-7.8-3c-8.3-1-16.7-0.1-25.1-0.9c1.6,0.2-1.1-0.1-2.2-0.2 c-1.4-7.4,1.1-27.4,3.1-34.7c-0.1-4.6-6.5-3.5-9.6-3.3c-0.4,0.1-0.9,0.1-1.3,0.2c-0.2,0-0.6,0-1.1,0.1c-2.9,0.8-6.6,0.1-8.8,2.4 c-3.9,6.2-5.7,14.6-9.1,22.1c-2.6,6.9-7.7,15.9-9.9,25.9c0-0.1,0-0.2,0-0.2c-0.3,1.3-0.7,2.6-0.9,3.9c-0.1,1.3-1.1,4.1-0.8,4.4 c-0.3,0.6-0.4,1.3-0.5,1.9c-0.1,1.5-0.8,1.4-0.1,3.4c0.1,0.1,0.2,0.2,0.3,0.4c0,0,0,0.1,0,0.1c3.8,8.5,28.5,5.9,38.4,7.3 c8.8,0.2,17.8,0.9,26.6-0.7c3.5-0.9,4.1-5.2,5.3-8c1.8-4.9,2.3-11.4,3.1-14.9c0.2-0.6,0.4-1.3,0.6-1.9c0.1-0.2,0.2-0.5,0.3-0.9 C198.2,405,198.3,403.8,197.6,402.7z" fill="#202f5a"/></g></g><g><g id="change3_1"><path d="M316.6,254.5c-1.4,0.8-4.4,0.9-3.9,2.7 M331.4,478.4c-2.5-3-5.9-5.2-10.3-6.8c0.1-2.2,0.1-4.4,0.3-6.6 c1.5-19.1,1.3-38.3,2.5-57.4c0.3-3.7-0.1-9.6,0.8-11.1c1.6-1.9,9.5-6.9,10.9-11.3c0.4-1.2,0.9-2.6,0.1-3.8 c-2.3-2.7-4.9-3.7-8-5.3c-4.4-2.1-8-4.3-11.6-6.6c0.4-6.1,0.4-14.8,0.3-21.5c0-13.5-1.7-27-1.7-40.5c-0.2-16.6,1.3-33.2,1.1-49.9 c3.1-0.8,10.3-4.6,13.4-6.6c3-1.7,4.4-4.5,4.9-7.3c0.6-3.1,1.4-6.3,1.6-9.5c0-0.2-0.1-0.4-0.2-0.5c0.1-0.8-0.4-1.6-1.3-1.7 c-0.2,0-0.9-0.1-1.2-0.2c-1.6-0.1-3.1-0.2-4.7-0.3c-4.7-0.5-9.3,0.2-14,0c-21.1-0.8-42.3,1.4-63.4,1.1 c-10.1,0.2-20.3,0.1-30.4-0.1c-4.8-0.1-9.7-0.2-14.6,0.1c-0.5,0.2-0.6,0.7-0.5,1.1c-0.1,0.1-0.2,0.3-0.2,0.5 c0.2,3.2,0.9,6.3,1.6,9.5c0.5,2.8,1.9,5.6,4.9,7.3c3.1,2,10.3,5.8,13.4,6.6c-0.2,16.6,1.3,33.2,1.1,49.9c0,13.5-1.7,27-1.7,40.5 c-0.1,6.7-0.1,15.4,0.2,21.5c-3.6,2.3-7.1,4.5-11.5,6.6c-3.2,1.6-5.7,2.6-8,5.3c-0.8,1.2-0.2,2.5,0.1,3.8 c1.5,4.5,9.3,9.5,10.9,11.3c1,1.4,0.5,7.4,0.8,11.1c1.1,19.1,1,38.3,2.5,57.4c0.1,2.2,0.2,4.4,0.2,6.6c-4.5,1.7-7.8,3.8-10.3,6.8 c-2.8,3.3-4.7,6.6-4.4,7.4c0.1,0.4,0.5,0.7,1,0.9c2.6,0.8,15.3,8.8,65.1,8.8c48,0,62-8.2,63.7-8.8c0.5-0.2,0.9-0.5,1-0.9 C335.9,485.3,334.3,481.9,331.4,478.4z" fill="#f66125"/></g><g id="change4_9"><path d="M305.8,370.8c-0.9-0.2-1.9,0.4-2.8,0.5c-17.4,4.8-39.6,4.5-57.1,2.5c-5.5-0.8-11.1-1.9-16.4-3.7 c-1.5-0.4-2.2,2-0.6,2.4c14.9,5.1,30.8,6.4,46.4,5.9c10.5-0.2,21.2-1,31-4.8C307.4,372.9,307.1,371.1,305.8,370.8z" fill="#f75454"/></g><g id="change4_10"><path d="M311.9,398.1c-1.3-0.2-1.3,0.1-2.6,0.2c-19.9,4.6-41.9,8.7-61.1,5.9c-6.6-1-13.2-2.4-19.7-4.3 c-2.3-0.7-4.5-1.6-6.6-2.5c-0.4-0.1-0.8-0.1-1.2,0.2c-1,0.6-1,2.1,0,2.7c13,5.5,27.2,8.4,41.3,8.7c16.2-0.6,36-3.1,49.8-7.2 c0.2-0.1,0.4-0.2,0.4-0.2C313.6,400.9,313.6,398.5,311.9,398.1z" fill="#f75454"/></g><g id="change4_11"><path d="M302.1,257.6c-16.7,3-40.4,1.7-60.7,1.6c-4.4-0.1-7-1.3-11.7-1.2c-1.4,0.5-1.3,2.8,0.2,3.1 c16.3,3.1,33,2.8,49.5,2.7c8.2-0.4,13.8-0.7,21.6-1.6c2.4-0.4,3.3-0.1,4.3-1.5C306.5,257.7,303.2,257.2,302.1,257.6z" fill="#f75454"/></g><g id="change4_12"><path d="M310.1,470.6c-6.5,1.8-14.6,2.5-23.4,3.2c-14.6,1.3-29.4,1.7-44,0.3c-4.6-0.3-12.2-2.6-18.3-4.3 c-2.2-0.6-3.1,2.8-0.9,3.4c15.1,5.6,31.3,6.3,47.2,5.7c11.3-0.5,22.6-1,33.7-3.1c3.7-0.8,5.1-0.4,8.2-1.9 C314.4,472.9,313.5,469.7,310.1,470.6z" fill="#f75454"/></g><g id="change4_13"><path d="M325.3,244.3c-2,0.7-5,3.1-7.4,4c-1.9,0.9-5.5,1.4-7.9,0.6c-1.1-0.1-1.8-1.4-3.6-1.6 c-2.4,0.5-4.5,3.2-7.5,3.8c-4.7,1.5-12,1.7-15.1,0.5c-2.3-0.9-2.7-2-4.1-3.5c-0.5-0.4-1.1-0.4-1.6-0.1c-1.3,1.1-1.2,1.1-2.6,1.9 c-3.2,1.7-8.4,2.2-12,1.5c-2.3-0.4-3.4-1.5-6-2.5c-1.5-0.4-2.8,1-4.1,1.5c-2.2,1.1-5.3,1.8-8.1,1.8c-3,0.2-6.3-1.3-7.9-2.4 c-1.3-0.9-2.4-3-4.2-2.4c-2.8,1.6-6.4,3.4-9.6,2.9c-2.8-0.3-4.3-1.9-7.1-3.2c-1-0.2-1.6,1.4-0.7,1.9c2.5,1.6,5.1,3.4,8.1,3.7 c3,0.3,6-0.7,8.8-1.8c0.5-0.2,0.6-0.2,1.1-0.6c0.1,0.1,0.3,0.2,0.3,0.2c5.4,5.1,13.1,5.5,20.8,1.8c0.5-0.2,1.6-0.9,1.9-1.1 c0.7,0.3,1.4,0.8,2.2,1.1c1.8,1,3.8,1.6,5.9,1.8c3.6,0.3,7.5-0.1,10.8-1.5c1.1-0.4,2-1.1,2.9-1.8c2.9,3.7,8.1,4.1,12.5,3.9 c5-0.3,10.1-1.2,14.2-4.1c0.8-0.4,0.5-0.3,1.1-0.5c0.2,0.1,0.4,0.3,0.7,0.4c1,0.6,2.1,1,3.3,1.1c3.1,0.4,6.3,0.1,9.2-1.3 c2.3-1.2,4.8-2.3,6.8-3.9C327.2,245.8,326.5,244.2,325.3,244.3z" fill="#f75454"/></g><g fill="#f75454"><g id="change4_1"><path d="M290.9,392.6c0.1,0.1,0.1,0.2,0.2,0.3c0,0,0.1,0.1,0.1,0.1C291.2,392.9,291,392.7,290.9,392.6z"/></g><g id="change4_14"><path d="M328.2,382.5c-3.6-1.1-5.6-2.2-9.9-3.4c-3.7-0.9-8-0.4-10.9,2.3c-1,0.8-1.8,1.9-2.4,3.1 c-3.6-2-7.7-3.6-11.8-2.5c-3.2,1-5.7,3.3-8.1,5.6c-0.1,0.1-0.2,0.2-0.3,0.3c-0.6-0.4-1.2-0.9-1.9-1.4c-4.3-3.2-10.3-6.1-15.4-3 c-2.2,1.3-4.3,3-6.2,4.7c-2.2-2.5-4.6-4.8-7.2-6.9c-2.9-2.2-6.8-2.7-10.2-1.4c-2.2,0.7-4.5,2-7,3.6c-1.7-2.8-3.9-5.3-7.1-6.1 c-3-0.6-6,0.3-8.7,1.3c-2.2,0.9-5.7,2.2-8.6,3.9c-1.9,0.6-1.1,3.5,0.9,2.6c6.5-3.7,14-6.2,16.8-4c1.1,0.7,2.4,2.1,3.8,4.4 c-2.2,1.6-4.4,3.3-6.5,4.9c-1.2,1.2,0.7,3.1,1.9,1.9c1.7-1.4,3.8-2.9,5.9-4.3c0,0,0,0,0,0.1c0.1,0.3,0.3,0.6,0.3,0.8 c0.7,1.4,1,3,1.7,4.4c0.7,1.1,2.5,0.9,3.1-0.2c0.5-0.8,0.1-1.7-0.2-2.5c-0.4-1.1-0.7-1.6-1.5-3.4c-0.1-0.3-0.3-0.6-0.5-0.9 c3.3-1.8,6.7-3.1,9.5-3c2.2,0,5.5,2.6,8.9,6.6c0.4,0.4,0.7,0.8,1.1,1.2c-0.7,0.6-1.4,1.1-2,1.6c-1.2,1.2-4,2.4-4.3,4.1 c0,1.1,1.4,1.7,2.1,0.9c1.7-1.5,3.7-3.1,5.8-4.7c1.6,2,3.2,3.9,4.2,4.4c1.8,0.9,3.6-1.4,2.7-3c0,0,0-0.1,0-0.1 c-1-1.3-2-2.6-3.1-3.9c2.7-1.8,5.4-3.4,7.6-4.4c2.4-0.7,6,0.9,10.1,3.9c0.4,0.2,0.8,0.6,1.3,0.9c-1.2,1.4-2.3,2.7-3.2,4 c-0.3,0.6-0.8,1.3-0.7,2c0.1,1.5,2.4,1.7,2.8,0.2c0.3-1.2,1.6-2.8,3.3-4.4c1.5,1.3,2.9,2.5,3.5,2.9c1.8,1.8,4.5-0.8,3.1-2.6 c-1.2-1.3-2.3-2.2-3.5-3.1c1.9-1.6,3.9-2.9,5-3.5c3.9-1.6,6.1-0.2,10.5,2.3c-0.7,1.7-1.3,3.4-1.5,5.2c0.1,1.3,2.1,1.4,2.4,0.2 c0.3-1.4,0.8-2.7,1.4-3.9c1.5,1,1.3,1,3.2,2.4c0.5,0.2,0.1,0.4,1.7,0.6c0.1,0,0.2,0,0.2,0c0.3,0,0.7,0,0.9-0.2 c0.9-0.3,1.3-1.2,1.2-2.1c0.1,0.1,0.1,0,0-0.4c-0.3-1.6-2.2-2.4-4.4-4.1c-0.1-0.1-0.2-0.1-0.3-0.2c0,0,0-0.1,0.1-0.1 c1.7-2.2,3.6-3.6,8-3c0,0,0,0,0,0c5.4,1.2,7.5,2.3,10.9,3.7C329.8,387.7,331,383.4,328.2,382.5z"/><path d="M328.2,382.5C328.2,382.5,328.2,382.5,328.2,382.5C328.2,382.5,328.3,382.5,328.2,382.5 C328.2,382.5,328.2,382.5,328.2,382.5z"/><path d="M328.4,382.6c-0.1,0-0.1,0-0.2-0.1C328.4,382.6,329,382.8,328.4,382.6z"/></g></g></g><g><g id="change1_20"><path d="M120.5,223.2c-11.6,25.7-30.9,52.4-47.4,77.1c-18.9,28.1-37.9,56-57,83.9c-0.3,0.5-0.7,0.9-0.8,1.5 c-0.2,0.8,0.7,1.5,1.4,1.3c1.3-0.8,2.3-2.9,3.5-4.2c27.1-37,52-75.6,77.7-113.6C99.6,266.5,133.8,213.9,120.5,223.2z" fill="#ffbe4f"/></g><g id="change1_21"><path d="M163.4,220.6c-11,25.8-30,52.5-43.8,78.9c-16.9,32.5-31.5,65.3-44.7,98.3c-0.3,0.8-0.9,1.7-0.4,2.6 c0.4,0.8,1.5,1.1,2.3,0.6c1.1-0.8,1.4-2.9,2.4-4.9c7.7-19.4,16.4-37.9,25.9-57.4c9.4-20.5,19.7-40.6,31.2-60 c10.4-18.9,23-36.8,30.8-57.1C167.8,219.3,164.1,218.1,163.4,220.6z" fill="#ffbe4f"/></g><g id="change2_5"><path d="M91.7,369.2c-5.4-5-9.9-6.1-15.9-8c-10.5-2.8-21.2-5.1-31.8-7.5c-3.9-0.5-4.6-1.2-8.2-0.7 c-2.3,0.8-3,1.5-4,2.3c-4.7,4.8-9.9,11.2-15.7,18.1c-1.8,2.6-4.6,5.2-4.9,7.4c-1.3,1.8-2.6,3.7-3.9,5.6 c-2.6,3.7-5.2,7.6-6.9,11.8c-0.4,0.9-0.5,2-0.2,2.9c2.2,4.6,5.7,5.2,10.2,7c7.6,2.5,15.4,4.3,22.9,6.9c8.9,2.9,21,4.7,28.1,5.3 c1.3,0.2,2.6,0.2,3.8-0.1c5.6-1.9,8.5-7.6,12.1-13.4c4.7-8.3,11.2-22.3,12.9-27.1c1.6-4,0.9-2,2.4-5.2 C93.3,372.6,93,370.6,91.7,369.2z" fill="#202f5a"/></g></g><g><g><g id="change1_4"><path d="M267.7,223.7c-3.4,16.3-5.3,32.8-8.3,49.2c-5.9,32.8-12.6,65.4-17.2,98.4c-2.4,17.8-4.3,35.6-5.4,53.5 c0,0.7-0.3,1.4,0.2,2c0.5,0.5,1.5,0.1,1.5-0.6c3.3-18.1,5-37.9,7.4-55.3c4-26.8,8.8-53.4,13.8-80c3.5-17.8,6.1-35.8,8.9-53.8 c0.6-4.4,1.7-8.8,2.3-13.1C270.7,222.2,268.1,222,267.7,223.7z" fill="#ffbe4f"/></g><g id="change1_5"><path d="M308.5,224.5c-2.4,15.9-4.3,32-5.4,48.1c-1,17.7-1.1,35.4-2.7,53.1c-2.2,28.6-7.8,56.9-8,85.7 c-0.3,1.5,1.5,2.8,2.6,1.6c0.8-1.1,0.3-1,0.6-2.5c2.3-29.6,6.5-59,9.1-88.6c2.1-22.2,1.7-44.6,4-66.8c1-10,2.1-21.2,3.4-29.6 C312.8,223.2,309.1,222.1,308.5,224.5z" fill="#ffbe4f"/></g><g id="change2_2"><path d="M301.9,376.7c0.4-1.6-0.4-3.4-2-3.9c-1.7-0.6-3.5-0.1-5.2,0c-0.7,0.1-5.1,0.6-8.1,1.3 c-0.5,0.1-0.9,0.4-1.2,0.8c-1.3,0.2-2.5,0.6-3.5,1.6c-1.8,1.6-2.8,3.9-3.7,6.1c-4.1,10.2-7.1,20.9-10.3,31.4 c-0.2,0.7-0.4,1.4-0.7,2.1c-0.1,0.2-0.2,0.5-0.3,0.7c0,0,0,0,0,0c-2.1,1.2-4.8,1.6-7,1.9c-5.1,0.8-18.1,0.5-23.4,1.1 c-1.9,0.5-2.9,2.4-3.4,4.2c-0.8,2.3-1.6,4.7-1.8,7.1c-0.5,8.1,37.6,6.5,45.4,6.6c3.4-0.1,6.8,0,10.2,0.1c2-0.2,2,0.3,4.4-1.5 c3.6-4.1,5-9.7,6-14.9c1.3-7.5,2-16.4,2.8-25.7c0.3-5.2,0.9-10.5,1.1-15.7c0.1-0.7,0.3-1.3,0.3-1.4 C301.9,377.7,301.6,377.7,301.9,376.7z" fill="#202f5a"/></g></g><g id="change1_3"><path d="M276.7,405.6c-0.2-1.8-0.8-3.7-2.5-4.6c-3.4-1.3-7.3-0.6-10.9-0.8c-6.6-0.1-13.3-0.6-19.9-0.3 c-1.4,0.1-3.6-0.4-4.1,1.4c-0.4,1.3,0.9,2.5,2.2,2.2c4.4-0.6,15.6,0,23,0.2c3.2,0,7.3-0.1,8.3,0.5c0,0,0,0,0,0.1 c0,0.1,0.1,0.1,0.1,0.2c0,0.1,0,0.1,0,0.1c0,0.1,0,0.1,0.1,0.2c0.1,0.3,0.2,0.6,0.2,0.9c0.3,1.5,0,4.8-0.1,4.8 c-0.5,3.6-1.8,6.8-1.9,8.3c0.1,1.4,2,2,2.9,1c0.3-0.1,0.4-0.7,0.5-1c0,0,0,0.1,0,0.2c0.1-1.3,1.2-4.4,1.7-6.9 C276.9,409.6,276.9,406.4,276.7,405.6z" fill="#ffbe4f"/></g></g><g><g><g id="change1_6"><path d="M360,412.6c-9.6-41.9-14.4-82-15.7-125.1c-0.8-16.8-0.9-33.7-2.1-50.5c-0.5-2.9,0.1-7.6-1-9.9 c-0.9-1-2.7-0.3-2.7,1.1c3.2,61.8,0.7,124.9,18.8,184.8c0.6,1.3,0.5,3.1,1.6,4.2C361.9,417.9,360.3,414.1,360,412.6z" fill="#ffbe4f"/></g><g id="change1_7"><path d="M410.1,420c-6.4-29.9-12.1-59.9-18-89.8c-3.5-17.1-8.6-35.9-10.5-51.4c-1.7-15.5-1.6-31.1-3.5-46.5 c-0.3-1.4,0.1-3-0.8-4.1c-1-1.1-3-0.3-3,1.2c1.6,16.6,1.6,33.3,3.2,49.8c1.7,15.4,5.7,30.4,9,45.5c7.1,32.9,11.8,66.4,21.3,98.7 c0.3,0.7,0.3,1.7,1,2.1c0.6,0.4,1.5,0.1,1.8-0.5C411.2,423.4,410.3,421.7,410.1,420z" fill="#ffbe4f"/></g><g id="change2_3"><path d="M411.8,405.5c-0.3-1.2-0.5-2.4-0.8-3.6c-2.2-8.3-5.1-16.4-7.1-24.7c-0.6-2.7-1.2-5.4-1.6-8.2 c-0.1-0.5-0.5-1-1-1.3c-0.4-0.2-0.8-0.3-1.2-0.3c-0.2,0-0.5,0-0.7,0c-3.9,1.5-7.5,3.4-10.5,4.6c-0.2,0.1-0.4,0.1-0.5,0.2 c-1.5,0.6-2.1,1-1.7,1c-4.9,3-1.4,22.3-1.3,26.6c0,0,0,0,0,0c-1.5,1.1-3.2,2-4.9,2.9c-7.4,3.8-12.7,5.4-21.6,8.9 c-1.7,0.7-2.8,1.8-2.9,4.8c-0.3,4,0.4,8.7,0.4,10.8c-0.1,2.4-0.2,5.4,4,6.1c5,0.6,10-0.4,14.9-1c8.6-1.2,17.3-2.3,25.8-3.9 c4.5-0.9,9-1.5,13.4-2.4c1.9-0.4,3.1-2.1,2.9-4C416.1,416.2,413.9,410.6,411.8,405.5z" fill="#202f5a"/></g></g><g id="change1_11"><path d="M395.3,400.4c-1.2-4.5-2.2-9.1-4-13.4c-0.3-0.7-0.8-1.6-1.5-2.1c0.2-0.1-0.3-0.5-1.5-1.1 c-0.5-0.2-1.1-0.2-1.6-0.2c-5.3,0.5-10.6,1.6-15.7,3.1c-5.3,1.4-12.8,3.6-17,4.4c-1.6,0-1.6,2.5,0,2.5c10.9-2.2,23.2-6.2,32-6.8 c0.3,0,0.6,0,1,0c0,0,0,0,0.1,0.1c0,0,0,0,0,0c0.1,0.2,0.1,0.2,0.2,0.2c0.3,0.9,1.1,1.7,1,2c1.6,4.3,1.9,9,3.5,13.2 C392.9,403.9,395.9,402.4,395.3,400.4z" fill="#ffbe4f"/></g></g><g><g><g id="change1_1"><path d="M491.4,396c-2.2-7.2-4.9-14.3-7.7-21.3c-9.9-24.4-21.7-52.9-34.4-78.5c-7.5-15.5-15.5-30.7-22.5-46.4 c-2.9-6.3-4.4-10.6-7.4-17.3c-1.3-1.8-4.4-0.3-3.7,1.8c12.4,32.7,29.8,63.1,43.5,95.3c6.8,15.7,16,38.9,22.4,54.2 c3.1,7.7,4.8,11.2,8.8,19.7c0.1,0.1,0.1,0.1,0.1,0.2c0.2,0.5,0.7,1,1.3,1C495.5,404.7,491.5,398,491.4,396z" fill="#ffbe4f"/></g><g id="change1_2"><path d="M457.9,416.8c-17.9-48.2-29.5-98.4-44.9-147.4c-2.5-8.1-5-16.2-7.1-24.4c-1.2-4.2-1.9-8.6-3.9-12.5 c-0.5-0.8-1.5-1.4-2.4-1.2c-1.7,0.1-2.7,2.2-1.8,3.6c0.8,1.8,0.5,1,0.8,1.8c0.7,2,1.7,4,2.6,7.3c6.4,23.5,14.5,46.5,21,70 c8.8,31.3,18.3,62.5,29.9,93c1.5,3.5,2.4,7.2,3.8,10.7C456.5,418.8,458.2,418,457.9,416.8z" fill="#ffbe4f"/></g><g id="change2_1"><path d="M498.9,395.2c-4.9-12.4-12.4-26.1-18.7-35.5c-2.1-3.5-2.9-5.3-5.6-9.1c-1.3-1.7-3.6-1.3-5.1-0.1 c0,0-0.1,0.1-0.1,0.1c0,0,0,0-0.1,0.1c-1.6,1-3.8,1.7-4.3,3.8c0,0.2-0.1,0.3-0.1,0.4c-0.1,0.4-0.1,0.7-0.1,1.1 c1.1,9.7,2.7,17.7,5.3,28.2c0.3,1,0.5,1.9,0.8,2.9c-2.4,1.6-4.7,3.1-7.2,4.5c-4.8,2.9-7.7,5.2-10.3,6.9c-3.4,2.1-4.4,3-6.7,4.5 c0,0,0,0,0,0c-0.9,0.5-1.6,1.3-1.8,2.3c-0.7,5.5,1.6,11.4,2.3,15.6c0,0.1,0,0.3,0.1,0.5c0,0.3,0,0.1,0-0.1c0,0,0,0,0,0 c0,0,0-0.1,0-0.1c0,0.1,0,0.1,0,0.3c0.1,0.7,0.2,1.5,0.5,2.2c1.6,2.8,4.7,1.4,8.2,0c6.9-2.9,13.9-6,19-8.1 c7.9-3.3,15.8-6.8,23-11.2C501,402.2,500,398.1,498.9,395.2z" fill="#202f5a"/></g></g><g id="change1_19"><path d="M479.5,381.2c-1.7-2.8-3.3-5.7-5.4-8.2c-1.2-1.3-2.6-2.5-4.4-2.6c-3.9,0.2-5.8,1.9-9.3,3.2 c-5.8,2.6-11.9,5.4-16.3,7.5c-1.2,1.1,0.3,3.1,1.7,2.2c6.7-3.9,12.3-6.1,19.4-9c1.9-0.6,2.5-1,3.8-0.9c1.4-0.2,5.3,7.2,6.6,10 c0.9,1.4,0.8,1.5,1.4,2c1.1,1,2.9,0.3,3.3-1.1C480.5,382.3,480.3,383.3,479.5,381.2z" fill="#ffbe4f"/></g></g><g id="change1_10"><path d="M198.8,378.8c-9,1-18.1,1.1-27.2,1c-3.4-0.1-8.3,0.3-10.4,0.6c-1.8,0.3-3.8,0.4-5.3,1.4 c-2.8,2.1-3.9,5.7-5.2,8.9c-1.2,3.5-3,7.7-3,8.4c-0.5,1.5,1.3,2.9,2.7,2c1-0.8,0.6-0.8,0.9-1.2c0.1-0.1,0.1-0.3,0.2-0.5 c0,0,0,0,0,0c0,0,0-0.1,0-0.1c0,0,0,0,0,0c0.8-5.1,3-11.8,4.9-14.5c0.7-0.9,1-1,2.3-1.3c3.7-0.8,8.4-0.7,13-0.7 c9.2,0.1,18.6,0.2,27.7-1.1C200.8,381.2,200.4,378.8,198.8,378.8z" fill="#ffbe4f"/></g><g><g id="change1_12"><path d="M400.9,217.6c-3.2-7.7-11.5-13.4-17.9-19.7c-9.3-8.5-15.2-16.2-23.3-25.2c-16.8-18.6-35.2-40.6-54.8-61.3 c-5.9-6.3-12.3-12.2-18.4-18.4c-0.7-0.7-1.3-1.4-2-2.1c2.7-1.4,5.1-3.3,7.2-5.8c6.2-7.9,6.4-19.5-0.4-26.2 c3.5-5.5,2.8-14.2-2.8-18.5c-2.3-1.7-5.2-2.7-8.3-3.3c0.1-0.4,0.1-1,0.2-1.6c0.2-4,0.7-7.9,1-11.8c0.6-6.5,1.6-13,1.8-19.6 c0-1.3,0-1-0.3-2.6c0,0,0,0,0,0c-0.1-0.5-0.3-1.1-0.9-1.3c-2.2-1-3.5,0.8-3.5,2.3c0,0.1,0,0.1,0,0.2c0,0,0,0.1,0,0.2 c0.1,0.3,0,0.6,0,0.9c-1.4,9-3.1,22.2-3.6,32.8c-0.8,0-1.6,0-2.4,0.1c-4.6,0.4-8.4,2.7-10.8,5.6c-1.1,1.7-1.9,3.5-2.4,5.4 c-0.8,2.4-1,4.3-0.3,7.6c0.2,0.8,0.5,1.5,0.9,2.2c-3.4,1.8-6.3,4.1-8.5,6.8c-2.2,2.8-3.5,6.2-3.4,9.6c-0.1,1.6,0,3.1,0.3,4.7 c0.5,2.6,1.6,5.1,3.6,7.2c1.6,1.6,3.6,3,5.8,4.2c-0.1,0.1-0.1,0.2-0.2,0.2c-11.5,10.2-24.4,19.8-36.2,30.3 c-12.2,11.1-24.8,22.1-37,33.3c-10.6,10.2-20.6,20.8-31.4,30.9c-5,4.8-10.1,9.6-15,14.5c-1.5,1.7-4.6,3.6-3.2,5.9 c1.2,1.2,3.4,1.2,5.2,1.5c3.7,0.4,7.5,0.5,11.2,0.6c10.6,0,21.2,0,31.8,0.3c50,1,100.1,4.7,149.9,9.2c16.8,1.8,33.7,3.4,50.6,4.6 c4,0.3,8,0.6,11.9,0.9C399.7,222.6,402,220.6,400.9,217.6z" fill="#ffbe4f"/></g><g fill="#f75454" id="change4_2"><path d="M112.6,226.2c-1.6-11.9-4.8-23.5-7.4-35.2c-0.7-3.4-6.5-17.5-4.1-20.2c3.8-4.2,15.7,3.7,18.4,5.9 c6.5,5.4,10,13.6,14.2,20.6c3-5.4,3.6-13,6.8-18.9c4.8-8.8,13.4-16,23.8-16.7c10-0.8,17.4,4.4,22.3,12.8c2.5,4.4,4.1,9,5.6,13.8 c0.7,2.4,1.2,5.9,2.6,7.8c7.5-17.7,24-37.5,45.5-34.1c10.5,1.7,17.5,9,21.9,18.4c2.2,4.6,3.8,13.2,8,16.3 c4.1-8.3,10.5-15.6,17.8-21.3c6-4.7,14.3-10.5,22.3-8.9c17.4,3.4,17.4,21.1,25.1,33.2c6.4-10.4,11.8-20.3,23-26.5 c9.6-5.3,20.1-5.9,28.6,1.8c4.8,4.3,7.4,11.9,8.4,18.3c0.5,3.1-0.6,8,1,10.6c10.4-11.1,25.4-33.5,43.8-24.9 c0,0-9.6,30.1-15.3,45.2c-1.3,3.5-4.8,12.3-4.8,12.3s-25,1-37.5,0.6c-27.2-0.9-54.5-1.4-81.8-2.2 C238.4,232.9,112.6,226.2,112.6,226.2z"/><path d="M114.2,225.8c-2-14.9-5.8-29.7-10.2-44.1c-0.7-2.4-1.5-4.9-1.8-7.5c-0.2-1.9-0.1-2.9,2-2.9 c2.5,0,5.2,1.3,7.3,2.4c2.1,1.1,4.2,2.4,6.1,3.8c6.7,5.2,10.1,13.5,14.4,20.6c0.7,1.1,2.3,1.2,3,0c3.1-5.8,3.5-12.7,6.6-18.6 c2.9-5.6,7.4-10.4,12.9-13.4c5.4-2.9,12-3.8,17.8-1.9c5.6,1.8,9.8,6.3,12.7,11.4c2,3.6,3.5,7.5,4.8,11.5c1,3.2,1.3,6.9,3.2,9.7 c0.6,1,2.5,1.3,3,0c5.4-12.6,14.3-25.3,27.2-31c6.4-2.9,14-3.5,20.7-1.2c6.7,2.3,11.7,7.6,15,13.6c1.9,3.4,3,7,4.3,10.5 c1.2,3.3,2.6,6.8,5.4,9c0.9,0.7,2.3,0.7,2.8-0.4c3.3-6.5,7.8-12.2,13.1-17.1c5-4.6,11.1-9.5,17.7-11.5 c5.8-1.8,12.1-0.3,16.6,3.8c3.6,3.3,5.8,7.8,7.6,12.2c2.2,5.3,4,10.7,7,15.6c0.8,1.2,2.5,1.3,3.3,0 c6.4-10.4,12.7-21.4,24.3-26.9c5.7-2.7,12.4-3.8,18.4-1.4c6.1,2.4,10,7.6,12.1,13.7c1,3,2,6.2,2,9.3c0,3.2-0.4,6.4,1.1,9.4 c0.5,1,2.1,1.2,2.8,0.4c10.1-10.8,24.1-32.5,41.7-24.6c-0.3-0.7-0.6-1.3-0.8-2c-4.9,15.3-9.8,30.7-15.5,45.7 c-1.5,3.9-3,7.8-4.6,11.8c0.6-0.4,1.2-0.9,1.7-1.3c-7.9,0.3-15.8,0.6-23.7,0.7c-14.4,0.2-28.7-0.5-43.1-0.9 c-27.1-0.7-54.2-1.3-81.2-2.4c-22.6-0.9-45.3-1.9-67.9-3c-20.3-1-40.6-2-60.8-3.1c-10.1-0.5-20.3-1.4-30.4-1.4 c-0.1,0-0.3,0-0.4,0c-2.3-0.1-2.3,3.5,0,3.6c0.1,0,0.3,0,0.4,0c0.6,0.1,0,0,0.3,0c0.3,0,0.7,0.1,1,0.1c1.6,0.1,3.3,0.2,4.9,0.3 c6.1,0.4,12.1,0.7,18.2,1c19.5,0.9,39.1,1.9,58.6,2.8c22.8,1.1,45.6,2.1,68.3,3.1c25.3,1,50.7,1.8,76,2.4 c15.9,0.4,31.8,1.2,47.7,1.3c10,0.1,20-0.3,30-0.6c0.7,0,1.4-0.1,2-0.1c0.9,0,1.4-0.5,1.7-1.3c6.6-16.8,12.4-33.9,18-51.1 c0.7-2.1,1.4-4.3,2.1-6.4c0.2-0.7-0.2-1.7-0.8-2c-19.8-8.9-34.4,12.7-46,25.2c0.9,0.1,1.9,0.2,2.8,0.4c-1.4-2.8-0.3-6.6-0.7-9.6 c-0.4-3.1-1.2-6.3-2.4-9.2c-2.4-6.2-6.3-11.5-12.4-14.4c-12.6-6.1-27.2,1-36,10.5c-5.1,5.5-8.9,12.1-12.8,18.5 c1.1,0,2.2,0,3.3,0c-5.7-9.2-7-21.4-15.4-28.8c-4.6-4-10.9-6.2-17-5.3c-7.4,1.1-13.9,6.1-19.4,10.7 c-6.8,5.6-12.7,12.6-16.6,20.5c0.9-0.1,1.9-0.3,2.8-0.4c-2.8-2.2-4-5.9-5.1-9.1c-1.2-3.3-2.3-6.6-4-9.7 c-3.6-6.4-8.8-11.9-15.6-14.7c-14.5-5.9-29.7,1.2-39.7,11.9c-5.8,6.2-10.3,13.6-13.7,21.4c1,0,2,0,3,0c-1.9-2.8-2.2-6.8-3.2-10 c-1.2-3.7-2.7-7.4-4.6-10.9c-3-5.4-7.3-10.2-13.1-12.6c-12.6-5.3-26.4,1.5-33.9,12c-2.3,3.2-3.9,6.6-5,10.4 c-1.3,4.2-2.1,8.5-4.2,12.4c1,0,2,0,3,0c-4.4-7.3-7.9-15.6-14.7-21.1c-4.1-3.3-9.4-6.6-14.7-7.4c-2.2-0.3-5,0-6.4,2.1 c-1.1,1.8-0.7,4.3-0.3,6.2c1,5.3,3.3,10.3,4.5,15.5c2.7,11.5,5.7,23,7.4,34.8C111.2,228.8,114.5,227.9,114.2,225.8z"/></g><g id="change1_13"><path d="M115,185c-1.4-1.1-2.8-2.5-4.6-2.8c-0.9,0.2-1.1,1.4-0.4,1.9c8.4,4.6,13.4,15,16.1,23.2 c0.9,2.4,1.4,4.9,2.3,7.2c0.6,1,2.1,0.7,2.4-0.3C128.9,205.6,123.9,192.1,115,185z" fill="#ffbe4f"/></g><g id="change1_14"><path d="M179.5,200.7c-1.1-9.6-1.4-22.5-11.1-27.6c-8.5-3.4-14.3,6.3-17.7,12.6c-3,5.5-3.9,11.8-5.6,17.9 c-0.6,3.3-2.8,8.5-2.3,11.6c0.5,0.6,1.5,0.2,1.6-0.5c2-8.7,5.1-20.9,9-28.6c4.2-7.5,9.9-14.2,15.8-9.1c6.5,5.1,7.2,21.1,7.9,30.4 c0.1,1.7,0.1,3.4,0.1,5.1c-0.1,1,0.9,1.8,1.8,1.6c0.7-0.1,1.2-0.8,1.2-1.5C180.3,208.5,180,204.6,179.5,200.7z" fill="#ffbe4f"/></g><g id="change1_15"><path d="M254.1,210c-0.8-6.2-1.5-12.4-3.2-18.4c-2.4-10.2-12.8-21-23.9-16.8c-4.3,2.3-6.6,6.8-9.1,10.7 c-3.3,5.2-5.5,11-7.3,16.9c-1.2,3.8-2.5,7.6-3.1,11.4c0,1,1.6,1.3,1.9,0.3c3.4-11.8,6.7-22.3,13.6-32c1.5-2.3,3.4-4.4,5.8-5.3 c9.9-2.7,17.7,7.7,19.7,17.5c1.3,4.8,2,9.8,2.5,14.7c0.1,1.6,0.2,4.4,2.5,3.5C254.7,211.5,254.1,211.2,254.1,210z" fill="#ffbe4f"/></g><g id="change1_16"><path d="M320.2,211.5c-0.9-6.5-1.2-13.2-3-19.6c-2.8-10.2-11.5-15.7-21-9.3c-5.8,4-8.8,10.7-11.9,16.8 c-2.4,4.8-4.2,9.9-5.9,14.9c0,1.1,1.7,1.3,2,0.3c4.2-10.7,7.9-21.4,15.9-29.1c2.6-2.5,7.7-3.4,10.2-2.7c3.7,1.1,6.6,6,7.7,10 c2.2,8.7,2.6,17.6,3.6,26.5c0,0.8,0.6,1.5,1.4,1.6C323.1,221.4,320,213.8,320.2,211.5z" fill="#ffbe4f"/></g><g id="change1_17"><path d="M378.6,210.6c-0.1-1.2-0.5-8-0.9-12.6c-0.5-4.3-1-7.7-2.2-10.6c-1-2.3-2.6-4.7-5-5.6 c-7.2-2-11.9,3.5-16.1,9.4c-5.4,8.2-10.1,16.9-15.1,25.4c-1.3,1.2,0.5,3.2,1.7,1.7c5.9-9.3,13.4-23,18.8-29.7 c4.8-4.9,9.6-5.1,11.4-1.3c2.6,5.4,2.5,13,2.9,19.4c0.3,3.2,0,6.5,0.4,9.6c0.5,1.8,3.1,2.1,4.1,0.5 C379.4,214.9,378.6,213.6,378.6,210.6z" fill="#ffbe4f"/></g><g id="change1_18"><path d="M424.6,185.4c-1.6,0.1-2.7,1.5-4.1,2.2c-3.5,2.2-6.3,5.4-8.6,8.8c-4.5,6.7-7.9,14.1-11.8,21.2 c-0.6,1.6-2.3,3.3-1.9,5c0.4,0.9,1.8,1,2.3,0.2c5.3-9.4,11-21.7,17.4-28.5c3.4-3.5,6.2-4,8.2-6.5 C426.7,186.8,425.8,185.5,424.6,185.4z" fill="#ffbe4f"/></g><g id="change4_3"><path d="M255.1,106.2c-17.8,20.6-38.9,43.2-57.3,65.9c-1.1,1.6-2.4,2.2-3.2,3.9c-0.1,1,1.2,1.7,2,1 c20.7-24.1,39.5-45.4,61-69.1C258.6,106.3,256.1,104.6,255.1,106.2z" fill="#f75454"/></g><g id="change4_4"><path d="M332.8,173.3c-15.2-21.2-30.3-42.4-46.2-63c-2.7-3.5-5.1-7.2-7.8-10.7c-0.3-0.3-0.7-0.5-1.2-0.6 c-1.5-0.1-2.4,1.7-1.4,2.8c9.5,13.9,20.5,26.7,30.7,40.1c8.4,11,15.6,22.8,24.5,33.3C333.1,176.5,334.1,174.4,332.8,173.3z" fill="#f75454"/></g><g id="change4_5"><path d="M272.2,135.7c0.1-8.2-0.8-16.4-0.3-24.6c-0.1-1.5,0.6-3.2-0.2-4.5c-0.6-0.8-1.9-0.7-2.5,0.2 c-1.2,7.9-0.2,16.2-0.4,24.2c-0.2,13.1,0.4,26.4,1.3,37.7c0.2,4.1,0.2,8.3,0.5,12.4c0.1,0.6,0,1.3,0.6,1.7 c0.9,0.6,2.2-0.2,1.9-1.3C272.5,167.7,272,150.7,272.2,135.7z" fill="#f75454"/></g><g id="change4_6"><path d="M281,92c-0.9-1.4-3.2,0-4.6-0.1c-3.2,0.4-8.7-0.2-12.7-1c-0.7,0.1-3-1.2-4.2-0.7c-0.4,0.3-0.2,0.9,0.2,1.1 c5.8,1.9,12,3.3,18.1,2.7C279.1,93.8,281.7,94,281,92z" fill="#f75454"/></g><g id="change4_7"><path d="M286.2,60.3c-5.5,1.2-10.9,1.6-15.6,0.6c-2.1-0.3-6.1-1.9-7-2.4c-0.6-0.2-1.1-0.8-1.7-1 c-1-0.3-1.6,1.2-0.7,1.8c3.5,2.5,7.2,3.7,11.8,4.4c4.7,0.5,11-0.4,14.7-1.6C289,60.9,287.5,59.8,286.2,60.3z" fill="#f75454"/></g><g id="change4_8"><path d="M278.4,36.6c-0.7-0.5-1.7-0.6-2.5-0.5c-1.1,0.3-0.8,2,0.3,2C277.2,38.3,279.6,38.2,278.4,36.6z" fill="#f75454"/></g></g></g><g id="change1_22"><path d="M70.9,401.6c-0.1-0.1-0.2-0.1-0.5-0.3c-15.3-5.7-36.7-12-54.6-16.4c-2.9-1.6-5.2,2.4-2,3.7 c11.2,2.9,22.4,5.8,33.4,9.4c6,1.9,19.9,7.2,22,7.2C71.4,405.9,72.6,402.7,70.9,401.6z" fill="#ffbe4f"/></g></g></svg>