<?xml version="1.0" encoding="UTF-8" standalone="no"?><svg xmlns="http://www.w3.org/2000/svg" xmlns:xlink="http://www.w3.org/1999/xlink" fill="#000000" height="396.6" preserveAspectRatio="xMidYMid meet" version="1" viewBox="-1.5 -1.3 502.3 396.6" width="502.3" zoomAndPan="magnify"><g><g><g id="change1_1"><path d="M495,337.1c-0.3-58.6,5.8-114.5,4.8-180.4c-2.9-45.3-3.3-73.2-6-118.5c-0.3-1.6-0.1-3.8-2.2-4.2 c-0.9-0.2-3-0.4-3.6-0.4c-12.6-0.4-25.2-0.9-37.8-1.1c-40.6-1.3-81.2,0-121.8,0.2c-24.5-0.9-49,0.4-73.4-1.2 c-0.8,0-1.6-0.3-2.2,0.3c-0.3,0.2-0.4,0.5-0.4,0.8c-0.9,0.8-1.7,2-2.4,2.7C201.7,92,154.8,150.1,113,211.1 c-9.6,14.3-19.5,28.4-29,42.7c-1.3,2.4-3.7,4.7-4.1,7.3c0.1,0.2-0.3,2.3-0.3,2.7c-1,30.7,0.6,43.6,1.1,74.3c0.1,1,0,2.2,0.2,3.2 c-0.4,0.9,0.2,2.2,1.4,2.2c70.9,1.9,141.8-1.2,212.6-0.8c70.5,0.1,115.2-2.2,195.4-1.9C494.9,340.6,495.2,338.8,495,337.1z" fill="#f66125"/></g><g id="change2_1"><path d="M482.5,267.7c-1.4-1.5-3.9-0.7-5.8-1.1c-95.6-6.8-191.4-4.9-287.2-4.7c-29.5,0.1-59.1,1.5-88.6-0.6 c-1.8,0.1-3.8-0.9-5.5,0.1c-1.2,0.9-0.7,3.1,0.9,3.3c127.1,5.4,254.8-3.6,381.9,6.4c1.1,0,2.2,0.4,3.2,0.1 C482.9,270.9,483.5,268.9,482.5,267.7z" fill="#202f5a"/></g><g id="change2_2"><path d="M263,187.1c-0.9-5-1.5-10.4-4.2-14.8c-3.5-5.3-8.4-9.9-14.1-12.8c-0.2-0.6-0.6-1.1-1.3-1.3 c-1.6-0.6-3.3-0.9-5-1.2c0,0,0,0,0,0c0.2,0,0.3,0.1,0,0c-0.5-0.2-0.9-0.2-1.4-0.2c-13.6-1.4-29.8,5.6-41,13.4 c-17.5,13.9-28.3,38.7-24.9,61c3.8,13.6,17.6,22.9,31.5,23c16-0.9,32.9-6.9,44-18.7c6.8-6.9,10.6-16.1,13.4-25.2 C262.3,202.9,264.2,195,263,187.1z" fill="#202f5a"/></g><g id="change2_3"><path d="M346.4,92.2c-0.9-5-1.5-10.4-4.2-14.8c-3.5-5.3-8.4-9.9-14.1-12.8c-0.2-0.6-0.6-1.1-1.3-1.3 c-1.6-0.6-3.3-0.9-5-1.2c0,0,0,0,0,0c0.2,0,0.3,0.1,0,0c-0.5-0.2-0.9-0.2-1.4-0.2c-13.6-1.4-29.8,5.6-41,13.4 c-17.5,13.9-28.3,38.7-24.9,61c3.8,13.6,17.6,22.9,31.5,23c16-0.9,32.9-6.9,44-18.7c6.8-6.9,10.6-16.1,13.4-25.2 C345.7,108,347.6,100,346.4,92.2z" fill="#202f5a"/></g><g id="change2_4"><path d="M368.9,200.5c1.5-10.9,1.3-22.5-4.8-32.1c-5.6-8.7-16.9-12.5-26.9-11.6c-9.1,1.1-17.3,6.3-24.1,12.2 c0,0-0.1,0.1-0.1,0.1c-16.3,12.3-26.6,34.8-22.5,54.8c7.2,28.3,43.1,30.8,62,12.5C362.6,227.2,367.4,213.8,368.9,200.5z" fill="#202f5a"/></g><g id="change2_5"><path d="M451.3,157.7c-4.4-2.3-5.9-3-11.6-3.5c-13.8,1.2-25.2,9.8-32.7,18.2c-6.8,8.9-12.9,19-14.9,30.1 c-2.4,8.3-3.3,17-1.4,25.5c3.4,13.5,17.8,21.5,31.2,19.8c13.2-2,24.8-11.5,32.4-22.1C468.3,206.3,475.2,172.3,451.3,157.7z" fill="#202f5a"/></g><g id="change2_6"><path d="M427.2,65.2c-4.4-2.3-5.9-3-11.6-3.5c-13.8,1.2-25.2,9.8-32.7,18.2c-6.8,8.9-12.9,19-14.9,30.1 c-2.4,8.3-3.3,17-1.4,25.5c3.4,13.5,17.8,21.5,31.2,19.8c13.2-2,24.8-11.5,32.4-22.1C444.1,113.8,451.1,79.8,427.2,65.2z" fill="#202f5a"/></g><g id="change1_2"><path d="M240.1,162.9c0-5-17.1,1.9-20.1,2.6c-13.8,5-24.5,15.9-31.2,28.7c-7.5,12.2-9.8,28.9-5.1,43.1 c1.5,4.4,4.2,8.5,8,11.2c2.3,1.6,4.9,3,7.7,3.3c1.3-0.1,1.6-2.1,0.3-2.5c-18.6-5-18.2-33.9-10.5-49.7c4.4-8,11.4-18,19.6-24.3 c7.7-5.8,18.7-9.9,29.8-10.9c0,0-0.5,0.1-0.3,0C239.2,164.7,240.1,163.9,240.1,162.9z" fill="#f66125"/></g><g id="change1_3"><path d="M323,67.4c-4.1-1.2-11,2.5-16.6,4c-18.3,6.7-32.3,22-39.8,39.7c-3.4,8.8-3.1,18.5-1.6,27.7 c0.8,4.4,2,9.1,5.3,12.4c1.5,1.3,3.3,2.6,5.3,2.9c1.8-0.1,2.1-2.8,0.4-3.3c-6.4-2-7.6-11.3-8.4-19.6c-1.1-7.3,1.3-18.4,5.5-25.1 c10-19.8,29.8-32,49-33.9C324.3,71.8,324.9,68.6,323,67.4z" fill="#f66125"/></g><g id="change1_4"><path d="M347.3,159.9c-9.8-0.3-18.8,5.5-26.2,11.5c-16.9,15-24.5,41.1-15.8,62.3c1.6,2.7,3.7,5.2,6.4,6.8 c1.1,0.9,3,1,2.8-0.9c-0.5-1.2-2-1.5-2.9-2.4c-0.1-0.1-0.1,0,0,0c-0.1-0.1-0.2-0.1-0.2-0.2c-1.9-1.6-3.6-4.7-4.2-6.4 c-8.9-27.7,7.4-60.1,35-67.5c2.3-0.6,3-0.3,5.4-0.5C349.1,162.2,348.8,159.9,347.3,159.9z" fill="#f66125"/></g><g id="change1_5"><path d="M445.3,158c-3.8-0.9-7.7,0.7-11.2,2.3c-2.7,1.2-10.1,5.6-13.5,9.1c-10.6,9.3-16.4,22.8-19.4,36.4 c-2,8.9-2.9,18.4,0.1,27.1c1.1,2.7,3,5,5.3,6.8c1.2,1.1,3.4,2.6,4.3,0.4c0.5-2.4-3-3.1-3.6-4.4c-2.1-2.6-2.6-4-3.2-7.5 c-1.4-8-0.2-15.3,2-23.4c2.6-9.4,5.2-16.2,10.2-23.6c4.8-8,15.8-16.2,22.4-18.7c3-1.1,4.4-1.2,6.1-1 C446.8,161.5,447.2,158.5,445.3,158z" fill="#f66125"/></g><g id="change1_6"><path d="M416.2,63.5c-7.2,2.1-13.4,6.9-19.1,11.8c-4.7,4.2-9.7,8.4-12.9,14c-8.7,16.4-13.7,37.6-4.6,54.8 c1.9,2.9,4.4,5.9,7.7,7.2c1.6,0.4,2.9-1.5,2.1-2.8c-0.8-1.2-2.4-1.5-3.4-2.5c-2.8-2.5-4.5-5.7-5.4-8.1c-4.8-14-2.2-27.1,3.9-40.8 c3.4-9.2,9.8-15.2,18.3-22.1c3.2-2.9,9.5-6.1,12.6-7.3c0.7-0.3,1.6-0.2,2.2-0.7C419.4,66,418.2,63,416.2,63.5z" fill="#f66125"/></g><g id="change3_2"><path d="M217.5,150.7c-1.6-0.7-1.7-0.8-2.1-1.2c-0.1-0.1-0.1-0.1-0.1-0.2c0.5-1.8,0.4-3.6-1.3-4.6 c-1.2-0.5-2.4,0.3-2.8,1.4c-0.3,1.6,0,3,0.6,4.3c-0.9,1.2-1.8,2.3-3,3.2c-1.5,0.9-2.8,1.1-3.8,0.6c0.7-2.6,0.6-5.4-2.4-5.4 c-2.3,0.8-2.2,3.9-1.2,6.1c-1.4,2.5-3.8,4.5-5.4,3c0.1-0.9,0.1-1.7,0.1-2.6c-0.1-2.3-2.9-3.6-3.8-1c-0.5,2.5,0.1,4.4,1.1,5.7 c-0.1,0.3-0.1,0.6-0.2,0.9c-0.6,1.8-1.5,3.1-2.6,4.2c-2.1,1.2-1.1,3.1,0.4,2.2c1.9-1.5,3.3-3.5,4.1-5.8c2.5,1.1,5.9,0.3,8.1-3.3 c0.1-0.3,0.3-0.6,0.5-1c3.6,1.4,7.5-1.5,9.6-4.6c0.3,0.3,0.6,0.6,0.9,1c0.8,0.4,0.8,1.1,2.5,0.9 C218.6,154.2,219.1,151.6,217.5,150.7z" fill="#ffbe4f"/></g><g id="change3_3"><path d="M311.7,161.8c-0.5-0.3-0.7-0.4-0.9-0.6c0.1-0.8,0-1.5-1.1-2.1c-3-0.6-2.9,2.6-1.3,4.3 c-0.4,1.5-1.5,3.3-2.5,3.4c0.1-1.7-1.6-3.3-3-1.6c-0.6,1.2-0.2,2.4,0.6,3.2c-0.1,0.9-1,2.8-2.4,3c-0.3,0-0.6-0.1-0.9-0.2 c0-0.2,0-0.5,0-0.7c-0.2-0.8-0.5-1.9-1.4-2.1c-1.2-0.3-1.7,1.2-1.2,2.1c0.2,0.6,0.5,1.2,1,1.6c0,0.2,0,0.5,0,0.7 c0,1.5-0.4,2-0.7,3.5c0,0.8,1.2,1.1,1.6,0.4c0.6-1.1,0.8-2.4,0.9-3.6c1.1,0.3,2.2,0.2,3.1-0.6c0.9-0.8,1.5-1.9,1.9-3.1 c0.6,0.1,1.3,0.1,1.9-0.2c1.8-0.6,2.8-2.9,3.2-4.6c0.7,0.3,1.4,0.5,2,0.2C313.6,163.9,313.1,162,311.7,161.8z" fill="#ffbe4f"/></g><g fill="#ffbe4f" id="change3_1"><path d="M414,157.4C414,157.4,414,157.4,414,157.4C414.2,157.5,414.2,157.6,414,157.4z"/><path d="M414.2,157.6c0,0-0.1-0.1-0.2-0.2c-0.2-0.1-0.6-0.4-0.9-0.6c-0.4-0.2-0.4-0.3-0.5-0.4c0,0,0,0.1,0,0.2 c-1.1-2.5-3.9-0.4-2.3,1.7c0.3,1.6-1.2,3.4-1.9,3.1c0-0.5,0-1-0.2-1.5c-2-3-4.8,0.3-2.8,2.8c-0.1,0.6-0.5,1.1-1.2,2.2 c-0.3,0.3-0.5,0.5-1,0.5c-0.2-0.1-0.3-0.1-0.5-0.2c0-0.3,0-0.6,0-0.8c-0.2-1.3-2.1-2-2.8-0.7c-0.6,1.6,0.1,2.9,1.2,3.6 c0.1,0.8,0.1,1.7,0,2.6c0,0.7-0.3,0.9-0.2,1.7c0.2,0.4,0.9,0.4,1.1-0.1c0.3-1.2,0.5-2.5,0.6-3.6c1.5,0.3,3.1-0.2,4-1.9 c0.3-0.5,0.6-1.1,0.9-1.6c0.5,0.2,1.1,0.3,1.6,0.1c1.4-0.4,2.4-1.7,3-3c0.1-0.4,0.3-0.9,0.4-1.5c0.1,0,0.2,0.1,0.4,0.2 c0,0,0,0,0.1,0C414.5,160.8,415.4,158.5,414.2,157.6z"/><path d="M412.5,156.5C412.6,156.5,412.6,156.5,412.5,156.5C412.6,156.5,412.6,156.5,412.5,156.5 C412.6,156.6,412.6,156.6,412.5,156.5z"/><path d="M412.8,160.2C412.8,160.2,412.8,160.2,412.8,160.2C413.2,160.3,413.2,160.3,412.8,160.2z"/></g><g id="change3_4"><path d="M418.5,51.5c-0.6-0.4-0.2-0.1-0.6-0.5c-0.1-0.2-0.3-0.4-0.4-0.5c0.4,0.6-0.2-0.4-0.5-1 c-0.1-0.2-0.2-0.8-0.4-1.2c0.1-0.4,0.3-0.7,0.4-1.1c0.2-1.8-2-3.1-3.4-1.8c-0.7,1-1.1,2.3-1.1,3.6c-0.9,1.4-2.2,2.8-3.3,3.4 c-2.5,1.5-3.9,1.6-4.3,0.6c0.2-0.6,0.3-1.2,0.5-1.9c0.5-2.5-2.9-4-4.1-1.6c-0.6,1.6-0.6,3.1-0.2,4.4c-0.4,1.5-1.1,3.3-2.3,3.8 c-1.2,0.8-2.3,0.9-2.9,0.7c0.6-2.7,0.3-4.9-2-4.9c-1.8,0.7-2.2,3.3-1.4,5.3c-0.5,1.4-1.2,2.9-1.8,3.9c-0.8,1.5-1.4,1.7-2.3,3 c-0.9,1.7,1.5,3.5,2.9,2.2c1-0.8,2.6-3.7,3.8-6.7c2.7,0.9,5.8-0.6,7.4-2.7c0.3-0.6,0.6-1.1,0.9-1.6c1.6,0.9,3.7,1.1,5.9,0.1 c1.7-0.8,3.2-2,4.4-3.4c0.9,1.4,2.2,2.3,3.9,2.3C419.6,55.2,420.1,52.5,418.5,51.5z" fill="#ffbe4f"/></g><g id="change3_5"><path d="M311.6,51.1c-0.6-0.3-1.1-0.6-1.6-1c0,0-0.1-0.1-0.1-0.2c1.6-2.5,2.4-5.3-0.9-6.2c-2.7,0.1-3.7,2.7-3.5,5.2 c-0.7,0.7-1.5,1.5-2.6,2.2c-0.9,0.6-1.9,1.1-2.9,1.5c-0.3,0.1-1,0.3-1.2,0.3c0,0-0.2,0-0.3,0c-0.4-0.1-0.4-0.1-0.6-0.3 c0.8-1.2,1.2-2.5,0.3-3.9c-2.7-2.4-4.6,1.3-4.3,4.1c-1.4,1.8-3.4,4.1-5.1,4.3c-0.9,0-1.8-0.5-2.3-1.2c0.4-1.3,0.7-2.8-0.3-3.8 c-1.5-1.2-2.8,0.8-2.7,2.2c-0.1,0.8,0.2,1.6,0.5,2.4c-0.6,2.1-1.4,4.2-2.5,5.8c-0.6,1.1-1.5,1.7-2.3,2.6c-0.5,0.8,0.7,1.7,1.4,1.1 c2.5-1.8,3.9-4.7,4.9-7.6c0.8,0.6,1.8,1.1,2.8,1.2c2.5,0.1,4.6-1.7,6.2-3.4c0.2-0.2,0.4-0.5,0.7-0.7c2.9,3.1,8.8,0.3,11.5-2.3 c0.1-0.1,0.3-0.3,0.5-0.4c0.2,0.1,0.3,0.3,0.5,0.5c1.6,1,4.6,2.8,5.6,0.3C313.7,52.5,312.7,51.5,311.6,51.1z" fill="#ffbe4f"/></g><g><g><g id="change2_7"><path d="M55.4,309.2c-2.6-3.1-6.7-4.4-10.1-3.2c-5.7,1.1-9.4,6.3-7.2,12.9c2.5,6.4,11,6.9,14.4,4.9 C57.4,321.2,58.9,313.5,55.4,309.2z" fill="#202f5a"/></g><g id="change2_8"><path d="M114.8,311.5c-2.6-3.1-6.7-4.4-10.1-3.2c-5.7,1.1-9.4,6.3-7.2,12.9c2.5,6.4,11,6.9,14.4,4.9 C116.8,323.5,118.3,315.8,114.8,311.5z" fill="#202f5a"/></g><g id="change4_1"><path d="M75.1,311.9c-2.6-3.1-6.7-4.4-10.1-3.2c-5.7,1.1-9.4,6.3-7.2,12.9c2.5,6.4,11,6.9,14.4,4.9 C77.2,323.9,78.6,316.2,75.1,311.9z" fill="#32ad62"/></g><g id="change3_8"><path d="M95,311.9c-2.6-3.1-6.7-4.4-10.1-3.2c-5.7,1.1-9.4,6.3-7.2,12.9c2.5,6.4,11,6.9,14.4,4.9 C97,323.9,98.5,316.2,95,311.9z" fill="#ffbe4f"/></g><g id="change1_9"><path d="M38,299.7c-2.6-3.1-6.7-4.4-10.1-3.2c-5.7,1.1-9.4,6.3-7.2,12.9c2.5,6.4,11,6.9,14.4,4.9 C40.1,311.6,41.5,304,38,299.7z" fill="#f66125"/></g><g id="change5_1"><path d="M67.7,293.7c-2.6-3.1-6.7-4.4-10.1-3.2c-5.7,1.1-9.4,6.3-7.2,12.9c2.5,6.4,11,6.9,14.4,4.9 C69.8,305.6,71.2,298,67.7,293.7z" fill="#f75454"/></g><g id="change5_2"><path d="M124.6,294.6c-2.6-3.1-6.7-4.4-10.1-3.2c-5.7,1.1-9.4,6.3-7.2,12.9c2.5,6.4,11,6.9,14.4,4.9 C126.7,306.6,128.1,298.9,124.6,294.6z" fill="#f75454"/></g><g id="change4_2"><path d="M87.6,294.1c-2.6-3.1-6.7-4.4-10.1-3.2c-5.7,1.1-9.4,6.3-7.2,12.9c2.5,6.4,11,6.9,14.4,4.9 C89.6,306,91.1,298.4,87.6,294.1z" fill="#32ad62"/></g><g id="change3_9"><path d="M107.4,293.4c-2.6-3.1-6.7-4.4-10.1-3.2c-5.7,1.1-9.4,6.3-7.2,12.9c2.5,6.4,11,6.9,14.4,4.9 C109.4,305.4,110.9,297.7,107.4,293.4z" fill="#ffbe4f"/></g></g><g><g id="change2_9"><path d="M198.7,316.5c-2.6-3.1-6.7-4.4-10.1-3.2c-5.7,1.1-9.4,6.3-7.2,12.9c2.5,6.4,11,6.9,14.4,4.9 C200.7,328.5,202.2,320.9,198.7,316.5z" fill="#202f5a"/></g><g id="change2_10"><path d="M258.1,318.9c-2.6-3.1-6.7-4.4-10.1-3.2c-5.7,1.1-9.4,6.3-7.2,12.9c2.5,6.4,11,6.9,14.4,4.9 C260.2,330.8,261.6,323.2,258.1,318.9z" fill="#202f5a"/></g><g id="change4_3"><path d="M218.5,319.2c-2.6-3.1-6.7-4.4-10.1-3.2c-5.7,1.1-9.4,6.3-7.2,12.9c2.5,6.4,11,6.9,14.4,4.9 C220.5,331.2,222,323.5,218.5,319.2z" fill="#32ad62"/></g><g id="change3_10"><path d="M238.3,319.3c-2.6-3.1-6.7-4.4-10.1-3.2c-5.7,1.1-9.4,6.3-7.2,12.9c2.5,6.4,11,6.9,14.4,4.9 C240.3,331.2,241.8,323.6,238.3,319.3z" fill="#ffbe4f"/></g><g id="change3_11"><path d="M180.7,308.6c-2.6-3.1-6.7-4.4-10.1-3.2c-5.7,1.1-9.4,6.3-7.2,12.9c2.5,6.4,11,6.9,14.4,4.9 C182.7,320.6,184.2,312.9,180.7,308.6z" fill="#ffbe4f"/></g><g id="change5_3"><path d="M211.1,301c-2.6-3.1-6.7-4.4-10.1-3.2c-5.7,1.1-9.4,6.3-7.2,12.9c2.5,6.4,11,6.9,14.4,4.9 C213.1,313,214.6,305.3,211.1,301z" fill="#f75454"/></g><g id="change5_4"><path d="M273.6,306.4c-2.6-3.1-6.7-4.4-10.1-3.2c-5.7,1.1-9.4,6.3-7.2,12.9c2.5,6.4,11,6.9,14.4,4.9 C275.6,318.4,277.1,310.7,273.6,306.4z" fill="#f75454"/></g><g id="change4_4"><path d="M192.6,293c-2.6-3.1-6.7-4.4-10.1-3.2c-5.7,1.1-9.4,6.3-7.2,12.9c2.5,6.4,11,6.9,14.4,4.9 C194.6,305,196.1,297.3,192.6,293z" fill="#32ad62"/></g><g id="change4_5"><path d="M230.9,301.4c-2.6-3.1-6.7-4.4-10.1-3.2c-5.7,1.1-9.4,6.3-7.2,12.9c2.5,6.4,11,6.9,14.4,4.9 C232.9,313.4,234.4,305.7,230.9,301.4z" fill="#32ad62"/></g><g id="change3_12"><path d="M250.7,300.8c-2.6-3.1-6.7-4.4-10.1-3.2c-5.7,1.1-9.4,6.3-7.2,12.9c2.5,6.4,11,6.9,14.4,4.9 C252.7,312.7,254.2,305.1,250.7,300.8z" fill="#ffbe4f"/></g></g><g id="change2_11"><path d="M329,316.9c-2.6-3.1-6.7-4.4-10.1-3.2c-5.7,1.1-9.4,6.3-7.2,12.9c2.5,6.4,11,6.9,14.4,4.9 C331,328.9,332.5,321.2,329,316.9z" fill="#202f5a"/></g><g id="change2_12"><path d="M388.4,319.2c-2.6-3.1-6.7-4.4-10.1-3.2c-5.7,1.1-9.4,6.3-7.2,12.9c2.5,6.4,11,6.9,14.4,4.9 C390.4,331.2,391.9,323.5,388.4,319.2z" fill="#202f5a"/></g><g id="change4_6"><path d="M348.7,319.5c-2.6-3.1-6.7-4.4-10.1-3.2c-5.7,1.1-9.4,6.3-7.2,12.9c2.5,6.4,11,6.9,14.4,4.9 C350.8,331.5,352.2,323.9,348.7,319.5z" fill="#32ad62"/></g><g id="change3_14"><path d="M368.6,319.6c-2.6-3.1-6.7-4.4-10.1-3.2c-5.7,1.1-9.4,6.3-7.2,12.9c2.5,6.4,11,6.9,14.4,4.9 C370.6,331.6,372.1,323.9,368.6,319.6z" fill="#ffbe4f"/></g><g id="change5_5"><path d="M341.3,301.6c-2.6-3.1-6.7-4.4-10.1-3.2c-5.7,1.1-9.4,6.3-7.2,12.9c2.5,6.4,11,6.9,14.4,4.9 C343.4,313.6,344.8,305.9,341.3,301.6z" fill="#f75454"/></g><g id="change4_7"><path d="M316.6,301.5c-2.6-3.1-6.7-4.4-10.1-3.2c-5.7,1.1-9.4,6.3-7.2,12.9c2.5,6.4,11,6.9,14.4,4.9 C318.6,313.5,320.1,305.8,316.6,301.5z" fill="#32ad62"/></g><g id="change4_8"><path d="M361.5,301.8c-2.6-3.1-6.7-4.4-10.1-3.2c-5.7,1.1-9.4,6.3-7.2,12.9c2.5,6.4,11,6.9,14.4,4.9 C363.5,313.7,365,306.1,361.5,301.8z" fill="#32ad62"/></g><g id="change5_6"><path d="M381.5,300.9c-2.6-3.1-6.7-4.4-10.1-3.2c-5.7,1.1-9.4,6.3-7.2,12.9c2.5,6.4,11,6.9,14.4,4.9 C383.5,312.9,385,305.2,381.5,300.9z" fill="#f75454"/></g><g><g id="change3_6"><path d="M413.5,303.3c-4.2-1.3-14.2-3.7-14.7-3.7c-5.3-0.5-10.6-1.2-15.9-1.7c-19.7-1.5-39.4-3-59.2-3.5 c-2,0.2-17.7-0.8-25.2,0.2c0,0,0,0,0,0c-6.3-0.2-12.7-0.4-19-0.7c-0.2-0.1-0.4-0.1-0.6-0.1c-37.4-3.7-74.9-5.6-112.4-6.2 c-3.2,0.3-30-1.1-40.1-1.4c0,0,0,0,0,0.1c-24.1-0.9-58.6-0.7-85.4-1.5c-16.2-0.5-28.6,0.3-36.7,2.6C0,288.6,0,294.2,0,294.8 c1.9,26.4-1.5,53.9,1.6,79.3c3.6,13.9,32.9,13.3,44.9,15.5c51.8,4,104,2.4,155.9,3c44.1,0.2,88.2,2.7,132.4,1.2 c15.8-0.4,35.7-1.6,48.5-2.4c8.9-0.4,18.3-0.4,22.1-12c5.8-16.1,7.2-33.2,8.1-50.1c0.4-6.5,1-12.9,1.5-19.3 C414.9,307.7,415.6,304.9,413.5,303.3z M120.2,320.4c-5.4,6.9-13.4,6.9-21.4,7.3c-7.4,0.3-14.7,0.5-22.1,0.3 c-14.8-0.4-29.3-2.6-43.6-6.5c-14.4-3.9-13.7-21-13.9-33.4c35,1,74.3,0.8,107.5,2.9C127,301.6,126.3,312.6,120.2,320.4z M262.9,330.6c-14,6.2-31.3,5.5-46.2,4.6c-15.2-0.9-31.2-0.8-44.7-8.9c-6-3.6-10.2-8.4-11.4-15.4c-1.2-6.6-1.1-13.3-0.7-19.9 c38.6,1.4,77.4,3,115.7,7.1c0.3,4.3,0.3,8.6,0,12.7C275,319.5,270.9,327,262.9,330.6z M393.9,324.3c-2.3,3.5-5.4,5.2-9.1,5.8 c-3.6,1.2-7.2,2.1-11.1,2.5c-4.6,0.4-10,0.5-14.1,0.8c-10,0.7-20.4,2.2-30.4,1c-2.9-0.3-4.7-0.9-7.1-1.4c-1.7-0.3-3.3-0.6-5-1 c-0.3-0.1-0.6-0.1-0.9-0.2c-0.1,0-0.1,0-0.2,0c-5.1-1-9.8-2.6-13.3-6.7c-6.5-7.7-3.4-21.8-4-27c26.8,0.1,53.6,1.3,80.3,3.3 c6.1,0.3,12.2,1.3,18.2,1.7c-0.2,3.2-0.4,6.4-0.6,9.6C396.5,316.8,396.3,320.8,393.9,324.3z" fill="#ffbe4f"/></g><g id="change1_7"><path d="M143.8,292.8c-2.2-2.1-4.6,0.4-3.8,3c0.6,2.8,0.5,3.3,0.5,6.8c-1.5,24.9-3.1,49.8-2.3,74.7 c0.5,3.4-0.5,7.2,0.5,10.3c0.9,1.1,3,0.5,3-1C140.8,355.5,143.1,323.7,143.8,292.8z" fill="#f66125"/></g><g id="change1_8"><path d="M288.1,320c0-5.4-0.3-10.9-0.1-16.3c0.1-1.2-1-2.1-2.2-1.9c-1.7,0.5-1.5,1.9-1.4,2.7 c0.4,26.8,1.8,53.6,0.9,80.4c-0.1,1.9-0.3,2.2-0.5,3.7c0,1.6,2.5,2,3,0.4C289.6,366,287.4,343,288.1,320z" fill="#f66125"/></g></g></g><g><g id="change2_16"><path d="M449.1,16.6c-0.3-4.4,0.4-9.5-2.6-13.3c-3-1.9-5-1.3-8.1-1.8c-8.7-0.3-19.7-0.4-30.4-0.2 c-1.7,0-3.4-0.1-5.1,0c-36.2,0.1-72.4-2.6-108.6-0.8c-2.4,0.3-8.1,0.6-10.5,3.6c-1.1,1.4-1.4,3.3-1.6,5.1 c-0.4,6.3-0.2,11.1-0.1,16.8c0.2,2.2,0.2,4.6,1.8,6.4c1.6,1.9,3.7,3.7,6.2,4.3c13.2,1.6,26.5,1.8,39.8,1.4 c22.3,1.3,44.6,0.4,66.9,0.1c10.5-0.1,21-0.5,31.4-1.7c5.6-0.9,11.2-1.2,17.2-5.1C450.3,28.8,449.1,18.4,449.1,16.6z" fill="#202f5a"/></g><g fill="#ffbe4f"><g id="change3_7"><path d="M311.5,16.5c0.1-0.1,0.2-0.1,0.4-0.2c2.7-1.7,4.3-4.9,0.4-6.3c-1.4-0.3-3-0.3-4.4,0 c-0.8-0.3-2,0.2-1.9,1.2c0.3,5.5,0.3,11.1,0.2,16.6c0,0.8,0.8,1.3,1.5,1.1c0.2,0.2,0.5,0.3,0.8,0.2c0,0,0,0,0.1,0 C316.8,26.4,320.1,20.2,311.5,16.5z M312.4,12.5c-0.3,0.4-1.3,1.5-2.4,2.2c-0.4,0.2-1,0.5-1.4,0.8c0-1.3,0-2.6-0.1-3.8 C310.5,11.6,312.1,11.8,312.4,12.5z M308.4,27.1c0.2-3.1,0.3-6.3,0.3-9.5c2.2,0.8,3.5,1,5.3,2.3c3,2.1-0.6,4.5-4.1,6.5 C309.4,26.8,308.8,27,308.4,27.1z"/><path d="M334.1,25.6c-0.1-0.5-0.5-4.1-0.8-5.7c-0.4-3.9-2.9-11.2-8-8.5c-0.8,0.5-1.2,1.3-1.4,2.2 c-1.1,4.1-1.7,8.6-1.7,12.9c0.4,1.2,2.4,0.8,2.4-0.5c0.2-2.1,0.4-3.9,0.6-5.6c1.8,0,4.3,0.1,5,0.2c0.1,0,0.2,0,0.3,0.1 c0.2,2.1,0.4,4.3,0.7,6.5c0.3,0.8,1.1,1.1,1.9,0.9C334.2,27.8,334.4,26.5,334.1,25.6z M325.5,17.9c0.2-1.4,0.5-2.9,1-4.5 c0,0,0-0.1,0.1-0.1c0.1-0.1,0.4-0.4,0.7-0.4c0.3,0,0.7,0.3,0.8,0.3c0.5,0.5,0.5,0.5,0.6,0.7c0.7,1.3,1.1,2.7,1.4,4.1 C328.5,18.1,327,18,325.5,17.9z"/><path d="M345.8,24.7c-1.1,0.1-2.2,0-2.4,0c-0.1,0-0.2,0-0.4,0c0.1-1.5,0.3-4.6,0.3-6.6c-0.3-2.2,0.6-4.9-0.5-6.8 c-1-1.1-3-0.3-2.9,1.2c0.3,4.3,0.7,8.6,0.6,13c0,0.5,0.2,1,0.7,1.4c1.4,0.9,5.7,2.2,6.6,0.2C348.3,25.8,347,24.6,345.8,24.7z"/><path d="M358.2,24.7c-0.5,0.1-1.1,0.1-1.6,0.1c0.8-4.4,0.8-9.8,1-13c-0.1-1.7-2.8-1.9-3.2-0.2 c-1,4.9-1.3,10.4-0.5,15.3c0.7,1.1,2.1,1.1,3.2,1.4c1,0.4,2.3,0.6,3.1-0.2C361.7,26.5,360.1,24.1,358.2,24.7z"/></g><g id="change3_13"><path d="M399.1,11.5c-0.6-0.2-1.1,0-1.5,0.4c-0.2-0.1-0.3-0.2-0.5-0.2c-1.5,0.1-2.3,1.6-2.9,2.8 c-1.2,3-1.4,6.3-0.7,9.5c0.8,3.6,5.1,4.7,7.5,1.8C404,21.8,404.7,13.4,399.1,11.5z M399.8,20.3c0,0,0,0,0,0.1 c-0.3,1.5-0.5,2.6-1.2,3.5c-2,2.6-3.3-3.2-2.1-7.3c0.2-0.8,0.6-1.6,0.9-2c0.3,0.2,0.9,0.4,1,0.5c0.2,0.1,0.3,0.3,0.5,0.4 C400,16.9,400,19,399.8,20.3z"/><path d="M377.9,10.8c-1.9,0.5-1.1,3.4,0.8,2.9c0.6-0.2,1.5-0.3,2.4-0.4c0.5,4.4,0.7,8.9,0.7,13.4 c0,0.5,0.1,1.1,0.5,1.5c1,1,2.9,0.3,2.8-1.2c0-2.6-0.2-5.2-0.2-7.8c-0.2-2,0.1-4.2-0.2-6.2c1.3-0.1,2.7-0.3,3.9-0.5 C392.6,9,379.4,10.5,377.9,10.8z"/><path d="M413.2,11.8c-3-0.2-6.4,2.1-6.2,5.3c0.2,2.3,1.9,3.8,2.1,5.1c0,0.1,0,0.2,0,0.2c-0.1,0.3-0.3,0.7-0.6,1.2 c-0.2,0.2-1.2,1.4-1,1.8c0.8,3.6,4.1,1,4.8-2.2c0.5-2.2-1.3-4.7-2.2-6.2c-0.4-1,0.2-2.1,1.6-2.5c0.9-0.4,0.9,0.1,2.2-0.3 C415,13.6,414.5,11.7,413.2,11.8z"/><path d="M424.9,13c1.1-0.8,0.2-2.6-1.1-2.2c-2.3,0.4-4.2,2.5-4.1,4.9c0.3,2.4,1.4,4.4,1.2,5.9 c0,0.2-0.4,1.2-0.9,1.8c-0.6,0.9-1.8,1.5-1.8,2.7c1.1,4.8,5.7,0,5.8-2.8c0.6-2.7-1-5.1-1.6-7.6c-0.1-0.4,0.3-1.6,0.9-2 C424,13.3,424.1,13.5,424.9,13z"/></g></g></g></g><g id="change2_13"><path d="M127.7,285.6c-0.1-0.1-0.2-0.1-0.3-0.1c0-0.5-0.1-1-0.7-1.3c-4.9-0.8-15.5-0.8-23.4-1 c-26.4,1.2-53.4-0.7-80.7,0.3c-1.6,0.2-3.4-0.3-4.8,0.5c-0.4,0.3-0.4,0.8-0.3,1.3c0,0.1-0.1,0.2-0.1,0.3c-0.2,12.2-1,25.7,8.9,34.4 c11.2,6.1,24.4,7.6,36.9,8.6c7.7,1,13.1,1.4,20.5,1.8c6.6-0.1,10.4-1,16-1.6c5.9-0.8,10.3-1.4,15.5-3c3.2-1.3,4.7-3.4,6.5-5.7 c5.1-7.2,5.7-16.1,6.2-24.6c0.2-2.7-0.1-5.5,0-8.2C128,286.7,128.2,286,127.7,285.6z M111.9,323.2c-19.2,4.3-38.3,4.8-58.5,2.1 c-7.6-1.2-20.3-3.5-25.8-7.8c-4.2-3.8-5.9-9.8-6.9-16c-0.7-3.7-0.8-8-0.9-12.3c5.4-0.1,10.8-0.1,16.2-0.1c0.1,0,0.2,0.1,0.4,0.2 c1.5-0.1,3.1-0.1,4.7-0.2c5.4,0,10.8,0,16.2,0c16.2,0.5,33.7,1.9,50.6,1.7c5.9,0.3,11.8,0.4,17.7,0.1 C125.1,304.8,122.9,321.2,111.9,323.2z" fill="#202f5a"/></g><g id="change2_14"><path d="M273.7,290.5c0,0-0.1,0-0.2,0c-7.6,0.3-15.3-0.7-22.9-0.7c-28.1-0.8-56.1-3.6-84.2-3c-2.1,0.3-5,0.3-6.6,0.3 c-0.6,0-0.8,0.4-1,1.1c-0.7,4.7-1.6,10.9-0.7,16.6c2.2,10.1,5.5,22.5,16.7,25.8c23.3,7.8,48.3,7.4,72.6,6.5 c6.5-0.6,13.5-3.8,17.9-5.7c5.9-3.5,11.6-10.4,11.5-18.7c0.2-6.3,0.8-13.8,1.1-18.9C278.6,291.1,274,290.4,273.7,290.5z M266.6,326.4c-7.1,5.2-16.3,6.5-23,7.2c-16.3,0.8-35.3,0.2-50-1.9c-8.2-1.3-16.7-2.7-23.1-6.9c-5.7-4.5-8.8-16.2-9.9-24 c-0.2-2.9-0.1-5.7,0-8.6c24,0.3,57.2,2.4,81.2,4.4c12.5,1.1,32.7,2.9,33.4,2.9c-0.4,5.4-1.1,10.2-1.4,16.2 C273.2,319.8,270,324.2,266.6,326.4z" fill="#202f5a"/></g><g id="change2_15"><path d="M397.8,297.3c-0.6-0.5-1-0.3-1.9-0.5c-24.4-2.8-54.1-4.4-80.7-4.4c-5.8,0.2-11.7,0-17.4,0.3 c-1.5,0.5-1.6,2.3-0.8,3.4c0.2,9.6,0.4,19.8,4.2,28.8c2.7,4.4,7.4,7,12.4,8c20.1,4.6,40.3,3.8,59.3,1.1c8.6-0.5,19.6-1.3,23.4-10.4 c4.1-7.4,1.7-20.7,3.4-23.5C400.1,298.3,399,297.4,397.8,297.3z M394.4,316.5c-0.8,4.4-2.8,8.6-7.8,11.2c-4.2,1.7-11,1.7-17.4,2.4 c-11.7,1.8-24.1,2.5-37.8,1.7c-7.9-1-19.8-1.5-25.4-6.1c-4.3-3.1-5-11.5-5.8-16.6c-0.5-3.4-0.6-6.9-0.7-10.3 c32.1-0.4,64.1,1.6,96,5.3C395.3,308,394.6,313.3,394.4,316.5z" fill="#202f5a"/></g></g></svg>