<?xml version="1.0" encoding="UTF-8" standalone="no"?><svg xmlns="http://www.w3.org/2000/svg" xmlns:xlink="http://www.w3.org/1999/xlink" fill="#000000" height="501.2" preserveAspectRatio="xMidYMid meet" version="1" viewBox="-2.3 -0.7 248.2 501.2" width="248.2" zoomAndPan="magnify"><g><g><g id="change1_1"><path d="M210.7,246.4c1.4,3,2.3,6.2,3.6,9.3c1.2,3.1,2.8,6.1,5.2,8.4c0.2,0.2,1.2,0.3,1.7-0.2 c1.9-2.3,1.6-6.1-0.3-8.4c1.2,2,3.6,3.4,5.3,5c1.2,1.1,3,2.1,4.3,1.2c0.8-0.5,1.1-1.6,1-2.5c-0.1-0.9-0.6-1.8-1-2.6 c1,0.9,2.4,1.7,3.7,1.5c1.4-0.1,2.7-1.4,2.5-2.8c-0.1-1-0.8-3-0.8-3s1.8,0.7,2.8,0.9c1,0.2,2.1,0,2.7-0.8c0.3-0.4,0.4-1,0.4-1.5 c0.1-1.8-0.7-3.6-1.9-4.9c1.3,0.8,2.9,1.1,4.4,0.8c0.5-0.1,0.9-0.3,1.2-0.7c0.4-0.6,0.1-1.3-0.2-1.9c-2.8-6.2-8.3-10.7-13.9-14.6 L210.7,246.4z" fill="#ba6529"/></g><g id="change1_5"><path d="M154.3,149.2c18.1,33.1,36.5,65.1,56.4,97.1c7.8-2.9,20.6-16.7,20.6-16.7s-14.3-26.4-21.3-41.7 c-9.7-21.2-21.8-41.2-33.9-61.2c-7.4,7.4-14.8,14.7-22.2,22.1" fill="#ba6529"/></g><g><g id="change1_8"><path d="M167.7,277.8c0,0,18.2,51.5,6.5,86.5c-15,45.2-42.7,102.2-42.7,102.2s11,5.3,15,10c0.9,1.1,1.6,3,0.4,3.7 c-0.4,0.2-0.9,0.2-1.4,0.2c-24.4-1.1-48.7-3-73-5.8C74.6,470,119.9,343,119.9,343l-18.4-58.5L167.7,277.8z" fill="#ba6529"/></g></g><g><g id="change1_6"><path d="M110.7,289.2c-7.5,16.9-4.1,39.3-13.2,75c-11.8,46.1-35.3,105-35.3,105s11.4,4.5,15.6,8.9 c1,1,1.8,2.8,0.7,3.6c-0.4,0.3-0.9,0.3-1.4,0.3c-24.4,0.7-48.8,0.5-73.2-0.6c1.8-4.7,27.3-80.3,37.9-134.5 c7.7-39.3,1.1-60.8,3-67.4L110.7,289.2z" fill="#ba6529"/></g></g><g id="change2_8"><path d="M29.3,334c27.5,0.5,51.7,0.9,79.2,1c4.1-35.1,9.9-70.3,10.7-105.6c-0.1,2.6-31.9,2.7-35,2.5 c-8.9-0.4-23.2-6.1-31.5-3.1c-8.3,3-8.4,18.2-10,25.4c-2.6,12.4-5,24.9-7.2,37.5C33.2,305.8,31.1,319.9,29.3,334z" fill="#ffbe4f"/></g><g id="change2_1"><path d="M109.8,325c17.9-1.9,72.2-3.1,72.2-3.1s-8.1-50.6-16.6-71.5c-3.2-7.8-4.5-10-9-17.2 c-17.2,7.6-38.7,10.2-57.1,13.1c4.2,24.8,5.1,49.5,9.3,74.3" fill="#ffbe4f"/></g><g id="change2_9"><path d="M111.7,322.6c2.7-9.9,4.9-19.9,6.7-30.1c1.7-9.8,3.5-19.9,3.6-30c0-1.9-3-2.4-3.4-0.5 c-1.7,9.9-2.6,20-4.2,29.9c-1.7,9.9-3.7,19.8-6.1,29.6C107.8,323.9,111.1,324.8,111.7,322.6L111.7,322.6z" fill="#ffbe4f"/></g><g id="change3_9"><path d="M111.8,317.7c4-19.5,7.2-39.1,9.7-58.8c0.7-5.6,1.5-11.3,1.8-16.9c0-0.6-1-0.8-1.1-0.1 c-1,6.1-1.6,12.4-2.4,18.5c-0.8,6.5-1.7,12.9-2.7,19.4c-1.9,12.6-3.8,25.3-6,37.8C111.2,318,111.7,318.1,111.8,317.7L111.8,317.7z" fill="#253f6b"/></g><g id="change3_10"><path d="M90.3,76.1c4.8,2.1,10,3.4,15.2,3.5c4.5,0.1,10.4,0,13.7-3.5c0.7-0.7-0.3-1.7-1.1-1.1 c-1.7,1.5-3.9,2.1-6.1,2.5c-2.4,0.4-4.9,0.6-7.3,0.5c-4.8-0.1-9.6-1-14.1-2.8C90.2,74.9,89.8,75.8,90.3,76.1L90.3,76.1z" fill="#253f6b"/></g><g><g id="change1_2"><path d="M128.3,39.9c-0.6-5.8-2.1-11.5-5-16.6c-2.3-4.3-5.7-8.3-10.6-9.7c-12.2-4.1-24,1.7-29.6,13 c-2.3,5-3,10.5-3.7,16c-1,8.5-1.7,14-0.1,18.3c4.1,10.8,19.9,14.7,30.2,14.3c10.6-0.7,15-8.7,17.4-14.5 C129.8,53.8,129.1,46,128.3,39.9z" fill="#ba6529"/></g><g id="change4_1"><path d="M155.1,216.5c5.1-15-5.3-41.5-4.5-49c0.5-5.9,0.9-12.8,0.9-19.1c1.2,2.8,2.4,5.5,3.6,8.3 c5.2-5.1,11-9.6,16.9-14c4.2-3.1,8.3-6.2,12.5-9.4c-7.8-19.2-16.7-38.4-32.6-53.1c-1.9-1.6-22-12.3-24.1-13.5 c0.4-0.8,0.1-1.9-0.8-2.1c-1.5-0.1-1.9,0-2.4,0.6c-2.9,3.6-4.1,5.2-9.9,8.1c-2.2,1.1-11.2,1.7-15.9,0.9 c-7.8-1.3-16.3-8.4-17.8-8.4c-0.8,0-1.2,0.7-1.1,1.4c-15.4,4.9-32.2,10.7-38.6,19c-5.5,6.7-15.4,26.7-19.3,34.6 c-3.4,6.7-6,13.6-8.4,20.6c4.3,3.6,8.8,6.8,13.5,9.8c3.4,2.1,6.8,4.1,10.3,5.9c1.7,0.9,3.5,1.7,5.1,2.7c2.4,1.3,4.9,3,7.6,3.5 c0.3,0,0.5,0.1,0.8,0.2c0.4-1.9,0.8-3.9,1.1-5.8c0,1.1-0.2,3.3-0.5,6.1c0.1,0.1,0.2,0.2,0,0.1c0,0,0,0,0,0 c-1.5,13.8-6,43.3-4.8,51c0,0,0,0,0,0c-1.3,5.7-10.1,15.8-2.2,19.2c12.5,5.4,44.5,11.4,63.2,10.8c12.2-0.3,42-6.8,49.6-9 c2.3-0.7-0.3-11.9-3.4-17.5C154,218.3,155.1,216.5,155.1,216.5z" fill="#f75454"/></g><g id="change3_1"><path d="M117.9,43.5C117.9,43.5,117.9,43.5,117.9,43.5c0,0,0-0.1-0.1-0.2C117.9,43.4,117.9,43.4,117.9,43.5 c0-0.1-0.1-0.2-0.1-0.3C117.9,43.3,117.9,43.4,117.9,43.5c0-0.1,0-0.2,0-0.4c0,0.1,0,0.2-0.1,0.3c0-0.1,0.1-0.2,0.1-0.3 c0,0.1-0.1,0.2-0.2,0.3c0.1-0.1,0.1-0.2,0.2-0.2c-0.1,0.1-0.1,0.2-0.2,0.2c0.1-0.1,0.2-0.1,0.2-0.2c-0.1,0.1-0.1,0.1-0.2,0.1 c0.1,0,0.2-0.1,0.3-0.1c-0.1,0-0.1,0.1-0.2,0.1c0.1,0,0.2,0,0.3,0c-0.1,0-0.1,0-0.2,0c0.1,0,0.2,0,0.3,0c0,0-0.1,0-0.1,0 c0.1,0,0.2,0.1,0.3,0.1c0,0,0,0-0.1,0c0.1,0.1,0.2,0.1,0.2,0.2c0,0,0,0-0.1-0.1c0.1,0.1,0.1,0.2,0.2,0.2c0,0,0-0.1,0-0.1 c0,0.1,0.1,0.2,0.1,0.3c0,0,0-0.1,0-0.1c0,0.1,0,0.2,0,0.3c0-0.2,0-0.4,0-0.5c0,0.1,0,0.2,0,0.3c0-0.2,0.1-0.3,0.1-0.4 c0,0.1-0.1,0.2-0.1,0.3c0-0.1,0.1-0.2,0.1-0.3c-0.1,0.1-0.1,0.2-0.2,0.2c0.1-0.1,0.1-0.1,0.2-0.2c-0.1,0.1-0.2,0.1-0.2,0.2 c0,0,0.1-0.1,0.1-0.1c-0.1,0-0.2,0.1-0.3,0.1c0.1,0,0.1,0,0.2,0c-0.1,0-0.2,0-0.3,0c0.1,0,0.1,0,0.2,0c-0.1,0-0.2,0-0.3,0 c0.1,0,0.1,0,0.2,0.1c-0.1,0-0.2-0.1-0.3-0.1c0.1,0,0.1,0.1,0.2,0.1c-0.1-0.1-0.2-0.1-0.2-0.2c0,0,0.1,0.1,0.1,0.1 c-0.1-0.1-0.1-0.2-0.2-0.2c0,0,0,0.1,0.1,0.1c0-0.1-0.1-0.2-0.1-0.3c0,0,0,0.1,0,0.1c0-0.1,0-0.2,0-0.3c0,0,0,0.1,0,0.1 c0,0.3,0.1,0.6,0.4,0.9c0.2,0.2,0.6,0.4,0.9,0.4c0.3,0,0.6-0.1,0.9-0.4c0.2-0.2,0.4-0.5,0.4-0.9c0,0,0,0,0-0.1c0-0.1,0-0.2,0-0.4 c0-0.1-0.1-0.3-0.2-0.4c-0.1-0.2-0.2-0.3-0.3-0.4c-0.2-0.2-0.4-0.3-0.7-0.4c0,0-0.1,0-0.1,0c-0.1,0-0.3-0.1-0.5-0.1 c0,0-0.1,0-0.1,0c-0.1,0-0.3,0-0.4,0.1c-0.3,0.1-0.5,0.2-0.7,0.4c-0.2,0.1-0.3,0.3-0.4,0.5c-0.1,0.2-0.2,0.4-0.3,0.6 c0,0.1-0.1,0.2-0.1,0.3c0,0.2-0.1,0.4-0.1,0.6c0,0.1,0,0.1,0,0.2c0,0.2,0,0.3,0.1,0.5c0,0.1,0.1,0.2,0.1,0.4c0,0,0,0,0,0.1 c0.1,0.2,0.3,0.4,0.5,0.5c0.1,0.1,0.2,0.1,0.3,0.1c0,0,0.1,0,0.1,0c0.2,0,0.3,0.1,0.5,0c0.1,0,0.3,0,0.4-0.1 c0.1,0,0.3-0.1,0.4-0.2c0.2-0.1,0.3-0.2,0.5-0.3c0.1-0.1,0.1-0.1,0.2-0.2c0.1-0.1,0.2-0.2,0.3-0.4c0.1-0.1,0.1-0.2,0.1-0.3 c0.1-0.2,0.1-0.3,0.1-0.5c0-0.2,0.1-0.3,0.1-0.5c0-0.2,0-0.3-0.1-0.5c0-0.1,0-0.1,0-0.2c-0.1-0.1-0.1-0.3-0.2-0.4 c-0.1-0.3-0.4-0.5-0.7-0.6c-0.2-0.1-0.3-0.1-0.5,0c-0.2,0-0.3,0.1-0.5,0.1c-0.3,0.2-0.5,0.4-0.6,0.7 C117.7,42.9,117.8,43.2,117.9,43.5L117.9,43.5z" fill="#253f6b"/></g><g id="change3_2"><path d="M112.9,58.6c-3.4,0.7-7-0.2-9.6-2.5c-0.5-0.4-1.2-0.5-1.7,0c-0.4,0.4-0.5,1.3,0,1.7c3.3,2.8,7.7,4,12,3.1 c0.6-0.1,1-0.9,0.9-1.5C114.2,58.7,113.5,58.4,112.9,58.6L112.9,58.6z" fill="#253f6b"/></g><g id="change3_3"><path d="M122,36.9c-1.5-0.8-3.4-1-5-0.3c-0.3,0.1-0.6,0.3-0.7,0.6c-0.2,0.3-0.2,0.6-0.1,0.9c0.1,0.3,0.3,0.6,0.6,0.7 c0.3,0.1,0.6,0.2,0.9,0.1c0.4-0.2,0.8-0.3,1.2-0.3c-0.1,0-0.2,0-0.3,0c0.4-0.1,0.9-0.1,1.3,0c-0.1,0-0.2,0-0.3,0 c0.4,0.1,0.8,0.2,1.2,0.3c-0.1,0-0.2-0.1-0.3-0.1c0.1,0.1,0.2,0.1,0.4,0.2c0.6,0.3,1.3,0.2,1.7-0.4 C122.7,38.1,122.6,37.3,122,36.9L122,36.9z" fill="#253f6b"/></g><g id="change3_4"><path d="M100.2,42.3c-0.1,0.1-0.1,0.3-0.2,0.4c0,0.1,0,0.1,0,0.2c0,0.2-0.1,0.4-0.1,0.6c0,0.2,0,0.4,0.1,0.6 c0.1,0.2,0.1,0.4,0.2,0.5c0.2,0.3,0.5,0.6,0.8,0.8c0,0,0.1,0,0.1,0.1c0.1,0.1,0.3,0.1,0.4,0.2c0.1,0,0.3,0.1,0.4,0.1 c0.1,0,0.2,0,0.3,0c0.1,0,0.2,0,0.2,0c0.1,0,0.2-0.1,0.3-0.1c0.2-0.1,0.4-0.3,0.5-0.5c0,0,0,0,0-0.1c0.1-0.1,0.1-0.2,0.1-0.3 c0-0.2,0.1-0.3,0.1-0.5c0-0.1,0-0.2,0-0.3c0-0.2,0-0.4-0.1-0.7c0-0.2-0.1-0.4-0.2-0.6c-0.1-0.2-0.2-0.4-0.4-0.5 c0,0-0.1-0.1-0.1-0.1c-0.1-0.1-0.2-0.2-0.4-0.3c-0.3-0.2-0.5-0.2-0.8-0.2c-0.1,0-0.1,0-0.2,0c-0.2,0-0.3,0-0.5,0.1 c0,0-0.1,0-0.1,0c-0.1,0.1-0.3,0.1-0.4,0.2c-0.3,0.2-0.4,0.3-0.6,0.6c0,0,0,0,0,0.1c-0.1,0.1-0.1,0.2-0.1,0.3c0,0.1,0,0.1,0,0.2 c0,0.1,0,0.2,0,0.2c0,0.3,0.1,0.6,0.4,0.9c0.2,0.2,0.6,0.4,0.9,0.4c0.3,0,0.6-0.1,0.9-0.4c0.2-0.2,0.4-0.5,0.4-0.9 c0,0,0-0.1,0-0.1c0,0.1,0,0.2,0,0.3c0,0,0-0.1,0-0.1c0,0.1-0.1,0.2-0.1,0.3c0,0,0-0.1,0.1-0.1c-0.1,0.1-0.1,0.2-0.2,0.2 c0,0,0.1-0.1,0.1-0.1c-0.1,0.1-0.2,0.1-0.2,0.2c0,0,0.1-0.1,0.2-0.1c-0.1,0-0.2,0.1-0.3,0.1c0.1,0,0.1,0,0.2-0.1 c-0.1,0-0.2,0-0.3,0c0.1,0,0.1,0,0.2,0c-0.1,0-0.2,0-0.3,0c0.1,0,0.1,0,0.2,0c-0.1,0-0.2-0.1-0.3-0.1c0.1,0,0.1,0,0.1,0.1 c-0.1-0.1-0.2-0.1-0.2-0.2c0.1,0.1,0.1,0.1,0.2,0.2c-0.1-0.1-0.1-0.2-0.2-0.2c0.1,0.1,0.1,0.2,0.1,0.3c0-0.1-0.1-0.2-0.1-0.3 c0.1,0.1,0.1,0.3,0.1,0.4c0-0.1,0-0.2,0-0.3c0,0.2,0,0.4,0,0.5c0-0.1,0-0.2,0-0.3c0,0.1,0,0.1,0,0.1c0-0.1,0.1-0.2,0.1-0.3 c0,0,0,0.1,0,0.1c0.1-0.1,0.1-0.2,0.2-0.2c0,0,0,0-0.1,0.1c0.1-0.1,0.2-0.1,0.2-0.2c0,0,0,0-0.1,0c0.1,0,0.2-0.1,0.3-0.1 c0,0-0.1,0-0.1,0c0.1,0,0.2,0,0.3,0c-0.1,0-0.1,0-0.2,0c0.1,0,0.2,0,0.3,0c-0.1,0-0.2,0-0.2-0.1c0.1,0,0.2,0.1,0.3,0.1 c-0.1,0-0.2-0.1-0.2-0.1c0.1,0.1,0.2,0.1,0.2,0.2c-0.1-0.1-0.2-0.1-0.2-0.2c0.1,0.1,0.1,0.2,0.2,0.2c-0.1-0.1-0.1-0.2-0.2-0.3 c0,0.1,0.1,0.2,0.1,0.3c0-0.1-0.1-0.2-0.1-0.3c0,0.1,0,0.2,0,0.3c0-0.1,0-0.2,0-0.3c0,0.1,0,0.2,0,0.3c0-0.1,0-0.2,0.1-0.2 c0,0.1-0.1,0.2-0.1,0.3c0,0,0-0.1,0-0.1c0.2-0.3,0.2-0.6,0.1-0.9c-0.1-0.3-0.3-0.6-0.6-0.7c-0.3-0.1-0.6-0.2-0.9-0.1 C100.6,41.8,100.4,42,100.2,42.3L100.2,42.3z" fill="#253f6b"/></g><g id="change3_5"><path d="M99.5,39c0.1-0.1,0.2-0.1,0.4-0.2C99.7,38.9,99.6,39,99.5,39c0.5-0.2,0.9-0.3,1.3-0.4c-0.1,0-0.2,0-0.3,0 c0.4-0.1,0.9-0.1,1.3,0c-0.1,0-0.2,0-0.3,0c0.4,0.1,0.8,0.2,1.2,0.3c0.3,0.1,0.7,0,0.9-0.1c0.3-0.1,0.5-0.4,0.6-0.7 c0.1-0.3,0.1-0.7-0.1-0.9c-0.2-0.3-0.4-0.4-0.7-0.6c-1.6-0.7-3.5-0.5-5,0.3c-0.6,0.3-0.8,1.1-0.4,1.7 C98.2,39.2,98.9,39.4,99.5,39L99.5,39z" fill="#253f6b"/></g></g><g id="change3_11"><path d="M151.9,145c0.8-4,0.5-8,0.2-12c-0.3-4.2-0.8-8.4-1.2-12.6c-0.8-8.3-1.4-16.7-2.7-24.9 c-0.1-0.9-1.6-0.7-1.5,0.2c0.4,8.2,1.5,16.5,2.3,24.7c0.8,8.2,1.5,16.4,2.3,24.5C151.4,145.2,151.9,145.3,151.9,145L151.9,145z" fill="#253f6b"/></g><g id="change3_12"><path d="M52.1,152.6c1.7-8.8,3.5-17.5,5.7-26.2c2.2-8.7,5-17.2,7.6-25.8c0.2-0.8-1-1.1-1.2-0.3 c-3.3,8.4-5.6,17.2-7.7,26c-2,8.7-3.6,17.4-4.6,26.2C51.9,152.7,52.1,152.7,52.1,152.6L52.1,152.6z" fill="#253f6b"/></g><g id="change1_7"><path d="M17.8,144.7c-5.4,10.6-4.2,9.2-9.6,19.8C7.6,165.6,7,166.8,7,168c0,1.4,0.8,2.7,1.5,3.9 c11.7,18.8,23.4,37.6,36.9,55.2c0.3,0.4,0.7,0.8,1.2,0.8c0.4,0,0.7-0.2,0.9-0.4c7.2-5.6,14.1-11.7,20.5-18.3 c-7.7-10.6-15.2-21.3-22.6-32.1c-0.9-1.3-1.8-2.6-1.9-4.2c-0.2-1.6,0.4-3.1,1.1-4.6c1.3-3.2,2.6-6.3,2.6-6.3s-5.3-2.9-14.7-8.3 C26.2,150.3,17.8,144.7,17.8,144.7z" fill="#ba6529"/></g><g id="change3_13"><path d="M111.6,42.9c-0.6,1.4-0.4,3,0.4,4.3c0.4,0.7,1,1.2,1.6,1.7c0.6,0.4,1.2,0.8,1.7,1.3c0.7,0.8,0.9,2.3-0.2,2.9 c-1.1,0.6-2.7,0.3-3.6-0.6c-0.5-0.4-1.2-0.5-1.7,0c-0.4,0.4-0.5,1.3,0,1.7c1.5,1.3,3.5,1.9,5.4,1.4c1.9-0.5,3.3-2.2,3.1-4.2 c-0.2-2-1.5-3.4-3.1-4.4c-1.2-0.8-1.7-2.1-1.2-3.5c0.2-0.6-0.3-1.3-0.9-1.5C112.4,41.9,111.8,42.3,111.6,42.9L111.6,42.9z" fill="#253f6b"/></g><g fill="#253f6b" id="change3_14"><path d="M83.1,50.2c-2.2,3.1-7.1,3.1-10.3,1c-3.2-2.1-5-5.7-6.5-9.3c-0.4-1-0.8-2.1-0.8-3.2c0.1-1.1,0.8-2.3,1.9-2.5 c1.1-0.2,2.3,1,1.9,2c-3.3-2.1-4.7-6.7-3.2-10.3c0.9-2.1,3.4-3.9,5.4-2.8c-0.9-2.3-0.5-5.1,0.7-7.3c1.2-2.2,3.1-4,5.1-5.5 c1.3-1,2.7-1.9,4.3-1.8c1.6,0.1,3.2,1.6,2.7,3.1c-0.3-2.2,0.9-4.4,2.3-6.2c1.8-2.6,4.1-5.1,7.2-5.8c3.1-0.7,6.9,1.6,6.6,4.8 c1.2-3.2,4.7-5.3,8.1-5c3.4,0.3,6.5,3,7.2,6.4c2.1-1.8,5.4-2.2,7.9-0.9s4.1,4.2,3.8,7c4.9,1.9,8.2,7.3,7.8,12.5 c-0.1,0.9-0.7,2.1-1.6,1.7c1.5-1.2,4.1-0.5,5.1,1.2c1,1.7,0.6,3.9-0.5,5.5c-1.2,1.6-3,2.6-4.9,3.2c1.1,1,2.4,2.5,1.9,3.9 c-0.3,0.8-1,1.3-1.8,1.6c-3.3,1.2-7.3-2-6.8-5.5c0.2-1.6,1.3-3.1,1.8-4.6c-1.3,0.9-3.3,0.3-4.3-0.9c-1.1-1.2-1.5-2.8-1.8-4.4 c-0.2-0.9-0.3-1.8,0.2-2.6c0.5-0.7,2-0.6,2,0.3c-1,1-2.8,0.4-3.8-0.6c-1.6-1.6-2.2-4.2-1.3-6.3c-2.5,1-5.6-1.4-5.3-4 c1,1.5-1.1,3.5-2.8,3.2c-1.8-0.3-3-2-3.9-3.6c0.9,1.8-0.7,4.1-2.6,4.7s-4,0.1-6-0.5c-0.1,1.8-1.2,3.4-2.8,4.2s-3.6,0.4-5-0.7 c1.1,0,1.6,1.6,1,2.6s-1.8,1.3-2.9,1.5c-0.6,0.1-1.3,0.3-1.9,0c-0.6-0.3-0.7-1.3-0.2-1.6c2.1,2.6,1.2,7.1-1.8,8.7 c1.7,2.1,0.7,5.8-1.9,6.6c1.1,0.2,2.1,1.2,2.2,2.3c0.1,1.1-0.5,2.3-1.6,2.8c1.7,1,1.6,3.9-0.2,4.8c0.1,1.5-1.6,2.7-3.1,2.5 c-1.5-0.2-2.7-1.3-3.7-2.5"/><path d="M82.2,49.3c-2.5,3.3-7.4,2.4-10.1-0.2c-1.6-1.5-2.7-3.3-3.6-5.2c-0.5-1.1-1.1-2.2-1.5-3.4 c-0.2-0.6-0.4-1.3-0.3-2c0.1-0.4,0.2-0.7,0.5-0.9c0.5-0.4,0.8-0.3,0.9,0.2c0.6-0.2,1.2-0.5,1.8-0.7c-2-1.4-3.2-3.7-3.2-6.1 c0-1.9,1.6-6.1,4.2-4.9c0.9,0.4,2.2-0.3,1.8-1.4c-1.2-3.4,0.3-6.7,2.7-9.1c1.1-1.1,2.3-2.2,3.6-3c0.7-0.4,1.4-0.9,2.2-0.9 c0.9,0,2.2,0.5,2,1.6c0.8,0.1,1.6,0.2,2.4,0.3c-0.2-2.2,1-4,2.2-5.8c1.1-1.5,2.4-3.1,4.1-4.1c1.4-0.9,3-1.3,4.7-0.7 c1.5,0.5,2.7,1.7,2.7,3.4c0,1.1,1.8,1.7,2.3,0.6c1.2-2.7,3.8-4.7,6.9-4.5c3,0.2,5.5,2.6,6.2,5.5c0.2,1,1.4,1.1,2,0.5 c4.2-3.4,10,0.1,9.6,5.2c0,0.6,0.4,1,0.9,1.2c2.4,1,4.3,2.8,5.5,5c0.6,1.1,1,2.2,1.3,3.4c0.1,0.4,0.2,3.5,0.1,3.5 c0.1,0.7,0.2,1.5,0.3,2.2c2.3-1.6,4.2,1.1,3.7,3.3c-0.6,2.4-2.8,3.6-5,4.4c-0.8,0.3-1.2,1.4-0.5,2c1.1,1.1,2.5,3,0.2,3.6 c-1.3,0.3-2.6-0.2-3.6-1c-2.6-2.4-0.6-5.1,0.4-7.7c0.4-1-0.9-1.9-1.8-1.4c-1.6,0.9-3-0.6-3.6-2c-0.3-0.7-0.5-1.4-0.6-2.2 c-0.2-0.7,0-1.6-0.2-2.1c0.1-0.4,0.2-0.8,0.3-1.2c-1.1,0.9-2.7-1.1-3-1.9c-0.5-1.2-0.5-2.5-0.1-3.8c0.3-0.9-0.6-1.8-1.5-1.5 c-1.9,0.6-3.9-0.9-3.8-2.9c-0.8,0.2-1.5,0.4-2.3,0.6c0.6,1.2-1.5,1.5-2.1,1.2c-1.1-0.5-1.9-1.7-2.5-2.8c-0.7-1.1-2.8-0.4-2.2,0.9 c0.6,1.4-0.4,2.7-1.7,3.2c-1.7,0.6-3.7,0-5.4-0.5c-0.8-0.2-1.5,0.4-1.5,1.2c-0.3,3.1-3.6,4.2-6,2.4c-0.2,0.8-0.4,1.5-0.6,2.3 c0.1,0,0,0.5-0.1,0.6c-0.2,0.4-0.6,0.6-1,0.7c-0.3,0.1-0.6,0.2-0.8,0.2c-0.2,0.1-0.5,0.1-0.7,0.2c-0.3,0-0.5,0.1-0.5,0.4 c-0.6-0.1-1.3-0.2-1.9-0.2c1.6,2.2,1.1,5.5-1.3,7c-0.5,0.3-0.8,1.1-0.4,1.7c1.2,1.5,0.8,4.1-1.1,4.8c-1.1,0.4-1.2,2,0,2.3 c1.5,0.4,1.7,2.1,0.3,2.9c-0.9,0.5-0.7,1.6,0,2.1c1.8,1.2-0.5,2.6-0.8,3.8c-0.8,2.8-3.6,0.4-4.7-0.8c-1-1.2-2.7,0.5-1.7,1.7 c1.3,1.6,3.2,3.1,5.5,2.8c1.9-0.3,3.4-1.7,3.4-3.7c-0.2,0.4-0.4,0.7-0.6,1.1c2.6-1.6,2.6-5.2,0.2-6.9c0,0.7,0,1.4,0,2.1 c3.2-1.8,2.6-6.4-0.9-7.3c0,0.8,0,1.6,0,2.3c3.3-1.3,4.8-5.5,2.6-8.4c-0.1,0.6-0.3,1.1-0.4,1.7c3.5-2.1,4.6-7,2.2-10.3 c-0.5-0.7-1.3-0.8-1.9-0.2c-1,0.9-0.9,2.5,0.2,3.3c1.3,1,3.5,0.4,4.8-0.2c1.3-0.6,2.4-1.7,2.3-3.3c-0.1-1.5-1-2.5-2.5-2.6 c-1.3-0.2-1.4,1.7-0.6,2.3c4,2.9,9.2,0.2,9.6-4.5c-0.5,0.4-1,0.8-1.5,1.2c2.6,0.7,5.6,1.4,8-0.2c1.8-1.2,2.9-3.5,2.1-5.5 c-0.7,0.3-1.5,0.6-2.2,0.9c1.3,2.1,3.3,4.7,6.2,4.1c2.2-0.5,3.8-2.8,2.7-5c-0.6-1.1-2.2-0.5-2.3,0.6c-0.2,3.5,3.5,6.3,6.8,5.2 c-0.5-0.5-1-1-1.5-1.5c-0.8,2.4-0.4,5.1,1.2,7c1.5,1.8,4,2.6,6,1.1c0.3-0.3,0.4-0.8,0.3-1.2c-0.4-1.4-2-2-3.4-1.3 c-1.8,0.9-1.5,3.1-1.1,4.8c0.4,1.9,1.1,4,2.8,5.2c1.5,1.1,3.3,1.3,4.9,0.4c-0.6-0.5-1.2-0.9-1.8-1.4c-0.9,2.4-2.4,4.5-1.6,7.2 c0.6,2.1,2.3,3.7,4.3,4.4c2,0.7,4.5,0.4,5.8-1.3c1.8-2.2,0.1-4.6-1.5-6.2c-0.2,0.7-0.4,1.4-0.5,2c3.6-1.2,7.2-3.9,6.8-8.2 c-0.3-3.5-4.3-6.1-7.4-3.9c-0.8,0.6-0.8,1.9,0.3,2.2c4.3,1.1,3.1-6.3,2.3-8.4c-1.4-3.8-4.2-6.7-7.9-8.2c0.3,0.4,0.6,0.8,0.9,1.2 c0.2-3.3-1.5-6.7-4.6-8.2c-3.1-1.5-6.6-0.9-9.2,1.2c0.7,0.2,1.4,0.4,2,0.5c-0.9-3.8-4.2-6.8-8.1-7.2c-3.9-0.4-7.9,2-9.4,5.6 c0.8,0.2,1.5,0.4,2.3,0.6c0.2-4.8-5.5-7.1-9.5-5.5c-2.4,1-4.3,2.9-5.8,4.9c-1.7,2.3-3.4,4.8-3.2,7.8c0.1,1.3,2.1,1.8,2.4,0.3 c0.4-2.1-1-4.1-3.1-4.6c-2.4-0.6-4.7,1.1-6.5,2.5c-4,3.2-7.4,8.2-5.6,13.5c0.6-0.5,1.2-0.9,1.8-1.4c-3.8-1.7-7.2,1.9-7.7,5.5 c-0.6,3.8,1.1,7.6,4.3,9.8c0.6,0.4,1.6,0,1.8-0.7c0.9-3.5-3.9-4.7-5.5-1.9c-1.1,1.8-0.5,3.8,0.2,5.6c0.7,1.7,1.5,3.5,2.4,5.1 c1.8,2.9,4.4,5.5,7.8,6.3c3.1,0.7,6.6,0,8.6-2.6C84.9,49.8,83.2,48.1,82.2,49.3L82.2,49.3z"/></g><g fill="#ba6529" id="change1_3"><path d="M87.2,42.1c-0.9-1.5-2.4-2.7-4.1-3.3c-1-0.4-2.3-0.5-3.1,0.2c-1,0.8-0.9,2.4-0.4,3.6c1.3,3.5,4.5,5.9,7.5,8 c0.1-2.6,0.1-5.1,0.1-7.7L87.2,42.1z"/><path d="M88.2,41.5c-1-1.6-2.5-2.9-4.2-3.6c-1.6-0.7-3.8-1-5.1,0.5c-1.2,1.4-1,3.3-0.4,4.9c0.7,1.7,1.8,3.2,3.1,4.5 c1.5,1.5,3.2,2.7,4.8,3.9c0.8,0.6,1.8-0.2,1.8-1.1c0.1-1.7,0.1-3.4,0.1-5.1c0-1.1-0.1-2.3,0-3.4c0.1-1.6-2.3-1.6-2.4,0 c-0.1,1.1,0,2.3,0,3.4c0,1.7,0,3.4-0.1,5.1c0.6-0.4,1.2-0.7,1.8-1.1c-2.7-2-6-4.2-7-7.6c-0.2-0.6-0.3-1.4,0-1.9 c0.3-0.4,0.9-0.4,1.4-0.3c1.7,0.3,3.2,1.5,4.1,2.9C87,44.1,89.1,42.8,88.2,41.5z"/></g></g><g><g id="change3_6"><path d="M79.6,454.6c0,0-3.1,5-7.5,15.1c-3.9,9-8.5,16.7-4.5,17.9c4,1.3,73.7,8.4,80.5,9.1 c6.8,0.7,17.7-11.9-16.6-31.4c0,0-6.5-3.1-12.6-2.8c-6.2,0.3-12.1,1.9-12.1,1.9L79.6,454.6z" fill="#253f6b"/></g><g id="change2_2"><path d="M78.8,459.7c4,2,8.2,3.5,12.5,5c2.2,0.7,4.3,1.4,6.5,2.1c2,0.6,4.3,1.5,6.4,1.5c0.6,0,0.9-0.9,0.3-1.2 c-1.8-1.1-4-1.4-6-2c-2.2-0.6-4.4-1.3-6.6-2c-4.3-1.4-8.5-2.9-12.7-4.5C78.6,458.3,78.1,459.4,78.8,459.7L78.8,459.7z" fill="#ffbe4f"/></g><g id="change2_3"><path d="M99.1,475c1.3-2.4,2.8-5.1,5.3-6.4c3.3-1.7,7.7,0.1,11,0.9c3.6,0.9,7.2,1.9,10.7,2.8c0.8,0.2,1.7,0.4,2.5,0.7 c1.1,0.4,0.8,1.3,0.6,2.2c-0.4,1.7-1.3,3.6-1.2,5.3c0.1,0.9,1.1,1.1,1.6,0.4c0.6-0.8,0.8-1.9,1.1-2.9c0.3-1.1,0.6-2.3,0.8-3.4 c0.3-1.5-0.1-2.7-1.5-3.4c-1.9-0.9-4.2-1.2-6.2-1.7c-2.4-0.6-4.9-1.2-7.3-1.8c-3.8-0.9-8.4-2.6-12.2-0.9c-3.1,1.4-4.9,4.5-6.4,7.4 C97.5,475.1,98.7,475.8,99.1,475L99.1,475z" fill="#ffbe4f"/></g><g id="change2_4"><path d="M123.3,475.9c1.7-2.8,4.8-4.5,8-4.9c1.9-0.2,3.8-0.1,5.6,0.3c0.9,0.2,1.8,0.5,2.7,0.8 c0.9,0.3,1.8,0.8,2.7,0.8c0.7,0,0.9-0.8,0.5-1.3c-0.7-0.7-1.8-1-2.7-1.3c-1.1-0.4-2.1-0.7-3.2-0.9c-2.1-0.4-4.1-0.5-6.2-0.1 c-3.5,0.6-6.7,2.7-8.4,5.9C122,476,122.9,476.5,123.3,475.9L123.3,475.9z" fill="#ffbe4f"/></g><g id="change2_5"><path d="M113.4,472.8c2.4-2.7,5.8-4.2,9.3-5c2.1-0.4,4.2-0.6,6.3-0.6c2,0,4.1,0.3,6.1,0c0.7-0.1,0.7-1.3,0-1.4 c-2.1-0.5-4.5-0.3-6.7-0.2c-2.2,0.1-4.3,0.3-6.4,0.9c-3.6,0.9-6.9,2.7-9.3,5.7C112.4,472.6,113,473.2,113.4,472.8L113.4,472.8z" fill="#ffbe4f"/></g><g id="change2_6"><path d="M72.4,472.5c6.2,1.3,12.6,1.7,18.9,2.6c2.7,0.4,5.5,0.8,8.2,1.5c2.4,0.6,5,1.6,6.2,3.9c0.5,1,0.7,2.1,1.6,2.9 c0.9,0.8,2.1,0.9,3.2,1.1c2.6,0.4,5.3,0.8,7.9,1.2c5.8,0.9,11.5,1.9,17.3,2.9c3,0.5,6,1,9,1.4c3,0.5,6.3,1.2,9.3,0 c1.4-0.6,0.9-2.8-0.6-2.3c-2.8,0.9-5.7,0.3-8.5-0.1c-2.7-0.4-5.3-0.8-8-1.2c-5.7-0.9-11.4-1.8-17.1-2.7c-2.6-0.4-5.3-0.8-8-1.2 c-1.2-0.2-2.8-0.1-3.5-1.2c-0.6-1-0.9-2.1-1.7-3.1c-3.1-3.6-9-4.1-13.4-4.7c-6.8-0.9-13.8-1.3-20.7-1.6 C72.1,471.8,72,472.4,72.4,472.5L72.4,472.5z" fill="#ffbe4f"/></g></g><g><g id="change3_15"><path d="M9.3,465.5c0,0-2.4,5.4-5.4,15.9c-2.7,9.4-6.2,17.7-2.1,18.4c4.1,0.7,74.1-1.5,81-1.7s16-14.2-20.6-28.9 c0,0-6.8-2.2-12.9-1.1c-6.1,1.1-11.7,3.5-11.7,3.5L9.3,465.5z" fill="#253f6b"/></g><g id="change2_10"><path d="M9.3,470.8c4.3,1.5,8.8,2.4,13.3,3.3c2.2,0.4,4.5,0.8,6.7,1.2c2,0.3,4.2,0.8,6.3,0.5c0.5-0.1,0.7-1,0.2-1.2 c-2-0.8-4.3-0.9-6.4-1.2c-2.2-0.3-4.4-0.7-6.5-1.1c-4.4-0.8-8.8-1.8-13.2-2.7C8.9,469.4,8.5,470.5,9.3,470.8L9.3,470.8z" fill="#ffbe4f"/></g><g id="change2_11"><path d="M31.4,483.1c1-2.6,2.2-5.8,4.8-7.3c3-1.8,7.2-0.7,10.4-0.3c3.8,0.5,7.6,0.9,11.4,1.4c0.8,0.1,1.9,0.1,2.6,0.4 c1,0.4,0.7,1.3,0.6,2.2c-0.2,1.7-0.8,3.7-0.4,5.4c0.2,0.8,1.3,0.9,1.6,0.2c1-1.7,0.9-4.5,1-6.5c0.1-1.6-0.4-2.9-2.1-3.3 c-2-0.6-4.3-0.6-6.4-0.8c-2.5-0.3-5-0.6-7.5-0.8c-3.8-0.3-8.6-1.4-12.1,0.7c-2.9,1.8-4.2,5.2-5.4,8.2 C29.8,483.5,31.1,483.9,31.4,483.1L31.4,483.1z" fill="#ffbe4f"/></g><g id="change2_12"><path d="M55.5,480.9c1.3-3,4.1-5.1,7.2-5.9c1.8-0.5,3.8-0.6,5.7-0.5c1,0.1,1.9,0.2,2.9,0.4c1,0.2,1.9,0.6,2.8,0.4 c0.5-0.1,0.7-0.9,0.3-1.2c-0.8-0.7-2-0.8-3-1c-1.1-0.2-2.1-0.3-3.2-0.4c-2.1-0.1-4.3,0.1-6.4,0.8c-3.4,1.2-6.2,3.5-7.4,7 C54.3,481.1,55.3,481.5,55.5,480.9L55.5,480.9z" fill="#ffbe4f"/></g><g id="change2_13"><path d="M45.4,479c2.1-3,5.3-5,8.6-6.2c1.9-0.7,3.8-1.1,5.8-1.4c2-0.3,4.2-0.2,6.2-0.8c0.8-0.2,0.6-1.4-0.2-1.5 c-2.2-0.2-4.5,0.4-6.6,0.8c-2.2,0.4-4.3,0.9-6.3,1.8c-3.4,1.4-6.4,3.6-8.3,6.8C44.2,479.1,45,479.5,45.4,479L45.4,479z" fill="#ffbe4f"/></g><g id="change2_14"><path d="M4.6,484.3c6.4,0.4,12.8,0,19.2,0c3,0,6,0,8.9,0.5c2.4,0.4,4.8,1.2,6.1,3.3c0.5,0.8,0.9,1.7,1.7,2.3 c1,0.7,2.3,0.6,3.5,0.6c2.7,0,5.5,0.1,8.2,0.2c5.8,0.2,11.7,0.4,17.5,0.5c3.1,0.1,6.2,0.2,9.3,0.2c3,0,6.1,0.2,8.7-1.4 c1.3-0.8,0.2-2.7-1.2-2.1c-2.4,1.2-5.3,1-8,1c-2.8,0-5.5-0.1-8.3-0.1c-5.8-0.1-11.5-0.3-17.3-0.4c-2.7-0.1-5.4-0.1-8.1-0.1 c-1.1,0-2.8,0.3-3.6-0.6c-0.7-0.8-1.1-1.9-1.9-2.7c-3.4-3.3-9.4-3.1-13.8-3.1c-7,0-14.1,0.6-21.1,1.1 C4.2,483.6,4.2,484.3,4.6,484.3L4.6,484.3z" fill="#ffbe4f"/></g></g><g id="change3_7"><path d="M80.6,69.4c2.5,3.6,7.2,6,11.1,7.9c4.4,2.2,8.9,2.6,13.7,2.2c4.2-0.3,8.4-1.3,12.3-3.1 c3.7-1.7,7.7-4.2,10.2-7.5c0.6-0.9-0.7-1.7-1.4-1.1c-1.6,1.4-2.9,2.9-4.6,4.1c-1.5,1.1-3.1,2-4.8,2.8c-3.6,1.7-7.6,2.7-11.6,3 c-4.5,0.4-8.8,0.2-12.9-1.8c-4-1.9-7.7-4.2-11.1-7.2C81,68.4,80.3,68.9,80.6,69.4L80.6,69.4z" fill="#253f6b"/></g><g id="change2_7"><path d="M72.5,474.1c0.6,0.7,1.5,1.1,2.3,1.6c0.8,0.5,1.7,1.1,2.5,1.6c1.7,1.1,3.3,2.2,4.9,3.5 c1.5,1.2,2.8,2.6,3.8,4.1c1.1,1.6,2,3.3,3,5c0.6,1,2,0.1,1.5-0.9c-1.8-3.5-4-7-7.1-9.5c-1.5-1.2-3.2-2.3-4.9-3.4 c-0.9-0.6-1.8-1.1-2.7-1.6c-0.9-0.5-1.8-1.1-2.8-1.3C72.5,473.3,72.2,473.8,72.5,474.1L72.5,474.1z" fill="#ffbe4f"/></g><g id="change3_8"><path d="M69.8,223.8c9.9,2.1,20.3,2.9,30.4,3.2c10.3,0.3,20.6-0.3,30.9-1.6c5.7-0.7,11.4-1.6,16.8-3.4 c0.6-0.2,0.5-1.3-0.2-1.2c-4.9,0.5-9.8,1.4-14.7,2.1c-5.1,0.7-10.2,1.3-15.4,1.6c-10.2,0.7-20.5,0.6-30.6-0.2 c-5.7-0.5-11.4-1.2-17.1-2C69.2,222.2,69,223.6,69.8,223.8L69.8,223.8z" fill="#253f6b"/></g><g id="change1_4"><path d="M45.4,227.2c5.3,12.3,8.5,17.1,17.6,24.1c1.4,1.1,2.9,2.1,4.6,2.1c0.5,0,1-0.1,1.3-0.5c1-1.1-0.8-2.7-1-4.2 c1.6,1.7,4.1,2.6,6.4,2.2c1.5-0.3,1.7-2.5,1.5-2.9c-0.7-1.9-1.3-2.5-2.8-4.5c1.8,1,3.1,2.1,5.1,2.5c0.7,0.2,2.2-0.3,2.6-0.9 c0.3-0.4,0.7-1.4,0.6-1.9c-0.4-1.9-1.5-3-2.8-4.4c1.3,0.4,2.5,1.1,3.9,1.3c1.3,0.1,3-0.6,3.1-1.9c0.1-0.9-0.4-1.7-0.9-2.3 c-2.6-3.3-3.9-5.8-5.9-8.5c-3.6-4.9-1.8-5.9-1.8-5.9s3.3,1.8,5.1,2.1c0.7,0.1,1.4,0.2,2-0.2c0.9-0.6,1-1.9,0.5-2.9 c-0.5-0.9-1.5-1.5-2.4-2.1c-5.3-3.3-8.8-5.6-14.1-8.9L45.4,227.2z" fill="#ba6529"/></g></g></svg>