<?xml version="1.0" encoding="UTF-8" standalone="no"?><svg xmlns="http://www.w3.org/2000/svg" xmlns:xlink="http://www.w3.org/1999/xlink" fill="#000000" height="506.1" preserveAspectRatio="xMidYMid meet" version="1" viewBox="0.0 -0.1 291.8 506.1" width="291.8" zoomAndPan="magnify"><g><g id="change1_6"><path d="M124.9,258.1c0.3-6.1,0.6-12.1,0.9-18.2c0.1-1.7,0.2-3.5,0.4-5.2c-2.9,1.1-5,2.2-5.7,2.3 c0.2-0.1,0.7-0.3,1.2-0.3c-0.5,0-1,0.1-1.5,0.4c-0.2,0.1-0.2,0.3-0.3,0.4c-0.8,0.2-1.5,0.9-1.4,1.8" fill="#ffbe4f"/></g><g><g><g id="change1_22"><path d="M75.1,468.7c-7.7-2.9-17.4,1.2-19.7,9.2c-0.7,1.3-1.3,2.7-1.6,4.2c-1.1,5.1,0.8,10.8,4.6,14.4 c11.8,9.5,28.5-1.9,27.8-12.2C85.6,477.2,83,471.9,75.1,468.7z" fill="#ffbe4f"/></g><g id="change2_6"><path d="M74.6,474.4c-0.4-5.2-0.7-7.4-2.3-12.7c-0.1-0.1-0.2-0.2-0.3-0.3c0.2,0.2,0.4,0.3-0.1-0.2 c-0.6-0.7-1.1-0.8-1.7-1.1c-4.7-0.7-9.1-0.7-13.9-0.8c-2.4,0-6.6-0.9-7.6,1.7c-1.5,1.7,0.7,5.1,1.5,7 c4.6,8.8,13.6,16.6,17.2,21.8c1.9,1.7,3.8,0.8,4.9-0.4C75.7,485.3,74.5,479.4,74.6,474.4z" fill="#202f5a"/></g></g><g><g id="change1_24"><path d="M235.3,468.7c-7.7-2.9-17.4,1.2-19.7,9.2c-0.7,1.3-1.3,2.7-1.6,4.2c-1.1,5.1,0.8,10.8,4.6,14.4 c11.8,9.5,28.5-1.9,27.8-12.2C245.8,477.2,243.2,471.9,235.3,468.7z" fill="#ffbe4f"/></g><g id="change2_7"><path d="M234.8,474.4c-0.4-5.2-0.7-7.4-2.3-12.7c-0.1-0.1-0.2-0.2-0.3-0.3c0.2,0.2,0.4,0.3-0.1-0.2 c-0.6-0.7-1.1-0.8-1.7-1.1c-4.7-0.7-9.1-0.7-13.9-0.8c-2.4,0-6.6-0.9-7.6,1.7c-1.5,1.7,0.7,5.1,1.5,7 c4.6,8.8,13.6,16.6,17.2,21.8c1.9,1.7,3.8,0.8,4.9-0.4C235.9,485.3,234.7,479.4,234.8,474.4z" fill="#202f5a"/></g></g></g><g fill="#202f5a" id="change2_5"><path d="M46.4,120.4c-0.7-2.2-7-3.6-10.6-2.5c-1.3,0.3-2.1,1.2-2.5,2.3c-0.4,0.4-0.6,0.8-0.6,1.5 c-0.4,30.1-4.1,56.4-4.3,85.8c-0.1,23.6,1.4,47.8,0,69.3c0.5,2.1,2.5,3.2,4.4,3.9c1.6,0.6,6.9,2.7,3.4,0.4 c9.3,7.3,5.5-15.5,6-19.9c-0.5-32.1,0.5-63.9,1.9-93.8C44.6,151.8,47.8,135.8,46.4,120.4z"/><path d="M32.9,280.8c-0.1,0-0.1-0.1-0.2-0.1c0,0-0.1,0-0.1,0C32.5,280.6,33.1,280.8,32.9,280.8z"/></g><g id="change2_3"><path d="M258.9,124.7c0.1-4-4.4-5.2-7.7-4.7c-2.8-0.1-5.3,1.6-5.5,4.5c-0.4,8-0.6,15.9-0.7,23.8 c-1.3,43,0.4,89.9,2.3,126.9c0.2,4.9,4.6,5.6,8.6,4.4c2.7-0.8,2.7-3.9,3-6.2C259.2,223.8,256,174.3,258.9,124.7z" fill="#202f5a"/></g><g id="change3_2"><path d="M267.7,306.1c-0.4-3.1,0.4-5.9-1-7.7c-0.4-1.1-1.4-2-3.1-1.7c-56.6,3.3-124.6-4.4-185.6,0.8 c-17.6,1.8-33.9,3.6-50.8,6.2c-1.4-0.1-5.1,2.8-5.1,4.1c1.8,47.9,5.5,97.9,5.5,144.8c-0.2,5.6-2,10.9,6.8,10.6 c80.8,0,140.3-0.2,211.5-3.3c5.2-1.2,14.6,2,16.6-4.2c1.8-13.9,2.6-27.9,3.5-41.9C269.1,378,267,342.1,267.7,306.1z" fill="#f75454"/></g><g><g id="change3_21"><path d="M291.5,111.1c-0.5-6.3-0.3-16.3-0.7-24.3c-0.7-28.3-1.9-57.4-4.4-84.2c-0.2-1.8-1-2.6-2.6-2.7 c-24.7,1.2-50,3.1-74.9,2.7C153.4,3.2,97.8,4.5,42.3,5.2c-11,0.2-22.2,0.1-33.1,0.6c0,0,0,0,0,0c-1.3-0.7-3,0.4-3,2 C4.4,43,1.1,78.1,0,113.3c0,0.2,0.1,0.3,0.2,0.5c0.2,10.7,8.1,18.4,19.8,16.6c5.4-1,9.7-4.9,12.7-9.1c1.6,2.4,3.5,4.6,5.9,6.1 c7.7,4.9,19.2,5.4,25.4-1.9c1.1-1.1,2.2-2.2,3.3-3.3c-0.6,0.4-0.6,0.4,0,0c0.1-0.1,0.1-0.2,0.2-0.3c7.9,12.2,23.2,9.1,33.1-1.6 c8.9,16,30.1,13.5,40.7-0.5c4.8,7.2,14.9,12,23.5,8.7c6.1-2.2,11.2-6.4,15.7-10.8c16.3,16.6,27.7,16.1,44.1,2.9c1,1,3,3.1,4.2,4.2 c5.2,5.3,13.7,6.2,20.6,3.4c3.5-1.3,6.2-4.1,8.7-6.8c0,0,0.1,0.1,0.1,0.1c5.6,10.3,22.9,8.5,29.4,0.3c1.8-2.4,2.8-5.3,3.6-8.2 C291.6,112.9,291.8,112.1,291.5,111.1z" fill="#f75454"/></g><g id="change1_17"><path d="M68.8,4.8C60,4.9,51.1,5.1,42.3,5.2c-1.7,0-3.4,0-5.2,0.1c-1.6,15.5-2.9,31-3.7,46.6 c-1.1,23.2-1.3,46.4-0.6,69.6c1.5,2.3,3.4,4.4,5.8,5.9c7.7,4.9,19.2,5.4,25.4-1.9c0.9-0.9,1.7-1.8,2.6-2.6 C64.8,83.6,65.4,44,68.8,4.8z" fill="#ffbe4f"/></g><g id="change1_18"><path d="M142.2,87.6c0.7-23.3,1.5-46.6,2.5-69.9c0.2-4.7,0.4-9.5,0.6-14.2C132,3.7,118.7,4,105.4,4.2 c-4.3,38.6-5.9,77.4-4.6,116.2c8.9,15.7,29.7,13.2,40.3-0.5C141.5,109.1,141.9,98.4,142.2,87.6z" fill="#ffbe4f"/></g><g id="change1_19"><path d="M220,2.7c-3.7,0-7.3,0.1-11,0.1c-8.8,0.1-17.6,0.2-26.4,0.3c-1.7,38.4-2.2,114.7-2,114.5 c16.3,16.5,27.7,16.1,44.1,2.9C222.3,81.3,220.1,42,220,2.7z" fill="#ffbe4f"/></g><g id="change1_20"><path d="M291.5,111.1c-0.5-6.3-0.3-16.3-0.7-24.3c-0.7-28.3-1.9-57.4-4.4-84.2c-0.2-1.8-1-2.6-2.6-2.7 c-9.2,0.5-18.6,1-27.9,1.5c-0.1,17.5-0.3,35.1-0.5,52.6c-0.2,12.1-0.1,24.3,0.6,36.4c0.6,10.3,2.4,20.6,2,30.9c0,0,0,0,0,0 c0,0,0.1,0.1,0.1,0.1c5.6,10.3,22.9,8.5,29.4,0.3c1.8-2.4,2.8-5.3,3.6-8.2C291.6,112.9,291.8,112.1,291.5,111.1z" fill="#ffbe4f"/></g></g><g id="change3_3"><path d="M289.4,301c0.4-2.4,0.3-4.8-0.1-7.2c0.5-6.1-0.9-11.2-0.7-17c0.3-1.5-0.7-2.3-1.7-2.3 c-0.2-0.1-0.3-0.3-0.6-0.3c-84.9,3.3-169.9-2.9-254.8-1.8c-8.4,0.2-16.8,0.7-25.3,0.6c-0.9-0.1-1.9,0.2-2.5,0.8 c-0.2,0.2-0.4,0.5-0.5,0.7c-0.6,0.4-1.1,0.9-1,1.7c0.6,8.6,0.6,17.2,0.8,25.9c0,1.2,0.2,2.4,1,3.3c6.2,4,15.7,2.2,22.9,2.9 c39-0.1,78,1.2,117-0.1c41.3-1.4,82.6-3.8,124-2.9c6.7-0.4,15.1,1.5,20.2-0.3c0.1-0.1,0.1-0.2,0.2-0.3c0.3-0.1,0.7-0.2,0.9-0.5 C289.8,302.7,289.3,302.8,289.4,301z" fill="#f75454"/></g><g id="change1_7"><path d="M179.7,400.1c-9.4-8.4-31.9-15.2-47.7-10.8c-8.6,2.5-16.6,8.2-23.2,15.7c-11.6,11.4-18,27.5-17.7,43.7 c0,1.1,0,2.2,0.1,3.3c0,0.3,0,0.6,0,0.9c0.2,3.7,0.9,7.4,2.1,10.8c1.4,4.8,3.3,9.4,6,13.8c13.5,25,48.2,27.9,71.1,15 c13-6.8,22.4-19.7,26-33.8C202.2,437.6,196.9,414.3,179.7,400.1z M188.5,432.9c-10.2,1.7-26.8,5.3-38.7,7.3 c7.1-11.6,14.1-23.2,21-34.9c1,0.6,2.1,1.2,3,1.9C183.1,414.6,187.2,422.7,188.5,432.9z M165.8,402.7c-5.6,9-11.1,18.1-16.5,27.2 c-0.4-10.6-0.9-21.1-1.7-31.7C154.1,398.5,160.3,400.2,165.8,402.7z M129.3,401.8c3.9-1.8,8.1-2.9,12.2-3.3 c0.2,11.9,1.1,23.9,1.7,35.8c-8-8.8-16.1-17.5-24.2-26.2C122.5,405.3,126,403.1,129.3,401.8z M101.9,430.1c1.1-2.4,2.3-4.8,3.5-7 c2.6-3.9,5.7-7.7,9.2-11c8.9,9.9,18,19.6,27.1,29.3c-14.5,2.1-29.4,3.5-43.4,7.5C98.2,442.2,99.4,435.7,101.9,430.1z M107.1,476.1 c-5-6.8-7.6-14.5-8.5-22.1c13.3-3,26.9-5.1,40.5-7.1c-3.1,4.9-6.2,9.9-9.4,14.7c-4.7,7.4-9.5,14.7-13.8,22.3 C112.1,481.6,108.8,478.8,107.1,476.1z M127.2,488.8c-2.1-0.6-4.3-1.4-6.4-2.3c7.7-12.3,15.5-24.5,23.1-36.9 c0.5,13.9-0.5,27.9,1.5,41.6C139.8,491.4,133.7,490.7,127.2,488.8z M152.4,490.5c-0.4,0.1-0.8,0.1-1.1,0.1 c-0.6-13.4-0.9-26.9-1.3-40.3c6.1,6.5,12.1,13,18,19.6c2.1,2.5,4.4,4.9,6.9,7C168.7,482.8,160.2,488.4,152.4,490.5z M188.8,444.8 c-0.9,9.7-1.1,14.9-8,25.5c-0.5,0.8-1.2,1.5-1.9,2.3c-8.7-9.2-17.4-18.5-26-27.9c12.3-1.8,24.4-3.8,35.8-6.5 C188.9,440.4,188.9,442.6,188.8,444.8z" fill="#ffbe4f"/></g><g id="change1_8"><path d="M252.7,304.9c-16.8,0.9-33.6,2.3-50.4,2.9c-52.2,1.4-104.5-0.6-156.7-1.2c-5.5,0-11.1-0.3-16.5-0.1 c-1.5,0.6-1.1,3.1,0.6,3.1c64.3,1.1,128.7,5.1,193,1.6c10.9-0.8,21.8-0.9,32.7-2.3c-0.7,0.1,0.2,0.1,0.5-0.1 c0.8-0.3,1.3-1.1,1.3-1.9C257,304.6,254.4,304.8,252.7,304.9z" fill="#ffbe4f"/></g><g id="change1_9"><path d="M77.2,436.5c-10.5-1.3-21.5,0.4-32.1,0.2c-3.2,0.4-7.8-0.6-10.5,0.7c-1,1-0.6,2.9,0.9,3.2 c13.3,0.3,26.8,0.9,40.2,0.2c2.3-0.8,2.2-0.5,3.3-1.3C80.3,437.1,77.9,436.7,77.2,436.5z" fill="#ffbe4f"/></g><g id="change1_10"><path d="M250.3,434.7c-12.2-0.5-30.6,0.7-44.9,1.1c-1.1,0.2-2.5-0.2-3.3,0.6c-1,0.9-0.3,2.8,1.1,2.7 c15.4-0.4,34.6,0.4,47.9-0.2C253.4,438.2,252.7,434.6,250.3,434.7z" fill="#ffbe4f"/></g><g id="change1_11"><path d="M61.7,326.1c-1.6-0.8-30,1.6-21.5,4.7c2.1-0.4,4.6-0.7,7.2-1c0.3,6.6-0.2,13.3-0.3,19.9 c-0.5,2.1,1.3,4.5,3.4,2.8c0.7-3.2,0.9-6.5,1-9.9c2.7-0.9,6.4-2.4,10-4.4C67.7,335.1,70,328.2,61.7,326.1z M63.2,332.1 c-2,2.1-6.7,4.9-11.8,6.5c-0.1-3.1-0.2-6.2-0.2-9.1c4.3-0.2,8.3-0.2,10.7,0.4C63.3,330.7,63.9,330.8,63.2,332.1z" fill="#ffbe4f"/></g><g id="change1_12"><path d="M85.1,326.9c-2-1.2-4.5-1-6.6,0c-0.4-0.1-0.8-0.2-1.2,0c-3.6,0.9-5.8,4.8-6.6,8.2c-0.8,3.4-1.2,7.1,0.3,10.4 c1.9,5.1,8.4,8.1,13.1,4.9c3.7-2.5,5.1-7.1,5.5-11.4C89.7,334.7,89,329.4,85.1,326.9z M81.7,347.3c-7.3,2.5-8.8-8.5-5.5-14 c0.3-0.5,1.7-2.4,4-3.3c1.8-0.7,4.6-0.2,5.6,5.5C86.3,337.8,85,345.9,81.7,347.3z" fill="#ffbe4f"/></g><g id="change1_13"><path d="M104.1,325.7c-3,0.2-6.4,0.4-8.9,2.2c-0.8,1,0.2,2.6,1.5,2.2c0.4-0.2,0.9-0.3,1.5-0.5 c-0.5,6.2-0.1,12.5-0.4,18.7c0,1.2,1,2.2,2.2,2.2c1.2,0,2.2-1,2.2-2.2c0-2,0.2-4,0.3-6c3.2,0.6,11.8-5.3,12-10.7 C114.6,326.1,108.5,325.5,104.1,325.7z M111.1,332.1c-0.7,3.4-6.2,5.2-8.6,7c0.1-2.6,0.2-5.1,0.3-7.7c0-0.2,0-0.3,0-0.5 c0.1-0.6,0.1-1.3-0.2-1.9c2.7-0.1,5.6,0.2,7.4,1C111.2,330.6,111.2,331,111.1,332.1z" fill="#ffbe4f"/></g><g id="change1_14"><path d="M51.8,365.1c0.7-0.1,0.9,0.3,2.2,0.3c1.6-0.1,1.8-2.6,0.2-3c-12-3.8-18.4,23.4-4.1,21.8 c6.4-1.1,4.8-6.1,1.1-4.3c-1.4,0.6-1.9,1.2-3.4,0.7c-4-1.4-2.8-10.8,0.8-14C49.7,365.8,50.4,365.1,51.8,365.1z" fill="#ffbe4f"/></g><g id="change1_15"><path d="M72.2,363.5c-1.4-0.8-3.1-0.8-4.5-0.1c-0.1,0-0.2,0-0.4,0c-2.1,0.7-3.4,2.9-4.2,4.9c-1.8,4.2-2.1,9.5,0.4,13.6 c4.2,5.5,11-0.1,11.9-4.8C76.6,372.6,76.2,366.2,72.2,363.5z M69.5,379.7c-0.2,0.1-0.3,0.2-0.4,0.3c-0.6,0.3-0.5,0.3-1.2,0.5 c-0.3,0.1-0.7,0-1.1-0.3c-0.2-0.3-0.3-0.3-0.5-0.7c-1.6-3.7-0.5-8.8,0.7-11.4c1-2,3.1-1.1,3.5-0.3C71.4,369.7,73,377.1,69.5,379.7z" fill="#ffbe4f"/></g><g id="change1_16"><path d="M90.8,373.2c-0.1-0.1-0.3-0.4-0.5-0.6c1.3-1.2,2.9-1.8,4.2-3.2c2.2-2.6,0-5.7-2.9-6.5 c-1.7-0.5-3.5-0.7-5.2-0.3c-0.3,0.1-0.6,0.2-0.7,0.4c-0.8,0.1-1.6,0.6-1.5,1.5c0.2,5.2-0.2,10.5-0.1,15.7c0,0.8,0.6,1.5,1.4,1.6 c0.9,0.2,1.8-0.6,1.8-1.4c0.1-1.6,0.1-3.1,0.2-4.7c1,1.4,2.1,2.7,3,4.1c1,1.9,3.8,4.2,5.2,1.4C96.4,377.9,92.4,375.7,90.8,373.2z M87.5,370.5c0-0.7,0-3.7,0-4.7c1.7-0.3,4,0.5,4.5,1.2c0,0.1,0,0.2,0,0.2c0-0.1-0.1,0.3-0.1,0.4c-0.1,0.2-0.2,0.5-0.6,0.8 c-0.1,0.1,0,0,0,0C90,369.7,88.1,370.3,87.5,370.5z" fill="#ffbe4f"/></g><g fill="#ffbe4f" id="change1_23"><path d="M117.6,362.4c-0.1-0.3-0.2-0.8-0.5-1c-1.1-1.2-3.3-0.3-3.2,1.3c-0.3,1.3-0.1,8-0.3,11.2 c-1.6-3.1-3.2-6.3-5.2-9.2c-0.2-0.4-0.6-0.8-0.9-1c-0.9-1.2-3.4-1-3.4,1c0.1,3.5-1,12.4,0.2,14.9c1,1.1,3,0.3,3-1.2 c0.2-2.3,0.2-4.6,0.3-6.9c0.5,0.9,1,1.9,1.6,2.7c1.6,1.7,4.8,9.4,7.2,5.2C117.6,374.7,118.2,368.8,117.6,362.4z"/><path d="M117.6,362.4C117.6,362.4,117.6,362.4,117.6,362.4C117.7,362.6,117.7,362.7,117.6,362.4z"/></g><g><g id="change3_1"><path d="M153.5,240c0.1-0.7-2-2.8-1.3-1.8c-6.6-4.5-12.9-4.9-21.2-4.3c-5.7,1-9.7,3.6-10.8,3.8 c0.2-0.1,0.7-0.3,1.2-0.3c-0.5,0-1,0.1-1.5,0.4c-0.2,0.1-0.2,0.3-0.3,0.4c-0.8,0.2-1.5,0.9-1.4,1.8c0.6,10.8,4,22.8,6.2,32.4 c3,2.6,8.5,1.6,12.4,1.8c2.4-0.3,5.3,0.6,7.4-0.9c1.6-1.5,2.3-3.4,3.1-6.1c2.5-8.9,4.7-18.3,5.8-24.8 C152.7,243,154,241.1,153.5,240z" fill="#f75454"/></g><g id="change1_1"><path d="M131,233.9c-0.3,0.1-0.6,0.2-1,0.2c-0.1,4,0.1,8.1,0,12.1c-0.1,5.4-0.3,10.9-0.6,16.3 c-0.2,3.8-0.5,7.7-0.8,11.6c1.1,0.1,2.2,0.2,3.3,0.2c2.5-13.5,5-26.9,7.2-40.4C136.6,233.6,133.9,233.6,131,233.9z" fill="#ffbe4f"/></g><g id="change1_2"><path d="M144.5,234.7c-2.2,13.2-4.6,26.4-7.4,39.5c0.9-0.1,1.9,0,2.9,0c2.3-7.5,4.5-15,6.5-22.6 c1.3-4.9,2.4-9.8,3.6-14.7C148.3,235.9,146.4,235.2,144.5,234.7z" fill="#ffbe4f"/></g></g><g fill="#ffbe4f" id="change1_21"><path d="M127.5,219.1c-0.2-1.3-0.6-2.8-1.8-3.6c-3-1.4-6.6,0.4-8.9,2.5c-1.3,0.5-5,7.5-3.3,4.8 c-0.4,0.4-0.7,1-0.9,1.6c-1.9,0.2-2.8,0.5-4.6,2.1c-1.4,1.4-2.5,3-3,4.9c0,0.1,0,0,0,0.1c-0.3,0.6-0.5,1.6-0.7,2.5 c-1.4-0.1-2.9-0.2-4.3,0.2c-4,1.2-6.4,4.8-7.2,8.7c-0.4-0.3-0.8-0.5-1.2-0.8c-2.5-1.2-5.6-0.7-7.9,0.9c-2-2.4-6.3-5.1-10.2-3.8 c0,0,0,0-0.1,0c-0.9-0.8-1.5-1.3-3-1.9c-1.1-0.5-2.3-0.6-3.5-0.3c-0.6,0.1-1.5,0.5-2.1,0.8c-1.6-2.8-3.6-5.7-6.8-6.7 c-1.7-0.6-3.7-0.4-5,0.8c-0.4,0.5-0.2,1.1,0.2,1.5c-0.2,0.7-0.2,1.5-0.2,2.1c0.4,9.1-0.5,16.5,0.3,25.4c0.4,2.9-0.5,8.7,3.1,9.5 c5.5-0.1,10.6,1.5,16.8,1.4c12.6,0,22-0.2,33.9,0.2c6.3,0,10.3,0.7,16.1-0.6c2.1-0.5,3.8-1.9,3.8-4.3c0.1,0.2,0.2,0.3,0.2,0.1 c0.1-0.8,0.2-1.6,0.2-2.4c0.4-2.3,1.2-12.4,1-17.5C128.2,237.7,128.4,228.3,127.5,219.1z"/><path d="M70.3,237.2C70.3,237.2,70.3,237.2,70.3,237.2C70.3,237.2,70.3,237.2,70.3,237.2 C70.3,237.2,70.3,237.2,70.3,237.2z"/><path d="M70.4,237.2C70.4,237.2,70.4,237.2,70.4,237.2C70.5,237.3,70.6,237.4,70.4,237.2z"/></g><g id="change2_4"><path d="M281.3,36c-8.3,0-16.7-0.1-25,0c-39.2,0.1-88.6,1.2-127.7,2.4C90.2,39.9,51.8,42,13.4,44.2 c-2,0.3-4.5-0.5-6.3,0.7C6,46,6.8,48.2,8.5,48.1c74.7-4.7,159.8-6.4,234.6-7.6c13.7,0.1,27.4-0.1,41.1,0.3c1.1,0.1,2.2-0.5,2.5-1.5 C287.9,35.8,283.8,35.7,281.3,36z" fill="#202f5a"/></g><g><g id="change1_5"><path d="M134.3,176.7c-1.3-2-4.1-4.4-6.7-6.4c-2.2-2.1-4.4-4.1-7.6-4c-18.4-1.2-50.2,1.2-65.1,2.9 c-0.6,0.1-1,0.5-1.3,0.9c0,0,0,0,0,0c-2.2,2.8-3.5,5.9-5.7,8.4c-0.6,0.8-0.7,1-0.6,1c-0.5,0.6-0.9,1.3-1,2.1c0,0.3,0,0.3,0.1,0.4 c0,0,0,0,0,0c0,0,0,0,0,0c0,0.1,0,0.2,0.1,0.1c0.7,2.2,2.3,3.5,3.8,5.5c1.3,1.4,1.8,2.9,3.7,3.3c10.2,0.7,20.3-1.2,30.5-0.9 c14,0.2,33.6,1.2,43,0.3c4.9-2.4,6.3-7.2,8-10.1C135.8,179,135.1,177.7,134.3,176.7z" fill="#ffbe4f"/></g><g id="change2_2"><path d="M129,192.7c0.3-0.2,0.6-0.4,0.8-0.6c3.1-3.9,6.5-7.8,8.7-12.2c0.4-0.8,0.7-1.8,0.3-2.7 c-4.6-4.3-9.5-8.6-14.5-12.5c-0.2-0.1-0.4,0-0.6,0.1c-0.4-0.1-0.8-0.1-1.1,0c-13.2,0-26.3,0.7-39.4,1.2 c-10.5,0.6-21.1,1.5-31.6,2.3c-1,0-1.5,0.8-1.5,1.6c-1.7,2.4-3.4,4.8-4.9,7.3c-0.8,1.5-1.4,3.3-1.1,5c0.8,2.3,2.7,4.2,4.1,6.2 c0,0,0,0,0,0.1c0.4,0.5,1.8,3.1,2.1,4.2c1.2,12.1,0.7,25.5,1,36.7c0.2,12.1,1.6,26.6,1.6,39.5c0-0.6,0,0.7,0,1.1 c-0.1,1.1,0.2,2.4,1.4,2.7c23.3-0.3,46.6,1.4,69.9,1.1c1.1-0.2,1.7,0.1,3.5-1.2c4.6-5.9,3.7-14.2,4.2-21.3 c0.2-18.7-2.7-41.4-3.2-57.9c0.1-0.1,0.2-0.2,0.3-0.3C128.9,192.9,129,192.8,129,192.7z M53,171.3C53.1,171.3,53,171.2,53,171.3 c22.6-2.5,45.4-3.4,68.1-2.8c0.7,0.1,1.6,0.1,2.4,0c3.1,2.5,6.3,4.6,9.5,7.5c-24.8-1.1-49.6,0.8-74.3,1.5 c-2.6,0.4-6.9-0.2-9.9,0.1C50.2,175.6,51.9,173.4,53,171.3z M125.3,265c-0.1,0.8-0.1,1-0.8,3.1c0,0,0,0.1-0.1,0.1 c-0.1,0.1-0.3,0.4-0.4,0.7c-0.1,0-0.2,0-0.3,0c-12.4,0.7-37.7,0.3-54.7-0.1c-4.4,0.1-8.8,0.4-13.2,0.5c-0.1-1.4-0.5-4.4-0.4-6.5 c-0.9-19.3-1.1-36.5-1.4-55.4c-0.4-4.7,0-9.8-0.6-14.5c22.6-0.2,52.4-1.2,70.9-1.6c0,0.1,0,0.1,0,0.2c0.4,2.4,0.7,5.1,0.8,9.8 C125.8,222.2,128.1,246.8,125.3,265z M127.3,188.4c-0.1,0-0.1-0.1-0.2-0.1c0,0,0,0,0.1,0c0,0-0.1,0-0.1-0.1c0,0,0,0,0,0 c-0.1-0.1-0.2-0.1-0.3-0.2c-18.2-1-36.6,0.7-54.9,0.5c-6.2,0.1-12.4-0.2-18.6,0.1c-0.1-0.2-0.1-0.4-0.3-0.6 c-2.4-2.2-5.5-5.8-5.7-6.6c0-0.1,0-0.1,0-0.2c0.2,0.1,0.5,0.2,0.7,0.2c28.8-0.2,57.8-3.3,86.6-2.2 C132.9,181.6,129.9,184.8,127.3,188.4z" fill="#202f5a"/></g></g><g id="change3_4"><path d="M114.7,226.5c-1.2,0.7-2.3,2-2.4,3.4c0.1,0.7,1.2,0.8,1.4,0.1c0.2-0.7,1.1-2,2.4-2.5 C117.1,226.4,115.6,225.8,114.7,226.5z" fill="#f75454"/></g><g id="change3_5"><path d="M106.8,236.9c-0.6-0.2-1.3-0.2-1.9,0c-0.7,0.2-0.4,1.2,0.3,1c0.5-0.2,1.2,0,2,0.4 C108.4,238.1,107.7,237,106.8,236.9z" fill="#f75454"/></g><g id="change3_6"><path d="M61.9,242.5c-0.6-0.1-1.3,0.1-1.9,0.4c-0.6,0.3-0.1,1.3,0.5,0.9c0.5-0.3,0.9-0.4,1.4-0.4 C62.6,243.7,62.8,242.5,61.9,242.5z" fill="#f75454"/></g><g id="change3_7"><path d="M65.2,250.6c-0.6,0.3-1.5,1.2-0.9,1.8c0.3,0.3,1,0.2,1.1-0.3c0.1-0.2,0.2-0.4,0.5-0.5 C66.5,251.3,65.9,250.2,65.2,250.6z" fill="#f75454"/></g><g id="change3_8"><path d="M71.3,244.6c-1.7,1.2-0.8,2.8,0.2,1.7c0.4-0.7,0.5-0.8,1-1C73.7,244.6,72.3,243.6,71.3,244.6z" fill="#f75454"/></g><g id="change3_9"><path d="M59.9,260.2c-0.5,0.3-0.2,1.1,0.4,1.1c0.1,0,0.2,0,0.3,0c0,0,0.1,0,0.1,0c0.4,0.3,1.1,0.6,1.3-0.1 C62.1,260.3,60.5,259.8,59.9,260.2z" fill="#f75454"/></g><g id="change3_10"><path d="M70.3,262.3c-0.5,0.1-1.1,0.4-1.4,0.8c-0.3,0.6,0.5,1.1,0.9,0.5c0.2-0.2,0.1-0.2,0.5-0.4 C71.2,263.1,71,262.2,70.3,262.3z" fill="#f75454"/></g><g id="change3_11"><path d="M76.2,255.5c-0.4-0.5-1-1.1-1.7-1c-0.7,0.1-0.7,1.1-0.1,1.2c0.7,0.1,0.8,0.4,1.2,0.8 C76.5,257.4,76.9,256.2,76.2,255.5z" fill="#f75454"/></g><g id="change3_12"><path d="M84.3,250.2c-0.8,0-1.5,0.5-1.8,1.2c-0.3,0.8,1,1.4,1.4,0.6c0.3-0.5,0.2-0.2,0.7-0.5 C85.7,251,84.8,250,84.3,250.2z" fill="#f75454"/></g><g id="change3_13"><path d="M83.1,260.8c-1.3,0.2-1.3,1.7-0.1,1.3c0.3-0.2,0.3-0.2,0.8-0.3c0,0,0,0,0,0C85.3,261.8,84.7,260.3,83.1,260.8z" fill="#f75454"/></g><g id="change3_14"><path d="M97.3,245.9c-1.1,0.8-1,2.6-0.2,1.6c0-0.5,0.4-0.9,0.5-1C98,246.4,97.7,245.7,97.3,245.9z" fill="#f75454"/></g><g fill="#f75454" id="change3_22"><path d="M92.4,255.4C92.4,255.3,92.4,255.3,92.4,255.4c0,0,0,0,0.1,0.1C92.4,255.4,92.4,255.3,92.4,255.4z"/><path d="M93.2,254.7c-0.4-0.5-1-0.9-1.6-0.8c-0.6,0.2-0.5,1.1,0.1,1.1c0.2,0,0.3,0,0.7,0.4c0,0-0.1-0.1,0-0.1 C93,256.2,93.9,255.3,93.2,254.7z"/></g><g id="change3_15"><path d="M107.8,253.4c-0.7,0.4-1.3,1.2-1.3,2c0.4,0.9,1.3,0.2,1.2-0.1c0.1-0.6,0.2-0.8,0.4-1 C108.6,254.2,108.8,253.1,107.8,253.4z" fill="#f75454"/></g><g id="change3_16"><path d="M98.3,262.3c-0.2,0.2,0.1,0.6,0.4,0.5c0.4-0.3,0.9,0.1,1.2-0.4C100,261.7,98.6,262,98.3,262.3z" fill="#f75454"/></g><g id="change3_23"><path d="M118.2,261.2C118.2,261.2,118.2,261.2,118.2,261.2C118.1,261.3,117.9,261.5,118.2,261.2z" fill="#f75454"/></g><g id="change3_17"><path d="M116.5,261.8c-1.3,0.7-1.2,2.2-0.3,1.5c0.2-0.2,0.1-0.2,0.4-0.5c0,0,0,0,0,0c0.1-0.1,0.2-0.1,0.1-0.1 C117.5,262.6,117.2,261.4,116.5,261.8z" fill="#f75454"/></g><g id="change3_18"><path d="M116,250.2c-0.6,0.3-0.5,1.3,0.2,0.9c0.5-0.6,0.5-0.4,1.2-0.7C118.1,249.3,116.3,249.8,116,250.2z" fill="#f75454"/></g><g id="change3_19"><path d="M110.8,244.5c-0.2-0.6-1.2-0.9-1.8-0.7c-0.5,0.3-0.2,1.1,0.4,0.9c0.3-0.1,0.3-0.1,0.6-0.1 C110.3,244.6,110.8,244.9,110.8,244.5z" fill="#f75454"/></g><g id="change3_20"><path d="M120.7,235.4c-0.6,0.5-1.4,1.3-1.3,2.2c0.2,0.7,1.3,0.5,1.3-0.2c0.2-0.7,0.4-1,0.6-1.3 C121.6,235.8,121.1,235.2,120.7,235.4z" fill="#f75454"/></g><g fill="#f75454" id="change3_24"><path d="M61.1,188.5c0.6-0.8,0.9-1.8,0.9-2.8c0-1.7-0.8-3.4-2.2-4.5c-2-1.3-4.9-0.8-6.5,0.9c-2.9,3.7-0.3,9.8,4.8,8.4 c0.9-0.2,1.8-0.6,2.5-1.3c0,0,0.1-0.1,0.1-0.1c0,0,0-0.1,0.1-0.1c0.1-0.1,0.2-0.1,0.2-0.2C61.1,188.8,61.1,188.7,61.1,188.5z M60.2,183.9c0.3,1.4-0.1,3.4-1.4,4.5c-0.8,0.3-2,0.4-2.5,0.3c-2.7-0.4-3.1-5.2-0.4-6.2C57.4,181.8,59.8,182.6,60.2,183.9z"/><path d="M83.9,187.7c0.6-0.8,0.9-1.8,0.9-2.8c0-1.7-0.8-3.4-2.2-4.5c-2-1.3-4.9-0.8-6.5,0.9c-2.9,3.7-0.3,9.8,4.8,8.4 c0.9-0.2,1.8-0.6,2.5-1.3c0,0,0.1-0.1,0.1-0.1c0,0,0-0.1,0.1-0.1c0.1-0.1,0.2-0.1,0.2-0.2C83.8,188,83.8,187.8,83.9,187.7z M82.9,183.1c0.3,1.4-0.1,3.4-1.4,4.5c-0.8,0.3-2,0.4-2.5,0.3c-2.7-0.4-3.1-5.2-0.4-6.2C80.1,181,82.6,181.8,82.9,183.1z"/><path d="M106.6,187.1c0.6-0.8,0.9-1.8,0.9-2.8c0-1.7-0.8-3.4-2.2-4.5c-2-1.3-4.9-0.8-6.5,0.9 c-2.9,3.7-0.3,9.8,4.8,8.4c0.9-0.2,1.8-0.6,2.5-1.3c0,0,0.1-0.1,0.1-0.1c0,0,0-0.1,0.1-0.1c0.1-0.1,0.2-0.1,0.2-0.2 C106.5,187.4,106.6,187.2,106.6,187.1z M105.7,182.5c0.3,1.4-0.1,3.4-1.4,4.5c-0.8,0.3-2,0.4-2.5,0.3c-2.7-0.4-3.1-5.2-0.4-6.2 C102.9,180.4,105.3,181.2,105.7,182.5z"/><path d="M129.3,186.7c0.6-0.8,0.9-1.8,0.9-2.8c0-1.7-0.8-3.4-2.2-4.5c-2-1.3-4.9-0.8-6.5,0.9 c-2.9,3.7-0.3,9.8,4.8,8.4c0.9-0.2,1.8-0.6,2.5-1.3c0,0,0.1-0.1,0.1-0.1c0,0,0-0.1,0.1-0.1c0.1-0.1,0.2-0.1,0.2-0.2 C129.3,187,129.3,186.9,129.3,186.7z M128.4,182.2c0.3,1.4-0.1,3.4-1.4,4.5c-0.8,0.3-2,0.4-2.5,0.3c-2.7-0.4-3.1-5.2-0.4-6.2 C125.6,180,128,180.8,128.4,182.2z"/></g><g><g id="change1_3"><path d="M237.6,229.1c-2.7-4.8-6.2-9.4-10.7-12.7c-4.2-3-9.2-4.6-14.2-5.7c-17.9-4-38.7,2.1-50.1,16.8 c-2.4,3.3-5.1,6.7-6.6,11.2c-0.7,2.8-2.7,9.5-1.4,11.9c1.1,1.1,3.1,0.3,3-1.3c0.5-14.3,8.9-25.6,22.8-31.8 c13.7-6.6,32.9-6.7,45.9,3c7.1,4.9,12.5,17.8,14.2,26.9c0.3,1.4,2.4,1.4,2.7,0C243,242.5,240.5,234.7,237.6,229.1z" fill="#ffbe4f"/></g><g id="change2_1"><path d="M240.1,254.2c2.3-1,6-2.2,5.8-5.3c-0.4-1.6-1.2-2-2.6-2.6c-1.1-0.2-2.3-0.3-3.4-0.4c-0.2-0.1-0.2-0.2-0.4-0.2 c-0.3,0-0.7,0-1,0.1c-6.1-0.4-12.3,0.5-18.3,0.5c-3.6,0.3-7.2,0.4-10.8,0.6c-16.3,0.1-33-0.2-49.1,0.6c-1.8,0.2-3.9-0.2-5.3,1.1 c-2.4,2.8,1.7,5.6,3.3,6.2c0.3,2.8,1.3,10.1,0.9,16.4c0.3,2,2.2,3.2,4,3.7c5.3,1.2,10.9,0.9,16.4,1.1c18.4-0.3,36.7,1.6,55,1.8 c7.9-0.3,6.4-10.2,5.6-15.6C240,260.8,239.5,258.3,240.1,254.2C240.1,254.2,240.1,254.2,240.1,254.2z" fill="#202f5a"/></g><g id="change1_4"><path d="M231.9,253.3c-18.5,0-37.1,0.3-55.6,0.7c-4.9,0.1-9.9,0.2-14.8,0.4c-1,0.3-0.7,1.9,0.4,1.9 c23.7-0.1,47.3-0.7,71-0.7c1.5-0.2,4.8,1,4.6-1.5C236.5,252.3,233.6,253.7,231.9,253.3z" fill="#ffbe4f"/></g></g></g></svg>